<?xml version="1.0" encoding="utf-8" standalone="no"?>
<!DOCTYPE svg PUBLIC "-//W3C//DTD SVG 1.1//EN"
  "http://www.w3.org/Graphics/SVG/1.1/DTD/svg11.dtd">
<svg xmlns:xlink="http://www.w3.org/1999/xlink" width="720pt" height="504pt" viewBox="0 0 720 504" xmlns="http://www.w3.org/2000/svg" version="1.1">
 <metadata>
  <rdf:RDF xmlns:dc="http://purl.org/dc/elements/1.1/" xmlns:cc="http://creativecommons.org/ns#" xmlns:rdf="http://www.w3.org/1999/02/22-rdf-syntax-ns#">
   <cc:Work>
    <dc:type rdf:resource="http://purl.org/dc/dcmitype/StillImage"/>
    <dc:date>2024-02-15T17:37:21.722513</dc:date>
    <dc:format>image/svg+xml</dc:format>
    <dc:creator>
     <cc:Agent>
      <dc:title>Matplotlib v3.5.1, https://matplotlib.org/</dc:title>
     </cc:Agent>
    </dc:creator>
   </cc:Work>
  </rdf:RDF>
 </metadata>
 <defs>
  <style type="text/css">*{stroke-linejoin: round; stroke-linecap: butt}</style>
 </defs>
 <g id="figure_1">
  <g id="patch_1">
   <path d="M 0 504 
L 720 504 
L 720 0 
L 0 0 
z
" style="fill: #ffffff"/>
  </g>
  <g id="axes_1">
   <g id="patch_2">
    <path d="M 90 448.56 
L 648 448.56 
L 648 60.48 
L 90 60.48 
z
" style="fill: #ffffff"/>
   </g>
   <g id="matplotlib.axis_1">
    <g id="xtick_1">
     <g id="line2d_1">
      <path d="M 164.798108 448.56 
L 164.798108 60.48 
" clip-path="url(#p72f5e4dde0)" style="fill: none; stroke: #b0b0b0; stroke-width: 0.8; stroke-linecap: square"/>
     </g>
     <g id="line2d_2">
      <defs>
       <path id="mf1ffbe2cdc" d="M 0 0 
L 0 3.5 
" style="stroke: #000000; stroke-width: 0.8"/>
      </defs>
      <g>
       <use xlink:href="#mf1ffbe2cdc" x="164.798108" y="448.56" style="stroke: #000000; stroke-width: 0.8"/>
      </g>
     </g>
     <g id="text_1">
      <!-- 10 -->
      <g transform="translate(158.435608 463.158437)scale(0.1 -0.1)">
       <defs>
        <path id="DejaVuSans-31" d="M 794 531 
L 1825 531 
L 1825 4091 
L 703 3866 
L 703 4441 
L 1819 4666 
L 2450 4666 
L 2450 531 
L 3481 531 
L 3481 0 
L 794 0 
L 794 531 
z
" transform="scale(0.015625)"/>
        <path id="DejaVuSans-30" d="M 2034 4250 
Q 1547 4250 1301 3770 
Q 1056 3291 1056 2328 
Q 1056 1369 1301 889 
Q 1547 409 2034 409 
Q 2525 409 2770 889 
Q 3016 1369 3016 2328 
Q 3016 3291 2770 3770 
Q 2525 4250 2034 4250 
z
M 2034 4750 
Q 2819 4750 3233 4129 
Q 3647 3509 3647 2328 
Q 3647 1150 3233 529 
Q 2819 -91 2034 -91 
Q 1250 -91 836 529 
Q 422 1150 422 2328 
Q 422 3509 836 4129 
Q 1250 4750 2034 4750 
z
" transform="scale(0.015625)"/>
       </defs>
       <use xlink:href="#DejaVuSans-31"/>
       <use xlink:href="#DejaVuSans-30" x="63.623047"/>
      </g>
     </g>
    </g>
    <g id="xtick_2">
     <g id="line2d_3">
      <path d="M 265.603802 448.56 
L 265.603802 60.48 
" clip-path="url(#p72f5e4dde0)" style="fill: none; stroke: #b0b0b0; stroke-width: 0.8; stroke-linecap: square"/>
     </g>
     <g id="line2d_4">
      <g>
       <use xlink:href="#mf1ffbe2cdc" x="265.603802" y="448.56" style="stroke: #000000; stroke-width: 0.8"/>
      </g>
     </g>
     <g id="text_2">
      <!-- 20 -->
      <g transform="translate(259.241302 463.158437)scale(0.1 -0.1)">
       <defs>
        <path id="DejaVuSans-32" d="M 1228 531 
L 3431 531 
L 3431 0 
L 469 0 
L 469 531 
Q 828 903 1448 1529 
Q 2069 2156 2228 2338 
Q 2531 2678 2651 2914 
Q 2772 3150 2772 3378 
Q 2772 3750 2511 3984 
Q 2250 4219 1831 4219 
Q 1534 4219 1204 4116 
Q 875 4013 500 3803 
L 500 4441 
Q 881 4594 1212 4672 
Q 1544 4750 1819 4750 
Q 2544 4750 2975 4387 
Q 3406 4025 3406 3419 
Q 3406 3131 3298 2873 
Q 3191 2616 2906 2266 
Q 2828 2175 2409 1742 
Q 1991 1309 1228 531 
z
" transform="scale(0.015625)"/>
       </defs>
       <use xlink:href="#DejaVuSans-32"/>
       <use xlink:href="#DejaVuSans-30" x="63.623047"/>
      </g>
     </g>
    </g>
    <g id="xtick_3">
     <g id="line2d_5">
      <path d="M 366.409496 448.56 
L 366.409496 60.48 
" clip-path="url(#p72f5e4dde0)" style="fill: none; stroke: #b0b0b0; stroke-width: 0.8; stroke-linecap: square"/>
     </g>
     <g id="line2d_6">
      <g>
       <use xlink:href="#mf1ffbe2cdc" x="366.409496" y="448.56" style="stroke: #000000; stroke-width: 0.8"/>
      </g>
     </g>
     <g id="text_3">
      <!-- 30 -->
      <g transform="translate(360.046996 463.158437)scale(0.1 -0.1)">
       <defs>
        <path id="DejaVuSans-33" d="M 2597 2516 
Q 3050 2419 3304 2112 
Q 3559 1806 3559 1356 
Q 3559 666 3084 287 
Q 2609 -91 1734 -91 
Q 1441 -91 1130 -33 
Q 819 25 488 141 
L 488 750 
Q 750 597 1062 519 
Q 1375 441 1716 441 
Q 2309 441 2620 675 
Q 2931 909 2931 1356 
Q 2931 1769 2642 2001 
Q 2353 2234 1838 2234 
L 1294 2234 
L 1294 2753 
L 1863 2753 
Q 2328 2753 2575 2939 
Q 2822 3125 2822 3475 
Q 2822 3834 2567 4026 
Q 2313 4219 1838 4219 
Q 1578 4219 1281 4162 
Q 984 4106 628 3988 
L 628 4550 
Q 988 4650 1302 4700 
Q 1616 4750 1894 4750 
Q 2613 4750 3031 4423 
Q 3450 4097 3450 3541 
Q 3450 3153 3228 2886 
Q 3006 2619 2597 2516 
z
" transform="scale(0.015625)"/>
       </defs>
       <use xlink:href="#DejaVuSans-33"/>
       <use xlink:href="#DejaVuSans-30" x="63.623047"/>
      </g>
     </g>
    </g>
    <g id="xtick_4">
     <g id="line2d_7">
      <path d="M 467.21519 448.56 
L 467.21519 60.48 
" clip-path="url(#p72f5e4dde0)" style="fill: none; stroke: #b0b0b0; stroke-width: 0.8; stroke-linecap: square"/>
     </g>
     <g id="line2d_8">
      <g>
       <use xlink:href="#mf1ffbe2cdc" x="467.21519" y="448.56" style="stroke: #000000; stroke-width: 0.8"/>
      </g>
     </g>
     <g id="text_4">
      <!-- 40 -->
      <g transform="translate(460.85269 463.158437)scale(0.1 -0.1)">
       <defs>
        <path id="DejaVuSans-34" d="M 2419 4116 
L 825 1625 
L 2419 1625 
L 2419 4116 
z
M 2253 4666 
L 3047 4666 
L 3047 1625 
L 3713 1625 
L 3713 1100 
L 3047 1100 
L 3047 0 
L 2419 0 
L 2419 1100 
L 313 1100 
L 313 1709 
L 2253 4666 
z
" transform="scale(0.015625)"/>
       </defs>
       <use xlink:href="#DejaVuSans-34"/>
       <use xlink:href="#DejaVuSans-30" x="63.623047"/>
      </g>
     </g>
    </g>
    <g id="xtick_5">
     <g id="line2d_9">
      <path d="M 568.020884 448.56 
L 568.020884 60.48 
" clip-path="url(#p72f5e4dde0)" style="fill: none; stroke: #b0b0b0; stroke-width: 0.8; stroke-linecap: square"/>
     </g>
     <g id="line2d_10">
      <g>
       <use xlink:href="#mf1ffbe2cdc" x="568.020884" y="448.56" style="stroke: #000000; stroke-width: 0.8"/>
      </g>
     </g>
     <g id="text_5">
      <!-- 50 -->
      <g transform="translate(561.658384 463.158437)scale(0.1 -0.1)">
       <defs>
        <path id="DejaVuSans-35" d="M 691 4666 
L 3169 4666 
L 3169 4134 
L 1269 4134 
L 1269 2991 
Q 1406 3038 1543 3061 
Q 1681 3084 1819 3084 
Q 2600 3084 3056 2656 
Q 3513 2228 3513 1497 
Q 3513 744 3044 326 
Q 2575 -91 1722 -91 
Q 1428 -91 1123 -41 
Q 819 9 494 109 
L 494 744 
Q 775 591 1075 516 
Q 1375 441 1709 441 
Q 2250 441 2565 725 
Q 2881 1009 2881 1497 
Q 2881 1984 2565 2268 
Q 2250 2553 1709 2553 
Q 1456 2553 1204 2497 
Q 953 2441 691 2322 
L 691 4666 
z
" transform="scale(0.015625)"/>
       </defs>
       <use xlink:href="#DejaVuSans-35"/>
       <use xlink:href="#DejaVuSans-30" x="63.623047"/>
      </g>
     </g>
    </g>
    <g id="text_6">
     <!-- Time (s) -->
     <g transform="translate(348.671094 476.836563)scale(0.1 -0.1)">
      <defs>
       <path id="DejaVuSans-54" d="M -19 4666 
L 3928 4666 
L 3928 4134 
L 2272 4134 
L 2272 0 
L 1638 0 
L 1638 4134 
L -19 4134 
L -19 4666 
z
" transform="scale(0.015625)"/>
       <path id="DejaVuSans-69" d="M 603 3500 
L 1178 3500 
L 1178 0 
L 603 0 
L 603 3500 
z
M 603 4863 
L 1178 4863 
L 1178 4134 
L 603 4134 
L 603 4863 
z
" transform="scale(0.015625)"/>
       <path id="DejaVuSans-6d" d="M 3328 2828 
Q 3544 3216 3844 3400 
Q 4144 3584 4550 3584 
Q 5097 3584 5394 3201 
Q 5691 2819 5691 2113 
L 5691 0 
L 5113 0 
L 5113 2094 
Q 5113 2597 4934 2840 
Q 4756 3084 4391 3084 
Q 3944 3084 3684 2787 
Q 3425 2491 3425 1978 
L 3425 0 
L 2847 0 
L 2847 2094 
Q 2847 2600 2669 2842 
Q 2491 3084 2119 3084 
Q 1678 3084 1418 2786 
Q 1159 2488 1159 1978 
L 1159 0 
L 581 0 
L 581 3500 
L 1159 3500 
L 1159 2956 
Q 1356 3278 1631 3431 
Q 1906 3584 2284 3584 
Q 2666 3584 2933 3390 
Q 3200 3197 3328 2828 
z
" transform="scale(0.015625)"/>
       <path id="DejaVuSans-65" d="M 3597 1894 
L 3597 1613 
L 953 1613 
Q 991 1019 1311 708 
Q 1631 397 2203 397 
Q 2534 397 2845 478 
Q 3156 559 3463 722 
L 3463 178 
Q 3153 47 2828 -22 
Q 2503 -91 2169 -91 
Q 1331 -91 842 396 
Q 353 884 353 1716 
Q 353 2575 817 3079 
Q 1281 3584 2069 3584 
Q 2775 3584 3186 3129 
Q 3597 2675 3597 1894 
z
M 3022 2063 
Q 3016 2534 2758 2815 
Q 2500 3097 2075 3097 
Q 1594 3097 1305 2825 
Q 1016 2553 972 2059 
L 3022 2063 
z
" transform="scale(0.015625)"/>
       <path id="DejaVuSans-20" transform="scale(0.015625)"/>
       <path id="DejaVuSans-28" d="M 1984 4856 
Q 1566 4138 1362 3434 
Q 1159 2731 1159 2009 
Q 1159 1288 1364 580 
Q 1569 -128 1984 -844 
L 1484 -844 
Q 1016 -109 783 600 
Q 550 1309 550 2009 
Q 550 2706 781 3412 
Q 1013 4119 1484 4856 
L 1984 4856 
z
" transform="scale(0.015625)"/>
       <path id="DejaVuSans-73" d="M 2834 3397 
L 2834 2853 
Q 2591 2978 2328 3040 
Q 2066 3103 1784 3103 
Q 1356 3103 1142 2972 
Q 928 2841 928 2578 
Q 928 2378 1081 2264 
Q 1234 2150 1697 2047 
L 1894 2003 
Q 2506 1872 2764 1633 
Q 3022 1394 3022 966 
Q 3022 478 2636 193 
Q 2250 -91 1575 -91 
Q 1294 -91 989 -36 
Q 684 19 347 128 
L 347 722 
Q 666 556 975 473 
Q 1284 391 1588 391 
Q 1994 391 2212 530 
Q 2431 669 2431 922 
Q 2431 1156 2273 1281 
Q 2116 1406 1581 1522 
L 1381 1569 
Q 847 1681 609 1914 
Q 372 2147 372 2553 
Q 372 3047 722 3315 
Q 1072 3584 1716 3584 
Q 2034 3584 2315 3537 
Q 2597 3491 2834 3397 
z
" transform="scale(0.015625)"/>
       <path id="DejaVuSans-29" d="M 513 4856 
L 1013 4856 
Q 1481 4119 1714 3412 
Q 1947 2706 1947 2009 
Q 1947 1309 1714 600 
Q 1481 -109 1013 -844 
L 513 -844 
Q 928 -128 1133 580 
Q 1338 1288 1338 2009 
Q 1338 2731 1133 3434 
Q 928 4138 513 4856 
z
" transform="scale(0.015625)"/>
      </defs>
      <use xlink:href="#DejaVuSans-54"/>
      <use xlink:href="#DejaVuSans-69" x="57.958984"/>
      <use xlink:href="#DejaVuSans-6d" x="85.742188"/>
      <use xlink:href="#DejaVuSans-65" x="183.154297"/>
      <use xlink:href="#DejaVuSans-20" x="244.677734"/>
      <use xlink:href="#DejaVuSans-28" x="276.464844"/>
      <use xlink:href="#DejaVuSans-73" x="315.478516"/>
      <use xlink:href="#DejaVuSans-29" x="367.578125"/>
     </g>
    </g>
   </g>
   <g id="matplotlib.axis_2">
    <g id="ytick_1">
     <g id="line2d_11">
      <path d="M 90 431.617325 
L 648 431.617325 
" clip-path="url(#p72f5e4dde0)" style="fill: none; stroke: #b0b0b0; stroke-width: 0.8; stroke-linecap: square"/>
     </g>
     <g id="line2d_12">
      <defs>
       <path id="mea04fd622c" d="M 0 0 
L -3.5 0 
" style="stroke: #000000; stroke-width: 0.8"/>
      </defs>
      <g>
       <use xlink:href="#mea04fd622c" x="90" y="431.617325" style="stroke: #000000; stroke-width: 0.8"/>
      </g>
     </g>
     <g id="text_7">
      <!-- −0.6 -->
      <g transform="translate(58.717187 435.416543)scale(0.1 -0.1)">
       <defs>
        <path id="DejaVuSans-2212" d="M 678 2272 
L 4684 2272 
L 4684 1741 
L 678 1741 
L 678 2272 
z
" transform="scale(0.015625)"/>
        <path id="DejaVuSans-2e" d="M 684 794 
L 1344 794 
L 1344 0 
L 684 0 
L 684 794 
z
" transform="scale(0.015625)"/>
        <path id="DejaVuSans-36" d="M 2113 2584 
Q 1688 2584 1439 2293 
Q 1191 2003 1191 1497 
Q 1191 994 1439 701 
Q 1688 409 2113 409 
Q 2538 409 2786 701 
Q 3034 994 3034 1497 
Q 3034 2003 2786 2293 
Q 2538 2584 2113 2584 
z
M 3366 4563 
L 3366 3988 
Q 3128 4100 2886 4159 
Q 2644 4219 2406 4219 
Q 1781 4219 1451 3797 
Q 1122 3375 1075 2522 
Q 1259 2794 1537 2939 
Q 1816 3084 2150 3084 
Q 2853 3084 3261 2657 
Q 3669 2231 3669 1497 
Q 3669 778 3244 343 
Q 2819 -91 2113 -91 
Q 1303 -91 875 529 
Q 447 1150 447 2328 
Q 447 3434 972 4092 
Q 1497 4750 2381 4750 
Q 2619 4750 2861 4703 
Q 3103 4656 3366 4563 
z
" transform="scale(0.015625)"/>
       </defs>
       <use xlink:href="#DejaVuSans-2212"/>
       <use xlink:href="#DejaVuSans-30" x="83.789062"/>
       <use xlink:href="#DejaVuSans-2e" x="147.412109"/>
       <use xlink:href="#DejaVuSans-36" x="179.199219"/>
      </g>
     </g>
    </g>
    <g id="ytick_2">
     <g id="line2d_13">
      <path d="M 90 375.782707 
L 648 375.782707 
" clip-path="url(#p72f5e4dde0)" style="fill: none; stroke: #b0b0b0; stroke-width: 0.8; stroke-linecap: square"/>
     </g>
     <g id="line2d_14">
      <g>
       <use xlink:href="#mea04fd622c" x="90" y="375.782707" style="stroke: #000000; stroke-width: 0.8"/>
      </g>
     </g>
     <g id="text_8">
      <!-- −0.4 -->
      <g transform="translate(58.717187 379.581926)scale(0.1 -0.1)">
       <use xlink:href="#DejaVuSans-2212"/>
       <use xlink:href="#DejaVuSans-30" x="83.789062"/>
       <use xlink:href="#DejaVuSans-2e" x="147.412109"/>
       <use xlink:href="#DejaVuSans-34" x="179.199219"/>
      </g>
     </g>
    </g>
    <g id="ytick_3">
     <g id="line2d_15">
      <path d="M 90 319.94809 
L 648 319.94809 
" clip-path="url(#p72f5e4dde0)" style="fill: none; stroke: #b0b0b0; stroke-width: 0.8; stroke-linecap: square"/>
     </g>
     <g id="line2d_16">
      <g>
       <use xlink:href="#mea04fd622c" x="90" y="319.94809" style="stroke: #000000; stroke-width: 0.8"/>
      </g>
     </g>
     <g id="text_9">
      <!-- −0.2 -->
      <g transform="translate(58.717187 323.747309)scale(0.1 -0.1)">
       <use xlink:href="#DejaVuSans-2212"/>
       <use xlink:href="#DejaVuSans-30" x="83.789062"/>
       <use xlink:href="#DejaVuSans-2e" x="147.412109"/>
       <use xlink:href="#DejaVuSans-32" x="179.199219"/>
      </g>
     </g>
    </g>
    <g id="ytick_4">
     <g id="line2d_17">
      <path d="M 90 264.113473 
L 648 264.113473 
" clip-path="url(#p72f5e4dde0)" style="fill: none; stroke: #b0b0b0; stroke-width: 0.8; stroke-linecap: square"/>
     </g>
     <g id="line2d_18">
      <g>
       <use xlink:href="#mea04fd622c" x="90" y="264.113473" style="stroke: #000000; stroke-width: 0.8"/>
      </g>
     </g>
     <g id="text_10">
      <!-- 0.0 -->
      <g transform="translate(67.096875 267.912692)scale(0.1 -0.1)">
       <use xlink:href="#DejaVuSans-30"/>
       <use xlink:href="#DejaVuSans-2e" x="63.623047"/>
       <use xlink:href="#DejaVuSans-30" x="95.410156"/>
      </g>
     </g>
    </g>
    <g id="ytick_5">
     <g id="line2d_19">
      <path d="M 90 208.278856 
L 648 208.278856 
" clip-path="url(#p72f5e4dde0)" style="fill: none; stroke: #b0b0b0; stroke-width: 0.8; stroke-linecap: square"/>
     </g>
     <g id="line2d_20">
      <g>
       <use xlink:href="#mea04fd622c" x="90" y="208.278856" style="stroke: #000000; stroke-width: 0.8"/>
      </g>
     </g>
     <g id="text_11">
      <!-- 0.2 -->
      <g transform="translate(67.096875 212.078075)scale(0.1 -0.1)">
       <use xlink:href="#DejaVuSans-30"/>
       <use xlink:href="#DejaVuSans-2e" x="63.623047"/>
       <use xlink:href="#DejaVuSans-32" x="95.410156"/>
      </g>
     </g>
    </g>
    <g id="ytick_6">
     <g id="line2d_21">
      <path d="M 90 152.444239 
L 648 152.444239 
" clip-path="url(#p72f5e4dde0)" style="fill: none; stroke: #b0b0b0; stroke-width: 0.8; stroke-linecap: square"/>
     </g>
     <g id="line2d_22">
      <g>
       <use xlink:href="#mea04fd622c" x="90" y="152.444239" style="stroke: #000000; stroke-width: 0.8"/>
      </g>
     </g>
     <g id="text_12">
      <!-- 0.4 -->
      <g transform="translate(67.096875 156.243458)scale(0.1 -0.1)">
       <use xlink:href="#DejaVuSans-30"/>
       <use xlink:href="#DejaVuSans-2e" x="63.623047"/>
       <use xlink:href="#DejaVuSans-34" x="95.410156"/>
      </g>
     </g>
    </g>
    <g id="ytick_7">
     <g id="line2d_23">
      <path d="M 90 96.609622 
L 648 96.609622 
" clip-path="url(#p72f5e4dde0)" style="fill: none; stroke: #b0b0b0; stroke-width: 0.8; stroke-linecap: square"/>
     </g>
     <g id="line2d_24">
      <g>
       <use xlink:href="#mea04fd622c" x="90" y="96.609622" style="stroke: #000000; stroke-width: 0.8"/>
      </g>
     </g>
     <g id="text_13">
      <!-- 0.6 -->
      <g transform="translate(67.096875 100.40884)scale(0.1 -0.1)">
       <use xlink:href="#DejaVuSans-30"/>
       <use xlink:href="#DejaVuSans-2e" x="63.623047"/>
       <use xlink:href="#DejaVuSans-36" x="95.410156"/>
      </g>
     </g>
    </g>
    <g id="text_14">
     <!-- Error (X) -->
     <g transform="translate(52.6375 275.620781)rotate(-90)scale(0.1 -0.1)">
      <defs>
       <path id="DejaVuSans-45" d="M 628 4666 
L 3578 4666 
L 3578 4134 
L 1259 4134 
L 1259 2753 
L 3481 2753 
L 3481 2222 
L 1259 2222 
L 1259 531 
L 3634 531 
L 3634 0 
L 628 0 
L 628 4666 
z
" transform="scale(0.015625)"/>
       <path id="DejaVuSans-72" d="M 2631 2963 
Q 2534 3019 2420 3045 
Q 2306 3072 2169 3072 
Q 1681 3072 1420 2755 
Q 1159 2438 1159 1844 
L 1159 0 
L 581 0 
L 581 3500 
L 1159 3500 
L 1159 2956 
Q 1341 3275 1631 3429 
Q 1922 3584 2338 3584 
Q 2397 3584 2469 3576 
Q 2541 3569 2628 3553 
L 2631 2963 
z
" transform="scale(0.015625)"/>
       <path id="DejaVuSans-6f" d="M 1959 3097 
Q 1497 3097 1228 2736 
Q 959 2375 959 1747 
Q 959 1119 1226 758 
Q 1494 397 1959 397 
Q 2419 397 2687 759 
Q 2956 1122 2956 1747 
Q 2956 2369 2687 2733 
Q 2419 3097 1959 3097 
z
M 1959 3584 
Q 2709 3584 3137 3096 
Q 3566 2609 3566 1747 
Q 3566 888 3137 398 
Q 2709 -91 1959 -91 
Q 1206 -91 779 398 
Q 353 888 353 1747 
Q 353 2609 779 3096 
Q 1206 3584 1959 3584 
z
" transform="scale(0.015625)"/>
       <path id="DejaVuSans-58" d="M 403 4666 
L 1081 4666 
L 2241 2931 
L 3406 4666 
L 4084 4666 
L 2584 2425 
L 4184 0 
L 3506 0 
L 2194 1984 
L 872 0 
L 191 0 
L 1856 2491 
L 403 4666 
z
" transform="scale(0.015625)"/>
      </defs>
      <use xlink:href="#DejaVuSans-45"/>
      <use xlink:href="#DejaVuSans-72" x="63.183594"/>
      <use xlink:href="#DejaVuSans-72" x="102.546875"/>
      <use xlink:href="#DejaVuSans-6f" x="141.410156"/>
      <use xlink:href="#DejaVuSans-72" x="202.591797"/>
      <use xlink:href="#DejaVuSans-20" x="243.705078"/>
      <use xlink:href="#DejaVuSans-28" x="275.492188"/>
      <use xlink:href="#DejaVuSans-58" x="314.505859"/>
      <use xlink:href="#DejaVuSans-29" x="383.011719"/>
     </g>
    </g>
   </g>
   <g id="line2d_25">
    <path d="M 115.363636 182.718811 
L 115.682202 256.446957 
L 116.018369 234.612155 
L 116.356234 270.855136 
L 116.691714 329.71417 
L 117.026574 213.083143 
L 117.367904 170.815007 
L 117.747468 231.588482 
L 118.678557 183.216759 
L 119.040605 365.192131 
L 119.098089 354.303823 
L 119.689363 249.301876 
L 119.916695 351.150546 
L 120.588204 239.280859 
L 121.228074 241.323875 
L 121.536045 282.015878 
L 121.951847 258.241796 
L 122.457531 272.791828 
L 122.836763 272.791828 
L 122.980005 239.76982 
L 123.279127 195.378839 
L 123.625461 213.993986 
L 123.951726 198.790968 
L 124.562842 378.576929 
L 124.842785 311.034924 
L 125.086898 311.206682 
L 125.337678 201.489977 
L 125.633853 219.028996 
L 125.96866 364.766976 
L 126.643779 177.007886 
L 126.981398 299.967138 
L 127.317739 185.679592 
L 127.653733 323.369874 
L 127.989891 265.890359 
L 128.326223 339.00013 
L 128.662275 286.748683 
L 129.35625 381.824609 
L 129.664529 278.787204 
L 130.008291 272.327219 
L 130.339181 365.281169 
L 130.713149 365.281169 
L 131.018482 270.79843 
L 131.355212 367.713959 
L 131.691788 297.829316 
L 132.270521 254.143038 
L 132.451006 229.274336 
L 132.948557 323.4336 
L 133.177773 326.440966 
L 133.493185 343.594782 
L 134.062963 364.474577 
L 134.540325 237.055804 
L 134.719508 140.839623 
L 135.098374 142.5083 
L 135.392372 254.907958 
L 135.832857 373.886856 
L 136.049528 375.672596 
L 136.385229 253.675983 
L 136.721272 332.984394 
L 137.058035 182.466642 
L 137.41243 288.677112 
L 137.748593 286.438954 
L 138.085323 277.980678 
L 138.421856 245.133122 
L 139.296346 325.16125 
L 139.661066 309.191759 
L 140.191068 269.459262 
L 140.597842 253.805031 
L 141.074988 253.805031 
L 141.20095 339.770652 
L 141.537699 263.223543 
L 141.873223 324.174126 
L 142.226782 322.218102 
L 143.05528 341.108733 
L 143.460555 205.322703 
L 143.552874 209.405488 
L 143.713253 211.416525 
L 143.893147 192.765434 
L 144.327613 180.995338 
L 144.744372 280.369668 
L 145.108774 259.384378 
L 145.30468 259.384378 
L 145.570428 371.504496 
L 145.90598 290.47454 
L 146.241321 156.128342 
L 146.706176 361.793134 
L 147.504065 268.575384 
L 147.747942 268.575384 
L 147.770448 306.000435 
L 147.922621 306.000435 
L 148.260692 261.571588 
L 148.658771 317.759215 
L 149.183346 244.865942 
L 149.462717 350.959828 
L 149.700038 264.516126 
L 150.138705 315.259726 
L 150.458386 276.029485 
L 150.850033 323.657902 
L 151.074203 325.812609 
L 151.283356 291.023464 
L 151.617783 344.761466 
L 151.954768 206.283944 
L 152.459846 210.560248 
L 152.638294 267.725208 
L 153.125914 245.439778 
L 153.660179 324.44807 
L 154.248395 353.332685 
L 154.609674 359.323797 
L 154.967434 280.303406 
L 155.853681 201.607128 
L 156.616739 379.111131 
L 156.985622 379.111131 
L 157.200255 384.843981 
L 157.541796 226.972719 
L 157.881271 374.354164 
L 158.214324 379.903442 
L 158.544435 237.410846 
L 158.92794 284.00062 
L 159.27526 245.333902 
L 159.951258 309.417998 
L 160.560941 404.542676 
L 161.298014 207.668862 
L 161.744306 247.59765 
L 162.153056 394.199514 
L 162.382994 403.990804 
L 162.907164 249.936189 
L 163.452197 227.608683 
L 163.630759 275.175466 
L 164.206305 320.346465 
L 164.465853 321.823599 
L 164.685754 294.470007 
L 164.91995 237.835653 
L 165.080612 248.830885 
L 165.365818 250.10125 
L 165.669694 348.43763 
L 166.008303 236.350813 
L 166.342548 194.632836 
L 166.677524 322.340291 
L 167.020806 200.71298 
L 167.351628 301.843867 
L 167.918224 267.642362 
L 168.161101 268.886852 
L 168.366457 204.750281 
L 168.743204 334.997332 
L 169.186015 334.997332 
L 169.370701 249.252629 
L 169.701283 253.070054 
L 170.049362 272.325658 
L 170.379868 163.873854 
L 170.721861 278.795782 
L 171.058154 271.887851 
L 171.384073 249.789511 
L 171.731787 217.659866 
L 172.068041 349.830087 
L 172.529906 339.964583 
L 172.726139 245.582854 
L 173.077803 183.60746 
L 173.401945 272.36392 
L 173.827297 251.682945 
L 174.440836 206.446275 
L 174.741049 298.595347 
L 175.096194 257.555216 
L 175.970328 228.625701 
L 176.64298 219.044492 
L 176.778551 202.425384 
L 177.14056 220.414366 
L 177.76378 160.037664 
L 178.320954 286.07157 
L 178.816534 284.136553 
L 178.947375 282.361945 
L 179.144943 248.114974 
L 179.370959 246.826055 
L 179.735419 399.752163 
L 180.117174 299.306764 
L 180.369992 297.935577 
L 180.687135 282.493655 
L 181.028157 159.508023 
L 181.359682 241.093877 
L 181.692148 239.726733 
L 182.020461 258.809164 
L 182.360648 285.287352 
L 182.730549 324.081129 
L 183.044654 179.943538 
L 183.411143 263.856795 
L 183.722382 195.541929 
L 184.037112 293.877397 
L 184.375452 162.232159 
L 184.716378 333.648772 
L 185.046153 299.834264 
L 185.386551 323.955218 
L 185.719642 308.039228 
L 186.07273 299.181042 
L 186.397842 231.753634 
L 186.731327 216.039672 
L 187.101729 270.120623 
L 187.652222 244.08654 
L 188.201888 296.51407 
L 188.548957 274.494357 
L 189.009246 222.14266 
L 189.632167 316.67369 
L 190.227219 224.452752 
L 190.742488 238.286061 
L 190.907197 254.166064 
L 191.295297 271.866934 
L 191.510449 245.60374 
L 191.805134 315.70742 
L 192.117518 312.438759 
L 192.323037 240.569727 
L 192.65884 386.662015 
L 192.994161 220.927122 
L 193.336136 354.54901 
L 193.705903 256.541174 
L 194.004491 225.779296 
L 194.338928 298.711243 
L 194.676038 252.888611 
L 195.011167 262.636343 
L 195.346297 181.173998 
L 195.679955 249.12476 
L 196.109413 185.268922 
L 196.620981 133.672133 
L 196.972857 273.218356 
L 197.297104 289.319116 
L 198.100347 256.442868 
L 198.233178 208.168443 
L 198.980019 218.524383 
L 199.104005 214.271296 
L 199.363658 218.884595 
L 199.653709 239.036169 
L 199.813208 235.814829 
L 200.38637 325.010871 
L 200.722653 304.815113 
L 201.442249 187.186795 
L 201.74226 234.074536 
L 202.072919 234.684281 
L 202.746523 198.798623 
L 203.025009 263.040837 
L 203.163637 259.300611 
L 203.411821 212.23778 
L 204.119746 269.044416 
L 204.454347 231.398631 
L 204.762299 204.390475 
L 205.204639 217.273323 
L 205.734991 290.46817 
L 205.982493 226.989715 
L 206.286503 273.966506 
L 206.479582 271.023586 
L 206.782929 349.742461 
L 207.121548 195.755768 
L 207.444632 286.809027 
L 207.802295 283.888107 
L 208.123571 319.044575 
L 208.468189 237.688527 
L 208.786678 284.642549 
L 209.128383 174.127567 
L 209.46381 194.542372 
L 209.797892 371.809517 
L 210.17882 233.734118 
L 210.46816 205.233199 
L 210.802934 268.624782 
L 211.150003 310.304706 
L 211.598121 290.90763 
L 212.086068 347.310394 
L 212.39501 216.309484 
L 212.841003 284.655021 
L 213.17147 263.752948 
L 213.495804 251.551819 
L 213.829308 311.014142 
L 214.173157 298.777786 
L 214.589492 358.580846 
L 214.835292 276.268192 
L 215.172114 357.2452 
L 215.507359 247.835825 
L 215.844122 312.719351 
L 216.204689 308.757498 
L 216.704768 308.757498 
L 216.857836 293.737431 
L 217.190735 217.853569 
L 217.636103 322.449487 
L 218.254324 272.869193 
L 218.345451 211.169275 
L 218.602162 211.403932 
L 219.203444 270.90837 
L 219.539756 339.848182 
L 219.929154 229.435984 
L 220.660911 304.932799 
L 221.460866 284.554002 
L 221.801216 286.553666 
L 222.138162 202.52406 
L 222.472667 301.847079 
L 222.806835 240.625401 
L 223.147136 310.403066 
L 223.479093 305.947498 
L 223.849091 198.588596 
L 224.545258 282.797142 
L 225.099722 257.185161 
L 225.443571 337.370146 
L 225.891583 233.06295 
L 226.308274 233.06295 
L 226.563995 219.314354 
L 226.906681 239.072892 
L 227.242752 302.170038 
L 227.573267 300.827861 
L 227.909761 201.612069 
L 228.246102 191.520042 
L 228.582289 328.831589 
L 228.918457 269.249275 
L 229.460547 117.208225 
L 229.79833 119.06545 
L 229.926152 303.615164 
L 230.279221 342.899027 
L 230.60018 227.789832 
L 230.934694 289.671313 
L 231.272707 232.04673 
L 231.913318 346.426079 
L 232.283056 241.433935 
L 233.261045 376.639485 
L 233.622651 262.301897 
L 234.187468 310.747023 
L 234.755957 310.151842 
L 234.89122 311.239849 
L 235.012005 309.875539 
L 235.300624 240.811504 
L 235.629236 299.745844 
L 235.970383 242.229005 
L 236.287727 245.675721 
L 236.656774 247.037946 
L 236.960044 281.986867 
L 237.577966 283.786291 
L 238.060702 326.351069 
L 238.29635 302.952659 
L 238.648534 306.588156 
L 238.991355 243.132691 
L 239.314698 268.035371 
L 239.648404 239.331096 
L 239.984783 320.123894 
L 240.356041 313.753467 
L 240.675654 214.886499 
L 241.03524 348.384009 
L 242.001693 232.717679 
L 242.640593 264.115862 
L 243.105871 234.002329 
L 243.66467 391.749097 
L 244.004375 348.456941 
L 244.623394 330.969177 
L 244.992305 357.325178 
L 245.313495 363.644855 
L 245.637569 113.232062 
L 246.196079 279.141272 
L 246.869184 230.22214 
L 247.410351 285.223321 
L 247.766034 182.415577 
L 248.366076 275.114404 
L 248.480958 275.114404 
L 248.767039 170.465852 
L 249.104879 312.364729 
L 249.42853 202.421356 
L 249.893078 281.259074 
L 250.567624 282.606156 
L 251.279683 286.242465 
L 251.669013 214.603192 
L 251.953864 273.142085 
L 252.489513 265.374286 
L 252.829507 282.995964 
L 253.183998 310.997622 
L 253.35239 310.997622 
L 253.730492 270.097614 
L 254.114497 322.894512 
L 254.4677 329.941683 
L 254.871278 212.135662 
L 255.560187 189.785049 
L 255.74148 337.774975 
L 256.365305 211.331778 
L 256.552404 212.334039 
L 256.81101 228.769847 
L 257.017336 271.009144 
L 257.37302 315.322459 
L 257.823973 316.049894 
L 258.012265 264.10114 
L 258.34851 333.813614 
L 258.676813 259.153972 
L 259.015558 261.224855 
L 259.586373 152.004031 
L 260.094163 249.55411 
L 260.264996 250.069218 
L 260.590339 127.968059 
L 260.774131 128.049096 
L 261.7014 370.401232 
L 262.152392 254.620768 
L 262.371716 254.368273 
L 262.718113 238.93672 
L 263.083775 238.93672 
L 263.402619 211.508527 
L 263.714618 233.706036 
L 264.064725 239.979861 
L 264.41191 255.733051 
L 264.725582 301.449314 
L 265.059096 281.826517 
L 265.644909 240.317125 
L 266.049449 161.514486 
L 266.536377 314.692924 
L 267.116748 242.379653 
L 267.621077 268.134696 
L 268.528618 268.134696 
L 268.866362 252.357843 
L 269.209029 271.572746 
L 269.540986 169.082097 
L 270.274233 268.123095 
L 270.602902 250.155126 
L 270.882657 247.985551 
L 271.55455 367.005938 
L 271.892775 281.961627 
L 272.226597 312.289041 
L 272.901509 250.898713 
L 273.235869 191.476419 
L 273.570576 189.105251 
L 273.90682 384.127845 
L 274.244699 337.966728 
L 274.590192 259.264519 
L 274.929051 256.726218 
L 275.253279 342.386227 
L 275.588889 256.395151 
L 275.923019 245.572418 
L 276.598161 338.808194 
L 277.041328 365.941505 
L 277.424564 294.761198 
L 277.713606 276.605469 
L 277.990861 273.530337 
L 278.281557 303.31567 
L 278.611956 187.920212 
L 278.970773 349.886588 
L 279.520786 240.604257 
L 279.903906 313.326587 
L 280.19837 309.93814 
L 280.336344 306.611485 
L 280.626943 366.105536 
L 280.963111 362.734785 
L 281.312353 301.326921 
L 281.639946 267.638934 
L 281.971902 203.44233 
L 282.642969 330.780223 
L 282.985078 330.780223 
L 283.31715 315.11241 
L 283.652299 259.963212 
L 283.986909 306.61975 
L 284.323134 299.581184 
L 284.66705 350.254949 
L 285.000988 269.215011 
L 285.527389 283.811704 
L 285.756365 283.811704 
L 286.013009 393.34244 
L 286.340967 144.682879 
L 286.79417 229.680881 
L 287.640646 291.303369 
L 287.845608 281.095312 
L 288.520769 339.74812 
L 289.178588 302.343673 
L 289.516929 234.031583 
L 289.879476 291.437221 
L 290.233044 295.944423 
L 290.861522 236.550116 
L 291.428301 277.377167 
L 291.840377 223.213341 
L 292.280506 286.645042 
L 292.791564 203.450726 
L 293.081221 192.485048 
L 293.726677 253.748422 
L 294.078957 251.057349 
L 294.400377 390.365189 
L 294.738064 234.78265 
L 295.072866 317.554557 
L 295.408534 252.885001 
L 295.746971 269.622245 
L 296.088868 204.855979 
L 296.416403 263.250327 
L 296.992948 338.250565 
L 297.584453 290.878808 
L 298.134869 344.518261 
L 298.432909 344.518261 
L 298.768557 322.322438 
L 299.10486 222.896349 
L 299.45389 340.923706 
L 299.798518 341.516981 
L 300.130206 221.404897 
L 300.457779 249.19953 
L 300.793139 240.60429 
L 301.124634 214.697765 
L 301.457303 212.801469 
L 301.80543 212.154248 
L 302.151826 280.603772 
L 302.498588 293.413113 
L 302.850907 292.90952 
L 303.136795 229.171679 
L 303.474847 282.420125 
L 303.811861 259.59221 
L 304.592387 295.780371 
L 304.974643 196.55962 
L 305.267934 233.822888 
L 305.573472 183.843613 
L 306.337137 226.67375 
L 307.013337 241.488222 
L 307.371539 241.990883 
L 307.44241 284.606149 
L 307.966773 284.606149 
L 308.021955 236.25939 
L 308.356777 276.989047 
L 308.70102 220.32029 
L 309.379066 390.387644 
L 309.720521 302.729028 
L 310.283742 339.656382 
L 310.540809 261.472548 
L 310.865056 262.546627 
L 311.071248 225.461745 
L 311.431873 265.073326 
L 311.724376 194.162248 
L 312.062889 274.472753 
L 312.398307 239.146616 
L 312.734301 260.143414 
L 313.065182 291.360001 
L 313.44488 314.147967 
L 313.739344 131.605527 
L 314.069993 203.753245 
L 314.455613 253.755416 
L 314.765978 393.391628 
L 315.079284 330.046498 
L 315.413491 289.588784 
L 315.784517 214.362897 
L 316.123531 370.585419 
L 316.437068 317.309265 
L 317.100405 251.367093 
L 317.437188 248.071271 
L 317.802889 255.565609 
L 318.280645 258.086671 
L 318.450132 268.472687 
L 318.779282 155.65703 
L 319.116411 222.87044 
L 319.448234 208.946548 
L 319.810281 152.50323 
L 320.128625 152.50323 
L 320.469234 244.108095 
L 320.802575 203.282221 
L 321.295964 201.630868 
L 321.78093 353.383072 
L 321.963146 308.210293 
L 322.343805 349.371855 
L 323.152596 237.176909 
L 323.803589 279.770931 
L 324.071808 279.770931 
L 324.211628 277.2145 
L 324.641566 180.672998 
L 325.240839 180.672998 
L 325.510288 183.092919 
L 325.897677 303.796404 
L 326.182181 285.566416 
L 326.515907 303.066813 
L 326.852671 217.581204 
L 327.191684 354.643423 
L 327.526486 343.626205 
L 327.86475 280.104982 
L 328.342141 280.104982 
L 328.532259 267.84698 
L 328.868927 290.793106 
L 329.228398 285.496778 
L 329.556702 270.943371 
L 329.878276 241.830606 
L 330.212309 306.967097 
L 330.606024 293.190585 
L 330.890567 278.520517 
L 331.338348 281.927214 
L 331.712701 242.772815 
L 331.926891 244.979563 
L 332.287401 219.249715 
L 332.582691 239.056085 
L 332.931741 270.596699 
L 333.323379 261.265209 
L 333.628918 279.476676 
L 334.025959 283.119216 
L 334.279757 287.691689 
L 334.946555 359.558304 
L 335.27632 207.246415 
L 335.59228 248.052424 
L 336.720818 148.142203 
L 337.059005 176.893871 
L 337.732244 319.909788 
L 338.069123 223.399297 
L 338.404541 305.076272 
L 338.74067 278.610696 
L 339.441712 313.342392 
L 339.766804 243.622666 
L 340.085918 324.501477 
L 340.420336 300.836026 
L 340.832201 290.009604 
L 341.090825 333.889615 
L 341.429146 266.43263 
L 341.76416 171.377472 
L 342.103212 301.199648 
L 342.440379 386.289904 
L 342.792948 194.099072 
L 343.107485 194.099072 
L 343.476089 236.63599 
L 343.77884 308.360246 
L 344.114815 180.478621 
L 344.789131 267.319964 
L 345.12501 268.20549 
L 345.459505 227.386029 
L 345.796173 216.544393 
L 346.132379 298.139758 
L 346.469739 311.832335 
L 346.807617 247.561005 
L 347.143401 382.425857 
L 347.559938 291.110031 
L 347.818428 291.76618 
L 348.152423 207.90666 
L 348.653156 288.437669 
L 349.281326 273.570804 
L 349.526242 273.863768 
L 349.704862 301.960969 
L 350.33732 323.15186 
L 350.666547 323.006293 
L 350.8354 232.891384 
L 351.171914 331.413919 
L 351.5121 216.30231 
L 351.849171 249.844246 
L 352.401241 252.033196 
L 352.531505 220.519818 
L 353.566887 218.891514 
L 353.914072 277.399986 
L 354.387579 289.69428 
L 354.576909 288.475932 
L 354.913365 216.355191 
L 355.389064 249.904659 
L 355.756765 303.161741 
L 355.921003 301.585982 
L 356.257248 254.377149 
L 356.768652 233.86596 
L 357.107319 231.394012 
L 357.495438 229.660389 
L 357.676539 351.163847 
L 357.959024 349.373215 
L 358.609518 285.562344 
L 358.974622 122.281214 
L 359.454051 294.352571 
L 359.619174 281.359093 
L 360.099853 351.753327 
L 360.289375 349.739569 
L 360.682167 309.630929 
L 361.029486 225.189456 
L 361.478768 268.225811 
L 361.77477 354.898458 
L 361.99071 351.888695 
L 362.313245 232.505176 
L 362.691405 236.798273 
L 362.978928 234.438337 
L 363.314 282.239827 
L 363.65036 255.086567 
L 363.988566 260.318014 
L 364.321638 289.173692 
L 364.658228 249.498409 
L 365.199761 278.848889 
L 365.470211 254.27566 
L 365.712127 254.27566 
L 366.005072 280.430349 
L 366.381347 259.798524 
L 366.674638 232.472762 
L 367.087465 336.091108 
L 367.3498 333.015434 
L 367.685179 234.122144 
L 368.018982 365.191319 
L 368.367167 256.844995 
L 369.446907 252.821326 
L 369.860387 393.486906 
L 370.206706 268.509748 
L 370.45689 261.79072 
L 371.003037 171.948064 
L 371.579641 189.336989 
L 371.934286 189.336989 
L 372.127461 185.740296 
L 372.232364 306.865332 
L 372.472742 299.641034 
L 372.812313 303.82932 
L 373.156556 299.068772 
L 373.48263 199.00275 
L 373.818182 271.867856 
L 374.152504 233.686657 
L 374.489864 326.44269 
L 374.824897 282.930866 
L 375.17189 327.091285 
L 375.837534 95.580445 
L 376.290622 412.170925 
L 376.551573 245.482539 
L 376.845825 159.564334 
L 377.178321 159.564334 
L 377.513027 239.067266 
L 377.849656 213.352391 
L 378.186112 273.999215 
L 378.526779 167.427382 
L 378.874195 167.427382 
L 379.21142 309.398838 
L 379.534071 303.581115 
L 379.870623 145.983805 
L 380.217289 213.325391 
L 380.537786 209.566895 
L 380.873416 209.675905 
L 381.2236 207.717342 
L 381.616276 275.465509 
L 381.882303 272.694165 
L 382.219105 197.189741 
L 382.554292 278.877596 
L 382.89221 190.634085 
L 383.225128 222.800183 
L 383.640069 233.007907 
L 383.898598 253.015721 
L 384.235458 290.420548 
L 384.570106 310.359869 
L 384.907216 265.062333 
L 385.241653 286.553565 
L 385.609546 186.363591 
L 385.991878 177.077895 
L 386.502282 336.548176 
L 386.801399 334.782604 
L 386.928106 334.782604 
L 387.262236 400.372245 
L 387.597711 285.116383 
L 387.932764 254.109485 
L 388.304348 251.35102 
L 388.612944 202.978588 
L 388.978837 310.268466 
L 389.273512 249.756808 
L 389.609603 248.683959 
L 389.951077 226.620388 
L 390.292167 181.034831 
L 390.709473 213.586397 
L 391.103284 305.679142 
L 391.588154 189.952343 
L 391.783579 189.952343 
L 391.962507 189.323567 
L 392.29856 247.361526 
L 392.63392 274.513562 
L 392.979355 274.200729 
L 393.311062 220.652206 
L 393.642653 238.986841 
L 393.97859 370.567065 
L 394.650541 141.018149 
L 395.006359 297.612237 
L 395.738222 262.944397 
L 396.354068 262.944397 
L 396.670277 290.334719 
L 397.002869 268.73363 
L 397.339037 313.585996 
L 397.674512 176.807851 
L 398.011526 335.426963 
L 398.346694 262.064113 
L 398.693705 249.321985 
L 399.017952 221.149982 
L 399.354235 272.031709 
L 399.690711 276.605325 
L 400.026186 268.467129 
L 400.362584 194.405049 
L 400.701521 283.433105 
L 401.038188 326.215378 
L 401.370357 162.559516 
L 401.707793 271.791513 
L 402.045999 273.22064 
L 402.378629 252.772093 
L 402.722488 252.421941 
L 403.132911 190.13967 
L 403.386555 191.845072 
L 403.7233 303.879621 
L 404.062428 190.984768 
L 404.471582 311.860789 
L 404.75303 313.84343 
L 405.128921 276.081458 
L 405.638709 312.288849 
L 406.150498 417.267456 
L 406.56815 171.511846 
L 406.846214 269.123279 
L 407.176959 303.81157 
L 407.591343 276.59294 
L 407.888441 333.130045 
L 408.470639 288.27664 
L 408.808422 297.207719 
L 409.144436 302.713899 
L 409.484795 242.041438 
L 409.819771 247.604377 
L 410.15267 263.772633 
L 410.488645 212.198097 
L 410.831389 337.65815 
L 411.182361 261.478753 
L 411.504724 224.841538 
L 411.833201 295.256645 
L 412.195133 178.175661 
L 412.504805 188.280345 
L 412.844395 409.889609 
L 413.251857 278.508962 
L 413.515346 254.09071 
L 413.85609 260.39834 
L 414.211139 227.457814 
L 414.64898 319.059451 
L 415.200069 198.268745 
L 415.705628 365.479914 
L 416.202611 370.041237 
L 416.963815 250.945826 
L 417.212114 268.536173 
L 417.679065 281.387994 
L 417.890294 283.719687 
L 418.224386 324.821452 
L 418.742711 214.600387 
L 419.227044 328.820092 
L 419.684304 287.98201 
L 419.858156 291.529782 
L 420.152754 234.042154 
L 420.762063 359.471416 
L 420.91415 176.736809 
L 421.242319 316.326793 
L 421.490388 319.820705 
L 421.581332 200.849415 
L 422.018596 288.511236 
L 422.256552 273.829484 
L 422.589066 204.137919 
L 422.989145 207.342478 
L 423.265439 223.310186 
L 423.596993 231.888653 
L 423.932853 334.93019 
L 424.33993 295.211645 
L 424.694863 295.211645 
L 424.968081 290.914512 
L 425.285637 320.552554 
L 425.755357 227.451079 
L 426.128364 247.908252 
L 426.62081 247.908252 
L 426.957708 280.855232 
L 427.294798 161.284141 
L 427.62889 199.43937 
L 427.968018 250.920052 
L 428.30284 349.903901 
L 428.641853 240.829506 
L 429.014899 350.31336 
L 429.331455 249.888438 
L 429.647318 252.12785 
L 429.981486 288.41286 
L 430.317347 290.541251 
L 430.654745 238.200061 
L 430.991028 274.929765 
L 431.340001 172.40295 
L 431.667708 210.88851 
L 432.074632 186.722321 
L 432.341159 279.666489 
L 432.806418 332.457582 
L 433.12505 174.983153 
L 433.366928 273.986368 
L 433.68756 254.388588 
L 434.022843 256.551723 
L 434.354204 262.169386 
L 434.68545 210.414004 
L 435.737137 340.223465 
L 436.551292 154.479961 
L 436.88023 349.357578 
L 437.037393 349.857643 
L 437.373407 218.593516 
L 437.709805 241.296705 
L 438.382717 416.056411 
L 438.717462 191.072096 
L 439.209216 153.334047 
L 439.408525 153.279002 
L 439.726427 373.875492 
L 440.064902 232.518804 
L 440.397339 339.299885 
L 440.73443 339.299885 
L 441.073943 185.946382 
L 441.446488 347.270746 
L 441.741818 303.262047 
L 442.307481 302.514145 
L 442.424805 306.360396 
L 442.910444 206.723353 
L 443.58751 235.475567 
L 443.72683 309.933962 
L 443.968823 308.860032 
L 444.115372 298.508956 
L 444.430159 297.379082 
L 444.765827 155.796352 
L 445.244199 155.796352 
L 445.774099 355.190286 
L 446.255163 210.929425 
L 446.447742 210.929425 
L 446.782141 236.613711 
L 447.119039 157.302184 
L 447.544767 263.986438 
L 448.168496 238.666276 
L 448.510393 246.263533 
L 449.206686 244.341761 
L 449.618301 339.609904 
L 449.887789 337.660177 
L 450.219688 268.907492 
L 450.557201 237.975994 
L 450.892062 284.906802 
L 451.427269 272.414693 
L 451.595353 301.589412 
L 451.978742 208.023555 
L 452.240347 233.766407 
L 452.576976 341.06598 
L 452.907722 323.084067 
L 453.430431 245.205288 
L 453.590555 242.691148 
L 453.920185 168.161677 
L 454.24947 165.531673 
L 454.589983 327.265422 
L 454.982178 370.345072 
L 455.325729 253.162321 
L 455.712426 289.33892 
L 456.328618 160.077655 
L 456.612103 342.409802 
L 456.96396 318.419473 
L 457.345581 318.419473 
L 457.372691 240.3371 
L 457.645294 222.502357 
L 457.950429 215.948123 
L 458.338818 212.389388 
L 458.680638 251.927439 
L 459.068488 237.024707 
L 459.366202 293.741165 
L 459.964359 275.5397 
L 460.304064 261.588668 
L 460.849346 157.327648 
L 460.972785 252.606482 
L 461.33091 141.368961 
L 461.645389 297.500249 
L 462.01805 299.138887 
L 462.31534 295.634968 
L 462.653123 210.941645 
L 463.101308 189.971055 
L 463.841554 338.870666 
L 464.293469 333.015391 
L 464.965843 333.015391 
L 465.310624 232.523871 
L 465.66029 272.070165 
L 465.978422 255.333663 
L 466.311936 253.027541 
L 466.647527 285.311412 
L 466.983926 280.62348 
L 467.324746 82.478235 
L 467.952244 262.547393 
L 468.37801 350.872998 
L 468.584625 350.872998 
L 468.662995 344.449779 
L 468.999932 232.172965 
L 469.336561 181.009639 
L 470.167021 304.783568 
L 471.176523 288.329008 
L 471.520997 262.536541 
L 472.012559 362.445203 
L 472.478087 178.724338 
L 472.620945 176.101955 
L 472.859631 178.40155 
L 473.195991 270.238694 
L 473.532543 256.432113 
L 473.869018 308.342581 
L 474.756544 220.135044 
L 475.081483 204.792979 
L 475.768469 207.362434 
L 476.213116 285.842153 
L 476.698141 284.030239 
L 477.044768 288.270102 
L 477.390819 249.761546 
L 478.177171 397.751259 
L 478.743257 144.547701 
L 479.44301 298.349946 
L 479.783562 224.56223 
L 480.113461 285.770306 
L 480.60733 319.000264 
L 480.774376 318.297822 
L 481.137346 263.201055 
L 481.537886 349.802715 
L 481.943772 192.810342 
L 482.209991 333.593661 
L 482.442909 333.378505 
L 483.140086 162.594138 
L 483.825726 301.796291 
L 484.025304 301.988217 
L 484.252492 324.350373 
L 484.532093 196.770776 
L 484.945093 217.433752 
L 485.187624 217.433752 
L 485.505911 263.784414 
L 485.806623 265.005092 
L 486.285111 238.74165 
L 486.713453 269.526405 
L 486.892574 269.526405 
L 487.146641 392.520571 
L 487.51338 174.145648 
L 487.890386 294.783734 
L 488.412404 271.721947 
L 488.921808 272.576711 
L 489.163647 208.954789 
L 489.497315 251.970377 
L 489.833829 224.554692 
L 490.170112 256.962609 
L 490.730199 253.064949 
L 491.025913 243.759335 
L 491.639759 202.613771 
L 492.177658 230.101102 
L 492.828344 296.493829 
L 493.193045 207.962522 
L 493.674647 269.909939 
L 494.184205 241.684015 
L 494.345944 174.356503 
L 494.861232 316.624544 
L 495.343218 316.624544 
L 495.387364 219.329027 
L 495.534451 223.707363 
L 495.885347 267.258673 
L 496.251048 271.019443 
L 496.542185 217.802655 
L 496.892581 236.167796 
L 497.246207 241.117368 
L 497.571569 234.92182 
L 497.944422 313.531524 
L 498.396722 293.160516 
L 498.882285 357.574515 
L 499.006992 194.125831 
L 499.30409 194.125831 
L 499.575078 290.434925 
L 499.89471 235.07514 
L 500.23853 259.069729 
L 500.578735 269.180946 
L 500.914595 316.33259 
L 501.24438 161.407174 
L 501.628231 282.681214 
L 502.194701 144.102369 
L 502.452768 289.539625 
L 502.861461 221.307164 
L 503.285343 290.267956 
L 503.564598 127.044253 
L 504.079309 319.780685 
L 504.483579 205.438669 
L 504.823823 330.604592 
L 505.439631 314.543998 
L 505.788796 291.456131 
L 506.628677 212.70321 
L 507.470442 375.772322 
L 507.7765 219.532608 
L 508.201689 365.85004 
L 508.781503 328.940093 
L 509.325555 310.182256 
L 509.918021 217.513047 
L 510.276107 220.970962 
L 510.475301 316.864166 
L 511.359904 339.382901 
L 511.682382 276.248421 
L 512.015166 293.597208 
L 512.381251 173.946426 
L 512.688155 307.653046 
L 513.106345 307.653046 
L 513.393868 211.744685 
L 513.751994 320.454904 
L 514.054898 358.57042 
L 514.531309 290.253479 
L 514.757189 293.219229 
L 515.066824 244.970937 
L 515.422911 210.079883 
L 515.90582 173.699026 
L 516.119011 173.699026 
L 516.384884 273.385324 
L 516.76712 337.738709 
L 517.119246 340.443044 
L 517.406231 174.694993 
L 517.814462 172.82777 
L 518.076566 168.801963 
L 518.401467 171.245549 
L 518.738711 284.461255 
L 519.118871 165.732163 
L 519.408124 151.474671 
L 519.745868 297.125733 
L 520.095418 256.620774 
L 520.416935 175.829873 
L 520.778444 259.995923 
L 521.112304 308.088729 
L 521.43732 301.501506 
L 521.766105 288.803172 
L 522.101311 154.604336 
L 522.435018 100.587367 
L 522.789682 282.966473 
L 523.244712 313.991583 
L 523.498664 313.991583 
L 524.113626 320.292948 
L 524.451639 166.393018 
L 525.009342 430.92 
L 525.42188 233.750612 
L 525.714402 235.380501 
L 526.043917 300.901089 
L 526.282257 292.859254 
L 526.504215 293.556704 
L 526.867647 222.555351 
L 527.164514 223.566631 
L 527.682571 345.130961 
L 528.171133 357.821695 
L 528.849121 251.770865 
L 529.293499 215.114654 
L 529.604826 233.867736 
L 529.868315 233.709056 
L 530.196215 336.987119 
L 530.809792 301.615581 
L 531.162149 293.035999 
L 531.475359 292.457958 
L 531.637406 257.849387 
L 531.999838 274.347045 
L 532.238831 245.387415 
L 533.020646 272.446426 
L 533.122665 372.641256 
L 533.855643 280.587592 
L 534.352281 279.27388 
L 534.69837 337.920397 
L 535.033884 206.702985 
L 535.362283 258.898138 
L 536.136061 194.726202 
L 536.370825 338.25069 
L 536.708223 338.25069 
L 537.04366 221.248438 
L 537.457852 354.314627 
L 537.71888 270.890675 
L 538.054163 312.272662 
L 538.3866 289.486611 
L 538.723768 285.927063 
L 539.058628 186.300282 
L 539.417215 316.278706 
L 540.140925 236.019432 
L 540.404837 234.377978 
L 541.077826 307.367497 
L 541.411648 205.808345 
L 541.747431 219.714499 
L 542.083637 198.969935 
L 542.419728 227.462125 
L 542.771854 208.924271 
L 543.180201 194.690596 
L 543.427039 272.173241 
L 543.764129 325.314406 
L 544.110564 126.13583 
L 544.805357 356.485218 
L 545.295804 190.55433 
L 545.866312 225.001514 
L 546.597328 247.240798 
L 546.941033 387.210997 
L 547.628673 380.456891 
L 547.95392 246.713341 
L 548.454634 295.160518 
L 548.737773 291.599185 
L 548.882938 291.599185 
L 548.964653 379.628628 
L 549.305589 235.274777 
L 549.63595 230.64835 
L 550.322052 157.232154 
L 550.684215 206.6218 
L 550.969085 275.220823 
L 551.304676 199.894463 
L 551.898295 260.096985 
L 552.182319 177.294301 
L 552.661459 361.122628 
L 552.748751 289.685743 
L 552.99309 286.198781 
L 553.322912 263.007753 
L 553.665732 340.441523 
L 554.000054 232.930522 
L 554.331492 296.331351 
L 554.672505 280.109409 
L 555.002174 249.507785 
L 555.338303 184.022336 
L 555.681546 222.048871 
L 556.010523 188.701167 
L 556.345999 234.130818 
L 556.681782 380.66028 
L 557.022795 154.202922 
L 557.359693 199.976071 
L 557.712358 204.53792 
L 558.355122 243.656294 
L 558.97166 376.74532 
L 559.163431 373.741349 
L 559.316287 137.175761 
L 559.895486 168.571135 
L 560.140902 165.699618 
L 560.38551 224.020774 
L 560.713948 190.144388 
L 561.053423 225.495474 
L 561.389398 330.324313 
L 561.771134 288.871993 
L 562.071962 230.333888 
L 562.393902 235.480948 
L 562.839126 268.272424 
L 563.255202 268.272424 
L 563.401828 78.12 
L 563.844899 306.890346 
L 564.231519 306.890346 
L 564.410677 283.274045 
L 564.77134 380.389348 
L 565.719393 192.181766 
L 566.155042 221.502585 
L 566.632376 173.275715 
L 566.828839 238.940516 
L 567.428572 188.975642 
L 567.950051 188.975642 
L 567.977354 186.600547 
L 568.297294 315.757305 
L 568.574626 314.173974 
L 568.845037 292.906894 
L 569.184935 242.385337 
L 569.517911 224.992752 
L 569.855578 315.751867 
L 570.190131 251.958364 
L 570.52676 340.295692 
L 570.86412 213.847546 
L 571.197519 420.869513 
L 571.871354 268.941483 
L 572.20879 233.561425 
L 572.54938 233.376887 
L 572.984222 157.211445 
L 573.530312 304.000081 
L 574.108395 214.636054 
L 574.539276 231.878444 
L 574.995229 237.967218 
L 575.349393 379.411317 
L 575.671564 296.892935 
L 576.005347 326.675223 
L 576.347283 114.020581 
L 576.868916 227.109524 
L 577.160707 227.296532 
L 577.683801 228.110012 
L 577.813546 298.264157 
L 578.51926 331.227053 
L 579.029933 268.478694 
L 579.408093 269.15659 
L 579.755758 270.39677 
L 580.039359 241.963149 
L 580.375988 279.813369 
L 580.716117 188.579714 
L 581.048554 222.368769 
L 581.38403 232.843261 
L 581.720313 234.851244 
L 582.126775 324.795942 
L 582.39484 249.841797 
L 582.72897 251.487312 
L 583.070213 356.414577 
L 583.737319 175.175647 
L 584.072833 300.706674 
L 584.929633 187.741676 
L 585.570206 327.393402 
L 586.03458 280.40896 
L 586.778594 205.360444 
L 587.336105 205.360444 
L 587.453352 208.096944 
L 587.788328 308.058237 
L 588.166141 171.348031 
L 588.461201 381.748052 
L 588.797946 249.014864 
L 589.204062 279.858298 
L 589.468512 287.995105 
L 590.202874 242.011538 
L 590.982767 221.28828 
L 591.87706 224.473703 
L 592.004344 203.086611 
L 592.328476 343.94511 
L 592.730938 301.237909 
L 593.013155 297.953694 
L 593.33894 320.525792 
L 593.6728 267.071191 
L 594.009391 243.014088 
L 594.345097 163.713258 
L 594.67988 287.088016 
L 595.018701 285.900996 
L 595.37325 250.683263 
L 595.888115 250.683263 
L 596.115765 327.490787 
L 596.371024 352.712031 
L 596.699463 364.822019 
L 597.116923 208.384236 
L 597.486815 237.705991 
L 598.318313 350.890241 
L 598.726621 236.382492 
L 599.076132 376.315142 
L 599.40184 352.771254 
L 599.740546 250.344138 
L 600.207804 308.432556 
L 600.871718 254.101035 
L 601.168778 340.992467 
L 601.662185 322.078688 
L 601.986432 332.640338 
L 602.359516 264.441936 
L 602.729177 219.245019 
L 603.325181 187.367025 
L 603.499071 192.621475 
L 603.674192 134.447982 
L 604.163831 270.624008 
L 604.672928 270.624008 
L 604.776677 304.532601 
L 605.112807 237.271693 
L 605.450397 284.735997 
L 605.786296 362.670172 
L 606.123386 257.817924 
L 606.457708 281.699029 
L 606.792991 317.282706 
L 607.128774 238.797802 
L 607.464788 306.123222 
L 608.119204 259.80372 
L 608.271906 259.80372 
L 608.492903 324.970951 
L 608.81142 323.573602 
L 609.144973 306.845237 
L 609.484178 340.032619 
L 609.817539 310.992851 
L 610.156552 294.049908 
L 610.580896 213.318519 
L 611.160979 331.149574 
L 611.500608 293.703983 
L 611.832968 334.113994 
L 612.16929 238.550582 
L 612.505381 306.082906 
L 612.842548 250.897117 
L 613.183407 278.61102 
L 613.543301 162.483117 
L 613.891659 295.207429 
L 614.492392 291.65277 
L 614.695777 293.033608 
L 614.949499 213.978247 
L 615.503279 240.313894 
L 615.684169 241.136176 
L 616.116472 397.392587 
L 616.286325 397.976052 
L 616.538508 279.376462 
L 617.125667 294.898897 
L 618.338401 215.408066 
L 618.691489 215.210848 
L 619.120331 273.273254 
L 619.353749 272.604758 
L 619.875036 232.028486 
L 620.211319 251.154727 
L 620.574212 226.48692 
L 621.109727 279.851238 
L 621.319842 279.636116 
L 621.500884 228.06674 
L 622.130689 203.041043 
L 622.353455 179.124721 
L 622.636364 217.859041 
L 622.636364 217.859041 
" clip-path="url(#p72f5e4dde0)" style="fill: none; stroke-dasharray: 9.6,2.4,1.5,2.4; stroke-dashoffset: 0; stroke: #ff0000; stroke-width: 1.5"/>
   </g>
   <g id="line2d_26">
    <path d="M 115.363636 260.076416 
L 115.682202 260.664823 
L 116.018369 258.923936 
L 116.356234 261.815188 
L 116.691714 269.992135 
L 117.026574 263.712091 
L 117.367904 273.657606 
L 117.747468 262.65001 
L 118.678557 254.86094 
L 119.040605 268.317783 
L 119.098089 265.092515 
L 119.689363 276.125283 
L 119.916695 261.07346 
L 120.588204 273.621923 
L 121.228074 270.867792 
L 121.536045 271.349252 
L 121.951847 272.595555 
L 122.457531 273.575704 
L 122.836763 273.575704 
L 122.980005 270.564114 
L 123.279127 263.023694 
L 123.625461 258.304189 
L 123.951726 252.283732 
L 124.562842 261.478803 
L 124.842785 261.335449 
L 125.086898 267.090015 
L 125.337678 260.390598 
L 125.633853 256.32538 
L 125.96866 267.992646 
L 126.416134 266.620823 
L 126.643779 256.848942 
L 126.981398 261.381075 
L 127.317739 253.276715 
L 127.653733 260.831149 
L 127.989891 260.813327 
L 128.326223 269.09266 
L 128.662275 259.833443 
L 129.251414 261.900619 
L 129.35625 273.269967 
L 129.664529 273.362721 
L 130.008291 272.746078 
L 130.339181 266.027721 
L 130.713149 274.359858 
L 131.018482 273.517605 
L 131.355212 282.796146 
L 131.691788 278.290315 
L 132.270521 280.234975 
L 132.948557 270.688105 
L 133.493185 285.253913 
L 134.062963 292.526044 
L 134.719508 279.52823 
L 135.098374 262.263698 
L 135.392372 260.729462 
L 135.832857 270.707985 
L 136.049528 272.493725 
L 136.385229 268.753861 
L 136.721272 274.162591 
L 137.058035 268.675884 
L 137.41243 257.384025 
L 137.748593 258.875469 
L 138.085323 259.296223 
L 138.421856 268.436505 
L 139.296346 266.477304 
L 139.661066 271.486198 
L 140.191068 269.946472 
L 140.597842 273.209488 
L 141.074988 264.99846 
L 141.20095 269.11142 
L 141.537699 267.107447 
L 141.873223 270.948444 
L 142.226782 280.181578 
L 143.05528 279.588386 
L 143.460555 264.772863 
L 143.552874 268.855649 
L 143.713253 270.866686 
L 143.893147 259.361716 
L 144.327613 264.09867 
L 144.744372 250.034747 
L 145.108774 249.441273 
L 145.30468 249.441273 
L 145.570428 259.976456 
L 145.90598 262.628872 
L 146.241321 270.281787 
L 146.706176 253.005743 
L 147.504065 254.071803 
L 147.747942 254.071803 
L 147.770448 257.294004 
L 147.922621 255.123861 
L 148.260692 259.282192 
L 148.658771 268.01107 
L 149.183346 260.208227 
L 149.700038 275.125958 
L 150.138705 273.317287 
L 150.458386 269.46725 
L 151.074203 275.914106 
L 151.283356 274.05876 
L 151.617783 280.057735 
L 152.459846 264.054155 
L 152.638294 259.20827 
L 153.125914 266.491481 
L 153.660179 265.466156 
L 154.248395 261.921173 
L 154.609674 270.915265 
L 155.853681 265.523563 
L 156.985622 280.17539 
L 157.200255 285.90824 
L 157.541796 278.682034 
L 157.881271 275.408089 
L 158.214324 280.957367 
L 158.544435 269.969351 
L 158.92794 272.944767 
L 159.27526 266.725468 
L 159.553486 271.051273 
L 159.951258 261.187062 
L 160.560941 275.07031 
L 161.298014 260.742879 
L 161.744306 268.938867 
L 162.153056 264.177669 
L 162.382994 278.663898 
L 162.907164 285.120496 
L 163.452197 277.824945 
L 163.630759 277.817142 
L 164.206305 272.343348 
L 164.465853 275.666437 
L 164.685754 275.062884 
L 164.91995 277.38157 
L 165.080612 273.076154 
L 165.365818 269.075485 
L 166.008303 271.775568 
L 166.342548 275.162609 
L 166.677524 265.15798 
L 167.020806 261.942729 
L 167.351628 267.781375 
L 167.918224 268.150928 
L 168.161101 267.964249 
L 168.366457 261.51647 
L 168.743204 254.790551 
L 169.186015 262.37095 
L 169.370701 261.647754 
L 169.701283 261.647754 
L 170.049362 262.304939 
L 170.379868 262.361016 
L 170.721861 255.102544 
L 171.058154 257.248984 
L 171.384073 257.304595 
L 171.731787 252.932611 
L 172.068041 263.596381 
L 172.529906 272.292743 
L 172.726139 271.958845 
L 173.077803 261.5611 
L 173.401945 267.021632 
L 173.827297 267.03966 
L 174.440836 262.280286 
L 174.741049 266.586403 
L 175.096194 262.414137 
L 175.970328 265.605977 
L 176.64298 262.949429 
L 176.778551 258.012436 
L 177.14056 262.061662 
L 177.76378 258.009173 
L 177.967309 248.064554 
L 178.320954 247.64699 
L 178.816534 254.115142 
L 178.947375 252.340534 
L 179.144943 254.611348 
L 179.370959 253.322429 
L 179.735419 269.24079 
L 180.117174 272.856741 
L 180.369992 271.485554 
L 180.687135 261.752107 
L 181.028157 267.654899 
L 181.359682 258.029793 
L 181.692148 256.66265 
L 182.020461 258.361933 
L 182.360648 262.051893 
L 182.730549 270.742319 
L 183.044654 262.684498 
L 183.411143 263.612342 
L 183.722382 258.010333 
L 184.037112 265.447176 
L 184.375452 256.322715 
L 184.716378 266.289075 
L 185.719642 283.633651 
L 186.07273 285.494846 
L 186.397842 280.783367 
L 186.731327 277.740687 
L 187.101729 271.520262 
L 187.652222 267.552645 
L 188.201888 275.319922 
L 188.548957 276.047916 
L 189.009246 267.251675 
L 189.632167 263.841823 
L 190.227219 270.828093 
L 190.742488 269.021956 
L 190.907197 267.183435 
L 191.295297 270.189261 
L 191.510449 267.06695 
L 191.805134 278.270267 
L 192.117518 275.001607 
L 192.323037 275.844561 
L 192.65884 289.083516 
L 192.994161 284.310802 
L 193.336136 292.225768 
L 193.705903 286.810514 
L 194.004491 284.872866 
L 194.338928 288.779389 
L 195.011167 284.287622 
L 195.346297 274.88015 
L 195.679955 274.688588 
L 196.109413 260.944234 
L 196.620981 249.116131 
L 197.950471 263.711685 
L 198.100347 259.290393 
L 198.233178 249.535443 
L 198.980019 261.7208 
L 199.104005 257.467713 
L 199.363658 258.391474 
L 199.653709 257.780334 
L 199.813208 254.558994 
L 200.050298 257.375649 
L 200.38637 268.484662 
L 200.722653 274.172505 
L 201.06829 270.230374 
L 201.74226 259.396254 
L 202.072919 269.935069 
L 202.746523 266.268243 
L 203.025009 269.306317 
L 203.163637 265.566091 
L 203.411821 274.315372 
L 204.119746 273.895596 
L 204.762299 266.267353 
L 205.204639 258.178686 
L 205.734991 263.106195 
L 205.982493 260.038193 
L 206.286503 264.026728 
L 206.479582 261.083808 
L 206.782929 271.126963 
L 207.121548 263.739666 
L 207.444632 268.492243 
L 207.802295 269.04524 
L 208.123571 274.915706 
L 208.468189 272.025275 
L 208.786678 274.833615 
L 209.128383 263.241771 
L 209.46381 257.256637 
L 209.797892 270.174167 
L 210.17882 265.704082 
L 210.46816 260.858934 
L 210.802934 262.51955 
L 211.150003 267.528438 
L 211.598121 259.521169 
L 212.086068 273.667626 
L 212.39501 268.074189 
L 212.841003 270.401677 
L 213.17147 269.687271 
L 213.495804 267.786106 
L 213.829308 272.230987 
L 214.173157 274.578909 
L 214.589492 283.102552 
L 214.835292 282.325523 
L 215.172114 289.693092 
L 215.507359 284.89551 
L 215.844122 287.233393 
L 216.204689 281.910831 
L 216.857836 284.489407 
L 217.190735 276.499339 
L 217.636103 279.987529 
L 218.254324 277.688245 
L 218.345451 278.198893 
L 218.602162 269.715638 
L 218.875601 265.703341 
L 219.203444 264.326571 
L 219.539756 271.453161 
L 219.929154 273.001985 
L 220.660911 275.112343 
L 221.460866 280.679903 
L 221.801216 279.63616 
L 222.138162 268.869502 
L 222.472667 270.355312 
L 222.806835 265.684935 
L 223.479093 270.671365 
L 223.849091 265.719037 
L 224.545258 267.369202 
L 225.099722 267.72135 
L 225.443571 264.952827 
L 225.891583 266.23506 
L 226.563995 251.452538 
L 226.906681 247.614083 
L 227.573267 255.332011 
L 228.246102 242.109756 
L 228.918457 252.252348 
L 229.460547 250.300126 
L 229.79833 231.577457 
L 229.926152 240.632679 
L 230.279221 247.278855 
L 230.60018 240.159695 
L 230.934694 244.328263 
L 231.272707 260.751855 
L 231.913318 260.522438 
L 232.283056 273.846859 
L 233.261045 259.591654 
L 233.622651 268.177398 
L 234.187468 276.232805 
L 234.755957 274.589791 
L 234.89122 275.677798 
L 235.300624 268.341837 
L 235.629236 269.021996 
L 235.970383 276.899315 
L 236.287727 268.893536 
L 236.656774 256.11781 
L 236.960044 255.37945 
L 237.577966 259.784542 
L 238.060702 261.783565 
L 238.29635 261.424997 
L 238.648534 265.060494 
L 238.991355 264.575446 
L 239.314698 260.206753 
L 239.648404 257.609089 
L 239.984783 261.642562 
L 240.356041 258.584539 
L 240.675654 269.453292 
L 241.03524 271.515229 
L 242.001693 268.162863 
L 242.640593 272.441273 
L 243.105871 278.121268 
L 243.66467 278.332281 
L 244.004375 284.571312 
L 244.623394 293.0046 
L 244.992305 294.167192 
L 245.313495 300.486869 
L 245.637569 284.895552 
L 246.196079 274.22792 
L 246.869184 268.907705 
L 247.410351 261.591391 
L 247.766034 259.776157 
L 248.366076 244.842555 
L 248.480958 244.842555 
L 248.767039 253.877583 
L 249.104879 244.02057 
L 249.42853 249.249477 
L 249.893078 251.732505 
L 250.567624 265.11328 
L 251.279683 266.004212 
L 251.669013 268.564398 
L 251.953864 264.696479 
L 252.489513 261.483067 
L 253.183998 267.839446 
L 253.35239 267.839446 
L 253.730492 263.494987 
L 254.871278 280.501737 
L 255.560187 261.478964 
L 255.74148 262.595609 
L 255.948864 271.892051 
L 256.365305 272.739944 
L 256.552404 265.5471 
L 256.81101 266.513486 
L 257.017336 263.044154 
L 257.37302 264.744531 
L 257.823973 269.524706 
L 258.012265 268.599125 
L 258.34851 275.842577 
L 258.676813 278.262876 
L 259.015558 277.7646 
L 259.586373 269.968928 
L 260.094163 270.189574 
L 260.264996 268.71709 
L 260.590339 254.535611 
L 260.774131 254.616647 
L 261.143889 259.08958 
L 261.49986 259.100097 
L 262.152392 277.648346 
L 262.718113 273.869645 
L 263.083775 273.869645 
L 263.402619 268.477742 
L 263.714618 265.960563 
L 264.064725 264.491978 
L 264.41191 264.999752 
L 264.725582 270.064593 
L 265.059096 281.610062 
L 265.644909 274.096115 
L 266.536377 268.365192 
L 267.116748 268.700247 
L 267.621077 276.72375 
L 268.528618 275.779495 
L 268.866362 274.837323 
L 269.540986 273.967478 
L 270.274233 270.084752 
L 270.602902 277.86197 
L 270.882657 278.291408 
L 271.220805 280.849011 
L 271.55455 293.729484 
L 271.892775 294.442299 
L 272.226597 298.160441 
L 272.564803 291.904168 
L 272.901509 288.402996 
L 273.235869 288.340848 
L 273.570576 282.031069 
L 273.90682 295.626178 
L 274.244699 302.134273 
L 274.590192 304.213776 
L 274.929051 301.675475 
L 275.253279 307.99761 
L 275.923019 300.238953 
L 276.263993 294.293423 
L 276.598161 292.67365 
L 277.041328 310.224582 
L 277.424564 310.386821 
L 277.713606 311.312554 
L 277.990861 308.237421 
L 278.281557 312.29291 
L 278.611956 300.913071 
L 278.970773 301.686249 
L 279.520786 309.383072 
L 279.903906 306.441199 
L 280.19837 311.452567 
L 280.336344 308.125912 
L 280.626943 306.773468 
L 280.963111 317.430294 
L 281.312353 317.366436 
L 281.639946 313.881676 
L 281.971902 303.946974 
L 282.306955 301.156275 
L 282.642969 287.761588 
L 282.985078 300.15604 
L 283.31715 300.266209 
L 283.652299 301.70167 
L 283.986909 297.087714 
L 284.323134 298.865823 
L 284.66705 289.898131 
L 285.000988 298.805256 
L 285.756365 298.758712 
L 286.013009 313.40972 
L 286.340967 311.21318 
L 286.79417 279.425478 
L 287.640646 280.929844 
L 287.845608 279.227973 
L 288.324537 288.196726 
L 288.520769 278.741678 
L 289.178588 297.647953 
L 289.879476 287.295747 
L 290.233044 289.331428 
L 290.641717 288.668162 
L 290.861522 281.272328 
L 291.428301 282.419522 
L 291.840377 274.310434 
L 292.280506 277.443982 
L 293.081221 266.187134 
L 293.726677 258.582091 
L 294.078957 260.873298 
L 294.400377 278.492067 
L 294.738064 271.447647 
L 295.072866 279.137678 
L 295.746971 274.589577 
L 296.088868 267.693935 
L 296.416403 266.46889 
L 296.992948 278.546361 
L 297.584453 284.668309 
L 297.779185 280.709949 
L 298.134869 283.981092 
L 298.432909 293.873373 
L 298.768557 296.805121 
L 299.10486 287.548498 
L 299.45389 292.404458 
L 299.798518 289.384312 
L 300.130206 294.90132 
L 300.457779 287.021027 
L 301.124634 279.473254 
L 301.80543 266.113716 
L 302.151826 266.224568 
L 302.498588 267.135062 
L 302.850907 270.287144 
L 303.136795 265.970734 
L 303.474847 267.730902 
L 303.811861 260.301232 
L 304.592387 263.365653 
L 304.974643 255.721403 
L 305.267934 252.967087 
L 305.573472 245.417079 
L 307.013337 250.943045 
L 307.371539 248.647371 
L 307.44241 250.045665 
L 307.966773 251.664273 
L 308.021955 248.435071 
L 308.356777 249.757813 
L 308.70102 245.317598 
L 309.037418 251.404799 
L 309.379066 264.034923 
L 309.720521 255.524681 
L 310.283742 263.915404 
L 310.540809 262.092481 
L 310.865056 263.166561 
L 311.071248 257.7991 
L 311.431873 256.97016 
L 311.724376 247.671416 
L 312.062889 247.659072 
L 312.398307 246.306789 
L 312.734301 246.122353 
L 313.065182 247.916306 
L 313.44488 254.504328 
L 313.739344 238.149521 
L 314.069993 232.590341 
L 314.455613 234.333967 
L 314.765978 249.004748 
L 315.079284 253.881703 
L 315.413491 255.536208 
L 315.784517 250.827044 
L 316.123531 261.409136 
L 316.437068 263.423759 
L 316.837743 264.436461 
L 317.100405 263.177446 
L 317.437188 259.608104 
L 317.802889 262.301231 
L 318.280645 264.822292 
L 318.450132 263.573304 
L 318.779282 245.715557 
L 319.116411 241.533764 
L 319.448234 241.537864 
L 319.810281 241.17915 
L 320.128625 224.833902 
L 320.469234 225.23919 
L 320.802575 224.167923 
L 321.295964 239.218091 
L 321.78093 233.563051 
L 322.343805 259.55776 
L 323.152596 255.254173 
L 323.803589 249.585383 
L 324.071808 249.585383 
L 324.211628 253.627658 
L 324.641566 262.021745 
L 325.240839 258.650115 
L 325.510288 249.026559 
L 325.897677 253.27182 
L 326.182181 252.083123 
L 326.515907 255.887436 
L 326.852671 256.492813 
L 327.191684 259.204641 
L 327.526486 269.692313 
L 327.86475 270.100644 
L 328.532259 259.370366 
L 328.868927 264.313042 
L 329.228398 265.152384 
L 329.556702 267.311607 
L 329.878276 260.069528 
L 330.212309 260.459796 
L 330.606024 268.492009 
L 330.890567 262.974326 
L 331.338348 260.618828 
L 331.712701 261.360387 
L 331.926891 254.332532 
L 332.287401 252.194356 
L 332.582691 249.481666 
L 332.931741 247.529357 
L 333.323379 247.775682 
L 333.628918 252.752565 
L 334.025959 254.766236 
L 334.279757 259.788439 
L 334.720155 260.420335 
L 334.946555 271.798791 
L 335.27632 262.066819 
L 335.59228 277.556773 
L 336.720818 250.116807 
L 337.059005 238.816091 
L 337.395173 237.841241 
L 337.732244 245.676269 
L 338.069123 242.408136 
L 338.404541 248.192378 
L 338.74067 250.576851 
L 339.076549 254.636008 
L 339.441712 262.12161 
L 339.766804 259.234986 
L 340.420336 266.253448 
L 340.832201 269.92147 
L 341.090825 274.108793 
L 341.429146 274.163742 
L 341.76416 261.051558 
L 342.103212 264.604402 
L 342.440379 276.923753 
L 342.792948 282.07812 
L 343.107485 269.527767 
L 343.476089 266.938523 
L 343.77884 269.802572 
L 344.114815 260.178287 
L 344.45329 257.388738 
L 344.789131 257.277877 
L 345.12501 258.27355 
L 345.796173 250.816321 
L 346.469739 261.800951 
L 346.807617 260.495613 
L 347.143401 274.306128 
L 347.559938 278.829139 
L 347.818428 279.905418 
L 348.152423 287.044867 
L 349.281326 270.170587 
L 349.526242 270.633853 
L 349.704862 276.64087 
L 350.33732 279.507496 
L 350.666547 284.509837 
L 350.8354 279.576526 
L 351.171914 284.992047 
L 351.849171 269.921624 
L 352.401241 268.566479 
L 352.531505 269.950289 
L 353.566887 260.438982 
L 354.387579 272.786838 
L 354.576909 271.56849 
L 354.913365 259.438981 
L 355.389064 258.014276 
L 355.756765 264.972163 
L 355.921003 263.396404 
L 356.257248 264.173815 
L 356.768652 263.340539 
L 357.107319 259.226445 
L 357.495438 258.851384 
L 357.676539 255.790903 
L 357.959024 268.620544 
L 358.609518 277.434011 
L 358.974622 262.34103 
L 359.454051 276.343643 
L 359.619174 275.967687 
L 360.099853 273.925658 
L 360.289375 285.389531 
L 360.682167 289.377214 
L 361.029486 297.460948 
L 361.478768 288.892427 
L 361.77477 289.966185 
L 361.99071 299.375187 
L 362.313245 305.770587 
L 362.691405 298.437055 
L 362.978928 296.077119 
L 363.314 298.441256 
L 363.65036 293.479302 
L 363.988566 293.882346 
L 364.321638 292.731853 
L 364.658228 288.729167 
L 365.199761 291.345961 
L 365.470211 285.805111 
L 365.712127 289.196189 
L 366.005072 287.25583 
L 366.381347 289.474389 
L 366.674638 270.973948 
L 367.087465 270.857403 
L 367.3498 281.720277 
L 367.685179 278.343041 
L 368.018982 289.035476 
L 368.367167 275.075549 
L 369.446907 291.722092 
L 369.860387 303.776635 
L 370.206706 301.542588 
L 370.45689 293.983557 
L 371.003037 293.303099 
L 371.579641 283.89366 
L 371.934286 281.425631 
L 372.232364 274.387904 
L 373.156556 289.630748 
L 373.48263 281.196246 
L 373.818182 281.459819 
L 374.152504 274.396836 
L 374.489864 284.318023 
L 374.824897 285.405849 
L 375.17189 288.010222 
L 375.498636 282.112266 
L 375.837534 264.921653 
L 376.290622 281.765645 
L 376.551573 278.549779 
L 377.178321 267.333995 
L 377.513027 265.591832 
L 377.849656 261.170583 
L 378.186112 263.657281 
L 378.526779 248.666594 
L 378.874195 246.382124 
L 379.21142 252.528445 
L 379.534071 246.710722 
L 379.870623 237.111535 
L 380.217289 246.991012 
L 380.537786 245.56456 
L 380.873416 245.221383 
L 381.2236 245.28558 
L 381.882303 256.569392 
L 382.219105 250.889026 
L 382.554292 254.511505 
L 382.89221 248.459672 
L 383.225128 246.466454 
L 383.640069 245.681291 
L 383.898598 247.141572 
L 384.570106 259.038945 
L 384.907216 258.404479 
L 385.241653 263.368149 
L 385.991878 237.0547 
L 386.502282 234.695357 
L 386.801399 247.530748 
L 386.928106 247.530748 
L 387.262236 246.96553 
L 387.597711 270.160917 
L 387.932764 267.741709 
L 388.304348 266.637856 
L 388.612944 269.006446 
L 388.978837 267.803274 
L 389.273512 272.628243 
L 389.609603 271.484578 
L 389.951077 266.318947 
L 390.292167 257.739774 
L 390.709473 257.266461 
L 391.103284 266.9052 
L 391.588154 271.144072 
L 391.783579 263.464259 
L 391.962507 262.835482 
L 392.29856 261.238795 
L 392.63392 258.403977 
L 392.979355 260.300662 
L 393.311062 255.814325 
L 393.642653 253.82775 
L 393.97859 266.0145 
L 394.315681 265.107444 
L 394.650541 251.508895 
L 395.336912 259.817041 
L 395.738222 252.138473 
L 396.354068 252.020854 
L 396.670277 255.212489 
L 397.002869 256.024043 
L 397.339037 261.225651 
L 397.674512 251.468738 
L 398.011526 259.491968 
L 398.346694 258.74168 
L 398.693705 257.310158 
L 399.017952 252.058768 
L 399.354235 253.064946 
L 399.690711 254.467309 
L 400.026186 254.760746 
L 400.362584 247.152268 
L 400.701521 249.941361 
L 401.038188 256.757681 
L 401.370357 245.418449 
L 401.707793 250.827096 
L 402.045999 250.487568 
L 402.378629 249.418318 
L 402.722488 249.809713 
L 403.132911 232.372052 
L 403.386555 234.077453 
L 404.062428 245.710675 
L 404.471582 239.147124 
L 404.75303 243.714995 
L 405.128921 254.064147 
L 405.638709 254.221956 
L 406.150498 261.050227 
L 406.56815 259.767271 
L 406.846214 264.555335 
L 407.176959 266.716222 
L 407.591343 262.067812 
L 407.888441 254.57463 
L 408.470639 261.970699 
L 408.808422 258.617198 
L 409.144436 264.123378 
L 409.484795 264.592124 
L 410.488645 253.914715 
L 410.831389 259.405016 
L 411.182361 269.802931 
L 411.504724 266.147488 
L 411.833201 259.507002 
L 412.195133 246.610177 
L 412.504805 252.863477 
L 412.844395 249.40223 
L 413.251857 261.326069 
L 413.515346 262.293799 
L 413.85609 260.606801 
L 414.211139 278.753545 
L 414.64898 270.221561 
L 415.200069 266.29562 
L 415.705628 251.294161 
L 416.202611 260.513501 
L 416.55143 270.647613 
L 416.963815 271.505233 
L 417.212114 264.48837 
L 417.679065 259.845851 
L 417.890294 262.177543 
L 418.224386 256.850781 
L 418.742711 267.352766 
L 419.684304 262.195857 
L 419.858156 265.743628 
L 420.152754 284.952226 
L 420.762063 280.158597 
L 420.91415 287.122717 
L 421.242319 271.436124 
L 421.490388 272.447516 
L 421.581332 280.35728 
L 422.018596 262.211306 
L 422.256552 272.067027 
L 422.589066 271.654245 
L 423.265439 253.05573 
L 423.596993 249.863493 
L 423.932853 257.817785 
L 424.33993 272.183534 
L 424.694863 268.424467 
L 424.968081 269.966421 
L 425.285637 292.770547 
L 426.564897 266.897917 
L 426.62081 266.897917 
L 426.957708 270.099508 
L 427.62889 248.805198 
L 427.968018 248.460629 
L 428.30284 258.602469 
L 428.641853 258.376572 
L 429.331455 250.415694 
L 429.647318 252.655107 
L 429.981486 263.018111 
L 430.317347 263.52888 
L 430.654745 260.41472 
L 430.991028 261.464333 
L 431.340001 268.823617 
L 431.667708 258.706526 
L 432.341159 249.921094 
L 432.806418 257.661865 
L 433.12505 260.119179 
L 433.366928 251.178043 
L 433.68756 252.826284 
L 434.022843 252.694454 
L 434.354204 255.418514 
L 434.68545 255.115411 
L 435.02154 252.998161 
L 435.737137 264.747342 
L 436.199589 260.746235 
L 436.551292 249.585583 
L 436.835854 249.585583 
L 436.88023 259.301546 
L 437.037393 259.801612 
L 437.373407 255.710267 
L 437.709805 254.446536 
L 438.047665 261.972075 
L 438.382717 259.196707 
L 438.717462 267.325265 
L 439.209216 255.70486 
L 439.408525 255.649815 
L 439.726427 268.621248 
L 440.064902 265.477485 
L 440.73443 281.000954 
L 441.073943 271.340864 
L 441.741818 281.228095 
L 442.307481 284.729301 
L 442.424805 282.512485 
L 442.910444 284.200002 
L 443.72683 273.329196 
L 443.968823 278.902901 
L 444.115372 277.801948 
L 444.430159 281.799294 
L 444.765827 287.877501 
L 445.437816 273.11843 
L 445.774099 277.188423 
L 446.255163 286.285874 
L 446.447742 282.238628 
L 446.782141 278.728455 
L 447.119039 267.287036 
L 447.544767 261.077811 
L 448.168496 262.52289 
L 448.510393 257.437832 
L 449.206686 262.257917 
L 449.618301 262.459393 
L 449.887789 273.976493 
L 450.219688 275.249755 
L 450.557201 270.320013 
L 451.427269 273.878999 
L 451.595353 279.402776 
L 451.978742 276.215381 
L 452.576976 269.107097 
L 452.907722 271.652929 
L 453.430431 285.548401 
L 453.920185 278.02849 
L 454.24947 270.1944 
L 454.589983 278.018398 
L 454.982178 275.137753 
L 455.712426 294.382672 
L 456.328618 294.737309 
L 456.612103 283.546881 
L 456.96396 296.100685 
L 457.372691 296.100685 
L 458.338818 278.541516 
L 458.680638 281.383018 
L 459.068488 276.201601 
L 459.366202 276.201601 
L 459.628191 278.945762 
L 459.964359 266.039109 
L 460.304064 260.955238 
L 460.849346 257.306693 
L 460.972785 250.228414 
L 461.33091 247.439906 
L 461.645389 254.097597 
L 462.01805 247.093204 
L 462.31534 256.698534 
L 462.653123 253.198953 
L 463.101308 240.864946 
L 463.841554 251.956024 
L 464.293469 264.469896 
L 464.965843 279.162772 
L 465.310624 272.117502 
L 465.66029 259.351161 
L 465.978422 267.843478 
L 466.311936 265.537356 
L 466.647527 259.776422 
L 466.983926 264.980379 
L 467.324746 248.785434 
L 467.952244 249.04326 
L 468.37801 245.243429 
L 468.584625 263.169863 
L 468.662995 256.746643 
L 468.999932 251.599886 
L 469.336561 240.423152 
L 470.167021 239.521764 
L 471.176523 265.869443 
L 471.520997 258.527814 
L 472.012559 265.261452 
L 472.478087 262.581245 
L 472.859631 248.426798 
L 473.195991 253.40573 
L 473.532543 253.92514 
L 473.869018 257.701386 
L 474.204955 257.584283 
L 474.756544 254.0638 
L 475.081483 247.896363 
L 475.768469 250.127327 
L 476.213116 241.891384 
L 477.390819 255.873248 
L 478.177171 263.693685 
L 478.743257 267.208984 
L 479.082116 263.501572 
L 479.44301 266.157265 
L 480.113461 257.798705 
L 480.60733 264.675885 
L 480.774376 263.973443 
L 481.137346 272.133272 
L 481.537886 271.254979 
L 481.943772 270.6588 
L 482.209991 270.508175 
L 482.442909 277.256107 
L 482.926972 268.821858 
L 483.140086 257.432764 
L 483.825726 262.151526 
L 484.252492 271.617467 
L 484.532093 272.067846 
L 485.187624 257.925228 
L 486.285111 258.540882 
L 486.713453 255.044223 
L 486.892574 255.044223 
L 487.146641 255.577871 
L 487.51338 268.663414 
L 487.890386 258.854339 
L 488.412404 260.536613 
L 488.921808 259.739683 
L 489.163647 253.094279 
L 489.497315 251.804997 
L 489.833829 254.712804 
L 490.170112 250.004359 
L 490.730199 247.795578 
L 491.025913 243.988156 
L 491.639759 242.691541 
L 492.177658 242.777202 
L 492.828344 242.109975 
L 493.193045 238.776714 
L 493.674647 232.904426 
L 494.184205 232.384332 
L 494.345944 236.528727 
L 494.861232 229.653415 
L 495.343218 233.268061 
L 495.387364 235.464393 
L 495.534451 232.464067 
L 495.885347 234.443845 
L 496.251048 234.522898 
L 496.542185 231.067467 
L 496.892581 241.600206 
L 497.246207 240.049548 
L 497.571569 251.527856 
L 497.944422 251.11636 
L 498.396722 254.907854 
L 498.882285 263.642002 
L 499.006992 269.339343 
L 499.30409 254.876593 
L 499.575078 257.283341 
L 499.89471 250.916215 
L 500.23853 252.172154 
L 500.578735 244.564572 
L 500.914595 246.490019 
L 501.24438 236.274995 
L 501.628231 246.06607 
L 502.194701 231.016874 
L 502.452768 237.703293 
L 502.861461 232.759551 
L 503.285343 231.859902 
L 503.564598 240.48815 
L 504.079309 228.808822 
L 504.483579 225.984727 
L 504.823823 221.301006 
L 505.439631 232.261385 
L 505.788796 244.529329 
L 506.323696 239.304905 
L 506.628677 248.771822 
L 507.078169 244.604028 
L 507.7765 270.002396 
L 508.201689 251.742091 
L 508.781503 263.474124 
L 509.325555 266.090424 
L 509.918021 262.278488 
L 510.276107 253.709637 
L 510.475301 255.584558 
L 511.24208 259.339213 
L 511.359904 262.758902 
L 511.682382 263.089398 
L 512.015166 265.363539 
L 512.381251 257.646227 
L 512.688155 266.853132 
L 513.106345 266.853132 
L 513.393868 279.027046 
L 513.751994 271.578257 
L 514.054898 279.614042 
L 514.531309 284.634319 
L 514.757189 282.097061 
L 515.066824 279.914364 
L 515.90582 260.231165 
L 516.119011 260.231165 
L 516.384884 266.155259 
L 516.76712 266.77599 
L 517.119246 271.700954 
L 517.406231 263.269578 
L 517.814462 269.677786 
L 518.401467 247.551859 
L 518.738711 251.090854 
L 519.118871 241.816307 
L 519.408124 231.976507 
L 519.745868 238.593689 
L 520.095418 240.32728 
L 520.416935 233.292308 
L 520.778444 236.078657 
L 521.43732 249.758101 
L 521.766105 253.93431 
L 522.101311 243.54725 
L 522.435018 228.560227 
L 523.498664 247.767541 
L 523.830948 265.644509 
L 524.113626 271.781094 
L 524.451639 269.62618 
L 525.42188 285.045982 
L 525.714402 280.117488 
L 526.043917 282.059714 
L 526.282257 282.765717 
L 526.504215 283.772603 
L 526.867647 267.762595 
L 527.164514 263.665361 
L 527.682571 265.899083 
L 528.171133 269.119745 
L 528.849121 265.970176 
L 529.293499 265.056675 
L 529.604826 260.67956 
L 529.868315 258.88474 
L 530.196215 277.410919 
L 530.809792 284.897313 
L 531.475359 289.472875 
L 531.999838 286.467031 
L 532.238831 282.893153 
L 533.020646 280.675005 
L 533.122665 278.52239 
L 533.855643 289.843738 
L 534.352281 290.910615 
L 534.69837 292.531255 
L 535.033884 298.240859 
L 535.362283 289.617118 
L 535.702297 287.335009 
L 536.136061 276.066989 
L 536.370825 284.144489 
L 536.708223 284.144489 
L 537.04366 278.929965 
L 537.457852 283.71745 
L 537.71888 283.875913 
L 538.054163 279.79698 
L 538.3866 284.770669 
L 538.723768 287.102921 
L 539.058628 286.976492 
L 539.417215 278.844604 
L 539.731117 284.641441 
L 540.140925 284.045456 
L 540.404837 282.404002 
L 540.738582 283.816869 
L 541.077826 287.982527 
L 542.419728 261.126794 
L 542.771854 259.877357 
L 543.427039 252.754856 
L 543.764129 252.064828 
L 544.110564 260.769599 
L 544.43858 247.433192 
L 544.805357 250.734668 
L 545.295804 259.595891 
L 545.866312 249.578543 
L 546.941033 242.433036 
L 547.628673 258.391075 
L 547.95392 254.757092 
L 548.454634 266.576587 
L 548.737773 263.015254 
L 548.882938 263.015254 
L 548.964653 279.926234 
L 549.305589 276.089483 
L 549.63595 274.717535 
L 549.970272 267.553464 
L 550.322052 254.022307 
L 550.684215 253.437326 
L 550.969085 257.971683 
L 551.304676 256.758222 
L 551.898295 259.875083 
L 552.182319 249.207391 
L 552.661459 265.429847 
L 552.748751 261.927137 
L 552.99309 268.942367 
L 553.322912 269.566097 
L 553.665732 278.373241 
L 554.000054 277.883862 
L 554.331492 277.976474 
L 554.672505 279.411997 
L 555.002174 277.48009 
L 555.338303 268.761469 
L 555.681546 267.873435 
L 556.010523 257.685584 
L 556.345999 259.107559 
L 556.681782 272.975443 
L 557.359693 252.090218 
L 557.712358 246.926329 
L 558.355122 257.446614 
L 558.97166 272.388159 
L 559.316287 266.475313 
L 559.895486 265.85766 
L 560.140902 258.458566 
L 560.38551 255.500595 
L 560.713948 249.225415 
L 561.053423 248.090601 
L 561.389398 257.354087 
L 561.771134 260.509188 
L 562.071962 260.154782 
L 562.393902 255.683202 
L 562.839126 251.171049 
L 563.255202 257.781605 
L 563.401828 241.408956 
L 563.844899 240.872567 
L 564.231519 252.213565 
L 564.410677 253.947138 
L 564.77134 236.333395 
L 566.155042 254.456588 
L 566.632376 251.150372 
L 566.828839 241.758088 
L 567.428572 240.264374 
L 567.950051 237.277785 
L 567.977354 234.90269 
L 568.574626 252.913408 
L 568.845037 258.368245 
L 569.184935 256.534081 
L 569.517911 253.246221 
L 569.855578 260.028509 
L 570.190131 259.166279 
L 570.52676 267.758191 
L 570.86412 262.045363 
L 571.197519 278.728474 
L 571.677121 280.315321 
L 571.871354 279.2995 
L 572.20879 280.010244 
L 572.54938 275.030775 
L 572.984222 289.718583 
L 573.530312 275.623724 
L 574.108395 270.851618 
L 574.539276 272.832632 
L 574.995229 263.62611 
L 575.349393 264.053259 
L 575.671564 276.229093 
L 576.005347 277.945885 
L 576.347283 282.845624 
L 576.868916 258.748643 
L 577.160707 263.218427 
L 577.683801 257.746351 
L 577.813546 260.619 
L 578.51926 261.824579 
L 579.029933 261.266152 
L 579.408093 267.752193 
L 579.755758 265.623222 
L 580.039359 260.431641 
L 580.375988 260.976344 
L 580.716117 251.787267 
L 581.38403 243.769771 
L 581.720313 241.252142 
L 582.126775 249.632417 
L 582.39484 249.782778 
L 582.72897 246.890456 
L 583.070213 256.579972 
L 583.400267 255.581557 
L 583.737319 245.423365 
L 584.072833 249.537715 
L 584.56128 258.04672 
L 584.929633 268.821342 
L 585.570206 261.014627 
L 585.855114 261.542239 
L 586.03458 266.320203 
L 586.778594 276.221967 
L 587.336105 252.560201 
L 587.453352 255.296701 
L 587.788328 257.017853 
L 588.166141 248.933913 
L 588.461201 261.542465 
L 588.797946 258.732466 
L 589.204062 259.988473 
L 589.468512 268.34437 
L 590.202874 267.077632 
L 590.982767 274.168187 
L 591.87706 259.832366 
L 592.004344 249.284245 
L 592.328476 257.329394 
L 593.013155 262.250381 
L 593.33894 266.577469 
L 593.6728 264.815434 
L 594.009391 259.70317 
L 594.345097 248.671019 
L 594.67988 253.793574 
L 595.018701 252.535849 
L 595.37325 262.652853 
L 595.888115 253.983878 
L 596.115765 257.163885 
L 596.699463 274.85073 
L 597.116923 266.349487 
L 597.486815 265.76518 
L 598.318313 275.906029 
L 598.726621 273.642257 
L 599.40184 286.720918 
L 599.740546 279.615477 
L 600.207804 280.518838 
L 600.871718 269.52462 
L 601.168778 267.478084 
L 602.359516 287.433061 
L 602.984937 262.8468 
L 603.325181 263.87294 
L 603.499071 254.484787 
L 603.674192 261.871005 
L 604.163831 247.162455 
L 604.672928 247.162455 
L 604.776677 249.799571 
L 605.112807 247.819773 
L 605.450397 251.150439 
L 605.786296 262.480289 
L 606.123386 261.419891 
L 606.457708 263.132339 
L 606.792991 268.339921 
L 607.128774 264.881491 
L 607.464788 267.885297 
L 608.119204 265.914742 
L 608.271906 265.914742 
L 608.492903 271.801595 
L 608.81142 277.098546 
L 609.144973 280.087807 
L 609.484178 286.311152 
L 610.156552 290.959747 
L 610.826273 278.379846 
L 611.160979 283.970649 
L 611.500608 285.180729 
L 611.832968 290.490503 
L 612.16929 285.228372 
L 612.505381 287.307956 
L 612.842548 284.217058 
L 613.183407 283.967952 
L 613.543301 271.534118 
L 613.891659 272.650628 
L 614.492392 275.160298 
L 614.695777 276.868875 
L 614.949499 271.175479 
L 616.116472 258.472503 
L 616.286325 273.204568 
L 617.125667 283.37367 
L 618.338401 285.045922 
L 618.691489 278.375992 
L 619.120331 274.012963 
L 619.353749 274.538396 
L 619.875036 258.584135 
L 620.211319 258.244309 
L 620.574212 255.691844 
L 621.109727 253.427484 
L 621.319842 258.360863 
L 621.500884 254.482142 
L 622.130689 250.789525 
L 622.353455 244.3959 
L 622.636364 243.746219 
L 622.636364 243.746219 
" clip-path="url(#p72f5e4dde0)" style="fill: none; stroke: #008000; stroke-width: 1.5; stroke-linecap: square"/>
   </g>
   <g id="patch_3">
    <path d="M 90 448.56 
L 90 60.48 
" style="fill: none; stroke: #000000; stroke-width: 0.8; stroke-linejoin: miter; stroke-linecap: square"/>
   </g>
   <g id="patch_4">
    <path d="M 648 448.56 
L 648 60.48 
" style="fill: none; stroke: #000000; stroke-width: 0.8; stroke-linejoin: miter; stroke-linecap: square"/>
   </g>
   <g id="patch_5">
    <path d="M 90 448.56 
L 648 448.56 
" style="fill: none; stroke: #000000; stroke-width: 0.8; stroke-linejoin: miter; stroke-linecap: square"/>
   </g>
   <g id="patch_6">
    <path d="M 90 60.48 
L 648 60.48 
" style="fill: none; stroke: #000000; stroke-width: 0.8; stroke-linejoin: miter; stroke-linecap: square"/>
   </g>
   <g id="text_15">
    <!-- RMSE Kalman: 0.054 -->
    <g style="fill: #008000" transform="translate(95.58 83.7648)scale(0.1 -0.1)">
     <defs>
      <path id="DejaVuSans-52" d="M 2841 2188 
Q 3044 2119 3236 1894 
Q 3428 1669 3622 1275 
L 4263 0 
L 3584 0 
L 2988 1197 
Q 2756 1666 2539 1819 
Q 2322 1972 1947 1972 
L 1259 1972 
L 1259 0 
L 628 0 
L 628 4666 
L 2053 4666 
Q 2853 4666 3247 4331 
Q 3641 3997 3641 3322 
Q 3641 2881 3436 2590 
Q 3231 2300 2841 2188 
z
M 1259 4147 
L 1259 2491 
L 2053 2491 
Q 2509 2491 2742 2702 
Q 2975 2913 2975 3322 
Q 2975 3731 2742 3939 
Q 2509 4147 2053 4147 
L 1259 4147 
z
" transform="scale(0.015625)"/>
      <path id="DejaVuSans-4d" d="M 628 4666 
L 1569 4666 
L 2759 1491 
L 3956 4666 
L 4897 4666 
L 4897 0 
L 4281 0 
L 4281 4097 
L 3078 897 
L 2444 897 
L 1241 4097 
L 1241 0 
L 628 0 
L 628 4666 
z
" transform="scale(0.015625)"/>
      <path id="DejaVuSans-53" d="M 3425 4513 
L 3425 3897 
Q 3066 4069 2747 4153 
Q 2428 4238 2131 4238 
Q 1616 4238 1336 4038 
Q 1056 3838 1056 3469 
Q 1056 3159 1242 3001 
Q 1428 2844 1947 2747 
L 2328 2669 
Q 3034 2534 3370 2195 
Q 3706 1856 3706 1288 
Q 3706 609 3251 259 
Q 2797 -91 1919 -91 
Q 1588 -91 1214 -16 
Q 841 59 441 206 
L 441 856 
Q 825 641 1194 531 
Q 1563 422 1919 422 
Q 2459 422 2753 634 
Q 3047 847 3047 1241 
Q 3047 1584 2836 1778 
Q 2625 1972 2144 2069 
L 1759 2144 
Q 1053 2284 737 2584 
Q 422 2884 422 3419 
Q 422 4038 858 4394 
Q 1294 4750 2059 4750 
Q 2388 4750 2728 4690 
Q 3069 4631 3425 4513 
z
" transform="scale(0.015625)"/>
      <path id="DejaVuSans-4b" d="M 628 4666 
L 1259 4666 
L 1259 2694 
L 3353 4666 
L 4166 4666 
L 1850 2491 
L 4331 0 
L 3500 0 
L 1259 2247 
L 1259 0 
L 628 0 
L 628 4666 
z
" transform="scale(0.015625)"/>
      <path id="DejaVuSans-61" d="M 2194 1759 
Q 1497 1759 1228 1600 
Q 959 1441 959 1056 
Q 959 750 1161 570 
Q 1363 391 1709 391 
Q 2188 391 2477 730 
Q 2766 1069 2766 1631 
L 2766 1759 
L 2194 1759 
z
M 3341 1997 
L 3341 0 
L 2766 0 
L 2766 531 
Q 2569 213 2275 61 
Q 1981 -91 1556 -91 
Q 1019 -91 701 211 
Q 384 513 384 1019 
Q 384 1609 779 1909 
Q 1175 2209 1959 2209 
L 2766 2209 
L 2766 2266 
Q 2766 2663 2505 2880 
Q 2244 3097 1772 3097 
Q 1472 3097 1187 3025 
Q 903 2953 641 2809 
L 641 3341 
Q 956 3463 1253 3523 
Q 1550 3584 1831 3584 
Q 2591 3584 2966 3190 
Q 3341 2797 3341 1997 
z
" transform="scale(0.015625)"/>
      <path id="DejaVuSans-6c" d="M 603 4863 
L 1178 4863 
L 1178 0 
L 603 0 
L 603 4863 
z
" transform="scale(0.015625)"/>
      <path id="DejaVuSans-6e" d="M 3513 2113 
L 3513 0 
L 2938 0 
L 2938 2094 
Q 2938 2591 2744 2837 
Q 2550 3084 2163 3084 
Q 1697 3084 1428 2787 
Q 1159 2491 1159 1978 
L 1159 0 
L 581 0 
L 581 3500 
L 1159 3500 
L 1159 2956 
Q 1366 3272 1645 3428 
Q 1925 3584 2291 3584 
Q 2894 3584 3203 3211 
Q 3513 2838 3513 2113 
z
" transform="scale(0.015625)"/>
      <path id="DejaVuSans-3a" d="M 750 794 
L 1409 794 
L 1409 0 
L 750 0 
L 750 794 
z
M 750 3309 
L 1409 3309 
L 1409 2516 
L 750 2516 
L 750 3309 
z
" transform="scale(0.015625)"/>
     </defs>
     <use xlink:href="#DejaVuSans-52"/>
     <use xlink:href="#DejaVuSans-4d" x="69.482422"/>
     <use xlink:href="#DejaVuSans-53" x="155.761719"/>
     <use xlink:href="#DejaVuSans-45" x="219.238281"/>
     <use xlink:href="#DejaVuSans-20" x="282.421875"/>
     <use xlink:href="#DejaVuSans-4b" x="314.208984"/>
     <use xlink:href="#DejaVuSans-61" x="378.035156"/>
     <use xlink:href="#DejaVuSans-6c" x="439.314453"/>
     <use xlink:href="#DejaVuSans-6d" x="467.097656"/>
     <use xlink:href="#DejaVuSans-61" x="564.509766"/>
     <use xlink:href="#DejaVuSans-6e" x="625.789062"/>
     <use xlink:href="#DejaVuSans-3a" x="689.167969"/>
     <use xlink:href="#DejaVuSans-20" x="722.859375"/>
     <use xlink:href="#DejaVuSans-30" x="754.646484"/>
     <use xlink:href="#DejaVuSans-2e" x="818.269531"/>
     <use xlink:href="#DejaVuSans-30" x="850.056641"/>
     <use xlink:href="#DejaVuSans-35" x="913.679688"/>
     <use xlink:href="#DejaVuSans-34" x="977.302734"/>
    </g>
   </g>
   <g id="text_16">
    <!-- RMSE Gaussian: 0.207 -->
    <g style="fill: #ff0000" transform="translate(95.58 72.1224)scale(0.1 -0.1)">
     <defs>
      <path id="DejaVuSans-47" d="M 3809 666 
L 3809 1919 
L 2778 1919 
L 2778 2438 
L 4434 2438 
L 4434 434 
Q 4069 175 3628 42 
Q 3188 -91 2688 -91 
Q 1594 -91 976 548 
Q 359 1188 359 2328 
Q 359 3472 976 4111 
Q 1594 4750 2688 4750 
Q 3144 4750 3555 4637 
Q 3966 4525 4313 4306 
L 4313 3634 
Q 3963 3931 3569 4081 
Q 3175 4231 2741 4231 
Q 1884 4231 1454 3753 
Q 1025 3275 1025 2328 
Q 1025 1384 1454 906 
Q 1884 428 2741 428 
Q 3075 428 3337 486 
Q 3600 544 3809 666 
z
" transform="scale(0.015625)"/>
      <path id="DejaVuSans-75" d="M 544 1381 
L 544 3500 
L 1119 3500 
L 1119 1403 
Q 1119 906 1312 657 
Q 1506 409 1894 409 
Q 2359 409 2629 706 
Q 2900 1003 2900 1516 
L 2900 3500 
L 3475 3500 
L 3475 0 
L 2900 0 
L 2900 538 
Q 2691 219 2414 64 
Q 2138 -91 1772 -91 
Q 1169 -91 856 284 
Q 544 659 544 1381 
z
M 1991 3584 
L 1991 3584 
z
" transform="scale(0.015625)"/>
      <path id="DejaVuSans-37" d="M 525 4666 
L 3525 4666 
L 3525 4397 
L 1831 0 
L 1172 0 
L 2766 4134 
L 525 4134 
L 525 4666 
z
" transform="scale(0.015625)"/>
     </defs>
     <use xlink:href="#DejaVuSans-52"/>
     <use xlink:href="#DejaVuSans-4d" x="69.482422"/>
     <use xlink:href="#DejaVuSans-53" x="155.761719"/>
     <use xlink:href="#DejaVuSans-45" x="219.238281"/>
     <use xlink:href="#DejaVuSans-20" x="282.421875"/>
     <use xlink:href="#DejaVuSans-47" x="314.208984"/>
     <use xlink:href="#DejaVuSans-61" x="391.699219"/>
     <use xlink:href="#DejaVuSans-75" x="452.978516"/>
     <use xlink:href="#DejaVuSans-73" x="516.357422"/>
     <use xlink:href="#DejaVuSans-73" x="568.457031"/>
     <use xlink:href="#DejaVuSans-69" x="620.556641"/>
     <use xlink:href="#DejaVuSans-61" x="648.339844"/>
     <use xlink:href="#DejaVuSans-6e" x="709.619141"/>
     <use xlink:href="#DejaVuSans-3a" x="772.998047"/>
     <use xlink:href="#DejaVuSans-20" x="806.689453"/>
     <use xlink:href="#DejaVuSans-30" x="838.476562"/>
     <use xlink:href="#DejaVuSans-2e" x="902.099609"/>
     <use xlink:href="#DejaVuSans-32" x="933.886719"/>
     <use xlink:href="#DejaVuSans-30" x="997.509766"/>
     <use xlink:href="#DejaVuSans-37" x="1061.132812"/>
    </g>
   </g>
   <g id="legend_1">
    <g id="patch_7">
     <path d="M 525.546875 97.83625 
L 641 97.83625 
Q 643 97.83625 643 95.83625 
L 643 67.48 
Q 643 65.48 641 65.48 
L 525.546875 65.48 
Q 523.546875 65.48 523.546875 67.48 
L 523.546875 95.83625 
Q 523.546875 97.83625 525.546875 97.83625 
z
" style="fill: #ffffff; opacity: 0.8; stroke: #cccccc; stroke-linejoin: miter"/>
    </g>
    <g id="line2d_27">
     <path d="M 527.546875 73.578438 
L 537.546875 73.578438 
L 547.546875 73.578438 
" style="fill: none; stroke-dasharray: 9.6,2.4,1.5,2.4; stroke-dashoffset: 0; stroke: #ff0000; stroke-width: 1.5"/>
    </g>
    <g id="text_17">
     <!-- Gaussian Error X -->
     <g transform="translate(555.546875 77.078438)scale(0.1 -0.1)">
      <use xlink:href="#DejaVuSans-47"/>
      <use xlink:href="#DejaVuSans-61" x="77.490234"/>
      <use xlink:href="#DejaVuSans-75" x="138.769531"/>
      <use xlink:href="#DejaVuSans-73" x="202.148438"/>
      <use xlink:href="#DejaVuSans-73" x="254.248047"/>
      <use xlink:href="#DejaVuSans-69" x="306.347656"/>
      <use xlink:href="#DejaVuSans-61" x="334.130859"/>
      <use xlink:href="#DejaVuSans-6e" x="395.410156"/>
      <use xlink:href="#DejaVuSans-20" x="458.789062"/>
      <use xlink:href="#DejaVuSans-45" x="490.576172"/>
      <use xlink:href="#DejaVuSans-72" x="553.759766"/>
      <use xlink:href="#DejaVuSans-72" x="593.123047"/>
      <use xlink:href="#DejaVuSans-6f" x="631.986328"/>
      <use xlink:href="#DejaVuSans-72" x="693.167969"/>
      <use xlink:href="#DejaVuSans-20" x="734.28125"/>
      <use xlink:href="#DejaVuSans-58" x="766.068359"/>
     </g>
    </g>
    <g id="line2d_28">
     <path d="M 527.546875 88.256563 
L 537.546875 88.256563 
L 547.546875 88.256563 
" style="fill: none; stroke: #008000; stroke-width: 1.5; stroke-linecap: square"/>
    </g>
    <g id="text_18">
     <!-- Kalman Error X -->
     <g transform="translate(555.546875 91.756563)scale(0.1 -0.1)">
      <use xlink:href="#DejaVuSans-4b"/>
      <use xlink:href="#DejaVuSans-61" x="63.826172"/>
      <use xlink:href="#DejaVuSans-6c" x="125.105469"/>
      <use xlink:href="#DejaVuSans-6d" x="152.888672"/>
      <use xlink:href="#DejaVuSans-61" x="250.300781"/>
      <use xlink:href="#DejaVuSans-6e" x="311.580078"/>
      <use xlink:href="#DejaVuSans-20" x="374.958984"/>
      <use xlink:href="#DejaVuSans-45" x="406.746094"/>
      <use xlink:href="#DejaVuSans-72" x="469.929688"/>
      <use xlink:href="#DejaVuSans-72" x="509.292969"/>
      <use xlink:href="#DejaVuSans-6f" x="548.15625"/>
      <use xlink:href="#DejaVuSans-72" x="609.337891"/>
      <use xlink:href="#DejaVuSans-20" x="650.451172"/>
      <use xlink:href="#DejaVuSans-58" x="682.238281"/>
     </g>
    </g>
   </g>
  </g>
 </g>
 <defs>
  <clipPath id="p72f5e4dde0">
   <rect x="90" y="60.48" width="558" height="388.08"/>
  </clipPath>
 </defs>
</svg>
