<?xml version="1.0" encoding="utf-8" standalone="no"?>
<!DOCTYPE svg PUBLIC "-//W3C//DTD SVG 1.1//EN"
  "http://www.w3.org/Graphics/SVG/1.1/DTD/svg11.dtd">
<svg xmlns:xlink="http://www.w3.org/1999/xlink" width="720pt" height="504pt" viewBox="0 0 720 504" xmlns="http://www.w3.org/2000/svg" version="1.1">
 <metadata>
  <rdf:RDF xmlns:dc="http://purl.org/dc/elements/1.1/" xmlns:cc="http://creativecommons.org/ns#" xmlns:rdf="http://www.w3.org/1999/02/22-rdf-syntax-ns#">
   <cc:Work>
    <dc:type rdf:resource="http://purl.org/dc/dcmitype/StillImage"/>
    <dc:date>2024-02-15T17:37:22.022106</dc:date>
    <dc:format>image/svg+xml</dc:format>
    <dc:creator>
     <cc:Agent>
      <dc:title>Matplotlib v3.5.1, https://matplotlib.org/</dc:title>
     </cc:Agent>
    </dc:creator>
   </cc:Work>
  </rdf:RDF>
 </metadata>
 <defs>
  <style type="text/css">*{stroke-linejoin: round; stroke-linecap: butt}</style>
 </defs>
 <g id="figure_1">
  <g id="patch_1">
   <path d="M 0 504 
L 720 504 
L 720 0 
L 0 0 
z
" style="fill: #ffffff"/>
  </g>
  <g id="axes_1">
   <g id="patch_2">
    <path d="M 90 448.56 
L 648 448.56 
L 648 60.48 
L 90 60.48 
z
" style="fill: #ffffff"/>
   </g>
   <g id="matplotlib.axis_1">
    <g id="xtick_1">
     <g id="line2d_1">
      <path d="M 164.798108 448.56 
L 164.798108 60.48 
" clip-path="url(#p2b5abfe066)" style="fill: none; stroke: #b0b0b0; stroke-width: 0.8; stroke-linecap: square"/>
     </g>
     <g id="line2d_2">
      <defs>
       <path id="mbf9f4f3819" d="M 0 0 
L 0 3.5 
" style="stroke: #000000; stroke-width: 0.8"/>
      </defs>
      <g>
       <use xlink:href="#mbf9f4f3819" x="164.798108" y="448.56" style="stroke: #000000; stroke-width: 0.8"/>
      </g>
     </g>
     <g id="text_1">
      <!-- 10 -->
      <g transform="translate(158.435608 463.158437)scale(0.1 -0.1)">
       <defs>
        <path id="DejaVuSans-31" d="M 794 531 
L 1825 531 
L 1825 4091 
L 703 3866 
L 703 4441 
L 1819 4666 
L 2450 4666 
L 2450 531 
L 3481 531 
L 3481 0 
L 794 0 
L 794 531 
z
" transform="scale(0.015625)"/>
        <path id="DejaVuSans-30" d="M 2034 4250 
Q 1547 4250 1301 3770 
Q 1056 3291 1056 2328 
Q 1056 1369 1301 889 
Q 1547 409 2034 409 
Q 2525 409 2770 889 
Q 3016 1369 3016 2328 
Q 3016 3291 2770 3770 
Q 2525 4250 2034 4250 
z
M 2034 4750 
Q 2819 4750 3233 4129 
Q 3647 3509 3647 2328 
Q 3647 1150 3233 529 
Q 2819 -91 2034 -91 
Q 1250 -91 836 529 
Q 422 1150 422 2328 
Q 422 3509 836 4129 
Q 1250 4750 2034 4750 
z
" transform="scale(0.015625)"/>
       </defs>
       <use xlink:href="#DejaVuSans-31"/>
       <use xlink:href="#DejaVuSans-30" x="63.623047"/>
      </g>
     </g>
    </g>
    <g id="xtick_2">
     <g id="line2d_3">
      <path d="M 265.603802 448.56 
L 265.603802 60.48 
" clip-path="url(#p2b5abfe066)" style="fill: none; stroke: #b0b0b0; stroke-width: 0.8; stroke-linecap: square"/>
     </g>
     <g id="line2d_4">
      <g>
       <use xlink:href="#mbf9f4f3819" x="265.603802" y="448.56" style="stroke: #000000; stroke-width: 0.8"/>
      </g>
     </g>
     <g id="text_2">
      <!-- 20 -->
      <g transform="translate(259.241302 463.158437)scale(0.1 -0.1)">
       <defs>
        <path id="DejaVuSans-32" d="M 1228 531 
L 3431 531 
L 3431 0 
L 469 0 
L 469 531 
Q 828 903 1448 1529 
Q 2069 2156 2228 2338 
Q 2531 2678 2651 2914 
Q 2772 3150 2772 3378 
Q 2772 3750 2511 3984 
Q 2250 4219 1831 4219 
Q 1534 4219 1204 4116 
Q 875 4013 500 3803 
L 500 4441 
Q 881 4594 1212 4672 
Q 1544 4750 1819 4750 
Q 2544 4750 2975 4387 
Q 3406 4025 3406 3419 
Q 3406 3131 3298 2873 
Q 3191 2616 2906 2266 
Q 2828 2175 2409 1742 
Q 1991 1309 1228 531 
z
" transform="scale(0.015625)"/>
       </defs>
       <use xlink:href="#DejaVuSans-32"/>
       <use xlink:href="#DejaVuSans-30" x="63.623047"/>
      </g>
     </g>
    </g>
    <g id="xtick_3">
     <g id="line2d_5">
      <path d="M 366.409496 448.56 
L 366.409496 60.48 
" clip-path="url(#p2b5abfe066)" style="fill: none; stroke: #b0b0b0; stroke-width: 0.8; stroke-linecap: square"/>
     </g>
     <g id="line2d_6">
      <g>
       <use xlink:href="#mbf9f4f3819" x="366.409496" y="448.56" style="stroke: #000000; stroke-width: 0.8"/>
      </g>
     </g>
     <g id="text_3">
      <!-- 30 -->
      <g transform="translate(360.046996 463.158437)scale(0.1 -0.1)">
       <defs>
        <path id="DejaVuSans-33" d="M 2597 2516 
Q 3050 2419 3304 2112 
Q 3559 1806 3559 1356 
Q 3559 666 3084 287 
Q 2609 -91 1734 -91 
Q 1441 -91 1130 -33 
Q 819 25 488 141 
L 488 750 
Q 750 597 1062 519 
Q 1375 441 1716 441 
Q 2309 441 2620 675 
Q 2931 909 2931 1356 
Q 2931 1769 2642 2001 
Q 2353 2234 1838 2234 
L 1294 2234 
L 1294 2753 
L 1863 2753 
Q 2328 2753 2575 2939 
Q 2822 3125 2822 3475 
Q 2822 3834 2567 4026 
Q 2313 4219 1838 4219 
Q 1578 4219 1281 4162 
Q 984 4106 628 3988 
L 628 4550 
Q 988 4650 1302 4700 
Q 1616 4750 1894 4750 
Q 2613 4750 3031 4423 
Q 3450 4097 3450 3541 
Q 3450 3153 3228 2886 
Q 3006 2619 2597 2516 
z
" transform="scale(0.015625)"/>
       </defs>
       <use xlink:href="#DejaVuSans-33"/>
       <use xlink:href="#DejaVuSans-30" x="63.623047"/>
      </g>
     </g>
    </g>
    <g id="xtick_4">
     <g id="line2d_7">
      <path d="M 467.21519 448.56 
L 467.21519 60.48 
" clip-path="url(#p2b5abfe066)" style="fill: none; stroke: #b0b0b0; stroke-width: 0.8; stroke-linecap: square"/>
     </g>
     <g id="line2d_8">
      <g>
       <use xlink:href="#mbf9f4f3819" x="467.21519" y="448.56" style="stroke: #000000; stroke-width: 0.8"/>
      </g>
     </g>
     <g id="text_4">
      <!-- 40 -->
      <g transform="translate(460.85269 463.158437)scale(0.1 -0.1)">
       <defs>
        <path id="DejaVuSans-34" d="M 2419 4116 
L 825 1625 
L 2419 1625 
L 2419 4116 
z
M 2253 4666 
L 3047 4666 
L 3047 1625 
L 3713 1625 
L 3713 1100 
L 3047 1100 
L 3047 0 
L 2419 0 
L 2419 1100 
L 313 1100 
L 313 1709 
L 2253 4666 
z
" transform="scale(0.015625)"/>
       </defs>
       <use xlink:href="#DejaVuSans-34"/>
       <use xlink:href="#DejaVuSans-30" x="63.623047"/>
      </g>
     </g>
    </g>
    <g id="xtick_5">
     <g id="line2d_9">
      <path d="M 568.020884 448.56 
L 568.020884 60.48 
" clip-path="url(#p2b5abfe066)" style="fill: none; stroke: #b0b0b0; stroke-width: 0.8; stroke-linecap: square"/>
     </g>
     <g id="line2d_10">
      <g>
       <use xlink:href="#mbf9f4f3819" x="568.020884" y="448.56" style="stroke: #000000; stroke-width: 0.8"/>
      </g>
     </g>
     <g id="text_5">
      <!-- 50 -->
      <g transform="translate(561.658384 463.158437)scale(0.1 -0.1)">
       <defs>
        <path id="DejaVuSans-35" d="M 691 4666 
L 3169 4666 
L 3169 4134 
L 1269 4134 
L 1269 2991 
Q 1406 3038 1543 3061 
Q 1681 3084 1819 3084 
Q 2600 3084 3056 2656 
Q 3513 2228 3513 1497 
Q 3513 744 3044 326 
Q 2575 -91 1722 -91 
Q 1428 -91 1123 -41 
Q 819 9 494 109 
L 494 744 
Q 775 591 1075 516 
Q 1375 441 1709 441 
Q 2250 441 2565 725 
Q 2881 1009 2881 1497 
Q 2881 1984 2565 2268 
Q 2250 2553 1709 2553 
Q 1456 2553 1204 2497 
Q 953 2441 691 2322 
L 691 4666 
z
" transform="scale(0.015625)"/>
       </defs>
       <use xlink:href="#DejaVuSans-35"/>
       <use xlink:href="#DejaVuSans-30" x="63.623047"/>
      </g>
     </g>
    </g>
    <g id="text_6">
     <!-- Time (s) -->
     <g transform="translate(348.671094 476.836563)scale(0.1 -0.1)">
      <defs>
       <path id="DejaVuSans-54" d="M -19 4666 
L 3928 4666 
L 3928 4134 
L 2272 4134 
L 2272 0 
L 1638 0 
L 1638 4134 
L -19 4134 
L -19 4666 
z
" transform="scale(0.015625)"/>
       <path id="DejaVuSans-69" d="M 603 3500 
L 1178 3500 
L 1178 0 
L 603 0 
L 603 3500 
z
M 603 4863 
L 1178 4863 
L 1178 4134 
L 603 4134 
L 603 4863 
z
" transform="scale(0.015625)"/>
       <path id="DejaVuSans-6d" d="M 3328 2828 
Q 3544 3216 3844 3400 
Q 4144 3584 4550 3584 
Q 5097 3584 5394 3201 
Q 5691 2819 5691 2113 
L 5691 0 
L 5113 0 
L 5113 2094 
Q 5113 2597 4934 2840 
Q 4756 3084 4391 3084 
Q 3944 3084 3684 2787 
Q 3425 2491 3425 1978 
L 3425 0 
L 2847 0 
L 2847 2094 
Q 2847 2600 2669 2842 
Q 2491 3084 2119 3084 
Q 1678 3084 1418 2786 
Q 1159 2488 1159 1978 
L 1159 0 
L 581 0 
L 581 3500 
L 1159 3500 
L 1159 2956 
Q 1356 3278 1631 3431 
Q 1906 3584 2284 3584 
Q 2666 3584 2933 3390 
Q 3200 3197 3328 2828 
z
" transform="scale(0.015625)"/>
       <path id="DejaVuSans-65" d="M 3597 1894 
L 3597 1613 
L 953 1613 
Q 991 1019 1311 708 
Q 1631 397 2203 397 
Q 2534 397 2845 478 
Q 3156 559 3463 722 
L 3463 178 
Q 3153 47 2828 -22 
Q 2503 -91 2169 -91 
Q 1331 -91 842 396 
Q 353 884 353 1716 
Q 353 2575 817 3079 
Q 1281 3584 2069 3584 
Q 2775 3584 3186 3129 
Q 3597 2675 3597 1894 
z
M 3022 2063 
Q 3016 2534 2758 2815 
Q 2500 3097 2075 3097 
Q 1594 3097 1305 2825 
Q 1016 2553 972 2059 
L 3022 2063 
z
" transform="scale(0.015625)"/>
       <path id="DejaVuSans-20" transform="scale(0.015625)"/>
       <path id="DejaVuSans-28" d="M 1984 4856 
Q 1566 4138 1362 3434 
Q 1159 2731 1159 2009 
Q 1159 1288 1364 580 
Q 1569 -128 1984 -844 
L 1484 -844 
Q 1016 -109 783 600 
Q 550 1309 550 2009 
Q 550 2706 781 3412 
Q 1013 4119 1484 4856 
L 1984 4856 
z
" transform="scale(0.015625)"/>
       <path id="DejaVuSans-73" d="M 2834 3397 
L 2834 2853 
Q 2591 2978 2328 3040 
Q 2066 3103 1784 3103 
Q 1356 3103 1142 2972 
Q 928 2841 928 2578 
Q 928 2378 1081 2264 
Q 1234 2150 1697 2047 
L 1894 2003 
Q 2506 1872 2764 1633 
Q 3022 1394 3022 966 
Q 3022 478 2636 193 
Q 2250 -91 1575 -91 
Q 1294 -91 989 -36 
Q 684 19 347 128 
L 347 722 
Q 666 556 975 473 
Q 1284 391 1588 391 
Q 1994 391 2212 530 
Q 2431 669 2431 922 
Q 2431 1156 2273 1281 
Q 2116 1406 1581 1522 
L 1381 1569 
Q 847 1681 609 1914 
Q 372 2147 372 2553 
Q 372 3047 722 3315 
Q 1072 3584 1716 3584 
Q 2034 3584 2315 3537 
Q 2597 3491 2834 3397 
z
" transform="scale(0.015625)"/>
       <path id="DejaVuSans-29" d="M 513 4856 
L 1013 4856 
Q 1481 4119 1714 3412 
Q 1947 2706 1947 2009 
Q 1947 1309 1714 600 
Q 1481 -109 1013 -844 
L 513 -844 
Q 928 -128 1133 580 
Q 1338 1288 1338 2009 
Q 1338 2731 1133 3434 
Q 928 4138 513 4856 
z
" transform="scale(0.015625)"/>
      </defs>
      <use xlink:href="#DejaVuSans-54"/>
      <use xlink:href="#DejaVuSans-69" x="57.958984"/>
      <use xlink:href="#DejaVuSans-6d" x="85.742188"/>
      <use xlink:href="#DejaVuSans-65" x="183.154297"/>
      <use xlink:href="#DejaVuSans-20" x="244.677734"/>
      <use xlink:href="#DejaVuSans-28" x="276.464844"/>
      <use xlink:href="#DejaVuSans-73" x="315.478516"/>
      <use xlink:href="#DejaVuSans-29" x="367.578125"/>
     </g>
    </g>
   </g>
   <g id="matplotlib.axis_2">
    <g id="ytick_1">
     <g id="line2d_11">
      <path d="M 90 427.139142 
L 648 427.139142 
" clip-path="url(#p2b5abfe066)" style="fill: none; stroke: #b0b0b0; stroke-width: 0.8; stroke-linecap: square"/>
     </g>
     <g id="line2d_12">
      <defs>
       <path id="m8ca9317bf7" d="M 0 0 
L -3.5 0 
" style="stroke: #000000; stroke-width: 0.8"/>
      </defs>
      <g>
       <use xlink:href="#m8ca9317bf7" x="90" y="427.139142" style="stroke: #000000; stroke-width: 0.8"/>
      </g>
     </g>
     <g id="text_7">
      <!-- −0.6 -->
      <g transform="translate(58.717187 430.938361)scale(0.1 -0.1)">
       <defs>
        <path id="DejaVuSans-2212" d="M 678 2272 
L 4684 2272 
L 4684 1741 
L 678 1741 
L 678 2272 
z
" transform="scale(0.015625)"/>
        <path id="DejaVuSans-2e" d="M 684 794 
L 1344 794 
L 1344 0 
L 684 0 
L 684 794 
z
" transform="scale(0.015625)"/>
        <path id="DejaVuSans-36" d="M 2113 2584 
Q 1688 2584 1439 2293 
Q 1191 2003 1191 1497 
Q 1191 994 1439 701 
Q 1688 409 2113 409 
Q 2538 409 2786 701 
Q 3034 994 3034 1497 
Q 3034 2003 2786 2293 
Q 2538 2584 2113 2584 
z
M 3366 4563 
L 3366 3988 
Q 3128 4100 2886 4159 
Q 2644 4219 2406 4219 
Q 1781 4219 1451 3797 
Q 1122 3375 1075 2522 
Q 1259 2794 1537 2939 
Q 1816 3084 2150 3084 
Q 2853 3084 3261 2657 
Q 3669 2231 3669 1497 
Q 3669 778 3244 343 
Q 2819 -91 2113 -91 
Q 1303 -91 875 529 
Q 447 1150 447 2328 
Q 447 3434 972 4092 
Q 1497 4750 2381 4750 
Q 2619 4750 2861 4703 
Q 3103 4656 3366 4563 
z
" transform="scale(0.015625)"/>
       </defs>
       <use xlink:href="#DejaVuSans-2212"/>
       <use xlink:href="#DejaVuSans-30" x="83.789062"/>
       <use xlink:href="#DejaVuSans-2e" x="147.412109"/>
       <use xlink:href="#DejaVuSans-36" x="179.199219"/>
      </g>
     </g>
    </g>
    <g id="ytick_2">
     <g id="line2d_13">
      <path d="M 90 374.500564 
L 648 374.500564 
" clip-path="url(#p2b5abfe066)" style="fill: none; stroke: #b0b0b0; stroke-width: 0.8; stroke-linecap: square"/>
     </g>
     <g id="line2d_14">
      <g>
       <use xlink:href="#m8ca9317bf7" x="90" y="374.500564" style="stroke: #000000; stroke-width: 0.8"/>
      </g>
     </g>
     <g id="text_8">
      <!-- −0.4 -->
      <g transform="translate(58.717187 378.299782)scale(0.1 -0.1)">
       <use xlink:href="#DejaVuSans-2212"/>
       <use xlink:href="#DejaVuSans-30" x="83.789062"/>
       <use xlink:href="#DejaVuSans-2e" x="147.412109"/>
       <use xlink:href="#DejaVuSans-34" x="179.199219"/>
      </g>
     </g>
    </g>
    <g id="ytick_3">
     <g id="line2d_15">
      <path d="M 90 321.861986 
L 648 321.861986 
" clip-path="url(#p2b5abfe066)" style="fill: none; stroke: #b0b0b0; stroke-width: 0.8; stroke-linecap: square"/>
     </g>
     <g id="line2d_16">
      <g>
       <use xlink:href="#m8ca9317bf7" x="90" y="321.861986" style="stroke: #000000; stroke-width: 0.8"/>
      </g>
     </g>
     <g id="text_9">
      <!-- −0.2 -->
      <g transform="translate(58.717187 325.661204)scale(0.1 -0.1)">
       <use xlink:href="#DejaVuSans-2212"/>
       <use xlink:href="#DejaVuSans-30" x="83.789062"/>
       <use xlink:href="#DejaVuSans-2e" x="147.412109"/>
       <use xlink:href="#DejaVuSans-32" x="179.199219"/>
      </g>
     </g>
    </g>
    <g id="ytick_4">
     <g id="line2d_17">
      <path d="M 90 269.223408 
L 648 269.223408 
" clip-path="url(#p2b5abfe066)" style="fill: none; stroke: #b0b0b0; stroke-width: 0.8; stroke-linecap: square"/>
     </g>
     <g id="line2d_18">
      <g>
       <use xlink:href="#m8ca9317bf7" x="90" y="269.223408" style="stroke: #000000; stroke-width: 0.8"/>
      </g>
     </g>
     <g id="text_10">
      <!-- 0.0 -->
      <g transform="translate(67.096875 273.022626)scale(0.1 -0.1)">
       <use xlink:href="#DejaVuSans-30"/>
       <use xlink:href="#DejaVuSans-2e" x="63.623047"/>
       <use xlink:href="#DejaVuSans-30" x="95.410156"/>
      </g>
     </g>
    </g>
    <g id="ytick_5">
     <g id="line2d_19">
      <path d="M 90 216.58483 
L 648 216.58483 
" clip-path="url(#p2b5abfe066)" style="fill: none; stroke: #b0b0b0; stroke-width: 0.8; stroke-linecap: square"/>
     </g>
     <g id="line2d_20">
      <g>
       <use xlink:href="#m8ca9317bf7" x="90" y="216.58483" style="stroke: #000000; stroke-width: 0.8"/>
      </g>
     </g>
     <g id="text_11">
      <!-- 0.2 -->
      <g transform="translate(67.096875 220.384048)scale(0.1 -0.1)">
       <use xlink:href="#DejaVuSans-30"/>
       <use xlink:href="#DejaVuSans-2e" x="63.623047"/>
       <use xlink:href="#DejaVuSans-32" x="95.410156"/>
      </g>
     </g>
    </g>
    <g id="ytick_6">
     <g id="line2d_21">
      <path d="M 90 163.946251 
L 648 163.946251 
" clip-path="url(#p2b5abfe066)" style="fill: none; stroke: #b0b0b0; stroke-width: 0.8; stroke-linecap: square"/>
     </g>
     <g id="line2d_22">
      <g>
       <use xlink:href="#m8ca9317bf7" x="90" y="163.946251" style="stroke: #000000; stroke-width: 0.8"/>
      </g>
     </g>
     <g id="text_12">
      <!-- 0.4 -->
      <g transform="translate(67.096875 167.74547)scale(0.1 -0.1)">
       <use xlink:href="#DejaVuSans-30"/>
       <use xlink:href="#DejaVuSans-2e" x="63.623047"/>
       <use xlink:href="#DejaVuSans-34" x="95.410156"/>
      </g>
     </g>
    </g>
    <g id="ytick_7">
     <g id="line2d_23">
      <path d="M 90 111.307673 
L 648 111.307673 
" clip-path="url(#p2b5abfe066)" style="fill: none; stroke: #b0b0b0; stroke-width: 0.8; stroke-linecap: square"/>
     </g>
     <g id="line2d_24">
      <g>
       <use xlink:href="#m8ca9317bf7" x="90" y="111.307673" style="stroke: #000000; stroke-width: 0.8"/>
      </g>
     </g>
     <g id="text_13">
      <!-- 0.6 -->
      <g transform="translate(67.096875 115.106892)scale(0.1 -0.1)">
       <use xlink:href="#DejaVuSans-30"/>
       <use xlink:href="#DejaVuSans-2e" x="63.623047"/>
       <use xlink:href="#DejaVuSans-36" x="95.410156"/>
      </g>
     </g>
    </g>
    <g id="text_14">
     <!-- Error (Y) -->
     <g transform="translate(52.6375 275.249688)rotate(-90)scale(0.1 -0.1)">
      <defs>
       <path id="DejaVuSans-45" d="M 628 4666 
L 3578 4666 
L 3578 4134 
L 1259 4134 
L 1259 2753 
L 3481 2753 
L 3481 2222 
L 1259 2222 
L 1259 531 
L 3634 531 
L 3634 0 
L 628 0 
L 628 4666 
z
" transform="scale(0.015625)"/>
       <path id="DejaVuSans-72" d="M 2631 2963 
Q 2534 3019 2420 3045 
Q 2306 3072 2169 3072 
Q 1681 3072 1420 2755 
Q 1159 2438 1159 1844 
L 1159 0 
L 581 0 
L 581 3500 
L 1159 3500 
L 1159 2956 
Q 1341 3275 1631 3429 
Q 1922 3584 2338 3584 
Q 2397 3584 2469 3576 
Q 2541 3569 2628 3553 
L 2631 2963 
z
" transform="scale(0.015625)"/>
       <path id="DejaVuSans-6f" d="M 1959 3097 
Q 1497 3097 1228 2736 
Q 959 2375 959 1747 
Q 959 1119 1226 758 
Q 1494 397 1959 397 
Q 2419 397 2687 759 
Q 2956 1122 2956 1747 
Q 2956 2369 2687 2733 
Q 2419 3097 1959 3097 
z
M 1959 3584 
Q 2709 3584 3137 3096 
Q 3566 2609 3566 1747 
Q 3566 888 3137 398 
Q 2709 -91 1959 -91 
Q 1206 -91 779 398 
Q 353 888 353 1747 
Q 353 2609 779 3096 
Q 1206 3584 1959 3584 
z
" transform="scale(0.015625)"/>
       <path id="DejaVuSans-59" d="M -13 4666 
L 666 4666 
L 1959 2747 
L 3244 4666 
L 3922 4666 
L 2272 2222 
L 2272 0 
L 1638 0 
L 1638 2222 
L -13 4666 
z
" transform="scale(0.015625)"/>
      </defs>
      <use xlink:href="#DejaVuSans-45"/>
      <use xlink:href="#DejaVuSans-72" x="63.183594"/>
      <use xlink:href="#DejaVuSans-72" x="102.546875"/>
      <use xlink:href="#DejaVuSans-6f" x="141.410156"/>
      <use xlink:href="#DejaVuSans-72" x="202.591797"/>
      <use xlink:href="#DejaVuSans-20" x="243.705078"/>
      <use xlink:href="#DejaVuSans-28" x="275.492188"/>
      <use xlink:href="#DejaVuSans-59" x="314.505859"/>
      <use xlink:href="#DejaVuSans-29" x="375.589844"/>
     </g>
    </g>
   </g>
   <g id="line2d_25">
    <path d="M 115.363636 279.171646 
L 115.682202 253.487799 
L 116.018369 325.033331 
L 116.356234 276.494697 
L 116.691714 185.501393 
L 117.026574 303.25446 
L 117.367904 257.069623 
L 117.747468 299.747783 
L 118.678557 289.044793 
L 119.098089 269.554189 
L 119.689363 310.579655 
L 119.916695 401.361863 
L 120.588204 309.256002 
L 121.228074 266.522153 
L 121.536045 289.708977 
L 121.951847 360.521079 
L 122.457531 194.053147 
L 122.836763 194.053147 
L 122.870117 240.180593 
L 122.980005 237.49467 
L 123.279127 269.881341 
L 123.625461 250.140386 
L 123.951726 224.181931 
L 124.562842 232.85445 
L 124.842785 322.725704 
L 125.086898 318.164838 
L 125.337678 267.497429 
L 125.633853 327.760458 
L 125.96866 311.869004 
L 126.416134 222.501233 
L 126.643779 293.897845 
L 126.981398 265.134678 
L 127.317739 198.176568 
L 127.653733 354.597474 
L 127.989891 228.347496 
L 128.326223 234.743442 
L 128.662275 293.079599 
L 129.35625 267.000252 
L 129.664529 240.491046 
L 130.008291 199.217936 
L 130.339181 284.630483 
L 130.713149 284.630483 
L 131.018482 221.926887 
L 131.355212 245.37632 
L 131.691788 304.645305 
L 132.451006 223.34376 
L 132.948557 241.90483 
L 133.177773 235.992738 
L 133.493185 194.133416 
L 134.062963 320.410703 
L 134.540325 377.214594 
L 134.719508 247.139888 
L 135.098374 244.841211 
L 135.392372 286.757406 
L 135.832857 302.910653 
L 136.049528 300.853313 
L 136.385229 176.762902 
L 136.721272 291.783157 
L 137.058035 271.197625 
L 137.41243 239.478484 
L 137.748593 250.788278 
L 138.085323 309.922934 
L 138.421856 199.940194 
L 139.296346 226.498506 
L 139.661066 196.529458 
L 140.191068 229.10877 
L 140.597842 230.481052 
L 141.074988 230.481052 
L 141.20095 332.599249 
L 141.537699 267.852168 
L 141.873223 335.195252 
L 142.226782 335.921918 
L 143.05528 203.6449 
L 143.460555 270.451908 
L 143.552874 269.097197 
L 143.713253 268.497698 
L 143.893147 261.129597 
L 144.327613 306.6879 
L 144.744372 293.926835 
L 145.108774 301.382299 
L 145.30468 301.382299 
L 145.570428 278.651769 
L 145.90598 213.544053 
L 146.706176 324.819377 
L 147.504065 302.568081 
L 147.747942 302.568081 
L 147.770448 305.501925 
L 147.922621 305.501925 
L 148.260692 283.840022 
L 148.658771 244.10938 
L 149.183346 217.950423 
L 149.462717 308.62905 
L 149.700038 233.588017 
L 150.138705 218.253766 
L 150.458386 317.493886 
L 150.850033 297.829087 
L 151.074203 297.949913 
L 151.283356 246.316344 
L 151.617783 313.72629 
L 151.954768 276.331813 
L 152.459846 277.041987 
L 152.638294 309.601094 
L 153.125914 285.294974 
L 153.660179 283.69611 
L 154.248395 249.784036 
L 154.609674 251.797435 
L 154.967434 377.779744 
L 155.853681 225.355079 
L 156.985622 225.368049 
L 157.200255 228.44012 
L 157.881271 261.819059 
L 158.214324 265.18444 
L 158.544435 338.532251 
L 158.92794 284.137171 
L 159.27526 309.816411 
L 159.553486 314.252414 
L 159.951258 282.256499 
L 160.560941 318.145837 
L 161.298014 164.369141 
L 162.153056 261.363427 
L 162.382994 138.930103 
L 162.907164 235.068386 
L 163.452197 310.051065 
L 163.630759 278.001337 
L 164.206305 351.977796 
L 164.465853 354.31064 
L 164.685754 198.366704 
L 164.91995 349.973662 
L 165.080612 321.298366 
L 165.365818 323.789623 
L 165.669694 293.68319 
L 166.008303 302.415704 
L 166.342548 252.94329 
L 166.677524 321.499621 
L 167.020806 200.068118 
L 167.351628 309.637078 
L 167.918224 227.484278 
L 168.161101 231.850299 
L 168.366457 176.072257 
L 168.743204 269.761139 
L 169.186015 269.761139 
L 169.370701 236.097015 
L 169.701283 212.857589 
L 170.049362 225.696635 
L 170.721861 345.849025 
L 171.058154 185.017217 
L 171.384073 240.174964 
L 171.731787 140.884865 
L 172.068041 247.19586 
L 172.529906 234.494024 
L 172.726139 288.13292 
L 173.077803 323.570979 
L 173.401945 190.132037 
L 173.827297 251.182168 
L 174.440836 238.436081 
L 174.741049 308.057642 
L 175.096194 311.945154 
L 175.970328 280.21114 
L 176.64298 365.068314 
L 177.14056 244.377018 
L 177.76378 282.078766 
L 177.967309 239.176778 
L 178.320954 278.30728 
L 178.816534 280.376707 
L 178.947375 282.417198 
L 179.144943 203.428684 
L 179.370959 204.728912 
L 179.735419 324.51543 
L 180.117174 272.543326 
L 180.369992 273.744558 
L 180.687135 303.248103 
L 181.028157 186.788224 
L 181.359682 298.673198 
L 181.692148 299.920529 
L 182.360648 162.334886 
L 183.044654 377.340887 
L 183.411143 256.564091 
L 183.722382 300.332412 
L 184.037112 307.497913 
L 184.375452 307.433369 
L 184.716378 193.885058 
L 185.046153 242.660328 
L 185.386551 222.06062 
L 185.719642 325.987566 
L 186.07273 240.802707 
L 186.397842 291.130755 
L 186.731327 290.688424 
L 187.101729 270.274627 
L 187.652222 284.814857 
L 188.201888 199.221324 
L 188.548957 209.329292 
L 189.009246 269.391832 
L 189.632167 165.704677 
L 190.227219 281.719051 
L 190.742488 312.200094 
L 190.907197 209.563228 
L 191.295297 216.604847 
L 191.510449 192.734138 
L 191.805134 356.645184 
L 192.117518 357.15255 
L 192.323037 276.60573 
L 192.65884 253.784083 
L 192.994161 239.170495 
L 193.336136 310.782588 
L 193.705903 299.776463 
L 194.004491 323.969206 
L 194.676038 213.996557 
L 195.011167 361.122828 
L 195.346297 285.340648 
L 195.679955 289.437806 
L 196.109413 271.536287 
L 196.620981 349.673732 
L 196.972857 249.895439 
L 197.297104 310.003019 
L 197.950471 328.710091 
L 198.100347 327.737684 
L 198.233178 275.11343 
L 199.104005 238.718618 
L 199.363658 300.565241 
L 199.653709 279.779854 
L 199.813208 278.519126 
L 200.050298 279.23972 
L 200.38637 262.61713 
L 200.722653 332.426077 
L 201.06829 317.172467 
L 201.442249 227.796925 
L 201.74226 241.69239 
L 202.072919 288.25193 
L 202.746523 250.153017 
L 203.025009 292.967811 
L 203.163637 290.60273 
L 203.411821 262.387879 
L 204.119746 263.010953 
L 204.34505 302.862482 
L 204.454347 300.851468 
L 204.762299 303.911467 
L 205.204639 204.383834 
L 205.734991 245.796392 
L 205.982493 281.598073 
L 206.286503 289.482097 
L 206.479582 286.470328 
L 206.782929 258.762556 
L 207.121548 269.910381 
L 207.444632 255.111244 
L 207.802295 269.464435 
L 208.468189 309.290386 
L 208.786678 314.952328 
L 209.128383 307.89542 
L 209.797892 248.605942 
L 210.17882 289.080891 
L 210.46816 290.416413 
L 211.150003 223.260958 
L 211.598121 301.257395 
L 212.086068 275.360847 
L 212.39501 276.660755 
L 212.841003 207.163881 
L 213.17147 223.376378 
L 213.495804 205.158556 
L 213.829308 336.173022 
L 214.173157 259.273079 
L 214.589492 318.842423 
L 214.835292 252.772731 
L 215.172114 299.359752 
L 215.507359 161.893717 
L 215.844122 282.753499 
L 216.204689 199.72345 
L 216.704768 199.72345 
L 216.857836 294.672197 
L 217.190735 179.266297 
L 217.636103 257.303888 
L 218.254324 251.586342 
L 218.345451 266.672596 
L 218.602162 265.031658 
L 218.875601 228.453003 
L 219.203444 290.284207 
L 219.539756 321.649335 
L 219.929154 313.749118 
L 220.660911 256.284152 
L 221.460866 323.957743 
L 221.801216 319.365756 
L 222.138162 342.299766 
L 222.472667 169.813219 
L 222.806835 166.687614 
L 223.147136 320.565628 
L 223.479093 264.557536 
L 223.849091 256.980978 
L 225.099722 261.4136 
L 225.443571 328.352977 
L 225.891583 246.714096 
L 226.308274 246.714096 
L 226.563995 211.405161 
L 226.906681 294.866631 
L 227.242752 277.104317 
L 227.573267 304.312103 
L 227.909761 321.732316 
L 228.246102 205.029418 
L 228.582289 262.235774 
L 228.918457 355.788981 
L 229.460547 263.289763 
L 229.79833 262.350849 
L 229.926152 164.006856 
L 230.279221 313.177186 
L 230.60018 295.36117 
L 230.934694 170.27425 
L 231.272707 293.234413 
L 231.913318 277.387044 
L 232.283056 190.111069 
L 233.261045 193.007072 
L 233.622651 388.690277 
L 234.187468 261.522668 
L 234.755957 252.318181 
L 234.89122 252.118306 
L 235.012005 278.488088 
L 235.300624 181.510763 
L 235.629236 390.451387 
L 235.970383 209.004552 
L 236.287727 208.368957 
L 236.656774 385.528112 
L 236.960044 254.912932 
L 237.577966 307.314782 
L 238.060702 292.946479 
L 238.29635 317.678505 
L 238.648534 317.686113 
L 238.991355 237.049883 
L 239.314698 259.862111 
L 239.648404 308.01868 
L 239.984783 273.356829 
L 240.356041 266.178454 
L 240.675654 267.630001 
L 241.03524 333.586331 
L 242.001693 285.685398 
L 242.640593 280.929261 
L 243.105871 324.296438 
L 244.004375 284.806315 
L 244.623394 287.350681 
L 244.992305 271.55295 
L 245.313495 273.968985 
L 245.637569 293.746125 
L 246.196079 261.541213 
L 246.869184 286.127219 
L 247.410351 340.793683 
L 247.766034 262.314322 
L 248.366076 199.773678 
L 248.480958 199.773678 
L 248.767039 271.882284 
L 249.104879 263.205139 
L 249.42853 221.805232 
L 249.893078 232.683716 
L 250.567624 264.960256 
L 251.279683 268.41038 
L 251.669013 232.184063 
L 251.953864 264.212972 
L 252.829507 165.132 
L 253.183998 301.366967 
L 253.35239 301.366967 
L 253.730492 243.377182 
L 254.4677 331.398983 
L 254.871278 350.489753 
L 255.560187 109.775247 
L 255.948864 216.650979 
L 256.365305 275.64661 
L 256.552404 278.200106 
L 257.017336 199.511294 
L 257.37302 351.015368 
L 257.823973 353.647408 
L 258.012265 353.870222 
L 258.34851 274.827098 
L 258.676813 243.217362 
L 259.015558 253.363967 
L 259.586373 262.727508 
L 260.094163 334.486832 
L 260.264996 340.232645 
L 260.590339 256.030214 
L 260.774131 258.469501 
L 261.143889 362.679144 
L 261.49986 238.482378 
L 261.7014 344.111855 
L 262.152392 317.089517 
L 262.371716 320.332119 
L 262.718113 158.916657 
L 263.083775 158.916657 
L 263.714618 270.532879 
L 264.064725 263.249407 
L 264.41191 210.173576 
L 264.725582 373.763895 
L 265.059096 251.6254 
L 265.644909 251.396529 
L 266.049449 194.442453 
L 266.536377 258.038553 
L 267.116748 288.047525 
L 267.621077 196.533001 
L 268.528618 196.533001 
L 268.866362 258.262673 
L 269.209029 345.089999 
L 269.540986 222.166351 
L 270.274233 271.074693 
L 270.602902 308.504393 
L 270.882657 310.405218 
L 271.220805 263.12935 
L 271.55455 155.206412 
L 271.892775 292.509431 
L 272.226597 321.707485 
L 272.564803 246.789492 
L 272.901509 326.125145 
L 273.235869 169.019496 
L 273.570576 170.768325 
L 273.90682 297.430006 
L 274.244699 296.265356 
L 274.590192 377.724802 
L 274.929051 379.310386 
L 275.253279 247.919844 
L 275.588889 341.52228 
L 276.263993 222.501153 
L 276.598161 267.125007 
L 277.041328 307.648018 
L 277.424564 252.708219 
L 277.713606 237.196449 
L 277.990861 238.31373 
L 278.281557 323.396065 
L 278.611956 238.252259 
L 278.970773 270.265786 
L 279.520786 293.861737 
L 279.903906 295.750836 
L 280.19837 296.608394 
L 280.336344 297.406026 
L 280.626943 268.209335 
L 280.963111 268.901735 
L 281.312353 313.34223 
L 281.639946 370.39311 
L 282.306955 269.48106 
L 282.642969 309.067299 
L 282.985078 309.067299 
L 283.31715 227.383603 
L 283.652299 193.108254 
L 283.986909 197.092508 
L 284.323134 196.985159 
L 284.66705 299.82232 
L 285.000988 224.287843 
L 285.527389 276.020944 
L 285.756365 276.020944 
L 286.013009 237.701449 
L 286.340967 227.330284 
L 286.79417 295.357278 
L 287.640646 207.619125 
L 287.845608 204.83892 
L 288.324537 333.777012 
L 288.520769 307.182407 
L 289.178588 277.16304 
L 289.516929 303.344242 
L 289.879476 277.799091 
L 290.233044 303.513507 
L 290.641717 267.31667 
L 290.861522 193.402287 
L 291.428301 229.300657 
L 291.840377 219.284095 
L 292.280506 281.652026 
L 292.791564 265.263664 
L 293.726677 324.535187 
L 294.078957 322.755831 
L 294.400377 251.191245 
L 294.738064 261.932602 
L 295.072866 391.059717 
L 295.408534 160.354482 
L 295.746971 214.464426 
L 296.088868 249.717942 
L 296.416403 261.809898 
L 296.992948 235.446021 
L 297.336711 238.178883 
L 297.584453 300.299049 
L 297.779185 273.46152 
L 298.134869 326.967903 
L 298.432909 326.967903 
L 298.768557 245.597298 
L 299.10486 299.314164 
L 299.45389 252.75509 
L 299.798518 275.569686 
L 300.130206 348.780379 
L 300.457779 264.539483 
L 300.793139 292.040347 
L 301.124634 282.179038 
L 301.457303 276.845924 
L 301.80543 305.905346 
L 302.151826 224.779728 
L 302.498588 170.769182 
L 302.850907 168.077812 
L 303.136795 285.943958 
L 303.474847 299.76563 
L 303.811861 300.808886 
L 304.592387 247.586909 
L 304.974643 342.515312 
L 305.267934 208.468155 
L 305.573472 311.936863 
L 306.337137 345.956551 
L 307.013337 299.386123 
L 307.371539 296.949569 
L 307.44241 284.859469 
L 307.966773 284.859469 
L 308.021955 173.915119 
L 308.356777 303.438658 
L 308.70102 252.25463 
L 309.037418 264.13001 
L 309.379066 271.744463 
L 309.720521 251.10263 
L 310.283742 299.967634 
L 310.540809 430.92 
L 310.865056 428.61177 
L 311.071248 231.421316 
L 311.431873 281.193785 
L 311.724376 164.21231 
L 312.398307 356.287129 
L 312.734301 210.647726 
L 313.44488 274.87086 
L 313.739344 338.891351 
L 314.069993 268.295327 
L 314.455613 262.469511 
L 314.765978 217.000588 
L 315.079284 290.306932 
L 315.784517 167.383021 
L 316.123531 304.285491 
L 316.437068 258.032293 
L 316.837743 288.860876 
L 317.100405 283.367539 
L 317.437188 156.330544 
L 317.802889 310.08381 
L 318.280645 308.521004 
L 318.450132 188.061707 
L 318.779282 280.36279 
L 319.116411 281.478221 
L 319.448234 332.34273 
L 319.810281 260.498125 
L 320.128625 260.498125 
L 320.469234 273.266498 
L 320.802575 277.500388 
L 321.295964 178.304502 
L 321.78093 272.095757 
L 321.963146 272.615581 
L 322.343805 285.998693 
L 323.152596 269.898916 
L 323.803589 300.383376 
L 324.071808 300.383376 
L 324.211628 189.577037 
L 324.641566 210.726789 
L 325.240839 210.726789 
L 325.510288 227.990442 
L 325.897677 212.07284 
L 326.182181 235.791667 
L 326.515907 304.05819 
L 326.852671 302.828072 
L 327.191684 312.687668 
L 327.526486 331.947395 
L 327.86475 237.66012 
L 328.342141 237.66012 
L 328.532259 332.537605 
L 328.868927 390.596247 
L 329.228398 272.6217 
L 329.556702 277.451587 
L 329.878276 189.526589 
L 330.212309 232.428983 
L 330.606024 333.520974 
L 330.890567 295.990621 
L 331.338348 296.440382 
L 331.712701 216.01184 
L 331.926891 216.300568 
L 332.287401 217.939585 
L 332.582691 267.239141 
L 333.323379 193.651674 
L 333.628918 142.823142 
L 334.025959 330.317593 
L 334.279757 260.285024 
L 334.720155 242.636658 
L 334.946555 284.616244 
L 335.27632 225.723754 
L 335.59228 264.826327 
L 336.720818 210.749592 
L 337.059005 264.178219 
L 337.395173 238.448224 
L 337.732244 304.626376 
L 338.069123 209.984307 
L 338.404541 335.536277 
L 338.74067 238.886575 
L 339.441712 338.853279 
L 339.766804 285.765623 
L 340.085918 275.602864 
L 340.420336 280.091588 
L 340.832201 376.260408 
L 341.090825 362.456699 
L 341.429146 318.721413 
L 341.76416 129.263074 
L 342.103212 274.770047 
L 342.440379 247.367085 
L 342.792948 271.143785 
L 343.107485 271.143785 
L 343.476089 294.706696 
L 343.77884 292.061618 
L 344.114815 294.761591 
L 344.45329 237.71105 
L 344.789131 296.254521 
L 345.12501 262.03814 
L 345.459505 264.221607 
L 345.796173 309.383035 
L 346.132379 233.881976 
L 346.469739 241.760363 
L 346.807617 337.207971 
L 347.143401 206.348879 
L 347.559938 304.839031 
L 347.818428 307.256097 
L 348.152423 254.169839 
L 348.653156 291.369633 
L 349.281326 261.523922 
L 349.526242 263.947599 
L 349.704862 203.090373 
L 350.33732 269.704651 
L 350.666547 272.16792 
L 350.8354 170.098595 
L 351.171914 242.97046 
L 351.5121 363.248912 
L 351.849171 388.982337 
L 352.401241 364.151129 
L 352.531505 231.843037 
L 353.566887 250.323157 
L 353.914072 286.326545 
L 354.387579 129.244722 
L 354.576909 131.62264 
L 354.913365 292.122453 
L 355.389064 235.126633 
L 355.756765 168.305062 
L 355.921003 170.622187 
L 356.257248 289.619119 
L 356.768652 256.150379 
L 357.107319 241.77656 
L 357.495438 243.931382 
L 357.676539 272.3699 
L 357.959024 274.524048 
L 358.273734 328.232813 
L 358.609518 301.86318 
L 358.974622 293.473639 
L 359.454051 268.510634 
L 359.619174 365.576299 
L 360.099853 256.475411 
L 360.289375 258.470919 
L 360.682167 268.674017 
L 361.029486 311.152033 
L 361.478768 286.385007 
L 361.77477 341.355716 
L 361.99071 343.764958 
L 362.313245 228.466831 
L 362.691405 257.871556 
L 362.978928 259.621373 
L 363.314 201.232935 
L 363.65036 288.69605 
L 363.988566 231.810742 
L 364.321638 295.178358 
L 364.658228 206.28756 
L 365.470211 323.529494 
L 365.712127 323.529494 
L 366.005072 224.731704 
L 366.674638 285.921757 
L 367.087465 269.703253 
L 367.3498 270.997803 
L 367.685179 205.463866 
L 368.018982 269.331806 
L 368.367167 228.960234 
L 369.446907 329.361292 
L 369.860387 291.486005 
L 370.206706 302.255803 
L 370.45689 234.757294 
L 371.003037 179.682645 
L 371.579641 314.469032 
L 371.934286 314.469032 
L 372.127461 314.925492 
L 372.232364 215.019075 
L 372.472742 215.80993 
L 372.812313 287.301662 
L 373.156556 287.675197 
L 373.48263 406.669141 
L 373.818182 151.257383 
L 374.152504 160.990267 
L 374.489864 382.790163 
L 374.824897 313.131305 
L 375.17189 343.955228 
L 375.837534 262.916552 
L 376.290622 216.663193 
L 376.551573 226.182654 
L 376.845825 294.361326 
L 377.178321 294.361326 
L 377.513027 207.511139 
L 377.849656 278.886048 
L 378.526779 324.783391 
L 378.874195 324.783391 
L 379.21142 305.455176 
L 379.534071 302.803279 
L 379.870623 273.182223 
L 380.217289 172.518091 
L 380.537786 170.471388 
L 380.873416 267.16917 
L 381.2236 266.161514 
L 381.616276 246.182105 
L 381.882303 244.488307 
L 382.219105 221.938004 
L 382.89221 311.967368 
L 383.225128 181.885972 
L 383.640069 249.711484 
L 383.898598 78.12 
L 384.235458 288.136935 
L 384.570106 243.732065 
L 384.907216 321.653906 
L 385.241653 282.030542 
L 385.609546 299.021196 
L 385.991878 244.818095 
L 386.502282 246.791579 
L 386.801399 244.709422 
L 386.928106 244.709422 
L 387.597711 328.669596 
L 387.932764 244.845869 
L 388.304348 240.259192 
L 388.612944 353.516497 
L 388.978837 241.217197 
L 389.273512 345.549052 
L 389.609603 343.110011 
L 389.951077 259.186389 
L 390.292167 225.991045 
L 390.709473 207.357211 
L 391.103284 320.573169 
L 391.588154 233.768068 
L 391.783579 233.768068 
L 391.962507 231.203606 
L 392.29856 271.194443 
L 392.63392 368.030626 
L 392.979355 365.44204 
L 393.642653 223.773988 
L 394.315681 265.455783 
L 394.650541 251.147255 
L 395.006359 175.756105 
L 395.336912 261.164268 
L 395.738222 187.390398 
L 396.354068 187.390398 
L 397.002869 306.01499 
L 397.339037 288.439217 
L 397.674512 281.787748 
L 398.011526 165.922928 
L 398.346694 306.88644 
L 398.693705 330.36565 
L 399.017952 288.350334 
L 399.354235 406.779209 
L 399.690711 265.105603 
L 400.362584 247.986178 
L 400.701521 219.843504 
L 401.038188 288.110026 
L 401.370357 260.207994 
L 401.707793 274.771428 
L 402.045999 272.666963 
L 402.378629 167.299908 
L 402.722488 291.704527 
L 403.132911 262.982811 
L 403.386555 261.012255 
L 403.7233 270.438188 
L 404.062428 233.000606 
L 404.471582 297.169959 
L 404.75303 295.34685 
L 405.638709 175.654121 
L 406.56815 367.820656 
L 406.846214 203.248072 
L 407.176959 315.801711 
L 407.591343 261.254305 
L 407.888441 202.04832 
L 408.470639 273.803471 
L 408.808422 238.901034 
L 409.144436 235.8719 
L 409.484795 193.33013 
L 409.819771 190.391905 
L 410.15267 353.34259 
L 410.488645 278.322588 
L 410.831389 319.539829 
L 411.182361 206.743851 
L 411.504724 352.311826 
L 411.833201 274.344362 
L 412.195133 271.846687 
L 412.504805 357.272449 
L 412.844395 238.777157 
L 413.515346 274.388568 
L 413.85609 272.298834 
L 414.211139 302.755502 
L 414.64898 252.2263 
L 415.200069 337.642007 
L 415.705628 311.371479 
L 416.202611 310.635578 
L 416.55143 326.291963 
L 416.963815 284.079959 
L 417.212114 311.87821 
L 417.679065 289.393573 
L 417.890294 289.266708 
L 418.224386 297.350184 
L 418.742711 331.651755 
L 419.227044 227.039582 
L 419.684304 300.791939 
L 419.858156 300.94803 
L 420.152754 184.796494 
L 420.762063 116.418879 
L 420.91415 359.986402 
L 421.242319 266.607343 
L 421.490388 267.301641 
L 421.581332 256.757449 
L 422.018596 252.35248 
L 422.256552 410.446789 
L 422.589066 206.452821 
L 422.989145 207.345818 
L 423.596993 361.046514 
L 423.932853 330.123917 
L 424.33993 331.015954 
L 424.694863 331.015954 
L 424.968081 258.31423 
L 425.285637 357.288402 
L 426.128364 259.960081 
L 426.62081 259.960081 
L 426.957708 341.286099 
L 427.294798 150.871865 
L 427.62889 285.938652 
L 427.968018 239.390487 
L 428.641853 332.442625 
L 429.014899 244.996404 
L 429.331455 313.108094 
L 429.647318 315.145965 
L 429.981486 258.63637 
L 430.317347 260.800887 
L 430.654745 260.202484 
L 430.991028 253.075112 
L 431.340001 339.396672 
L 431.667708 274.082872 
L 432.074632 225.155376 
L 432.341159 310.64372 
L 432.806418 237.772649 
L 433.12505 221.113369 
L 433.68756 315.044534 
L 434.022843 319.082815 
L 434.354204 271.785955 
L 434.68545 269.715294 
L 435.02154 283.215429 
L 435.737137 196.541196 
L 436.199589 255.476577 
L 437.037393 304.622137 
L 437.373407 313.28184 
L 437.709805 362.023592 
L 438.047665 247.516674 
L 438.382717 243.70838 
L 438.717462 365.257414 
L 439.209216 268.96132 
L 439.408525 273.046138 
L 439.726427 311.404992 
L 440.064902 292.87219 
L 440.397339 314.12004 
L 440.73443 314.12004 
L 441.073943 302.157515 
L 441.446488 390.778104 
L 441.741818 264.873015 
L 442.307481 267.209788 
L 442.424805 251.818286 
L 442.910444 341.521468 
L 443.72683 217.970779 
L 443.968823 220.279131 
L 444.115372 237.155517 
L 444.430159 239.465276 
L 444.765827 271.621173 
L 445.244199 271.621173 
L 445.437816 240.466175 
L 445.774099 266.437101 
L 446.255163 262.424071 
L 446.447742 262.424071 
L 446.782141 304.881976 
L 447.119039 255.321564 
L 447.544767 309.068844 
L 448.168496 296.956108 
L 448.510393 259.397728 
L 449.206686 261.364653 
L 449.618301 272.681625 
L 449.887789 274.480034 
L 450.219688 238.504337 
L 450.557201 304.821035 
L 450.892062 296.025507 
L 451.427269 308.983676 
L 451.595353 281.609956 
L 451.978742 333.705165 
L 452.240347 237.847589 
L 452.576976 160.642675 
L 452.907722 319.788736 
L 453.430431 269.389579 
L 453.590555 270.834101 
L 453.920185 187.539844 
L 454.24947 188.956035 
L 454.589983 284.878827 
L 454.982178 244.384594 
L 455.325729 279.138975 
L 455.712426 278.29625 
L 456.328618 280.883404 
L 456.612103 173.218725 
L 456.96396 292.34066 
L 457.345581 292.34066 
L 457.372691 223.571583 
L 457.645294 202.932652 
L 457.950429 205.51248 
L 458.338818 244.182715 
L 458.680638 305.805842 
L 459.068488 141.155456 
L 459.366202 229.431909 
L 459.628191 231.325628 
L 459.964359 330.885502 
L 460.304064 333.665785 
L 460.849346 272.547443 
L 460.972785 244.275642 
L 461.33091 261.824699 
L 461.645389 136.346347 
L 462.01805 230.551251 
L 462.31534 230.791333 
L 462.653123 250.482978 
L 463.101308 184.551768 
L 463.841554 232.311029 
L 464.293469 223.287828 
L 464.965843 223.287828 
L 465.310624 286.340035 
L 465.66029 222.737493 
L 465.978422 277.095568 
L 466.311936 276.609286 
L 466.647527 143.085743 
L 466.983926 141.848092 
L 467.324746 262.971951 
L 467.952244 285.778049 
L 468.37801 152.358816 
L 468.584625 152.358816 
L 468.662995 149.897288 
L 468.999932 180.588965 
L 469.336561 194.92534 
L 470.167021 314.278414 
L 471.176523 276.474296 
L 471.520997 213.929844 
L 472.012559 281.462306 
L 472.478087 204.197669 
L 472.620945 202.405935 
L 472.859631 281.406965 
L 473.195991 245.824056 
L 473.532543 188.462423 
L 473.869018 203.592616 
L 474.204955 272.652141 
L 474.756544 152.77122 
L 475.081483 223.802303 
L 475.768469 289.630829 
L 476.213116 207.906731 
L 476.698141 205.579668 
L 477.044768 239.222643 
L 477.390819 344.739328 
L 478.177171 313.733516 
L 478.743257 172.539327 
L 479.082116 255.683058 
L 479.44301 210.121753 
L 479.783562 249.681264 
L 480.113461 226.960822 
L 480.60733 242.933865 
L 480.774376 240.339471 
L 481.137346 280.370759 
L 481.537886 261.644687 
L 481.943772 227.721827 
L 482.209991 216.243597 
L 482.442909 213.662645 
L 482.926972 239.277236 
L 483.140086 241.870804 
L 484.025304 231.210338 
L 484.252492 235.802296 
L 484.945093 280.994411 
L 485.187624 280.994411 
L 485.505911 283.309439 
L 485.806623 278.421885 
L 486.285111 299.946495 
L 486.713453 262.648179 
L 486.892574 262.648179 
L 487.146641 301.867546 
L 487.51338 292.195204 
L 487.890386 321.616042 
L 488.412404 302.089777 
L 488.921808 299.638202 
L 489.163647 299.264712 
L 489.497315 230.112479 
L 489.833829 336.871721 
L 490.170112 192.005107 
L 490.730199 213.428045 
L 491.025913 331.627779 
L 491.639759 224.214764 
L 492.177658 340.131481 
L 492.828344 189.881439 
L 493.193045 341.157591 
L 493.674647 283.901958 
L 494.184205 273.440556 
L 494.345944 282.184522 
L 494.861232 267.463354 
L 495.343218 267.463354 
L 495.387364 293.754243 
L 495.534451 289.961064 
L 495.885347 236.927562 
L 496.251048 254.431335 
L 496.542185 334.625802 
L 496.892581 208.926468 
L 497.246207 205.519516 
L 497.571569 207.398495 
L 497.944422 272.090321 
L 498.882285 222.306684 
L 499.006992 139.183737 
L 499.30409 139.183737 
L 499.575078 254.41448 
L 499.89471 291.117848 
L 500.578735 211.539762 
L 500.914595 201.70802 
L 501.24438 294.077732 
L 501.628231 246.796895 
L 502.194701 265.312618 
L 502.452768 246.302499 
L 502.861461 299.401126 
L 503.285343 247.092987 
L 503.564598 281.039725 
L 504.079309 259.71201 
L 504.483579 178.465298 
L 504.823823 296.434911 
L 505.439631 266.545538 
L 505.788796 322.542803 
L 506.323696 344.496106 
L 507.078169 211.729145 
L 507.470442 283.206038 
L 507.7765 262.919411 
L 508.201689 270.403051 
L 508.781503 274.611614 
L 509.325555 159.011903 
L 509.918021 299.828387 
L 510.276107 300.44842 
L 510.475301 281.822254 
L 511.24208 421.786954 
L 511.359904 422.629813 
L 512.015166 254.25195 
L 512.381251 293.564034 
L 512.688155 228.73423 
L 513.106345 228.73423 
L 513.393868 301.872178 
L 514.054898 223.041306 
L 514.531309 247.444469 
L 514.757189 248.963428 
L 515.066824 322.401414 
L 515.422911 271.913795 
L 515.90582 422.042309 
L 516.119011 422.042309 
L 516.384884 286.688539 
L 516.76712 199.105509 
L 517.119246 200.864049 
L 517.814462 330.377521 
L 518.076566 376.45835 
L 518.401467 378.501382 
L 519.118871 187.784362 
L 519.408124 271.13938 
L 519.745868 283.747201 
L 520.095418 246.172767 
L 520.416935 197.817905 
L 520.778444 350.042313 
L 521.112304 232.647306 
L 521.766105 270.54768 
L 522.101311 299.256023 
L 522.435018 267.444241 
L 522.789682 265.053713 
L 523.244712 344.562821 
L 523.498664 344.562821 
L 523.830948 256.288447 
L 524.113626 261.543099 
L 524.451639 246.37193 
L 525.009342 290.508414 
L 525.42188 302.987987 
L 525.714402 308.390603 
L 526.043917 248.53197 
L 526.282257 293.849285 
L 526.504215 296.595463 
L 526.867647 283.013701 
L 527.164514 288.389472 
L 527.682571 309.246129 
L 528.171133 351.391323 
L 528.849121 252.242374 
L 529.293499 241.652713 
L 529.604826 204.580935 
L 529.868315 207.072618 
L 530.196215 315.083886 
L 530.809792 317.501617 
L 531.162149 256.115435 
L 531.475359 258.631309 
L 531.637406 268.130224 
L 531.999838 241.376974 
L 532.238831 327.164783 
L 533.020646 317.853662 
L 533.122665 273.384361 
L 533.855643 302.175961 
L 534.352281 304.417762 
L 534.69837 194.328817 
L 535.033884 273.640127 
L 535.362283 275.619332 
L 535.702297 265.173334 
L 536.136061 347.01195 
L 536.370825 324.431619 
L 536.708223 324.431619 
L 537.04366 318.694791 
L 537.457852 230.255467 
L 537.71888 331.97717 
L 538.054163 206.750165 
L 538.3866 222.180833 
L 538.723768 225.416949 
L 539.058628 241.315174 
L 539.417215 369.191886 
L 539.731117 206.289426 
L 540.140925 264.496817 
L 540.404837 265.754956 
L 540.738582 332.771137 
L 541.077826 365.309335 
L 541.411648 303.231774 
L 541.747431 183.643683 
L 542.083637 340.558475 
L 542.419728 381.547692 
L 542.771854 266.263593 
L 543.180201 297.540576 
L 543.427039 264.77799 
L 543.764129 317.06769 
L 544.110564 246.269469 
L 544.43858 228.478173 
L 544.805357 237.385964 
L 545.295804 219.566808 
L 545.866312 236.639898 
L 546.597328 232.898168 
L 546.941033 261.037715 
L 547.628673 262.969037 
L 547.95392 296.394554 
L 548.454634 181.561717 
L 548.737773 182.383335 
L 548.882938 182.383335 
L 548.964653 234.965165 
L 549.305589 318.246394 
L 549.63595 319.069737 
L 550.322052 155.619489 
L 550.684215 305.473084 
L 550.969085 273.615408 
L 551.304676 283.85989 
L 551.898295 297.540886 
L 552.182319 339.470027 
L 552.661459 178.714014 
L 552.748751 325.229436 
L 552.99309 325.311717 
L 553.322912 140.879175 
L 553.665732 245.397238 
L 554.000054 277.493216 
L 554.331492 251.713687 
L 554.672505 313.591843 
L 555.338303 183.813942 
L 555.681546 307.936055 
L 556.345999 185.428042 
L 556.681782 210.137411 
L 557.022795 279.729723 
L 557.359693 303.52175 
L 557.712358 360.547425 
L 558.355122 329.493501 
L 558.97166 239.152866 
L 559.163431 237.758889 
L 559.316287 230.811444 
L 560.140902 224.908265 
L 560.38551 179.961106 
L 560.713948 290.898593 
L 561.053423 304.787224 
L 561.389398 261.809589 
L 561.771134 305.294129 
L 562.071962 195.367811 
L 562.393902 301.089075 
L 562.839126 265.831738 
L 563.255202 265.831738 
L 563.401828 237.472225 
L 563.844899 273.043365 
L 564.231519 273.043365 
L 564.410677 371.151124 
L 564.77134 202.82495 
L 565.719393 309.009975 
L 566.155042 323.553294 
L 566.632376 261.909296 
L 566.828839 363.822119 
L 567.428572 159.770908 
L 567.950051 159.770908 
L 567.977354 154.900066 
L 568.297294 236.816378 
L 568.574626 232.761358 
L 569.184935 323.438931 
L 569.517911 288.943052 
L 569.855578 283.809046 
L 570.190131 254.832199 
L 570.52676 261.109374 
L 570.86412 214.680286 
L 571.197519 184.114901 
L 571.871354 286.149813 
L 572.20879 262.330546 
L 572.54938 259.686195 
L 572.984222 241.775387 
L 573.530312 303.260953 
L 574.108395 156.057905 
L 574.539276 251.744749 
L 574.995229 306.778867 
L 575.349393 212.2953 
L 575.671564 228.629977 
L 576.005347 256.152825 
L 576.347283 233.957938 
L 576.868916 210.703005 
L 577.160707 250.025906 
L 577.683801 247.431194 
L 577.813546 143.3281 
L 579.029933 265.138165 
L 579.408093 238.719637 
L 579.755758 236.370203 
L 580.039359 301.510004 
L 580.375988 271.404288 
L 580.716117 188.981758 
L 581.048554 288.052792 
L 581.38403 167.77603 
L 581.720313 322.938543 
L 582.126775 340.425792 
L 582.39484 251.112157 
L 582.72897 248.898397 
L 583.070213 234.472703 
L 583.400267 245.723993 
L 583.737319 275.005015 
L 584.072833 257.371672 
L 584.56128 220.62048 
L 584.929633 324.209875 
L 585.570206 247.562853 
L 585.855114 325.500326 
L 586.03458 249.355705 
L 586.778594 271.735866 
L 587.336105 271.735866 
L 587.453352 270.380308 
L 587.788328 295.362009 
L 588.166141 202.361005 
L 588.461201 248.561524 
L 588.797946 247.503023 
L 589.204062 291.728774 
L 589.468512 209.275397 
L 590.202874 279.990634 
L 590.982767 271.168629 
L 591.87706 269.812067 
L 592.004344 253.398958 
L 592.730938 398.225952 
L 593.013155 256.744547 
L 593.33894 265.842531 
L 593.6728 281.770625 
L 594.009391 307.723173 
L 594.345097 211.348266 
L 594.67988 172.669473 
L 595.018701 213.265041 
L 595.37325 327.07899 
L 595.888115 327.07899 
L 596.115765 369.562707 
L 596.371024 194.674972 
L 596.699463 340.162223 
L 597.116923 349.270773 
L 598.318313 262.629227 
L 598.726621 257.775411 
L 599.076132 334.376437 
L 599.40184 233.970451 
L 599.740546 388.693774 
L 600.207804 256.764427 
L 600.871718 225.808346 
L 601.168778 328.797448 
L 601.662185 263.734333 
L 601.986432 307.385595 
L 602.359516 135.866137 
L 602.729177 343.951575 
L 602.984937 230.088059 
L 603.325181 300.383013 
L 603.499071 302.692262 
L 603.674192 244.258669 
L 604.163831 155.864773 
L 604.672928 155.864773 
L 604.776677 281.141036 
L 605.112807 279.964129 
L 605.450397 211.725206 
L 605.786296 272.93202 
L 606.123386 375.646602 
L 606.457708 173.761611 
L 606.792991 215.3753 
L 607.128774 272.600583 
L 607.464788 288.295879 
L 608.119204 286.714585 
L 608.271906 286.714585 
L 608.492903 262.574662 
L 608.81142 241.400766 
L 609.144973 293.145669 
L 609.484178 281.422867 
L 609.817539 222.091437 
L 610.156552 231.073723 
L 610.580896 288.04676 
L 610.826273 239.355678 
L 611.500608 275.386583 
L 611.832968 309.131059 
L 612.16929 294.71036 
L 612.505381 199.56727 
L 612.842548 340.185697 
L 613.183407 241.928446 
L 613.543301 254.359775 
L 613.891659 382.802112 
L 614.492392 306.879568 
L 614.695777 310.380744 
L 614.949499 231.782699 
L 615.503279 285.948312 
L 615.684169 288.546722 
L 616.286325 307.660375 
L 616.538508 241.458458 
L 617.125667 214.363134 
L 618.338401 272.773428 
L 618.691489 278.961252 
L 619.120331 266.548724 
L 619.353749 272.656175 
L 619.875036 303.9559 
L 620.211319 306.738838 
L 620.574212 267.549253 
L 621.109727 225.400414 
L 621.319842 226.265278 
L 621.500884 224.340611 
L 622.130689 383.92992 
L 622.353455 308.633003 
L 622.636364 319.915192 
L 622.636364 319.915192 
" clip-path="url(#p2b5abfe066)" style="fill: none; stroke-dasharray: 9.6,2.4,1.5,2.4; stroke-dashoffset: 0; stroke: #ff0000; stroke-width: 1.5"/>
   </g>
   <g id="line2d_26">
    <path d="M 115.363636 282.475784 
L 115.682202 280.924697 
L 116.018369 287.170009 
L 116.356234 288.276282 
L 116.691714 279.014313 
L 117.026574 282.099867 
L 117.367904 279.932613 
L 117.747468 266.547988 
L 118.678557 278.015381 
L 119.040605 280.665812 
L 119.098089 274.889832 
L 119.689363 286.897965 
L 119.916695 278.629083 
L 120.588204 297.688082 
L 121.536045 302.356472 
L 121.951847 298.937003 
L 122.457531 303.379659 
L 122.836763 303.379659 
L 122.980005 298.915236 
L 123.279127 297.596217 
L 123.625461 295.065296 
L 123.951726 286.887107 
L 124.562842 289.202827 
L 124.842785 286.449581 
L 125.086898 293.34077 
L 125.337678 295.809389 
L 125.633853 301.957668 
L 125.96866 304.890389 
L 126.416134 297.192338 
L 126.643779 304.504789 
L 126.981398 302.964967 
L 127.317739 294.57534 
L 127.653733 300.136777 
L 127.989891 297.516487 
L 128.326223 291.682781 
L 128.662275 283.682952 
L 129.251414 290.294444 
L 129.35625 295.317238 
L 129.664529 291.830115 
L 130.008291 284.467296 
L 130.339181 281.890502 
L 130.713149 289.698519 
L 131.018482 284.109492 
L 131.355212 282.612291 
L 131.691788 275.536071 
L 132.270521 279.603026 
L 132.451006 276.922149 
L 132.948557 274.794956 
L 133.177773 272.351548 
L 133.493185 267.062982 
L 134.062963 275.216746 
L 134.540325 291.216913 
L 134.719508 292.957714 
L 135.098374 292.169788 
L 135.392372 293.304363 
L 135.832857 297.243143 
L 136.049528 295.185803 
L 136.385229 285.580659 
L 136.721272 288.587221 
L 137.058035 284.783143 
L 137.41243 285.137049 
L 137.748593 283.510696 
L 138.085323 288.428617 
L 138.421856 291.329051 
L 139.296346 276.863881 
L 139.661066 268.743986 
L 140.191068 266.47979 
L 140.597842 266.786483 
L 141.074988 266.945987 
L 141.20095 276.809461 
L 141.537699 277.612713 
L 141.873223 285.762578 
L 142.226782 280.38197 
L 143.05528 280.201744 
L 143.460555 282.370845 
L 143.552874 281.016134 
L 143.713253 280.416636 
L 143.893147 280.320083 
L 144.327613 280.863011 
L 144.744372 288.412632 
L 145.108774 290.992016 
L 145.30468 290.992016 
L 145.570428 291.148915 
L 145.90598 283.748544 
L 146.706176 285.255076 
L 147.504065 293.481681 
L 147.747942 293.481681 
L 147.770448 293.034586 
L 147.922621 295.737161 
L 148.260692 294.532317 
L 148.658771 298.072094 
L 149.183346 285.988189 
L 149.462717 285.644821 
L 149.700038 288.589148 
L 150.138705 283.180529 
L 150.458386 281.203067 
L 150.850033 283.234125 
L 151.074203 283.35495 
L 151.283356 279.455773 
L 151.617783 283.282043 
L 151.954768 274.839779 
L 152.459846 274.905726 
L 152.638294 277.96735 
L 153.125914 275.921093 
L 153.660179 280.291384 
L 154.248395 267.754259 
L 154.609674 265.78364 
L 154.967434 261.907744 
L 155.853681 274.408775 
L 156.616739 281.087869 
L 156.985622 271.821139 
L 157.200255 274.89321 
L 157.541796 270.983851 
L 157.881271 261.580573 
L 158.214324 264.945954 
L 158.544435 265.742788 
L 159.27526 270.072876 
L 159.553486 273.073318 
L 159.951258 274.146446 
L 160.560941 281.967082 
L 161.298014 257.413644 
L 161.744306 272.362489 
L 162.153056 262.620498 
L 162.382994 262.931006 
L 162.907164 244.395907 
L 163.452197 249.100591 
L 163.630759 251.896249 
L 164.206305 256.721867 
L 164.465853 263.176391 
L 164.685754 250.986165 
L 164.91995 254.947389 
L 165.080612 263.756707 
L 165.669694 268.513571 
L 166.008303 266.716976 
L 166.342548 274.335345 
L 166.677524 267.116639 
L 167.020806 257.021466 
L 167.351628 264.933356 
L 167.918224 259.064965 
L 168.161101 253.181179 
L 168.366457 243.550181 
L 169.186015 235.35501 
L 169.701283 235.323727 
L 170.049362 225.508361 
L 170.379868 228.367991 
L 170.721861 238.849094 
L 171.058154 230.409664 
L 171.384073 232.904645 
L 171.731787 219.34829 
L 172.068041 219.665918 
L 172.529906 216.120423 
L 172.726139 218.686228 
L 173.077803 229.128275 
L 173.401945 230.777253 
L 173.827297 227.408978 
L 174.440836 219.30937 
L 175.096194 234.006328 
L 175.970328 236.497056 
L 176.64298 244.332669 
L 176.778551 249.27141 
L 177.14056 253.457598 
L 177.76378 249.975867 
L 177.967309 250.576074 
L 178.320954 245.743246 
L 178.816534 244.635832 
L 178.947375 246.676324 
L 179.144943 237.361487 
L 179.370959 238.661715 
L 180.117174 253.458219 
L 180.369992 254.659451 
L 180.687135 257.93902 
L 181.028157 257.886316 
L 181.359682 249.637121 
L 181.692148 250.884451 
L 182.020461 247.001626 
L 182.360648 236.015345 
L 182.730549 237.171443 
L 183.044654 249.703449 
L 183.411143 248.708953 
L 184.375452 257.799044 
L 184.716378 249.138261 
L 185.386551 242.183876 
L 185.719642 249.303707 
L 186.07273 247.717296 
L 186.397842 251.085847 
L 186.731327 245.33556 
L 187.101729 249.418424 
L 187.652222 247.651146 
L 188.548957 237.189589 
L 189.009246 244.023731 
L 189.632167 251.412054 
L 190.227219 243.528303 
L 190.742488 249.830881 
L 190.907197 245.099406 
L 191.295297 241.041026 
L 191.510449 241.605039 
L 191.805134 246.92688 
L 192.117518 247.434245 
L 192.323037 249.478223 
L 192.65884 249.386567 
L 192.994161 247.839206 
L 193.336136 254.103641 
L 193.705903 258.706447 
L 194.004491 265.170806 
L 194.338928 264.547766 
L 194.676038 258.971766 
L 195.011167 269.582196 
L 195.679955 272.94 
L 196.109413 268.97168 
L 196.620981 277.495911 
L 196.972857 274.546289 
L 197.297104 278.027424 
L 197.950471 286.301939 
L 198.100347 285.329532 
L 198.233178 282.844818 
L 199.104005 276.928968 
L 199.363658 280.941808 
L 199.653709 281.203236 
L 199.813208 279.942509 
L 200.050298 280.010812 
L 200.38637 279.694042 
L 200.722653 286.393374 
L 201.06829 288.852299 
L 201.74226 278.537747 
L 202.072919 271.427615 
L 202.746523 275.229453 
L 203.025009 279.652223 
L 203.163637 277.287141 
L 203.411821 265.833727 
L 204.119746 269.876454 
L 204.34505 267.852026 
L 204.454347 274.060715 
L 204.762299 279.957163 
L 205.204639 285.165938 
L 205.982493 275.774252 
L 206.286503 284.132104 
L 206.479582 281.120336 
L 206.782929 279.996517 
L 207.121548 280.281377 
L 207.444632 281.107966 
L 207.802295 279.155941 
L 208.123571 281.874755 
L 208.786678 293.000705 
L 209.46381 295.511645 
L 209.797892 293.128182 
L 210.17882 292.35459 
L 210.46816 296.346623 
L 210.802934 294.639655 
L 211.150003 288.453269 
L 211.598121 283.233644 
L 212.086068 292.306694 
L 212.39501 293.44458 
L 213.495804 277.763504 
L 213.829308 286.361755 
L 214.173157 284.383363 
L 214.589492 289.728066 
L 214.835292 290.671711 
L 215.172114 294.157642 
L 215.507359 282.830428 
L 215.844122 285.310988 
L 216.204689 282.238599 
L 216.704768 280.602232 
L 216.857836 286.88249 
L 217.190735 277.9848 
L 217.636103 269.610132 
L 218.254324 274.826774 
L 218.345451 269.698403 
L 218.602162 274.874011 
L 218.875601 271.892796 
L 219.203444 279.485209 
L 219.539756 284.342728 
L 219.929154 268.342977 
L 220.660911 271.064707 
L 221.801216 291.506464 
L 222.138162 301.622647 
L 222.806835 279.617457 
L 223.147136 286.650405 
L 223.479093 287.012059 
L 223.849091 296.244978 
L 224.545258 292.410779 
L 225.099722 291.463424 
L 225.443571 290.423207 
L 225.891583 296.334684 
L 226.308274 296.949924 
L 226.563995 290.509209 
L 226.906681 293.910069 
L 227.242752 294.187004 
L 227.573267 297.551332 
L 227.909761 302.415632 
L 228.246102 293.17916 
L 228.582289 293.380099 
L 228.918457 285.683713 
L 229.460547 296.484656 
L 229.79833 296.562443 
L 229.926152 282.98541 
L 230.60018 293.365642 
L 230.934694 281.67335 
L 231.272707 274.627732 
L 231.913318 280.99819 
L 232.283056 280.387286 
L 233.261045 267.667067 
L 233.622651 275.73675 
L 234.187468 274.939901 
L 234.755957 274.813898 
L 234.89122 274.614024 
L 235.012005 277.003523 
L 235.300624 267.837707 
L 235.629236 282.014344 
L 235.970383 280.510899 
L 236.287727 274.283103 
L 236.656774 287.190113 
L 236.960044 285.247759 
L 237.577966 282.772386 
L 238.060702 287.743459 
L 238.29635 291.523554 
L 238.648534 291.531162 
L 238.991355 286.173397 
L 239.314698 283.736004 
L 239.648404 286.605017 
L 239.984783 285.540923 
L 240.356041 277.386555 
L 240.675654 278.446624 
L 241.03524 283.84647 
L 242.001693 287.231411 
L 242.640593 290.694114 
L 243.105871 291.61425 
L 243.66467 293.714738 
L 244.004375 287.103164 
L 244.623394 287.606383 
L 244.992305 282.756222 
L 245.313495 285.172257 
L 246.196079 280.130686 
L 246.869184 283.434981 
L 247.410351 281.835613 
L 247.766034 284.836617 
L 248.366076 267.294717 
L 248.480958 267.294717 
L 248.767039 273.038043 
L 249.104879 265.500908 
L 249.42853 269.182172 
L 250.567624 245.234106 
L 251.279683 245.688281 
L 251.669013 248.932515 
L 251.953864 248.474347 
L 252.829507 231.957496 
L 253.183998 235.695637 
L 253.35239 235.695637 
L 253.730492 241.587976 
L 254.114497 241.369433 
L 254.4677 247.622021 
L 254.871278 258.640761 
L 255.560187 242.554897 
L 255.74148 245.018473 
L 255.948864 238.633553 
L 256.365305 232.298115 
L 256.552404 232.701935 
L 256.81101 235.287697 
L 257.017336 225.069605 
L 257.37302 230.098474 
L 257.823973 238.693255 
L 258.012265 246.277912 
L 258.34851 246.86885 
L 258.676813 253.199013 
L 259.015558 255.222439 
L 259.586373 253.068016 
L 260.094163 254.794527 
L 260.264996 261.868648 
L 260.590339 256.40211 
L 261.49986 267.713714 
L 261.7014 264.666966 
L 262.371716 268.802657 
L 262.718113 263.686138 
L 263.083775 263.686138 
L 263.402619 254.812841 
L 264.064725 251.614764 
L 264.41191 244.218165 
L 264.725582 254.913845 
L 265.644909 247.74934 
L 266.049449 245.356035 
L 266.536377 236.301316 
L 267.621077 247.119553 
L 268.528618 227.129676 
L 268.866362 227.460441 
L 269.209029 238.726393 
L 269.540986 242.845585 
L 270.274233 234.755682 
L 270.602902 234.466314 
L 270.882657 238.117253 
L 271.220805 239.844614 
L 271.55455 226.662139 
L 271.892775 231.231753 
L 272.226597 238.418801 
L 272.564803 238.661994 
L 272.901509 239.922212 
L 273.235869 245.466249 
L 273.570576 233.917863 
L 274.244699 242.367938 
L 274.590192 256.916324 
L 274.929051 258.501908 
L 275.253279 255.630438 
L 275.588889 263.051161 
L 275.923019 263.568983 
L 276.263993 272.845701 
L 276.598161 267.553924 
L 277.041328 268.049963 
L 277.424564 264.981456 
L 277.713606 259.74193 
L 277.990861 260.859211 
L 278.281557 265.197397 
L 278.611956 261.242223 
L 278.970773 273.31479 
L 279.520786 273.301643 
L 279.903906 273.783699 
L 280.19837 274.51128 
L 280.336344 275.308912 
L 280.626943 266.722945 
L 280.963111 265.544472 
L 281.312353 270.015589 
L 281.639946 279.926928 
L 281.971902 283.007759 
L 282.642969 279.303876 
L 282.985078 281.550438 
L 283.31715 275.590286 
L 283.652299 266.446468 
L 283.986909 269.085619 
L 284.323134 261.126446 
L 284.66705 262.135658 
L 285.000988 261.521086 
L 285.527389 262.972816 
L 285.756365 262.972816 
L 286.013009 260.681746 
L 286.340967 261.754312 
L 286.79417 253.296104 
L 287.640646 248.794093 
L 287.845608 243.384979 
L 288.324537 254.011633 
L 288.520769 255.571071 
L 289.516929 270.704636 
L 289.879476 269.658123 
L 290.233044 273.871988 
L 290.641717 274.91417 
L 291.428301 262.885231 
L 291.840377 257.79766 
L 292.280506 261.772705 
L 292.791564 258.697908 
L 293.081221 261.703927 
L 293.726677 264.872565 
L 294.078957 273.804607 
L 294.400377 274.912833 
L 294.738064 272.610138 
L 295.072866 288.19577 
L 295.408534 276.148875 
L 295.746971 269.446984 
L 296.088868 268.878267 
L 296.416403 263.042193 
L 296.992948 267.117176 
L 297.336711 265.961922 
L 297.584453 273.413115 
L 297.779185 269.386521 
L 298.134869 271.412431 
L 298.432909 283.179603 
L 298.768557 281.482886 
L 299.10486 283.593339 
L 299.45389 281.75008 
L 299.798518 276.95712 
L 300.130206 278.339222 
L 300.457779 287.302697 
L 300.793139 286.465288 
L 301.124634 291.144897 
L 301.457303 291.660964 
L 301.80543 295.470503 
L 302.151826 295.430516 
L 302.850907 279.219034 
L 303.136795 282.503253 
L 303.474847 289.19754 
L 303.811861 290.955378 
L 304.592387 293.669707 
L 304.974643 303.166581 
L 305.267934 296.910359 
L 305.573472 296.193876 
L 306.337137 289.264684 
L 307.371539 302.353057 
L 307.44241 295.232635 
L 307.966773 301.436415 
L 308.021955 293.052548 
L 308.356777 299.284469 
L 308.70102 297.210385 
L 309.037418 294.496551 
L 309.379066 297.165069 
L 309.720521 286.957658 
L 310.283742 297.048249 
L 310.540809 314.239732 
L 310.865056 311.931502 
L 311.071248 306.683712 
L 311.431873 307.159519 
L 311.724376 297.347966 
L 312.062889 298.365692 
L 312.398307 306.011841 
L 312.734301 299.143723 
L 313.065182 297.49102 
L 313.44488 296.506166 
L 313.739344 305.687173 
L 314.069993 304.593859 
L 314.455613 301.43226 
L 314.765978 295.441152 
L 315.079284 299.314196 
L 315.413491 294.570742 
L 315.784517 282.195221 
L 316.123531 287.176142 
L 316.437068 288.292285 
L 316.837743 289.133208 
L 317.100405 289.349375 
L 317.437188 277.5519 
L 317.802889 278.403124 
L 318.280645 276.840318 
L 318.450132 269.589397 
L 318.779282 275.853956 
L 319.116411 278.637079 
L 319.448234 283.668826 
L 319.810281 281.057049 
L 320.128625 283.459503 
L 320.469234 284.226833 
L 320.802575 284.182934 
L 321.295964 283.10603 
L 321.78093 279.345928 
L 321.963146 275.609679 
L 322.343805 272.887074 
L 323.152596 286.440154 
L 323.803589 289.666229 
L 324.071808 289.666229 
L 324.211628 282.354717 
L 324.641566 271.571397 
L 325.897677 256.996019 
L 326.182181 256.00631 
L 326.515907 261.744239 
L 326.852671 265.555033 
L 327.526486 278.342515 
L 327.86475 279.467049 
L 328.342141 275.881681 
L 328.868927 293.719725 
L 329.556702 290.175909 
L 329.878276 279.575015 
L 330.212309 274.284253 
L 330.606024 280.987452 
L 330.890567 277.015655 
L 331.338348 278.66036 
L 331.712701 276.15104 
L 331.926891 268.887078 
L 332.287401 263.862957 
L 332.582691 264.056985 
L 332.931741 259.611316 
L 333.323379 252.147147 
L 333.628918 241.053457 
L 334.025959 249.957337 
L 334.279757 251.477965 
L 334.720155 247.823762 
L 334.946555 251.714309 
L 335.27632 247.425303 
L 335.59228 256.895428 
L 336.720818 242.537761 
L 337.059005 242.463141 
L 337.395173 240.917641 
L 337.732244 246.494484 
L 338.069123 241.53388 
L 338.404541 250.261612 
L 338.74067 247.725094 
L 339.076549 250.643306 
L 339.441712 260.322922 
L 339.766804 261.561184 
L 340.085918 259.902971 
L 340.420336 260.470498 
L 341.090825 278.943893 
L 341.429146 283.446299 
L 341.76416 263.447148 
L 342.103212 262.892954 
L 342.440379 259.416857 
L 342.792948 259.340641 
L 343.107485 254.442765 
L 343.476089 258.776961 
L 343.77884 257.979242 
L 344.114815 259.660895 
L 344.45329 257.219066 
L 344.789131 256.764551 
L 345.459505 253.489017 
L 345.796173 256.851125 
L 346.469739 248.241476 
L 346.807617 254.900502 
L 347.143401 249.322289 
L 347.559938 254.463217 
L 347.818428 255.096197 
L 348.152423 265.579975 
L 349.281326 259.15312 
L 349.526242 254.676896 
L 349.704862 259.785811 
L 350.568873 246.438133 
L 350.666547 246.438133 
L 350.8354 233.294162 
L 351.171914 235.935882 
L 351.5121 234.93045 
L 351.849171 248.67499 
L 352.401241 262.208446 
L 352.531505 271.11075 
L 353.566887 260.607699 
L 353.914072 264.31448 
L 354.387579 242.391586 
L 354.576909 244.769504 
L 354.913365 262.102626 
L 355.389064 252.630523 
L 355.756765 238.683445 
L 356.257248 246.83429 
L 356.768652 244.11649 
L 357.495438 236.015635 
L 357.676539 239.740072 
L 357.959024 238.507494 
L 358.273734 247.107132 
L 358.609518 248.143239 
L 358.974622 250.098588 
L 359.454051 246.840529 
L 359.619174 259.209913 
L 360.099853 261.252758 
L 360.289375 256.626562 
L 360.682167 255.377498 
L 361.029486 261.42193 
L 361.478768 266.600809 
L 361.77477 264.904611 
L 361.99071 269.879653 
L 362.691405 250.536186 
L 362.978928 252.286003 
L 363.314 243.488509 
L 363.65036 247.972612 
L 363.988566 242.824642 
L 364.321638 248.035717 
L 364.658228 240.336517 
L 365.199761 235.861458 
L 365.470211 238.854322 
L 365.712127 243.624515 
L 366.005072 241.453498 
L 366.381347 240.532501 
L 366.674638 243.817035 
L 367.087465 246.075658 
L 367.3498 246.330797 
L 367.685179 240.934443 
L 368.018982 242.933555 
L 368.367167 247.838302 
L 369.446907 242.509788 
L 369.860387 254.177598 
L 370.206706 254.699067 
L 370.45689 260.438826 
L 371.579641 252.738403 
L 371.934286 258.209547 
L 372.232364 259.101414 
L 372.472742 254.390578 
L 372.812313 255.946412 
L 373.156556 259.010547 
L 373.48263 274.566882 
L 374.152504 251.020343 
L 374.489864 265.110967 
L 374.824897 270.249982 
L 375.17189 277.966969 
L 375.498636 280.571943 
L 375.837534 280.527128 
L 376.290622 274.057023 
L 376.551573 273.464474 
L 376.845825 267.866643 
L 377.178321 272.293399 
L 377.513027 265.873387 
L 377.849656 267.755406 
L 378.186112 271.905735 
L 378.526779 273.937943 
L 379.21142 289.845459 
L 379.534071 287.193562 
L 379.870623 286.388129 
L 380.537786 267.535825 
L 380.873416 264.402557 
L 381.2236 267.556254 
L 381.616276 269.695515 
L 381.882303 269.624082 
L 382.219105 265.753972 
L 382.554292 268.041589 
L 382.89221 273.988089 
L 383.225128 265.612994 
L 383.640069 265.477848 
L 383.898598 247.25093 
L 384.235458 253.127019 
L 384.570106 253.842586 
L 385.241653 266.338317 
L 385.609546 255.620038 
L 385.991878 262.509297 
L 386.502282 260.924625 
L 386.801399 263.125647 
L 386.928106 263.125647 
L 387.262236 258.760334 
L 387.597711 277.350838 
L 387.932764 273.593583 
L 388.304348 272.342594 
L 388.612944 290.383804 
L 388.978837 287.986681 
L 389.273512 284.879471 
L 389.609603 295.666023 
L 390.709473 285.342271 
L 391.103284 284.886081 
L 391.783579 292.042017 
L 391.962507 289.477555 
L 392.29856 290.268984 
L 392.63392 286.044658 
L 392.979355 299.525332 
L 393.311062 302.177756 
L 393.642653 296.641828 
L 393.97859 294.291805 
L 394.315681 294.031848 
L 394.650541 292.118826 
L 395.006359 291.627288 
L 395.336912 281.457909 
L 395.738222 285.075133 
L 396.354068 282.459148 
L 396.670277 281.458337 
L 397.002869 286.09509 
L 397.339037 289.105218 
L 397.674512 291.08338 
L 398.011526 280.579584 
L 399.017952 295.937583 
L 399.354235 310.50679 
L 400.026186 305.835724 
L 400.362584 302.701554 
L 400.701521 296.823856 
L 401.038188 298.870001 
L 401.370357 297.818038 
L 401.707793 295.221332 
L 402.045999 297.828975 
L 402.378629 286.967973 
L 402.722488 288.773356 
L 403.132911 297.480254 
L 403.386555 295.509697 
L 403.7233 295.700934 
L 404.062428 287.652373 
L 404.471582 284.426421 
L 404.75303 290.086482 
L 405.128921 282.357168 
L 405.638709 283.830608 
L 406.150498 273.638738 
L 406.56815 293.008391 
L 406.846214 289.762392 
L 407.176959 281.222778 
L 407.591343 290.593427 
L 407.888441 294.545019 
L 408.470639 286.536886 
L 408.808422 287.814172 
L 409.144436 284.785037 
L 409.484795 291.37808 
L 409.819771 282.526583 
L 410.15267 292.994675 
L 410.488645 291.795999 
L 410.831389 283.080925 
L 411.182361 286.664851 
L 411.504724 280.28189 
L 411.833201 290.428475 
L 412.195133 290.801343 
L 412.504805 288.483559 
L 412.844395 295.177102 
L 413.515346 289.487614 
L 413.85609 288.69054 
L 414.211139 290.803792 
L 414.64898 290.93373 
L 415.200069 283.064886 
L 415.705628 281.569552 
L 416.202611 285.659909 
L 416.55143 282.559026 
L 417.212114 291.248895 
L 417.679065 291.581755 
L 417.890294 291.45489 
L 418.224386 288.58008 
L 418.742711 289.600388 
L 419.227044 294.350563 
L 419.684304 288.267877 
L 419.858156 288.423968 
L 420.152754 282.695293 
L 420.762063 254.778613 
L 420.91415 255.834242 
L 421.242319 266.131095 
L 421.490388 265.510256 
L 421.581332 267.067823 
L 422.018596 261.774653 
L 422.256552 264.112627 
L 422.589066 279.54564 
L 422.989145 270.663033 
L 423.265439 269.297211 
L 423.596993 278.398348 
L 423.932853 283.209263 
L 424.33993 281.286447 
L 424.694863 283.638318 
L 424.968081 280.262184 
L 425.285637 274.276376 
L 425.755357 281.583629 
L 426.128364 274.684956 
L 426.62081 269.350162 
L 426.957708 277.545961 
L 427.294798 263.158307 
L 427.62889 262.831992 
L 427.968018 259.285778 
L 428.30284 260.460727 
L 428.641853 268.571021 
L 429.014899 262.068642 
L 429.981486 268.684228 
L 430.317347 264.527911 
L 430.991028 260.002145 
L 431.340001 264.481839 
L 431.667708 271.330052 
L 432.074632 269.646055 
L 432.341159 269.248341 
L 432.806418 261.236618 
L 433.12505 265.223389 
L 433.366928 259.151326 
L 433.68756 256.658138 
L 434.022843 260.510804 
L 434.354204 268.893233 
L 434.68545 265.144552 
L 435.02154 270.613169 
L 435.737137 250.799486 
L 436.199589 248.920932 
L 436.551292 249.395126 
L 436.835854 249.395126 
L 436.88023 247.948035 
L 437.709805 263.340287 
L 438.047665 261.265417 
L 438.382717 262.384971 
L 438.717462 260.018077 
L 439.209216 259.000539 
L 439.408525 263.085358 
L 439.726427 263.187481 
L 440.064902 263.55197 
L 440.397339 254.990998 
L 440.73443 254.114251 
L 441.073943 258.460484 
L 441.446488 257.035951 
L 441.741818 267.099621 
L 442.307481 262.01225 
L 442.424805 269.136117 
L 442.910444 257.121176 
L 443.58751 255.641452 
L 443.72683 257.95198 
L 443.968823 248.848626 
L 444.115372 251.179732 
L 444.430159 244.847346 
L 444.765827 250.062054 
L 445.244199 245.172991 
L 445.437816 239.597451 
L 445.774099 242.811142 
L 446.255163 242.718037 
L 446.447742 237.865013 
L 446.782141 241.868446 
L 447.119039 240.321149 
L 447.544767 251.478011 
L 448.168496 254.880373 
L 448.510393 260.579363 
L 449.206686 258.362112 
L 449.618301 260.080796 
L 450.219688 252.10693 
L 450.892062 260.874391 
L 451.427269 263.425567 
L 451.595353 262.362786 
L 451.978742 264.481731 
L 452.240347 268.12169 
L 452.576976 263.451135 
L 452.907722 254.589992 
L 453.430431 253.537194 
L 453.590555 254.981717 
L 453.920185 248.597474 
L 454.24947 239.183696 
L 454.589983 242.306349 
L 454.982178 248.260222 
L 455.325729 248.009947 
L 455.712426 256.196304 
L 456.612103 258.245109 
L 456.96396 251.660525 
L 457.372691 251.660525 
L 457.950429 242.63561 
L 458.338818 241.823581 
L 458.680638 239.446275 
L 459.068488 233.948108 
L 459.366202 233.948108 
L 459.628191 233.001094 
L 459.964359 232.426687 
L 460.304064 243.548707 
L 460.972785 250.040609 
L 461.33091 249.076027 
L 461.645389 236.907157 
L 462.01805 237.466464 
L 462.31534 236.143087 
L 462.653123 237.481233 
L 463.101308 245.864107 
L 463.841554 247.518794 
L 464.965843 244.532731 
L 465.310624 248.583455 
L 465.66029 257.362279 
L 465.978422 257.513071 
L 466.311936 257.02679 
L 466.983926 238.266616 
L 467.324746 226.763711 
L 467.952244 246.076075 
L 468.37801 248.62312 
L 468.662995 238.60033 
L 468.999932 244.004533 
L 469.336561 233.3089 
L 470.167021 221.819812 
L 471.176523 251.523304 
L 471.520997 244.067303 
L 472.012559 263.968151 
L 472.478087 262.185468 
L 472.620945 258.545408 
L 472.859631 262.203467 
L 473.195991 263.278288 
L 473.869018 250.636288 
L 474.204955 252.375363 
L 474.756544 243.222487 
L 475.081483 241.473806 
L 475.768469 241.742945 
L 476.213116 262.218847 
L 476.698141 259.859381 
L 477.044768 259.3339 
L 477.390819 252.533825 
L 478.177171 268.319525 
L 479.082116 274.784682 
L 479.44301 267.693052 
L 479.783562 267.819997 
L 480.113461 257.658596 
L 480.60733 260.534114 
L 480.774376 257.93972 
L 481.137346 263.973923 
L 481.537886 258.60305 
L 481.943772 263.857711 
L 482.209991 261.310505 
L 482.442909 260.938192 
L 482.926972 263.509896 
L 483.140086 260.52658 
L 483.825726 270.053167 
L 484.025304 270.758513 
L 484.252492 269.557159 
L 484.532093 266.1447 
L 484.945093 265.35522 
L 485.187624 274.164655 
L 485.505911 272.057864 
L 485.806623 275.509682 
L 486.285111 277.335365 
L 486.713453 287.6901 
L 486.892574 287.6901 
L 487.146641 285.042596 
L 487.51338 290.521037 
L 487.890386 289.325789 
L 488.412404 307.486701 
L 488.921808 311.403936 
L 489.163647 312.478828 
L 489.833829 299.831766 
L 490.170112 296.090676 
L 490.730199 291.929257 
L 491.025913 288.072937 
L 491.639759 295.741726 
L 492.177658 282.213106 
L 492.828344 285.931283 
L 493.193045 292.103582 
L 493.674647 281.582476 
L 494.184205 287.186358 
L 494.345944 283.229025 
L 494.861232 285.395534 
L 495.343218 288.900782 
L 495.387364 286.96215 
L 495.534451 289.100594 
L 495.885347 285.435051 
L 496.251048 285.512161 
L 496.542185 292.419311 
L 497.246207 278.933617 
L 497.571569 278.47691 
L 497.944422 275.677283 
L 498.396722 273.608899 
L 498.882285 270.104617 
L 499.30409 257.700851 
L 499.575078 258.56897 
L 499.89471 264.589312 
L 500.23853 263.59324 
L 500.578735 256.459548 
L 500.914595 252.455464 
L 501.24438 256.028985 
L 501.628231 252.476295 
L 502.194701 257.195163 
L 502.452768 256.310854 
L 502.861461 257.6107 
L 503.285343 262.648823 
L 503.564598 261.041891 
L 504.079309 263.745651 
L 504.483579 256.753864 
L 504.823823 263.808411 
L 505.439631 267.94724 
L 505.788796 274.583163 
L 506.323696 282.583892 
L 506.628677 272.656339 
L 507.078169 275.142111 
L 507.470442 270.573886 
L 507.7765 271.296501 
L 508.201689 267.366463 
L 508.781503 268.007401 
L 509.325555 260.474732 
L 510.276107 268.388878 
L 510.475301 268.864349 
L 511.24208 283.892435 
L 511.359904 284.735294 
L 511.682382 290.261967 
L 512.015166 286.088204 
L 512.381251 287.509222 
L 512.688155 274.748903 
L 513.106345 274.748903 
L 513.393868 272.188122 
L 513.751994 275.259303 
L 514.054898 275.099968 
L 514.757189 264.037216 
L 515.066824 270.757819 
L 515.422911 268.697563 
L 515.90582 284.051155 
L 516.119011 284.051155 
L 516.384884 278.434478 
L 516.76712 278.836062 
L 517.119246 267.987234 
L 517.406231 267.942455 
L 517.814462 259.245501 
L 518.401467 275.127851 
L 518.738711 274.904373 
L 519.118871 264.489032 
L 519.408124 263.850579 
L 519.745868 264.687267 
L 520.095418 261.316066 
L 520.416935 253.163535 
L 520.778444 262.011963 
L 521.112304 257.425952 
L 521.43732 255.239929 
L 521.766105 255.266285 
L 522.101311 258.274337 
L 522.789682 256.796928 
L 523.244712 258.719157 
L 523.830948 265.879585 
L 524.113626 263.674804 
L 525.009342 260.998984 
L 525.42188 255.233696 
L 525.714402 258.904677 
L 526.043917 253.295874 
L 526.282257 255.938291 
L 526.504215 255.819221 
L 526.867647 262.578004 
L 527.164514 263.151293 
L 527.682571 258.328529 
L 528.171133 270.068652 
L 528.849121 267.96523 
L 529.293499 264.675214 
L 529.604826 260.221577 
L 529.868315 249.686739 
L 530.196215 256.425401 
L 530.809792 259.696075 
L 531.162149 264.590855 
L 531.475359 259.136755 
L 531.637406 262.459223 
L 531.999838 260.15415 
L 532.238831 259.824526 
L 533.020646 262.361112 
L 533.122665 270.705702 
L 533.855643 265.149989 
L 534.352281 264.597857 
L 535.033884 246.92275 
L 535.702297 248.262201 
L 536.136061 253.760098 
L 536.370825 258.607526 
L 536.708223 258.607526 
L 537.04366 262.470344 
L 537.457852 254.333701 
L 537.71888 260.256067 
L 538.054163 264.227739 
L 538.723768 249.38212 
L 539.058628 260.710278 
L 539.417215 255.520585 
L 539.731117 265.097759 
L 540.140925 254.20302 
L 540.404837 255.461159 
L 540.738582 260.535194 
L 541.077826 269.612355 
L 541.411648 270.867483 
L 541.747431 260.138577 
L 542.083637 268.264548 
L 542.771854 275.579443 
L 543.180201 276.345712 
L 543.427039 277.297113 
L 543.764129 276.63681 
L 544.110564 279.68064 
L 544.43858 274.980414 
L 545.295804 268.868228 
L 545.866312 263.497986 
L 546.597328 259.277221 
L 546.941033 261.670302 
L 547.628673 260.929721 
L 547.95392 263.292019 
L 548.454634 255.075122 
L 548.737773 255.89674 
L 548.882938 255.89674 
L 548.964653 252.517566 
L 549.63595 262.781117 
L 549.970272 260.538982 
L 550.322052 249.615288 
L 550.684215 254.830263 
L 550.969085 268.926584 
L 551.304676 269.658961 
L 551.898295 273.674247 
L 552.182319 281.039005 
L 552.661459 270.197955 
L 552.748751 270.268627 
L 552.99309 276.291449 
L 553.322912 262.226869 
L 553.665732 260.784924 
L 554.000054 263.045651 
L 554.331492 262.150835 
L 554.672505 267.9889 
L 555.002174 266.025106 
L 555.338303 257.948332 
L 555.681546 264.176786 
L 556.010523 262.761668 
L 556.345999 255.755292 
L 556.681782 251.608261 
L 557.022795 255.259029 
L 557.712358 264.343568 
L 558.355122 287.555283 
L 558.97166 289.05732 
L 559.316287 286.134186 
L 559.895486 280.244345 
L 560.140902 276.925977 
L 560.38551 267.738869 
L 560.713948 271.321289 
L 561.053423 276.530288 
L 561.389398 276.237632 
L 561.771134 280.066722 
L 562.071962 274.185029 
L 562.393902 274.128049 
L 562.839126 276.021822 
L 563.255202 280.031134 
L 563.401828 278.934107 
L 563.844899 268.413908 
L 564.231519 274.327544 
L 564.410677 284.297472 
L 564.77134 278.652544 
L 565.719393 280.114899 
L 566.632376 290.775908 
L 566.828839 286.946897 
L 567.428572 303.312211 
L 567.950051 294.567576 
L 567.977354 289.696735 
L 568.297294 283.126013 
L 568.574626 280.726423 
L 569.184935 290.260485 
L 569.517911 292.530755 
L 569.855578 293.842701 
L 570.190131 292.200799 
L 570.52676 291.111386 
L 570.86412 285.426436 
L 571.197519 277.112977 
L 571.677121 274.771553 
L 571.871354 280.72056 
L 572.20879 280.720717 
L 572.54938 283.468935 
L 572.984222 268.321383 
L 573.530312 273.606494 
L 574.108395 273.128004 
L 574.539276 271.175279 
L 574.995229 282.303484 
L 575.349393 279.526713 
L 575.671564 271.756272 
L 576.005347 269.347336 
L 576.347283 269.241771 
L 576.868916 267.707281 
L 577.160707 274.007281 
L 577.683801 276.173867 
L 577.813546 268.917323 
L 578.51926 266.606523 
L 579.755758 273.127379 
L 580.039359 281.068661 
L 580.375988 282.923741 
L 580.716117 275.673316 
L 581.048554 279.674587 
L 581.38403 270.601814 
L 581.720313 278.742647 
L 582.126775 285.77284 
L 582.39484 285.624202 
L 582.72897 286.141563 
L 583.070213 283.124767 
L 583.400267 281.523335 
L 583.737319 283.289642 
L 584.072833 282.800908 
L 584.56128 280.212977 
L 584.929633 282.889321 
L 585.570206 290.41152 
L 585.855114 297.375282 
L 586.03458 294.026781 
L 586.778594 296.083602 
L 587.336105 305.063221 
L 587.453352 303.707662 
L 587.788328 305.901397 
L 588.166141 295.479228 
L 588.797946 289.122891 
L 589.204062 290.378124 
L 589.468512 279.912607 
L 590.202874 268.080381 
L 590.982767 264.581143 
L 591.87706 274.404195 
L 592.004344 274.000876 
L 592.328476 278.270323 
L 592.730938 291.496274 
L 593.013155 288.227357 
L 593.33894 286.095687 
L 593.6728 286.021076 
L 594.009391 288.856334 
L 594.345097 280.548624 
L 594.67988 268.607801 
L 595.018701 263.59244 
L 595.37325 247.334778 
L 595.888115 256.795654 
L 596.115765 269.225335 
L 596.371024 261.396521 
L 597.116923 278.000726 
L 598.318313 275.963719 
L 598.726621 274.385162 
L 599.076132 279.976879 
L 599.40184 274.837992 
L 599.740546 286.243314 
L 600.207804 285.109927 
L 600.871718 284.959219 
L 601.168778 278.410118 
L 601.662185 279.915116 
L 602.359516 284.709998 
L 602.984937 268.218734 
L 603.325181 268.502348 
L 603.674192 274.245237 
L 604.163831 260.988079 
L 604.672928 260.988079 
L 604.776677 260.694463 
L 605.112807 261.680509 
L 605.450397 255.331509 
L 605.786296 256.072159 
L 606.123386 267.531978 
L 606.457708 256.515799 
L 606.792991 250.918429 
L 607.128774 251.995263 
L 607.464788 253.505027 
L 608.119204 255.078993 
L 608.271906 255.078993 
L 608.492903 254.624529 
L 608.81142 251.709852 
L 609.144973 254.623342 
L 609.484178 255.951907 
L 609.817539 250.79451 
L 610.156552 249.194541 
L 610.580896 251.652122 
L 610.826273 246.534089 
L 611.160979 246.047282 
L 611.500608 247.379675 
L 611.832968 252.101686 
L 612.16929 254.78209 
L 612.505381 246.347708 
L 612.842548 255.124867 
L 613.183407 251.813751 
L 613.543301 250.083714 
L 613.891659 259.473621 
L 614.492392 270.165459 
L 614.695777 270.799471 
L 614.949499 276.137962 
L 615.684169 265.091694 
L 616.116472 270.613604 
L 616.286325 269.89361 
L 616.538508 275.120711 
L 618.338401 252.9497 
L 618.691489 254.106118 
L 619.120331 249.793182 
L 619.353749 250.482875 
L 619.875036 255.483881 
L 620.574212 266.093155 
L 621.109727 264.086612 
L 621.319842 253.70812 
L 621.500884 265.320673 
L 622.130689 262.644113 
L 622.353455 264.663778 
L 622.636364 265.615773 
L 622.636364 265.615773 
" clip-path="url(#p2b5abfe066)" style="fill: none; stroke: #008000; stroke-width: 1.5; stroke-linecap: square"/>
   </g>
   <g id="patch_3">
    <path d="M 90 448.56 
L 90 60.48 
" style="fill: none; stroke: #000000; stroke-width: 0.8; stroke-linejoin: miter; stroke-linecap: square"/>
   </g>
   <g id="patch_4">
    <path d="M 648 448.56 
L 648 60.48 
" style="fill: none; stroke: #000000; stroke-width: 0.8; stroke-linejoin: miter; stroke-linecap: square"/>
   </g>
   <g id="patch_5">
    <path d="M 90 448.56 
L 648 448.56 
" style="fill: none; stroke: #000000; stroke-width: 0.8; stroke-linejoin: miter; stroke-linecap: square"/>
   </g>
   <g id="patch_6">
    <path d="M 90 60.48 
L 648 60.48 
" style="fill: none; stroke: #000000; stroke-width: 0.8; stroke-linejoin: miter; stroke-linecap: square"/>
   </g>
   <g id="text_15">
    <!-- RMSE Kalman: 0.068 -->
    <g style="fill: #008000" transform="translate(95.58 83.7648)scale(0.1 -0.1)">
     <defs>
      <path id="DejaVuSans-52" d="M 2841 2188 
Q 3044 2119 3236 1894 
Q 3428 1669 3622 1275 
L 4263 0 
L 3584 0 
L 2988 1197 
Q 2756 1666 2539 1819 
Q 2322 1972 1947 1972 
L 1259 1972 
L 1259 0 
L 628 0 
L 628 4666 
L 2053 4666 
Q 2853 4666 3247 4331 
Q 3641 3997 3641 3322 
Q 3641 2881 3436 2590 
Q 3231 2300 2841 2188 
z
M 1259 4147 
L 1259 2491 
L 2053 2491 
Q 2509 2491 2742 2702 
Q 2975 2913 2975 3322 
Q 2975 3731 2742 3939 
Q 2509 4147 2053 4147 
L 1259 4147 
z
" transform="scale(0.015625)"/>
      <path id="DejaVuSans-4d" d="M 628 4666 
L 1569 4666 
L 2759 1491 
L 3956 4666 
L 4897 4666 
L 4897 0 
L 4281 0 
L 4281 4097 
L 3078 897 
L 2444 897 
L 1241 4097 
L 1241 0 
L 628 0 
L 628 4666 
z
" transform="scale(0.015625)"/>
      <path id="DejaVuSans-53" d="M 3425 4513 
L 3425 3897 
Q 3066 4069 2747 4153 
Q 2428 4238 2131 4238 
Q 1616 4238 1336 4038 
Q 1056 3838 1056 3469 
Q 1056 3159 1242 3001 
Q 1428 2844 1947 2747 
L 2328 2669 
Q 3034 2534 3370 2195 
Q 3706 1856 3706 1288 
Q 3706 609 3251 259 
Q 2797 -91 1919 -91 
Q 1588 -91 1214 -16 
Q 841 59 441 206 
L 441 856 
Q 825 641 1194 531 
Q 1563 422 1919 422 
Q 2459 422 2753 634 
Q 3047 847 3047 1241 
Q 3047 1584 2836 1778 
Q 2625 1972 2144 2069 
L 1759 2144 
Q 1053 2284 737 2584 
Q 422 2884 422 3419 
Q 422 4038 858 4394 
Q 1294 4750 2059 4750 
Q 2388 4750 2728 4690 
Q 3069 4631 3425 4513 
z
" transform="scale(0.015625)"/>
      <path id="DejaVuSans-4b" d="M 628 4666 
L 1259 4666 
L 1259 2694 
L 3353 4666 
L 4166 4666 
L 1850 2491 
L 4331 0 
L 3500 0 
L 1259 2247 
L 1259 0 
L 628 0 
L 628 4666 
z
" transform="scale(0.015625)"/>
      <path id="DejaVuSans-61" d="M 2194 1759 
Q 1497 1759 1228 1600 
Q 959 1441 959 1056 
Q 959 750 1161 570 
Q 1363 391 1709 391 
Q 2188 391 2477 730 
Q 2766 1069 2766 1631 
L 2766 1759 
L 2194 1759 
z
M 3341 1997 
L 3341 0 
L 2766 0 
L 2766 531 
Q 2569 213 2275 61 
Q 1981 -91 1556 -91 
Q 1019 -91 701 211 
Q 384 513 384 1019 
Q 384 1609 779 1909 
Q 1175 2209 1959 2209 
L 2766 2209 
L 2766 2266 
Q 2766 2663 2505 2880 
Q 2244 3097 1772 3097 
Q 1472 3097 1187 3025 
Q 903 2953 641 2809 
L 641 3341 
Q 956 3463 1253 3523 
Q 1550 3584 1831 3584 
Q 2591 3584 2966 3190 
Q 3341 2797 3341 1997 
z
" transform="scale(0.015625)"/>
      <path id="DejaVuSans-6c" d="M 603 4863 
L 1178 4863 
L 1178 0 
L 603 0 
L 603 4863 
z
" transform="scale(0.015625)"/>
      <path id="DejaVuSans-6e" d="M 3513 2113 
L 3513 0 
L 2938 0 
L 2938 2094 
Q 2938 2591 2744 2837 
Q 2550 3084 2163 3084 
Q 1697 3084 1428 2787 
Q 1159 2491 1159 1978 
L 1159 0 
L 581 0 
L 581 3500 
L 1159 3500 
L 1159 2956 
Q 1366 3272 1645 3428 
Q 1925 3584 2291 3584 
Q 2894 3584 3203 3211 
Q 3513 2838 3513 2113 
z
" transform="scale(0.015625)"/>
      <path id="DejaVuSans-3a" d="M 750 794 
L 1409 794 
L 1409 0 
L 750 0 
L 750 794 
z
M 750 3309 
L 1409 3309 
L 1409 2516 
L 750 2516 
L 750 3309 
z
" transform="scale(0.015625)"/>
      <path id="DejaVuSans-38" d="M 2034 2216 
Q 1584 2216 1326 1975 
Q 1069 1734 1069 1313 
Q 1069 891 1326 650 
Q 1584 409 2034 409 
Q 2484 409 2743 651 
Q 3003 894 3003 1313 
Q 3003 1734 2745 1975 
Q 2488 2216 2034 2216 
z
M 1403 2484 
Q 997 2584 770 2862 
Q 544 3141 544 3541 
Q 544 4100 942 4425 
Q 1341 4750 2034 4750 
Q 2731 4750 3128 4425 
Q 3525 4100 3525 3541 
Q 3525 3141 3298 2862 
Q 3072 2584 2669 2484 
Q 3125 2378 3379 2068 
Q 3634 1759 3634 1313 
Q 3634 634 3220 271 
Q 2806 -91 2034 -91 
Q 1263 -91 848 271 
Q 434 634 434 1313 
Q 434 1759 690 2068 
Q 947 2378 1403 2484 
z
M 1172 3481 
Q 1172 3119 1398 2916 
Q 1625 2713 2034 2713 
Q 2441 2713 2670 2916 
Q 2900 3119 2900 3481 
Q 2900 3844 2670 4047 
Q 2441 4250 2034 4250 
Q 1625 4250 1398 4047 
Q 1172 3844 1172 3481 
z
" transform="scale(0.015625)"/>
     </defs>
     <use xlink:href="#DejaVuSans-52"/>
     <use xlink:href="#DejaVuSans-4d" x="69.482422"/>
     <use xlink:href="#DejaVuSans-53" x="155.761719"/>
     <use xlink:href="#DejaVuSans-45" x="219.238281"/>
     <use xlink:href="#DejaVuSans-20" x="282.421875"/>
     <use xlink:href="#DejaVuSans-4b" x="314.208984"/>
     <use xlink:href="#DejaVuSans-61" x="378.035156"/>
     <use xlink:href="#DejaVuSans-6c" x="439.314453"/>
     <use xlink:href="#DejaVuSans-6d" x="467.097656"/>
     <use xlink:href="#DejaVuSans-61" x="564.509766"/>
     <use xlink:href="#DejaVuSans-6e" x="625.789062"/>
     <use xlink:href="#DejaVuSans-3a" x="689.167969"/>
     <use xlink:href="#DejaVuSans-20" x="722.859375"/>
     <use xlink:href="#DejaVuSans-30" x="754.646484"/>
     <use xlink:href="#DejaVuSans-2e" x="818.269531"/>
     <use xlink:href="#DejaVuSans-30" x="850.056641"/>
     <use xlink:href="#DejaVuSans-36" x="913.679688"/>
     <use xlink:href="#DejaVuSans-38" x="977.302734"/>
    </g>
   </g>
   <g id="text_16">
    <!-- RMSE Gaussian: 0.198 -->
    <g style="fill: #ff0000" transform="translate(95.58 72.1224)scale(0.1 -0.1)">
     <defs>
      <path id="DejaVuSans-47" d="M 3809 666 
L 3809 1919 
L 2778 1919 
L 2778 2438 
L 4434 2438 
L 4434 434 
Q 4069 175 3628 42 
Q 3188 -91 2688 -91 
Q 1594 -91 976 548 
Q 359 1188 359 2328 
Q 359 3472 976 4111 
Q 1594 4750 2688 4750 
Q 3144 4750 3555 4637 
Q 3966 4525 4313 4306 
L 4313 3634 
Q 3963 3931 3569 4081 
Q 3175 4231 2741 4231 
Q 1884 4231 1454 3753 
Q 1025 3275 1025 2328 
Q 1025 1384 1454 906 
Q 1884 428 2741 428 
Q 3075 428 3337 486 
Q 3600 544 3809 666 
z
" transform="scale(0.015625)"/>
      <path id="DejaVuSans-75" d="M 544 1381 
L 544 3500 
L 1119 3500 
L 1119 1403 
Q 1119 906 1312 657 
Q 1506 409 1894 409 
Q 2359 409 2629 706 
Q 2900 1003 2900 1516 
L 2900 3500 
L 3475 3500 
L 3475 0 
L 2900 0 
L 2900 538 
Q 2691 219 2414 64 
Q 2138 -91 1772 -91 
Q 1169 -91 856 284 
Q 544 659 544 1381 
z
M 1991 3584 
L 1991 3584 
z
" transform="scale(0.015625)"/>
      <path id="DejaVuSans-39" d="M 703 97 
L 703 672 
Q 941 559 1184 500 
Q 1428 441 1663 441 
Q 2288 441 2617 861 
Q 2947 1281 2994 2138 
Q 2813 1869 2534 1725 
Q 2256 1581 1919 1581 
Q 1219 1581 811 2004 
Q 403 2428 403 3163 
Q 403 3881 828 4315 
Q 1253 4750 1959 4750 
Q 2769 4750 3195 4129 
Q 3622 3509 3622 2328 
Q 3622 1225 3098 567 
Q 2575 -91 1691 -91 
Q 1453 -91 1209 -44 
Q 966 3 703 97 
z
M 1959 2075 
Q 2384 2075 2632 2365 
Q 2881 2656 2881 3163 
Q 2881 3666 2632 3958 
Q 2384 4250 1959 4250 
Q 1534 4250 1286 3958 
Q 1038 3666 1038 3163 
Q 1038 2656 1286 2365 
Q 1534 2075 1959 2075 
z
" transform="scale(0.015625)"/>
     </defs>
     <use xlink:href="#DejaVuSans-52"/>
     <use xlink:href="#DejaVuSans-4d" x="69.482422"/>
     <use xlink:href="#DejaVuSans-53" x="155.761719"/>
     <use xlink:href="#DejaVuSans-45" x="219.238281"/>
     <use xlink:href="#DejaVuSans-20" x="282.421875"/>
     <use xlink:href="#DejaVuSans-47" x="314.208984"/>
     <use xlink:href="#DejaVuSans-61" x="391.699219"/>
     <use xlink:href="#DejaVuSans-75" x="452.978516"/>
     <use xlink:href="#DejaVuSans-73" x="516.357422"/>
     <use xlink:href="#DejaVuSans-73" x="568.457031"/>
     <use xlink:href="#DejaVuSans-69" x="620.556641"/>
     <use xlink:href="#DejaVuSans-61" x="648.339844"/>
     <use xlink:href="#DejaVuSans-6e" x="709.619141"/>
     <use xlink:href="#DejaVuSans-3a" x="772.998047"/>
     <use xlink:href="#DejaVuSans-20" x="806.689453"/>
     <use xlink:href="#DejaVuSans-30" x="838.476562"/>
     <use xlink:href="#DejaVuSans-2e" x="902.099609"/>
     <use xlink:href="#DejaVuSans-31" x="933.886719"/>
     <use xlink:href="#DejaVuSans-39" x="997.509766"/>
     <use xlink:href="#DejaVuSans-38" x="1061.132812"/>
    </g>
   </g>
   <g id="legend_1">
    <g id="patch_7">
     <path d="M 526.289062 97.83625 
L 641 97.83625 
Q 643 97.83625 643 95.83625 
L 643 67.48 
Q 643 65.48 641 65.48 
L 526.289062 65.48 
Q 524.289062 65.48 524.289062 67.48 
L 524.289062 95.83625 
Q 524.289062 97.83625 526.289062 97.83625 
z
" style="fill: #ffffff; opacity: 0.8; stroke: #cccccc; stroke-linejoin: miter"/>
    </g>
    <g id="line2d_27">
     <path d="M 528.289062 73.578438 
L 538.289062 73.578438 
L 548.289062 73.578438 
" style="fill: none; stroke-dasharray: 9.6,2.4,1.5,2.4; stroke-dashoffset: 0; stroke: #ff0000; stroke-width: 1.5"/>
    </g>
    <g id="text_17">
     <!-- Gaussian Error Y -->
     <g transform="translate(556.289062 77.078438)scale(0.1 -0.1)">
      <use xlink:href="#DejaVuSans-47"/>
      <use xlink:href="#DejaVuSans-61" x="77.490234"/>
      <use xlink:href="#DejaVuSans-75" x="138.769531"/>
      <use xlink:href="#DejaVuSans-73" x="202.148438"/>
      <use xlink:href="#DejaVuSans-73" x="254.248047"/>
      <use xlink:href="#DejaVuSans-69" x="306.347656"/>
      <use xlink:href="#DejaVuSans-61" x="334.130859"/>
      <use xlink:href="#DejaVuSans-6e" x="395.410156"/>
      <use xlink:href="#DejaVuSans-20" x="458.789062"/>
      <use xlink:href="#DejaVuSans-45" x="490.576172"/>
      <use xlink:href="#DejaVuSans-72" x="553.759766"/>
      <use xlink:href="#DejaVuSans-72" x="593.123047"/>
      <use xlink:href="#DejaVuSans-6f" x="631.986328"/>
      <use xlink:href="#DejaVuSans-72" x="693.167969"/>
      <use xlink:href="#DejaVuSans-20" x="734.28125"/>
      <use xlink:href="#DejaVuSans-59" x="766.068359"/>
     </g>
    </g>
    <g id="line2d_28">
     <path d="M 528.289062 88.256563 
L 538.289062 88.256563 
L 548.289062 88.256563 
" style="fill: none; stroke: #008000; stroke-width: 1.5; stroke-linecap: square"/>
    </g>
    <g id="text_18">
     <!-- Kalman Error Y -->
     <g transform="translate(556.289062 91.756563)scale(0.1 -0.1)">
      <use xlink:href="#DejaVuSans-4b"/>
      <use xlink:href="#DejaVuSans-61" x="63.826172"/>
      <use xlink:href="#DejaVuSans-6c" x="125.105469"/>
      <use xlink:href="#DejaVuSans-6d" x="152.888672"/>
      <use xlink:href="#DejaVuSans-61" x="250.300781"/>
      <use xlink:href="#DejaVuSans-6e" x="311.580078"/>
      <use xlink:href="#DejaVuSans-20" x="374.958984"/>
      <use xlink:href="#DejaVuSans-45" x="406.746094"/>
      <use xlink:href="#DejaVuSans-72" x="469.929688"/>
      <use xlink:href="#DejaVuSans-72" x="509.292969"/>
      <use xlink:href="#DejaVuSans-6f" x="548.15625"/>
      <use xlink:href="#DejaVuSans-72" x="609.337891"/>
      <use xlink:href="#DejaVuSans-20" x="650.451172"/>
      <use xlink:href="#DejaVuSans-59" x="682.238281"/>
     </g>
    </g>
   </g>
  </g>
 </g>
 <defs>
  <clipPath id="p2b5abfe066">
   <rect x="90" y="60.48" width="558" height="388.08"/>
  </clipPath>
 </defs>
</svg>
