<?xml version="1.0" encoding="utf-8" standalone="no"?>
<!DOCTYPE svg PUBLIC "-//W3C//DTD SVG 1.1//EN"
  "http://www.w3.org/Graphics/SVG/1.1/DTD/svg11.dtd">
<svg xmlns:xlink="http://www.w3.org/1999/xlink" width="720pt" height="504pt" viewBox="0 0 720 504" xmlns="http://www.w3.org/2000/svg" version="1.1">
 <metadata>
  <rdf:RDF xmlns:dc="http://purl.org/dc/elements/1.1/" xmlns:cc="http://creativecommons.org/ns#" xmlns:rdf="http://www.w3.org/1999/02/22-rdf-syntax-ns#">
   <cc:Work>
    <dc:type rdf:resource="http://purl.org/dc/dcmitype/StillImage"/>
    <dc:date>2024-02-15T17:06:40.805652</dc:date>
    <dc:format>image/svg+xml</dc:format>
    <dc:creator>
     <cc:Agent>
      <dc:title>Matplotlib v3.5.1, https://matplotlib.org/</dc:title>
     </cc:Agent>
    </dc:creator>
   </cc:Work>
  </rdf:RDF>
 </metadata>
 <defs>
  <style type="text/css">*{stroke-linejoin: round; stroke-linecap: butt}</style>
 </defs>
 <g id="figure_1">
  <g id="patch_1">
   <path d="M 0 504 
L 720 504 
L 720 0 
L 0 0 
z
" style="fill: #ffffff"/>
  </g>
  <g id="axes_1">
   <g id="patch_2">
    <path d="M 90 448.56 
L 648 448.56 
L 648 60.48 
L 90 60.48 
z
" style="fill: #ffffff"/>
   </g>
   <g id="matplotlib.axis_1">
    <g id="xtick_1">
     <g id="line2d_1">
      <path d="M 104.466325 448.56 
L 104.466325 60.48 
" clip-path="url(#p8e67bb549a)" style="fill: none; stroke: #b0b0b0; stroke-width: 0.8; stroke-linecap: square"/>
     </g>
     <g id="line2d_2">
      <defs>
       <path id="m56f8aa5c18" d="M 0 0 
L 0 3.5 
" style="stroke: #000000; stroke-width: 0.8"/>
      </defs>
      <g>
       <use xlink:href="#m56f8aa5c18" x="104.466325" y="448.56" style="stroke: #000000; stroke-width: 0.8"/>
      </g>
     </g>
     <g id="text_1">
      <!-- −1.5 -->
      <g transform="translate(92.324918 463.158437)scale(0.1 -0.1)">
       <defs>
        <path id="DejaVuSans-2212" d="M 678 2272 
L 4684 2272 
L 4684 1741 
L 678 1741 
L 678 2272 
z
" transform="scale(0.015625)"/>
        <path id="DejaVuSans-31" d="M 794 531 
L 1825 531 
L 1825 4091 
L 703 3866 
L 703 4441 
L 1819 4666 
L 2450 4666 
L 2450 531 
L 3481 531 
L 3481 0 
L 794 0 
L 794 531 
z
" transform="scale(0.015625)"/>
        <path id="DejaVuSans-2e" d="M 684 794 
L 1344 794 
L 1344 0 
L 684 0 
L 684 794 
z
" transform="scale(0.015625)"/>
        <path id="DejaVuSans-35" d="M 691 4666 
L 3169 4666 
L 3169 4134 
L 1269 4134 
L 1269 2991 
Q 1406 3038 1543 3061 
Q 1681 3084 1819 3084 
Q 2600 3084 3056 2656 
Q 3513 2228 3513 1497 
Q 3513 744 3044 326 
Q 2575 -91 1722 -91 
Q 1428 -91 1123 -41 
Q 819 9 494 109 
L 494 744 
Q 775 591 1075 516 
Q 1375 441 1709 441 
Q 2250 441 2565 725 
Q 2881 1009 2881 1497 
Q 2881 1984 2565 2268 
Q 2250 2553 1709 2553 
Q 1456 2553 1204 2497 
Q 953 2441 691 2322 
L 691 4666 
z
" transform="scale(0.015625)"/>
       </defs>
       <use xlink:href="#DejaVuSans-2212"/>
       <use xlink:href="#DejaVuSans-31" x="83.789062"/>
       <use xlink:href="#DejaVuSans-2e" x="147.412109"/>
       <use xlink:href="#DejaVuSans-35" x="179.199219"/>
      </g>
     </g>
    </g>
    <g id="xtick_2">
     <g id="line2d_3">
      <path d="M 192.670762 448.56 
L 192.670762 60.48 
" clip-path="url(#p8e67bb549a)" style="fill: none; stroke: #b0b0b0; stroke-width: 0.8; stroke-linecap: square"/>
     </g>
     <g id="line2d_4">
      <g>
       <use xlink:href="#m56f8aa5c18" x="192.670762" y="448.56" style="stroke: #000000; stroke-width: 0.8"/>
      </g>
     </g>
     <g id="text_2">
      <!-- −1.0 -->
      <g transform="translate(180.529355 463.158437)scale(0.1 -0.1)">
       <defs>
        <path id="DejaVuSans-30" d="M 2034 4250 
Q 1547 4250 1301 3770 
Q 1056 3291 1056 2328 
Q 1056 1369 1301 889 
Q 1547 409 2034 409 
Q 2525 409 2770 889 
Q 3016 1369 3016 2328 
Q 3016 3291 2770 3770 
Q 2525 4250 2034 4250 
z
M 2034 4750 
Q 2819 4750 3233 4129 
Q 3647 3509 3647 2328 
Q 3647 1150 3233 529 
Q 2819 -91 2034 -91 
Q 1250 -91 836 529 
Q 422 1150 422 2328 
Q 422 3509 836 4129 
Q 1250 4750 2034 4750 
z
" transform="scale(0.015625)"/>
       </defs>
       <use xlink:href="#DejaVuSans-2212"/>
       <use xlink:href="#DejaVuSans-31" x="83.789062"/>
       <use xlink:href="#DejaVuSans-2e" x="147.412109"/>
       <use xlink:href="#DejaVuSans-30" x="179.199219"/>
      </g>
     </g>
    </g>
    <g id="xtick_3">
     <g id="line2d_5">
      <path d="M 280.875199 448.56 
L 280.875199 60.48 
" clip-path="url(#p8e67bb549a)" style="fill: none; stroke: #b0b0b0; stroke-width: 0.8; stroke-linecap: square"/>
     </g>
     <g id="line2d_6">
      <g>
       <use xlink:href="#m56f8aa5c18" x="280.875199" y="448.56" style="stroke: #000000; stroke-width: 0.8"/>
      </g>
     </g>
     <g id="text_3">
      <!-- −0.5 -->
      <g transform="translate(268.733792 463.158437)scale(0.1 -0.1)">
       <use xlink:href="#DejaVuSans-2212"/>
       <use xlink:href="#DejaVuSans-30" x="83.789062"/>
       <use xlink:href="#DejaVuSans-2e" x="147.412109"/>
       <use xlink:href="#DejaVuSans-35" x="179.199219"/>
      </g>
     </g>
    </g>
    <g id="xtick_4">
     <g id="line2d_7">
      <path d="M 369.079636 448.56 
L 369.079636 60.48 
" clip-path="url(#p8e67bb549a)" style="fill: none; stroke: #b0b0b0; stroke-width: 0.8; stroke-linecap: square"/>
     </g>
     <g id="line2d_8">
      <g>
       <use xlink:href="#m56f8aa5c18" x="369.079636" y="448.56" style="stroke: #000000; stroke-width: 0.8"/>
      </g>
     </g>
     <g id="text_4">
      <!-- 0.0 -->
      <g transform="translate(361.128073 463.158437)scale(0.1 -0.1)">
       <use xlink:href="#DejaVuSans-30"/>
       <use xlink:href="#DejaVuSans-2e" x="63.623047"/>
       <use xlink:href="#DejaVuSans-30" x="95.410156"/>
      </g>
     </g>
    </g>
    <g id="xtick_5">
     <g id="line2d_9">
      <path d="M 457.284073 448.56 
L 457.284073 60.48 
" clip-path="url(#p8e67bb549a)" style="fill: none; stroke: #b0b0b0; stroke-width: 0.8; stroke-linecap: square"/>
     </g>
     <g id="line2d_10">
      <g>
       <use xlink:href="#m56f8aa5c18" x="457.284073" y="448.56" style="stroke: #000000; stroke-width: 0.8"/>
      </g>
     </g>
     <g id="text_5">
      <!-- 0.5 -->
      <g transform="translate(449.33251 463.158437)scale(0.1 -0.1)">
       <use xlink:href="#DejaVuSans-30"/>
       <use xlink:href="#DejaVuSans-2e" x="63.623047"/>
       <use xlink:href="#DejaVuSans-35" x="95.410156"/>
      </g>
     </g>
    </g>
    <g id="xtick_6">
     <g id="line2d_11">
      <path d="M 545.48851 448.56 
L 545.48851 60.48 
" clip-path="url(#p8e67bb549a)" style="fill: none; stroke: #b0b0b0; stroke-width: 0.8; stroke-linecap: square"/>
     </g>
     <g id="line2d_12">
      <g>
       <use xlink:href="#m56f8aa5c18" x="545.48851" y="448.56" style="stroke: #000000; stroke-width: 0.8"/>
      </g>
     </g>
     <g id="text_6">
      <!-- 1.0 -->
      <g transform="translate(537.536947 463.158437)scale(0.1 -0.1)">
       <use xlink:href="#DejaVuSans-31"/>
       <use xlink:href="#DejaVuSans-2e" x="63.623047"/>
       <use xlink:href="#DejaVuSans-30" x="95.410156"/>
      </g>
     </g>
    </g>
    <g id="xtick_7">
     <g id="line2d_13">
      <path d="M 633.692947 448.56 
L 633.692947 60.48 
" clip-path="url(#p8e67bb549a)" style="fill: none; stroke: #b0b0b0; stroke-width: 0.8; stroke-linecap: square"/>
     </g>
     <g id="line2d_14">
      <g>
       <use xlink:href="#m56f8aa5c18" x="633.692947" y="448.56" style="stroke: #000000; stroke-width: 0.8"/>
      </g>
     </g>
     <g id="text_7">
      <!-- 1.5 -->
      <g transform="translate(625.741384 463.158437)scale(0.1 -0.1)">
       <use xlink:href="#DejaVuSans-31"/>
       <use xlink:href="#DejaVuSans-2e" x="63.623047"/>
       <use xlink:href="#DejaVuSans-35" x="95.410156"/>
      </g>
     </g>
    </g>
    <g id="text_8">
     <!-- Position (X) -->
     <g transform="translate(340.620313 476.836563)scale(0.1 -0.1)">
      <defs>
       <path id="DejaVuSans-50" d="M 1259 4147 
L 1259 2394 
L 2053 2394 
Q 2494 2394 2734 2622 
Q 2975 2850 2975 3272 
Q 2975 3691 2734 3919 
Q 2494 4147 2053 4147 
L 1259 4147 
z
M 628 4666 
L 2053 4666 
Q 2838 4666 3239 4311 
Q 3641 3956 3641 3272 
Q 3641 2581 3239 2228 
Q 2838 1875 2053 1875 
L 1259 1875 
L 1259 0 
L 628 0 
L 628 4666 
z
" transform="scale(0.015625)"/>
       <path id="DejaVuSans-6f" d="M 1959 3097 
Q 1497 3097 1228 2736 
Q 959 2375 959 1747 
Q 959 1119 1226 758 
Q 1494 397 1959 397 
Q 2419 397 2687 759 
Q 2956 1122 2956 1747 
Q 2956 2369 2687 2733 
Q 2419 3097 1959 3097 
z
M 1959 3584 
Q 2709 3584 3137 3096 
Q 3566 2609 3566 1747 
Q 3566 888 3137 398 
Q 2709 -91 1959 -91 
Q 1206 -91 779 398 
Q 353 888 353 1747 
Q 353 2609 779 3096 
Q 1206 3584 1959 3584 
z
" transform="scale(0.015625)"/>
       <path id="DejaVuSans-73" d="M 2834 3397 
L 2834 2853 
Q 2591 2978 2328 3040 
Q 2066 3103 1784 3103 
Q 1356 3103 1142 2972 
Q 928 2841 928 2578 
Q 928 2378 1081 2264 
Q 1234 2150 1697 2047 
L 1894 2003 
Q 2506 1872 2764 1633 
Q 3022 1394 3022 966 
Q 3022 478 2636 193 
Q 2250 -91 1575 -91 
Q 1294 -91 989 -36 
Q 684 19 347 128 
L 347 722 
Q 666 556 975 473 
Q 1284 391 1588 391 
Q 1994 391 2212 530 
Q 2431 669 2431 922 
Q 2431 1156 2273 1281 
Q 2116 1406 1581 1522 
L 1381 1569 
Q 847 1681 609 1914 
Q 372 2147 372 2553 
Q 372 3047 722 3315 
Q 1072 3584 1716 3584 
Q 2034 3584 2315 3537 
Q 2597 3491 2834 3397 
z
" transform="scale(0.015625)"/>
       <path id="DejaVuSans-69" d="M 603 3500 
L 1178 3500 
L 1178 0 
L 603 0 
L 603 3500 
z
M 603 4863 
L 1178 4863 
L 1178 4134 
L 603 4134 
L 603 4863 
z
" transform="scale(0.015625)"/>
       <path id="DejaVuSans-74" d="M 1172 4494 
L 1172 3500 
L 2356 3500 
L 2356 3053 
L 1172 3053 
L 1172 1153 
Q 1172 725 1289 603 
Q 1406 481 1766 481 
L 2356 481 
L 2356 0 
L 1766 0 
Q 1100 0 847 248 
Q 594 497 594 1153 
L 594 3053 
L 172 3053 
L 172 3500 
L 594 3500 
L 594 4494 
L 1172 4494 
z
" transform="scale(0.015625)"/>
       <path id="DejaVuSans-6e" d="M 3513 2113 
L 3513 0 
L 2938 0 
L 2938 2094 
Q 2938 2591 2744 2837 
Q 2550 3084 2163 3084 
Q 1697 3084 1428 2787 
Q 1159 2491 1159 1978 
L 1159 0 
L 581 0 
L 581 3500 
L 1159 3500 
L 1159 2956 
Q 1366 3272 1645 3428 
Q 1925 3584 2291 3584 
Q 2894 3584 3203 3211 
Q 3513 2838 3513 2113 
z
" transform="scale(0.015625)"/>
       <path id="DejaVuSans-20" transform="scale(0.015625)"/>
       <path id="DejaVuSans-28" d="M 1984 4856 
Q 1566 4138 1362 3434 
Q 1159 2731 1159 2009 
Q 1159 1288 1364 580 
Q 1569 -128 1984 -844 
L 1484 -844 
Q 1016 -109 783 600 
Q 550 1309 550 2009 
Q 550 2706 781 3412 
Q 1013 4119 1484 4856 
L 1984 4856 
z
" transform="scale(0.015625)"/>
       <path id="DejaVuSans-58" d="M 403 4666 
L 1081 4666 
L 2241 2931 
L 3406 4666 
L 4084 4666 
L 2584 2425 
L 4184 0 
L 3506 0 
L 2194 1984 
L 872 0 
L 191 0 
L 1856 2491 
L 403 4666 
z
" transform="scale(0.015625)"/>
       <path id="DejaVuSans-29" d="M 513 4856 
L 1013 4856 
Q 1481 4119 1714 3412 
Q 1947 2706 1947 2009 
Q 1947 1309 1714 600 
Q 1481 -109 1013 -844 
L 513 -844 
Q 928 -128 1133 580 
Q 1338 1288 1338 2009 
Q 1338 2731 1133 3434 
Q 928 4138 513 4856 
z
" transform="scale(0.015625)"/>
      </defs>
      <use xlink:href="#DejaVuSans-50"/>
      <use xlink:href="#DejaVuSans-6f" x="56.677734"/>
      <use xlink:href="#DejaVuSans-73" x="117.859375"/>
      <use xlink:href="#DejaVuSans-69" x="169.958984"/>
      <use xlink:href="#DejaVuSans-74" x="197.742188"/>
      <use xlink:href="#DejaVuSans-69" x="236.951172"/>
      <use xlink:href="#DejaVuSans-6f" x="264.734375"/>
      <use xlink:href="#DejaVuSans-6e" x="325.916016"/>
      <use xlink:href="#DejaVuSans-20" x="389.294922"/>
      <use xlink:href="#DejaVuSans-28" x="421.082031"/>
      <use xlink:href="#DejaVuSans-58" x="460.095703"/>
      <use xlink:href="#DejaVuSans-29" x="528.601562"/>
     </g>
    </g>
   </g>
   <g id="matplotlib.axis_2">
    <g id="ytick_1">
     <g id="line2d_15">
      <path d="M 90 430.920919 
L 648 430.920919 
" clip-path="url(#p8e67bb549a)" style="fill: none; stroke: #b0b0b0; stroke-width: 0.8; stroke-linecap: square"/>
     </g>
     <g id="line2d_16">
      <defs>
       <path id="m3674f6011e" d="M 0 0 
L -3.5 0 
" style="stroke: #000000; stroke-width: 0.8"/>
      </defs>
      <g>
       <use xlink:href="#m3674f6011e" x="90" y="430.920919" style="stroke: #000000; stroke-width: 0.8"/>
      </g>
     </g>
     <g id="text_9">
      <!-- −1.00 -->
      <g transform="translate(52.354687 434.720138)scale(0.1 -0.1)">
       <use xlink:href="#DejaVuSans-2212"/>
       <use xlink:href="#DejaVuSans-31" x="83.789062"/>
       <use xlink:href="#DejaVuSans-2e" x="147.412109"/>
       <use xlink:href="#DejaVuSans-30" x="179.199219"/>
       <use xlink:href="#DejaVuSans-30" x="242.822266"/>
      </g>
     </g>
    </g>
    <g id="ytick_2">
     <g id="line2d_17">
      <path d="M 90 386.818701 
L 648 386.818701 
" clip-path="url(#p8e67bb549a)" style="fill: none; stroke: #b0b0b0; stroke-width: 0.8; stroke-linecap: square"/>
     </g>
     <g id="line2d_18">
      <g>
       <use xlink:href="#m3674f6011e" x="90" y="386.818701" style="stroke: #000000; stroke-width: 0.8"/>
      </g>
     </g>
     <g id="text_10">
      <!-- −0.75 -->
      <g transform="translate(52.354687 390.617919)scale(0.1 -0.1)">
       <defs>
        <path id="DejaVuSans-37" d="M 525 4666 
L 3525 4666 
L 3525 4397 
L 1831 0 
L 1172 0 
L 2766 4134 
L 525 4134 
L 525 4666 
z
" transform="scale(0.015625)"/>
       </defs>
       <use xlink:href="#DejaVuSans-2212"/>
       <use xlink:href="#DejaVuSans-30" x="83.789062"/>
       <use xlink:href="#DejaVuSans-2e" x="147.412109"/>
       <use xlink:href="#DejaVuSans-37" x="179.199219"/>
       <use xlink:href="#DejaVuSans-35" x="242.822266"/>
      </g>
     </g>
    </g>
    <g id="ytick_3">
     <g id="line2d_19">
      <path d="M 90 342.716482 
L 648 342.716482 
" clip-path="url(#p8e67bb549a)" style="fill: none; stroke: #b0b0b0; stroke-width: 0.8; stroke-linecap: square"/>
     </g>
     <g id="line2d_20">
      <g>
       <use xlink:href="#m3674f6011e" x="90" y="342.716482" style="stroke: #000000; stroke-width: 0.8"/>
      </g>
     </g>
     <g id="text_11">
      <!-- −0.50 -->
      <g transform="translate(52.354687 346.515701)scale(0.1 -0.1)">
       <use xlink:href="#DejaVuSans-2212"/>
       <use xlink:href="#DejaVuSans-30" x="83.789062"/>
       <use xlink:href="#DejaVuSans-2e" x="147.412109"/>
       <use xlink:href="#DejaVuSans-35" x="179.199219"/>
       <use xlink:href="#DejaVuSans-30" x="242.822266"/>
      </g>
     </g>
    </g>
    <g id="ytick_4">
     <g id="line2d_21">
      <path d="M 90 298.614264 
L 648 298.614264 
" clip-path="url(#p8e67bb549a)" style="fill: none; stroke: #b0b0b0; stroke-width: 0.8; stroke-linecap: square"/>
     </g>
     <g id="line2d_22">
      <g>
       <use xlink:href="#m3674f6011e" x="90" y="298.614264" style="stroke: #000000; stroke-width: 0.8"/>
      </g>
     </g>
     <g id="text_12">
      <!-- −0.25 -->
      <g transform="translate(52.354687 302.413482)scale(0.1 -0.1)">
       <defs>
        <path id="DejaVuSans-32" d="M 1228 531 
L 3431 531 
L 3431 0 
L 469 0 
L 469 531 
Q 828 903 1448 1529 
Q 2069 2156 2228 2338 
Q 2531 2678 2651 2914 
Q 2772 3150 2772 3378 
Q 2772 3750 2511 3984 
Q 2250 4219 1831 4219 
Q 1534 4219 1204 4116 
Q 875 4013 500 3803 
L 500 4441 
Q 881 4594 1212 4672 
Q 1544 4750 1819 4750 
Q 2544 4750 2975 4387 
Q 3406 4025 3406 3419 
Q 3406 3131 3298 2873 
Q 3191 2616 2906 2266 
Q 2828 2175 2409 1742 
Q 1991 1309 1228 531 
z
" transform="scale(0.015625)"/>
       </defs>
       <use xlink:href="#DejaVuSans-2212"/>
       <use xlink:href="#DejaVuSans-30" x="83.789062"/>
       <use xlink:href="#DejaVuSans-2e" x="147.412109"/>
       <use xlink:href="#DejaVuSans-32" x="179.199219"/>
       <use xlink:href="#DejaVuSans-35" x="242.822266"/>
      </g>
     </g>
    </g>
    <g id="ytick_5">
     <g id="line2d_23">
      <path d="M 90 254.512045 
L 648 254.512045 
" clip-path="url(#p8e67bb549a)" style="fill: none; stroke: #b0b0b0; stroke-width: 0.8; stroke-linecap: square"/>
     </g>
     <g id="line2d_24">
      <g>
       <use xlink:href="#m3674f6011e" x="90" y="254.512045" style="stroke: #000000; stroke-width: 0.8"/>
      </g>
     </g>
     <g id="text_13">
      <!-- 0.00 -->
      <g transform="translate(60.734375 258.311264)scale(0.1 -0.1)">
       <use xlink:href="#DejaVuSans-30"/>
       <use xlink:href="#DejaVuSans-2e" x="63.623047"/>
       <use xlink:href="#DejaVuSans-30" x="95.410156"/>
       <use xlink:href="#DejaVuSans-30" x="159.033203"/>
      </g>
     </g>
    </g>
    <g id="ytick_6">
     <g id="line2d_25">
      <path d="M 90 210.409827 
L 648 210.409827 
" clip-path="url(#p8e67bb549a)" style="fill: none; stroke: #b0b0b0; stroke-width: 0.8; stroke-linecap: square"/>
     </g>
     <g id="line2d_26">
      <g>
       <use xlink:href="#m3674f6011e" x="90" y="210.409827" style="stroke: #000000; stroke-width: 0.8"/>
      </g>
     </g>
     <g id="text_14">
      <!-- 0.25 -->
      <g transform="translate(60.734375 214.209045)scale(0.1 -0.1)">
       <use xlink:href="#DejaVuSans-30"/>
       <use xlink:href="#DejaVuSans-2e" x="63.623047"/>
       <use xlink:href="#DejaVuSans-32" x="95.410156"/>
       <use xlink:href="#DejaVuSans-35" x="159.033203"/>
      </g>
     </g>
    </g>
    <g id="ytick_7">
     <g id="line2d_27">
      <path d="M 90 166.307608 
L 648 166.307608 
" clip-path="url(#p8e67bb549a)" style="fill: none; stroke: #b0b0b0; stroke-width: 0.8; stroke-linecap: square"/>
     </g>
     <g id="line2d_28">
      <g>
       <use xlink:href="#m3674f6011e" x="90" y="166.307608" style="stroke: #000000; stroke-width: 0.8"/>
      </g>
     </g>
     <g id="text_15">
      <!-- 0.50 -->
      <g transform="translate(60.734375 170.106827)scale(0.1 -0.1)">
       <use xlink:href="#DejaVuSans-30"/>
       <use xlink:href="#DejaVuSans-2e" x="63.623047"/>
       <use xlink:href="#DejaVuSans-35" x="95.410156"/>
       <use xlink:href="#DejaVuSans-30" x="159.033203"/>
      </g>
     </g>
    </g>
    <g id="ytick_8">
     <g id="line2d_29">
      <path d="M 90 122.20539 
L 648 122.20539 
" clip-path="url(#p8e67bb549a)" style="fill: none; stroke: #b0b0b0; stroke-width: 0.8; stroke-linecap: square"/>
     </g>
     <g id="line2d_30">
      <g>
       <use xlink:href="#m3674f6011e" x="90" y="122.20539" style="stroke: #000000; stroke-width: 0.8"/>
      </g>
     </g>
     <g id="text_16">
      <!-- 0.75 -->
      <g transform="translate(60.734375 126.004608)scale(0.1 -0.1)">
       <use xlink:href="#DejaVuSans-30"/>
       <use xlink:href="#DejaVuSans-2e" x="63.623047"/>
       <use xlink:href="#DejaVuSans-37" x="95.410156"/>
       <use xlink:href="#DejaVuSans-35" x="159.033203"/>
      </g>
     </g>
    </g>
    <g id="ytick_9">
     <g id="line2d_31">
      <path d="M 90 78.103171 
L 648 78.103171 
" clip-path="url(#p8e67bb549a)" style="fill: none; stroke: #b0b0b0; stroke-width: 0.8; stroke-linecap: square"/>
     </g>
     <g id="line2d_32">
      <g>
       <use xlink:href="#m3674f6011e" x="90" y="78.103171" style="stroke: #000000; stroke-width: 0.8"/>
      </g>
     </g>
     <g id="text_17">
      <!-- 1.00 -->
      <g transform="translate(60.734375 81.90239)scale(0.1 -0.1)">
       <use xlink:href="#DejaVuSans-31"/>
       <use xlink:href="#DejaVuSans-2e" x="63.623047"/>
       <use xlink:href="#DejaVuSans-30" x="95.410156"/>
       <use xlink:href="#DejaVuSans-30" x="159.033203"/>
      </g>
     </g>
    </g>
    <g id="text_18">
     <!-- Position (Y) -->
     <g transform="translate(46.275 282.528594)rotate(-90)scale(0.1 -0.1)">
      <defs>
       <path id="DejaVuSans-59" d="M -13 4666 
L 666 4666 
L 1959 2747 
L 3244 4666 
L 3922 4666 
L 2272 2222 
L 2272 0 
L 1638 0 
L 1638 2222 
L -13 4666 
z
" transform="scale(0.015625)"/>
      </defs>
      <use xlink:href="#DejaVuSans-50"/>
      <use xlink:href="#DejaVuSans-6f" x="56.677734"/>
      <use xlink:href="#DejaVuSans-73" x="117.859375"/>
      <use xlink:href="#DejaVuSans-69" x="169.958984"/>
      <use xlink:href="#DejaVuSans-74" x="197.742188"/>
      <use xlink:href="#DejaVuSans-69" x="236.951172"/>
      <use xlink:href="#DejaVuSans-6f" x="264.734375"/>
      <use xlink:href="#DejaVuSans-6e" x="325.916016"/>
      <use xlink:href="#DejaVuSans-20" x="389.294922"/>
      <use xlink:href="#DejaVuSans-28" x="421.082031"/>
      <use xlink:href="#DejaVuSans-59" x="460.095703"/>
      <use xlink:href="#DejaVuSans-29" x="521.179688"/>
     </g>
    </g>
   </g>
   <g id="line2d_33">
    <path d="M 549.563558 283.815427 
L 550.677957 276.544952 
L 550.909093 273.107729 
L 551.361713 267.829134 
L 551.15249 257.451515 
L 550.669377 252.306892 
L 550.384784 250.019642 
L 548.796252 240.200895 
L 545.984429 228.288975 
L 545.984429 228.288975 
L 543.836973 220.210692 
L 540.012871 207.510242 
L 540.012871 207.510242 
L 538.854888 204.085003 
L 536.223699 197.16532 
L 532.453548 188.88554 
L 528.113884 180.960539 
L 522.035148 172.098696 
L 519.844971 169.285249 
L 516.391588 165.049135 
L 513.520925 161.884342 
L 507.524909 155.704254 
L 500.757349 149.227155 
L 497.990688 146.684721 
L 493.685881 142.994314 
L 486.134444 137.176608 
L 483.00682 134.893048 
L 474.779261 129.522105 
L 470.761213 127.137046 
L 464.149672 123.54817 
L 464.149672 123.54817 
L 458.450215 120.748934 
L 453.322074 118.366609 
L 442.663954 113.785894 
L 432.439889 109.886642 
L 422.677229 106.887372 
L 418.496233 105.727812 
L 407.351346 103.16234 
L 399.015191 101.780192 
L 388.56173 100.658548 
L 377.984715 100.111454 
L 367.206239 100.098247 
L 360.60999 100.448663 
L 354.007389 100.933005 
L 347.328833 101.568477 
L 342.881957 102.155329 
L 334.739836 103.464167 
L 325.206529 105.229327 
L 316.458047 107.223362 
L 303.617929 110.898081 
L 297.339207 112.98229 
L 291.237943 115.201973 
L 291.237943 115.201973 
L 285.259797 117.544373 
L 275.556388 122.077782 
L 273.672453 122.972443 
L 266.323447 126.941229 
L 257.250793 132.312446 
L 257.250793 132.312446 
L 248.667361 138.104307 
L 246.958498 139.282993 
L 242.017199 142.938144 
L 235.630864 148.115174 
L 231.031359 152.193787 
L 225.145422 157.829976 
L 219.614917 163.778928 
L 214.383042 169.958264 
L 211.888903 173.147835 
L 207.225195 179.589931 
L 202.898359 186.183623 
L 200.875682 189.603169 
L 197.051128 196.341834 
L 197.051128 196.341834 
L 192.816181 204.99663 
L 191.347391 208.454901 
L 188.696655 215.551335 
L 187.525266 219.083683 
L 185.087454 228.045274 
L 183.330896 237.025908 
L 182.304421 244.07933 
L 181.776957 254.86096 
L 182.09013 263.561776 
L 183.390346 275.069247 
L 184.518099 280.704094 
L 185.802271 285.689021 
L 188.383378 293.86252 
L 189.002257 295.446005 
L 191.628599 301.731252 
L 194.794086 307.884485 
L 196.448872 310.915351 
L 200.0911 316.882431 
L 202.099488 319.840162 
L 207.454764 326.984839 
L 207.454764 326.984839 
L 209.768543 329.820136 
L 215.790121 336.705514 
L 220.617492 341.549151 
L 222.866763 343.718205 
L 229.901324 350.147966 
L 232.332764 352.236855 
L 239.926502 358.384936 
L 245.748761 362.76913 
L 254.485867 368.653962 
L 259.550461 371.926396 
L 267.720315 376.694211 
L 277.358938 381.896003 
L 281.115724 383.776163 
L 286.762618 386.472039 
L 300.615473 392.211883 
L 306.024748 394.179799 
L 315.021358 397.177271 
L 319.289264 398.471767 
L 330.064635 401.308878 
L 334.49369 402.324827 
L 343.28231 404.056476 
L 347.743487 404.840459 
L 356.664821 406.097828 
L 363.378711 406.872084 
L 374.627895 407.856426 
L 381.374216 408.290477 
L 396.871617 408.351568 
L 405.557232 407.92391 
L 414.075864 407.110255 
L 418.290522 406.627931 
L 428.796646 404.794436 
L 432.900941 403.834646 
L 436.955233 402.725693 
L 443.637875 400.65959 
L 452.077712 397.436912 
L 456.563941 395.512822 
L 464.136056 391.883432 
L 465.974167 390.858493 
L 476.667843 384.392434 
L 483.071948 380.103873 
L 490.339802 374.84304 
L 498.410659 368.441921 
L 504.512327 363.202213 
L 511.76343 356.261107 
L 511.76343 356.261107 
L 515.863451 351.942483 
L 522.005802 344.570387 
L 525.674947 339.542688 
L 528.32928 335.401502 
L 530.162175 332.250141 
L 532.757509 327.557822 
L 536.35078 319.99393 
L 537.494726 317.326086 
L 540.25101 309.638903 
L 541.275812 306.354872 
L 542.998618 299.580473 
L 544.384909 292.528249 
L 544.973769 289.010968 
L 544.973769 289.010968 
" clip-path="url(#p8e67bb549a)" style="fill: none; stroke-dasharray: 12.8,3.2,2,3.2; stroke-dashoffset: 0; stroke: #ff0000; stroke-width: 2"/>
   </g>
   <g id="line2d_34">
    <path d="M 554.631252 287.333971 
L 554.813935 280.141388 
L 554.813935 280.141388 
L 559.213895 278.661016 
L 554.336931 271.658698 
L 547.058151 267.874108 
L 549.91274 256.895356 
L 552.073864 254.745362 
L 555.411135 252.08319 
L 555.411135 252.08319 
L 549.730276 248.129943 
L 545.748189 242.22529 
L 545.017924 238.30106 
L 544.305757 232.711474 
L 543.174741 225.760029 
L 539.064074 211.925683 
L 546.712071 205.935646 
L 538.821813 201.036235 
L 538.292784 183.506916 
L 537.249082 179.238128 
L 537.249082 179.238128 
L 531.891882 175.092426 
L 529.802459 175.971064 
L 530.283436 176.649622 
L 524.340843 172.494199 
L 522.142305 173.666613 
L 515.396739 168.326366 
L 512.924497 160.777632 
L 508.552804 163.392161 
L 505.941007 158.086552 
L 500.381345 149.713365 
L 493.799995 153.600496 
L 490.094167 146.316785 
L 490.094167 146.316785 
L 480.36997 139.686947 
L 482.654057 137.337504 
L 482.654057 137.337504 
L 477.991496 133.361747 
L 476.368906 133.369684 
L 474.98766 132.07654 
L 469.812019 125.113732 
L 471.908358 126.128902 
L 467.800877 128.384639 
L 471.289817 126.172767 
L 466.566413 125.196301 
L 464.944202 124.197607 
L 467.451888 124.906401 
L 467.451888 124.906401 
L 458.312907 131.271332 
L 456.076624 128.778704 
L 450.110896 123.855004 
L 445.77638 122.14031 
L 434.349964 124.020563 
L 431.527731 125.024852 
L 421.035773 121.111639 
L 421.035773 121.111639 
L 407.334383 116.657038 
L 405.988693 115.5422 
L 398.683757 113.511399 
L 393.24663 108.971272 
L 392.422555 108.646121 
L 380.186413 105.993377 
L 374.921718 110.138086 
L 365.712489 104.687307 
L 368.434464 101.513919 
L 367.74604 96.560617 
L 362.308234 91.156394 
L 361.868951 97.79718 
L 354.878263 96.13115 
L 357.728587 99.543485 
L 357.728587 99.543485 
L 339.511383 102.813122 
L 342.477953 102.970375 
L 335.989066 109.328095 
L 318.632368 105.788683 
L 311.068643 107.464026 
L 311.273521 98.000659 
L 311.273521 98.000659 
L 307.235895 95.482078 
L 304.407843 99.594205 
L 293.252568 100.725957 
L 292.969128 111.498429 
L 292.969128 111.498429 
L 294.683652 115.55723 
L 286.072763 115.276304 
L 285.351164 118.138932 
L 286.639531 123.813692 
L 283.162193 127.466669 
L 276.307995 125.912768 
L 265.237733 130.458814 
L 254.797571 122.373932 
L 254.797571 122.373932 
L 253.342976 129.580376 
L 250.3498 131.661285 
L 251.753011 140.111557 
L 241.483944 143.796721 
L 242.263156 152.211526 
L 232.706024 150.217482 
L 223.621519 145.527007 
L 222.802394 148.386036 
L 213.950044 158.2015 
L 204.838142 161.431192 
L 206.212003 163.82596 
L 204.584473 169.078938 
L 197.531295 177.590713 
L 196.667902 174.79184 
L 199.0108 181.055252 
L 200.473733 185.732991 
L 200.793003 188.944896 
L 192.028823 190.215359 
L 180.432339 193.994963 
L 182.115145 197.932198 
L 183.450747 203.382461 
L 186.722168 201.524446 
L 195.44444 203.715868 
L 197.661335 208.715662 
L 194.830859 212.870159 
L 197.276881 221.063875 
L 200.752473 228.460491 
L 196.608245 229.621146 
L 197.510016 237.029626 
L 186.275794 237.876897 
L 183.047734 241.095831 
L 183.432744 251.381782 
L 185.048922 250.709449 
L 182.950204 255.704272 
L 182.529235 261.542499 
L 179.819978 267.925298 
L 178.786105 276.656513 
L 191.4189 280.821175 
L 196.52361 281.455081 
L 198.856569 282.122828 
L 200.542651 287.464819 
L 200.542651 287.464819 
L 199.927436 291.767822 
L 200.250217 300.162258 
L 199.467454 300.045559 
L 200.733562 300.737722 
L 210.222854 309.112153 
L 211.727143 310.984828 
L 214.406007 320.059493 
L 219.826349 328.850301 
L 216.206798 331.448427 
L 216.773127 333.889716 
L 212.850015 334.540512 
L 220.11232 334.100289 
L 220.11232 334.100289 
L 219.131053 334.346476 
L 225.691379 343.923974 
L 228.277964 342.716005 
L 228.277964 342.716005 
L 233.670729 350.766512 
L 237.393745 357.017117 
L 242.423075 354.195623 
L 239.209894 359.332483 
L 245.304342 355.002131 
L 249.417724 366.007976 
L 249.417724 366.007976 
L 252.377036 364.208338 
L 258.118613 360.457943 
L 256.818756 361.667164 
L 257.048568 371.438993 
L 256.464562 369.296652 
L 257.663185 370.339642 
L 260.331057 369.714367 
L 260.542829 371.282692 
L 260.542829 371.282692 
L 266.084386 375.010363 
L 275.245951 374.88689 
L 270.57549 379.917445 
L 278.30858 384.332536 
L 289.77626 389.187009 
L 291.430882 396.04943 
L 293.727062 400.846376 
L 301.321537 402.23985 
L 315.673293 404.030732 
L 319.838837 404.203789 
L 331.621071 410.791973 
L 331.621071 410.791973 
L 344.485739 413.522161 
L 347.926495 411.666329 
L 349.982994 408.374515 
L 349.91721 410.661322 
L 348.031347 418.989363 
L 349.918587 415.745043 
L 359.497727 407.071034 
L 365.477066 407.197671 
L 371.949665 404.873186 
L 371.955095 400.3709 
L 384.483562 407.6597 
L 384.483562 407.6597 
L 391.119875 403.677966 
L 395.956861 413.104135 
L 405.882334 414.007584 
L 407.754773 412.395395 
L 414.317232 412.664405 
L 419.500274 408.382835 
L 422.5222 409.253963 
L 421.227581 414.185215 
L 422.827654 409.651034 
L 422.612241 409.577647 
L 425.633419 413.821637 
L 438.500801 415.641455 
L 435.271702 412.085522 
L 436.040406 406.79479 
L 441.217193 400.707696 
L 452.351167 383.225615 
L 467.466608 379.523797 
L 467.466608 379.523797 
L 472.410025 380.291414 
L 469.549059 381.472426 
L 469.549059 381.472426 
L 471.225384 385.387468 
L 470.766183 380.707155 
L 472.94713 375.206329 
L 482.200159 373.00258 
L 488.062262 367.575151 
L 489.473826 370.246267 
L 493.083589 365.154514 
L 494.855606 359.952643 
L 499.032802 357.265343 
L 490.165392 356.693475 
L 497.077551 356.803686 
L 504.243904 352.839985 
L 509.439366 341.838872 
L 504.45163 338.250371 
L 516.155564 332.242507 
L 522.227115 324.663034 
L 521.97082 317.804263 
L 518.631189 315.678395 
L 519.779768 300.410164 
L 517.892549 306.271384 
L 517.892549 306.271384 
L 525.413288 308.007662 
L 531.417932 306.898087 
L 535.314928 303.169684 
L 535.461608 295.538496 
L 534.408819 290.732783 
L 539.563401 286.411279 
L 539.872497 284.179541 
L 546.027007 281.321654 
L 543.078074 281.667933 
L 554.208956 283.722869 
L 554.208956 283.722869 
" clip-path="url(#p8e67bb549a)" style="fill: none; stroke: #008000; stroke-width: 1.5; stroke-linecap: square"/>
   </g>
   <g id="line2d_35">
    <path d="M 545.473909 256.781668 
L 545.413789 249.378129 
L 545.184346 244.157243 
L 544.703623 237.889595 
L 544.010364 231.723209 
L 542.928429 224.567295 
L 541.516909 217.290041 
L 539.965432 210.715523 
L 537.900503 203.329961 
L 535.950622 197.291726 
L 533.482166 190.544094 
L 531.538561 185.757494 
L 529.817306 181.82441 
L 527.396599 176.692832 
L 522.585373 167.586332 
L 518.489648 160.721112 
L 516.152222 157.096722 
L 512.88501 152.335212 
L 510.432868 148.968904 
L 507.146302 144.704548 
L 501.166038 137.579273 
L 497.643779 133.717377 
L 492.686016 128.648811 
L 489.717388 125.800649 
L 485.906762 122.332192 
L 479.429653 116.878603 
L 472.673334 111.723963 
L 465.911732 107.054811 
L 460.06279 103.375827 
L 453.408377 99.56446 
L 449.125171 97.308982 
L 444.027914 94.815938 
L 435.623792 91.135284 
L 429.447836 88.753874 
L 422.442199 86.367679 
L 419.049721 85.328472 
L 414.028885 83.925833 
L 404.359767 81.667019 
L 397.383121 80.388515 
L 390.329662 79.387726 
L 381.641167 78.550973 
L 376.166142 78.245564 
L 371.51629 78.12 
L 366.496711 78.122081 
L 361.166094 78.280758 
L 354.789288 78.682933 
L 350.739764 79.059089 
L 343.507483 79.966476 
L 339.720755 80.563354 
L 334.283481 81.568937 
L 330.217075 82.437084 
L 320.681092 84.872215 
L 313.266394 87.165181 
L 308.772115 88.731787 
L 300.003071 92.189776 
L 293.034215 95.335461 
L 290.013059 96.814337 
L 281.01702 101.655686 
L 274.996363 105.285946 
L 270.707505 108.077709 
L 263.874492 112.907072 
L 256.242627 118.910053 
L 250.182762 124.19081 
L 244.898527 129.215824 
L 237.797206 136.677353 
L 236.431679 138.216687 
L 230.377103 145.508842 
L 228.562175 147.858709 
L 225.568852 151.921861 
L 220.749645 159.02223 
L 217.471124 164.318086 
L 213.112863 172.083551 
L 211.331308 175.546508 
L 207.738187 183.174624 
L 206.147696 186.88606 
L 203.11399 194.716601 
L 200.547147 202.388239 
L 198.259212 210.461236 
L 196.066471 220.065919 
L 194.689874 227.898105 
L 194.021352 232.724704 
L 193.316619 239.430504 
L 192.84139 246.755018 
L 192.672091 253.827173 
L 192.676741 255.964502 
L 192.989364 265.109555 
L 193.465025 271.233274 
L 194.429317 279.358717 
L 196.355744 290.380528 
L 197.940277 297.307029 
L 200.640722 306.937453 
L 201.773032 310.445858 
L 204.873665 318.982892 
L 206.301664 322.5078 
L 209.223727 329.118877 
L 212.620373 336.00186 
L 217.712904 345.11118 
L 222.108414 352.080231 
L 227.004306 359.08112 
L 229.427464 362.295912 
L 232.860232 366.602923 
L 236.837916 371.269137 
L 239.626705 374.353731 
L 246.138259 381.024925 
L 251.629651 386.138759 
L 254.670821 388.790539 
L 261.763977 394.524331 
L 264.980573 396.932114 
L 271.248796 401.308563 
L 278.249389 405.740207 
L 285.489992 409.859598 
L 289.227292 411.81333 
L 294.135055 414.209887 
L 298.625163 416.24101 
L 304.334463 418.610045 
L 313.434514 421.914886 
L 317.530266 423.221124 
L 323.67157 424.9767 
L 328.54381 426.200535 
L 335.798753 427.753131 
L 344.355669 429.179776 
L 356.468871 430.469595 
L 366.59672 430.903445 
L 371.971415 430.897216 
L 380.410523 430.556647 
L 383.759194 430.309091 
L 392.850441 429.312044 
L 399.280907 428.316458 
L 403.380267 427.554114 
L 408.564846 426.445198 
L 412.73188 425.434754 
L 420.513813 423.256278 
L 429.149457 420.37858 
L 435.94614 417.757141 
L 440.120706 415.984201 
L 447.274148 412.643981 
L 454.671147 408.765681 
L 461.826355 404.572489 
L 465.410184 402.297418 
L 469.58072 399.493502 
L 475.159993 395.462563 
L 479.887168 391.777415 
L 487.323476 385.426082 
L 487.854572 384.944423 
L 495.157784 377.899206 
L 500.024558 372.721682 
L 505.467398 366.39801 
L 510.743954 359.637265 
L 513.493791 355.826617 
L 518.896465 347.65177 
L 519.860981 346.08211 
L 524.955004 337.113258 
L 526.813973 333.505523 
L 530.048302 326.686691 
L 533.677323 317.976147 
L 536.837205 309.078416 
L 538.189993 304.729351 
L 541.037481 293.889579 
L 542.818151 285.090131 
L 543.1271 283.279577 
L 544.286642 275.069177 
L 545.060963 266.786538 
L 545.44581 258.393204 
L 545.488416 254.32986 
L 545.488416 254.32986 
" clip-path="url(#p8e67bb549a)" style="fill: none; stroke-dasharray: 5.55,2.4; stroke-dashoffset: 0; stroke: #0000ff; stroke-width: 1.5"/>
   </g>
   <g id="patch_3">
    <path d="M 90 448.56 
L 90 60.48 
" style="fill: none; stroke: #000000; stroke-width: 0.8; stroke-linejoin: miter; stroke-linecap: square"/>
   </g>
   <g id="patch_4">
    <path d="M 648 448.56 
L 648 60.48 
" style="fill: none; stroke: #000000; stroke-width: 0.8; stroke-linejoin: miter; stroke-linecap: square"/>
   </g>
   <g id="patch_5">
    <path d="M 90 448.56 
L 648 448.56 
" style="fill: none; stroke: #000000; stroke-width: 0.8; stroke-linejoin: miter; stroke-linecap: square"/>
   </g>
   <g id="patch_6">
    <path d="M 90 60.48 
L 648 60.48 
" style="fill: none; stroke: #000000; stroke-width: 0.8; stroke-linejoin: miter; stroke-linecap: square"/>
   </g>
   <g id="legend_1">
    <g id="patch_7">
     <path d="M 561.920313 112.514375 
L 641 112.514375 
Q 643 112.514375 643 110.514375 
L 643 67.48 
Q 643 65.48 641 65.48 
L 561.920313 65.48 
Q 559.920313 65.48 559.920313 67.48 
L 559.920313 110.514375 
Q 559.920313 112.514375 561.920313 112.514375 
z
" style="fill: #ffffff; opacity: 0.8; stroke: #cccccc; stroke-linejoin: miter"/>
    </g>
    <g id="line2d_36">
     <path d="M 563.920313 73.578438 
L 573.920313 73.578438 
L 583.920313 73.578438 
" style="fill: none; stroke-dasharray: 12.8,3.2,2,3.2; stroke-dashoffset: 0; stroke: #ff0000; stroke-width: 2"/>
    </g>
    <g id="text_19">
     <!-- OptiTrack -->
     <g transform="translate(591.920313 77.078438)scale(0.1 -0.1)">
      <defs>
       <path id="DejaVuSans-4f" d="M 2522 4238 
Q 1834 4238 1429 3725 
Q 1025 3213 1025 2328 
Q 1025 1447 1429 934 
Q 1834 422 2522 422 
Q 3209 422 3611 934 
Q 4013 1447 4013 2328 
Q 4013 3213 3611 3725 
Q 3209 4238 2522 4238 
z
M 2522 4750 
Q 3503 4750 4090 4092 
Q 4678 3434 4678 2328 
Q 4678 1225 4090 567 
Q 3503 -91 2522 -91 
Q 1538 -91 948 565 
Q 359 1222 359 2328 
Q 359 3434 948 4092 
Q 1538 4750 2522 4750 
z
" transform="scale(0.015625)"/>
       <path id="DejaVuSans-70" d="M 1159 525 
L 1159 -1331 
L 581 -1331 
L 581 3500 
L 1159 3500 
L 1159 2969 
Q 1341 3281 1617 3432 
Q 1894 3584 2278 3584 
Q 2916 3584 3314 3078 
Q 3713 2572 3713 1747 
Q 3713 922 3314 415 
Q 2916 -91 2278 -91 
Q 1894 -91 1617 61 
Q 1341 213 1159 525 
z
M 3116 1747 
Q 3116 2381 2855 2742 
Q 2594 3103 2138 3103 
Q 1681 3103 1420 2742 
Q 1159 2381 1159 1747 
Q 1159 1113 1420 752 
Q 1681 391 2138 391 
Q 2594 391 2855 752 
Q 3116 1113 3116 1747 
z
" transform="scale(0.015625)"/>
       <path id="DejaVuSans-54" d="M -19 4666 
L 3928 4666 
L 3928 4134 
L 2272 4134 
L 2272 0 
L 1638 0 
L 1638 4134 
L -19 4134 
L -19 4666 
z
" transform="scale(0.015625)"/>
       <path id="DejaVuSans-72" d="M 2631 2963 
Q 2534 3019 2420 3045 
Q 2306 3072 2169 3072 
Q 1681 3072 1420 2755 
Q 1159 2438 1159 1844 
L 1159 0 
L 581 0 
L 581 3500 
L 1159 3500 
L 1159 2956 
Q 1341 3275 1631 3429 
Q 1922 3584 2338 3584 
Q 2397 3584 2469 3576 
Q 2541 3569 2628 3553 
L 2631 2963 
z
" transform="scale(0.015625)"/>
       <path id="DejaVuSans-61" d="M 2194 1759 
Q 1497 1759 1228 1600 
Q 959 1441 959 1056 
Q 959 750 1161 570 
Q 1363 391 1709 391 
Q 2188 391 2477 730 
Q 2766 1069 2766 1631 
L 2766 1759 
L 2194 1759 
z
M 3341 1997 
L 3341 0 
L 2766 0 
L 2766 531 
Q 2569 213 2275 61 
Q 1981 -91 1556 -91 
Q 1019 -91 701 211 
Q 384 513 384 1019 
Q 384 1609 779 1909 
Q 1175 2209 1959 2209 
L 2766 2209 
L 2766 2266 
Q 2766 2663 2505 2880 
Q 2244 3097 1772 3097 
Q 1472 3097 1187 3025 
Q 903 2953 641 2809 
L 641 3341 
Q 956 3463 1253 3523 
Q 1550 3584 1831 3584 
Q 2591 3584 2966 3190 
Q 3341 2797 3341 1997 
z
" transform="scale(0.015625)"/>
       <path id="DejaVuSans-63" d="M 3122 3366 
L 3122 2828 
Q 2878 2963 2633 3030 
Q 2388 3097 2138 3097 
Q 1578 3097 1268 2742 
Q 959 2388 959 1747 
Q 959 1106 1268 751 
Q 1578 397 2138 397 
Q 2388 397 2633 464 
Q 2878 531 3122 666 
L 3122 134 
Q 2881 22 2623 -34 
Q 2366 -91 2075 -91 
Q 1284 -91 818 406 
Q 353 903 353 1747 
Q 353 2603 823 3093 
Q 1294 3584 2113 3584 
Q 2378 3584 2631 3529 
Q 2884 3475 3122 3366 
z
" transform="scale(0.015625)"/>
       <path id="DejaVuSans-6b" d="M 581 4863 
L 1159 4863 
L 1159 1991 
L 2875 3500 
L 3609 3500 
L 1753 1863 
L 3688 0 
L 2938 0 
L 1159 1709 
L 1159 0 
L 581 0 
L 581 4863 
z
" transform="scale(0.015625)"/>
      </defs>
      <use xlink:href="#DejaVuSans-4f"/>
      <use xlink:href="#DejaVuSans-70" x="78.710938"/>
      <use xlink:href="#DejaVuSans-74" x="142.1875"/>
      <use xlink:href="#DejaVuSans-69" x="181.396484"/>
      <use xlink:href="#DejaVuSans-54" x="209.179688"/>
      <use xlink:href="#DejaVuSans-72" x="255.513672"/>
      <use xlink:href="#DejaVuSans-61" x="296.626953"/>
      <use xlink:href="#DejaVuSans-63" x="357.90625"/>
      <use xlink:href="#DejaVuSans-6b" x="412.886719"/>
     </g>
    </g>
    <g id="line2d_37">
     <path d="M 563.920313 88.256563 
L 573.920313 88.256563 
L 583.920313 88.256563 
" style="fill: none; stroke: #008000; stroke-width: 1.5; stroke-linecap: square"/>
    </g>
    <g id="text_20">
     <!-- Kalman -->
     <g transform="translate(591.920313 91.756563)scale(0.1 -0.1)">
      <defs>
       <path id="DejaVuSans-4b" d="M 628 4666 
L 1259 4666 
L 1259 2694 
L 3353 4666 
L 4166 4666 
L 1850 2491 
L 4331 0 
L 3500 0 
L 1259 2247 
L 1259 0 
L 628 0 
L 628 4666 
z
" transform="scale(0.015625)"/>
       <path id="DejaVuSans-6c" d="M 603 4863 
L 1178 4863 
L 1178 0 
L 603 0 
L 603 4863 
z
" transform="scale(0.015625)"/>
       <path id="DejaVuSans-6d" d="M 3328 2828 
Q 3544 3216 3844 3400 
Q 4144 3584 4550 3584 
Q 5097 3584 5394 3201 
Q 5691 2819 5691 2113 
L 5691 0 
L 5113 0 
L 5113 2094 
Q 5113 2597 4934 2840 
Q 4756 3084 4391 3084 
Q 3944 3084 3684 2787 
Q 3425 2491 3425 1978 
L 3425 0 
L 2847 0 
L 2847 2094 
Q 2847 2600 2669 2842 
Q 2491 3084 2119 3084 
Q 1678 3084 1418 2786 
Q 1159 2488 1159 1978 
L 1159 0 
L 581 0 
L 581 3500 
L 1159 3500 
L 1159 2956 
Q 1356 3278 1631 3431 
Q 1906 3584 2284 3584 
Q 2666 3584 2933 3390 
Q 3200 3197 3328 2828 
z
" transform="scale(0.015625)"/>
      </defs>
      <use xlink:href="#DejaVuSans-4b"/>
      <use xlink:href="#DejaVuSans-61" x="63.826172"/>
      <use xlink:href="#DejaVuSans-6c" x="125.105469"/>
      <use xlink:href="#DejaVuSans-6d" x="152.888672"/>
      <use xlink:href="#DejaVuSans-61" x="250.300781"/>
      <use xlink:href="#DejaVuSans-6e" x="311.580078"/>
     </g>
    </g>
    <g id="line2d_38">
     <path d="M 563.920313 102.934687 
L 573.920313 102.934687 
L 583.920313 102.934687 
" style="fill: none; stroke-dasharray: 5.55,2.4; stroke-dashoffset: 0; stroke: #0000ff; stroke-width: 1.5"/>
    </g>
    <g id="text_21">
     <!-- Desired -->
     <g transform="translate(591.920313 106.434687)scale(0.1 -0.1)">
      <defs>
       <path id="DejaVuSans-44" d="M 1259 4147 
L 1259 519 
L 2022 519 
Q 2988 519 3436 956 
Q 3884 1394 3884 2338 
Q 3884 3275 3436 3711 
Q 2988 4147 2022 4147 
L 1259 4147 
z
M 628 4666 
L 1925 4666 
Q 3281 4666 3915 4102 
Q 4550 3538 4550 2338 
Q 4550 1131 3912 565 
Q 3275 0 1925 0 
L 628 0 
L 628 4666 
z
" transform="scale(0.015625)"/>
       <path id="DejaVuSans-65" d="M 3597 1894 
L 3597 1613 
L 953 1613 
Q 991 1019 1311 708 
Q 1631 397 2203 397 
Q 2534 397 2845 478 
Q 3156 559 3463 722 
L 3463 178 
Q 3153 47 2828 -22 
Q 2503 -91 2169 -91 
Q 1331 -91 842 396 
Q 353 884 353 1716 
Q 353 2575 817 3079 
Q 1281 3584 2069 3584 
Q 2775 3584 3186 3129 
Q 3597 2675 3597 1894 
z
M 3022 2063 
Q 3016 2534 2758 2815 
Q 2500 3097 2075 3097 
Q 1594 3097 1305 2825 
Q 1016 2553 972 2059 
L 3022 2063 
z
" transform="scale(0.015625)"/>
       <path id="DejaVuSans-64" d="M 2906 2969 
L 2906 4863 
L 3481 4863 
L 3481 0 
L 2906 0 
L 2906 525 
Q 2725 213 2448 61 
Q 2172 -91 1784 -91 
Q 1150 -91 751 415 
Q 353 922 353 1747 
Q 353 2572 751 3078 
Q 1150 3584 1784 3584 
Q 2172 3584 2448 3432 
Q 2725 3281 2906 2969 
z
M 947 1747 
Q 947 1113 1208 752 
Q 1469 391 1925 391 
Q 2381 391 2643 752 
Q 2906 1113 2906 1747 
Q 2906 2381 2643 2742 
Q 2381 3103 1925 3103 
Q 1469 3103 1208 2742 
Q 947 2381 947 1747 
z
" transform="scale(0.015625)"/>
      </defs>
      <use xlink:href="#DejaVuSans-44"/>
      <use xlink:href="#DejaVuSans-65" x="77.001953"/>
      <use xlink:href="#DejaVuSans-73" x="138.525391"/>
      <use xlink:href="#DejaVuSans-69" x="190.625"/>
      <use xlink:href="#DejaVuSans-72" x="218.408203"/>
      <use xlink:href="#DejaVuSans-65" x="257.271484"/>
      <use xlink:href="#DejaVuSans-64" x="318.794922"/>
     </g>
    </g>
   </g>
  </g>
 </g>
 <defs>
  <clipPath id="p8e67bb549a">
   <rect x="90" y="60.48" width="558" height="388.08"/>
  </clipPath>
 </defs>
</svg>
