<?xml version="1.0" encoding="utf-8" standalone="no"?>
<!DOCTYPE svg PUBLIC "-//W3C//DTD SVG 1.1//EN"
  "http://www.w3.org/Graphics/SVG/1.1/DTD/svg11.dtd">
<svg xmlns:xlink="http://www.w3.org/1999/xlink" width="720pt" height="504pt" viewBox="0 0 720 504" xmlns="http://www.w3.org/2000/svg" version="1.1">
 <metadata>
  <rdf:RDF xmlns:dc="http://purl.org/dc/elements/1.1/" xmlns:cc="http://creativecommons.org/ns#" xmlns:rdf="http://www.w3.org/1999/02/22-rdf-syntax-ns#">
   <cc:Work>
    <dc:type rdf:resource="http://purl.org/dc/dcmitype/StillImage"/>
    <dc:date>2024-02-15T17:06:40.281121</dc:date>
    <dc:format>image/svg+xml</dc:format>
    <dc:creator>
     <cc:Agent>
      <dc:title>Matplotlib v3.5.1, https://matplotlib.org/</dc:title>
     </cc:Agent>
    </dc:creator>
   </cc:Work>
  </rdf:RDF>
 </metadata>
 <defs>
  <style type="text/css">*{stroke-linejoin: round; stroke-linecap: butt}</style>
 </defs>
 <g id="figure_1">
  <g id="patch_1">
   <path d="M 0 504 
L 720 504 
L 720 0 
L 0 0 
z
" style="fill: #ffffff"/>
  </g>
  <g id="axes_1">
   <g id="patch_2">
    <path d="M 90 448.56 
L 648 448.56 
L 648 60.48 
L 90 60.48 
z
" style="fill: #ffffff"/>
   </g>
   <g id="matplotlib.axis_1">
    <g id="xtick_1">
     <g id="line2d_1">
      <path d="M 108.137212 448.56 
L 108.137212 60.48 
" clip-path="url(#pf367d73023)" style="fill: none; stroke: #b0b0b0; stroke-width: 0.8; stroke-linecap: square"/>
     </g>
     <g id="line2d_2">
      <defs>
       <path id="md9f0f059fa" d="M 0 0 
L 0 3.5 
" style="stroke: #000000; stroke-width: 0.8"/>
      </defs>
      <g>
       <use xlink:href="#md9f0f059fa" x="108.137212" y="448.56" style="stroke: #000000; stroke-width: 0.8"/>
      </g>
     </g>
     <g id="text_1">
      <!-- −1.5 -->
      <g transform="translate(95.995806 463.158437)scale(0.1 -0.1)">
       <defs>
        <path id="DejaVuSans-2212" d="M 678 2272 
L 4684 2272 
L 4684 1741 
L 678 1741 
L 678 2272 
z
" transform="scale(0.015625)"/>
        <path id="DejaVuSans-31" d="M 794 531 
L 1825 531 
L 1825 4091 
L 703 3866 
L 703 4441 
L 1819 4666 
L 2450 4666 
L 2450 531 
L 3481 531 
L 3481 0 
L 794 0 
L 794 531 
z
" transform="scale(0.015625)"/>
        <path id="DejaVuSans-2e" d="M 684 794 
L 1344 794 
L 1344 0 
L 684 0 
L 684 794 
z
" transform="scale(0.015625)"/>
        <path id="DejaVuSans-35" d="M 691 4666 
L 3169 4666 
L 3169 4134 
L 1269 4134 
L 1269 2991 
Q 1406 3038 1543 3061 
Q 1681 3084 1819 3084 
Q 2600 3084 3056 2656 
Q 3513 2228 3513 1497 
Q 3513 744 3044 326 
Q 2575 -91 1722 -91 
Q 1428 -91 1123 -41 
Q 819 9 494 109 
L 494 744 
Q 775 591 1075 516 
Q 1375 441 1709 441 
Q 2250 441 2565 725 
Q 2881 1009 2881 1497 
Q 2881 1984 2565 2268 
Q 2250 2553 1709 2553 
Q 1456 2553 1204 2497 
Q 953 2441 691 2322 
L 691 4666 
z
" transform="scale(0.015625)"/>
       </defs>
       <use xlink:href="#DejaVuSans-2212"/>
       <use xlink:href="#DejaVuSans-31" x="83.789062"/>
       <use xlink:href="#DejaVuSans-2e" x="147.412109"/>
       <use xlink:href="#DejaVuSans-35" x="179.199219"/>
      </g>
     </g>
    </g>
    <g id="xtick_2">
     <g id="line2d_3">
      <path d="M 196.340247 448.56 
L 196.340247 60.48 
" clip-path="url(#pf367d73023)" style="fill: none; stroke: #b0b0b0; stroke-width: 0.8; stroke-linecap: square"/>
     </g>
     <g id="line2d_4">
      <g>
       <use xlink:href="#md9f0f059fa" x="196.340247" y="448.56" style="stroke: #000000; stroke-width: 0.8"/>
      </g>
     </g>
     <g id="text_2">
      <!-- −1.0 -->
      <g transform="translate(184.198841 463.158437)scale(0.1 -0.1)">
       <defs>
        <path id="DejaVuSans-30" d="M 2034 4250 
Q 1547 4250 1301 3770 
Q 1056 3291 1056 2328 
Q 1056 1369 1301 889 
Q 1547 409 2034 409 
Q 2525 409 2770 889 
Q 3016 1369 3016 2328 
Q 3016 3291 2770 3770 
Q 2525 4250 2034 4250 
z
M 2034 4750 
Q 2819 4750 3233 4129 
Q 3647 3509 3647 2328 
Q 3647 1150 3233 529 
Q 2819 -91 2034 -91 
Q 1250 -91 836 529 
Q 422 1150 422 2328 
Q 422 3509 836 4129 
Q 1250 4750 2034 4750 
z
" transform="scale(0.015625)"/>
       </defs>
       <use xlink:href="#DejaVuSans-2212"/>
       <use xlink:href="#DejaVuSans-31" x="83.789062"/>
       <use xlink:href="#DejaVuSans-2e" x="147.412109"/>
       <use xlink:href="#DejaVuSans-30" x="179.199219"/>
      </g>
     </g>
    </g>
    <g id="xtick_3">
     <g id="line2d_5">
      <path d="M 284.543282 448.56 
L 284.543282 60.48 
" clip-path="url(#pf367d73023)" style="fill: none; stroke: #b0b0b0; stroke-width: 0.8; stroke-linecap: square"/>
     </g>
     <g id="line2d_6">
      <g>
       <use xlink:href="#md9f0f059fa" x="284.543282" y="448.56" style="stroke: #000000; stroke-width: 0.8"/>
      </g>
     </g>
     <g id="text_3">
      <!-- −0.5 -->
      <g transform="translate(272.401876 463.158437)scale(0.1 -0.1)">
       <use xlink:href="#DejaVuSans-2212"/>
       <use xlink:href="#DejaVuSans-30" x="83.789062"/>
       <use xlink:href="#DejaVuSans-2e" x="147.412109"/>
       <use xlink:href="#DejaVuSans-35" x="179.199219"/>
      </g>
     </g>
    </g>
    <g id="xtick_4">
     <g id="line2d_7">
      <path d="M 372.746317 448.56 
L 372.746317 60.48 
" clip-path="url(#pf367d73023)" style="fill: none; stroke: #b0b0b0; stroke-width: 0.8; stroke-linecap: square"/>
     </g>
     <g id="line2d_8">
      <g>
       <use xlink:href="#md9f0f059fa" x="372.746317" y="448.56" style="stroke: #000000; stroke-width: 0.8"/>
      </g>
     </g>
     <g id="text_4">
      <!-- 0.0 -->
      <g transform="translate(364.794754 463.158437)scale(0.1 -0.1)">
       <use xlink:href="#DejaVuSans-30"/>
       <use xlink:href="#DejaVuSans-2e" x="63.623047"/>
       <use xlink:href="#DejaVuSans-30" x="95.410156"/>
      </g>
     </g>
    </g>
    <g id="xtick_5">
     <g id="line2d_9">
      <path d="M 460.949352 448.56 
L 460.949352 60.48 
" clip-path="url(#pf367d73023)" style="fill: none; stroke: #b0b0b0; stroke-width: 0.8; stroke-linecap: square"/>
     </g>
     <g id="line2d_10">
      <g>
       <use xlink:href="#md9f0f059fa" x="460.949352" y="448.56" style="stroke: #000000; stroke-width: 0.8"/>
      </g>
     </g>
     <g id="text_5">
      <!-- 0.5 -->
      <g transform="translate(452.997789 463.158437)scale(0.1 -0.1)">
       <use xlink:href="#DejaVuSans-30"/>
       <use xlink:href="#DejaVuSans-2e" x="63.623047"/>
       <use xlink:href="#DejaVuSans-35" x="95.410156"/>
      </g>
     </g>
    </g>
    <g id="xtick_6">
     <g id="line2d_11">
      <path d="M 549.152387 448.56 
L 549.152387 60.48 
" clip-path="url(#pf367d73023)" style="fill: none; stroke: #b0b0b0; stroke-width: 0.8; stroke-linecap: square"/>
     </g>
     <g id="line2d_12">
      <g>
       <use xlink:href="#md9f0f059fa" x="549.152387" y="448.56" style="stroke: #000000; stroke-width: 0.8"/>
      </g>
     </g>
     <g id="text_6">
      <!-- 1.0 -->
      <g transform="translate(541.200824 463.158437)scale(0.1 -0.1)">
       <use xlink:href="#DejaVuSans-31"/>
       <use xlink:href="#DejaVuSans-2e" x="63.623047"/>
       <use xlink:href="#DejaVuSans-30" x="95.410156"/>
      </g>
     </g>
    </g>
    <g id="xtick_7">
     <g id="line2d_13">
      <path d="M 637.355422 448.56 
L 637.355422 60.48 
" clip-path="url(#pf367d73023)" style="fill: none; stroke: #b0b0b0; stroke-width: 0.8; stroke-linecap: square"/>
     </g>
     <g id="line2d_14">
      <g>
       <use xlink:href="#md9f0f059fa" x="637.355422" y="448.56" style="stroke: #000000; stroke-width: 0.8"/>
      </g>
     </g>
     <g id="text_7">
      <!-- 1.5 -->
      <g transform="translate(629.403859 463.158437)scale(0.1 -0.1)">
       <use xlink:href="#DejaVuSans-31"/>
       <use xlink:href="#DejaVuSans-2e" x="63.623047"/>
       <use xlink:href="#DejaVuSans-35" x="95.410156"/>
      </g>
     </g>
    </g>
    <g id="text_8">
     <!-- Position (X) -->
     <g transform="translate(340.620313 476.836563)scale(0.1 -0.1)">
      <defs>
       <path id="DejaVuSans-50" d="M 1259 4147 
L 1259 2394 
L 2053 2394 
Q 2494 2394 2734 2622 
Q 2975 2850 2975 3272 
Q 2975 3691 2734 3919 
Q 2494 4147 2053 4147 
L 1259 4147 
z
M 628 4666 
L 2053 4666 
Q 2838 4666 3239 4311 
Q 3641 3956 3641 3272 
Q 3641 2581 3239 2228 
Q 2838 1875 2053 1875 
L 1259 1875 
L 1259 0 
L 628 0 
L 628 4666 
z
" transform="scale(0.015625)"/>
       <path id="DejaVuSans-6f" d="M 1959 3097 
Q 1497 3097 1228 2736 
Q 959 2375 959 1747 
Q 959 1119 1226 758 
Q 1494 397 1959 397 
Q 2419 397 2687 759 
Q 2956 1122 2956 1747 
Q 2956 2369 2687 2733 
Q 2419 3097 1959 3097 
z
M 1959 3584 
Q 2709 3584 3137 3096 
Q 3566 2609 3566 1747 
Q 3566 888 3137 398 
Q 2709 -91 1959 -91 
Q 1206 -91 779 398 
Q 353 888 353 1747 
Q 353 2609 779 3096 
Q 1206 3584 1959 3584 
z
" transform="scale(0.015625)"/>
       <path id="DejaVuSans-73" d="M 2834 3397 
L 2834 2853 
Q 2591 2978 2328 3040 
Q 2066 3103 1784 3103 
Q 1356 3103 1142 2972 
Q 928 2841 928 2578 
Q 928 2378 1081 2264 
Q 1234 2150 1697 2047 
L 1894 2003 
Q 2506 1872 2764 1633 
Q 3022 1394 3022 966 
Q 3022 478 2636 193 
Q 2250 -91 1575 -91 
Q 1294 -91 989 -36 
Q 684 19 347 128 
L 347 722 
Q 666 556 975 473 
Q 1284 391 1588 391 
Q 1994 391 2212 530 
Q 2431 669 2431 922 
Q 2431 1156 2273 1281 
Q 2116 1406 1581 1522 
L 1381 1569 
Q 847 1681 609 1914 
Q 372 2147 372 2553 
Q 372 3047 722 3315 
Q 1072 3584 1716 3584 
Q 2034 3584 2315 3537 
Q 2597 3491 2834 3397 
z
" transform="scale(0.015625)"/>
       <path id="DejaVuSans-69" d="M 603 3500 
L 1178 3500 
L 1178 0 
L 603 0 
L 603 3500 
z
M 603 4863 
L 1178 4863 
L 1178 4134 
L 603 4134 
L 603 4863 
z
" transform="scale(0.015625)"/>
       <path id="DejaVuSans-74" d="M 1172 4494 
L 1172 3500 
L 2356 3500 
L 2356 3053 
L 1172 3053 
L 1172 1153 
Q 1172 725 1289 603 
Q 1406 481 1766 481 
L 2356 481 
L 2356 0 
L 1766 0 
Q 1100 0 847 248 
Q 594 497 594 1153 
L 594 3053 
L 172 3053 
L 172 3500 
L 594 3500 
L 594 4494 
L 1172 4494 
z
" transform="scale(0.015625)"/>
       <path id="DejaVuSans-6e" d="M 3513 2113 
L 3513 0 
L 2938 0 
L 2938 2094 
Q 2938 2591 2744 2837 
Q 2550 3084 2163 3084 
Q 1697 3084 1428 2787 
Q 1159 2491 1159 1978 
L 1159 0 
L 581 0 
L 581 3500 
L 1159 3500 
L 1159 2956 
Q 1366 3272 1645 3428 
Q 1925 3584 2291 3584 
Q 2894 3584 3203 3211 
Q 3513 2838 3513 2113 
z
" transform="scale(0.015625)"/>
       <path id="DejaVuSans-20" transform="scale(0.015625)"/>
       <path id="DejaVuSans-28" d="M 1984 4856 
Q 1566 4138 1362 3434 
Q 1159 2731 1159 2009 
Q 1159 1288 1364 580 
Q 1569 -128 1984 -844 
L 1484 -844 
Q 1016 -109 783 600 
Q 550 1309 550 2009 
Q 550 2706 781 3412 
Q 1013 4119 1484 4856 
L 1984 4856 
z
" transform="scale(0.015625)"/>
       <path id="DejaVuSans-58" d="M 403 4666 
L 1081 4666 
L 2241 2931 
L 3406 4666 
L 4084 4666 
L 2584 2425 
L 4184 0 
L 3506 0 
L 2194 1984 
L 872 0 
L 191 0 
L 1856 2491 
L 403 4666 
z
" transform="scale(0.015625)"/>
       <path id="DejaVuSans-29" d="M 513 4856 
L 1013 4856 
Q 1481 4119 1714 3412 
Q 1947 2706 1947 2009 
Q 1947 1309 1714 600 
Q 1481 -109 1013 -844 
L 513 -844 
Q 928 -128 1133 580 
Q 1338 1288 1338 2009 
Q 1338 2731 1133 3434 
Q 928 4138 513 4856 
z
" transform="scale(0.015625)"/>
      </defs>
      <use xlink:href="#DejaVuSans-50"/>
      <use xlink:href="#DejaVuSans-6f" x="56.677734"/>
      <use xlink:href="#DejaVuSans-73" x="117.859375"/>
      <use xlink:href="#DejaVuSans-69" x="169.958984"/>
      <use xlink:href="#DejaVuSans-74" x="197.742188"/>
      <use xlink:href="#DejaVuSans-69" x="236.951172"/>
      <use xlink:href="#DejaVuSans-6f" x="264.734375"/>
      <use xlink:href="#DejaVuSans-6e" x="325.916016"/>
      <use xlink:href="#DejaVuSans-20" x="389.294922"/>
      <use xlink:href="#DejaVuSans-28" x="421.082031"/>
      <use xlink:href="#DejaVuSans-58" x="460.095703"/>
      <use xlink:href="#DejaVuSans-29" x="528.601562"/>
     </g>
    </g>
   </g>
   <g id="matplotlib.axis_2">
    <g id="ytick_1">
     <g id="line2d_15">
      <path d="M 90 430.923876 
L 648 430.923876 
" clip-path="url(#pf367d73023)" style="fill: none; stroke: #b0b0b0; stroke-width: 0.8; stroke-linecap: square"/>
     </g>
     <g id="line2d_16">
      <defs>
       <path id="m913a2b6566" d="M 0 0 
L -3.5 0 
" style="stroke: #000000; stroke-width: 0.8"/>
      </defs>
      <g>
       <use xlink:href="#m913a2b6566" x="90" y="430.923876" style="stroke: #000000; stroke-width: 0.8"/>
      </g>
     </g>
     <g id="text_9">
      <!-- −1.00 -->
      <g transform="translate(52.354687 434.723095)scale(0.1 -0.1)">
       <use xlink:href="#DejaVuSans-2212"/>
       <use xlink:href="#DejaVuSans-31" x="83.789062"/>
       <use xlink:href="#DejaVuSans-2e" x="147.412109"/>
       <use xlink:href="#DejaVuSans-30" x="179.199219"/>
       <use xlink:href="#DejaVuSans-30" x="242.822266"/>
      </g>
     </g>
    </g>
    <g id="ytick_2">
     <g id="line2d_17">
      <path d="M 90 386.822359 
L 648 386.822359 
" clip-path="url(#pf367d73023)" style="fill: none; stroke: #b0b0b0; stroke-width: 0.8; stroke-linecap: square"/>
     </g>
     <g id="line2d_18">
      <g>
       <use xlink:href="#m913a2b6566" x="90" y="386.822359" style="stroke: #000000; stroke-width: 0.8"/>
      </g>
     </g>
     <g id="text_10">
      <!-- −0.75 -->
      <g transform="translate(52.354687 390.621577)scale(0.1 -0.1)">
       <defs>
        <path id="DejaVuSans-37" d="M 525 4666 
L 3525 4666 
L 3525 4397 
L 1831 0 
L 1172 0 
L 2766 4134 
L 525 4134 
L 525 4666 
z
" transform="scale(0.015625)"/>
       </defs>
       <use xlink:href="#DejaVuSans-2212"/>
       <use xlink:href="#DejaVuSans-30" x="83.789062"/>
       <use xlink:href="#DejaVuSans-2e" x="147.412109"/>
       <use xlink:href="#DejaVuSans-37" x="179.199219"/>
       <use xlink:href="#DejaVuSans-35" x="242.822266"/>
      </g>
     </g>
    </g>
    <g id="ytick_3">
     <g id="line2d_19">
      <path d="M 90 342.720841 
L 648 342.720841 
" clip-path="url(#pf367d73023)" style="fill: none; stroke: #b0b0b0; stroke-width: 0.8; stroke-linecap: square"/>
     </g>
     <g id="line2d_20">
      <g>
       <use xlink:href="#m913a2b6566" x="90" y="342.720841" style="stroke: #000000; stroke-width: 0.8"/>
      </g>
     </g>
     <g id="text_11">
      <!-- −0.50 -->
      <g transform="translate(52.354687 346.52006)scale(0.1 -0.1)">
       <use xlink:href="#DejaVuSans-2212"/>
       <use xlink:href="#DejaVuSans-30" x="83.789062"/>
       <use xlink:href="#DejaVuSans-2e" x="147.412109"/>
       <use xlink:href="#DejaVuSans-35" x="179.199219"/>
       <use xlink:href="#DejaVuSans-30" x="242.822266"/>
      </g>
     </g>
    </g>
    <g id="ytick_4">
     <g id="line2d_21">
      <path d="M 90 298.619324 
L 648 298.619324 
" clip-path="url(#pf367d73023)" style="fill: none; stroke: #b0b0b0; stroke-width: 0.8; stroke-linecap: square"/>
     </g>
     <g id="line2d_22">
      <g>
       <use xlink:href="#m913a2b6566" x="90" y="298.619324" style="stroke: #000000; stroke-width: 0.8"/>
      </g>
     </g>
     <g id="text_12">
      <!-- −0.25 -->
      <g transform="translate(52.354687 302.418542)scale(0.1 -0.1)">
       <defs>
        <path id="DejaVuSans-32" d="M 1228 531 
L 3431 531 
L 3431 0 
L 469 0 
L 469 531 
Q 828 903 1448 1529 
Q 2069 2156 2228 2338 
Q 2531 2678 2651 2914 
Q 2772 3150 2772 3378 
Q 2772 3750 2511 3984 
Q 2250 4219 1831 4219 
Q 1534 4219 1204 4116 
Q 875 4013 500 3803 
L 500 4441 
Q 881 4594 1212 4672 
Q 1544 4750 1819 4750 
Q 2544 4750 2975 4387 
Q 3406 4025 3406 3419 
Q 3406 3131 3298 2873 
Q 3191 2616 2906 2266 
Q 2828 2175 2409 1742 
Q 1991 1309 1228 531 
z
" transform="scale(0.015625)"/>
       </defs>
       <use xlink:href="#DejaVuSans-2212"/>
       <use xlink:href="#DejaVuSans-30" x="83.789062"/>
       <use xlink:href="#DejaVuSans-2e" x="147.412109"/>
       <use xlink:href="#DejaVuSans-32" x="179.199219"/>
       <use xlink:href="#DejaVuSans-35" x="242.822266"/>
      </g>
     </g>
    </g>
    <g id="ytick_5">
     <g id="line2d_23">
      <path d="M 90 254.517806 
L 648 254.517806 
" clip-path="url(#pf367d73023)" style="fill: none; stroke: #b0b0b0; stroke-width: 0.8; stroke-linecap: square"/>
     </g>
     <g id="line2d_24">
      <g>
       <use xlink:href="#m913a2b6566" x="90" y="254.517806" style="stroke: #000000; stroke-width: 0.8"/>
      </g>
     </g>
     <g id="text_13">
      <!-- 0.00 -->
      <g transform="translate(60.734375 258.317025)scale(0.1 -0.1)">
       <use xlink:href="#DejaVuSans-30"/>
       <use xlink:href="#DejaVuSans-2e" x="63.623047"/>
       <use xlink:href="#DejaVuSans-30" x="95.410156"/>
       <use xlink:href="#DejaVuSans-30" x="159.033203"/>
      </g>
     </g>
    </g>
    <g id="ytick_6">
     <g id="line2d_25">
      <path d="M 90 210.416289 
L 648 210.416289 
" clip-path="url(#pf367d73023)" style="fill: none; stroke: #b0b0b0; stroke-width: 0.8; stroke-linecap: square"/>
     </g>
     <g id="line2d_26">
      <g>
       <use xlink:href="#m913a2b6566" x="90" y="210.416289" style="stroke: #000000; stroke-width: 0.8"/>
      </g>
     </g>
     <g id="text_14">
      <!-- 0.25 -->
      <g transform="translate(60.734375 214.215508)scale(0.1 -0.1)">
       <use xlink:href="#DejaVuSans-30"/>
       <use xlink:href="#DejaVuSans-2e" x="63.623047"/>
       <use xlink:href="#DejaVuSans-32" x="95.410156"/>
       <use xlink:href="#DejaVuSans-35" x="159.033203"/>
      </g>
     </g>
    </g>
    <g id="ytick_7">
     <g id="line2d_27">
      <path d="M 90 166.314771 
L 648 166.314771 
" clip-path="url(#pf367d73023)" style="fill: none; stroke: #b0b0b0; stroke-width: 0.8; stroke-linecap: square"/>
     </g>
     <g id="line2d_28">
      <g>
       <use xlink:href="#m913a2b6566" x="90" y="166.314771" style="stroke: #000000; stroke-width: 0.8"/>
      </g>
     </g>
     <g id="text_15">
      <!-- 0.50 -->
      <g transform="translate(60.734375 170.11399)scale(0.1 -0.1)">
       <use xlink:href="#DejaVuSans-30"/>
       <use xlink:href="#DejaVuSans-2e" x="63.623047"/>
       <use xlink:href="#DejaVuSans-35" x="95.410156"/>
       <use xlink:href="#DejaVuSans-30" x="159.033203"/>
      </g>
     </g>
    </g>
    <g id="ytick_8">
     <g id="line2d_29">
      <path d="M 90 122.213254 
L 648 122.213254 
" clip-path="url(#pf367d73023)" style="fill: none; stroke: #b0b0b0; stroke-width: 0.8; stroke-linecap: square"/>
     </g>
     <g id="line2d_30">
      <g>
       <use xlink:href="#m913a2b6566" x="90" y="122.213254" style="stroke: #000000; stroke-width: 0.8"/>
      </g>
     </g>
     <g id="text_16">
      <!-- 0.75 -->
      <g transform="translate(60.734375 126.012473)scale(0.1 -0.1)">
       <use xlink:href="#DejaVuSans-30"/>
       <use xlink:href="#DejaVuSans-2e" x="63.623047"/>
       <use xlink:href="#DejaVuSans-37" x="95.410156"/>
       <use xlink:href="#DejaVuSans-35" x="159.033203"/>
      </g>
     </g>
    </g>
    <g id="ytick_9">
     <g id="line2d_31">
      <path d="M 90 78.111736 
L 648 78.111736 
" clip-path="url(#pf367d73023)" style="fill: none; stroke: #b0b0b0; stroke-width: 0.8; stroke-linecap: square"/>
     </g>
     <g id="line2d_32">
      <g>
       <use xlink:href="#m913a2b6566" x="90" y="78.111736" style="stroke: #000000; stroke-width: 0.8"/>
      </g>
     </g>
     <g id="text_17">
      <!-- 1.00 -->
      <g transform="translate(60.734375 81.910955)scale(0.1 -0.1)">
       <use xlink:href="#DejaVuSans-31"/>
       <use xlink:href="#DejaVuSans-2e" x="63.623047"/>
       <use xlink:href="#DejaVuSans-30" x="95.410156"/>
       <use xlink:href="#DejaVuSans-30" x="159.033203"/>
      </g>
     </g>
    </g>
    <g id="text_18">
     <!-- Position (Y) -->
     <g transform="translate(46.275 282.528594)rotate(-90)scale(0.1 -0.1)">
      <defs>
       <path id="DejaVuSans-59" d="M -13 4666 
L 666 4666 
L 1959 2747 
L 3244 4666 
L 3922 4666 
L 2272 2222 
L 2272 0 
L 1638 0 
L 1638 2222 
L -13 4666 
z
" transform="scale(0.015625)"/>
      </defs>
      <use xlink:href="#DejaVuSans-50"/>
      <use xlink:href="#DejaVuSans-6f" x="56.677734"/>
      <use xlink:href="#DejaVuSans-73" x="117.859375"/>
      <use xlink:href="#DejaVuSans-69" x="169.958984"/>
      <use xlink:href="#DejaVuSans-74" x="197.742188"/>
      <use xlink:href="#DejaVuSans-69" x="236.951172"/>
      <use xlink:href="#DejaVuSans-6f" x="264.734375"/>
      <use xlink:href="#DejaVuSans-6e" x="325.916016"/>
      <use xlink:href="#DejaVuSans-20" x="389.294922"/>
      <use xlink:href="#DejaVuSans-28" x="421.082031"/>
      <use xlink:href="#DejaVuSans-59" x="460.095703"/>
      <use xlink:href="#DejaVuSans-29" x="521.179688"/>
     </g>
    </g>
   </g>
   <g id="line2d_33">
    <path d="M 542.158755 298.720537 
L 542.685716 294.423979 
L 543.004519 290.656654 
L 543.382531 284.478339 
L 543.377778 272.764585 
L 542.592588 256.055746 
L 541.467681 244.08944 
L 540.818835 239.035936 
L 539.324139 229.622104 
L 539.324139 229.622104 
L 537.676519 221.986176 
L 535.723901 214.349217 
L 535.723901 214.349217 
L 534.436134 209.887477 
L 533.217068 206.166694 
L 530.817306 199.405656 
L 527.364693 190.989533 
L 526.317332 188.630309 
L 524.417014 184.667706 
L 520.69202 178.135046 
L 518.151288 173.992096 
L 518.151288 173.992096 
L 513.715033 167.343007 
L 508.22577 160.236721 
L 503.886743 155.434378 
L 501.44038 152.880997 
L 495.787047 147.679645 
L 493.093569 145.418245 
L 484.972801 139.36973 
L 479.990742 136.137367 
L 475.809887 133.593418 
L 472.620518 131.796963 
L 463.674984 127.37833 
L 460.231645 125.780181 
L 457.225089 124.533915 
L 446.197901 120.188632 
L 433.983029 116.100684 
L 422.03322 112.665379 
L 414.633902 110.892161 
L 409.947102 109.782795 
L 401.836149 108.097049 
L 387.388295 105.903867 
L 387.388295 105.903867 
L 379.780297 105.010913 
L 371.311935 104.342909 
L 359.974889 103.966622 
L 355.671222 103.953121 
L 351.434828 104.063735 
L 343.001432 104.638023 
L 338.83118 105.104514 
L 331.256497 106.110196 
L 327.199807 106.851466 
L 317.23775 109.166964 
L 310.125445 111.245 
L 301.758661 114.178033 
L 294.118658 117.424633 
L 283.609163 122.46019 
L 275.144325 127.107516 
L 267.95408 131.44507 
L 259.267132 137.136582 
L 252.525167 141.942321 
L 249.791744 143.953379 
L 244.5219 148.114761 
L 235.626657 155.85694 
L 234.224648 157.262639 
L 227.657478 164.172165 
L 224.443527 168.035279 
L 220.646676 172.95681 
L 218.80953 175.537719 
L 216.077074 179.671321 
L 212.283052 186.068753 
L 209.085587 192.045095 
L 205.8985 198.782334 
L 203.296468 205.015149 
L 202.002591 208.49144 
L 199.636213 215.366052 
L 197.639181 222.327128 
L 196.594743 226.43604 
L 195.423646 231.627042 
L 195.423646 231.627042 
L 194.419857 236.843699 
L 194.419857 236.843699 
L 193.566006 242.017686 
L 193.530572 243.934364 
L 193.070305 249.125504 
L 192.906067 254.179075 
L 193.146683 261.054122 
L 193.414617 264.528862 
L 194.65202 272.876399 
L 195.814011 278.469585 
L 197.737388 285.617918 
L 199.024798 289.379377 
L 202.173801 297.272595 
L 206.511324 305.900205 
L 207.748863 307.916862 
L 213.562555 316.743539 
L 218.993494 323.682301 
L 223.361299 328.677986 
L 230.008022 335.637761 
L 244.278476 348.773909 
L 252.605867 355.83536 
L 260.334734 362.031279 
L 268.562803 368.434095 
L 275.192871 373.223189 
L 283.216936 378.59186 
L 292.176908 384.045794 
L 299.237497 387.8213 
L 303.411722 389.869811 
L 307.685842 391.772232 
L 315.135357 394.831482 
L 320.886192 396.82945 
L 330.016219 399.474013 
L 338.751188 401.42926 
L 344.872679 402.513875 
L 349.044082 403.138454 
L 356.886805 404.110057 
L 368.506705 404.946947 
L 374.449676 405.245804 
L 378.851496 405.336398 
L 388.494968 405.165336 
L 392.242664 405.032799 
L 403.979011 404.052143 
L 408.263001 403.573212 
L 418.319435 401.95783 
L 425.223561 400.370248 
L 431.387595 398.704858 
L 438.848381 396.330888 
L 444.745785 394.010932 
L 449.343718 392.172776 
L 451.23114 391.249288 
L 454.562487 389.914604 
L 462.793122 385.657885 
L 468.484708 382.505518 
L 475.968311 378.030726 
L 483.265636 373.395251 
L 493.826196 365.707328 
L 498.880816 361.646423 
L 506.323118 355.127915 
L 511.312842 350.280601 
L 515.543473 345.775654 
L 520.788755 339.65247 
L 521.989651 338.111557 
L 525.518946 333.347651 
L 529.496785 327.464678 
L 533.713874 320.419162 
L 536.383221 315.415974 
L 539.447917 308.739531 
L 542.035776 301.969135 
L 545.881215 290.231103 
L 547.142054 285.151813 
L 547.142054 285.151813 
" clip-path="url(#pf367d73023)" style="fill: none; stroke-dasharray: 12.8,3.2,2,3.2; stroke-dashoffset: 0; stroke: #ff0000; stroke-width: 2"/>
   </g>
   <g id="line2d_34">
    <path d="M 546.234836 278.819473 
L 539.333704 273.336026 
L 535.907461 272.639174 
L 541.727335 266.141352 
L 541.727335 266.141352 
L 545.255044 258.465568 
L 541.025339 254.945227 
L 538.29502 247.174441 
L 545.50921 240.877914 
L 544.371557 241.080812 
L 538.196824 236.179612 
L 540.866019 233.440333 
L 535.409809 235.355296 
L 539.567101 225.327737 
L 539.382359 225.125892 
L 543.965122 223.982453 
L 536.823582 221.250157 
L 537.925864 215.499159 
L 545.110016 212.132611 
L 544.364741 210.612344 
L 543.131357 211.7689 
L 536.933491 205.859047 
L 542.198467 200.625693 
L 540.37849 199.910021 
L 545.022422 197.192742 
L 539.77548 195.174569 
L 539.287795 188.188057 
L 535.670227 185.829421 
L 530.471762 184.895957 
L 531.904957 182.571058 
L 534.050406 179.583079 
L 536.74485 171.011674 
L 530.468013 159.250862 
L 530.468013 159.250862 
L 524.509847 152.975691 
L 512.546182 151.963105 
L 509.031727 147.822401 
L 513.521148 142.835323 
L 513.521148 142.835323 
L 509.179732 147.051133 
L 510.236658 142.455706 
L 504.323312 142.452023 
L 494.184012 139.393102 
L 492.477215 138.103534 
L 490.049607 132.545878 
L 487.704472 124.553335 
L 481.484418 131.01631 
L 480.468622 133.914752 
L 476.306319 133.635883 
L 471.118327 129.757259 
L 465.929879 129.650351 
L 466.833125 122.293748 
L 462.123501 120.157216 
L 461.544024 113.448471 
L 456.351141 112.709561 
L 450.269068 110.869035 
L 440.90732 109.415186 
L 440.90732 109.415186 
L 430.980451 108.663094 
L 426.049368 105.960238 
L 413.137044 99.803725 
L 408.755781 97.055186 
L 408.755781 97.055186 
L 412.019771 96.196504 
L 409.009 100.047266 
L 405.733832 97.921531 
L 384.500896 95.720564 
L 383.079156 89.944331 
L 383.079156 89.944331 
L 381.707869 88.13292 
L 376.727469 88.047517 
L 373.774779 85.006963 
L 366.01449 93.011175 
L 366.01449 93.011175 
L 366.933544 90.986658 
L 361.486999 94.598306 
L 354.817815 96.034321 
L 353.294892 94.970182 
L 353.294892 94.970182 
L 349.285737 97.77974 
L 348.906165 95.681658 
L 337.639265 102.345801 
L 328.51687 102.777596 
L 324.100268 100.990804 
L 318.740384 104.677815 
L 310.980189 103.826646 
L 304.159083 113.813247 
L 306.05663 116.483551 
L 297.4369 122.327985 
L 284.500182 118.984677 
L 285.889621 117.096246 
L 288.916173 123.307308 
L 288.916173 123.307308 
L 280.726851 128.090061 
L 275.09101 136.56771 
L 275.09101 136.56771 
L 262.967389 139.469481 
L 259.755256 141.35652 
L 254.175655 141.372962 
L 254.175655 141.372962 
L 242.672737 144.815075 
L 242.550149 147.315441 
L 232.094811 165.17818 
L 231.985563 160.689853 
L 227.698043 168.597791 
L 233.637763 172.252786 
L 233.920758 189.59754 
L 227.473642 189.025116 
L 224.736256 191.284917 
L 218.727037 192.314033 
L 219.893474 189.551461 
L 219.201851 198.292336 
L 219.201851 198.292336 
L 214.748996 195.709173 
L 211.418294 195.865578 
L 210.740085 200.462279 
L 210.740085 200.462279 
L 203.956479 206.427219 
L 200.630925 216.66984 
L 201.953916 218.241476 
L 200.07244 233.079495 
L 194.953729 243.643621 
L 189.532605 251.757179 
L 194.322567 254.327469 
L 192.861799 259.565094 
L 192.861799 259.565094 
L 192.423216 271.317867 
L 192.423216 271.317867 
L 187.376409 269.484008 
L 188.60362 278.521869 
L 188.60362 278.521869 
L 186.081633 294.483115 
L 193.087873 297.744964 
L 198.836295 301.765928 
L 198.836295 301.765928 
L 193.039206 299.75032 
L 197.651642 304.238271 
L 199.088637 312.008432 
L 196.579019 319.072999 
L 200.587412 318.016426 
L 201.100011 320.876981 
L 206.948666 326.84749 
L 205.775779 322.58332 
L 203.893693 321.289767 
L 210.241556 324.334266 
L 209.705322 329.644279 
L 205.540966 332.000814 
L 208.588524 339.419971 
L 213.898384 341.549261 
L 213.898384 341.549261 
L 216.54257 349.162081 
L 216.54257 349.162081 
L 229.49682 347.736707 
L 235.532786 346.204441 
L 235.532786 346.204441 
L 233.750197 348.193998 
L 238.355663 349.03969 
L 236.801556 358.647567 
L 236.801556 358.647567 
L 240.644148 363.668145 
L 246.163328 373.765944 
L 253.97427 374.971568 
L 251.702915 368.918689 
L 255.677745 372.355878 
L 254.98602 372.466967 
L 261.177484 372.078605 
L 258.258861 371.935689 
L 267.43996 380.048835 
L 273.7191 383.93858 
L 281.370077 389.123509 
L 287.527434 386.574447 
L 292.950492 390.528047 
L 293.750439 390.748632 
L 296.841278 397.705575 
L 296.857167 397.320162 
L 301.410667 402.280194 
L 310.492941 408.360623 
L 315.227071 413.243025 
L 320.71454 408.76758 
L 330.326019 415.600077 
L 333.117829 412.471931 
L 337.284175 416.884219 
L 342.590404 420.318612 
L 342.590404 420.318612 
L 353.818185 417.45821 
L 353.818185 417.45821 
L 356.456813 416.372741 
L 369.062091 416.97574 
L 369.649251 418.442902 
L 379.701589 414.656092 
L 382.848688 411.995981 
L 383.847849 407.781393 
L 390.035767 408.379671 
L 392.973902 412.207602 
L 396.826932 405.04139 
L 395.2983 403.945732 
L 398.924951 402.541739 
L 401.976407 404.220864 
L 398.786364 398.028535 
L 405.67222 399.324393 
L 413.473977 396.056903 
L 422.175915 389.575055 
L 422.175915 389.575055 
L 433.288571 391.631657 
L 433.288571 391.631657 
L 435.232719 388.476584 
L 438.708426 386.826412 
L 438.708426 386.826412 
L 445.086169 384.942476 
L 453.993241 384.231303 
L 460.918666 378.406366 
L 464.169365 373.839435 
L 462.951637 375.901435 
L 465.503954 376.262545 
L 479.646906 376.553348 
L 480.420446 372.02447 
L 484.183528 367.990501 
L 484.183528 367.990501 
L 496.835149 370.570561 
L 500.0074 365.269621 
L 500.0074 365.269621 
L 501.014582 359.760332 
L 500.241827 354.452082 
L 502.572998 344.442372 
L 508.737721 345.889872 
L 508.737721 345.889872 
L 513.629065 337.801691 
L 513.629065 337.801691 
L 522.642834 335.510437 
L 520.552551 332.240822 
L 524.756542 330.145885 
L 528.63527 326.690331 
L 534.578871 321.658689 
L 534.496156 315.502649 
L 537.614081 309.328413 
L 530.621701 300.525343 
L 540.212899 299.393705 
L 539.735118 294.908851 
L 537.391414 290.560089 
L 539.495595 288.844056 
L 544.193651 289.080245 
L 541.986908 284.117719 
L 551.918367 274.75944 
L 549.113089 271.027764 
L 551.115494 272.387968 
L 551.115494 272.387968 
" clip-path="url(#pf367d73023)" style="fill: none; stroke: #008000; stroke-width: 1.5; stroke-linecap: square"/>
   </g>
   <g id="line2d_35">
    <path d="M 549.11342 258.225448 
L 549.098621 250.162771 
L 548.883912 244.789025 
L 547.994911 234.342775 
L 547.299254 229.015381 
L 545.892033 220.758917 
L 544.343391 213.608812 
L 542.153207 205.320174 
L 539.640279 197.373193 
L 537.81082 192.28589 
L 535.697363 186.945194 
L 533.550308 181.983827 
L 529.992831 174.563849 
L 525.844477 166.881884 
L 521.895319 160.317611 
L 517.362374 153.496534 
L 512.880135 147.36551 
L 508.149439 141.446608 
L 502.43001 134.930009 
L 497.164904 129.461352 
L 491.235946 123.829975 
L 488.842343 121.69908 
L 483.33103 117.076464 
L 476.747059 112.029395 
L 469.71054 107.150779 
L 462.532074 102.670451 
L 454.00653 97.942332 
L 448.766614 95.33233 
L 443.241162 92.809494 
L 438.310227 90.748227 
L 429.107993 87.357814 
L 423.54674 85.584629 
L 419.650269 84.461578 
L 409.624452 82.009532 
L 400.317312 80.279631 
L 394.853592 79.502464 
L 388.086569 78.779995 
L 383.509293 78.440381 
L 374.453779 78.12 
L 370.287423 78.128874 
L 364.33935 78.312175 
L 356.449381 78.86613 
L 347.364457 79.947297 
L 340.679321 81.05078 
L 334.295503 82.353244 
L 325.969308 84.426616 
L 323.455354 85.138048 
L 317.959824 86.834946 
L 309.995744 89.649777 
L 305.451975 91.451645 
L 300.498264 93.585149 
L 291.636032 97.864613 
L 289.32612 99.082378 
L 281.51376 103.535284 
L 278.288627 105.531746 
L 268.799449 111.990089 
L 263.453282 116.047109 
L 257.040973 121.358598 
L 247.285989 130.506486 
L 242.515658 135.525886 
L 237.108342 141.72844 
L 233.951231 145.637021 
L 228.888865 152.419152 
L 226.773088 155.467728 
L 223.020588 161.237007 
L 219.771709 166.666392 
L 215.808758 173.959108 
L 212.523224 180.709528 
L 209.152581 188.51636 
L 206.738211 194.848633 
L 204.081225 202.834267 
L 201.791302 211.003621 
L 200.651117 215.757731 
L 199.573773 220.89681 
L 198.233559 228.741873 
L 197.222065 236.901381 
L 196.846784 241.159069 
L 196.538847 246.149479 
L 196.345773 255.914106 
L 196.408973 259.441488 
L 196.853198 267.960729 
L 197.449682 274.271068 
L 198.581863 282.550726 
L 200.161916 291.038022 
L 200.990113 294.753461 
L 202.397075 300.346152 
L 204.85107 308.649937 
L 205.596531 310.909742 
L 207.396609 315.987927 
L 210.487031 323.735041 
L 213.92797 331.302141 
L 215.618219 334.704229 
L 218.297104 339.75009 
L 224.723295 350.477623 
L 228.257123 355.720446 
L 231.862361 360.681889 
L 235.366103 365.178451 
L 238.097874 368.486654 
L 244.558897 375.708098 
L 249.035084 380.274048 
L 252.058193 383.178127 
L 258.219647 388.692109 
L 264.901541 394.119403 
L 270.728274 398.432435 
L 277.539701 403.026398 
L 284.910562 407.501405 
L 292.256394 411.49065 
L 299.285369 414.900444 
L 306.976971 418.204991 
L 314.7436 421.115484 
L 323.027837 423.772568 
L 331.528333 426.040922 
L 340.761733 428.000047 
L 345.703402 428.838724 
L 355.507017 430.079499 
L 365.37703 430.769885 
L 371.576899 430.92 
L 380.494594 430.75363 
L 385.81226 430.43933 
L 393.263038 429.726726 
L 399.44746 428.891401 
L 407.821584 427.401661 
L 415.80377 425.588427 
L 423.746603 423.390753 
L 431.665707 420.793502 
L 435.887182 419.236757 
L 444.530434 415.657938 
L 452.120003 412.058022 
L 455.454594 410.333218 
L 464.546134 405.156098 
L 473.191107 399.534859 
L 478.656021 395.593091 
L 483.396752 391.906244 
L 488.730365 387.434329 
L 492.016075 384.49406 
L 495.299851 381.402528 
L 498.478388 378.253605 
L 502.979369 373.507107 
L 508.995444 366.568138 
L 512.118117 362.659393 
L 518.466661 353.939548 
L 521.493053 349.351925 
L 525.137915 343.376697 
L 529.418815 335.590797 
L 531.789572 330.8352 
L 533.615382 326.907346 
L 536.543499 320.012728 
L 538.133966 315.885771 
L 539.928431 310.813831 
L 541.93233 304.46973 
L 544.253167 295.803418 
L 545.091906 292.148903 
L 546.648299 284.135403 
L 547.863327 275.804755 
L 548.777341 266.014768 
L 549.115373 258.131322 
L 549.150935 255.233634 
L 549.150935 255.233634 
" clip-path="url(#pf367d73023)" style="fill: none; stroke-dasharray: 5.55,2.4; stroke-dashoffset: 0; stroke: #0000ff; stroke-width: 1.5"/>
   </g>
   <g id="patch_3">
    <path d="M 90 448.56 
L 90 60.48 
" style="fill: none; stroke: #000000; stroke-width: 0.8; stroke-linejoin: miter; stroke-linecap: square"/>
   </g>
   <g id="patch_4">
    <path d="M 648 448.56 
L 648 60.48 
" style="fill: none; stroke: #000000; stroke-width: 0.8; stroke-linejoin: miter; stroke-linecap: square"/>
   </g>
   <g id="patch_5">
    <path d="M 90 448.56 
L 648 448.56 
" style="fill: none; stroke: #000000; stroke-width: 0.8; stroke-linejoin: miter; stroke-linecap: square"/>
   </g>
   <g id="patch_6">
    <path d="M 90 60.48 
L 648 60.48 
" style="fill: none; stroke: #000000; stroke-width: 0.8; stroke-linejoin: miter; stroke-linecap: square"/>
   </g>
   <g id="legend_1">
    <g id="patch_7">
     <path d="M 561.920313 112.514375 
L 641 112.514375 
Q 643 112.514375 643 110.514375 
L 643 67.48 
Q 643 65.48 641 65.48 
L 561.920313 65.48 
Q 559.920313 65.48 559.920313 67.48 
L 559.920313 110.514375 
Q 559.920313 112.514375 561.920313 112.514375 
z
" style="fill: #ffffff; opacity: 0.8; stroke: #cccccc; stroke-linejoin: miter"/>
    </g>
    <g id="line2d_36">
     <path d="M 563.920313 73.578438 
L 573.920313 73.578438 
L 583.920313 73.578438 
" style="fill: none; stroke-dasharray: 12.8,3.2,2,3.2; stroke-dashoffset: 0; stroke: #ff0000; stroke-width: 2"/>
    </g>
    <g id="text_19">
     <!-- OptiTrack -->
     <g transform="translate(591.920313 77.078438)scale(0.1 -0.1)">
      <defs>
       <path id="DejaVuSans-4f" d="M 2522 4238 
Q 1834 4238 1429 3725 
Q 1025 3213 1025 2328 
Q 1025 1447 1429 934 
Q 1834 422 2522 422 
Q 3209 422 3611 934 
Q 4013 1447 4013 2328 
Q 4013 3213 3611 3725 
Q 3209 4238 2522 4238 
z
M 2522 4750 
Q 3503 4750 4090 4092 
Q 4678 3434 4678 2328 
Q 4678 1225 4090 567 
Q 3503 -91 2522 -91 
Q 1538 -91 948 565 
Q 359 1222 359 2328 
Q 359 3434 948 4092 
Q 1538 4750 2522 4750 
z
" transform="scale(0.015625)"/>
       <path id="DejaVuSans-70" d="M 1159 525 
L 1159 -1331 
L 581 -1331 
L 581 3500 
L 1159 3500 
L 1159 2969 
Q 1341 3281 1617 3432 
Q 1894 3584 2278 3584 
Q 2916 3584 3314 3078 
Q 3713 2572 3713 1747 
Q 3713 922 3314 415 
Q 2916 -91 2278 -91 
Q 1894 -91 1617 61 
Q 1341 213 1159 525 
z
M 3116 1747 
Q 3116 2381 2855 2742 
Q 2594 3103 2138 3103 
Q 1681 3103 1420 2742 
Q 1159 2381 1159 1747 
Q 1159 1113 1420 752 
Q 1681 391 2138 391 
Q 2594 391 2855 752 
Q 3116 1113 3116 1747 
z
" transform="scale(0.015625)"/>
       <path id="DejaVuSans-54" d="M -19 4666 
L 3928 4666 
L 3928 4134 
L 2272 4134 
L 2272 0 
L 1638 0 
L 1638 4134 
L -19 4134 
L -19 4666 
z
" transform="scale(0.015625)"/>
       <path id="DejaVuSans-72" d="M 2631 2963 
Q 2534 3019 2420 3045 
Q 2306 3072 2169 3072 
Q 1681 3072 1420 2755 
Q 1159 2438 1159 1844 
L 1159 0 
L 581 0 
L 581 3500 
L 1159 3500 
L 1159 2956 
Q 1341 3275 1631 3429 
Q 1922 3584 2338 3584 
Q 2397 3584 2469 3576 
Q 2541 3569 2628 3553 
L 2631 2963 
z
" transform="scale(0.015625)"/>
       <path id="DejaVuSans-61" d="M 2194 1759 
Q 1497 1759 1228 1600 
Q 959 1441 959 1056 
Q 959 750 1161 570 
Q 1363 391 1709 391 
Q 2188 391 2477 730 
Q 2766 1069 2766 1631 
L 2766 1759 
L 2194 1759 
z
M 3341 1997 
L 3341 0 
L 2766 0 
L 2766 531 
Q 2569 213 2275 61 
Q 1981 -91 1556 -91 
Q 1019 -91 701 211 
Q 384 513 384 1019 
Q 384 1609 779 1909 
Q 1175 2209 1959 2209 
L 2766 2209 
L 2766 2266 
Q 2766 2663 2505 2880 
Q 2244 3097 1772 3097 
Q 1472 3097 1187 3025 
Q 903 2953 641 2809 
L 641 3341 
Q 956 3463 1253 3523 
Q 1550 3584 1831 3584 
Q 2591 3584 2966 3190 
Q 3341 2797 3341 1997 
z
" transform="scale(0.015625)"/>
       <path id="DejaVuSans-63" d="M 3122 3366 
L 3122 2828 
Q 2878 2963 2633 3030 
Q 2388 3097 2138 3097 
Q 1578 3097 1268 2742 
Q 959 2388 959 1747 
Q 959 1106 1268 751 
Q 1578 397 2138 397 
Q 2388 397 2633 464 
Q 2878 531 3122 666 
L 3122 134 
Q 2881 22 2623 -34 
Q 2366 -91 2075 -91 
Q 1284 -91 818 406 
Q 353 903 353 1747 
Q 353 2603 823 3093 
Q 1294 3584 2113 3584 
Q 2378 3584 2631 3529 
Q 2884 3475 3122 3366 
z
" transform="scale(0.015625)"/>
       <path id="DejaVuSans-6b" d="M 581 4863 
L 1159 4863 
L 1159 1991 
L 2875 3500 
L 3609 3500 
L 1753 1863 
L 3688 0 
L 2938 0 
L 1159 1709 
L 1159 0 
L 581 0 
L 581 4863 
z
" transform="scale(0.015625)"/>
      </defs>
      <use xlink:href="#DejaVuSans-4f"/>
      <use xlink:href="#DejaVuSans-70" x="78.710938"/>
      <use xlink:href="#DejaVuSans-74" x="142.1875"/>
      <use xlink:href="#DejaVuSans-69" x="181.396484"/>
      <use xlink:href="#DejaVuSans-54" x="209.179688"/>
      <use xlink:href="#DejaVuSans-72" x="255.513672"/>
      <use xlink:href="#DejaVuSans-61" x="296.626953"/>
      <use xlink:href="#DejaVuSans-63" x="357.90625"/>
      <use xlink:href="#DejaVuSans-6b" x="412.886719"/>
     </g>
    </g>
    <g id="line2d_37">
     <path d="M 563.920313 88.256563 
L 573.920313 88.256563 
L 583.920313 88.256563 
" style="fill: none; stroke: #008000; stroke-width: 1.5; stroke-linecap: square"/>
    </g>
    <g id="text_20">
     <!-- Kalman -->
     <g transform="translate(591.920313 91.756563)scale(0.1 -0.1)">
      <defs>
       <path id="DejaVuSans-4b" d="M 628 4666 
L 1259 4666 
L 1259 2694 
L 3353 4666 
L 4166 4666 
L 1850 2491 
L 4331 0 
L 3500 0 
L 1259 2247 
L 1259 0 
L 628 0 
L 628 4666 
z
" transform="scale(0.015625)"/>
       <path id="DejaVuSans-6c" d="M 603 4863 
L 1178 4863 
L 1178 0 
L 603 0 
L 603 4863 
z
" transform="scale(0.015625)"/>
       <path id="DejaVuSans-6d" d="M 3328 2828 
Q 3544 3216 3844 3400 
Q 4144 3584 4550 3584 
Q 5097 3584 5394 3201 
Q 5691 2819 5691 2113 
L 5691 0 
L 5113 0 
L 5113 2094 
Q 5113 2597 4934 2840 
Q 4756 3084 4391 3084 
Q 3944 3084 3684 2787 
Q 3425 2491 3425 1978 
L 3425 0 
L 2847 0 
L 2847 2094 
Q 2847 2600 2669 2842 
Q 2491 3084 2119 3084 
Q 1678 3084 1418 2786 
Q 1159 2488 1159 1978 
L 1159 0 
L 581 0 
L 581 3500 
L 1159 3500 
L 1159 2956 
Q 1356 3278 1631 3431 
Q 1906 3584 2284 3584 
Q 2666 3584 2933 3390 
Q 3200 3197 3328 2828 
z
" transform="scale(0.015625)"/>
      </defs>
      <use xlink:href="#DejaVuSans-4b"/>
      <use xlink:href="#DejaVuSans-61" x="63.826172"/>
      <use xlink:href="#DejaVuSans-6c" x="125.105469"/>
      <use xlink:href="#DejaVuSans-6d" x="152.888672"/>
      <use xlink:href="#DejaVuSans-61" x="250.300781"/>
      <use xlink:href="#DejaVuSans-6e" x="311.580078"/>
     </g>
    </g>
    <g id="line2d_38">
     <path d="M 563.920313 102.934687 
L 573.920313 102.934687 
L 583.920313 102.934687 
" style="fill: none; stroke-dasharray: 5.55,2.4; stroke-dashoffset: 0; stroke: #0000ff; stroke-width: 1.5"/>
    </g>
    <g id="text_21">
     <!-- Desired -->
     <g transform="translate(591.920313 106.434687)scale(0.1 -0.1)">
      <defs>
       <path id="DejaVuSans-44" d="M 1259 4147 
L 1259 519 
L 2022 519 
Q 2988 519 3436 956 
Q 3884 1394 3884 2338 
Q 3884 3275 3436 3711 
Q 2988 4147 2022 4147 
L 1259 4147 
z
M 628 4666 
L 1925 4666 
Q 3281 4666 3915 4102 
Q 4550 3538 4550 2338 
Q 4550 1131 3912 565 
Q 3275 0 1925 0 
L 628 0 
L 628 4666 
z
" transform="scale(0.015625)"/>
       <path id="DejaVuSans-65" d="M 3597 1894 
L 3597 1613 
L 953 1613 
Q 991 1019 1311 708 
Q 1631 397 2203 397 
Q 2534 397 2845 478 
Q 3156 559 3463 722 
L 3463 178 
Q 3153 47 2828 -22 
Q 2503 -91 2169 -91 
Q 1331 -91 842 396 
Q 353 884 353 1716 
Q 353 2575 817 3079 
Q 1281 3584 2069 3584 
Q 2775 3584 3186 3129 
Q 3597 2675 3597 1894 
z
M 3022 2063 
Q 3016 2534 2758 2815 
Q 2500 3097 2075 3097 
Q 1594 3097 1305 2825 
Q 1016 2553 972 2059 
L 3022 2063 
z
" transform="scale(0.015625)"/>
       <path id="DejaVuSans-64" d="M 2906 2969 
L 2906 4863 
L 3481 4863 
L 3481 0 
L 2906 0 
L 2906 525 
Q 2725 213 2448 61 
Q 2172 -91 1784 -91 
Q 1150 -91 751 415 
Q 353 922 353 1747 
Q 353 2572 751 3078 
Q 1150 3584 1784 3584 
Q 2172 3584 2448 3432 
Q 2725 3281 2906 2969 
z
M 947 1747 
Q 947 1113 1208 752 
Q 1469 391 1925 391 
Q 2381 391 2643 752 
Q 2906 1113 2906 1747 
Q 2906 2381 2643 2742 
Q 2381 3103 1925 3103 
Q 1469 3103 1208 2742 
Q 947 2381 947 1747 
z
" transform="scale(0.015625)"/>
      </defs>
      <use xlink:href="#DejaVuSans-44"/>
      <use xlink:href="#DejaVuSans-65" x="77.001953"/>
      <use xlink:href="#DejaVuSans-73" x="138.525391"/>
      <use xlink:href="#DejaVuSans-69" x="190.625"/>
      <use xlink:href="#DejaVuSans-72" x="218.408203"/>
      <use xlink:href="#DejaVuSans-65" x="257.271484"/>
      <use xlink:href="#DejaVuSans-64" x="318.794922"/>
     </g>
    </g>
   </g>
  </g>
 </g>
 <defs>
  <clipPath id="pf367d73023">
   <rect x="90" y="60.48" width="558" height="388.08"/>
  </clipPath>
 </defs>
</svg>
