<?xml version="1.0" encoding="utf-8" standalone="no"?>
<!DOCTYPE svg PUBLIC "-//W3C//DTD SVG 1.1//EN"
  "http://www.w3.org/Graphics/SVG/1.1/DTD/svg11.dtd">
<svg xmlns:xlink="http://www.w3.org/1999/xlink" width="720pt" height="504pt" viewBox="0 0 720 504" xmlns="http://www.w3.org/2000/svg" version="1.1">
 <metadata>
  <rdf:RDF xmlns:dc="http://purl.org/dc/elements/1.1/" xmlns:cc="http://creativecommons.org/ns#" xmlns:rdf="http://www.w3.org/1999/02/22-rdf-syntax-ns#">
   <cc:Work>
    <dc:type rdf:resource="http://purl.org/dc/dcmitype/StillImage"/>
    <dc:date>2024-02-15T17:06:40.595672</dc:date>
    <dc:format>image/svg+xml</dc:format>
    <dc:creator>
     <cc:Agent>
      <dc:title>Matplotlib v3.5.1, https://matplotlib.org/</dc:title>
     </cc:Agent>
    </dc:creator>
   </cc:Work>
  </rdf:RDF>
 </metadata>
 <defs>
  <style type="text/css">*{stroke-linejoin: round; stroke-linecap: butt}</style>
 </defs>
 <g id="figure_1">
  <g id="patch_1">
   <path d="M 0 504 
L 720 504 
L 720 0 
L 0 0 
z
" style="fill: #ffffff"/>
  </g>
  <g id="axes_1">
   <g id="patch_2">
    <path d="M 90 448.56 
L 648 448.56 
L 648 60.48 
L 90 60.48 
z
" style="fill: #ffffff"/>
   </g>
   <g id="matplotlib.axis_1">
    <g id="xtick_1">
     <g id="line2d_1">
      <path d="M 102.186782 448.56 
L 102.186782 60.48 
" clip-path="url(#p081631ad68)" style="fill: none; stroke: #b0b0b0; stroke-width: 0.8; stroke-linecap: square"/>
     </g>
     <g id="line2d_2">
      <defs>
       <path id="mf08b3ea782" d="M 0 0 
L 0 3.5 
" style="stroke: #000000; stroke-width: 0.8"/>
      </defs>
      <g>
       <use xlink:href="#mf08b3ea782" x="102.186782" y="448.56" style="stroke: #000000; stroke-width: 0.8"/>
      </g>
     </g>
     <g id="text_1">
      <!-- −1.5 -->
      <g transform="translate(90.045376 463.158437)scale(0.1 -0.1)">
       <defs>
        <path id="DejaVuSans-2212" d="M 678 2272 
L 4684 2272 
L 4684 1741 
L 678 1741 
L 678 2272 
z
" transform="scale(0.015625)"/>
        <path id="DejaVuSans-31" d="M 794 531 
L 1825 531 
L 1825 4091 
L 703 3866 
L 703 4441 
L 1819 4666 
L 2450 4666 
L 2450 531 
L 3481 531 
L 3481 0 
L 794 0 
L 794 531 
z
" transform="scale(0.015625)"/>
        <path id="DejaVuSans-2e" d="M 684 794 
L 1344 794 
L 1344 0 
L 684 0 
L 684 794 
z
" transform="scale(0.015625)"/>
        <path id="DejaVuSans-35" d="M 691 4666 
L 3169 4666 
L 3169 4134 
L 1269 4134 
L 1269 2991 
Q 1406 3038 1543 3061 
Q 1681 3084 1819 3084 
Q 2600 3084 3056 2656 
Q 3513 2228 3513 1497 
Q 3513 744 3044 326 
Q 2575 -91 1722 -91 
Q 1428 -91 1123 -41 
Q 819 9 494 109 
L 494 744 
Q 775 591 1075 516 
Q 1375 441 1709 441 
Q 2250 441 2565 725 
Q 2881 1009 2881 1497 
Q 2881 1984 2565 2268 
Q 2250 2553 1709 2553 
Q 1456 2553 1204 2497 
Q 953 2441 691 2322 
L 691 4666 
z
" transform="scale(0.015625)"/>
       </defs>
       <use xlink:href="#DejaVuSans-2212"/>
       <use xlink:href="#DejaVuSans-31" x="83.789062"/>
       <use xlink:href="#DejaVuSans-2e" x="147.412109"/>
       <use xlink:href="#DejaVuSans-35" x="179.199219"/>
      </g>
     </g>
    </g>
    <g id="xtick_2">
     <g id="line2d_3">
      <path d="M 190.390167 448.56 
L 190.390167 60.48 
" clip-path="url(#p081631ad68)" style="fill: none; stroke: #b0b0b0; stroke-width: 0.8; stroke-linecap: square"/>
     </g>
     <g id="line2d_4">
      <g>
       <use xlink:href="#mf08b3ea782" x="190.390167" y="448.56" style="stroke: #000000; stroke-width: 0.8"/>
      </g>
     </g>
     <g id="text_2">
      <!-- −1.0 -->
      <g transform="translate(178.248761 463.158437)scale(0.1 -0.1)">
       <defs>
        <path id="DejaVuSans-30" d="M 2034 4250 
Q 1547 4250 1301 3770 
Q 1056 3291 1056 2328 
Q 1056 1369 1301 889 
Q 1547 409 2034 409 
Q 2525 409 2770 889 
Q 3016 1369 3016 2328 
Q 3016 3291 2770 3770 
Q 2525 4250 2034 4250 
z
M 2034 4750 
Q 2819 4750 3233 4129 
Q 3647 3509 3647 2328 
Q 3647 1150 3233 529 
Q 2819 -91 2034 -91 
Q 1250 -91 836 529 
Q 422 1150 422 2328 
Q 422 3509 836 4129 
Q 1250 4750 2034 4750 
z
" transform="scale(0.015625)"/>
       </defs>
       <use xlink:href="#DejaVuSans-2212"/>
       <use xlink:href="#DejaVuSans-31" x="83.789062"/>
       <use xlink:href="#DejaVuSans-2e" x="147.412109"/>
       <use xlink:href="#DejaVuSans-30" x="179.199219"/>
      </g>
     </g>
    </g>
    <g id="xtick_3">
     <g id="line2d_5">
      <path d="M 278.593553 448.56 
L 278.593553 60.48 
" clip-path="url(#p081631ad68)" style="fill: none; stroke: #b0b0b0; stroke-width: 0.8; stroke-linecap: square"/>
     </g>
     <g id="line2d_6">
      <g>
       <use xlink:href="#mf08b3ea782" x="278.593553" y="448.56" style="stroke: #000000; stroke-width: 0.8"/>
      </g>
     </g>
     <g id="text_3">
      <!-- −0.5 -->
      <g transform="translate(266.452147 463.158437)scale(0.1 -0.1)">
       <use xlink:href="#DejaVuSans-2212"/>
       <use xlink:href="#DejaVuSans-30" x="83.789062"/>
       <use xlink:href="#DejaVuSans-2e" x="147.412109"/>
       <use xlink:href="#DejaVuSans-35" x="179.199219"/>
      </g>
     </g>
    </g>
    <g id="xtick_4">
     <g id="line2d_7">
      <path d="M 366.796938 448.56 
L 366.796938 60.48 
" clip-path="url(#p081631ad68)" style="fill: none; stroke: #b0b0b0; stroke-width: 0.8; stroke-linecap: square"/>
     </g>
     <g id="line2d_8">
      <g>
       <use xlink:href="#mf08b3ea782" x="366.796938" y="448.56" style="stroke: #000000; stroke-width: 0.8"/>
      </g>
     </g>
     <g id="text_4">
      <!-- 0.0 -->
      <g transform="translate(358.845376 463.158437)scale(0.1 -0.1)">
       <use xlink:href="#DejaVuSans-30"/>
       <use xlink:href="#DejaVuSans-2e" x="63.623047"/>
       <use xlink:href="#DejaVuSans-30" x="95.410156"/>
      </g>
     </g>
    </g>
    <g id="xtick_5">
     <g id="line2d_9">
      <path d="M 455.000324 448.56 
L 455.000324 60.48 
" clip-path="url(#p081631ad68)" style="fill: none; stroke: #b0b0b0; stroke-width: 0.8; stroke-linecap: square"/>
     </g>
     <g id="line2d_10">
      <g>
       <use xlink:href="#mf08b3ea782" x="455.000324" y="448.56" style="stroke: #000000; stroke-width: 0.8"/>
      </g>
     </g>
     <g id="text_5">
      <!-- 0.5 -->
      <g transform="translate(447.048761 463.158437)scale(0.1 -0.1)">
       <use xlink:href="#DejaVuSans-30"/>
       <use xlink:href="#DejaVuSans-2e" x="63.623047"/>
       <use xlink:href="#DejaVuSans-35" x="95.410156"/>
      </g>
     </g>
    </g>
    <g id="xtick_6">
     <g id="line2d_11">
      <path d="M 543.203709 448.56 
L 543.203709 60.48 
" clip-path="url(#p081631ad68)" style="fill: none; stroke: #b0b0b0; stroke-width: 0.8; stroke-linecap: square"/>
     </g>
     <g id="line2d_12">
      <g>
       <use xlink:href="#mf08b3ea782" x="543.203709" y="448.56" style="stroke: #000000; stroke-width: 0.8"/>
      </g>
     </g>
     <g id="text_6">
      <!-- 1.0 -->
      <g transform="translate(535.252147 463.158437)scale(0.1 -0.1)">
       <use xlink:href="#DejaVuSans-31"/>
       <use xlink:href="#DejaVuSans-2e" x="63.623047"/>
       <use xlink:href="#DejaVuSans-30" x="95.410156"/>
      </g>
     </g>
    </g>
    <g id="xtick_7">
     <g id="line2d_13">
      <path d="M 631.407095 448.56 
L 631.407095 60.48 
" clip-path="url(#p081631ad68)" style="fill: none; stroke: #b0b0b0; stroke-width: 0.8; stroke-linecap: square"/>
     </g>
     <g id="line2d_14">
      <g>
       <use xlink:href="#mf08b3ea782" x="631.407095" y="448.56" style="stroke: #000000; stroke-width: 0.8"/>
      </g>
     </g>
     <g id="text_7">
      <!-- 1.5 -->
      <g transform="translate(623.455532 463.158437)scale(0.1 -0.1)">
       <use xlink:href="#DejaVuSans-31"/>
       <use xlink:href="#DejaVuSans-2e" x="63.623047"/>
       <use xlink:href="#DejaVuSans-35" x="95.410156"/>
      </g>
     </g>
    </g>
    <g id="text_8">
     <!-- Position (X) -->
     <g transform="translate(340.620313 476.836563)scale(0.1 -0.1)">
      <defs>
       <path id="DejaVuSans-50" d="M 1259 4147 
L 1259 2394 
L 2053 2394 
Q 2494 2394 2734 2622 
Q 2975 2850 2975 3272 
Q 2975 3691 2734 3919 
Q 2494 4147 2053 4147 
L 1259 4147 
z
M 628 4666 
L 2053 4666 
Q 2838 4666 3239 4311 
Q 3641 3956 3641 3272 
Q 3641 2581 3239 2228 
Q 2838 1875 2053 1875 
L 1259 1875 
L 1259 0 
L 628 0 
L 628 4666 
z
" transform="scale(0.015625)"/>
       <path id="DejaVuSans-6f" d="M 1959 3097 
Q 1497 3097 1228 2736 
Q 959 2375 959 1747 
Q 959 1119 1226 758 
Q 1494 397 1959 397 
Q 2419 397 2687 759 
Q 2956 1122 2956 1747 
Q 2956 2369 2687 2733 
Q 2419 3097 1959 3097 
z
M 1959 3584 
Q 2709 3584 3137 3096 
Q 3566 2609 3566 1747 
Q 3566 888 3137 398 
Q 2709 -91 1959 -91 
Q 1206 -91 779 398 
Q 353 888 353 1747 
Q 353 2609 779 3096 
Q 1206 3584 1959 3584 
z
" transform="scale(0.015625)"/>
       <path id="DejaVuSans-73" d="M 2834 3397 
L 2834 2853 
Q 2591 2978 2328 3040 
Q 2066 3103 1784 3103 
Q 1356 3103 1142 2972 
Q 928 2841 928 2578 
Q 928 2378 1081 2264 
Q 1234 2150 1697 2047 
L 1894 2003 
Q 2506 1872 2764 1633 
Q 3022 1394 3022 966 
Q 3022 478 2636 193 
Q 2250 -91 1575 -91 
Q 1294 -91 989 -36 
Q 684 19 347 128 
L 347 722 
Q 666 556 975 473 
Q 1284 391 1588 391 
Q 1994 391 2212 530 
Q 2431 669 2431 922 
Q 2431 1156 2273 1281 
Q 2116 1406 1581 1522 
L 1381 1569 
Q 847 1681 609 1914 
Q 372 2147 372 2553 
Q 372 3047 722 3315 
Q 1072 3584 1716 3584 
Q 2034 3584 2315 3537 
Q 2597 3491 2834 3397 
z
" transform="scale(0.015625)"/>
       <path id="DejaVuSans-69" d="M 603 3500 
L 1178 3500 
L 1178 0 
L 603 0 
L 603 3500 
z
M 603 4863 
L 1178 4863 
L 1178 4134 
L 603 4134 
L 603 4863 
z
" transform="scale(0.015625)"/>
       <path id="DejaVuSans-74" d="M 1172 4494 
L 1172 3500 
L 2356 3500 
L 2356 3053 
L 1172 3053 
L 1172 1153 
Q 1172 725 1289 603 
Q 1406 481 1766 481 
L 2356 481 
L 2356 0 
L 1766 0 
Q 1100 0 847 248 
Q 594 497 594 1153 
L 594 3053 
L 172 3053 
L 172 3500 
L 594 3500 
L 594 4494 
L 1172 4494 
z
" transform="scale(0.015625)"/>
       <path id="DejaVuSans-6e" d="M 3513 2113 
L 3513 0 
L 2938 0 
L 2938 2094 
Q 2938 2591 2744 2837 
Q 2550 3084 2163 3084 
Q 1697 3084 1428 2787 
Q 1159 2491 1159 1978 
L 1159 0 
L 581 0 
L 581 3500 
L 1159 3500 
L 1159 2956 
Q 1366 3272 1645 3428 
Q 1925 3584 2291 3584 
Q 2894 3584 3203 3211 
Q 3513 2838 3513 2113 
z
" transform="scale(0.015625)"/>
       <path id="DejaVuSans-20" transform="scale(0.015625)"/>
       <path id="DejaVuSans-28" d="M 1984 4856 
Q 1566 4138 1362 3434 
Q 1159 2731 1159 2009 
Q 1159 1288 1364 580 
Q 1569 -128 1984 -844 
L 1484 -844 
Q 1016 -109 783 600 
Q 550 1309 550 2009 
Q 550 2706 781 3412 
Q 1013 4119 1484 4856 
L 1984 4856 
z
" transform="scale(0.015625)"/>
       <path id="DejaVuSans-58" d="M 403 4666 
L 1081 4666 
L 2241 2931 
L 3406 4666 
L 4084 4666 
L 2584 2425 
L 4184 0 
L 3506 0 
L 2194 1984 
L 872 0 
L 191 0 
L 1856 2491 
L 403 4666 
z
" transform="scale(0.015625)"/>
       <path id="DejaVuSans-29" d="M 513 4856 
L 1013 4856 
Q 1481 4119 1714 3412 
Q 1947 2706 1947 2009 
Q 1947 1309 1714 600 
Q 1481 -109 1013 -844 
L 513 -844 
Q 928 -128 1133 580 
Q 1338 1288 1338 2009 
Q 1338 2731 1133 3434 
Q 928 4138 513 4856 
z
" transform="scale(0.015625)"/>
      </defs>
      <use xlink:href="#DejaVuSans-50"/>
      <use xlink:href="#DejaVuSans-6f" x="56.677734"/>
      <use xlink:href="#DejaVuSans-73" x="117.859375"/>
      <use xlink:href="#DejaVuSans-69" x="169.958984"/>
      <use xlink:href="#DejaVuSans-74" x="197.742188"/>
      <use xlink:href="#DejaVuSans-69" x="236.951172"/>
      <use xlink:href="#DejaVuSans-6f" x="264.734375"/>
      <use xlink:href="#DejaVuSans-6e" x="325.916016"/>
      <use xlink:href="#DejaVuSans-20" x="389.294922"/>
      <use xlink:href="#DejaVuSans-28" x="421.082031"/>
      <use xlink:href="#DejaVuSans-58" x="460.095703"/>
      <use xlink:href="#DejaVuSans-29" x="528.601562"/>
     </g>
    </g>
   </g>
   <g id="matplotlib.axis_2">
    <g id="ytick_1">
     <g id="line2d_15">
      <path d="M 90 430.925863 
L 648 430.925863 
" clip-path="url(#p081631ad68)" style="fill: none; stroke: #b0b0b0; stroke-width: 0.8; stroke-linecap: square"/>
     </g>
     <g id="line2d_16">
      <defs>
       <path id="md2dabc1156" d="M 0 0 
L -3.5 0 
" style="stroke: #000000; stroke-width: 0.8"/>
      </defs>
      <g>
       <use xlink:href="#md2dabc1156" x="90" y="430.925863" style="stroke: #000000; stroke-width: 0.8"/>
      </g>
     </g>
     <g id="text_9">
      <!-- −1.00 -->
      <g transform="translate(52.354687 434.725081)scale(0.1 -0.1)">
       <use xlink:href="#DejaVuSans-2212"/>
       <use xlink:href="#DejaVuSans-31" x="83.789062"/>
       <use xlink:href="#DejaVuSans-2e" x="147.412109"/>
       <use xlink:href="#DejaVuSans-30" x="179.199219"/>
       <use xlink:href="#DejaVuSans-30" x="242.822266"/>
      </g>
     </g>
    </g>
    <g id="ytick_2">
     <g id="line2d_17">
      <path d="M 90 386.82417 
L 648 386.82417 
" clip-path="url(#p081631ad68)" style="fill: none; stroke: #b0b0b0; stroke-width: 0.8; stroke-linecap: square"/>
     </g>
     <g id="line2d_18">
      <g>
       <use xlink:href="#md2dabc1156" x="90" y="386.82417" style="stroke: #000000; stroke-width: 0.8"/>
      </g>
     </g>
     <g id="text_10">
      <!-- −0.75 -->
      <g transform="translate(52.354687 390.623389)scale(0.1 -0.1)">
       <defs>
        <path id="DejaVuSans-37" d="M 525 4666 
L 3525 4666 
L 3525 4397 
L 1831 0 
L 1172 0 
L 2766 4134 
L 525 4134 
L 525 4666 
z
" transform="scale(0.015625)"/>
       </defs>
       <use xlink:href="#DejaVuSans-2212"/>
       <use xlink:href="#DejaVuSans-30" x="83.789062"/>
       <use xlink:href="#DejaVuSans-2e" x="147.412109"/>
       <use xlink:href="#DejaVuSans-37" x="179.199219"/>
       <use xlink:href="#DejaVuSans-35" x="242.822266"/>
      </g>
     </g>
    </g>
    <g id="ytick_3">
     <g id="line2d_19">
      <path d="M 90 342.722477 
L 648 342.722477 
" clip-path="url(#p081631ad68)" style="fill: none; stroke: #b0b0b0; stroke-width: 0.8; stroke-linecap: square"/>
     </g>
     <g id="line2d_20">
      <g>
       <use xlink:href="#md2dabc1156" x="90" y="342.722477" style="stroke: #000000; stroke-width: 0.8"/>
      </g>
     </g>
     <g id="text_11">
      <!-- −0.50 -->
      <g transform="translate(52.354687 346.521696)scale(0.1 -0.1)">
       <use xlink:href="#DejaVuSans-2212"/>
       <use xlink:href="#DejaVuSans-30" x="83.789062"/>
       <use xlink:href="#DejaVuSans-2e" x="147.412109"/>
       <use xlink:href="#DejaVuSans-35" x="179.199219"/>
       <use xlink:href="#DejaVuSans-30" x="242.822266"/>
      </g>
     </g>
    </g>
    <g id="ytick_4">
     <g id="line2d_21">
      <path d="M 90 298.620784 
L 648 298.620784 
" clip-path="url(#p081631ad68)" style="fill: none; stroke: #b0b0b0; stroke-width: 0.8; stroke-linecap: square"/>
     </g>
     <g id="line2d_22">
      <g>
       <use xlink:href="#md2dabc1156" x="90" y="298.620784" style="stroke: #000000; stroke-width: 0.8"/>
      </g>
     </g>
     <g id="text_12">
      <!-- −0.25 -->
      <g transform="translate(52.354687 302.420003)scale(0.1 -0.1)">
       <defs>
        <path id="DejaVuSans-32" d="M 1228 531 
L 3431 531 
L 3431 0 
L 469 0 
L 469 531 
Q 828 903 1448 1529 
Q 2069 2156 2228 2338 
Q 2531 2678 2651 2914 
Q 2772 3150 2772 3378 
Q 2772 3750 2511 3984 
Q 2250 4219 1831 4219 
Q 1534 4219 1204 4116 
Q 875 4013 500 3803 
L 500 4441 
Q 881 4594 1212 4672 
Q 1544 4750 1819 4750 
Q 2544 4750 2975 4387 
Q 3406 4025 3406 3419 
Q 3406 3131 3298 2873 
Q 3191 2616 2906 2266 
Q 2828 2175 2409 1742 
Q 1991 1309 1228 531 
z
" transform="scale(0.015625)"/>
       </defs>
       <use xlink:href="#DejaVuSans-2212"/>
       <use xlink:href="#DejaVuSans-30" x="83.789062"/>
       <use xlink:href="#DejaVuSans-2e" x="147.412109"/>
       <use xlink:href="#DejaVuSans-32" x="179.199219"/>
       <use xlink:href="#DejaVuSans-35" x="242.822266"/>
      </g>
     </g>
    </g>
    <g id="ytick_5">
     <g id="line2d_23">
      <path d="M 90 254.519092 
L 648 254.519092 
" clip-path="url(#p081631ad68)" style="fill: none; stroke: #b0b0b0; stroke-width: 0.8; stroke-linecap: square"/>
     </g>
     <g id="line2d_24">
      <g>
       <use xlink:href="#md2dabc1156" x="90" y="254.519092" style="stroke: #000000; stroke-width: 0.8"/>
      </g>
     </g>
     <g id="text_13">
      <!-- 0.00 -->
      <g transform="translate(60.734375 258.31831)scale(0.1 -0.1)">
       <use xlink:href="#DejaVuSans-30"/>
       <use xlink:href="#DejaVuSans-2e" x="63.623047"/>
       <use xlink:href="#DejaVuSans-30" x="95.410156"/>
       <use xlink:href="#DejaVuSans-30" x="159.033203"/>
      </g>
     </g>
    </g>
    <g id="ytick_6">
     <g id="line2d_25">
      <path d="M 90 210.417399 
L 648 210.417399 
" clip-path="url(#p081631ad68)" style="fill: none; stroke: #b0b0b0; stroke-width: 0.8; stroke-linecap: square"/>
     </g>
     <g id="line2d_26">
      <g>
       <use xlink:href="#md2dabc1156" x="90" y="210.417399" style="stroke: #000000; stroke-width: 0.8"/>
      </g>
     </g>
     <g id="text_14">
      <!-- 0.25 -->
      <g transform="translate(60.734375 214.216618)scale(0.1 -0.1)">
       <use xlink:href="#DejaVuSans-30"/>
       <use xlink:href="#DejaVuSans-2e" x="63.623047"/>
       <use xlink:href="#DejaVuSans-32" x="95.410156"/>
       <use xlink:href="#DejaVuSans-35" x="159.033203"/>
      </g>
     </g>
    </g>
    <g id="ytick_7">
     <g id="line2d_27">
      <path d="M 90 166.315706 
L 648 166.315706 
" clip-path="url(#p081631ad68)" style="fill: none; stroke: #b0b0b0; stroke-width: 0.8; stroke-linecap: square"/>
     </g>
     <g id="line2d_28">
      <g>
       <use xlink:href="#md2dabc1156" x="90" y="166.315706" style="stroke: #000000; stroke-width: 0.8"/>
      </g>
     </g>
     <g id="text_15">
      <!-- 0.50 -->
      <g transform="translate(60.734375 170.114925)scale(0.1 -0.1)">
       <use xlink:href="#DejaVuSans-30"/>
       <use xlink:href="#DejaVuSans-2e" x="63.623047"/>
       <use xlink:href="#DejaVuSans-35" x="95.410156"/>
       <use xlink:href="#DejaVuSans-30" x="159.033203"/>
      </g>
     </g>
    </g>
    <g id="ytick_8">
     <g id="line2d_29">
      <path d="M 90 122.214013 
L 648 122.214013 
" clip-path="url(#p081631ad68)" style="fill: none; stroke: #b0b0b0; stroke-width: 0.8; stroke-linecap: square"/>
     </g>
     <g id="line2d_30">
      <g>
       <use xlink:href="#md2dabc1156" x="90" y="122.214013" style="stroke: #000000; stroke-width: 0.8"/>
      </g>
     </g>
     <g id="text_16">
      <!-- 0.75 -->
      <g transform="translate(60.734375 126.013232)scale(0.1 -0.1)">
       <use xlink:href="#DejaVuSans-30"/>
       <use xlink:href="#DejaVuSans-2e" x="63.623047"/>
       <use xlink:href="#DejaVuSans-37" x="95.410156"/>
       <use xlink:href="#DejaVuSans-35" x="159.033203"/>
      </g>
     </g>
    </g>
    <g id="ytick_9">
     <g id="line2d_31">
      <path d="M 90 78.112321 
L 648 78.112321 
" clip-path="url(#p081631ad68)" style="fill: none; stroke: #b0b0b0; stroke-width: 0.8; stroke-linecap: square"/>
     </g>
     <g id="line2d_32">
      <g>
       <use xlink:href="#md2dabc1156" x="90" y="78.112321" style="stroke: #000000; stroke-width: 0.8"/>
      </g>
     </g>
     <g id="text_17">
      <!-- 1.00 -->
      <g transform="translate(60.734375 81.911539)scale(0.1 -0.1)">
       <use xlink:href="#DejaVuSans-31"/>
       <use xlink:href="#DejaVuSans-2e" x="63.623047"/>
       <use xlink:href="#DejaVuSans-30" x="95.410156"/>
       <use xlink:href="#DejaVuSans-30" x="159.033203"/>
      </g>
     </g>
    </g>
    <g id="text_18">
     <!-- Position (Y) -->
     <g transform="translate(46.275 282.528594)rotate(-90)scale(0.1 -0.1)">
      <defs>
       <path id="DejaVuSans-59" d="M -13 4666 
L 666 4666 
L 1959 2747 
L 3244 4666 
L 3922 4666 
L 2272 2222 
L 2272 0 
L 1638 0 
L 1638 2222 
L -13 4666 
z
" transform="scale(0.015625)"/>
      </defs>
      <use xlink:href="#DejaVuSans-50"/>
      <use xlink:href="#DejaVuSans-6f" x="56.677734"/>
      <use xlink:href="#DejaVuSans-73" x="117.859375"/>
      <use xlink:href="#DejaVuSans-69" x="169.958984"/>
      <use xlink:href="#DejaVuSans-74" x="197.742188"/>
      <use xlink:href="#DejaVuSans-69" x="236.951172"/>
      <use xlink:href="#DejaVuSans-6f" x="264.734375"/>
      <use xlink:href="#DejaVuSans-6e" x="325.916016"/>
      <use xlink:href="#DejaVuSans-20" x="389.294922"/>
      <use xlink:href="#DejaVuSans-28" x="421.082031"/>
      <use xlink:href="#DejaVuSans-59" x="460.095703"/>
      <use xlink:href="#DejaVuSans-29" x="521.179688"/>
     </g>
    </g>
   </g>
   <g id="line2d_33">
    <path d="M 546.258871 292.906055 
L 547.706235 285.604744 
L 548.542971 280.078933 
L 549.153473 269.895131 
L 549.185249 261.569181 
L 548.398731 251.428333 
L 546.863506 240.304173 
L 544.258246 227.449005 
L 542.63597 220.968564 
L 539.076305 209.77652 
L 537.136686 204.964863 
L 534.170878 198.843058 
L 532.60699 195.988684 
L 530.071726 191.869959 
L 527.297159 187.890349 
L 521.502097 180.256919 
L 516.147284 174.116177 
L 512.695899 170.482851 
L 506.571517 164.464263 
L 501.327235 159.637055 
L 494.32081 153.666514 
L 488.061295 149.155671 
L 484.767177 146.860015 
L 484.767177 146.860015 
L 481.356872 144.736821 
L 474.104026 140.653294 
L 466.466501 136.794339 
L 460.504466 134.092418 
L 450.346792 129.729863 
L 450.346792 129.729863 
L 444.061436 127.225617 
L 433.449918 123.164623 
L 426.391356 120.633828 
L 414.289873 116.601139 
L 401.41155 112.912543 
L 394.890535 111.263833 
L 390.589531 110.362737 
L 381.871517 108.732291 
L 381.871517 108.732291 
L 375.353236 107.770421 
L 364.438331 106.729217 
L 353.490038 106.339385 
L 347.00606 106.354222 
L 344.821323 106.486076 
L 342.693974 106.478515 
L 334.143466 107.187624 
L 325.639753 108.224496 
L 319.428981 109.272693 
L 313.207544 110.556533 
L 302.922953 113.235122 
L 292.855279 116.562771 
L 286.95507 118.755825 
L 286.95507 118.755825 
L 279.067633 121.982628 
L 267.661563 127.299777 
L 260.312865 131.116621 
L 253.198907 135.186363 
L 246.372546 139.592175 
L 239.804467 144.214211 
L 235.149521 147.885048 
L 230.684133 151.700199 
L 227.858885 154.334837 
L 222.516542 159.924179 
L 217.601032 165.743277 
L 213.193664 171.78678 
L 209.150313 178.099305 
L 209.150313 178.099305 
L 205.478383 184.487404 
L 203.727544 187.790176 
L 200.452731 194.362166 
L 197.491897 201.021291 
L 194.836639 207.608291 
L 192.501144 214.173005 
L 190.987579 219.117893 
L 189.220748 225.592768 
L 187.821141 232.056528 
L 186.853939 238.594093 
L 186.543609 241.916966 
L 186.455601 250.213392 
L 186.624845 253.577235 
L 187.249858 260.32517 
L 187.756875 263.667887 
L 189.278242 270.392961 
L 190.969452 276.628602 
L 193.523999 283.940698 
L 196.441839 290.560076 
L 197.211702 292.153891 
L 200.588896 298.590216 
L 204.354323 304.887008 
L 207.686178 310.00266 
L 214.155461 318.972651 
L 217.220832 322.91281 
L 224.432104 331.536022 
L 227.656067 335.26062 
L 234.445574 342.523613 
L 241.024263 349.106413 
L 246.416035 354.150675 
L 256.518449 362.619269 
L 262.530544 367.290303 
L 264.105651 368.417643 
L 268.974918 371.757331 
L 275.642371 376.078542 
L 282.617188 380.194076 
L 282.617188 380.194076 
L 289.254638 383.809542 
L 299.28214 388.785081 
L 305.139822 391.316497 
L 309.14766 392.909458 
L 327.644934 399.171023 
L 335.439829 401.276711 
L 342.724906 402.9583 
L 351.467616 404.712566 
L 360.436905 406.127892 
L 367.176225 406.949803 
L 370.88612 407.402038 
L 373.894263 407.652403 
L 382.905972 408.055556 
L 391.787401 408.185559 
L 396.151503 408.053916 
L 402.663857 407.649659 
L 406.920369 407.2133 
L 413.248832 406.379035 
L 419.388075 405.278066 
L 425.44133 403.926448 
L 425.44133 403.926448 
L 433.222964 401.677982 
L 437.020008 400.429629 
L 444.482485 397.617535 
L 444.482485 397.617535 
L 449.928639 395.176482 
L 453.604802 393.399031 
L 461.962093 388.828422 
L 464.33705 387.456606 
L 476.787883 379.795728 
L 483.811794 375.194343 
L 490.581933 370.46469 
L 497.067598 365.712357 
L 503.26228 360.770896 
L 509.456499 355.381238 
L 513.462344 351.559378 
L 520.524012 343.967971 
L 521.63966 342.572391 
L 521.63966 342.572391 
L 525.889918 336.721128 
L 528.713358 332.155046 
L 530.456405 329.080796 
L 533.625672 322.694247 
L 535.69787 317.796065 
L 537.524488 312.98414 
L 538.537354 309.759067 
L 539.993846 304.125947 
L 542.051113 294.644289 
L 542.051113 294.644289 
" clip-path="url(#p081631ad68)" style="fill: none; stroke-dasharray: 12.8,3.2,2,3.2; stroke-dashoffset: 0; stroke: #ff0000; stroke-width: 2"/>
   </g>
   <g id="line2d_34">
    <path d="M 547.592851 275.340567 
L 549.297332 275.542761 
L 551.607318 278.905109 
L 549.367701 273.095509 
L 550.828789 266.69114 
L 546.744555 255.329135 
L 548.697904 247.599909 
L 543.882381 238.818545 
L 541.910717 240.199438 
L 536.58466 233.351199 
L 537.790664 232.968476 
L 538.54124 221.495132 
L 536.772999 216.465691 
L 536.772999 216.465691 
L 537.795782 212.307566 
L 535.418306 216.299625 
L 535.91491 210.526198 
L 532.381314 208.690549 
L 535.031494 205.660509 
L 542.586335 202.24048 
L 534.19237 199.41516 
L 538.951147 191.126736 
L 536.538341 176.339481 
L 536.538341 176.339481 
L 531.684925 176.790229 
L 529.657087 173.416129 
L 522.9843 178.556904 
L 518.819854 167.212269 
L 516.848925 169.132371 
L 517.062326 168.943795 
L 518.367947 165.765485 
L 507.11144 158.351562 
L 501.582935 156.549641 
L 499.516984 154.961627 
L 506.600227 156.543561 
L 508.543326 152.707407 
L 507.276008 153.493633 
L 500.680786 158.155976 
L 504.862673 152.431324 
L 504.89797 150.508682 
L 501.531327 146.29238 
L 496.555885 142.569037 
L 491.473911 148.084287 
L 488.509191 144.050387 
L 488.509191 144.050387 
L 484.425849 146.614709 
L 473.141712 142.415847 
L 467.088973 138.427245 
L 459.838717 130.971157 
L 455.820693 130.790226 
L 445.492289 129.179966 
L 441.902217 126.738194 
L 435.26326 124.065697 
L 434.615641 120.424944 
L 431.042275 122.945177 
L 431.042275 122.945177 
L 430.571206 120.709026 
L 420.79325 109.09419 
L 411.510714 105.026183 
L 411.510714 105.026183 
L 407.663988 107.799792 
L 404.36161 112.516956 
L 402.23111 117.175557 
L 402.23111 117.175557 
L 391.878275 118.085056 
L 390.203299 120.026366 
L 387.288673 120.12268 
L 385.391577 115.375699 
L 377.056096 111.191044 
L 378.769674 106.864796 
L 378.878451 101.658279 
L 370.371637 100.101453 
L 366.202353 102.504569 
L 361.441207 98.041634 
L 358.033785 90.02686 
L 354.146516 91.331992 
L 349.02693 92.310669 
L 342.265993 99.547842 
L 340.385251 103.086451 
L 336.910221 99.302696 
L 327.072596 102.700236 
L 323.431521 101.899317 
L 319.083755 104.435879 
L 313.248499 109.49812 
L 305.67597 114.14941 
L 299.847912 115.079544 
L 296.551883 118.61122 
L 292.599261 124.680598 
L 289.677265 134.088842 
L 286.94885 129.475982 
L 284.222123 130.649825 
L 284.621412 133.099079 
L 286.49668 132.632147 
L 277.774372 136.592951 
L 276.156254 135.562687 
L 253.285073 148.04587 
L 244.327694 149.052866 
L 240.140022 152.099109 
L 241.548616 150.420574 
L 236.042328 155.929305 
L 236.31216 152.301444 
L 234.5287 156.272193 
L 233.815748 156.667646 
L 233.890882 153.850657 
L 229.064842 155.538681 
L 230.056319 157.947283 
L 229.211114 160.201532 
L 227.472429 155.983167 
L 228.832488 153.40896 
L 225.202703 154.73399 
L 215.666237 169.614854 
L 215.673157 172.992374 
L 221.288356 178.359685 
L 220.502 184.723294 
L 208.1556 189.905044 
L 209.073269 192.02388 
L 201.240938 194.199513 
L 197.022465 200.756086 
L 196.133384 202.712797 
L 195.287081 207.273959 
L 191.706363 211.567371 
L 187.750365 212.596373 
L 189.626099 219.24321 
L 192.188652 225.024182 
L 190.215053 223.773027 
L 197.428219 232.456749 
L 198.934049 233.865828 
L 199.199525 235.061624 
L 202.311266 234.498562 
L 196.900668 243.109974 
L 190.556162 247.042157 
L 190.663774 251.666861 
L 194.308622 254.815983 
L 196.182935 263.715886 
L 199.435848 267.136395 
L 196.395799 277.659049 
L 200.442827 282.636353 
L 195.742489 286.652969 
L 192.532922 282.515863 
L 192.092053 275.094786 
L 194.657679 275.363598 
L 191.202124 289.715434 
L 196.17284 290.553515 
L 201.922455 308.544281 
L 201.922455 308.544281 
L 197.63513 303.362967 
L 198.561879 312.868521 
L 203.901214 323.803551 
L 203.901214 323.803551 
L 207.724308 325.009114 
L 210.063235 330.885176 
L 209.971935 336.628078 
L 210.830398 341.230379 
L 210.830398 341.230379 
L 220.068806 343.500354 
L 226.416279 342.087037 
L 230.364975 342.841994 
L 223.312114 344.354559 
L 235.384193 350.262892 
L 239.373325 346.528492 
L 239.373325 346.528492 
L 247.88971 350.966732 
L 253.007072 354.450645 
L 262.09621 354.335405 
L 260.702998 354.659673 
L 262.752113 357.045377 
L 270.59941 355.325633 
L 278.47102 364.869098 
L 276.715967 373.971676 
L 276.715967 373.971676 
L 279.69587 381.054634 
L 281.086527 381.533788 
L 282.916314 386.111589 
L 287.058595 385.95852 
L 291.19679 395.440171 
L 296.323924 400.549155 
L 296.323924 400.549155 
L 298.466714 397.351902 
L 302.664625 401.801795 
L 305.279955 403.039812 
L 301.711194 404.892953 
L 303.543564 404.300013 
L 312.351198 404.996685 
L 314.131349 410.277362 
L 324.895632 410.530405 
L 332.458529 412.886995 
L 345.090553 417.076003 
L 359.090925 411.011746 
L 359.090925 411.011746 
L 361.599522 408.846224 
L 369.912259 413.227251 
L 370.663098 416.87113 
L 369.103574 413.20406 
L 369.103574 413.20406 
L 376.053051 416.891604 
L 383.954477 416.301032 
L 390.018382 414.49764 
L 389.234785 404.304666 
L 393.86696 413.212293 
L 396.108097 420.398544 
L 404.55446 410.94195 
L 409.60595 407.365848 
L 417.763982 401.789229 
L 418.293632 399.606869 
L 413.759512 398.802642 
L 428.510237 402.435463 
L 428.510237 402.435463 
L 430.67104 404.835829 
L 427.476346 401.868766 
L 430.260648 405.095351 
L 431.36338 402.66192 
L 436.731745 398.631781 
L 434.721752 394.457586 
L 433.278218 389.054999 
L 442.608172 381.354416 
L 442.608172 381.354416 
L 440.063148 379.997386 
L 451.142575 383.611232 
L 452.616171 388.587719 
L 456.554295 388.138396 
L 457.832458 385.349221 
L 466.80374 380.614573 
L 472.020851 379.527173 
L 471.987079 379.818134 
L 477.744403 375.986464 
L 477.339256 369.652376 
L 479.430952 372.884593 
L 482.235032 370.616075 
L 486.343217 380.439554 
L 492.752893 374.017262 
L 500.055735 371.079993 
L 503.982173 362.472418 
L 508.985536 357.314989 
L 503.961765 360.677127 
L 500.976845 351.192885 
L 501.934989 349.530284 
L 511.161197 346.659455 
L 511.161197 346.659455 
L 515.054299 343.734073 
L 531.006005 329.225907 
L 531.006005 329.225907 
L 532.051538 326.99014 
L 535.957221 310.118039 
L 535.957221 310.118039 
L 540.400348 308.937268 
L 540.3556 300.072728 
L 538.918105 297.543393 
L 534.509876 297.227808 
L 535.667285 293.322172 
L 542.760515 289.206405 
L 546.096363 281.864598 
L 541.243563 281.068813 
L 541.243563 281.068813 
" clip-path="url(#p081631ad68)" style="fill: none; stroke: #008000; stroke-width: 1.5; stroke-linecap: square"/>
   </g>
   <g id="line2d_35">
    <path d="M 543.188019 256.871871 
L 543.128036 249.352575 
L 542.743189 241.78073 
L 541.701245 231.544491 
L 540.876262 225.957968 
L 540.152038 221.848641 
L 539.227456 217.275766 
L 538.179811 212.718856 
L 535.733967 203.729041 
L 532.834014 194.928502 
L 530.21477 188.081444 
L 528.274184 183.494814 
L 524.645646 175.759112 
L 522.83363 172.227538 
L 519.884414 166.863095 
L 516.254659 160.808161 
L 513.267901 156.205277 
L 508.247642 149.110139 
L 504.703321 144.513735 
L 501.988286 141.193682 
L 496.62387 135.085777 
L 490.818838 129.068236 
L 487.710398 126.069553 
L 484.356158 122.99275 
L 478.481381 117.968976 
L 475.259915 115.396371 
L 468.15874 110.140651 
L 465.012229 107.982047 
L 457.658316 103.312085 
L 454.352546 101.374178 
L 444.912591 96.350531 
L 439.708081 93.884992 
L 435.932455 92.224208 
L 430.282864 89.932075 
L 424.238675 87.726419 
L 420.251644 86.406203 
L 415.76042 85.043647 
L 409.976281 83.478473 
L 404.662923 82.22424 
L 400.582299 81.377825 
L 394.641301 80.323683 
L 383.690456 78.923084 
L 376.260493 78.366346 
L 372.761872 78.213197 
L 361.983318 78.178008 
L 353.899617 78.584422 
L 346.274377 79.31015 
L 338.039258 80.472131 
L 333.180858 81.344879 
L 323.982195 83.386843 
L 317.728432 85.074025 
L 312.869615 86.557213 
L 304.654739 89.420043 
L 302.084912 90.410279 
L 292.43976 94.549223 
L 288.883894 96.250629 
L 282.836832 99.373839 
L 277.735649 102.24488 
L 271.549157 106.036066 
L 267.489058 108.720279 
L 263.66492 111.399786 
L 256.866364 116.55309 
L 250.549206 121.832191 
L 248.775148 123.407666 
L 241.410578 130.431987 
L 233.572498 138.887793 
L 228.241066 145.332924 
L 223.245458 151.98948 
L 218.603643 158.82115 
L 214.132301 166.128723 
L 210.243281 173.215332 
L 206.582526 180.690297 
L 203.272027 188.345439 
L 200.340579 196.109938 
L 197.777188 204.005005 
L 195.589732 212.005078 
L 193.713547 220.438475 
L 192.338289 228.374715 
L 191.304 236.58651 
L 190.930841 240.718202 
L 190.468689 249.256264 
L 190.390627 254.116331 
L 190.537868 261.73637 
L 190.903697 267.969608 
L 191.593092 275.085108 
L 192.881929 284.064286 
L 194.597 292.814395 
L 195.943855 298.43461 
L 197.092759 302.683815 
L 198.973876 308.876876 
L 201.77791 316.873475 
L 204.717991 324.159336 
L 207.503385 330.314294 
L 209.372217 334.123149 
L 213.244052 341.357217 
L 216.693716 347.192559 
L 220.893822 353.673666 
L 225.059398 359.542034 
L 228.833757 364.453205 
L 234.339123 371.027787 
L 238.206819 375.283036 
L 243.417382 380.601739 
L 246.899906 383.917896 
L 254.352584 390.44413 
L 259.316196 394.402039 
L 263.48697 397.509998 
L 267.64698 400.425345 
L 274.700477 404.977028 
L 281.479297 408.921971 
L 287.297801 411.996824 
L 294.980468 415.645575 
L 298.658909 417.235279 
L 303.113922 419.029949 
L 308.697138 421.08368 
L 316.38063 423.568033 
L 323.329976 425.486843 
L 327.073487 426.395199 
L 336.060906 428.227598 
L 343.094464 429.326247 
L 347.476087 429.864618 
L 357.322435 430.671249 
L 365.358742 430.92 
L 373.934079 430.781425 
L 378.312455 430.549605 
L 386.452942 429.827364 
L 395.053581 428.648098 
L 402.312666 427.313715 
L 409.888342 425.581887 
L 417.762075 423.403383 
L 425.633364 420.824906 
L 429.53716 419.391811 
L 437.489776 416.141713 
L 442.597247 413.810215 
L 449.873396 410.139306 
L 455.774353 406.842328 
L 462.829655 402.495665 
L 466.352939 400.148593 
L 473.220069 395.208345 
L 479.870247 389.921365 
L 483.257686 387.019066 
L 489.149606 381.598491 
L 495.047626 375.643449 
L 500.348252 369.772705 
L 505.643895 363.33486 
L 510.575647 356.729814 
L 515.232281 349.841166 
L 519.589871 342.687503 
L 523.547693 335.442201 
L 525.900723 330.711837 
L 529.221161 323.350194 
L 532.003151 316.37583 
L 534.077987 310.522659 
L 536.001476 304.410706 
L 537.305708 299.753019 
L 539.252429 291.646611 
L 540.665852 284.334351 
L 541.367082 279.90834 
L 542.026566 274.864278 
L 542.562752 269.543323 
L 542.977538 263.44911 
L 543.201403 255.421114 
L 543.201403 255.421114 
" clip-path="url(#p081631ad68)" style="fill: none; stroke-dasharray: 5.55,2.4; stroke-dashoffset: 0; stroke: #0000ff; stroke-width: 1.5"/>
   </g>
   <g id="patch_3">
    <path d="M 90 448.56 
L 90 60.48 
" style="fill: none; stroke: #000000; stroke-width: 0.8; stroke-linejoin: miter; stroke-linecap: square"/>
   </g>
   <g id="patch_4">
    <path d="M 648 448.56 
L 648 60.48 
" style="fill: none; stroke: #000000; stroke-width: 0.8; stroke-linejoin: miter; stroke-linecap: square"/>
   </g>
   <g id="patch_5">
    <path d="M 90 448.56 
L 648 448.56 
" style="fill: none; stroke: #000000; stroke-width: 0.8; stroke-linejoin: miter; stroke-linecap: square"/>
   </g>
   <g id="patch_6">
    <path d="M 90 60.48 
L 648 60.48 
" style="fill: none; stroke: #000000; stroke-width: 0.8; stroke-linejoin: miter; stroke-linecap: square"/>
   </g>
   <g id="legend_1">
    <g id="patch_7">
     <path d="M 561.920313 112.514375 
L 641 112.514375 
Q 643 112.514375 643 110.514375 
L 643 67.48 
Q 643 65.48 641 65.48 
L 561.920313 65.48 
Q 559.920313 65.48 559.920313 67.48 
L 559.920313 110.514375 
Q 559.920313 112.514375 561.920313 112.514375 
z
" style="fill: #ffffff; opacity: 0.8; stroke: #cccccc; stroke-linejoin: miter"/>
    </g>
    <g id="line2d_36">
     <path d="M 563.920313 73.578438 
L 573.920313 73.578438 
L 583.920313 73.578438 
" style="fill: none; stroke-dasharray: 12.8,3.2,2,3.2; stroke-dashoffset: 0; stroke: #ff0000; stroke-width: 2"/>
    </g>
    <g id="text_19">
     <!-- OptiTrack -->
     <g transform="translate(591.920313 77.078438)scale(0.1 -0.1)">
      <defs>
       <path id="DejaVuSans-4f" d="M 2522 4238 
Q 1834 4238 1429 3725 
Q 1025 3213 1025 2328 
Q 1025 1447 1429 934 
Q 1834 422 2522 422 
Q 3209 422 3611 934 
Q 4013 1447 4013 2328 
Q 4013 3213 3611 3725 
Q 3209 4238 2522 4238 
z
M 2522 4750 
Q 3503 4750 4090 4092 
Q 4678 3434 4678 2328 
Q 4678 1225 4090 567 
Q 3503 -91 2522 -91 
Q 1538 -91 948 565 
Q 359 1222 359 2328 
Q 359 3434 948 4092 
Q 1538 4750 2522 4750 
z
" transform="scale(0.015625)"/>
       <path id="DejaVuSans-70" d="M 1159 525 
L 1159 -1331 
L 581 -1331 
L 581 3500 
L 1159 3500 
L 1159 2969 
Q 1341 3281 1617 3432 
Q 1894 3584 2278 3584 
Q 2916 3584 3314 3078 
Q 3713 2572 3713 1747 
Q 3713 922 3314 415 
Q 2916 -91 2278 -91 
Q 1894 -91 1617 61 
Q 1341 213 1159 525 
z
M 3116 1747 
Q 3116 2381 2855 2742 
Q 2594 3103 2138 3103 
Q 1681 3103 1420 2742 
Q 1159 2381 1159 1747 
Q 1159 1113 1420 752 
Q 1681 391 2138 391 
Q 2594 391 2855 752 
Q 3116 1113 3116 1747 
z
" transform="scale(0.015625)"/>
       <path id="DejaVuSans-54" d="M -19 4666 
L 3928 4666 
L 3928 4134 
L 2272 4134 
L 2272 0 
L 1638 0 
L 1638 4134 
L -19 4134 
L -19 4666 
z
" transform="scale(0.015625)"/>
       <path id="DejaVuSans-72" d="M 2631 2963 
Q 2534 3019 2420 3045 
Q 2306 3072 2169 3072 
Q 1681 3072 1420 2755 
Q 1159 2438 1159 1844 
L 1159 0 
L 581 0 
L 581 3500 
L 1159 3500 
L 1159 2956 
Q 1341 3275 1631 3429 
Q 1922 3584 2338 3584 
Q 2397 3584 2469 3576 
Q 2541 3569 2628 3553 
L 2631 2963 
z
" transform="scale(0.015625)"/>
       <path id="DejaVuSans-61" d="M 2194 1759 
Q 1497 1759 1228 1600 
Q 959 1441 959 1056 
Q 959 750 1161 570 
Q 1363 391 1709 391 
Q 2188 391 2477 730 
Q 2766 1069 2766 1631 
L 2766 1759 
L 2194 1759 
z
M 3341 1997 
L 3341 0 
L 2766 0 
L 2766 531 
Q 2569 213 2275 61 
Q 1981 -91 1556 -91 
Q 1019 -91 701 211 
Q 384 513 384 1019 
Q 384 1609 779 1909 
Q 1175 2209 1959 2209 
L 2766 2209 
L 2766 2266 
Q 2766 2663 2505 2880 
Q 2244 3097 1772 3097 
Q 1472 3097 1187 3025 
Q 903 2953 641 2809 
L 641 3341 
Q 956 3463 1253 3523 
Q 1550 3584 1831 3584 
Q 2591 3584 2966 3190 
Q 3341 2797 3341 1997 
z
" transform="scale(0.015625)"/>
       <path id="DejaVuSans-63" d="M 3122 3366 
L 3122 2828 
Q 2878 2963 2633 3030 
Q 2388 3097 2138 3097 
Q 1578 3097 1268 2742 
Q 959 2388 959 1747 
Q 959 1106 1268 751 
Q 1578 397 2138 397 
Q 2388 397 2633 464 
Q 2878 531 3122 666 
L 3122 134 
Q 2881 22 2623 -34 
Q 2366 -91 2075 -91 
Q 1284 -91 818 406 
Q 353 903 353 1747 
Q 353 2603 823 3093 
Q 1294 3584 2113 3584 
Q 2378 3584 2631 3529 
Q 2884 3475 3122 3366 
z
" transform="scale(0.015625)"/>
       <path id="DejaVuSans-6b" d="M 581 4863 
L 1159 4863 
L 1159 1991 
L 2875 3500 
L 3609 3500 
L 1753 1863 
L 3688 0 
L 2938 0 
L 1159 1709 
L 1159 0 
L 581 0 
L 581 4863 
z
" transform="scale(0.015625)"/>
      </defs>
      <use xlink:href="#DejaVuSans-4f"/>
      <use xlink:href="#DejaVuSans-70" x="78.710938"/>
      <use xlink:href="#DejaVuSans-74" x="142.1875"/>
      <use xlink:href="#DejaVuSans-69" x="181.396484"/>
      <use xlink:href="#DejaVuSans-54" x="209.179688"/>
      <use xlink:href="#DejaVuSans-72" x="255.513672"/>
      <use xlink:href="#DejaVuSans-61" x="296.626953"/>
      <use xlink:href="#DejaVuSans-63" x="357.90625"/>
      <use xlink:href="#DejaVuSans-6b" x="412.886719"/>
     </g>
    </g>
    <g id="line2d_37">
     <path d="M 563.920313 88.256563 
L 573.920313 88.256563 
L 583.920313 88.256563 
" style="fill: none; stroke: #008000; stroke-width: 1.5; stroke-linecap: square"/>
    </g>
    <g id="text_20">
     <!-- Kalman -->
     <g transform="translate(591.920313 91.756563)scale(0.1 -0.1)">
      <defs>
       <path id="DejaVuSans-4b" d="M 628 4666 
L 1259 4666 
L 1259 2694 
L 3353 4666 
L 4166 4666 
L 1850 2491 
L 4331 0 
L 3500 0 
L 1259 2247 
L 1259 0 
L 628 0 
L 628 4666 
z
" transform="scale(0.015625)"/>
       <path id="DejaVuSans-6c" d="M 603 4863 
L 1178 4863 
L 1178 0 
L 603 0 
L 603 4863 
z
" transform="scale(0.015625)"/>
       <path id="DejaVuSans-6d" d="M 3328 2828 
Q 3544 3216 3844 3400 
Q 4144 3584 4550 3584 
Q 5097 3584 5394 3201 
Q 5691 2819 5691 2113 
L 5691 0 
L 5113 0 
L 5113 2094 
Q 5113 2597 4934 2840 
Q 4756 3084 4391 3084 
Q 3944 3084 3684 2787 
Q 3425 2491 3425 1978 
L 3425 0 
L 2847 0 
L 2847 2094 
Q 2847 2600 2669 2842 
Q 2491 3084 2119 3084 
Q 1678 3084 1418 2786 
Q 1159 2488 1159 1978 
L 1159 0 
L 581 0 
L 581 3500 
L 1159 3500 
L 1159 2956 
Q 1356 3278 1631 3431 
Q 1906 3584 2284 3584 
Q 2666 3584 2933 3390 
Q 3200 3197 3328 2828 
z
" transform="scale(0.015625)"/>
      </defs>
      <use xlink:href="#DejaVuSans-4b"/>
      <use xlink:href="#DejaVuSans-61" x="63.826172"/>
      <use xlink:href="#DejaVuSans-6c" x="125.105469"/>
      <use xlink:href="#DejaVuSans-6d" x="152.888672"/>
      <use xlink:href="#DejaVuSans-61" x="250.300781"/>
      <use xlink:href="#DejaVuSans-6e" x="311.580078"/>
     </g>
    </g>
    <g id="line2d_38">
     <path d="M 563.920313 102.934687 
L 573.920313 102.934687 
L 583.920313 102.934687 
" style="fill: none; stroke-dasharray: 5.55,2.4; stroke-dashoffset: 0; stroke: #0000ff; stroke-width: 1.5"/>
    </g>
    <g id="text_21">
     <!-- Desired -->
     <g transform="translate(591.920313 106.434687)scale(0.1 -0.1)">
      <defs>
       <path id="DejaVuSans-44" d="M 1259 4147 
L 1259 519 
L 2022 519 
Q 2988 519 3436 956 
Q 3884 1394 3884 2338 
Q 3884 3275 3436 3711 
Q 2988 4147 2022 4147 
L 1259 4147 
z
M 628 4666 
L 1925 4666 
Q 3281 4666 3915 4102 
Q 4550 3538 4550 2338 
Q 4550 1131 3912 565 
Q 3275 0 1925 0 
L 628 0 
L 628 4666 
z
" transform="scale(0.015625)"/>
       <path id="DejaVuSans-65" d="M 3597 1894 
L 3597 1613 
L 953 1613 
Q 991 1019 1311 708 
Q 1631 397 2203 397 
Q 2534 397 2845 478 
Q 3156 559 3463 722 
L 3463 178 
Q 3153 47 2828 -22 
Q 2503 -91 2169 -91 
Q 1331 -91 842 396 
Q 353 884 353 1716 
Q 353 2575 817 3079 
Q 1281 3584 2069 3584 
Q 2775 3584 3186 3129 
Q 3597 2675 3597 1894 
z
M 3022 2063 
Q 3016 2534 2758 2815 
Q 2500 3097 2075 3097 
Q 1594 3097 1305 2825 
Q 1016 2553 972 2059 
L 3022 2063 
z
" transform="scale(0.015625)"/>
       <path id="DejaVuSans-64" d="M 2906 2969 
L 2906 4863 
L 3481 4863 
L 3481 0 
L 2906 0 
L 2906 525 
Q 2725 213 2448 61 
Q 2172 -91 1784 -91 
Q 1150 -91 751 415 
Q 353 922 353 1747 
Q 353 2572 751 3078 
Q 1150 3584 1784 3584 
Q 2172 3584 2448 3432 
Q 2725 3281 2906 2969 
z
M 947 1747 
Q 947 1113 1208 752 
Q 1469 391 1925 391 
Q 2381 391 2643 752 
Q 2906 1113 2906 1747 
Q 2906 2381 2643 2742 
Q 2381 3103 1925 3103 
Q 1469 3103 1208 2742 
Q 947 2381 947 1747 
z
" transform="scale(0.015625)"/>
      </defs>
      <use xlink:href="#DejaVuSans-44"/>
      <use xlink:href="#DejaVuSans-65" x="77.001953"/>
      <use xlink:href="#DejaVuSans-73" x="138.525391"/>
      <use xlink:href="#DejaVuSans-69" x="190.625"/>
      <use xlink:href="#DejaVuSans-72" x="218.408203"/>
      <use xlink:href="#DejaVuSans-65" x="257.271484"/>
      <use xlink:href="#DejaVuSans-64" x="318.794922"/>
     </g>
    </g>
   </g>
  </g>
 </g>
 <defs>
  <clipPath id="p081631ad68">
   <rect x="90" y="60.48" width="558" height="388.08"/>
  </clipPath>
 </defs>
</svg>
