<?xml version="1.0" encoding="utf-8" standalone="no"?>
<!DOCTYPE svg PUBLIC "-//W3C//DTD SVG 1.1//EN"
  "http://www.w3.org/Graphics/SVG/1.1/DTD/svg11.dtd">
<svg xmlns:xlink="http://www.w3.org/1999/xlink" width="720pt" height="504pt" viewBox="0 0 720 504" xmlns="http://www.w3.org/2000/svg" version="1.1">
 <metadata>
  <rdf:RDF xmlns:dc="http://purl.org/dc/elements/1.1/" xmlns:cc="http://creativecommons.org/ns#" xmlns:rdf="http://www.w3.org/1999/02/22-rdf-syntax-ns#">
   <cc:Work>
    <dc:type rdf:resource="http://purl.org/dc/dcmitype/StillImage"/>
    <dc:date>2024-02-15T17:06:40.421372</dc:date>
    <dc:format>image/svg+xml</dc:format>
    <dc:creator>
     <cc:Agent>
      <dc:title>Matplotlib v3.5.1, https://matplotlib.org/</dc:title>
     </cc:Agent>
    </dc:creator>
   </cc:Work>
  </rdf:RDF>
 </metadata>
 <defs>
  <style type="text/css">*{stroke-linejoin: round; stroke-linecap: butt}</style>
 </defs>
 <g id="figure_1">
  <g id="patch_1">
   <path d="M 0 504 
L 720 504 
L 720 0 
L 0 0 
z
" style="fill: #ffffff"/>
  </g>
  <g id="axes_1">
   <g id="patch_2">
    <path d="M 90 448.56 
L 648 448.56 
L 648 60.48 
L 90 60.48 
z
" style="fill: #ffffff"/>
   </g>
   <g id="matplotlib.axis_1">
    <g id="xtick_1">
     <g id="line2d_1">
      <path d="M 101.909113 448.56 
L 101.909113 60.48 
" clip-path="url(#p5db5db75f3)" style="fill: none; stroke: #b0b0b0; stroke-width: 0.8; stroke-linecap: square"/>
     </g>
     <g id="line2d_2">
      <defs>
       <path id="m872bcefdad" d="M 0 0 
L 0 3.5 
" style="stroke: #000000; stroke-width: 0.8"/>
      </defs>
      <g>
       <use xlink:href="#m872bcefdad" x="101.909113" y="448.56" style="stroke: #000000; stroke-width: 0.8"/>
      </g>
     </g>
     <g id="text_1">
      <!-- −1.5 -->
      <g transform="translate(89.767706 463.158437)scale(0.1 -0.1)">
       <defs>
        <path id="DejaVuSans-2212" d="M 678 2272 
L 4684 2272 
L 4684 1741 
L 678 1741 
L 678 2272 
z
" transform="scale(0.015625)"/>
        <path id="DejaVuSans-31" d="M 794 531 
L 1825 531 
L 1825 4091 
L 703 3866 
L 703 4441 
L 1819 4666 
L 2450 4666 
L 2450 531 
L 3481 531 
L 3481 0 
L 794 0 
L 794 531 
z
" transform="scale(0.015625)"/>
        <path id="DejaVuSans-2e" d="M 684 794 
L 1344 794 
L 1344 0 
L 684 0 
L 684 794 
z
" transform="scale(0.015625)"/>
        <path id="DejaVuSans-35" d="M 691 4666 
L 3169 4666 
L 3169 4134 
L 1269 4134 
L 1269 2991 
Q 1406 3038 1543 3061 
Q 1681 3084 1819 3084 
Q 2600 3084 3056 2656 
Q 3513 2228 3513 1497 
Q 3513 744 3044 326 
Q 2575 -91 1722 -91 
Q 1428 -91 1123 -41 
Q 819 9 494 109 
L 494 744 
Q 775 591 1075 516 
Q 1375 441 1709 441 
Q 2250 441 2565 725 
Q 2881 1009 2881 1497 
Q 2881 1984 2565 2268 
Q 2250 2553 1709 2553 
Q 1456 2553 1204 2497 
Q 953 2441 691 2322 
L 691 4666 
z
" transform="scale(0.015625)"/>
       </defs>
       <use xlink:href="#DejaVuSans-2212"/>
       <use xlink:href="#DejaVuSans-31" x="83.789062"/>
       <use xlink:href="#DejaVuSans-2e" x="147.412109"/>
       <use xlink:href="#DejaVuSans-35" x="179.199219"/>
      </g>
     </g>
    </g>
    <g id="xtick_2">
     <g id="line2d_3">
      <path d="M 190.109925 448.56 
L 190.109925 60.48 
" clip-path="url(#p5db5db75f3)" style="fill: none; stroke: #b0b0b0; stroke-width: 0.8; stroke-linecap: square"/>
     </g>
     <g id="line2d_4">
      <g>
       <use xlink:href="#m872bcefdad" x="190.109925" y="448.56" style="stroke: #000000; stroke-width: 0.8"/>
      </g>
     </g>
     <g id="text_2">
      <!-- −1.0 -->
      <g transform="translate(177.968519 463.158437)scale(0.1 -0.1)">
       <defs>
        <path id="DejaVuSans-30" d="M 2034 4250 
Q 1547 4250 1301 3770 
Q 1056 3291 1056 2328 
Q 1056 1369 1301 889 
Q 1547 409 2034 409 
Q 2525 409 2770 889 
Q 3016 1369 3016 2328 
Q 3016 3291 2770 3770 
Q 2525 4250 2034 4250 
z
M 2034 4750 
Q 2819 4750 3233 4129 
Q 3647 3509 3647 2328 
Q 3647 1150 3233 529 
Q 2819 -91 2034 -91 
Q 1250 -91 836 529 
Q 422 1150 422 2328 
Q 422 3509 836 4129 
Q 1250 4750 2034 4750 
z
" transform="scale(0.015625)"/>
       </defs>
       <use xlink:href="#DejaVuSans-2212"/>
       <use xlink:href="#DejaVuSans-31" x="83.789062"/>
       <use xlink:href="#DejaVuSans-2e" x="147.412109"/>
       <use xlink:href="#DejaVuSans-30" x="179.199219"/>
      </g>
     </g>
    </g>
    <g id="xtick_3">
     <g id="line2d_5">
      <path d="M 278.310738 448.56 
L 278.310738 60.48 
" clip-path="url(#p5db5db75f3)" style="fill: none; stroke: #b0b0b0; stroke-width: 0.8; stroke-linecap: square"/>
     </g>
     <g id="line2d_6">
      <g>
       <use xlink:href="#m872bcefdad" x="278.310738" y="448.56" style="stroke: #000000; stroke-width: 0.8"/>
      </g>
     </g>
     <g id="text_3">
      <!-- −0.5 -->
      <g transform="translate(266.169331 463.158437)scale(0.1 -0.1)">
       <use xlink:href="#DejaVuSans-2212"/>
       <use xlink:href="#DejaVuSans-30" x="83.789062"/>
       <use xlink:href="#DejaVuSans-2e" x="147.412109"/>
       <use xlink:href="#DejaVuSans-35" x="179.199219"/>
      </g>
     </g>
    </g>
    <g id="xtick_4">
     <g id="line2d_7">
      <path d="M 366.51155 448.56 
L 366.51155 60.48 
" clip-path="url(#p5db5db75f3)" style="fill: none; stroke: #b0b0b0; stroke-width: 0.8; stroke-linecap: square"/>
     </g>
     <g id="line2d_8">
      <g>
       <use xlink:href="#m872bcefdad" x="366.51155" y="448.56" style="stroke: #000000; stroke-width: 0.8"/>
      </g>
     </g>
     <g id="text_4">
      <!-- 0.0 -->
      <g transform="translate(358.559987 463.158437)scale(0.1 -0.1)">
       <use xlink:href="#DejaVuSans-30"/>
       <use xlink:href="#DejaVuSans-2e" x="63.623047"/>
       <use xlink:href="#DejaVuSans-30" x="95.410156"/>
      </g>
     </g>
    </g>
    <g id="xtick_5">
     <g id="line2d_9">
      <path d="M 454.712362 448.56 
L 454.712362 60.48 
" clip-path="url(#p5db5db75f3)" style="fill: none; stroke: #b0b0b0; stroke-width: 0.8; stroke-linecap: square"/>
     </g>
     <g id="line2d_10">
      <g>
       <use xlink:href="#m872bcefdad" x="454.712362" y="448.56" style="stroke: #000000; stroke-width: 0.8"/>
      </g>
     </g>
     <g id="text_5">
      <!-- 0.5 -->
      <g transform="translate(446.7608 463.158437)scale(0.1 -0.1)">
       <use xlink:href="#DejaVuSans-30"/>
       <use xlink:href="#DejaVuSans-2e" x="63.623047"/>
       <use xlink:href="#DejaVuSans-35" x="95.410156"/>
      </g>
     </g>
    </g>
    <g id="xtick_6">
     <g id="line2d_11">
      <path d="M 542.913175 448.56 
L 542.913175 60.48 
" clip-path="url(#p5db5db75f3)" style="fill: none; stroke: #b0b0b0; stroke-width: 0.8; stroke-linecap: square"/>
     </g>
     <g id="line2d_12">
      <g>
       <use xlink:href="#m872bcefdad" x="542.913175" y="448.56" style="stroke: #000000; stroke-width: 0.8"/>
      </g>
     </g>
     <g id="text_6">
      <!-- 1.0 -->
      <g transform="translate(534.961612 463.158437)scale(0.1 -0.1)">
       <use xlink:href="#DejaVuSans-31"/>
       <use xlink:href="#DejaVuSans-2e" x="63.623047"/>
       <use xlink:href="#DejaVuSans-30" x="95.410156"/>
      </g>
     </g>
    </g>
    <g id="xtick_7">
     <g id="line2d_13">
      <path d="M 631.113987 448.56 
L 631.113987 60.48 
" clip-path="url(#p5db5db75f3)" style="fill: none; stroke: #b0b0b0; stroke-width: 0.8; stroke-linecap: square"/>
     </g>
     <g id="line2d_14">
      <g>
       <use xlink:href="#m872bcefdad" x="631.113987" y="448.56" style="stroke: #000000; stroke-width: 0.8"/>
      </g>
     </g>
     <g id="text_7">
      <!-- 1.5 -->
      <g transform="translate(623.162425 463.158437)scale(0.1 -0.1)">
       <use xlink:href="#DejaVuSans-31"/>
       <use xlink:href="#DejaVuSans-2e" x="63.623047"/>
       <use xlink:href="#DejaVuSans-35" x="95.410156"/>
      </g>
     </g>
    </g>
    <g id="text_8">
     <!-- Position (X) -->
     <g transform="translate(340.620313 476.836563)scale(0.1 -0.1)">
      <defs>
       <path id="DejaVuSans-50" d="M 1259 4147 
L 1259 2394 
L 2053 2394 
Q 2494 2394 2734 2622 
Q 2975 2850 2975 3272 
Q 2975 3691 2734 3919 
Q 2494 4147 2053 4147 
L 1259 4147 
z
M 628 4666 
L 2053 4666 
Q 2838 4666 3239 4311 
Q 3641 3956 3641 3272 
Q 3641 2581 3239 2228 
Q 2838 1875 2053 1875 
L 1259 1875 
L 1259 0 
L 628 0 
L 628 4666 
z
" transform="scale(0.015625)"/>
       <path id="DejaVuSans-6f" d="M 1959 3097 
Q 1497 3097 1228 2736 
Q 959 2375 959 1747 
Q 959 1119 1226 758 
Q 1494 397 1959 397 
Q 2419 397 2687 759 
Q 2956 1122 2956 1747 
Q 2956 2369 2687 2733 
Q 2419 3097 1959 3097 
z
M 1959 3584 
Q 2709 3584 3137 3096 
Q 3566 2609 3566 1747 
Q 3566 888 3137 398 
Q 2709 -91 1959 -91 
Q 1206 -91 779 398 
Q 353 888 353 1747 
Q 353 2609 779 3096 
Q 1206 3584 1959 3584 
z
" transform="scale(0.015625)"/>
       <path id="DejaVuSans-73" d="M 2834 3397 
L 2834 2853 
Q 2591 2978 2328 3040 
Q 2066 3103 1784 3103 
Q 1356 3103 1142 2972 
Q 928 2841 928 2578 
Q 928 2378 1081 2264 
Q 1234 2150 1697 2047 
L 1894 2003 
Q 2506 1872 2764 1633 
Q 3022 1394 3022 966 
Q 3022 478 2636 193 
Q 2250 -91 1575 -91 
Q 1294 -91 989 -36 
Q 684 19 347 128 
L 347 722 
Q 666 556 975 473 
Q 1284 391 1588 391 
Q 1994 391 2212 530 
Q 2431 669 2431 922 
Q 2431 1156 2273 1281 
Q 2116 1406 1581 1522 
L 1381 1569 
Q 847 1681 609 1914 
Q 372 2147 372 2553 
Q 372 3047 722 3315 
Q 1072 3584 1716 3584 
Q 2034 3584 2315 3537 
Q 2597 3491 2834 3397 
z
" transform="scale(0.015625)"/>
       <path id="DejaVuSans-69" d="M 603 3500 
L 1178 3500 
L 1178 0 
L 603 0 
L 603 3500 
z
M 603 4863 
L 1178 4863 
L 1178 4134 
L 603 4134 
L 603 4863 
z
" transform="scale(0.015625)"/>
       <path id="DejaVuSans-74" d="M 1172 4494 
L 1172 3500 
L 2356 3500 
L 2356 3053 
L 1172 3053 
L 1172 1153 
Q 1172 725 1289 603 
Q 1406 481 1766 481 
L 2356 481 
L 2356 0 
L 1766 0 
Q 1100 0 847 248 
Q 594 497 594 1153 
L 594 3053 
L 172 3053 
L 172 3500 
L 594 3500 
L 594 4494 
L 1172 4494 
z
" transform="scale(0.015625)"/>
       <path id="DejaVuSans-6e" d="M 3513 2113 
L 3513 0 
L 2938 0 
L 2938 2094 
Q 2938 2591 2744 2837 
Q 2550 3084 2163 3084 
Q 1697 3084 1428 2787 
Q 1159 2491 1159 1978 
L 1159 0 
L 581 0 
L 581 3500 
L 1159 3500 
L 1159 2956 
Q 1366 3272 1645 3428 
Q 1925 3584 2291 3584 
Q 2894 3584 3203 3211 
Q 3513 2838 3513 2113 
z
" transform="scale(0.015625)"/>
       <path id="DejaVuSans-20" transform="scale(0.015625)"/>
       <path id="DejaVuSans-28" d="M 1984 4856 
Q 1566 4138 1362 3434 
Q 1159 2731 1159 2009 
Q 1159 1288 1364 580 
Q 1569 -128 1984 -844 
L 1484 -844 
Q 1016 -109 783 600 
Q 550 1309 550 2009 
Q 550 2706 781 3412 
Q 1013 4119 1484 4856 
L 1984 4856 
z
" transform="scale(0.015625)"/>
       <path id="DejaVuSans-58" d="M 403 4666 
L 1081 4666 
L 2241 2931 
L 3406 4666 
L 4084 4666 
L 2584 2425 
L 4184 0 
L 3506 0 
L 2194 1984 
L 872 0 
L 191 0 
L 1856 2491 
L 403 4666 
z
" transform="scale(0.015625)"/>
       <path id="DejaVuSans-29" d="M 513 4856 
L 1013 4856 
Q 1481 4119 1714 3412 
Q 1947 2706 1947 2009 
Q 1947 1309 1714 600 
Q 1481 -109 1013 -844 
L 513 -844 
Q 928 -128 1133 580 
Q 1338 1288 1338 2009 
Q 1338 2731 1133 3434 
Q 928 4138 513 4856 
z
" transform="scale(0.015625)"/>
      </defs>
      <use xlink:href="#DejaVuSans-50"/>
      <use xlink:href="#DejaVuSans-6f" x="56.677734"/>
      <use xlink:href="#DejaVuSans-73" x="117.859375"/>
      <use xlink:href="#DejaVuSans-69" x="169.958984"/>
      <use xlink:href="#DejaVuSans-74" x="197.742188"/>
      <use xlink:href="#DejaVuSans-69" x="236.951172"/>
      <use xlink:href="#DejaVuSans-6f" x="264.734375"/>
      <use xlink:href="#DejaVuSans-6e" x="325.916016"/>
      <use xlink:href="#DejaVuSans-20" x="389.294922"/>
      <use xlink:href="#DejaVuSans-28" x="421.082031"/>
      <use xlink:href="#DejaVuSans-58" x="460.095703"/>
      <use xlink:href="#DejaVuSans-29" x="528.601562"/>
     </g>
    </g>
   </g>
   <g id="matplotlib.axis_2">
    <g id="ytick_1">
     <g id="line2d_15">
      <path d="M 90 430.920157 
L 648 430.920157 
" clip-path="url(#p5db5db75f3)" style="fill: none; stroke: #b0b0b0; stroke-width: 0.8; stroke-linecap: square"/>
     </g>
     <g id="line2d_16">
      <defs>
       <path id="m32f85b72e5" d="M 0 0 
L -3.5 0 
" style="stroke: #000000; stroke-width: 0.8"/>
      </defs>
      <g>
       <use xlink:href="#m32f85b72e5" x="90" y="430.920157" style="stroke: #000000; stroke-width: 0.8"/>
      </g>
     </g>
     <g id="text_9">
      <!-- −1.00 -->
      <g transform="translate(52.354687 434.719376)scale(0.1 -0.1)">
       <use xlink:href="#DejaVuSans-2212"/>
       <use xlink:href="#DejaVuSans-31" x="83.789062"/>
       <use xlink:href="#DejaVuSans-2e" x="147.412109"/>
       <use xlink:href="#DejaVuSans-30" x="179.199219"/>
       <use xlink:href="#DejaVuSans-30" x="242.822266"/>
      </g>
     </g>
    </g>
    <g id="ytick_2">
     <g id="line2d_17">
      <path d="M 90 386.819751 
L 648 386.819751 
" clip-path="url(#p5db5db75f3)" style="fill: none; stroke: #b0b0b0; stroke-width: 0.8; stroke-linecap: square"/>
     </g>
     <g id="line2d_18">
      <g>
       <use xlink:href="#m32f85b72e5" x="90" y="386.819751" style="stroke: #000000; stroke-width: 0.8"/>
      </g>
     </g>
     <g id="text_10">
      <!-- −0.75 -->
      <g transform="translate(52.354687 390.61897)scale(0.1 -0.1)">
       <defs>
        <path id="DejaVuSans-37" d="M 525 4666 
L 3525 4666 
L 3525 4397 
L 1831 0 
L 1172 0 
L 2766 4134 
L 525 4134 
L 525 4666 
z
" transform="scale(0.015625)"/>
       </defs>
       <use xlink:href="#DejaVuSans-2212"/>
       <use xlink:href="#DejaVuSans-30" x="83.789062"/>
       <use xlink:href="#DejaVuSans-2e" x="147.412109"/>
       <use xlink:href="#DejaVuSans-37" x="179.199219"/>
       <use xlink:href="#DejaVuSans-35" x="242.822266"/>
      </g>
     </g>
    </g>
    <g id="ytick_3">
     <g id="line2d_19">
      <path d="M 90 342.719345 
L 648 342.719345 
" clip-path="url(#p5db5db75f3)" style="fill: none; stroke: #b0b0b0; stroke-width: 0.8; stroke-linecap: square"/>
     </g>
     <g id="line2d_20">
      <g>
       <use xlink:href="#m32f85b72e5" x="90" y="342.719345" style="stroke: #000000; stroke-width: 0.8"/>
      </g>
     </g>
     <g id="text_11">
      <!-- −0.50 -->
      <g transform="translate(52.354687 346.518564)scale(0.1 -0.1)">
       <use xlink:href="#DejaVuSans-2212"/>
       <use xlink:href="#DejaVuSans-30" x="83.789062"/>
       <use xlink:href="#DejaVuSans-2e" x="147.412109"/>
       <use xlink:href="#DejaVuSans-35" x="179.199219"/>
       <use xlink:href="#DejaVuSans-30" x="242.822266"/>
      </g>
     </g>
    </g>
    <g id="ytick_4">
     <g id="line2d_21">
      <path d="M 90 298.618939 
L 648 298.618939 
" clip-path="url(#p5db5db75f3)" style="fill: none; stroke: #b0b0b0; stroke-width: 0.8; stroke-linecap: square"/>
     </g>
     <g id="line2d_22">
      <g>
       <use xlink:href="#m32f85b72e5" x="90" y="298.618939" style="stroke: #000000; stroke-width: 0.8"/>
      </g>
     </g>
     <g id="text_12">
      <!-- −0.25 -->
      <g transform="translate(52.354687 302.418157)scale(0.1 -0.1)">
       <defs>
        <path id="DejaVuSans-32" d="M 1228 531 
L 3431 531 
L 3431 0 
L 469 0 
L 469 531 
Q 828 903 1448 1529 
Q 2069 2156 2228 2338 
Q 2531 2678 2651 2914 
Q 2772 3150 2772 3378 
Q 2772 3750 2511 3984 
Q 2250 4219 1831 4219 
Q 1534 4219 1204 4116 
Q 875 4013 500 3803 
L 500 4441 
Q 881 4594 1212 4672 
Q 1544 4750 1819 4750 
Q 2544 4750 2975 4387 
Q 3406 4025 3406 3419 
Q 3406 3131 3298 2873 
Q 3191 2616 2906 2266 
Q 2828 2175 2409 1742 
Q 1991 1309 1228 531 
z
" transform="scale(0.015625)"/>
       </defs>
       <use xlink:href="#DejaVuSans-2212"/>
       <use xlink:href="#DejaVuSans-30" x="83.789062"/>
       <use xlink:href="#DejaVuSans-2e" x="147.412109"/>
       <use xlink:href="#DejaVuSans-32" x="179.199219"/>
       <use xlink:href="#DejaVuSans-35" x="242.822266"/>
      </g>
     </g>
    </g>
    <g id="ytick_5">
     <g id="line2d_23">
      <path d="M 90 254.518533 
L 648 254.518533 
" clip-path="url(#p5db5db75f3)" style="fill: none; stroke: #b0b0b0; stroke-width: 0.8; stroke-linecap: square"/>
     </g>
     <g id="line2d_24">
      <g>
       <use xlink:href="#m32f85b72e5" x="90" y="254.518533" style="stroke: #000000; stroke-width: 0.8"/>
      </g>
     </g>
     <g id="text_13">
      <!-- 0.00 -->
      <g transform="translate(60.734375 258.317751)scale(0.1 -0.1)">
       <use xlink:href="#DejaVuSans-30"/>
       <use xlink:href="#DejaVuSans-2e" x="63.623047"/>
       <use xlink:href="#DejaVuSans-30" x="95.410156"/>
       <use xlink:href="#DejaVuSans-30" x="159.033203"/>
      </g>
     </g>
    </g>
    <g id="ytick_6">
     <g id="line2d_25">
      <path d="M 90 210.418126 
L 648 210.418126 
" clip-path="url(#p5db5db75f3)" style="fill: none; stroke: #b0b0b0; stroke-width: 0.8; stroke-linecap: square"/>
     </g>
     <g id="line2d_26">
      <g>
       <use xlink:href="#m32f85b72e5" x="90" y="210.418126" style="stroke: #000000; stroke-width: 0.8"/>
      </g>
     </g>
     <g id="text_14">
      <!-- 0.25 -->
      <g transform="translate(60.734375 214.217345)scale(0.1 -0.1)">
       <use xlink:href="#DejaVuSans-30"/>
       <use xlink:href="#DejaVuSans-2e" x="63.623047"/>
       <use xlink:href="#DejaVuSans-32" x="95.410156"/>
       <use xlink:href="#DejaVuSans-35" x="159.033203"/>
      </g>
     </g>
    </g>
    <g id="ytick_7">
     <g id="line2d_27">
      <path d="M 90 166.31772 
L 648 166.31772 
" clip-path="url(#p5db5db75f3)" style="fill: none; stroke: #b0b0b0; stroke-width: 0.8; stroke-linecap: square"/>
     </g>
     <g id="line2d_28">
      <g>
       <use xlink:href="#m32f85b72e5" x="90" y="166.31772" style="stroke: #000000; stroke-width: 0.8"/>
      </g>
     </g>
     <g id="text_15">
      <!-- 0.50 -->
      <g transform="translate(60.734375 170.116939)scale(0.1 -0.1)">
       <use xlink:href="#DejaVuSans-30"/>
       <use xlink:href="#DejaVuSans-2e" x="63.623047"/>
       <use xlink:href="#DejaVuSans-35" x="95.410156"/>
       <use xlink:href="#DejaVuSans-30" x="159.033203"/>
      </g>
     </g>
    </g>
    <g id="ytick_8">
     <g id="line2d_29">
      <path d="M 90 122.217314 
L 648 122.217314 
" clip-path="url(#p5db5db75f3)" style="fill: none; stroke: #b0b0b0; stroke-width: 0.8; stroke-linecap: square"/>
     </g>
     <g id="line2d_30">
      <g>
       <use xlink:href="#m32f85b72e5" x="90" y="122.217314" style="stroke: #000000; stroke-width: 0.8"/>
      </g>
     </g>
     <g id="text_16">
      <!-- 0.75 -->
      <g transform="translate(60.734375 126.016533)scale(0.1 -0.1)">
       <use xlink:href="#DejaVuSans-30"/>
       <use xlink:href="#DejaVuSans-2e" x="63.623047"/>
       <use xlink:href="#DejaVuSans-37" x="95.410156"/>
       <use xlink:href="#DejaVuSans-35" x="159.033203"/>
      </g>
     </g>
    </g>
    <g id="ytick_9">
     <g id="line2d_31">
      <path d="M 90 78.116908 
L 648 78.116908 
" clip-path="url(#p5db5db75f3)" style="fill: none; stroke: #b0b0b0; stroke-width: 0.8; stroke-linecap: square"/>
     </g>
     <g id="line2d_32">
      <g>
       <use xlink:href="#m32f85b72e5" x="90" y="78.116908" style="stroke: #000000; stroke-width: 0.8"/>
      </g>
     </g>
     <g id="text_17">
      <!-- 1.00 -->
      <g transform="translate(60.734375 81.916126)scale(0.1 -0.1)">
       <use xlink:href="#DejaVuSans-31"/>
       <use xlink:href="#DejaVuSans-2e" x="63.623047"/>
       <use xlink:href="#DejaVuSans-30" x="95.410156"/>
       <use xlink:href="#DejaVuSans-30" x="159.033203"/>
      </g>
     </g>
    </g>
    <g id="text_18">
     <!-- Position (Y) -->
     <g transform="translate(46.275 282.528594)rotate(-90)scale(0.1 -0.1)">
      <defs>
       <path id="DejaVuSans-59" d="M -13 4666 
L 666 4666 
L 1959 2747 
L 3244 4666 
L 3922 4666 
L 2272 2222 
L 2272 0 
L 1638 0 
L 1638 2222 
L -13 4666 
z
" transform="scale(0.015625)"/>
      </defs>
      <use xlink:href="#DejaVuSans-50"/>
      <use xlink:href="#DejaVuSans-6f" x="56.677734"/>
      <use xlink:href="#DejaVuSans-73" x="117.859375"/>
      <use xlink:href="#DejaVuSans-69" x="169.958984"/>
      <use xlink:href="#DejaVuSans-74" x="197.742188"/>
      <use xlink:href="#DejaVuSans-69" x="236.951172"/>
      <use xlink:href="#DejaVuSans-6f" x="264.734375"/>
      <use xlink:href="#DejaVuSans-6e" x="325.916016"/>
      <use xlink:href="#DejaVuSans-20" x="389.294922"/>
      <use xlink:href="#DejaVuSans-28" x="421.082031"/>
      <use xlink:href="#DejaVuSans-59" x="460.095703"/>
      <use xlink:href="#DejaVuSans-29" x="521.179688"/>
     </g>
    </g>
   </g>
   <g id="line2d_33">
    <path d="M 540.371214 287.262001 
L 541.728249 281.787205 
L 542.968312 275.002283 
L 543.715021 270.395719 
L 544.822981 261.266326 
L 545.67006 244.062466 
L 545.704421 240.690999 
L 545.158579 230.656354 
L 545.158579 230.656354 
L 544.687641 226.119312 
L 543.936138 221.176061 
L 542.978217 216.160332 
L 541.120057 208.591525 
L 537.66138 197.886549 
L 535.793179 193.257409 
L 532.848202 187.080919 
L 529.596354 181.194619 
L 524.593087 173.460569 
L 519.749743 167.045734 
L 515.247685 161.862314 
L 511.632229 158.150789 
L 511.632229 158.150789 
L 506.89507 153.885945 
L 500.916292 149.064019 
L 498.10327 146.912782 
L 492.05106 142.959563 
L 481.273203 136.750562 
L 472.619993 132.330852 
L 468.505326 130.343008 
L 460.485985 126.649683 
L 455.408224 124.475377 
L 444.426141 120.0547 
L 439.772971 118.358083 
L 431.645216 115.609441 
L 423.397045 113.13577 
L 422.709564 113.001807 
L 421.312401 112.596173 
L 413.539642 110.773036 
L 406.384302 109.339372 
L 399.860882 108.294256 
L 391.035056 107.106565 
L 376.69431 106.125092 
L 375.149855 106.150505 
L 365.98589 105.922722 
L 356.810796 106.136048 
L 349.934337 106.510443 
L 343.066678 107.22094 
L 331.742022 108.742914 
L 322.822639 110.403783 
L 314.035087 112.400028 
L 307.569888 114.174084 
L 303.25171 115.501479 
L 296.966181 117.575057 
L 288.71729 120.740846 
L 284.724064 122.360162 
L 280.735374 124.101739 
L 269.094158 129.738958 
L 261.569517 133.841345 
L 251.345767 140.119667 
L 251.345767 140.119667 
L 243.977516 145.164265 
L 240.673517 147.631585 
L 231.788497 154.952237 
L 223.660615 162.807649 
L 220.107047 166.708428 
L 216.301985 171.191403 
L 213.888857 174.28501 
L 209.363804 180.48448 
L 209.363804 180.48448 
L 206.200581 185.221003 
L 201.94459 192.259449 
L 196.309126 203.427304 
L 192.789057 211.904919 
L 191.545124 215.349441 
L 188.709434 223.959978 
L 186.878821 230.813036 
L 185.711265 235.934057 
L 184.402733 242.734687 
L 183.565516 248.949518 
L 183.014753 256.141284 
L 182.883387 262.773874 
L 183.131231 268.692517 
L 183.290776 270.865829 
L 184.036349 277.298101 
L 184.036349 277.298101 
L 184.595503 280.457617 
L 186.05847 286.70544 
L 186.844545 289.741442 
L 187.84057 292.812525 
L 190.615928 300.285517 
L 191.933304 303.304572 
L 193.344646 306.188702 
L 196.354328 311.913396 
L 198.847208 316.126125 
L 204.671099 324.25653 
L 204.671099 324.25653 
L 206.793979 326.918123 
L 210.261109 330.887041 
L 215.531399 336.476514 
L 221.7541 342.452743 
L 227.296764 347.501505 
L 233.096556 352.429595 
L 237.052677 355.71961 
L 247.521233 364.009118 
L 250.614819 366.261199 
L 257.503258 370.977634 
L 264.007565 375.134117 
L 267.346588 377.13626 
L 272.483166 380.038769 
L 277.741606 382.76469 
L 287.024405 387.005981 
L 290.873296 388.576017 
L 296.802015 390.844331 
L 304.92783 393.646712 
L 315.365794 396.801671 
L 319.608879 397.911041 
L 326.043638 399.436621 
L 330.418396 400.421837 
L 339.05181 401.818775 
L 343.442059 402.454841 
L 352.219294 403.322149 
L 352.219294 403.322149 
L 360.337377 403.819835 
L 367.774535 404.045431 
L 372.222008 403.973482 
L 378.868293 403.748096 
L 385.532107 403.33218 
L 392.180847 402.686945 
L 398.812446 401.776854 
L 416.242373 398.200354 
L 424.777349 395.705045 
L 433.209027 392.878018 
L 437.465837 391.28074 
L 452.344435 384.872692 
L 464.230357 378.994252 
L 473.179273 374.185974 
L 478.746088 370.91317 
L 485.912999 366.384858 
L 492.139612 362.100636 
L 499.145264 356.662916 
L 502.213532 354.141479 
L 509.602527 347.621211 
L 515.648082 341.87306 
L 520.431242 336.872827 
L 524.214801 332.773474 
L 528.993418 327.124715 
L 532.278429 322.750674 
L 535.292075 318.241918 
L 537.20042 315.029499 
L 540.550315 308.530922 
L 542.606681 303.489751 
L 544.982989 296.425413 
L 545.968247 292.904376 
L 547.097363 287.407134 
L 547.097363 287.407134 
" clip-path="url(#p5db5db75f3)" style="fill: none; stroke-dasharray: 12.8,3.2,2,3.2; stroke-dashoffset: 0; stroke: #ff0000; stroke-width: 2"/>
   </g>
   <g id="line2d_34">
    <path d="M 542.873878 271.028074 
L 544.876233 272.388244 
L 544.876233 272.388244 
L 545.250175 272.073685 
L 544.680984 272.660497 
L 548.097541 263.515528 
L 550.327835 260.234955 
L 556.242432 252.657034 
L 555.944009 250.316846 
L 560.986024 244.554479 
L 558.131354 248.794916 
L 559.86723 243.672987 
L 556.854474 237.062397 
L 558.349444 238.159151 
L 558.54504 232.226695 
L 553.530701 234.818789 
L 555.188948 230.397157 
L 553.736095 226.90077 
L 553.736095 226.90077 
L 548.227491 222.332068 
L 545.116825 220.443171 
L 544.070788 214.298221 
L 547.615959 206.026803 
L 546.736458 209.181622 
L 545.186077 198.241051 
L 548.129242 187.183649 
L 546.206199 179.873899 
L 538.798379 171.542238 
L 538.529553 176.142779 
L 533.841165 180.114441 
L 534.085952 172.433627 
L 533.740101 169.272006 
L 525.607598 155.349712 
L 519.817323 149.569879 
L 515.778049 147.653424 
L 512.9728 139.979807 
L 507.342517 139.56745 
L 501.07774 141.527169 
L 496.469569 137.34003 
L 496.150099 134.577454 
L 495.367533 130.077594 
L 487.740623 124.666124 
L 479.696967 127.922749 
L 481.491482 126.768853 
L 476.568728 127.238915 
L 473.718466 119.108358 
L 460.714609 118.426927 
L 460.730871 124.576861 
L 463.171897 119.467153 
L 457.484274 116.149833 
L 456.003608 121.998596 
L 458.361873 123.027505 
L 453.139149 116.583482 
L 450.576394 112.572255 
L 436.91576 119.4012 
L 434.213096 111.243957 
L 435.260096 110.537656 
L 430.016736 109.388816 
L 430.016736 109.388816 
L 427.303486 107.381652 
L 419.772397 112.49667 
L 416.641199 102.200077 
L 416.641199 102.200077 
L 409.404689 105.948177 
L 394.808647 96.252305 
L 385.516272 96.366451 
L 382.338786 97.58834 
L 378.244423 93.903071 
L 375.748251 91.199021 
L 375.748251 91.199021 
L 368.568144 94.60245 
L 363.517343 96.195842 
L 356.529503 94.352307 
L 346.440759 101.039199 
L 346.440759 101.039199 
L 336.418984 98.941996 
L 319.29719 98.009565 
L 316.42102 99.166912 
L 312.236175 99.086482 
L 309.892914 105.591382 
L 309.715072 107.308096 
L 307.70739 111.670652 
L 307.70739 111.670652 
L 293.866986 114.673787 
L 275.485193 122.428496 
L 266.453631 123.263924 
L 259.975884 125.388178 
L 249.78936 128.885959 
L 239.169015 141.412346 
L 239.169015 141.412346 
L 231.281375 147.659223 
L 231.281375 147.659223 
L 223.965311 161.79812 
L 226.590046 176.573766 
L 224.85532 178.581763 
L 222.919461 180.308136 
L 216.670371 185.098192 
L 212.226777 194.332982 
L 210.994399 203.864028 
L 211.718141 202.956034 
L 211.718141 202.956034 
L 205.809776 203.743292 
L 206.216108 208.749294 
L 208.407212 206.737499 
L 207.722007 208.248644 
L 194.644454 221.301528 
L 194.644454 221.301528 
L 198.370059 230.675753 
L 198.239881 236.653618 
L 193.061625 238.094411 
L 193.061625 238.094411 
L 189.108181 250.182958 
L 189.108181 250.182958 
L 191.668994 246.186508 
L 190.585303 242.809515 
L 194.290113 245.795889 
L 194.651875 246.6742 
L 193.028496 252.118655 
L 187.404834 258.620288 
L 187.404834 258.620288 
L 186.14893 257.730007 
L 177.013976 263.099691 
L 177.013976 263.099691 
L 179.715575 263.785727 
L 179.715575 263.785727 
L 183.945326 270.645034 
L 191.683537 269.824595 
L 190.93903 271.147832 
L 190.201 281.009384 
L 190.201 281.009384 
L 187.353161 290.116113 
L 186.445997 294.124007 
L 186.297637 298.507405 
L 187.404559 306.500881 
L 191.600915 302.403324 
L 201.671531 311.756886 
L 198.241055 317.697288 
L 198.054197 322.1855 
L 199.040869 333.979001 
L 201.745461 333.923845 
L 212.639179 339.071352 
L 212.04253 352.469308 
L 213.570078 354.909211 
L 216.734809 351.327269 
L 221.757867 354.155908 
L 221.541054 361.754154 
L 221.541054 361.754154 
L 229.070495 364.474231 
L 230.712738 363.30124 
L 236.44996 365.954701 
L 246.010289 376.027645 
L 249.316952 375.443585 
L 254.609878 373.075983 
L 254.612836 376.203002 
L 257.355992 379.332721 
L 258.829748 376.800292 
L 256.341051 385.712579 
L 274.639094 384.26073 
L 281.237631 378.16358 
L 281.237631 378.16358 
L 288.429353 382.18925 
L 289.542844 379.270985 
L 290.173263 380.926065 
L 291.553028 377.610974 
L 295.787979 383.88364 
L 312.398487 386.129685 
L 316.263233 389.849094 
L 318.753978 394.182011 
L 318.753978 394.182011 
L 323.274647 392.040811 
L 320.054647 396.193617 
L 328.669011 390.904516 
L 341.860349 393.496295 
L 342.111494 393.745195 
L 347.419101 393.83231 
L 347.419101 393.83231 
L 350.869407 400.648451 
L 359.733038 401.90238 
L 364.067446 399.890888 
L 366.164605 393.969531 
L 364.22148 392.579992 
L 366.848364 394.503074 
L 367.161873 396.565845 
L 374.993578 395.060117 
L 381.663012 399.458278 
L 384.088303 405.681043 
L 388.610031 404.137783 
L 394.181041 409.400366 
L 395.160894 408.498568 
L 407.452869 408.494561 
L 411.854569 407.083393 
L 411.854569 407.083393 
L 423.32976 408.411883 
L 428.573427 406.782919 
L 423.713716 409.384349 
L 426.868165 411.892837 
L 432.242985 413.654829 
L 439.994879 405.900539 
L 440.377143 402.753211 
L 454.398522 394.880548 
L 455.029679 390.287966 
L 460.200119 387.511628 
L 465.52613 382.887082 
L 467.859852 381.058533 
L 470.501544 380.063672 
L 476.461978 383.55403 
L 481.602447 379.179711 
L 482.564015 377.96775 
L 487.223287 371.424693 
L 485.888117 366.952899 
L 489.036279 359.773722 
L 501.225041 358.287373 
L 502.193064 355.665452 
L 508.638637 343.946936 
L 510.345248 349.499774 
L 513.310689 350.12425 
L 511.86492 347.852537 
L 517.136404 346.015939 
L 526.992204 341.000649 
L 531.59463 339.058795 
L 534.701648 332.664149 
L 534.701648 332.664149 
L 539.176053 328.470514 
L 545.426707 320.583719 
L 549.650351 318.907958 
L 547.086363 313.119414 
L 553.168353 309.846078 
L 553.168353 309.846078 
L 558.360865 305.72536 
L 555.024955 296.413513 
L 553.878308 293.637871 
L 552.312095 288.797157 
L 549.174572 284.876819 
L 546.246886 278.833637 
L 547.302189 275.339401 
L 549.00662 275.541588 
L 549.00662 275.541588 
" clip-path="url(#p5db5db75f3)" style="fill: none; stroke: #008000; stroke-width: 1.5; stroke-linecap: square"/>
   </g>
   <g id="line2d_35">
    <path d="M 542.876162 258.131957 
L 542.876406 250.917043 
L 542.530444 242.904656 
L 542.128906 237.902952 
L 541.257167 230.404165 
L 539.941945 222.278318 
L 539.131441 218.188017 
L 537.937577 212.917445 
L 536.08712 205.921628 
L 534.807461 201.660045 
L 532.46326 194.705798 
L 529.448536 186.923624 
L 527.38656 182.153041 
L 525.874236 178.880793 
L 523.017052 173.133268 
L 520.399389 168.285904 
L 515.644411 160.301109 
L 511.698262 154.326957 
L 506.893629 147.699035 
L 501.902136 141.439258 
L 496.4366 135.199571 
L 489.949089 128.499855 
L 484.603758 123.477456 
L 481.400726 120.66036 
L 476.359761 116.493521 
L 470.038009 111.690645 
L 464.320433 107.716095 
L 457.309975 103.279717 
L 453.477715 101.044041 
L 445.797292 96.939015 
L 440.291321 94.287204 
L 431.834959 90.65766 
L 426.51064 88.634107 
L 419.442986 86.245551 
L 412.707993 84.273351 
L 405.267966 82.427064 
L 401.02524 81.526225 
L 390.944906 79.817232 
L 385.541116 79.146332 
L 379.377248 78.586707 
L 369.666567 78.145124 
L 361.785966 78.180215 
L 354.064155 78.556617 
L 348.028628 79.087877 
L 343.412414 79.63582 
L 335.818413 80.807668 
L 327.686381 82.442562 
L 321.120635 84.056812 
L 313.193819 86.36755 
L 309.366807 87.629313 
L 304.639043 89.32372 
L 300.680244 90.861048 
L 292.720977 94.292178 
L 284.018879 98.593895 
L 277.321166 102.325863 
L 272.963842 104.964664 
L 266.840324 108.974107 
L 263.483554 111.330665 
L 254.527571 118.220618 
L 248.490697 123.413187 
L 242.422069 129.141765 
L 236.732136 135.041183 
L 233.72258 138.395224 
L 228.932307 144.112531 
L 225.542805 148.474455 
L 220.918831 154.917863 
L 218.769461 158.13488 
L 213.445278 166.835868 
L 208.769957 175.555737 
L 207.212769 178.746296 
L 204.917285 183.773731 
L 203.159746 187.932336 
L 199.929705 196.483869 
L 198.083508 202.08259 
L 196.658911 206.899059 
L 194.319645 216.210814 
L 192.730896 224.223027 
L 191.614579 231.527605 
L 190.748032 239.527898 
L 190.424163 243.994014 
L 190.118543 252.774827 
L 190.162886 258.840784 
L 190.626163 268.00422 
L 190.940728 271.618812 
L 192.787295 285.135793 
L 194.340157 292.918333 
L 196.591072 301.895368 
L 199.045061 309.948743 
L 199.758418 312.059181 
L 202.653531 319.849098 
L 205.730154 327.091777 
L 209.631224 335.17891 
L 211.525089 338.760626 
L 215.463293 345.63361 
L 217.933279 349.608125 
L 220.82698 353.984805 
L 224.282408 358.86605 
L 228.304392 364.137485 
L 235.795164 372.97004 
L 241.730745 379.207281 
L 245.083933 382.475037 
L 249.498168 386.523842 
L 254.609398 390.883636 
L 260.552862 395.551471 
L 267.319386 400.389873 
L 274.305216 404.903124 
L 278.884996 407.616933 
L 285.36593 411.14842 
L 292.620484 414.698568 
L 296.46638 416.417289 
L 304.279682 419.578303 
L 312.093142 422.316536 
L 315.973963 423.525886 
L 320.887649 424.918042 
L 325.994903 426.204101 
L 334.618458 428.013097 
L 344.450298 429.535202 
L 348.642731 430.012802 
L 353.89128 430.468133 
L 362.136301 430.86589 
L 370.232579 430.880907 
L 377.728662 430.563157 
L 385.886233 429.852941 
L 394.247081 428.726091 
L 402.598522 427.189502 
L 410.420214 425.368064 
L 418.666548 423.033782 
L 423.214179 421.558483 
L 427.912876 419.889057 
L 438.011108 415.780265 
L 442.598398 413.667283 
L 450.264936 409.769631 
L 458.87957 404.803868 
L 463.302977 401.993795 
L 468.830983 398.213581 
L 475.028647 393.592516 
L 482.017406 387.844938 
L 485.969061 384.316207 
L 489.577363 380.900251 
L 495.149824 375.22366 
L 500.71982 368.998546 
L 504.240897 364.737225 
L 507.605364 360.396146 
L 511.684667 354.729806 
L 515.454252 349.036281 
L 519.762897 341.87732 
L 521.73571 338.321835 
L 525.678994 330.566268 
L 528.643864 324.021382 
L 531.946914 315.744946 
L 534.58679 308.074551 
L 535.918812 303.698944 
L 537.037367 299.668052 
L 538.311226 294.54858 
L 540.078422 286.01574 
L 541.360688 277.870451 
L 542.136471 271.05396 
L 542.736947 262.401585 
L 542.905561 252.879578 
L 542.905561 252.879578 
" clip-path="url(#p5db5db75f3)" style="fill: none; stroke-dasharray: 5.55,2.4; stroke-dashoffset: 0; stroke: #0000ff; stroke-width: 1.5"/>
   </g>
   <g id="patch_3">
    <path d="M 90 448.56 
L 90 60.48 
" style="fill: none; stroke: #000000; stroke-width: 0.8; stroke-linejoin: miter; stroke-linecap: square"/>
   </g>
   <g id="patch_4">
    <path d="M 648 448.56 
L 648 60.48 
" style="fill: none; stroke: #000000; stroke-width: 0.8; stroke-linejoin: miter; stroke-linecap: square"/>
   </g>
   <g id="patch_5">
    <path d="M 90 448.56 
L 648 448.56 
" style="fill: none; stroke: #000000; stroke-width: 0.8; stroke-linejoin: miter; stroke-linecap: square"/>
   </g>
   <g id="patch_6">
    <path d="M 90 60.48 
L 648 60.48 
" style="fill: none; stroke: #000000; stroke-width: 0.8; stroke-linejoin: miter; stroke-linecap: square"/>
   </g>
   <g id="legend_1">
    <g id="patch_7">
     <path d="M 561.920313 112.514375 
L 641 112.514375 
Q 643 112.514375 643 110.514375 
L 643 67.48 
Q 643 65.48 641 65.48 
L 561.920313 65.48 
Q 559.920313 65.48 559.920313 67.48 
L 559.920313 110.514375 
Q 559.920313 112.514375 561.920313 112.514375 
z
" style="fill: #ffffff; opacity: 0.8; stroke: #cccccc; stroke-linejoin: miter"/>
    </g>
    <g id="line2d_36">
     <path d="M 563.920313 73.578438 
L 573.920313 73.578438 
L 583.920313 73.578438 
" style="fill: none; stroke-dasharray: 12.8,3.2,2,3.2; stroke-dashoffset: 0; stroke: #ff0000; stroke-width: 2"/>
    </g>
    <g id="text_19">
     <!-- OptiTrack -->
     <g transform="translate(591.920313 77.078438)scale(0.1 -0.1)">
      <defs>
       <path id="DejaVuSans-4f" d="M 2522 4238 
Q 1834 4238 1429 3725 
Q 1025 3213 1025 2328 
Q 1025 1447 1429 934 
Q 1834 422 2522 422 
Q 3209 422 3611 934 
Q 4013 1447 4013 2328 
Q 4013 3213 3611 3725 
Q 3209 4238 2522 4238 
z
M 2522 4750 
Q 3503 4750 4090 4092 
Q 4678 3434 4678 2328 
Q 4678 1225 4090 567 
Q 3503 -91 2522 -91 
Q 1538 -91 948 565 
Q 359 1222 359 2328 
Q 359 3434 948 4092 
Q 1538 4750 2522 4750 
z
" transform="scale(0.015625)"/>
       <path id="DejaVuSans-70" d="M 1159 525 
L 1159 -1331 
L 581 -1331 
L 581 3500 
L 1159 3500 
L 1159 2969 
Q 1341 3281 1617 3432 
Q 1894 3584 2278 3584 
Q 2916 3584 3314 3078 
Q 3713 2572 3713 1747 
Q 3713 922 3314 415 
Q 2916 -91 2278 -91 
Q 1894 -91 1617 61 
Q 1341 213 1159 525 
z
M 3116 1747 
Q 3116 2381 2855 2742 
Q 2594 3103 2138 3103 
Q 1681 3103 1420 2742 
Q 1159 2381 1159 1747 
Q 1159 1113 1420 752 
Q 1681 391 2138 391 
Q 2594 391 2855 752 
Q 3116 1113 3116 1747 
z
" transform="scale(0.015625)"/>
       <path id="DejaVuSans-54" d="M -19 4666 
L 3928 4666 
L 3928 4134 
L 2272 4134 
L 2272 0 
L 1638 0 
L 1638 4134 
L -19 4134 
L -19 4666 
z
" transform="scale(0.015625)"/>
       <path id="DejaVuSans-72" d="M 2631 2963 
Q 2534 3019 2420 3045 
Q 2306 3072 2169 3072 
Q 1681 3072 1420 2755 
Q 1159 2438 1159 1844 
L 1159 0 
L 581 0 
L 581 3500 
L 1159 3500 
L 1159 2956 
Q 1341 3275 1631 3429 
Q 1922 3584 2338 3584 
Q 2397 3584 2469 3576 
Q 2541 3569 2628 3553 
L 2631 2963 
z
" transform="scale(0.015625)"/>
       <path id="DejaVuSans-61" d="M 2194 1759 
Q 1497 1759 1228 1600 
Q 959 1441 959 1056 
Q 959 750 1161 570 
Q 1363 391 1709 391 
Q 2188 391 2477 730 
Q 2766 1069 2766 1631 
L 2766 1759 
L 2194 1759 
z
M 3341 1997 
L 3341 0 
L 2766 0 
L 2766 531 
Q 2569 213 2275 61 
Q 1981 -91 1556 -91 
Q 1019 -91 701 211 
Q 384 513 384 1019 
Q 384 1609 779 1909 
Q 1175 2209 1959 2209 
L 2766 2209 
L 2766 2266 
Q 2766 2663 2505 2880 
Q 2244 3097 1772 3097 
Q 1472 3097 1187 3025 
Q 903 2953 641 2809 
L 641 3341 
Q 956 3463 1253 3523 
Q 1550 3584 1831 3584 
Q 2591 3584 2966 3190 
Q 3341 2797 3341 1997 
z
" transform="scale(0.015625)"/>
       <path id="DejaVuSans-63" d="M 3122 3366 
L 3122 2828 
Q 2878 2963 2633 3030 
Q 2388 3097 2138 3097 
Q 1578 3097 1268 2742 
Q 959 2388 959 1747 
Q 959 1106 1268 751 
Q 1578 397 2138 397 
Q 2388 397 2633 464 
Q 2878 531 3122 666 
L 3122 134 
Q 2881 22 2623 -34 
Q 2366 -91 2075 -91 
Q 1284 -91 818 406 
Q 353 903 353 1747 
Q 353 2603 823 3093 
Q 1294 3584 2113 3584 
Q 2378 3584 2631 3529 
Q 2884 3475 3122 3366 
z
" transform="scale(0.015625)"/>
       <path id="DejaVuSans-6b" d="M 581 4863 
L 1159 4863 
L 1159 1991 
L 2875 3500 
L 3609 3500 
L 1753 1863 
L 3688 0 
L 2938 0 
L 1159 1709 
L 1159 0 
L 581 0 
L 581 4863 
z
" transform="scale(0.015625)"/>
      </defs>
      <use xlink:href="#DejaVuSans-4f"/>
      <use xlink:href="#DejaVuSans-70" x="78.710938"/>
      <use xlink:href="#DejaVuSans-74" x="142.1875"/>
      <use xlink:href="#DejaVuSans-69" x="181.396484"/>
      <use xlink:href="#DejaVuSans-54" x="209.179688"/>
      <use xlink:href="#DejaVuSans-72" x="255.513672"/>
      <use xlink:href="#DejaVuSans-61" x="296.626953"/>
      <use xlink:href="#DejaVuSans-63" x="357.90625"/>
      <use xlink:href="#DejaVuSans-6b" x="412.886719"/>
     </g>
    </g>
    <g id="line2d_37">
     <path d="M 563.920313 88.256563 
L 573.920313 88.256563 
L 583.920313 88.256563 
" style="fill: none; stroke: #008000; stroke-width: 1.5; stroke-linecap: square"/>
    </g>
    <g id="text_20">
     <!-- Kalman -->
     <g transform="translate(591.920313 91.756563)scale(0.1 -0.1)">
      <defs>
       <path id="DejaVuSans-4b" d="M 628 4666 
L 1259 4666 
L 1259 2694 
L 3353 4666 
L 4166 4666 
L 1850 2491 
L 4331 0 
L 3500 0 
L 1259 2247 
L 1259 0 
L 628 0 
L 628 4666 
z
" transform="scale(0.015625)"/>
       <path id="DejaVuSans-6c" d="M 603 4863 
L 1178 4863 
L 1178 0 
L 603 0 
L 603 4863 
z
" transform="scale(0.015625)"/>
       <path id="DejaVuSans-6d" d="M 3328 2828 
Q 3544 3216 3844 3400 
Q 4144 3584 4550 3584 
Q 5097 3584 5394 3201 
Q 5691 2819 5691 2113 
L 5691 0 
L 5113 0 
L 5113 2094 
Q 5113 2597 4934 2840 
Q 4756 3084 4391 3084 
Q 3944 3084 3684 2787 
Q 3425 2491 3425 1978 
L 3425 0 
L 2847 0 
L 2847 2094 
Q 2847 2600 2669 2842 
Q 2491 3084 2119 3084 
Q 1678 3084 1418 2786 
Q 1159 2488 1159 1978 
L 1159 0 
L 581 0 
L 581 3500 
L 1159 3500 
L 1159 2956 
Q 1356 3278 1631 3431 
Q 1906 3584 2284 3584 
Q 2666 3584 2933 3390 
Q 3200 3197 3328 2828 
z
" transform="scale(0.015625)"/>
      </defs>
      <use xlink:href="#DejaVuSans-4b"/>
      <use xlink:href="#DejaVuSans-61" x="63.826172"/>
      <use xlink:href="#DejaVuSans-6c" x="125.105469"/>
      <use xlink:href="#DejaVuSans-6d" x="152.888672"/>
      <use xlink:href="#DejaVuSans-61" x="250.300781"/>
      <use xlink:href="#DejaVuSans-6e" x="311.580078"/>
     </g>
    </g>
    <g id="line2d_38">
     <path d="M 563.920313 102.934687 
L 573.920313 102.934687 
L 583.920313 102.934687 
" style="fill: none; stroke-dasharray: 5.55,2.4; stroke-dashoffset: 0; stroke: #0000ff; stroke-width: 1.5"/>
    </g>
    <g id="text_21">
     <!-- Desired -->
     <g transform="translate(591.920313 106.434687)scale(0.1 -0.1)">
      <defs>
       <path id="DejaVuSans-44" d="M 1259 4147 
L 1259 519 
L 2022 519 
Q 2988 519 3436 956 
Q 3884 1394 3884 2338 
Q 3884 3275 3436 3711 
Q 2988 4147 2022 4147 
L 1259 4147 
z
M 628 4666 
L 1925 4666 
Q 3281 4666 3915 4102 
Q 4550 3538 4550 2338 
Q 4550 1131 3912 565 
Q 3275 0 1925 0 
L 628 0 
L 628 4666 
z
" transform="scale(0.015625)"/>
       <path id="DejaVuSans-65" d="M 3597 1894 
L 3597 1613 
L 953 1613 
Q 991 1019 1311 708 
Q 1631 397 2203 397 
Q 2534 397 2845 478 
Q 3156 559 3463 722 
L 3463 178 
Q 3153 47 2828 -22 
Q 2503 -91 2169 -91 
Q 1331 -91 842 396 
Q 353 884 353 1716 
Q 353 2575 817 3079 
Q 1281 3584 2069 3584 
Q 2775 3584 3186 3129 
Q 3597 2675 3597 1894 
z
M 3022 2063 
Q 3016 2534 2758 2815 
Q 2500 3097 2075 3097 
Q 1594 3097 1305 2825 
Q 1016 2553 972 2059 
L 3022 2063 
z
" transform="scale(0.015625)"/>
       <path id="DejaVuSans-64" d="M 2906 2969 
L 2906 4863 
L 3481 4863 
L 3481 0 
L 2906 0 
L 2906 525 
Q 2725 213 2448 61 
Q 2172 -91 1784 -91 
Q 1150 -91 751 415 
Q 353 922 353 1747 
Q 353 2572 751 3078 
Q 1150 3584 1784 3584 
Q 2172 3584 2448 3432 
Q 2725 3281 2906 2969 
z
M 947 1747 
Q 947 1113 1208 752 
Q 1469 391 1925 391 
Q 2381 391 2643 752 
Q 2906 1113 2906 1747 
Q 2906 2381 2643 2742 
Q 2381 3103 1925 3103 
Q 1469 3103 1208 2742 
Q 947 2381 947 1747 
z
" transform="scale(0.015625)"/>
      </defs>
      <use xlink:href="#DejaVuSans-44"/>
      <use xlink:href="#DejaVuSans-65" x="77.001953"/>
      <use xlink:href="#DejaVuSans-73" x="138.525391"/>
      <use xlink:href="#DejaVuSans-69" x="190.625"/>
      <use xlink:href="#DejaVuSans-72" x="218.408203"/>
      <use xlink:href="#DejaVuSans-65" x="257.271484"/>
      <use xlink:href="#DejaVuSans-64" x="318.794922"/>
     </g>
    </g>
   </g>
  </g>
 </g>
 <defs>
  <clipPath id="p5db5db75f3">
   <rect x="90" y="60.48" width="558" height="388.08"/>
  </clipPath>
 </defs>
</svg>
