<?xml version="1.0" encoding="utf-8" standalone="no"?>
<!DOCTYPE svg PUBLIC "-//W3C//DTD SVG 1.1//EN"
  "http://www.w3.org/Graphics/SVG/1.1/DTD/svg11.dtd">
<svg xmlns:xlink="http://www.w3.org/1999/xlink" width="720pt" height="504pt" viewBox="0 0 720 504" xmlns="http://www.w3.org/2000/svg" version="1.1">
 <metadata>
  <rdf:RDF xmlns:dc="http://purl.org/dc/elements/1.1/" xmlns:cc="http://creativecommons.org/ns#" xmlns:rdf="http://www.w3.org/1999/02/22-rdf-syntax-ns#">
   <cc:Work>
    <dc:type rdf:resource="http://purl.org/dc/dcmitype/StillImage"/>
    <dc:date>2024-02-15T17:06:40.702263</dc:date>
    <dc:format>image/svg+xml</dc:format>
    <dc:creator>
     <cc:Agent>
      <dc:title>Matplotlib v3.5.1, https://matplotlib.org/</dc:title>
     </cc:Agent>
    </dc:creator>
   </cc:Work>
  </rdf:RDF>
 </metadata>
 <defs>
  <style type="text/css">*{stroke-linejoin: round; stroke-linecap: butt}</style>
 </defs>
 <g id="figure_1">
  <g id="patch_1">
   <path d="M 0 504 
L 720 504 
L 720 0 
L 0 0 
z
" style="fill: #ffffff"/>
  </g>
  <g id="axes_1">
   <g id="patch_2">
    <path d="M 90 448.56 
L 648 448.56 
L 648 60.48 
L 90 60.48 
z
" style="fill: #ffffff"/>
   </g>
   <g id="matplotlib.axis_1">
    <g id="xtick_1">
     <g id="line2d_1">
      <path d="M 106.134629 448.56 
L 106.134629 60.48 
" clip-path="url(#p37b78fbc5d)" style="fill: none; stroke: #b0b0b0; stroke-width: 0.8; stroke-linecap: square"/>
     </g>
     <g id="line2d_2">
      <defs>
       <path id="m36f75a2248" d="M 0 0 
L 0 3.5 
" style="stroke: #000000; stroke-width: 0.8"/>
      </defs>
      <g>
       <use xlink:href="#m36f75a2248" x="106.134629" y="448.56" style="stroke: #000000; stroke-width: 0.8"/>
      </g>
     </g>
     <g id="text_1">
      <!-- −1.5 -->
      <g transform="translate(93.993222 463.158437)scale(0.1 -0.1)">
       <defs>
        <path id="DejaVuSans-2212" d="M 678 2272 
L 4684 2272 
L 4684 1741 
L 678 1741 
L 678 2272 
z
" transform="scale(0.015625)"/>
        <path id="DejaVuSans-31" d="M 794 531 
L 1825 531 
L 1825 4091 
L 703 3866 
L 703 4441 
L 1819 4666 
L 2450 4666 
L 2450 531 
L 3481 531 
L 3481 0 
L 794 0 
L 794 531 
z
" transform="scale(0.015625)"/>
        <path id="DejaVuSans-2e" d="M 684 794 
L 1344 794 
L 1344 0 
L 684 0 
L 684 794 
z
" transform="scale(0.015625)"/>
        <path id="DejaVuSans-35" d="M 691 4666 
L 3169 4666 
L 3169 4134 
L 1269 4134 
L 1269 2991 
Q 1406 3038 1543 3061 
Q 1681 3084 1819 3084 
Q 2600 3084 3056 2656 
Q 3513 2228 3513 1497 
Q 3513 744 3044 326 
Q 2575 -91 1722 -91 
Q 1428 -91 1123 -41 
Q 819 9 494 109 
L 494 744 
Q 775 591 1075 516 
Q 1375 441 1709 441 
Q 2250 441 2565 725 
Q 2881 1009 2881 1497 
Q 2881 1984 2565 2268 
Q 2250 2553 1709 2553 
Q 1456 2553 1204 2497 
Q 953 2441 691 2322 
L 691 4666 
z
" transform="scale(0.015625)"/>
       </defs>
       <use xlink:href="#DejaVuSans-2212"/>
       <use xlink:href="#DejaVuSans-31" x="83.789062"/>
       <use xlink:href="#DejaVuSans-2e" x="147.412109"/>
       <use xlink:href="#DejaVuSans-35" x="179.199219"/>
      </g>
     </g>
    </g>
    <g id="xtick_2">
     <g id="line2d_3">
      <path d="M 194.336773 448.56 
L 194.336773 60.48 
" clip-path="url(#p37b78fbc5d)" style="fill: none; stroke: #b0b0b0; stroke-width: 0.8; stroke-linecap: square"/>
     </g>
     <g id="line2d_4">
      <g>
       <use xlink:href="#m36f75a2248" x="194.336773" y="448.56" style="stroke: #000000; stroke-width: 0.8"/>
      </g>
     </g>
     <g id="text_2">
      <!-- −1.0 -->
      <g transform="translate(182.195367 463.158437)scale(0.1 -0.1)">
       <defs>
        <path id="DejaVuSans-30" d="M 2034 4250 
Q 1547 4250 1301 3770 
Q 1056 3291 1056 2328 
Q 1056 1369 1301 889 
Q 1547 409 2034 409 
Q 2525 409 2770 889 
Q 3016 1369 3016 2328 
Q 3016 3291 2770 3770 
Q 2525 4250 2034 4250 
z
M 2034 4750 
Q 2819 4750 3233 4129 
Q 3647 3509 3647 2328 
Q 3647 1150 3233 529 
Q 2819 -91 2034 -91 
Q 1250 -91 836 529 
Q 422 1150 422 2328 
Q 422 3509 836 4129 
Q 1250 4750 2034 4750 
z
" transform="scale(0.015625)"/>
       </defs>
       <use xlink:href="#DejaVuSans-2212"/>
       <use xlink:href="#DejaVuSans-31" x="83.789062"/>
       <use xlink:href="#DejaVuSans-2e" x="147.412109"/>
       <use xlink:href="#DejaVuSans-30" x="179.199219"/>
      </g>
     </g>
    </g>
    <g id="xtick_3">
     <g id="line2d_5">
      <path d="M 282.538917 448.56 
L 282.538917 60.48 
" clip-path="url(#p37b78fbc5d)" style="fill: none; stroke: #b0b0b0; stroke-width: 0.8; stroke-linecap: square"/>
     </g>
     <g id="line2d_6">
      <g>
       <use xlink:href="#m36f75a2248" x="282.538917" y="448.56" style="stroke: #000000; stroke-width: 0.8"/>
      </g>
     </g>
     <g id="text_3">
      <!-- −0.5 -->
      <g transform="translate(270.397511 463.158437)scale(0.1 -0.1)">
       <use xlink:href="#DejaVuSans-2212"/>
       <use xlink:href="#DejaVuSans-30" x="83.789062"/>
       <use xlink:href="#DejaVuSans-2e" x="147.412109"/>
       <use xlink:href="#DejaVuSans-35" x="179.199219"/>
      </g>
     </g>
    </g>
    <g id="xtick_4">
     <g id="line2d_7">
      <path d="M 370.741062 448.56 
L 370.741062 60.48 
" clip-path="url(#p37b78fbc5d)" style="fill: none; stroke: #b0b0b0; stroke-width: 0.8; stroke-linecap: square"/>
     </g>
     <g id="line2d_8">
      <g>
       <use xlink:href="#m36f75a2248" x="370.741062" y="448.56" style="stroke: #000000; stroke-width: 0.8"/>
      </g>
     </g>
     <g id="text_4">
      <!-- 0.0 -->
      <g transform="translate(362.789499 463.158437)scale(0.1 -0.1)">
       <use xlink:href="#DejaVuSans-30"/>
       <use xlink:href="#DejaVuSans-2e" x="63.623047"/>
       <use xlink:href="#DejaVuSans-30" x="95.410156"/>
      </g>
     </g>
    </g>
    <g id="xtick_5">
     <g id="line2d_9">
      <path d="M 458.943206 448.56 
L 458.943206 60.48 
" clip-path="url(#p37b78fbc5d)" style="fill: none; stroke: #b0b0b0; stroke-width: 0.8; stroke-linecap: square"/>
     </g>
     <g id="line2d_10">
      <g>
       <use xlink:href="#m36f75a2248" x="458.943206" y="448.56" style="stroke: #000000; stroke-width: 0.8"/>
      </g>
     </g>
     <g id="text_5">
      <!-- 0.5 -->
      <g transform="translate(450.991643 463.158437)scale(0.1 -0.1)">
       <use xlink:href="#DejaVuSans-30"/>
       <use xlink:href="#DejaVuSans-2e" x="63.623047"/>
       <use xlink:href="#DejaVuSans-35" x="95.410156"/>
      </g>
     </g>
    </g>
    <g id="xtick_6">
     <g id="line2d_11">
      <path d="M 547.14535 448.56 
L 547.14535 60.48 
" clip-path="url(#p37b78fbc5d)" style="fill: none; stroke: #b0b0b0; stroke-width: 0.8; stroke-linecap: square"/>
     </g>
     <g id="line2d_12">
      <g>
       <use xlink:href="#m36f75a2248" x="547.14535" y="448.56" style="stroke: #000000; stroke-width: 0.8"/>
      </g>
     </g>
     <g id="text_6">
      <!-- 1.0 -->
      <g transform="translate(539.193788 463.158437)scale(0.1 -0.1)">
       <use xlink:href="#DejaVuSans-31"/>
       <use xlink:href="#DejaVuSans-2e" x="63.623047"/>
       <use xlink:href="#DejaVuSans-30" x="95.410156"/>
      </g>
     </g>
    </g>
    <g id="xtick_7">
     <g id="line2d_13">
      <path d="M 635.347495 448.56 
L 635.347495 60.48 
" clip-path="url(#p37b78fbc5d)" style="fill: none; stroke: #b0b0b0; stroke-width: 0.8; stroke-linecap: square"/>
     </g>
     <g id="line2d_14">
      <g>
       <use xlink:href="#m36f75a2248" x="635.347495" y="448.56" style="stroke: #000000; stroke-width: 0.8"/>
      </g>
     </g>
     <g id="text_7">
      <!-- 1.5 -->
      <g transform="translate(627.395932 463.158437)scale(0.1 -0.1)">
       <use xlink:href="#DejaVuSans-31"/>
       <use xlink:href="#DejaVuSans-2e" x="63.623047"/>
       <use xlink:href="#DejaVuSans-35" x="95.410156"/>
      </g>
     </g>
    </g>
    <g id="text_8">
     <!-- Position (X) -->
     <g transform="translate(340.620313 476.836563)scale(0.1 -0.1)">
      <defs>
       <path id="DejaVuSans-50" d="M 1259 4147 
L 1259 2394 
L 2053 2394 
Q 2494 2394 2734 2622 
Q 2975 2850 2975 3272 
Q 2975 3691 2734 3919 
Q 2494 4147 2053 4147 
L 1259 4147 
z
M 628 4666 
L 2053 4666 
Q 2838 4666 3239 4311 
Q 3641 3956 3641 3272 
Q 3641 2581 3239 2228 
Q 2838 1875 2053 1875 
L 1259 1875 
L 1259 0 
L 628 0 
L 628 4666 
z
" transform="scale(0.015625)"/>
       <path id="DejaVuSans-6f" d="M 1959 3097 
Q 1497 3097 1228 2736 
Q 959 2375 959 1747 
Q 959 1119 1226 758 
Q 1494 397 1959 397 
Q 2419 397 2687 759 
Q 2956 1122 2956 1747 
Q 2956 2369 2687 2733 
Q 2419 3097 1959 3097 
z
M 1959 3584 
Q 2709 3584 3137 3096 
Q 3566 2609 3566 1747 
Q 3566 888 3137 398 
Q 2709 -91 1959 -91 
Q 1206 -91 779 398 
Q 353 888 353 1747 
Q 353 2609 779 3096 
Q 1206 3584 1959 3584 
z
" transform="scale(0.015625)"/>
       <path id="DejaVuSans-73" d="M 2834 3397 
L 2834 2853 
Q 2591 2978 2328 3040 
Q 2066 3103 1784 3103 
Q 1356 3103 1142 2972 
Q 928 2841 928 2578 
Q 928 2378 1081 2264 
Q 1234 2150 1697 2047 
L 1894 2003 
Q 2506 1872 2764 1633 
Q 3022 1394 3022 966 
Q 3022 478 2636 193 
Q 2250 -91 1575 -91 
Q 1294 -91 989 -36 
Q 684 19 347 128 
L 347 722 
Q 666 556 975 473 
Q 1284 391 1588 391 
Q 1994 391 2212 530 
Q 2431 669 2431 922 
Q 2431 1156 2273 1281 
Q 2116 1406 1581 1522 
L 1381 1569 
Q 847 1681 609 1914 
Q 372 2147 372 2553 
Q 372 3047 722 3315 
Q 1072 3584 1716 3584 
Q 2034 3584 2315 3537 
Q 2597 3491 2834 3397 
z
" transform="scale(0.015625)"/>
       <path id="DejaVuSans-69" d="M 603 3500 
L 1178 3500 
L 1178 0 
L 603 0 
L 603 3500 
z
M 603 4863 
L 1178 4863 
L 1178 4134 
L 603 4134 
L 603 4863 
z
" transform="scale(0.015625)"/>
       <path id="DejaVuSans-74" d="M 1172 4494 
L 1172 3500 
L 2356 3500 
L 2356 3053 
L 1172 3053 
L 1172 1153 
Q 1172 725 1289 603 
Q 1406 481 1766 481 
L 2356 481 
L 2356 0 
L 1766 0 
Q 1100 0 847 248 
Q 594 497 594 1153 
L 594 3053 
L 172 3053 
L 172 3500 
L 594 3500 
L 594 4494 
L 1172 4494 
z
" transform="scale(0.015625)"/>
       <path id="DejaVuSans-6e" d="M 3513 2113 
L 3513 0 
L 2938 0 
L 2938 2094 
Q 2938 2591 2744 2837 
Q 2550 3084 2163 3084 
Q 1697 3084 1428 2787 
Q 1159 2491 1159 1978 
L 1159 0 
L 581 0 
L 581 3500 
L 1159 3500 
L 1159 2956 
Q 1366 3272 1645 3428 
Q 1925 3584 2291 3584 
Q 2894 3584 3203 3211 
Q 3513 2838 3513 2113 
z
" transform="scale(0.015625)"/>
       <path id="DejaVuSans-20" transform="scale(0.015625)"/>
       <path id="DejaVuSans-28" d="M 1984 4856 
Q 1566 4138 1362 3434 
Q 1159 2731 1159 2009 
Q 1159 1288 1364 580 
Q 1569 -128 1984 -844 
L 1484 -844 
Q 1016 -109 783 600 
Q 550 1309 550 2009 
Q 550 2706 781 3412 
Q 1013 4119 1484 4856 
L 1984 4856 
z
" transform="scale(0.015625)"/>
       <path id="DejaVuSans-58" d="M 403 4666 
L 1081 4666 
L 2241 2931 
L 3406 4666 
L 4084 4666 
L 2584 2425 
L 4184 0 
L 3506 0 
L 2194 1984 
L 872 0 
L 191 0 
L 1856 2491 
L 403 4666 
z
" transform="scale(0.015625)"/>
       <path id="DejaVuSans-29" d="M 513 4856 
L 1013 4856 
Q 1481 4119 1714 3412 
Q 1947 2706 1947 2009 
Q 1947 1309 1714 600 
Q 1481 -109 1013 -844 
L 513 -844 
Q 928 -128 1133 580 
Q 1338 1288 1338 2009 
Q 1338 2731 1133 3434 
Q 928 4138 513 4856 
z
" transform="scale(0.015625)"/>
      </defs>
      <use xlink:href="#DejaVuSans-50"/>
      <use xlink:href="#DejaVuSans-6f" x="56.677734"/>
      <use xlink:href="#DejaVuSans-73" x="117.859375"/>
      <use xlink:href="#DejaVuSans-69" x="169.958984"/>
      <use xlink:href="#DejaVuSans-74" x="197.742188"/>
      <use xlink:href="#DejaVuSans-69" x="236.951172"/>
      <use xlink:href="#DejaVuSans-6f" x="264.734375"/>
      <use xlink:href="#DejaVuSans-6e" x="325.916016"/>
      <use xlink:href="#DejaVuSans-20" x="389.294922"/>
      <use xlink:href="#DejaVuSans-28" x="421.082031"/>
      <use xlink:href="#DejaVuSans-58" x="460.095703"/>
      <use xlink:href="#DejaVuSans-29" x="528.601562"/>
     </g>
    </g>
   </g>
   <g id="matplotlib.axis_2">
    <g id="ytick_1">
     <g id="line2d_15">
      <path d="M 90 430.92249 
L 648 430.92249 
" clip-path="url(#p37b78fbc5d)" style="fill: none; stroke: #b0b0b0; stroke-width: 0.8; stroke-linecap: square"/>
     </g>
     <g id="line2d_16">
      <defs>
       <path id="medd0cbc127" d="M 0 0 
L -3.5 0 
" style="stroke: #000000; stroke-width: 0.8"/>
      </defs>
      <g>
       <use xlink:href="#medd0cbc127" x="90" y="430.92249" style="stroke: #000000; stroke-width: 0.8"/>
      </g>
     </g>
     <g id="text_9">
      <!-- −1.00 -->
      <g transform="translate(52.354687 434.721709)scale(0.1 -0.1)">
       <use xlink:href="#DejaVuSans-2212"/>
       <use xlink:href="#DejaVuSans-31" x="83.789062"/>
       <use xlink:href="#DejaVuSans-2e" x="147.412109"/>
       <use xlink:href="#DejaVuSans-30" x="179.199219"/>
       <use xlink:href="#DejaVuSans-30" x="242.822266"/>
      </g>
     </g>
    </g>
    <g id="ytick_2">
     <g id="line2d_17">
      <path d="M 90 386.821418 
L 648 386.821418 
" clip-path="url(#p37b78fbc5d)" style="fill: none; stroke: #b0b0b0; stroke-width: 0.8; stroke-linecap: square"/>
     </g>
     <g id="line2d_18">
      <g>
       <use xlink:href="#medd0cbc127" x="90" y="386.821418" style="stroke: #000000; stroke-width: 0.8"/>
      </g>
     </g>
     <g id="text_10">
      <!-- −0.75 -->
      <g transform="translate(52.354687 390.620637)scale(0.1 -0.1)">
       <defs>
        <path id="DejaVuSans-37" d="M 525 4666 
L 3525 4666 
L 3525 4397 
L 1831 0 
L 1172 0 
L 2766 4134 
L 525 4134 
L 525 4666 
z
" transform="scale(0.015625)"/>
       </defs>
       <use xlink:href="#DejaVuSans-2212"/>
       <use xlink:href="#DejaVuSans-30" x="83.789062"/>
       <use xlink:href="#DejaVuSans-2e" x="147.412109"/>
       <use xlink:href="#DejaVuSans-37" x="179.199219"/>
       <use xlink:href="#DejaVuSans-35" x="242.822266"/>
      </g>
     </g>
    </g>
    <g id="ytick_3">
     <g id="line2d_19">
      <path d="M 90 342.720346 
L 648 342.720346 
" clip-path="url(#p37b78fbc5d)" style="fill: none; stroke: #b0b0b0; stroke-width: 0.8; stroke-linecap: square"/>
     </g>
     <g id="line2d_20">
      <g>
       <use xlink:href="#medd0cbc127" x="90" y="342.720346" style="stroke: #000000; stroke-width: 0.8"/>
      </g>
     </g>
     <g id="text_11">
      <!-- −0.50 -->
      <g transform="translate(52.354687 346.519565)scale(0.1 -0.1)">
       <use xlink:href="#DejaVuSans-2212"/>
       <use xlink:href="#DejaVuSans-30" x="83.789062"/>
       <use xlink:href="#DejaVuSans-2e" x="147.412109"/>
       <use xlink:href="#DejaVuSans-35" x="179.199219"/>
       <use xlink:href="#DejaVuSans-30" x="242.822266"/>
      </g>
     </g>
    </g>
    <g id="ytick_4">
     <g id="line2d_21">
      <path d="M 90 298.619274 
L 648 298.619274 
" clip-path="url(#p37b78fbc5d)" style="fill: none; stroke: #b0b0b0; stroke-width: 0.8; stroke-linecap: square"/>
     </g>
     <g id="line2d_22">
      <g>
       <use xlink:href="#medd0cbc127" x="90" y="298.619274" style="stroke: #000000; stroke-width: 0.8"/>
      </g>
     </g>
     <g id="text_12">
      <!-- −0.25 -->
      <g transform="translate(52.354687 302.418493)scale(0.1 -0.1)">
       <defs>
        <path id="DejaVuSans-32" d="M 1228 531 
L 3431 531 
L 3431 0 
L 469 0 
L 469 531 
Q 828 903 1448 1529 
Q 2069 2156 2228 2338 
Q 2531 2678 2651 2914 
Q 2772 3150 2772 3378 
Q 2772 3750 2511 3984 
Q 2250 4219 1831 4219 
Q 1534 4219 1204 4116 
Q 875 4013 500 3803 
L 500 4441 
Q 881 4594 1212 4672 
Q 1544 4750 1819 4750 
Q 2544 4750 2975 4387 
Q 3406 4025 3406 3419 
Q 3406 3131 3298 2873 
Q 3191 2616 2906 2266 
Q 2828 2175 2409 1742 
Q 1991 1309 1228 531 
z
" transform="scale(0.015625)"/>
       </defs>
       <use xlink:href="#DejaVuSans-2212"/>
       <use xlink:href="#DejaVuSans-30" x="83.789062"/>
       <use xlink:href="#DejaVuSans-2e" x="147.412109"/>
       <use xlink:href="#DejaVuSans-32" x="179.199219"/>
       <use xlink:href="#DejaVuSans-35" x="242.822266"/>
      </g>
     </g>
    </g>
    <g id="ytick_5">
     <g id="line2d_23">
      <path d="M 90 254.518202 
L 648 254.518202 
" clip-path="url(#p37b78fbc5d)" style="fill: none; stroke: #b0b0b0; stroke-width: 0.8; stroke-linecap: square"/>
     </g>
     <g id="line2d_24">
      <g>
       <use xlink:href="#medd0cbc127" x="90" y="254.518202" style="stroke: #000000; stroke-width: 0.8"/>
      </g>
     </g>
     <g id="text_13">
      <!-- 0.00 -->
      <g transform="translate(60.734375 258.31742)scale(0.1 -0.1)">
       <use xlink:href="#DejaVuSans-30"/>
       <use xlink:href="#DejaVuSans-2e" x="63.623047"/>
       <use xlink:href="#DejaVuSans-30" x="95.410156"/>
       <use xlink:href="#DejaVuSans-30" x="159.033203"/>
      </g>
     </g>
    </g>
    <g id="ytick_6">
     <g id="line2d_25">
      <path d="M 90 210.417129 
L 648 210.417129 
" clip-path="url(#p37b78fbc5d)" style="fill: none; stroke: #b0b0b0; stroke-width: 0.8; stroke-linecap: square"/>
     </g>
     <g id="line2d_26">
      <g>
       <use xlink:href="#medd0cbc127" x="90" y="210.417129" style="stroke: #000000; stroke-width: 0.8"/>
      </g>
     </g>
     <g id="text_14">
      <!-- 0.25 -->
      <g transform="translate(60.734375 214.216348)scale(0.1 -0.1)">
       <use xlink:href="#DejaVuSans-30"/>
       <use xlink:href="#DejaVuSans-2e" x="63.623047"/>
       <use xlink:href="#DejaVuSans-32" x="95.410156"/>
       <use xlink:href="#DejaVuSans-35" x="159.033203"/>
      </g>
     </g>
    </g>
    <g id="ytick_7">
     <g id="line2d_27">
      <path d="M 90 166.316057 
L 648 166.316057 
" clip-path="url(#p37b78fbc5d)" style="fill: none; stroke: #b0b0b0; stroke-width: 0.8; stroke-linecap: square"/>
     </g>
     <g id="line2d_28">
      <g>
       <use xlink:href="#medd0cbc127" x="90" y="166.316057" style="stroke: #000000; stroke-width: 0.8"/>
      </g>
     </g>
     <g id="text_15">
      <!-- 0.50 -->
      <g transform="translate(60.734375 170.115276)scale(0.1 -0.1)">
       <use xlink:href="#DejaVuSans-30"/>
       <use xlink:href="#DejaVuSans-2e" x="63.623047"/>
       <use xlink:href="#DejaVuSans-35" x="95.410156"/>
       <use xlink:href="#DejaVuSans-30" x="159.033203"/>
      </g>
     </g>
    </g>
    <g id="ytick_8">
     <g id="line2d_29">
      <path d="M 90 122.214985 
L 648 122.214985 
" clip-path="url(#p37b78fbc5d)" style="fill: none; stroke: #b0b0b0; stroke-width: 0.8; stroke-linecap: square"/>
     </g>
     <g id="line2d_30">
      <g>
       <use xlink:href="#medd0cbc127" x="90" y="122.214985" style="stroke: #000000; stroke-width: 0.8"/>
      </g>
     </g>
     <g id="text_16">
      <!-- 0.75 -->
      <g transform="translate(60.734375 126.014204)scale(0.1 -0.1)">
       <use xlink:href="#DejaVuSans-30"/>
       <use xlink:href="#DejaVuSans-2e" x="63.623047"/>
       <use xlink:href="#DejaVuSans-37" x="95.410156"/>
       <use xlink:href="#DejaVuSans-35" x="159.033203"/>
      </g>
     </g>
    </g>
    <g id="ytick_9">
     <g id="line2d_31">
      <path d="M 90 78.113913 
L 648 78.113913 
" clip-path="url(#p37b78fbc5d)" style="fill: none; stroke: #b0b0b0; stroke-width: 0.8; stroke-linecap: square"/>
     </g>
     <g id="line2d_32">
      <g>
       <use xlink:href="#medd0cbc127" x="90" y="78.113913" style="stroke: #000000; stroke-width: 0.8"/>
      </g>
     </g>
     <g id="text_17">
      <!-- 1.00 -->
      <g transform="translate(60.734375 81.913132)scale(0.1 -0.1)">
       <use xlink:href="#DejaVuSans-31"/>
       <use xlink:href="#DejaVuSans-2e" x="63.623047"/>
       <use xlink:href="#DejaVuSans-30" x="95.410156"/>
       <use xlink:href="#DejaVuSans-30" x="159.033203"/>
      </g>
     </g>
    </g>
    <g id="text_18">
     <!-- Position (Y) -->
     <g transform="translate(46.275 282.528594)rotate(-90)scale(0.1 -0.1)">
      <defs>
       <path id="DejaVuSans-59" d="M -13 4666 
L 666 4666 
L 1959 2747 
L 3244 4666 
L 3922 4666 
L 2272 2222 
L 2272 0 
L 1638 0 
L 1638 2222 
L -13 4666 
z
" transform="scale(0.015625)"/>
      </defs>
      <use xlink:href="#DejaVuSans-50"/>
      <use xlink:href="#DejaVuSans-6f" x="56.677734"/>
      <use xlink:href="#DejaVuSans-73" x="117.859375"/>
      <use xlink:href="#DejaVuSans-69" x="169.958984"/>
      <use xlink:href="#DejaVuSans-74" x="197.742188"/>
      <use xlink:href="#DejaVuSans-69" x="236.951172"/>
      <use xlink:href="#DejaVuSans-6f" x="264.734375"/>
      <use xlink:href="#DejaVuSans-6e" x="325.916016"/>
      <use xlink:href="#DejaVuSans-20" x="389.294922"/>
      <use xlink:href="#DejaVuSans-28" x="421.082031"/>
      <use xlink:href="#DejaVuSans-59" x="460.095703"/>
      <use xlink:href="#DejaVuSans-29" x="521.179688"/>
     </g>
    </g>
   </g>
   <g id="line2d_33">
    <path d="M 545.595458 296.361658 
L 545.99277 294.642834 
L 547.897727 280.83868 
L 548.176151 277.290596 
L 548.563906 266.56948 
L 548.393844 257.399189 
L 547.259748 245.169712 
L 545.995756 237.289675 
L 544.414163 230.040781 
L 543.536012 226.531428 
L 541.365132 219.522384 
L 538.856359 212.652168 
L 537.482343 209.349628 
L 534.344023 202.79 
L 530.935007 196.619457 
L 527.257976 190.699307 
L 525.318889 187.792243 
L 520.096256 181.018341 
L 519.018644 179.697581 
L 516.701056 177.07147 
L 511.972731 171.964097 
L 508.098332 168.304604 
L 499.259084 161.079251 
L 492.336054 156.032 
L 489.310566 153.856378 
L 482.981301 149.6066 
L 471.343247 142.326739 
L 459.054754 135.253793 
L 449.933003 130.419451 
L 441.799715 126.346653 
L 434.791107 123.163889 
L 430.839763 121.610401 
L 422.977803 118.431621 
L 415.013126 115.573523 
L 402.716948 112.063883 
L 394.284123 110.109792 
L 384.982868 108.34737 
L 374.8098 107.015402 
L 365.943529 106.218213 
L 354.688645 105.797043 
L 347.850106 105.765416 
L 341.046344 105.985032 
L 325.427724 107.505715 
L 316.694562 108.995958 
L 310.284067 110.305299 
L 304.05642 111.872319 
L 298.004439 113.653804 
L 295.982177 114.407569 
L 288.160434 117.201097 
L 278.642017 121.321556 
L 278.642017 121.321556 
L 274.949919 123.073464 
L 267.705124 126.87118 
L 258.895706 132.060851 
L 258.895706 132.060851 
L 248.757495 138.87842 
L 242.244615 143.833595 
L 237.560125 147.671604 
L 231.585084 153.083593 
L 230.17004 154.44947 
L 224.673083 160.138107 
L 222.112936 163.033888 
L 216.001437 170.567123 
L 211.863691 176.284175 
L 206.040721 185.254229 
L 202.683163 191.156867 
L 200.152193 196.019767 
L 197.108 202.656103 
L 194.223952 210.437833 
L 192.496459 216.000616 
L 190.89205 222.741718 
L 190.89205 222.741718 
L 189.979053 227.864887 
L 189.497594 231.210003 
L 188.906215 236.291871 
L 188.449107 242.949315 
L 188.50557 249.638575 
L 188.612965 251.280426 
L 188.693969 254.585485 
L 190.13858 265.794322 
L 191.109574 270.579589 
L 192.715813 276.875039 
L 194.116578 281.64979 
L 195.63909 285.870264 
L 197.752529 291.048697 
L 199.840743 295.70639 
L 204.691236 304.946341 
L 210.161822 313.986348 
L 210.161822 313.986348 
L 214.088752 319.846613 
L 220.452399 328.457664 
L 222.655495 331.24686 
L 228.468708 337.922236 
L 233.36763 342.948101 
L 235.927357 345.430862 
L 238.588792 347.833786 
L 246.761598 354.548134 
L 251.117025 357.740141 
L 256.041078 361.12305 
L 264.699055 366.716362 
L 271.154999 370.501303 
L 279.611571 375.188642 
L 284.920707 378.006101 
L 296.814516 383.747111 
L 304.152959 387.083976 
L 304.152959 387.083976 
L 312.442124 390.526554 
L 320.978433 393.69952 
L 329.692259 396.51354 
L 329.692259 396.51354 
L 334.090456 397.7828 
L 339.295746 399.078809 
L 349.583681 401.273566 
L 358.418166 402.570416 
L 362.865239 403.105142 
L 369.505246 403.64093 
L 373.928694 403.900019 
L 387.995761 403.890724 
L 393.984709 403.491382 
L 402.929346 402.629297 
L 402.929346 402.629297 
L 409.675083 401.626665 
L 416.324938 400.394721 
L 422.23061 399.057107 
L 432.54915 396.348673 
L 443.303717 392.862102 
L 450.952621 390.04112 
L 450.952621 390.04112 
L 459.09329 386.664184 
L 468.975094 382.063884 
L 480.253489 375.82618 
L 480.253489 375.82618 
L 489.201383 370.299929 
L 497.648786 364.411685 
L 502.476978 360.768879 
L 505.598107 358.231537 
L 510.201204 354.314838 
L 514.634134 350.250663 
L 517.376351 347.549358 
L 523.203011 341.350799 
L 525.719187 338.405646 
L 531.237425 331.213881 
L 533.378475 328.084877 
L 539.236322 318.306489 
L 543.289888 310.003676 
L 545.388774 304.897759 
L 546.602801 301.456121 
L 549.312203 292.628095 
L 549.756062 290.88921 
L 551.220293 283.820822 
L 551.77527 280.22101 
L 551.77527 280.22101 
" clip-path="url(#p37b78fbc5d)" style="fill: none; stroke-dasharray: 12.8,3.2,2,3.2; stroke-dashoffset: 0; stroke: #ff0000; stroke-width: 2"/>
   </g>
   <g id="line2d_34">
    <path d="M 545.185232 281.067549 
L 544.669624 277.130596 
L 543.672064 274.847157 
L 545.068217 264.076782 
L 542.653649 258.751121 
L 541.676794 258.913477 
L 549.504432 256.968611 
L 549.123296 253.60328 
L 540.599307 251.22389 
L 543.281538 246.151353 
L 545.679008 249.199049 
L 540.041082 237.63671 
L 539.966761 239.390066 
L 539.966761 239.390066 
L 541.635382 236.969285 
L 541.514331 229.631648 
L 544.170995 223.963948 
L 537.266055 219.006705 
L 541.493919 222.429336 
L 540.141676 215.17535 
L 537.856809 206.556829 
L 533.747988 201.617284 
L 533.169074 188.445443 
L 532.761126 186.360272 
L 531.572528 184.810327 
L 525.227682 183.662078 
L 525.388928 184.290878 
L 528.004974 179.762083 
L 519.121969 177.453987 
L 519.7656 174.684784 
L 518.648019 171.526506 
L 516.033293 175.898999 
L 513.228024 170.621579 
L 500.039441 162.07927 
L 501.570749 159.324983 
L 500.344345 159.612135 
L 493.575353 159.336762 
L 495.208912 154.321188 
L 496.250404 154.933361 
L 493.008818 151.288816 
L 493.40438 155.192731 
L 489.58977 140.090182 
L 489.58977 140.090182 
L 486.190742 142.654885 
L 481.688685 135.283406 
L 470.329097 128.486413 
L 471.662148 131.803458 
L 467.870253 129.866333 
L 467.870253 129.866333 
L 464.700713 123.41556 
L 459.108946 127.378914 
L 454.96762 119.321169 
L 447.172147 117.207957 
L 446.957816 121.131489 
L 447.935411 115.850603 
L 443.084971 118.934737 
L 433.787129 109.817207 
L 423.7311 108.701339 
L 423.7311 108.701339 
L 414.997281 101.512581 
L 421.216494 103.359771 
L 417.848982 103.392135 
L 412.797325 102.525733 
L 416.079872 98.715429 
L 406.576535 97.512601 
L 395.662981 100.832581 
L 379.764798 100.565638 
L 382.708113 97.330852 
L 381.141277 98.281749 
L 379.480516 94.330935 
L 368.401496 91.630202 
L 364.720251 91.317625 
L 364.720251 91.317625 
L 350.099485 92.823288 
L 349.896955 92.107802 
L 341.567247 89.143627 
L 337.621966 93.431651 
L 337.621966 93.431651 
L 342.998145 97.978539 
L 335.566339 117.187298 
L 335.566339 117.187298 
L 323.529347 110.60322 
L 321.960689 111.484687 
L 321.960689 111.484687 
L 309.082123 115.297806 
L 309.082123 115.297806 
L 304.794214 106.136829 
L 295.95321 112.6889 
L 288.994995 114.358102 
L 283.001347 109.619206 
L 284.182306 107.827117 
L 283.741339 113.236338 
L 281.366054 111.660003 
L 278.648288 115.674755 
L 285.812997 123.484443 
L 275.80417 120.635867 
L 266.008522 128.400263 
L 260.655144 131.975894 
L 260.655144 131.975894 
L 257.559767 129.866127 
L 246.516485 141.80207 
L 239.08448 143.162248 
L 235.566173 147.986478 
L 238.762314 149.706757 
L 233.935083 148.108864 
L 226.235039 156.492589 
L 222.929711 156.401826 
L 222.929711 156.401826 
L 225.325835 159.048729 
L 224.30369 163.28525 
L 219.775762 167.544138 
L 217.956842 172.204805 
L 218.977689 173.745146 
L 210.271904 172.300699 
L 204.89405 176.000897 
L 198.384622 183.107618 
L 201.96407 190.607352 
L 201.96407 190.607352 
L 194.509505 197.907651 
L 194.386873 201.734957 
L 192.936727 201.859365 
L 192.295598 201.205925 
L 191.422291 205.389945 
L 187.200393 209.506349 
L 192.896989 228.349197 
L 189.525773 233.017713 
L 181.712145 236.031568 
L 187.851482 237.001476 
L 187.851482 237.001476 
L 184.669223 237.631176 
L 183.389235 235.153148 
L 187.553106 241.625692 
L 185.437135 245.879976 
L 190.478579 249.119162 
L 183.157542 253.752585 
L 183.157542 253.752585 
L 191.461345 255.325988 
L 189.555863 258.38675 
L 194.928258 270.520139 
L 200.125559 271.107776 
L 194.705434 273.008142 
L 199.012825 278.748197 
L 203.05764 276.732285 
L 205.742572 281.708297 
L 205.742572 281.708297 
L 208.331395 293.98175 
L 203.575773 298.603339 
L 203.575773 298.603339 
L 211.016085 312.044376 
L 218.827734 316.268386 
L 212.100071 319.545266 
L 210.381301 324.803055 
L 216.572255 328.705542 
L 224.172151 331.751498 
L 221.360186 335.239768 
L 216.094067 339.21827 
L 218.534221 340.351466 
L 221.650435 340.860238 
L 223.036162 342.397557 
L 227.296216 345.201989 
L 231.090451 347.870532 
L 239.599889 351.209223 
L 242.964167 356.903132 
L 242.510589 355.982632 
L 248.866073 357.935454 
L 252.932252 358.434121 
L 258.763996 360.918237 
L 258.763996 360.918237 
L 257.9647 359.500828 
L 259.196456 364.991899 
L 267.874459 375.55618 
L 276.65475 376.261815 
L 276.65475 376.261815 
L 278.28579 383.376579 
L 274.997424 390.635335 
L 283.2753 390.40561 
L 286.577609 389.239158 
L 297.116176 392.224363 
L 309.541128 389.430647 
L 313.600733 390.362596 
L 309.094126 391.105284 
L 324.365084 398.855449 
L 324.365084 398.855449 
L 325.284005 403.02589 
L 325.401116 408.34695 
L 325.805292 410.485474 
L 331.890738 413.657558 
L 337.330522 420.15671 
L 337.330522 420.15671 
L 343.462704 422.060703 
L 340.51252 423.741706 
L 346.115514 418.150681 
L 345.282603 414.832984 
L 345.282603 414.832984 
L 347.882449 416.074141 
L 356.536393 424.765018 
L 356.536393 424.765018 
L 364.819884 425.812922 
L 367.032012 425.175121 
L 373.305448 419.547229 
L 386.302642 418.038838 
L 403.154563 418.0106 
L 412.438719 419.178154 
L 414.73268 415.460534 
L 413.315721 408.344609 
L 423.130335 407.231855 
L 423.130335 407.231855 
L 433.096931 417.097375 
L 432.854155 421.57782 
L 433.781129 408.376536 
L 439.028991 403.848405 
L 450.356372 408.916319 
L 450.356372 408.916319 
L 451.186187 403.567063 
L 454.00562 406.135481 
L 464.714444 407.598305 
L 481.363053 387.689623 
L 485.671909 387.160737 
L 495.023565 370.329749 
L 495.023565 370.329749 
L 492.683772 371.568584 
L 490.971342 366.70985 
L 495.710954 364.753579 
L 499.160288 366.643487 
L 506.149525 366.772803 
L 510.508459 361.543017 
L 511.026149 364.976401 
L 512.95572 359.94989 
L 516.881601 356.824348 
L 516.050785 337.468375 
L 521.11832 337.490093 
L 526.036512 334.713292 
L 534.029477 329.492634 
L 541.44778 313.987204 
L 544.496252 309.640746 
L 542.903239 306.276247 
L 546.680209 305.923476 
L 545.079332 302.396753 
L 544.80054 302.142685 
L 549.66758 298.45207 
L 549.66758 298.45207 
L 556.287855 287.339274 
L 556.287855 287.339274 
" clip-path="url(#p37b78fbc5d)" style="fill: none; stroke: #008000; stroke-width: 1.5; stroke-linecap: square"/>
   </g>
   <g id="line2d_35">
    <path d="M 547.118569 257.591968 
L 547.115876 251.293617 
L 546.755479 242.796513 
L 545.997119 234.423739 
L 544.89369 226.423096 
L 544.180223 222.31059 
L 542.25679 213.277105 
L 539.124175 201.929229 
L 536.506595 194.183626 
L 533.505917 186.502947 
L 530.016969 178.691699 
L 526.402199 171.523725 
L 522.31369 164.272918 
L 517.891683 157.229109 
L 513.072297 150.305475 
L 510.483237 146.858564 
L 505.375471 140.535532 
L 502.703291 137.452224 
L 499.064511 133.474551 
L 494.082033 128.401281 
L 491.095104 125.54775 
L 484.08478 119.345444 
L 481.135645 116.926382 
L 476.992199 113.70212 
L 469.555814 108.38772 
L 466.767584 106.540568 
L 459.679521 102.175091 
L 451.712625 97.795265 
L 445.122602 94.562397 
L 436.890364 90.986117 
L 430.345378 88.488691 
L 422.884986 85.996737 
L 418.889658 84.812027 
L 409.980676 82.533535 
L 405.1932 81.510909 
L 396.884145 80.061868 
L 389.545273 79.119015 
L 381.323149 78.431597 
L 376.904435 78.221617 
L 372.206498 78.12 
L 367.48754 78.143919 
L 357.959312 78.577587 
L 354.465554 78.866327 
L 347.9784 79.588689 
L 337.936885 81.190884 
L 328.284682 83.299251 
L 318.732404 85.954942 
L 312.475364 88.014203 
L 303.674483 91.360158 
L 300.518431 92.693435 
L 291.523597 96.901368 
L 286.570759 99.48971 
L 280.692379 102.82869 
L 273.881974 107.084182 
L 268.180757 110.991699 
L 261.685534 115.862639 
L 257.204886 119.507055 
L 251.291091 124.709967 
L 247.542357 128.262302 
L 240.088992 135.991793 
L 237.608624 138.784771 
L 234.773731 142.128887 
L 229.755382 148.492209 
L 224.927327 155.236643 
L 222.382927 159.080595 
L 217.16696 167.722646 
L 216.100803 169.636734 
L 212.277589 177.008197 
L 208.901919 184.328709 
L 205.334746 193.205693 
L 202.941734 200.095241 
L 200.174847 209.511098 
L 199.287263 213.020396 
L 197.67352 220.370011 
L 196.079788 229.781338 
L 195.512404 234.186192 
L 194.620795 244.511964 
L 194.34813 252.516532 
L 194.356827 257.178061 
L 194.678654 265.495519 
L 194.984538 269.621764 
L 195.460572 274.398421 
L 196.174755 279.916583 
L 197.370456 287.092825 
L 198.919193 294.464646 
L 200.931427 302.300635 
L 202.306238 306.94132 
L 203.827922 311.60127 
L 207.359083 321.037389 
L 209.032049 325.006983 
L 212.359868 332.196194 
L 216.179213 339.542362 
L 219.002904 344.484888 
L 221.424458 348.44916 
L 225.75909 355.010495 
L 227.993833 358.160383 
L 233.272675 365.066452 
L 238.36885 371.120392 
L 244.492767 377.7247 
L 248.338398 381.545997 
L 253.431824 386.264229 
L 257.419411 389.709461 
L 263.979064 394.947362 
L 270.054835 399.365559 
L 279.560843 405.530257 
L 285.644418 409.040156 
L 292.373132 412.559148 
L 296.169657 414.38558 
L 303.143658 417.457037 
L 310.956419 420.482865 
L 314.735222 421.795872 
L 319.285371 423.251082 
L 328.126281 425.697796 
L 338.840857 428.014167 
L 347.980281 429.447959 
L 355.187848 430.235505 
L 359.939821 430.5915 
L 364.502503 430.812142 
L 372.822455 430.910211 
L 376.242045 430.836698 
L 384.808822 430.360663 
L 392.805533 429.53715 
L 398.998001 428.644645 
L 405.968274 427.369341 
L 413.787724 425.589701 
L 421.660541 423.413671 
L 431.149534 420.25682 
L 439.956751 416.77621 
L 443.849193 415.060016 
L 448.937416 412.644111 
L 455.4118 409.273942 
L 463.302029 404.687907 
L 467.062462 402.304063 
L 473.586451 397.840562 
L 479.955455 393.048665 
L 484.05305 389.717559 
L 488.290226 386.050201 
L 496.795429 377.923103 
L 502.049806 372.316702 
L 506.854122 366.730981 
L 512.44164 359.586842 
L 516.531984 353.833255 
L 519.68769 349.034734 
L 524.726622 340.581667 
L 527.370516 335.670448 
L 530.599377 329.109033 
L 534.771208 319.422624 
L 537.276223 312.694769 
L 538.50233 309.058369 
L 540.560103 302.267194 
L 542.640562 294.129245 
L 544.380335 285.628901 
L 545.726858 276.844063 
L 546.435284 270.330009 
L 546.842781 264.845706 
L 547.13075 256.787765 
L 547.140882 253.262603 
L 547.140882 253.262603 
" clip-path="url(#p37b78fbc5d)" style="fill: none; stroke-dasharray: 5.55,2.4; stroke-dashoffset: 0; stroke: #0000ff; stroke-width: 1.5"/>
   </g>
   <g id="patch_3">
    <path d="M 90 448.56 
L 90 60.48 
" style="fill: none; stroke: #000000; stroke-width: 0.8; stroke-linejoin: miter; stroke-linecap: square"/>
   </g>
   <g id="patch_4">
    <path d="M 648 448.56 
L 648 60.48 
" style="fill: none; stroke: #000000; stroke-width: 0.8; stroke-linejoin: miter; stroke-linecap: square"/>
   </g>
   <g id="patch_5">
    <path d="M 90 448.56 
L 648 448.56 
" style="fill: none; stroke: #000000; stroke-width: 0.8; stroke-linejoin: miter; stroke-linecap: square"/>
   </g>
   <g id="patch_6">
    <path d="M 90 60.48 
L 648 60.48 
" style="fill: none; stroke: #000000; stroke-width: 0.8; stroke-linejoin: miter; stroke-linecap: square"/>
   </g>
   <g id="legend_1">
    <g id="patch_7">
     <path d="M 561.920313 112.514375 
L 641 112.514375 
Q 643 112.514375 643 110.514375 
L 643 67.48 
Q 643 65.48 641 65.48 
L 561.920313 65.48 
Q 559.920313 65.48 559.920313 67.48 
L 559.920313 110.514375 
Q 559.920313 112.514375 561.920313 112.514375 
z
" style="fill: #ffffff; opacity: 0.8; stroke: #cccccc; stroke-linejoin: miter"/>
    </g>
    <g id="line2d_36">
     <path d="M 563.920313 73.578438 
L 573.920313 73.578438 
L 583.920313 73.578438 
" style="fill: none; stroke-dasharray: 12.8,3.2,2,3.2; stroke-dashoffset: 0; stroke: #ff0000; stroke-width: 2"/>
    </g>
    <g id="text_19">
     <!-- OptiTrack -->
     <g transform="translate(591.920313 77.078438)scale(0.1 -0.1)">
      <defs>
       <path id="DejaVuSans-4f" d="M 2522 4238 
Q 1834 4238 1429 3725 
Q 1025 3213 1025 2328 
Q 1025 1447 1429 934 
Q 1834 422 2522 422 
Q 3209 422 3611 934 
Q 4013 1447 4013 2328 
Q 4013 3213 3611 3725 
Q 3209 4238 2522 4238 
z
M 2522 4750 
Q 3503 4750 4090 4092 
Q 4678 3434 4678 2328 
Q 4678 1225 4090 567 
Q 3503 -91 2522 -91 
Q 1538 -91 948 565 
Q 359 1222 359 2328 
Q 359 3434 948 4092 
Q 1538 4750 2522 4750 
z
" transform="scale(0.015625)"/>
       <path id="DejaVuSans-70" d="M 1159 525 
L 1159 -1331 
L 581 -1331 
L 581 3500 
L 1159 3500 
L 1159 2969 
Q 1341 3281 1617 3432 
Q 1894 3584 2278 3584 
Q 2916 3584 3314 3078 
Q 3713 2572 3713 1747 
Q 3713 922 3314 415 
Q 2916 -91 2278 -91 
Q 1894 -91 1617 61 
Q 1341 213 1159 525 
z
M 3116 1747 
Q 3116 2381 2855 2742 
Q 2594 3103 2138 3103 
Q 1681 3103 1420 2742 
Q 1159 2381 1159 1747 
Q 1159 1113 1420 752 
Q 1681 391 2138 391 
Q 2594 391 2855 752 
Q 3116 1113 3116 1747 
z
" transform="scale(0.015625)"/>
       <path id="DejaVuSans-54" d="M -19 4666 
L 3928 4666 
L 3928 4134 
L 2272 4134 
L 2272 0 
L 1638 0 
L 1638 4134 
L -19 4134 
L -19 4666 
z
" transform="scale(0.015625)"/>
       <path id="DejaVuSans-72" d="M 2631 2963 
Q 2534 3019 2420 3045 
Q 2306 3072 2169 3072 
Q 1681 3072 1420 2755 
Q 1159 2438 1159 1844 
L 1159 0 
L 581 0 
L 581 3500 
L 1159 3500 
L 1159 2956 
Q 1341 3275 1631 3429 
Q 1922 3584 2338 3584 
Q 2397 3584 2469 3576 
Q 2541 3569 2628 3553 
L 2631 2963 
z
" transform="scale(0.015625)"/>
       <path id="DejaVuSans-61" d="M 2194 1759 
Q 1497 1759 1228 1600 
Q 959 1441 959 1056 
Q 959 750 1161 570 
Q 1363 391 1709 391 
Q 2188 391 2477 730 
Q 2766 1069 2766 1631 
L 2766 1759 
L 2194 1759 
z
M 3341 1997 
L 3341 0 
L 2766 0 
L 2766 531 
Q 2569 213 2275 61 
Q 1981 -91 1556 -91 
Q 1019 -91 701 211 
Q 384 513 384 1019 
Q 384 1609 779 1909 
Q 1175 2209 1959 2209 
L 2766 2209 
L 2766 2266 
Q 2766 2663 2505 2880 
Q 2244 3097 1772 3097 
Q 1472 3097 1187 3025 
Q 903 2953 641 2809 
L 641 3341 
Q 956 3463 1253 3523 
Q 1550 3584 1831 3584 
Q 2591 3584 2966 3190 
Q 3341 2797 3341 1997 
z
" transform="scale(0.015625)"/>
       <path id="DejaVuSans-63" d="M 3122 3366 
L 3122 2828 
Q 2878 2963 2633 3030 
Q 2388 3097 2138 3097 
Q 1578 3097 1268 2742 
Q 959 2388 959 1747 
Q 959 1106 1268 751 
Q 1578 397 2138 397 
Q 2388 397 2633 464 
Q 2878 531 3122 666 
L 3122 134 
Q 2881 22 2623 -34 
Q 2366 -91 2075 -91 
Q 1284 -91 818 406 
Q 353 903 353 1747 
Q 353 2603 823 3093 
Q 1294 3584 2113 3584 
Q 2378 3584 2631 3529 
Q 2884 3475 3122 3366 
z
" transform="scale(0.015625)"/>
       <path id="DejaVuSans-6b" d="M 581 4863 
L 1159 4863 
L 1159 1991 
L 2875 3500 
L 3609 3500 
L 1753 1863 
L 3688 0 
L 2938 0 
L 1159 1709 
L 1159 0 
L 581 0 
L 581 4863 
z
" transform="scale(0.015625)"/>
      </defs>
      <use xlink:href="#DejaVuSans-4f"/>
      <use xlink:href="#DejaVuSans-70" x="78.710938"/>
      <use xlink:href="#DejaVuSans-74" x="142.1875"/>
      <use xlink:href="#DejaVuSans-69" x="181.396484"/>
      <use xlink:href="#DejaVuSans-54" x="209.179688"/>
      <use xlink:href="#DejaVuSans-72" x="255.513672"/>
      <use xlink:href="#DejaVuSans-61" x="296.626953"/>
      <use xlink:href="#DejaVuSans-63" x="357.90625"/>
      <use xlink:href="#DejaVuSans-6b" x="412.886719"/>
     </g>
    </g>
    <g id="line2d_37">
     <path d="M 563.920313 88.256563 
L 573.920313 88.256563 
L 583.920313 88.256563 
" style="fill: none; stroke: #008000; stroke-width: 1.5; stroke-linecap: square"/>
    </g>
    <g id="text_20">
     <!-- Kalman -->
     <g transform="translate(591.920313 91.756563)scale(0.1 -0.1)">
      <defs>
       <path id="DejaVuSans-4b" d="M 628 4666 
L 1259 4666 
L 1259 2694 
L 3353 4666 
L 4166 4666 
L 1850 2491 
L 4331 0 
L 3500 0 
L 1259 2247 
L 1259 0 
L 628 0 
L 628 4666 
z
" transform="scale(0.015625)"/>
       <path id="DejaVuSans-6c" d="M 603 4863 
L 1178 4863 
L 1178 0 
L 603 0 
L 603 4863 
z
" transform="scale(0.015625)"/>
       <path id="DejaVuSans-6d" d="M 3328 2828 
Q 3544 3216 3844 3400 
Q 4144 3584 4550 3584 
Q 5097 3584 5394 3201 
Q 5691 2819 5691 2113 
L 5691 0 
L 5113 0 
L 5113 2094 
Q 5113 2597 4934 2840 
Q 4756 3084 4391 3084 
Q 3944 3084 3684 2787 
Q 3425 2491 3425 1978 
L 3425 0 
L 2847 0 
L 2847 2094 
Q 2847 2600 2669 2842 
Q 2491 3084 2119 3084 
Q 1678 3084 1418 2786 
Q 1159 2488 1159 1978 
L 1159 0 
L 581 0 
L 581 3500 
L 1159 3500 
L 1159 2956 
Q 1356 3278 1631 3431 
Q 1906 3584 2284 3584 
Q 2666 3584 2933 3390 
Q 3200 3197 3328 2828 
z
" transform="scale(0.015625)"/>
      </defs>
      <use xlink:href="#DejaVuSans-4b"/>
      <use xlink:href="#DejaVuSans-61" x="63.826172"/>
      <use xlink:href="#DejaVuSans-6c" x="125.105469"/>
      <use xlink:href="#DejaVuSans-6d" x="152.888672"/>
      <use xlink:href="#DejaVuSans-61" x="250.300781"/>
      <use xlink:href="#DejaVuSans-6e" x="311.580078"/>
     </g>
    </g>
    <g id="line2d_38">
     <path d="M 563.920313 102.934687 
L 573.920313 102.934687 
L 583.920313 102.934687 
" style="fill: none; stroke-dasharray: 5.55,2.4; stroke-dashoffset: 0; stroke: #0000ff; stroke-width: 1.5"/>
    </g>
    <g id="text_21">
     <!-- Desired -->
     <g transform="translate(591.920313 106.434687)scale(0.1 -0.1)">
      <defs>
       <path id="DejaVuSans-44" d="M 1259 4147 
L 1259 519 
L 2022 519 
Q 2988 519 3436 956 
Q 3884 1394 3884 2338 
Q 3884 3275 3436 3711 
Q 2988 4147 2022 4147 
L 1259 4147 
z
M 628 4666 
L 1925 4666 
Q 3281 4666 3915 4102 
Q 4550 3538 4550 2338 
Q 4550 1131 3912 565 
Q 3275 0 1925 0 
L 628 0 
L 628 4666 
z
" transform="scale(0.015625)"/>
       <path id="DejaVuSans-65" d="M 3597 1894 
L 3597 1613 
L 953 1613 
Q 991 1019 1311 708 
Q 1631 397 2203 397 
Q 2534 397 2845 478 
Q 3156 559 3463 722 
L 3463 178 
Q 3153 47 2828 -22 
Q 2503 -91 2169 -91 
Q 1331 -91 842 396 
Q 353 884 353 1716 
Q 353 2575 817 3079 
Q 1281 3584 2069 3584 
Q 2775 3584 3186 3129 
Q 3597 2675 3597 1894 
z
M 3022 2063 
Q 3016 2534 2758 2815 
Q 2500 3097 2075 3097 
Q 1594 3097 1305 2825 
Q 1016 2553 972 2059 
L 3022 2063 
z
" transform="scale(0.015625)"/>
       <path id="DejaVuSans-64" d="M 2906 2969 
L 2906 4863 
L 3481 4863 
L 3481 0 
L 2906 0 
L 2906 525 
Q 2725 213 2448 61 
Q 2172 -91 1784 -91 
Q 1150 -91 751 415 
Q 353 922 353 1747 
Q 353 2572 751 3078 
Q 1150 3584 1784 3584 
Q 2172 3584 2448 3432 
Q 2725 3281 2906 2969 
z
M 947 1747 
Q 947 1113 1208 752 
Q 1469 391 1925 391 
Q 2381 391 2643 752 
Q 2906 1113 2906 1747 
Q 2906 2381 2643 2742 
Q 2381 3103 1925 3103 
Q 1469 3103 1208 2742 
Q 947 2381 947 1747 
z
" transform="scale(0.015625)"/>
      </defs>
      <use xlink:href="#DejaVuSans-44"/>
      <use xlink:href="#DejaVuSans-65" x="77.001953"/>
      <use xlink:href="#DejaVuSans-73" x="138.525391"/>
      <use xlink:href="#DejaVuSans-69" x="190.625"/>
      <use xlink:href="#DejaVuSans-72" x="218.408203"/>
      <use xlink:href="#DejaVuSans-65" x="257.271484"/>
      <use xlink:href="#DejaVuSans-64" x="318.794922"/>
     </g>
    </g>
   </g>
  </g>
 </g>
 <defs>
  <clipPath id="p37b78fbc5d">
   <rect x="90" y="60.48" width="558" height="388.08"/>
  </clipPath>
 </defs>
</svg>
