<?xml version="1.0" encoding="utf-8" standalone="no"?>
<!DOCTYPE svg PUBLIC "-//W3C//DTD SVG 1.1//EN"
  "http://www.w3.org/Graphics/SVG/1.1/DTD/svg11.dtd">
<svg xmlns:xlink="http://www.w3.org/1999/xlink" width="720pt" height="504pt" viewBox="0 0 720 504" xmlns="http://www.w3.org/2000/svg" version="1.1">
 <metadata>
  <rdf:RDF xmlns:dc="http://purl.org/dc/elements/1.1/" xmlns:cc="http://creativecommons.org/ns#" xmlns:rdf="http://www.w3.org/1999/02/22-rdf-syntax-ns#">
   <cc:Work>
    <dc:type rdf:resource="http://purl.org/dc/dcmitype/StillImage"/>
    <dc:date>2024-02-15T17:06:41.603065</dc:date>
    <dc:format>image/svg+xml</dc:format>
    <dc:creator>
     <cc:Agent>
      <dc:title>Matplotlib v3.5.1, https://matplotlib.org/</dc:title>
     </cc:Agent>
    </dc:creator>
   </cc:Work>
  </rdf:RDF>
 </metadata>
 <defs>
  <style type="text/css">*{stroke-linejoin: round; stroke-linecap: butt}</style>
 </defs>
 <g id="figure_1">
  <g id="patch_1">
   <path d="M 0 504 
L 720 504 
L 720 0 
L 0 0 
z
" style="fill: #ffffff"/>
  </g>
  <g id="axes_1">
   <g id="patch_2">
    <path d="M 90 448.56 
L 648 448.56 
L 648 60.48 
L 90 60.48 
z
" style="fill: #ffffff"/>
   </g>
   <g id="matplotlib.axis_1">
    <g id="xtick_1">
     <g id="line2d_1">
      <path d="M 164.798108 448.56 
L 164.798108 60.48 
" clip-path="url(#p6937b47e1e)" style="fill: none; stroke: #b0b0b0; stroke-width: 0.8; stroke-linecap: square"/>
     </g>
     <g id="line2d_2">
      <defs>
       <path id="m9d0660db42" d="M 0 0 
L 0 3.5 
" style="stroke: #000000; stroke-width: 0.8"/>
      </defs>
      <g>
       <use xlink:href="#m9d0660db42" x="164.798108" y="448.56" style="stroke: #000000; stroke-width: 0.8"/>
      </g>
     </g>
     <g id="text_1">
      <!-- 10 -->
      <g transform="translate(158.435608 463.158437)scale(0.1 -0.1)">
       <defs>
        <path id="DejaVuSans-31" d="M 794 531 
L 1825 531 
L 1825 4091 
L 703 3866 
L 703 4441 
L 1819 4666 
L 2450 4666 
L 2450 531 
L 3481 531 
L 3481 0 
L 794 0 
L 794 531 
z
" transform="scale(0.015625)"/>
        <path id="DejaVuSans-30" d="M 2034 4250 
Q 1547 4250 1301 3770 
Q 1056 3291 1056 2328 
Q 1056 1369 1301 889 
Q 1547 409 2034 409 
Q 2525 409 2770 889 
Q 3016 1369 3016 2328 
Q 3016 3291 2770 3770 
Q 2525 4250 2034 4250 
z
M 2034 4750 
Q 2819 4750 3233 4129 
Q 3647 3509 3647 2328 
Q 3647 1150 3233 529 
Q 2819 -91 2034 -91 
Q 1250 -91 836 529 
Q 422 1150 422 2328 
Q 422 3509 836 4129 
Q 1250 4750 2034 4750 
z
" transform="scale(0.015625)"/>
       </defs>
       <use xlink:href="#DejaVuSans-31"/>
       <use xlink:href="#DejaVuSans-30" x="63.623047"/>
      </g>
     </g>
    </g>
    <g id="xtick_2">
     <g id="line2d_3">
      <path d="M 265.603802 448.56 
L 265.603802 60.48 
" clip-path="url(#p6937b47e1e)" style="fill: none; stroke: #b0b0b0; stroke-width: 0.8; stroke-linecap: square"/>
     </g>
     <g id="line2d_4">
      <g>
       <use xlink:href="#m9d0660db42" x="265.603802" y="448.56" style="stroke: #000000; stroke-width: 0.8"/>
      </g>
     </g>
     <g id="text_2">
      <!-- 20 -->
      <g transform="translate(259.241302 463.158437)scale(0.1 -0.1)">
       <defs>
        <path id="DejaVuSans-32" d="M 1228 531 
L 3431 531 
L 3431 0 
L 469 0 
L 469 531 
Q 828 903 1448 1529 
Q 2069 2156 2228 2338 
Q 2531 2678 2651 2914 
Q 2772 3150 2772 3378 
Q 2772 3750 2511 3984 
Q 2250 4219 1831 4219 
Q 1534 4219 1204 4116 
Q 875 4013 500 3803 
L 500 4441 
Q 881 4594 1212 4672 
Q 1544 4750 1819 4750 
Q 2544 4750 2975 4387 
Q 3406 4025 3406 3419 
Q 3406 3131 3298 2873 
Q 3191 2616 2906 2266 
Q 2828 2175 2409 1742 
Q 1991 1309 1228 531 
z
" transform="scale(0.015625)"/>
       </defs>
       <use xlink:href="#DejaVuSans-32"/>
       <use xlink:href="#DejaVuSans-30" x="63.623047"/>
      </g>
     </g>
    </g>
    <g id="xtick_3">
     <g id="line2d_5">
      <path d="M 366.409496 448.56 
L 366.409496 60.48 
" clip-path="url(#p6937b47e1e)" style="fill: none; stroke: #b0b0b0; stroke-width: 0.8; stroke-linecap: square"/>
     </g>
     <g id="line2d_6">
      <g>
       <use xlink:href="#m9d0660db42" x="366.409496" y="448.56" style="stroke: #000000; stroke-width: 0.8"/>
      </g>
     </g>
     <g id="text_3">
      <!-- 30 -->
      <g transform="translate(360.046996 463.158437)scale(0.1 -0.1)">
       <defs>
        <path id="DejaVuSans-33" d="M 2597 2516 
Q 3050 2419 3304 2112 
Q 3559 1806 3559 1356 
Q 3559 666 3084 287 
Q 2609 -91 1734 -91 
Q 1441 -91 1130 -33 
Q 819 25 488 141 
L 488 750 
Q 750 597 1062 519 
Q 1375 441 1716 441 
Q 2309 441 2620 675 
Q 2931 909 2931 1356 
Q 2931 1769 2642 2001 
Q 2353 2234 1838 2234 
L 1294 2234 
L 1294 2753 
L 1863 2753 
Q 2328 2753 2575 2939 
Q 2822 3125 2822 3475 
Q 2822 3834 2567 4026 
Q 2313 4219 1838 4219 
Q 1578 4219 1281 4162 
Q 984 4106 628 3988 
L 628 4550 
Q 988 4650 1302 4700 
Q 1616 4750 1894 4750 
Q 2613 4750 3031 4423 
Q 3450 4097 3450 3541 
Q 3450 3153 3228 2886 
Q 3006 2619 2597 2516 
z
" transform="scale(0.015625)"/>
       </defs>
       <use xlink:href="#DejaVuSans-33"/>
       <use xlink:href="#DejaVuSans-30" x="63.623047"/>
      </g>
     </g>
    </g>
    <g id="xtick_4">
     <g id="line2d_7">
      <path d="M 467.21519 448.56 
L 467.21519 60.48 
" clip-path="url(#p6937b47e1e)" style="fill: none; stroke: #b0b0b0; stroke-width: 0.8; stroke-linecap: square"/>
     </g>
     <g id="line2d_8">
      <g>
       <use xlink:href="#m9d0660db42" x="467.21519" y="448.56" style="stroke: #000000; stroke-width: 0.8"/>
      </g>
     </g>
     <g id="text_4">
      <!-- 40 -->
      <g transform="translate(460.85269 463.158437)scale(0.1 -0.1)">
       <defs>
        <path id="DejaVuSans-34" d="M 2419 4116 
L 825 1625 
L 2419 1625 
L 2419 4116 
z
M 2253 4666 
L 3047 4666 
L 3047 1625 
L 3713 1625 
L 3713 1100 
L 3047 1100 
L 3047 0 
L 2419 0 
L 2419 1100 
L 313 1100 
L 313 1709 
L 2253 4666 
z
" transform="scale(0.015625)"/>
       </defs>
       <use xlink:href="#DejaVuSans-34"/>
       <use xlink:href="#DejaVuSans-30" x="63.623047"/>
      </g>
     </g>
    </g>
    <g id="xtick_5">
     <g id="line2d_9">
      <path d="M 568.020884 448.56 
L 568.020884 60.48 
" clip-path="url(#p6937b47e1e)" style="fill: none; stroke: #b0b0b0; stroke-width: 0.8; stroke-linecap: square"/>
     </g>
     <g id="line2d_10">
      <g>
       <use xlink:href="#m9d0660db42" x="568.020884" y="448.56" style="stroke: #000000; stroke-width: 0.8"/>
      </g>
     </g>
     <g id="text_5">
      <!-- 50 -->
      <g transform="translate(561.658384 463.158437)scale(0.1 -0.1)">
       <defs>
        <path id="DejaVuSans-35" d="M 691 4666 
L 3169 4666 
L 3169 4134 
L 1269 4134 
L 1269 2991 
Q 1406 3038 1543 3061 
Q 1681 3084 1819 3084 
Q 2600 3084 3056 2656 
Q 3513 2228 3513 1497 
Q 3513 744 3044 326 
Q 2575 -91 1722 -91 
Q 1428 -91 1123 -41 
Q 819 9 494 109 
L 494 744 
Q 775 591 1075 516 
Q 1375 441 1709 441 
Q 2250 441 2565 725 
Q 2881 1009 2881 1497 
Q 2881 1984 2565 2268 
Q 2250 2553 1709 2553 
Q 1456 2553 1204 2497 
Q 953 2441 691 2322 
L 691 4666 
z
" transform="scale(0.015625)"/>
       </defs>
       <use xlink:href="#DejaVuSans-35"/>
       <use xlink:href="#DejaVuSans-30" x="63.623047"/>
      </g>
     </g>
    </g>
    <g id="text_6">
     <!-- Time (s) -->
     <g transform="translate(348.671094 476.836563)scale(0.1 -0.1)">
      <defs>
       <path id="DejaVuSans-54" d="M -19 4666 
L 3928 4666 
L 3928 4134 
L 2272 4134 
L 2272 0 
L 1638 0 
L 1638 4134 
L -19 4134 
L -19 4666 
z
" transform="scale(0.015625)"/>
       <path id="DejaVuSans-69" d="M 603 3500 
L 1178 3500 
L 1178 0 
L 603 0 
L 603 3500 
z
M 603 4863 
L 1178 4863 
L 1178 4134 
L 603 4134 
L 603 4863 
z
" transform="scale(0.015625)"/>
       <path id="DejaVuSans-6d" d="M 3328 2828 
Q 3544 3216 3844 3400 
Q 4144 3584 4550 3584 
Q 5097 3584 5394 3201 
Q 5691 2819 5691 2113 
L 5691 0 
L 5113 0 
L 5113 2094 
Q 5113 2597 4934 2840 
Q 4756 3084 4391 3084 
Q 3944 3084 3684 2787 
Q 3425 2491 3425 1978 
L 3425 0 
L 2847 0 
L 2847 2094 
Q 2847 2600 2669 2842 
Q 2491 3084 2119 3084 
Q 1678 3084 1418 2786 
Q 1159 2488 1159 1978 
L 1159 0 
L 581 0 
L 581 3500 
L 1159 3500 
L 1159 2956 
Q 1356 3278 1631 3431 
Q 1906 3584 2284 3584 
Q 2666 3584 2933 3390 
Q 3200 3197 3328 2828 
z
" transform="scale(0.015625)"/>
       <path id="DejaVuSans-65" d="M 3597 1894 
L 3597 1613 
L 953 1613 
Q 991 1019 1311 708 
Q 1631 397 2203 397 
Q 2534 397 2845 478 
Q 3156 559 3463 722 
L 3463 178 
Q 3153 47 2828 -22 
Q 2503 -91 2169 -91 
Q 1331 -91 842 396 
Q 353 884 353 1716 
Q 353 2575 817 3079 
Q 1281 3584 2069 3584 
Q 2775 3584 3186 3129 
Q 3597 2675 3597 1894 
z
M 3022 2063 
Q 3016 2534 2758 2815 
Q 2500 3097 2075 3097 
Q 1594 3097 1305 2825 
Q 1016 2553 972 2059 
L 3022 2063 
z
" transform="scale(0.015625)"/>
       <path id="DejaVuSans-20" transform="scale(0.015625)"/>
       <path id="DejaVuSans-28" d="M 1984 4856 
Q 1566 4138 1362 3434 
Q 1159 2731 1159 2009 
Q 1159 1288 1364 580 
Q 1569 -128 1984 -844 
L 1484 -844 
Q 1016 -109 783 600 
Q 550 1309 550 2009 
Q 550 2706 781 3412 
Q 1013 4119 1484 4856 
L 1984 4856 
z
" transform="scale(0.015625)"/>
       <path id="DejaVuSans-73" d="M 2834 3397 
L 2834 2853 
Q 2591 2978 2328 3040 
Q 2066 3103 1784 3103 
Q 1356 3103 1142 2972 
Q 928 2841 928 2578 
Q 928 2378 1081 2264 
Q 1234 2150 1697 2047 
L 1894 2003 
Q 2506 1872 2764 1633 
Q 3022 1394 3022 966 
Q 3022 478 2636 193 
Q 2250 -91 1575 -91 
Q 1294 -91 989 -36 
Q 684 19 347 128 
L 347 722 
Q 666 556 975 473 
Q 1284 391 1588 391 
Q 1994 391 2212 530 
Q 2431 669 2431 922 
Q 2431 1156 2273 1281 
Q 2116 1406 1581 1522 
L 1381 1569 
Q 847 1681 609 1914 
Q 372 2147 372 2553 
Q 372 3047 722 3315 
Q 1072 3584 1716 3584 
Q 2034 3584 2315 3537 
Q 2597 3491 2834 3397 
z
" transform="scale(0.015625)"/>
       <path id="DejaVuSans-29" d="M 513 4856 
L 1013 4856 
Q 1481 4119 1714 3412 
Q 1947 2706 1947 2009 
Q 1947 1309 1714 600 
Q 1481 -109 1013 -844 
L 513 -844 
Q 928 -128 1133 580 
Q 1338 1288 1338 2009 
Q 1338 2731 1133 3434 
Q 928 4138 513 4856 
z
" transform="scale(0.015625)"/>
      </defs>
      <use xlink:href="#DejaVuSans-54"/>
      <use xlink:href="#DejaVuSans-69" x="57.958984"/>
      <use xlink:href="#DejaVuSans-6d" x="85.742188"/>
      <use xlink:href="#DejaVuSans-65" x="183.154297"/>
      <use xlink:href="#DejaVuSans-20" x="244.677734"/>
      <use xlink:href="#DejaVuSans-28" x="276.464844"/>
      <use xlink:href="#DejaVuSans-73" x="315.478516"/>
      <use xlink:href="#DejaVuSans-29" x="367.578125"/>
     </g>
    </g>
   </g>
   <g id="matplotlib.axis_2">
    <g id="ytick_1">
     <g id="line2d_11">
      <path d="M 90 436.353182 
L 648 436.353182 
" clip-path="url(#p6937b47e1e)" style="fill: none; stroke: #b0b0b0; stroke-width: 0.8; stroke-linecap: square"/>
     </g>
     <g id="line2d_12">
      <defs>
       <path id="m219a4530d2" d="M 0 0 
L -3.5 0 
" style="stroke: #000000; stroke-width: 0.8"/>
      </defs>
      <g>
       <use xlink:href="#m219a4530d2" x="90" y="436.353182" style="stroke: #000000; stroke-width: 0.8"/>
      </g>
     </g>
     <g id="text_7">
      <!-- 0.00 -->
      <g transform="translate(60.734375 440.1524)scale(0.1 -0.1)">
       <defs>
        <path id="DejaVuSans-2e" d="M 684 794 
L 1344 794 
L 1344 0 
L 684 0 
L 684 794 
z
" transform="scale(0.015625)"/>
       </defs>
       <use xlink:href="#DejaVuSans-30"/>
       <use xlink:href="#DejaVuSans-2e" x="63.623047"/>
       <use xlink:href="#DejaVuSans-30" x="95.410156"/>
       <use xlink:href="#DejaVuSans-30" x="159.033203"/>
      </g>
     </g>
    </g>
    <g id="ytick_2">
     <g id="line2d_13">
      <path d="M 90 390.919534 
L 648 390.919534 
" clip-path="url(#p6937b47e1e)" style="fill: none; stroke: #b0b0b0; stroke-width: 0.8; stroke-linecap: square"/>
     </g>
     <g id="line2d_14">
      <g>
       <use xlink:href="#m219a4530d2" x="90" y="390.919534" style="stroke: #000000; stroke-width: 0.8"/>
      </g>
     </g>
     <g id="text_8">
      <!-- 0.05 -->
      <g transform="translate(60.734375 394.718753)scale(0.1 -0.1)">
       <use xlink:href="#DejaVuSans-30"/>
       <use xlink:href="#DejaVuSans-2e" x="63.623047"/>
       <use xlink:href="#DejaVuSans-30" x="95.410156"/>
       <use xlink:href="#DejaVuSans-35" x="159.033203"/>
      </g>
     </g>
    </g>
    <g id="ytick_3">
     <g id="line2d_15">
      <path d="M 90 345.485887 
L 648 345.485887 
" clip-path="url(#p6937b47e1e)" style="fill: none; stroke: #b0b0b0; stroke-width: 0.8; stroke-linecap: square"/>
     </g>
     <g id="line2d_16">
      <g>
       <use xlink:href="#m219a4530d2" x="90" y="345.485887" style="stroke: #000000; stroke-width: 0.8"/>
      </g>
     </g>
     <g id="text_9">
      <!-- 0.10 -->
      <g transform="translate(60.734375 349.285106)scale(0.1 -0.1)">
       <use xlink:href="#DejaVuSans-30"/>
       <use xlink:href="#DejaVuSans-2e" x="63.623047"/>
       <use xlink:href="#DejaVuSans-31" x="95.410156"/>
       <use xlink:href="#DejaVuSans-30" x="159.033203"/>
      </g>
     </g>
    </g>
    <g id="ytick_4">
     <g id="line2d_17">
      <path d="M 90 300.05224 
L 648 300.05224 
" clip-path="url(#p6937b47e1e)" style="fill: none; stroke: #b0b0b0; stroke-width: 0.8; stroke-linecap: square"/>
     </g>
     <g id="line2d_18">
      <g>
       <use xlink:href="#m219a4530d2" x="90" y="300.05224" style="stroke: #000000; stroke-width: 0.8"/>
      </g>
     </g>
     <g id="text_10">
      <!-- 0.15 -->
      <g transform="translate(60.734375 303.851459)scale(0.1 -0.1)">
       <use xlink:href="#DejaVuSans-30"/>
       <use xlink:href="#DejaVuSans-2e" x="63.623047"/>
       <use xlink:href="#DejaVuSans-31" x="95.410156"/>
       <use xlink:href="#DejaVuSans-35" x="159.033203"/>
      </g>
     </g>
    </g>
    <g id="ytick_5">
     <g id="line2d_19">
      <path d="M 90 254.618593 
L 648 254.618593 
" clip-path="url(#p6937b47e1e)" style="fill: none; stroke: #b0b0b0; stroke-width: 0.8; stroke-linecap: square"/>
     </g>
     <g id="line2d_20">
      <g>
       <use xlink:href="#m219a4530d2" x="90" y="254.618593" style="stroke: #000000; stroke-width: 0.8"/>
      </g>
     </g>
     <g id="text_11">
      <!-- 0.20 -->
      <g transform="translate(60.734375 258.417812)scale(0.1 -0.1)">
       <use xlink:href="#DejaVuSans-30"/>
       <use xlink:href="#DejaVuSans-2e" x="63.623047"/>
       <use xlink:href="#DejaVuSans-32" x="95.410156"/>
       <use xlink:href="#DejaVuSans-30" x="159.033203"/>
      </g>
     </g>
    </g>
    <g id="ytick_6">
     <g id="line2d_21">
      <path d="M 90 209.184946 
L 648 209.184946 
" clip-path="url(#p6937b47e1e)" style="fill: none; stroke: #b0b0b0; stroke-width: 0.8; stroke-linecap: square"/>
     </g>
     <g id="line2d_22">
      <g>
       <use xlink:href="#m219a4530d2" x="90" y="209.184946" style="stroke: #000000; stroke-width: 0.8"/>
      </g>
     </g>
     <g id="text_12">
      <!-- 0.25 -->
      <g transform="translate(60.734375 212.984165)scale(0.1 -0.1)">
       <use xlink:href="#DejaVuSans-30"/>
       <use xlink:href="#DejaVuSans-2e" x="63.623047"/>
       <use xlink:href="#DejaVuSans-32" x="95.410156"/>
       <use xlink:href="#DejaVuSans-35" x="159.033203"/>
      </g>
     </g>
    </g>
    <g id="ytick_7">
     <g id="line2d_23">
      <path d="M 90 163.751299 
L 648 163.751299 
" clip-path="url(#p6937b47e1e)" style="fill: none; stroke: #b0b0b0; stroke-width: 0.8; stroke-linecap: square"/>
     </g>
     <g id="line2d_24">
      <g>
       <use xlink:href="#m219a4530d2" x="90" y="163.751299" style="stroke: #000000; stroke-width: 0.8"/>
      </g>
     </g>
     <g id="text_13">
      <!-- 0.30 -->
      <g transform="translate(60.734375 167.550517)scale(0.1 -0.1)">
       <use xlink:href="#DejaVuSans-30"/>
       <use xlink:href="#DejaVuSans-2e" x="63.623047"/>
       <use xlink:href="#DejaVuSans-33" x="95.410156"/>
       <use xlink:href="#DejaVuSans-30" x="159.033203"/>
      </g>
     </g>
    </g>
    <g id="ytick_8">
     <g id="line2d_25">
      <path d="M 90 118.317651 
L 648 118.317651 
" clip-path="url(#p6937b47e1e)" style="fill: none; stroke: #b0b0b0; stroke-width: 0.8; stroke-linecap: square"/>
     </g>
     <g id="line2d_26">
      <g>
       <use xlink:href="#m219a4530d2" x="90" y="118.317651" style="stroke: #000000; stroke-width: 0.8"/>
      </g>
     </g>
     <g id="text_14">
      <!-- 0.35 -->
      <g transform="translate(60.734375 122.11687)scale(0.1 -0.1)">
       <use xlink:href="#DejaVuSans-30"/>
       <use xlink:href="#DejaVuSans-2e" x="63.623047"/>
       <use xlink:href="#DejaVuSans-33" x="95.410156"/>
       <use xlink:href="#DejaVuSans-35" x="159.033203"/>
      </g>
     </g>
    </g>
    <g id="ytick_9">
     <g id="line2d_27">
      <path d="M 90 72.884004 
L 648 72.884004 
" clip-path="url(#p6937b47e1e)" style="fill: none; stroke: #b0b0b0; stroke-width: 0.8; stroke-linecap: square"/>
     </g>
     <g id="line2d_28">
      <g>
       <use xlink:href="#m219a4530d2" x="90" y="72.884004" style="stroke: #000000; stroke-width: 0.8"/>
      </g>
     </g>
     <g id="text_15">
      <!-- 0.40 -->
      <g transform="translate(60.734375 76.683223)scale(0.1 -0.1)">
       <use xlink:href="#DejaVuSans-30"/>
       <use xlink:href="#DejaVuSans-2e" x="63.623047"/>
       <use xlink:href="#DejaVuSans-34" x="95.410156"/>
       <use xlink:href="#DejaVuSans-30" x="159.033203"/>
      </g>
     </g>
    </g>
    <g id="text_16">
     <!-- Error Magnitude -->
     <g transform="translate(54.654687 294.784063)rotate(-90)scale(0.1 -0.1)">
      <defs>
       <path id="DejaVuSans-45" d="M 628 4666 
L 3578 4666 
L 3578 4134 
L 1259 4134 
L 1259 2753 
L 3481 2753 
L 3481 2222 
L 1259 2222 
L 1259 531 
L 3634 531 
L 3634 0 
L 628 0 
L 628 4666 
z
" transform="scale(0.015625)"/>
       <path id="DejaVuSans-72" d="M 2631 2963 
Q 2534 3019 2420 3045 
Q 2306 3072 2169 3072 
Q 1681 3072 1420 2755 
Q 1159 2438 1159 1844 
L 1159 0 
L 581 0 
L 581 3500 
L 1159 3500 
L 1159 2956 
Q 1341 3275 1631 3429 
Q 1922 3584 2338 3584 
Q 2397 3584 2469 3576 
Q 2541 3569 2628 3553 
L 2631 2963 
z
" transform="scale(0.015625)"/>
       <path id="DejaVuSans-6f" d="M 1959 3097 
Q 1497 3097 1228 2736 
Q 959 2375 959 1747 
Q 959 1119 1226 758 
Q 1494 397 1959 397 
Q 2419 397 2687 759 
Q 2956 1122 2956 1747 
Q 2956 2369 2687 2733 
Q 2419 3097 1959 3097 
z
M 1959 3584 
Q 2709 3584 3137 3096 
Q 3566 2609 3566 1747 
Q 3566 888 3137 398 
Q 2709 -91 1959 -91 
Q 1206 -91 779 398 
Q 353 888 353 1747 
Q 353 2609 779 3096 
Q 1206 3584 1959 3584 
z
" transform="scale(0.015625)"/>
       <path id="DejaVuSans-4d" d="M 628 4666 
L 1569 4666 
L 2759 1491 
L 3956 4666 
L 4897 4666 
L 4897 0 
L 4281 0 
L 4281 4097 
L 3078 897 
L 2444 897 
L 1241 4097 
L 1241 0 
L 628 0 
L 628 4666 
z
" transform="scale(0.015625)"/>
       <path id="DejaVuSans-61" d="M 2194 1759 
Q 1497 1759 1228 1600 
Q 959 1441 959 1056 
Q 959 750 1161 570 
Q 1363 391 1709 391 
Q 2188 391 2477 730 
Q 2766 1069 2766 1631 
L 2766 1759 
L 2194 1759 
z
M 3341 1997 
L 3341 0 
L 2766 0 
L 2766 531 
Q 2569 213 2275 61 
Q 1981 -91 1556 -91 
Q 1019 -91 701 211 
Q 384 513 384 1019 
Q 384 1609 779 1909 
Q 1175 2209 1959 2209 
L 2766 2209 
L 2766 2266 
Q 2766 2663 2505 2880 
Q 2244 3097 1772 3097 
Q 1472 3097 1187 3025 
Q 903 2953 641 2809 
L 641 3341 
Q 956 3463 1253 3523 
Q 1550 3584 1831 3584 
Q 2591 3584 2966 3190 
Q 3341 2797 3341 1997 
z
" transform="scale(0.015625)"/>
       <path id="DejaVuSans-67" d="M 2906 1791 
Q 2906 2416 2648 2759 
Q 2391 3103 1925 3103 
Q 1463 3103 1205 2759 
Q 947 2416 947 1791 
Q 947 1169 1205 825 
Q 1463 481 1925 481 
Q 2391 481 2648 825 
Q 2906 1169 2906 1791 
z
M 3481 434 
Q 3481 -459 3084 -895 
Q 2688 -1331 1869 -1331 
Q 1566 -1331 1297 -1286 
Q 1028 -1241 775 -1147 
L 775 -588 
Q 1028 -725 1275 -790 
Q 1522 -856 1778 -856 
Q 2344 -856 2625 -561 
Q 2906 -266 2906 331 
L 2906 616 
Q 2728 306 2450 153 
Q 2172 0 1784 0 
Q 1141 0 747 490 
Q 353 981 353 1791 
Q 353 2603 747 3093 
Q 1141 3584 1784 3584 
Q 2172 3584 2450 3431 
Q 2728 3278 2906 2969 
L 2906 3500 
L 3481 3500 
L 3481 434 
z
" transform="scale(0.015625)"/>
       <path id="DejaVuSans-6e" d="M 3513 2113 
L 3513 0 
L 2938 0 
L 2938 2094 
Q 2938 2591 2744 2837 
Q 2550 3084 2163 3084 
Q 1697 3084 1428 2787 
Q 1159 2491 1159 1978 
L 1159 0 
L 581 0 
L 581 3500 
L 1159 3500 
L 1159 2956 
Q 1366 3272 1645 3428 
Q 1925 3584 2291 3584 
Q 2894 3584 3203 3211 
Q 3513 2838 3513 2113 
z
" transform="scale(0.015625)"/>
       <path id="DejaVuSans-74" d="M 1172 4494 
L 1172 3500 
L 2356 3500 
L 2356 3053 
L 1172 3053 
L 1172 1153 
Q 1172 725 1289 603 
Q 1406 481 1766 481 
L 2356 481 
L 2356 0 
L 1766 0 
Q 1100 0 847 248 
Q 594 497 594 1153 
L 594 3053 
L 172 3053 
L 172 3500 
L 594 3500 
L 594 4494 
L 1172 4494 
z
" transform="scale(0.015625)"/>
       <path id="DejaVuSans-75" d="M 544 1381 
L 544 3500 
L 1119 3500 
L 1119 1403 
Q 1119 906 1312 657 
Q 1506 409 1894 409 
Q 2359 409 2629 706 
Q 2900 1003 2900 1516 
L 2900 3500 
L 3475 3500 
L 3475 0 
L 2900 0 
L 2900 538 
Q 2691 219 2414 64 
Q 2138 -91 1772 -91 
Q 1169 -91 856 284 
Q 544 659 544 1381 
z
M 1991 3584 
L 1991 3584 
z
" transform="scale(0.015625)"/>
       <path id="DejaVuSans-64" d="M 2906 2969 
L 2906 4863 
L 3481 4863 
L 3481 0 
L 2906 0 
L 2906 525 
Q 2725 213 2448 61 
Q 2172 -91 1784 -91 
Q 1150 -91 751 415 
Q 353 922 353 1747 
Q 353 2572 751 3078 
Q 1150 3584 1784 3584 
Q 2172 3584 2448 3432 
Q 2725 3281 2906 2969 
z
M 947 1747 
Q 947 1113 1208 752 
Q 1469 391 1925 391 
Q 2381 391 2643 752 
Q 2906 1113 2906 1747 
Q 2906 2381 2643 2742 
Q 2381 3103 1925 3103 
Q 1469 3103 1208 2742 
Q 947 2381 947 1747 
z
" transform="scale(0.015625)"/>
      </defs>
      <use xlink:href="#DejaVuSans-45"/>
      <use xlink:href="#DejaVuSans-72" x="63.183594"/>
      <use xlink:href="#DejaVuSans-72" x="102.546875"/>
      <use xlink:href="#DejaVuSans-6f" x="141.410156"/>
      <use xlink:href="#DejaVuSans-72" x="202.591797"/>
      <use xlink:href="#DejaVuSans-20" x="243.705078"/>
      <use xlink:href="#DejaVuSans-4d" x="275.492188"/>
      <use xlink:href="#DejaVuSans-61" x="361.771484"/>
      <use xlink:href="#DejaVuSans-67" x="423.050781"/>
      <use xlink:href="#DejaVuSans-6e" x="486.527344"/>
      <use xlink:href="#DejaVuSans-69" x="549.90625"/>
      <use xlink:href="#DejaVuSans-74" x="577.689453"/>
      <use xlink:href="#DejaVuSans-75" x="616.898438"/>
      <use xlink:href="#DejaVuSans-64" x="680.277344"/>
      <use xlink:href="#DejaVuSans-65" x="743.753906"/>
     </g>
    </g>
   </g>
   <g id="line2d_29">
    <path d="M 115.363636 279.268235 
L 115.682202 278.453681 
L 116.018369 277.097852 
L 116.356234 271.76544 
L 116.691714 268.711818 
L 117.026574 268.17574 
L 117.367904 262.945227 
L 117.747468 271.313263 
L 118.678557 255.622558 
L 119.040605 253.465747 
L 119.098089 258.718937 
L 119.689363 249.412545 
L 119.916695 260.176503 
L 120.588204 256.195263 
L 121.228074 237.929923 
L 121.536045 248.022613 
L 121.951847 238.76406 
L 122.457531 219.420145 
L 122.836763 216.793064 
L 122.980005 224.70792 
L 123.279127 226.486301 
L 123.625461 225.419127 
L 123.951726 229.957717 
L 124.842785 211.877917 
L 125.086898 217.08954 
L 125.337678 210.09623 
L 125.633853 209.096068 
L 125.96866 209.110065 
L 126.643779 198.1465 
L 127.317739 194.113281 
L 127.653733 203.715771 
L 127.989891 195.532363 
L 128.326223 195.044337 
L 128.662275 208.86834 
L 129.35625 189.171228 
L 129.664529 190.385725 
L 130.008291 188.893707 
L 130.339181 196.594636 
L 130.713149 186.60786 
L 131.018482 188.16848 
L 131.355212 193.08926 
L 131.691788 189.92699 
L 132.270521 193.792591 
L 132.451006 199.581799 
L 132.948557 186.611484 
L 133.177773 198.472768 
L 133.493185 194.738788 
L 134.062963 196.797493 
L 134.540325 182.777262 
L 134.719508 196.692736 
L 135.098374 184.073989 
L 135.392372 190.1391 
L 135.832857 180.590532 
L 136.049528 179.701811 
L 136.385229 174.75691 
L 137.058035 170.47811 
L 137.41243 170.373071 
L 138.085323 165.672622 
L 138.421856 169.93291 
L 139.296346 171.688609 
L 140.191068 160.775734 
L 140.597842 172.202815 
L 141.074988 155.31008 
L 141.20095 156.717456 
L 141.537699 156.037527 
L 141.873223 153.390495 
L 142.226782 164.017065 
L 143.05528 164.505196 
L 143.460555 151.695318 
L 143.552874 157.825269 
L 143.713253 156.240767 
L 144.327613 170.408048 
L 144.744372 170.915484 
L 145.30468 166.525159 
L 145.570428 169.270576 
L 145.90598 174.974027 
L 146.706176 206.472091 
L 147.504065 190.948514 
L 147.747942 181.931578 
L 147.770448 190.629557 
L 147.922621 183.242465 
L 148.658771 214.573881 
L 149.183346 204.434444 
L 149.700038 224.70968 
L 150.458386 221.921292 
L 150.850033 230.276206 
L 151.074203 227.223478 
L 151.283356 231.354986 
L 151.617783 230.176283 
L 151.954768 242.90954 
L 152.459846 240.951294 
L 152.638294 237.202425 
L 153.125914 250.065325 
L 153.660179 269.741109 
L 154.248395 259.445872 
L 154.609674 266.205631 
L 154.967434 278.23562 
L 155.853681 299.382052 
L 156.985622 271.775208 
L 157.200255 280.420221 
L 157.541796 283.509452 
L 157.881271 280.782512 
L 158.92794 309.940018 
L 159.27526 303.177514 
L 159.553486 303.776564 
L 159.951258 306.602454 
L 160.560941 337.509276 
L 161.298014 308.309201 
L 161.744306 311.196271 
L 162.153056 299.731274 
L 162.382994 304.695466 
L 162.907164 302.753966 
L 163.452197 296.226991 
L 163.630759 301.989036 
L 164.465853 293.678194 
L 164.685754 286.962698 
L 164.91995 287.578625 
L 165.080612 285.05978 
L 165.365818 289.327045 
L 165.669694 279.988871 
L 166.008303 277.060107 
L 166.342548 282.692849 
L 166.677524 269.15245 
L 167.020806 265.99839 
L 167.351628 276.986186 
L 167.918224 260.349023 
L 168.366457 266.338436 
L 169.186015 249.052468 
L 169.370701 250.676874 
L 169.701283 242.933017 
L 170.049362 243.486861 
L 170.379868 235.744603 
L 170.721861 232.760236 
L 171.058154 234.422735 
L 171.384073 223.245384 
L 171.731787 228.425468 
L 172.529906 210.09948 
L 172.726139 206.700014 
L 173.401945 202.936699 
L 173.827297 220.514168 
L 174.440836 186.691144 
L 174.741049 187.72946 
L 175.096194 202.318448 
L 175.970328 182.614293 
L 176.64298 161.117828 
L 176.778551 168.411904 
L 177.14056 172.991562 
L 178.816534 146.938171 
L 179.144943 148.645444 
L 179.370959 139.495753 
L 180.117174 140.241016 
L 180.369992 132.584759 
L 180.687135 135.885538 
L 181.028157 127.140427 
L 181.359682 133.75546 
L 182.020461 125.052408 
L 182.360648 129.075335 
L 182.730549 123.183457 
L 183.044654 122.479429 
L 183.411143 122.426648 
L 183.722382 123.780961 
L 184.037112 116.908588 
L 184.716378 115.403093 
L 185.046153 112.501643 
L 185.386551 115.57276 
L 185.719642 116.411107 
L 186.397842 126.168606 
L 186.731327 127.466789 
L 187.101729 139.905907 
L 187.652222 138.723755 
L 188.201888 140.1281 
L 188.548957 137.491753 
L 189.009246 160.289997 
L 189.632167 148.107706 
L 190.227219 148.23257 
L 190.742488 147.438874 
L 190.907197 157.014043 
L 191.510449 161.231645 
L 191.805134 160.962155 
L 192.117518 160.489386 
L 192.323037 161.211018 
L 192.65884 165.412197 
L 192.994161 165.906495 
L 193.705903 180.900854 
L 194.004491 181.243049 
L 194.338928 182.529916 
L 194.676038 187.098127 
L 195.011167 195.304403 
L 195.346297 199.856821 
L 195.679955 199.932897 
L 196.109413 219.08518 
L 196.620981 218.48676 
L 196.972857 227.200781 
L 197.297104 240.264144 
L 197.950471 231.658751 
L 198.100347 240.000914 
L 198.233178 262.349953 
L 198.980019 243.920132 
L 199.104005 251.904937 
L 199.363658 246.365368 
L 199.653709 251.156554 
L 199.813208 251.611899 
L 200.050298 260.939614 
L 200.38637 259.455505 
L 200.722653 259.890321 
L 201.06829 272.496701 
L 201.442249 267.481437 
L 202.072919 295.280735 
L 202.746523 289.583255 
L 203.025009 285.295719 
L 203.163637 287.569137 
L 203.411821 320.71644 
L 204.119746 303.658502 
L 204.454347 309.340127 
L 204.762299 303.773641 
L 205.204639 322.087625 
L 205.734991 311.502594 
L 205.982493 316.253889 
L 206.286503 315.579773 
L 206.479582 322.662017 
L 206.782929 322.59994 
L 207.121548 320.500768 
L 207.444632 316.722566 
L 207.802295 325.389912 
L 208.468189 313.536444 
L 209.128383 315.967155 
L 209.797892 308.383749 
L 210.17882 311.662133 
L 210.802934 297.944537 
L 211.150003 298.27722 
L 211.598121 293.324512 
L 212.086068 293.695677 
L 212.39501 285.745901 
L 214.173157 268.778451 
L 214.589492 266.473249 
L 214.835292 258.971979 
L 215.172114 255.524554 
L 215.844122 246.886518 
L 216.204689 262.493518 
L 216.704768 235.07602 
L 216.857836 233.777235 
L 217.190735 227.609841 
L 217.636103 239.958602 
L 218.254324 211.56577 
L 218.345451 214.165615 
L 218.602162 211.699734 
L 218.875601 212.642485 
L 219.203444 199.449002 
L 219.539756 192.024369 
L 219.929154 202.903374 
L 220.660911 203.409387 
L 221.460866 175.136986 
L 221.801216 172.115833 
L 222.138162 158.441099 
L 222.472667 153.016324 
L 222.806835 152.299522 
L 223.479093 144.272261 
L 223.849091 143.9745 
L 224.545258 148.006225 
L 225.099722 143.79265 
L 225.443571 128.548308 
L 225.891583 122.7312 
L 226.563995 109.715105 
L 226.906681 112.843343 
L 227.242752 112.881747 
L 227.573267 110.658376 
L 228.246102 102.266758 
L 228.582289 100.250299 
L 228.918457 116.707548 
L 229.460547 96.474215 
L 229.79833 88.175343 
L 229.926152 111.265878 
L 230.279221 102.491506 
L 230.60018 90.337929 
L 230.934694 96.544526 
L 231.272707 107.384376 
L 231.913318 99.272607 
L 232.283056 137.404721 
L 233.261045 115.92053 
L 233.622651 133.565473 
L 234.187468 127.025041 
L 234.755957 118.755608 
L 234.89122 114.615846 
L 235.300624 119.450562 
L 235.629236 121.300279 
L 235.970383 129.854728 
L 236.287727 123.657175 
L 236.656774 129.887525 
L 236.960044 153.153783 
L 237.577966 149.782365 
L 238.060702 151.793674 
L 238.29635 156.324376 
L 238.435247 155.974879 
L 238.648534 152.924724 
L 238.991355 168.516155 
L 239.314698 163.480933 
L 239.648404 171.852155 
L 239.984783 174.026543 
L 240.356041 186.798383 
L 241.03524 222.008866 
L 242.001693 227.416326 
L 242.640593 240.243399 
L 243.105871 251.887582 
L 243.66467 245.802344 
L 244.004375 260.90505 
L 244.623394 256.248937 
L 244.992305 259.758649 
L 245.313495 268.185442 
L 245.637569 270.217833 
L 246.196079 298.926557 
L 246.869184 298.369075 
L 247.410351 291.003764 
L 247.766034 312.34738 
L 248.480958 296.644146 
L 248.767039 309.690226 
L 249.104879 307.385214 
L 249.42853 311.220617 
L 249.893078 323.768301 
L 250.567624 318.633985 
L 251.279683 318.373395 
L 251.669013 318.668241 
L 251.953864 326.719694 
L 252.489513 317.443742 
L 252.829507 330.671513 
L 253.183998 320.859157 
L 253.35239 310.837752 
L 253.730492 314.347708 
L 254.114497 311.099477 
L 254.4677 306.874743 
L 254.871278 315.154197 
L 255.74148 298.568771 
L 255.948864 303.365444 
L 256.365305 293.674914 
L 256.552404 296.624652 
L 257.017336 283.810897 
L 257.37302 287.745919 
L 258.34851 265.625449 
L 258.676813 269.225903 
L 259.015558 283.802472 
L 259.586373 248.196411 
L 260.094163 243.994248 
L 260.264996 246.69173 
L 260.590339 234.623756 
L 260.774131 238.129481 
L 261.143889 225.863212 
L 261.49986 222.819629 
L 261.7014 225.046357 
L 262.152392 208.573688 
L 262.371716 207.832299 
L 262.718113 204.556861 
L 263.083775 197.104864 
L 263.402619 187.476101 
L 263.714618 188.693784 
L 264.064725 177.805217 
L 264.41191 174.514293 
L 264.725582 170.073373 
L 265.059096 169.99085 
L 265.644909 162.806828 
L 266.049449 152.349694 
L 266.536377 154.940969 
L 267.621077 138.577232 
L 268.528618 115.695668 
L 268.866362 112.413885 
L 269.209029 115.739504 
L 269.540986 124.783533 
L 270.274233 107.106981 
L 270.602902 103.203569 
L 270.882657 97.595637 
L 271.220805 103.226871 
L 271.55455 94.70313 
L 272.226597 92.665237 
L 272.564803 92.987717 
L 272.901509 93.600815 
L 273.235869 99.427778 
L 273.570576 89.025164 
L 273.90682 86.856854 
L 274.244699 86.301688 
L 274.590192 92.255095 
L 274.929051 88.886211 
L 275.253279 89.477591 
L 275.588889 89.331536 
L 275.923019 90.165392 
L 277.041328 110.972826 
L 277.424564 112.739905 
L 277.713606 96.243417 
L 277.990861 104.509767 
L 278.281557 99.356771 
L 278.611956 101.661404 
L 278.970773 120.774267 
L 279.520786 127.757265 
L 279.903906 118.642748 
L 280.336344 125.154441 
L 280.626943 124.364741 
L 280.963111 125.562627 
L 282.306955 141.72986 
L 282.642969 167.393396 
L 282.985078 149.191981 
L 283.31715 160.93349 
L 283.652299 155.503152 
L 283.986909 174.53705 
L 284.323134 177.746989 
L 285.000988 201.974861 
L 285.527389 194.173318 
L 285.756365 193.10214 
L 286.013009 190.828792 
L 286.340967 202.636268 
L 286.79417 241.241371 
L 287.640646 224.646091 
L 287.845608 244.913709 
L 288.324537 235.274948 
L 288.520769 240.722919 
L 289.178588 235.647768 
L 289.516929 242.49505 
L 289.879476 264.295777 
L 290.233044 269.053399 
L 290.641717 263.123641 
L 290.861522 282.22723 
L 291.428301 275.90214 
L 291.840377 290.761771 
L 292.280506 291.992802 
L 292.791564 301.227 
L 293.081221 320.432246 
L 293.726677 311.872579 
L 294.400377 298.686106 
L 294.738064 311.990812 
L 295.072866 305.661787 
L 295.408534 306.918923 
L 295.746971 314.977351 
L 296.088868 315.622053 
L 296.416403 322.610171 
L 296.992948 307.668156 
L 297.336711 312.404027 
L 297.779185 298.362186 
L 298.134869 305.76345 
L 298.432909 292.960493 
L 298.768557 288.974783 
L 299.10486 287.793095 
L 299.45389 280.52125 
L 299.798518 286.165195 
L 300.130206 284.864461 
L 300.457779 278.36104 
L 301.80543 260.709547 
L 302.151826 250.067974 
L 302.498588 257.190297 
L 303.136795 243.486749 
L 303.474847 236.829519 
L 303.811861 235.113632 
L 304.592387 235.869435 
L 305.267934 216.888621 
L 305.573472 230.129384 
L 306.337137 208.012194 
L 307.371539 200.224127 
L 307.44241 201.675493 
L 308.356777 178.532847 
L 308.70102 174.311639 
L 309.037418 177.096664 
L 309.379066 165.358178 
L 309.720521 185.892199 
L 310.283742 158.068611 
L 310.540809 156.160365 
L 310.865056 156.713799 
L 311.071248 149.739808 
L 311.431873 147.465697 
L 311.724376 144.908253 
L 312.062889 134.753544 
L 312.398307 137.916091 
L 313.065182 121.796698 
L 313.44488 120.962077 
L 313.739344 112.394936 
L 314.069993 107.407702 
L 314.455613 109.6444 
L 315.079284 96.659035 
L 315.413491 93.279976 
L 315.784517 97.064762 
L 316.123531 93.642766 
L 316.437068 83.790473 
L 316.837743 87.101327 
L 317.100405 96.949782 
L 317.437188 97.326335 
L 317.802889 82.546555 
L 318.280645 85.093861 
L 318.450132 90.684522 
L 318.779282 78.12 
L 319.116411 78.702747 
L 319.448234 91.084272 
L 319.810281 84.419272 
L 320.128625 82.34194 
L 320.469234 84.166601 
L 320.802575 94.370706 
L 321.295964 120.122766 
L 321.78093 96.862967 
L 322.343805 138.59744 
L 323.152596 128.878343 
L 323.803589 134.276929 
L 324.071808 127.158226 
L 324.211628 145.049642 
L 324.641566 157.209892 
L 325.240839 144.994708 
L 325.510288 151.331524 
L 325.897677 155.746976 
L 326.182181 152.979683 
L 326.515907 157.622353 
L 326.852671 175.603236 
L 327.191684 167.714153 
L 327.86475 192.1681 
L 328.342141 185.518179 
L 328.532259 187.353853 
L 328.868927 201.933042 
L 329.228398 203.623692 
L 329.556702 209.870085 
L 329.878276 211.554021 
L 330.212309 211.395906 
L 330.606024 225.631652 
L 330.890567 241.656674 
L 331.338348 237.230407 
L 331.712701 235.407585 
L 332.287401 248.68819 
L 332.582691 252.499426 
L 332.931741 250.874934 
L 333.323379 252.357227 
L 333.628918 264.263522 
L 334.025959 265.715046 
L 334.279757 280.951204 
L 334.720155 267.148027 
L 334.946555 276.129633 
L 335.27632 280.143747 
L 335.59228 300.174973 
L 337.059005 292.914599 
L 338.069123 299.634961 
L 338.74067 302.331294 
L 339.076549 303.73718 
L 339.441712 311.200167 
L 339.766804 313.175607 
L 340.085918 303.584964 
L 340.420336 303.343125 
L 340.832201 307.718761 
L 341.090825 301.526111 
L 341.429146 306.544691 
L 341.76416 298.504425 
L 342.440379 294.647252 
L 342.792948 296.938126 
L 343.107485 290.619364 
L 343.476089 292.797494 
L 343.77884 285.735009 
L 344.114815 283.365738 
L 344.45329 288.312994 
L 344.789131 277.769784 
L 346.132379 264.621161 
L 346.469739 258.625065 
L 346.807617 255.335984 
L 347.143401 256.049677 
L 347.559938 249.956532 
L 347.818428 250.05357 
L 348.152423 250.68437 
L 348.653156 246.809071 
L 349.281326 228.049997 
L 349.704862 209.720769 
L 350.33732 212.94375 
L 350.666547 202.534524 
L 350.8354 200.358907 
L 351.171914 212.350147 
L 351.5121 196.420416 
L 351.849171 201.778574 
L 352.401241 188.425306 
L 352.531505 181.485263 
L 353.566887 186.864871 
L 353.914072 183.819393 
L 354.387579 170.624884 
L 354.576909 169.791379 
L 354.913365 172.615813 
L 355.389064 164.302895 
L 355.921003 160.627842 
L 356.257248 165.938511 
L 356.768652 160.208952 
L 357.107319 145.744006 
L 357.495438 148.766394 
L 357.676539 148.515257 
L 357.959024 145.740725 
L 358.273734 149.025504 
L 358.609518 147.097739 
L 358.974622 142.760878 
L 359.454051 138.514345 
L 359.619174 151.040673 
L 360.289375 140.005851 
L 360.682167 134.295085 
L 361.029486 138.55525 
L 361.478768 141.850086 
L 361.99071 134.841578 
L 362.313245 138.526752 
L 362.691405 134.051357 
L 362.978928 136.640934 
L 363.314 127.559574 
L 363.65036 136.38792 
L 363.988566 128.27763 
L 364.321638 135.992699 
L 364.658228 148.721991 
L 365.199761 140.777815 
L 365.470211 153.222373 
L 365.712127 140.016044 
L 366.005072 152.606886 
L 366.381347 142.980537 
L 366.674638 160.250064 
L 367.087465 158.561878 
L 367.3498 154.469747 
L 367.685179 159.666962 
L 368.018982 162.101124 
L 368.367167 203.575335 
L 369.446907 182.416836 
L 369.860387 194.367347 
L 370.206706 186.524689 
L 370.45689 204.400202 
L 371.003037 214.517076 
L 371.579641 220.252116 
L 371.934286 212.900254 
L 372.127461 211.20419 
L 372.232364 219.232415 
L 372.472742 227.165211 
L 372.812313 229.325545 
L 373.156556 229.21854 
L 373.818182 240.174523 
L 374.152504 254.803405 
L 374.489864 250.252526 
L 374.824897 254.737186 
L 375.17189 267.823419 
L 375.498636 272.311105 
L 375.837534 280.408386 
L 376.290622 277.736286 
L 376.551573 277.339056 
L 376.845825 287.047355 
L 377.178321 279.387236 
L 378.186112 285.252046 
L 378.526779 303.455629 
L 378.874195 287.806346 
L 379.21142 292.415998 
L 379.534071 299.878863 
L 379.870623 299.779156 
L 380.217289 304.062282 
L 380.873416 306.088345 
L 381.2236 298.640852 
L 381.616276 307.781294 
L 381.882303 304.468029 
L 382.219105 306.920955 
L 383.225128 311.405846 
L 383.640069 307.268696 
L 383.898598 312.102715 
L 384.235458 311.808657 
L 384.570106 310.854533 
L 384.907216 317.762204 
L 385.241653 310.587624 
L 385.609546 311.306311 
L 385.991878 303.111247 
L 386.502282 297.365532 
L 386.801399 299.331898 
L 386.928106 291.238928 
L 387.262236 294.967189 
L 387.597711 285.399167 
L 387.932764 288.593253 
L 388.612944 276.339447 
L 388.978837 273.821396 
L 389.273512 261.706245 
L 389.609603 262.102277 
L 389.951077 264.833536 
L 390.292167 255.713449 
L 390.709473 257.726961 
L 391.783579 236.493278 
L 393.311062 216.526701 
L 393.642653 215.25739 
L 393.97859 213.34282 
L 394.650541 207.256475 
L 395.006359 201.615694 
L 395.336912 206.888719 
L 395.738222 206.476117 
L 396.670277 189.533597 
L 397.002869 189.931958 
L 397.339037 188.260824 
L 398.011526 184.080873 
L 398.346694 180.276316 
L 398.693705 183.830995 
L 399.017952 177.373058 
L 401.038188 162.978198 
L 401.370357 159.225866 
L 401.707793 157.227154 
L 402.378629 152.081458 
L 402.722488 151.250293 
L 403.132911 140.37719 
L 403.386555 142.554282 
L 403.7233 139.981998 
L 404.062428 147.396272 
L 404.471582 146.949899 
L 404.75303 137.470192 
L 405.128921 146.827961 
L 405.638709 124.779498 
L 406.150498 132.477248 
L 406.56815 127.070494 
L 406.846214 129.487261 
L 407.591343 124.632082 
L 407.888441 128.753999 
L 408.470639 126.827661 
L 408.808422 117.865463 
L 409.144436 126.179188 
L 409.484795 125.693537 
L 409.819771 128.316385 
L 410.15267 121.567291 
L 410.488645 133.156255 
L 410.831389 130.280625 
L 411.182361 144.680457 
L 411.504724 138.20026 
L 411.833201 143.804838 
L 412.195133 140.682785 
L 412.504805 149.169099 
L 412.844395 164.242995 
L 413.251857 151.836022 
L 413.515346 158.720662 
L 413.85609 161.484322 
L 414.211139 182.540169 
L 414.64898 184.440778 
L 415.200069 188.577475 
L 415.705628 205.185735 
L 416.202611 194.944201 
L 416.55143 208.056726 
L 416.963815 204.467651 
L 417.212114 213.280001 
L 417.679065 211.038284 
L 417.890294 209.268885 
L 418.224386 224.809826 
L 418.742711 235.796559 
L 419.227044 262.489734 
L 419.684304 250.738691 
L 419.858156 250.144713 
L 420.152754 268.321565 
L 420.762063 263.14823 
L 420.91415 273.59018 
L 421.242319 269.027108 
L 421.490388 273.639949 
L 421.581332 278.360152 
L 422.018596 279.133951 
L 422.256552 294.028069 
L 422.589066 298.19864 
L 422.989145 293.503993 
L 423.265439 292.068894 
L 423.932853 299.804635 
L 424.33993 325.533903 
L 424.694863 310.177838 
L 424.968081 314.193424 
L 425.285637 332.246211 
L 425.755357 322.318317 
L 426.128364 337.384717 
L 426.62081 321.361584 
L 426.957708 332.584833 
L 427.294798 331.544879 
L 427.62889 326.657479 
L 427.968018 327.70885 
L 428.30284 329.548264 
L 428.641853 338.548741 
L 429.331455 330.51328 
L 429.647318 329.712546 
L 429.981486 332.875809 
L 430.317347 328.518483 
L 430.654745 328.486356 
L 430.991028 327.062724 
L 431.340001 327.36631 
L 431.667708 327.111095 
L 432.074632 320.090753 
L 432.341159 346.030331 
L 432.806418 321.507169 
L 433.12505 322.970328 
L 433.366928 322.381952 
L 433.68756 309.959787 
L 434.022843 310.27492 
L 434.354204 305.077357 
L 434.68545 296.528526 
L 435.02154 313.84353 
L 435.737137 289.081794 
L 436.199589 279.595372 
L 436.551292 281.950925 
L 436.88023 268.313942 
L 437.373407 262.485993 
L 437.709805 257.740579 
L 438.047665 261.836549 
L 438.382717 262.16017 
L 438.717462 241.817845 
L 439.209216 239.906248 
L 439.408525 238.092927 
L 439.726427 228.210663 
L 440.064902 224.287284 
L 440.397339 227.388003 
L 440.73443 215.454283 
L 441.446488 215.124272 
L 441.741818 201.847167 
L 442.307481 196.690077 
L 442.424805 200.170743 
L 442.910444 182.656451 
L 443.58751 180.507809 
L 443.72683 176.532291 
L 443.968823 177.823854 
L 444.115372 169.707166 
L 444.430159 166.398631 
L 444.765827 187.318968 
L 445.437816 156.56483 
L 445.774099 173.129665 
L 446.255163 160.62393 
L 446.447742 147.557574 
L 446.782141 146.687489 
L 447.119039 144.121831 
L 447.544767 153.973327 
L 448.168496 145.437206 
L 448.510393 147.184909 
L 449.206686 130.739015 
L 449.618301 126.951211 
L 450.219688 123.87486 
L 450.557201 125.335499 
L 450.892062 119.211372 
L 451.427269 124.086825 
L 451.595353 115.201374 
L 451.978742 117.824991 
L 452.240347 111.704226 
L 452.576976 111.970355 
L 452.907722 133.422676 
L 453.430431 108.228346 
L 453.590555 108.434984 
L 453.920185 113.507568 
L 454.24947 107.235341 
L 454.589983 108.006019 
L 455.325729 122.708561 
L 455.712426 133.925462 
L 456.328618 121.916307 
L 456.612103 121.935194 
L 456.96396 125.35999 
L 457.345581 123.679851 
L 457.372691 122.36775 
L 457.645294 125.963395 
L 457.950429 135.81955 
L 458.338818 138.182864 
L 458.680638 141.717985 
L 459.068488 156.737211 
L 459.366202 152.185923 
L 459.628191 160.430314 
L 459.964359 166.159844 
L 460.304064 194.079203 
L 460.849346 177.4958 
L 460.972785 191.412237 
L 461.33091 187.892175 
L 461.645389 191.460121 
L 462.01805 202.184684 
L 462.31534 199.655716 
L 462.653123 202.606155 
L 463.101308 235.893156 
L 463.841554 226.336544 
L 464.293469 235.325362 
L 464.965843 232.175061 
L 465.310624 247.207814 
L 465.66029 256.904593 
L 465.978422 257.641849 
L 466.311936 257.515281 
L 466.647527 270.930351 
L 466.983926 272.221701 
L 467.324746 301.464918 
L 467.952244 278.270425 
L 468.37801 294.841191 
L 468.584625 292.319848 
L 468.662995 305.643493 
L 468.999932 306.824955 
L 469.336561 334.762529 
L 470.167021 350.462406 
L 471.176523 322.632519 
L 471.520997 343.5827 
L 472.012559 344.676298 
L 472.478087 346.112391 
L 472.620945 348.94101 
L 472.859631 345.418028 
L 473.195991 343.290509 
L 473.532543 349.683636 
L 473.869018 351.083689 
L 474.204955 364.358118 
L 474.756544 356.388241 
L 475.081483 362.678835 
L 475.768469 341.439096 
L 476.213116 363.480668 
L 476.698141 336.016164 
L 477.044768 334.854396 
L 477.390819 353.452545 
L 478.177171 337.068835 
L 478.743257 314.009456 
L 479.082116 310.671142 
L 479.44301 310.373834 
L 479.783562 309.494188 
L 480.113461 311.818515 
L 480.60733 294.657103 
L 480.774376 301.364236 
L 481.137346 295.519312 
L 481.537886 295.451246 
L 481.943772 293.815388 
L 482.209991 285.498699 
L 482.442909 284.343179 
L 483.825726 267.391647 
L 484.025304 270.277512 
L 484.252492 263.598892 
L 484.532093 261.686214 
L 484.945093 256.653272 
L 485.187624 250.168844 
L 485.505911 250.081955 
L 485.806623 255.619762 
L 486.285111 253.147022 
L 486.892574 231.543388 
L 487.146641 235.5965 
L 487.51338 225.852788 
L 487.890386 227.268701 
L 488.412404 217.8029 
L 488.815943 218.348671 
L 488.921808 211.968267 
L 489.163647 213.453941 
L 489.497315 208.183832 
L 489.833829 205.515027 
L 490.170112 213.505493 
L 490.730199 201.532756 
L 491.025913 220.619057 
L 491.639759 188.325998 
L 492.177658 202.108784 
L 492.828344 184.591991 
L 493.193045 191.916049 
L 493.674647 187.881225 
L 494.184205 175.78125 
L 494.345944 189.495666 
L 494.861232 185.36761 
L 495.343218 166.750362 
L 495.387364 174.88471 
L 495.534451 173.726089 
L 495.885347 178.393996 
L 496.251048 168.695291 
L 496.542185 168.471896 
L 496.892581 179.545017 
L 497.571569 171.153644 
L 497.944422 171.573982 
L 498.396722 177.225923 
L 498.882285 169.112696 
L 499.006992 183.229258 
L 499.30409 165.977747 
L 499.575078 169.487107 
L 499.89471 163.449749 
L 500.23853 167.213225 
L 500.914595 178.865908 
L 501.24438 182.097329 
L 501.628231 200.356753 
L 502.194701 189.813437 
L 502.452768 198.310517 
L 502.861461 200.4827 
L 503.285343 200.529201 
L 503.564598 211.16365 
L 504.079309 212.922561 
L 504.483579 206.874108 
L 504.823823 209.3117 
L 505.439631 212.003654 
L 505.788796 220.992771 
L 506.323696 215.026659 
L 506.628677 221.915483 
L 507.078169 225.219913 
L 507.470442 229.206166 
L 507.7765 245.796574 
L 508.201689 245.858289 
L 508.781503 247.5393 
L 509.325555 248.237436 
L 509.918021 264.826664 
L 510.276107 262.976038 
L 510.475301 289.964254 
L 511.24208 272.194852 
L 511.359904 272.374977 
L 511.682382 281.503885 
L 512.015166 286.117581 
L 512.381251 296.867787 
L 512.688155 297.752438 
L 513.106345 294.91064 
L 513.393868 302.422095 
L 514.054898 311.156991 
L 514.531309 315.196356 
L 514.757189 312.365163 
L 515.066824 325.37434 
L 515.90582 333.657376 
L 516.119011 324.885953 
L 516.384884 330.371357 
L 516.76712 334.713518 
L 517.119246 331.804465 
L 517.406231 339.815115 
L 517.814462 340.286052 
L 518.401467 342.271793 
L 518.738711 342.657082 
L 519.118871 340.667691 
L 519.408124 340.270823 
L 519.745868 341.509827 
L 520.095418 337.277209 
L 520.416935 339.551086 
L 520.778444 339.387873 
L 521.112304 332.933977 
L 521.43732 336.166558 
L 521.766105 332.157867 
L 522.101311 333.237429 
L 522.435018 331.757598 
L 522.789682 328.072352 
L 523.244712 326.364887 
L 523.498664 314.046445 
L 523.830948 322.14727 
L 524.113626 317.994717 
L 524.451639 310.584225 
L 525.009342 311.071919 
L 525.42188 298.275512 
L 525.714402 308.231995 
L 526.282257 289.389342 
L 526.504215 287.32418 
L 526.867647 278.211444 
L 527.164514 283.379801 
L 527.682571 285.131334 
L 528.171133 277.925908 
L 528.849121 256.151905 
L 529.293499 256.087717 
L 530.196215 235.907983 
L 530.809792 230.997106 
L 531.475359 222.573318 
L 531.637406 224.410763 
L 531.999838 219.288074 
L 532.238831 225.394923 
L 533.020646 207.308395 
L 533.122665 229.343434 
L 533.855643 202.340736 
L 534.69837 186.494532 
L 535.362283 178.545786 
L 535.702297 176.278301 
L 536.136061 175.743895 
L 536.370825 171.615842 
L 536.708223 162.602289 
L 537.04366 160.176331 
L 537.457852 161.785162 
L 537.71888 159.673916 
L 538.3866 156.585703 
L 538.723768 152.208782 
L 539.058628 161.490121 
L 539.731117 151.251786 
L 540.140925 151.655834 
L 540.404837 149.686242 
L 540.738582 142.765753 
L 541.077826 141.939768 
L 541.411648 139.166146 
L 541.747431 141.664981 
L 542.083637 150.965666 
L 542.419728 154.978068 
L 542.771854 151.647697 
L 543.427039 149.674675 
L 543.764129 156.400992 
L 544.110564 158.824697 
L 544.43858 159.831992 
L 544.805357 161.614936 
L 545.866312 178.752036 
L 546.597328 168.986828 
L 546.941033 174.587917 
L 548.737773 197.258445 
L 548.882938 190.783728 
L 548.964653 193.604062 
L 549.305589 200.681864 
L 549.63595 201.390708 
L 549.970272 209.139594 
L 550.322052 213.663405 
L 550.684215 214.904411 
L 550.969085 220.945683 
L 551.304676 236.292834 
L 551.898295 237.040172 
L 552.182319 252.266823 
L 552.661459 245.362084 
L 552.748751 249.897583 
L 552.99309 252.575554 
L 553.322912 250.77778 
L 553.665732 258.925039 
L 554.000054 256.068285 
L 554.331492 271.830724 
L 555.002174 277.392666 
L 555.338303 283.877862 
L 555.681546 277.00451 
L 556.010523 291.006626 
L 556.345999 284.189241 
L 557.022795 289.766611 
L 557.712358 317.023407 
L 558.355122 314.685417 
L 558.97166 315.635695 
L 559.163431 312.371047 
L 559.316287 319.603974 
L 559.895486 314.129213 
L 560.094757 316.234094 
L 560.140902 314.255473 
L 560.38551 314.265225 
L 560.713948 323.23734 
L 561.053423 319.117653 
L 561.389398 322.486631 
L 562.071962 315.944888 
L 562.393902 335.06836 
L 562.839126 328.479647 
L 563.255202 317.12235 
L 563.401828 317.917316 
L 563.844899 321.596703 
L 564.231519 316.583092 
L 564.410677 325.897419 
L 564.77134 335.348832 
L 565.719393 317.86417 
L 566.155042 307.390899 
L 566.632376 312.143236 
L 566.828839 315.481274 
L 567.950051 283.340013 
L 567.977354 299.741112 
L 568.574626 282.685532 
L 568.845037 279.200275 
L 569.184935 271.640184 
L 569.517911 274.45766 
L 569.855578 269.597634 
L 570.52676 264.312642 
L 571.197519 257.69293 
L 571.871354 251.352531 
L 572.20879 252.605129 
L 572.54938 239.616774 
L 572.984222 244.792153 
L 573.530312 265.783253 
L 574.108395 247.506131 
L 574.539276 243.405792 
L 575.349393 225.774378 
L 575.671564 225.014681 
L 576.005347 235.746946 
L 576.347283 223.725875 
L 576.868916 223.080825 
L 577.683801 213.347954 
L 577.813546 218.569641 
L 579.029933 199.450326 
L 579.408093 196.082927 
L 579.755758 191.847293 
L 580.039359 183.705093 
L 581.048554 175.266602 
L 581.720313 169.709049 
L 582.126775 171.513561 
L 582.39484 162.933551 
L 582.72897 162.656392 
L 583.070213 159.333909 
L 583.400267 158.19546 
L 584.072833 153.954463 
L 584.56128 156.178774 
L 584.929633 166.796315 
L 585.570206 152.954083 
L 585.855114 150.881282 
L 586.03458 156.331668 
L 586.778594 170.257598 
L 587.336105 147.239777 
L 587.453352 149.366675 
L 587.788328 140.167909 
L 588.461201 150.147425 
L 588.797946 150.297248 
L 589.204062 147.652077 
L 589.468512 172.230968 
L 590.202874 166.167864 
L 590.982767 188.93135 
L 591.87706 169.609286 
L 592.004344 173.268723 
L 592.328476 176.306943 
L 592.730938 177.504212 
L 593.33894 190.528327 
L 593.6728 194.32186 
L 594.009391 194.324353 
L 594.345097 201.029454 
L 594.67988 204.67445 
L 595.018701 205.909421 
L 595.37325 226.568489 
L 595.888115 212.183431 
L 596.115765 210.073078 
L 596.371024 216.699801 
L 596.699463 220.0116 
L 597.116923 217.68643 
L 597.486815 240.71221 
L 598.318313 243.013519 
L 599.076132 250.735846 
L 599.40184 251.955829 
L 599.740546 250.668872 
L 600.207804 266.528323 
L 600.871718 268.310248 
L 601.168778 278.648751 
L 601.662185 276.402391 
L 602.359516 295.651113 
L 602.729177 292.998122 
L 602.984937 302.22733 
L 603.325181 290.388902 
L 603.674192 315.181855 
L 604.163831 308.927392 
L 604.647509 305.928249 
L 604.672928 304.516102 
L 604.776677 309.238966 
L 605.450397 314.932172 
L 605.786296 318.333591 
L 606.123386 319.105128 
L 606.457708 318.633736 
L 606.792991 323.011242 
L 607.128774 325.271039 
L 607.464788 326.496892 
L 608.119204 325.041664 
L 608.271906 322.120222 
L 608.492903 324.828624 
L 608.81142 330.259854 
L 609.144973 330.831305 
L 609.484178 330.646678 
L 609.817539 329.908645 
L 610.156552 324.79285 
L 610.580896 329.656603 
L 610.826273 328.253831 
L 611.160979 324.817635 
L 611.500608 325.231187 
L 612.16929 320.624574 
L 612.505381 316.368675 
L 612.842548 316.838609 
L 613.183407 312.010281 
L 613.543301 309.719796 
L 613.891659 318.211535 
L 614.492392 292.868383 
L 614.695777 296.32684 
L 614.949499 307.078458 
L 615.503279 286.826272 
L 615.684169 292.252405 
L 616.116472 289.247425 
L 616.286325 285.037604 
L 616.538508 282.186473 
L 617.125667 272.789796 
L 618.338401 263.749749 
L 618.691489 267.20839 
L 619.120331 255.865127 
L 619.353749 261.009311 
L 619.875036 245.137012 
L 620.211319 240.106415 
L 620.574212 244.956016 
L 621.319842 225.693954 
L 621.500884 247.089618 
L 622.353455 219.669416 
L 622.636364 219.105133 
L 622.636364 219.105133 
" clip-path="url(#p6937b47e1e)" style="fill: none; stroke: #ff0000; stroke-width: 1.5; stroke-linecap: square"/>
   </g>
   <g id="line2d_30">
    <path d="M 115.363636 301.049114 
L 115.682202 300.061559 
L 116.356234 315.524769 
L 116.691714 307.541859 
L 117.026574 304.825345 
L 117.367904 309.305159 
L 117.747468 260.961263 
L 118.678557 269.245712 
L 119.040605 295.273484 
L 119.098089 278.285638 
L 119.689363 317.570078 
L 119.916695 287.917878 
L 120.588204 358.745228 
L 121.228074 348.407576 
L 121.536045 364.792525 
L 121.951847 344.472707 
L 122.836763 337.793315 
L 122.980005 329.241466 
L 123.279127 321.054284 
L 123.625461 306.822099 
L 123.951726 278.088335 
L 124.562842 284.812997 
L 124.842785 269.4064 
L 125.086898 300.90506 
L 125.337678 298.933693 
L 125.96866 332.700867 
L 126.416134 297.988629 
L 126.643779 315.856368 
L 126.981398 311.645429 
L 127.317739 277.789962 
L 127.653733 310.322947 
L 127.989891 293.392026 
L 128.326223 270.034128 
L 128.662275 259.552092 
L 129.251414 264.13739 
L 129.35625 270.031856 
L 129.664529 258.818696 
L 130.008291 233.11018 
L 130.713149 243.200026 
L 131.691788 192.594282 
L 132.451006 206.057736 
L 133.177773 191.717488 
L 133.493185 154.513879 
L 134.062963 162.304015 
L 134.719508 232.139957 
L 135.392372 266.288116 
L 136.385229 211.383162 
L 136.721272 203.283244 
L 137.058035 203.671133 
L 137.41243 227.846627 
L 137.748593 217.91099 
L 138.085323 227.132845 
L 139.296346 186.977297 
L 139.661066 150.690327 
L 140.191068 141.209768 
L 140.597842 146.324658 
L 141.074988 147.504389 
L 141.20095 163.842465 
L 141.873223 173.937322 
L 142.226782 148.361536 
L 143.05528 149.040864 
L 143.460555 178.985679 
L 143.713253 163.136664 
L 143.893147 197.204876 
L 144.327613 195.8525 
L 144.744372 248.203314 
L 145.108774 251.084381 
L 145.30468 249.273281 
L 145.570428 221.61245 
L 145.90598 207.159764 
L 146.241321 200.41408 
L 146.706176 267.783067 
L 147.504065 257.349314 
L 147.770448 245.314517 
L 147.922621 245.409169 
L 148.260692 247.202807 
L 148.658771 232.535354 
L 149.183346 236.745785 
L 149.462717 225.392803 
L 149.700038 210.378539 
L 150.138705 208.60514 
L 150.458386 216.458281 
L 150.850033 211.640547 
L 151.074203 200.34254 
L 151.283356 208.223405 
L 151.617783 186.768893 
L 151.954768 214.654004 
L 152.638294 256.96096 
L 153.125914 244.507434 
L 153.660179 267.729074 
L 154.248395 266.079964 
L 154.609674 243.049589 
L 155.853681 294.382383 
L 156.616739 236.293621 
L 157.200255 207.034241 
L 157.541796 235.834052 
L 157.881271 249.174818 
L 158.214324 238.905648 
L 158.544435 283.551022 
L 158.92794 283.610562 
L 159.27526 294.214614 
L 159.553486 277.624288 
L 159.951258 304.433828 
L 160.560941 282.397127 
L 161.298014 341.046568 
L 161.744306 292.532399 
L 162.153056 316.280887 
L 162.382994 284.941991 
L 162.907164 293.746398 
L 163.630759 314.455632 
L 164.206305 316.387393 
L 164.465853 291.767543 
L 164.685754 317.343018 
L 164.91995 305.111069 
L 165.080612 289.791182 
L 165.365818 293.71008 
L 165.669694 275.350008 
L 166.008303 277.074824 
L 166.342548 255.274553 
L 166.677524 275.592608 
L 167.020806 308.711321 
L 167.351628 289.917128 
L 167.918224 293.736768 
L 168.161101 317.175281 
L 168.366457 354.633371 
L 168.743204 354.235809 
L 169.186015 364.928271 
L 169.370701 364.586725 
L 169.701283 357.00151 
L 170.049362 386.448813 
L 170.379868 370.366485 
L 170.721861 321.672978 
L 171.058154 348.59676 
L 171.384073 331.180076 
L 171.731787 347.050179 
L 172.068041 368.804881 
L 172.529906 389.265022 
L 172.726139 377.778451 
L 173.077803 324.705881 
L 173.401945 327.626666 
L 173.827297 352.115848 
L 174.440836 327.018035 
L 174.741049 320.666058 
L 175.096194 304.831919 
L 175.970328 284.042827 
L 176.778551 219.089087 
L 177.14056 218.506088 
L 177.76378 210.578594 
L 177.967309 184.469986 
L 178.320954 189.063381 
L 178.816534 199.91624 
L 178.947375 191.343297 
L 179.144943 220.504181 
L 179.370959 204.630219 
L 179.735419 219.941877 
L 180.369992 188.252311 
L 180.687135 165.593193 
L 181.028157 166.876806 
L 181.359682 178.728516 
L 181.692148 167.024846 
L 182.020461 176.26109 
L 182.360648 215.359535 
L 182.730549 225.280001 
L 183.044654 174.137232 
L 183.411143 177.961666 
L 183.722382 158.391819 
L 184.037112 160.791253 
L 184.375452 130.347988 
L 184.716378 172.896665 
L 185.046153 190.380156 
L 185.386551 217.379919 
L 185.719642 209.836507 
L 186.07273 223.44057 
L 186.397842 209.021335 
L 186.731327 216.671585 
L 187.101729 204.444011 
L 187.652222 194.199042 
L 188.201888 226.539321 
L 188.548957 230.660595 
L 189.009246 217.164904 
L 189.632167 179.893988 
L 190.227219 209.68825 
L 190.742488 193.668501 
L 191.295297 217.966862 
L 191.510449 207.693991 
L 191.805134 235.553306 
L 192.117518 223.570567 
L 192.323037 224.112515 
L 192.65884 268.23272 
L 192.994161 254.72244 
L 193.336136 277.321973 
L 194.004491 247.916192 
L 194.338928 261.937801 
L 194.676038 267.69946 
L 195.011167 254.418243 
L 195.346297 229.898022 
L 195.679955 227.439055 
L 196.109413 209.377276 
L 196.620981 163.876618 
L 197.297104 207.947821 
L 197.950471 214.011638 
L 198.233178 203.813737 
L 198.980019 231.677809 
L 199.104005 226.821279 
L 199.363658 222.467951 
L 199.653709 225.685185 
L 199.813208 217.282407 
L 200.050298 235.780594 
L 200.38637 270.951771 
L 200.722653 285.735561 
L 201.06829 282.772975 
L 201.442249 267.334319 
L 201.74226 266.191531 
L 202.072919 315.146984 
L 202.746523 300.075757 
L 203.025009 308.336427 
L 203.163637 298.41843 
L 203.411821 347.708209 
L 204.119746 333.199341 
L 204.34505 324.786716 
L 204.454347 333.949177 
L 204.762299 323.779168 
L 205.204639 319.99107 
L 205.734991 325.322963 
L 205.982493 317.345593 
L 206.286503 341.525261 
L 206.479582 336.161212 
L 206.782929 364.531865 
L 207.121548 344.888315 
L 207.444632 356.286024 
L 207.802295 362.249257 
L 208.123571 374.064318 
L 208.468189 379.280984 
L 208.786678 402.869873 
L 209.46381 362.043714 
L 209.797892 391.361403 
L 210.17882 385.530801 
L 210.46816 378.311673 
L 210.802934 375.099842 
L 211.150003 365.406246 
L 211.598121 336.760071 
L 212.086068 372.435776 
L 212.39501 369.923224 
L 213.495804 303.890624 
L 213.829308 326.378566 
L 214.173157 313.809612 
L 214.589492 312.425031 
L 214.835292 308.897812 
L 215.172114 295.998401 
L 215.507359 270.71439 
L 215.844122 267.111391 
L 216.204689 278.352097 
L 216.704768 243.836852 
L 216.857836 258.185991 
L 217.636103 218.395812 
L 218.254324 209.792769 
L 218.345451 195.399035 
L 218.602162 221.896146 
L 218.875601 218.995218 
L 219.203444 231.242001 
L 219.539756 224.773355 
L 219.929154 185.787463 
L 220.660911 188.660631 
L 221.460866 183.642806 
L 221.801216 196.109945 
L 222.138162 231.183617 
L 222.472667 197.500823 
L 222.806835 177.978929 
L 223.147136 184.551883 
L 223.479093 176.105801 
L 223.849091 206.421888 
L 225.099722 188.690306 
L 225.443571 177.523889 
L 225.891583 179.259994 
L 226.308274 196.46491 
L 226.563995 190.99082 
L 226.906681 211.161796 
L 227.242752 200.548712 
L 227.573267 196.588749 
L 227.909761 221.978917 
L 228.246102 211.2861 
L 228.918457 183.900867 
L 229.460547 191.158462 
L 229.79833 229.9744 
L 229.926152 198.513002 
L 230.279221 189.59572 
L 230.60018 203.863034 
L 230.934694 172.940013 
L 231.272707 127.878221 
L 231.913318 133.426839 
L 232.283056 135.145845 
L 233.261045 123.85945 
L 233.622651 136.026026 
L 234.187468 104.762674 
L 234.755957 99.733307 
L 234.89122 91.818108 
L 235.012005 103.443611 
L 235.300624 105.280389 
L 235.629236 127.882986 
L 235.970383 110.432635 
L 236.287727 118.277005 
L 236.656774 179.673017 
L 236.960044 202.973874 
L 237.577966 181.605752 
L 238.060702 181.075829 
L 238.29635 189.265788 
L 238.435247 184.703404 
L 238.648534 172.721144 
L 238.991355 185.979447 
L 239.314698 191.371482 
L 239.648404 209.366533 
L 239.984783 196.808849 
L 240.356041 212.729006 
L 240.675654 194.873125 
L 241.03524 209.987014 
L 242.001693 223.284368 
L 242.640593 218.987855 
L 243.105871 210.514904 
L 243.66467 197.029367 
L 244.004375 195.470056 
L 244.623394 158.843258 
L 244.992305 160.345448 
L 245.313495 146.79829 
L 245.637569 198.316944 
L 246.196079 262.564464 
L 246.869184 271.671392 
L 247.410351 285.430422 
L 247.766034 303.331011 
L 248.366076 359.091871 
L 248.480958 357.295552 
L 248.767039 333.515905 
L 249.104879 371.181302 
L 249.42853 352.294934 
L 249.893078 376.269811 
L 250.567624 344.409386 
L 251.279683 345.469635 
L 251.669013 341.918405 
L 251.953864 365.243043 
L 252.489513 378.438041 
L 252.829507 367.841946 
L 253.183998 367.71501 
L 253.35239 365.975047 
L 253.730492 386.491339 
L 254.114497 374.93854 
L 254.871278 323.507 
L 255.560187 392.561051 
L 255.74148 381.413512 
L 255.948864 390.278194 
L 256.365305 395.018765 
L 256.552404 418.070519 
L 256.81101 403.064763 
L 257.017336 430.92 
L 257.37302 422.023494 
L 257.823973 382.458858 
L 258.012265 353.744893 
L 258.34851 341.55022 
L 258.676813 324.539059 
L 259.015558 335.330692 
L 259.586373 306.814607 
L 260.094163 296.981905 
L 260.264996 275.052399 
L 260.774131 258.705528 
L 261.143889 232.707211 
L 261.49986 221.658733 
L 261.7014 241.392187 
L 262.371716 220.771138 
L 262.718113 233.693197 
L 263.083775 226.252229 
L 263.402619 238.504174 
L 263.714618 239.611749 
L 264.064725 231.453698 
L 264.41191 249.453806 
L 264.725582 222.79265 
L 265.059096 247.941453 
L 265.644909 243.196012 
L 266.049449 234.877934 
L 266.536377 253.759253 
L 267.116748 229.135605 
L 267.621077 224.884389 
L 268.528618 251.619808 
L 268.866362 244.759164 
L 269.209029 219.400896 
L 270.218955 210.927069 
L 270.274233 209.34875 
L 270.602902 224.071774 
L 270.882657 210.023723 
L 271.220805 216.563468 
L 271.55455 269.627733 
L 273.235869 212.768946 
L 273.570576 216.457743 
L 273.90682 235.053754 
L 274.244699 236.154252 
L 274.590192 203.114714 
L 274.929051 192.223238 
L 275.253279 212.537062 
L 275.588889 186.034624 
L 275.923019 179.805728 
L 276.263993 149.61913 
L 276.598161 168.518647 
L 277.041328 204.963442 
L 277.713606 224.769387 
L 277.990861 223.293768 
L 278.281557 214.539823 
L 278.611956 208.24253 
L 278.970773 194.663171 
L 279.520786 217.347046 
L 279.903906 206.627402 
L 280.19837 217.220103 
L 280.336344 212.230178 
L 280.963111 262.027509 
L 281.312353 254.968543 
L 281.971902 205.128131 
L 282.306955 210.528749 
L 282.642969 208.594249 
L 282.985078 218.152445 
L 283.652299 266.994489 
L 283.986909 267.764897 
L 284.323134 291.991059 
L 284.66705 276.954275 
L 285.000988 315.718517 
L 285.527389 307.430593 
L 285.756365 306.460391 
L 286.013009 351.736849 
L 286.340967 355.87395 
L 286.79417 299.569205 
L 287.640646 280.661768 
L 288.324537 314.614585 
L 288.520769 287.929219 
L 289.178588 345.247135 
L 289.516929 331.938426 
L 290.233044 347.6481 
L 291.428301 328.447255 
L 291.840377 310.546645 
L 292.280506 324.782097 
L 292.791564 305.536638 
L 293.081221 316.97758 
L 293.726677 289.308909 
L 294.078957 301.959185 
L 294.400377 348.927038 
L 294.738064 338.36787 
L 295.072866 378.067068 
L 295.746971 337.755119 
L 296.416403 308.485857 
L 296.992948 317.722252 
L 297.336711 316.246111 
L 297.584453 331.285314 
L 297.779185 309.686852 
L 298.134869 319.240681 
L 298.432909 336.535495 
L 298.768557 317.847243 
L 299.10486 330.549952 
L 299.45389 305.344899 
L 300.130206 285.920917 
L 300.457779 317.702243 
L 300.793139 316.346007 
L 301.124634 330.991581 
L 301.457303 337.055659 
L 301.80543 349.799594 
L 302.151826 338.552443 
L 302.498588 315.461088 
L 302.850907 277.985773 
L 303.811861 311.114331 
L 304.592387 317.818204 
L 304.974643 346.854027 
L 305.267934 317.466965 
L 305.573472 329.758635 
L 306.337137 285.368441 
L 307.013337 307.169028 
L 307.371539 323.574764 
L 307.44241 300.513276 
L 307.966773 305.59699 
L 308.021955 279.821326 
L 308.356777 291.658732 
L 308.70102 284.30695 
L 309.037418 273.304456 
L 309.379066 251.278765 
L 309.720521 253.194808 
L 310.283742 241.270201 
L 310.540809 285.747764 
L 310.865056 277.847696 
L 311.071248 269.51941 
L 311.431873 269.509328 
L 311.724376 255.751702 
L 312.062889 248.72837 
L 312.398307 276.732666 
L 312.734301 248.502338 
L 313.44488 216.881278 
L 313.739344 263.739628 
L 314.069993 263.85334 
L 314.455613 254.102073 
L 314.765978 204.323743 
L 315.079284 199.716059 
L 315.784517 158.306524 
L 316.437068 136.027374 
L 316.837743 138.636397 
L 317.100405 151.686887 
L 317.802889 110.458581 
L 318.280645 103.487166 
L 318.450132 92.776637 
L 318.779282 132.790793 
L 319.116411 149.305157 
L 319.448234 175.844748 
L 319.810281 163.220728 
L 320.128625 196.396145 
L 320.469234 200.562001 
L 320.802575 211.64391 
L 321.295964 207.603136 
L 321.78093 186.432864 
L 321.963146 170.905974 
L 322.343805 157.915794 
L 323.803589 216.302155 
L 324.071808 208.696918 
L 324.211628 200.668505 
L 324.641566 167.678434 
L 325.240839 147.68087 
L 325.510288 168.015149 
L 325.897677 152.561444 
L 326.182181 151.388902 
L 326.515907 162.288535 
L 326.852671 187.715129 
L 327.191684 186.354597 
L 327.526486 178.756138 
L 327.86475 189.942257 
L 328.342141 197.620195 
L 328.532259 219.655993 
L 328.868927 227.178305 
L 329.556702 217.831718 
L 329.878276 235.716323 
L 330.606024 221.931407 
L 330.890567 253.084903 
L 331.338348 256.03502 
L 331.712701 248.93989 
L 331.926891 271.249824 
L 332.287401 279.913424 
L 332.582691 292.958308 
L 332.931741 292.192004 
L 333.323379 283.094066 
L 333.628918 258.554887 
L 334.025959 276.07873 
L 334.279757 277.834641 
L 334.720155 262.76393 
L 334.946555 243.011157 
L 335.27632 272.262465 
L 335.59228 255.437141 
L 336.720818 327.59198 
L 337.059005 360.124686 
L 337.395173 366.030671 
L 337.732244 362.9671 
L 338.069123 371.172795 
L 338.404541 369.027295 
L 338.74067 365.83527 
L 339.076549 357.214204 
L 339.441712 333.297826 
L 339.766804 342.05597 
L 340.085918 326.287926 
L 340.420336 317.864548 
L 340.832201 285.477572 
L 341.090825 255.016273 
L 341.429146 247.544535 
L 341.76416 320.661549 
L 342.103212 314.042457 
L 342.440379 294.922479 
L 342.792948 288.147594 
L 343.107485 324.108763 
L 343.476089 321.149223 
L 343.77884 312.187779 
L 344.114815 318.698081 
L 344.45329 333.546286 
L 344.789131 324.327039 
L 345.459505 328.915643 
L 345.796173 311.431381 
L 346.132379 325.531315 
L 346.469739 331.439574 
L 346.807617 305.082284 
L 347.143401 319.042949 
L 347.559938 294.135833 
L 347.818428 291.889052 
L 348.152423 254.205187 
L 348.653156 269.395341 
L 349.281326 264.565007 
L 349.526242 269.083053 
L 349.704862 246.056147 
L 350.33732 286.244032 
L 350.568873 285.878413 
L 350.666547 284.312145 
L 350.8354 329.312753 
L 351.171914 331.656629 
L 351.5121 320.673861 
L 352.531505 179.719475 
L 353.566887 211.000284 
L 353.914072 201.852862 
L 354.387579 267.447066 
L 354.576909 257.555471 
L 354.913365 190.166028 
L 355.389064 208.941815 
L 355.756765 259.337299 
L 355.921003 248.606442 
L 356.257248 237.319619 
L 356.768652 238.247131 
L 357.107319 225.509275 
L 357.495438 240.849084 
L 357.676539 223.951358 
L 357.959024 247.85675 
L 358.273734 230.667877 
L 358.609518 230.559964 
L 358.974622 199.091091 
L 359.454051 225.275749 
L 359.619174 197.346266 
L 360.099853 179.678178 
L 360.289375 205.005155 
L 360.682167 208.079402 
L 361.029486 197.227943 
L 361.478768 179.064076 
L 361.77477 181.901314 
L 361.99071 170.045683 
L 362.313245 208.907954 
L 362.691405 238.173853 
L 362.978928 233.042434 
L 363.314 257.699261 
L 363.65036 246.627053 
L 363.988566 256.693432 
L 364.321638 246.988388 
L 364.658228 276.435137 
L 365.199761 286.08115 
L 365.470211 279.087862 
L 365.712127 260.056634 
L 366.005072 274.441112 
L 366.381347 271.808288 
L 366.674638 235.915961 
L 367.087465 228.39609 
L 367.3498 250.505768 
L 367.685179 257.788993 
L 368.018982 283.229626 
L 368.367167 278.889466 
L 369.860387 319.020806 
L 370.206706 309.011788 
L 370.45689 295.253232 
L 371.003037 315.643812 
L 371.579641 304.791608 
L 372.232364 265.361038 
L 372.472742 290.825745 
L 372.812313 310.041981 
L 373.156556 319.154889 
L 373.48263 272.173217 
L 373.818182 302.542408 
L 374.152504 302.633896 
L 374.489864 316.433851 
L 374.824897 316.446698 
L 375.17189 319.975911 
L 375.498636 305.849231 
L 375.837534 268.898452 
L 376.290622 327.768427 
L 376.551573 319.374932 
L 376.845825 314.364076 
L 377.178321 288.35566 
L 377.513027 286.60831 
L 377.849656 274.26784 
L 378.186112 283.574221 
L 378.874195 228.185143 
L 379.21142 248.048091 
L 379.534071 239.4084 
L 379.870623 210.937093 
L 380.217289 251.16023 
L 380.537786 244.756323 
L 380.873416 242.38822 
L 381.2236 238.245411 
L 381.882303 282.029827 
L 382.219105 262.754104 
L 382.554292 278.556921 
L 382.89221 270.104108 
L 383.225128 255.629153 
L 383.640069 250.268589 
L 383.898598 219.591787 
L 384.235458 245.046688 
L 384.570106 258.832628 
L 384.907216 284.30528 
L 385.241653 301.000642 
L 385.609546 245.054615 
L 385.991878 232.061463 
L 386.502282 219.677302 
L 386.801399 254.840445 
L 386.928106 246.988943 
L 387.262236 239.20347 
L 387.597711 317.320759 
L 388.304348 293.467942 
L 388.612944 351.073441 
L 388.978837 339.70453 
L 389.273512 317.95551 
L 389.609603 355.268904 
L 389.951077 344.643139 
L 390.292167 314.82558 
L 391.103284 303.672402 
L 391.783579 315.01915 
L 391.962507 303.85728 
L 392.29856 302.669591 
L 392.63392 284.032878 
L 392.979355 326.392757 
L 393.311062 328.706487 
L 393.642653 308.256586 
L 393.97859 298.809136 
L 394.315681 294.660792 
L 394.650541 286.280505 
L 395.006359 280.723947 
L 395.336912 250.478506 
L 395.738222 264.701002 
L 396.670277 235.602125 
L 397.002869 251.944472 
L 397.339037 257.13114 
L 397.674512 267.807061 
L 398.011526 225.785588 
L 398.346694 241.32051 
L 398.693705 266.083503 
L 399.017952 276.787419 
L 399.354235 321.254943 
L 400.026186 299.047425 
L 400.362584 295.048314 
L 400.701521 271.076209 
L 401.038188 266.236675 
L 401.370357 272.591903 
L 401.707793 256.705342 
L 402.045999 262.69211 
L 402.378629 226.745066 
L 402.722488 231.568892 
L 403.132911 265.644466 
L 403.7233 254.188271 
L 404.062428 229.537873 
L 404.471582 224.633281 
L 404.75303 230.540004 
L 405.128921 201.942522 
L 405.638709 184.500175 
L 406.150498 150.639803 
L 406.56815 203.649638 
L 406.846214 187.593939 
L 407.176959 157.249436 
L 407.888441 218.650257 
L 408.470639 179.724048 
L 408.808422 180.275255 
L 409.144436 169.304906 
L 409.484795 183.993519 
L 409.819771 170.564988 
L 410.15267 198.073844 
L 410.488645 214.832976 
L 410.831389 176.94371 
L 411.182361 176.206257 
L 411.504724 162.020986 
L 411.833201 206.683956 
L 412.195133 234.145936 
L 412.504805 222.698011 
L 412.844395 261.726451 
L 413.251857 209.044978 
L 413.515346 208.470051 
L 413.85609 213.067616 
L 414.211139 186.695986 
L 414.64898 211.639905 
L 415.200069 210.829226 
L 415.705628 264.665849 
L 416.55143 213.225384 
L 416.963815 211.90935 
L 417.212114 243.484217 
L 417.679065 254.930004 
L 417.890294 244.179509 
L 418.224386 270.95067 
L 418.742711 246.76577 
L 419.227044 286.385619 
L 419.684304 275.384441 
L 419.858156 261.161661 
L 420.152754 215.849661 
L 420.91415 186.577111 
L 421.242319 243.062129 
L 421.490388 243.870364 
L 421.581332 225.280236 
L 422.018596 276.631728 
L 422.256552 264.195309 
L 422.589066 277.046946 
L 423.596993 341.430282 
L 423.932853 313.300059 
L 424.33993 295.897125 
L 424.694863 286.200224 
L 424.968081 287.947369 
L 425.285637 237.687645 
L 425.755357 252.563495 
L 426.128364 297.230726 
L 426.564897 315.389455 
L 426.62081 312.566037 
L 426.957708 303.062659 
L 427.294798 357.639999 
L 427.62889 381.008274 
L 427.968018 388.830665 
L 428.30284 359.606124 
L 428.641853 354.285729 
L 429.014899 376.97792 
L 429.331455 370.918161 
L 429.647318 359.638922 
L 429.981486 336.5339 
L 430.317347 342.362329 
L 430.654745 354.467265 
L 430.991028 358.406455 
L 431.340001 333.204493 
L 431.667708 325.707474 
L 432.074632 326.082204 
L 432.341159 345.754658 
L 432.806418 352.021298 
L 433.12505 338.543242 
L 433.366928 354.708609 
L 433.68756 352.109812 
L 434.022843 337.930954 
L 434.354204 304.499052 
L 434.68545 308.441087 
L 435.02154 302.208863 
L 435.737137 352.625272 
L 436.199589 346.738102 
L 436.835854 319.754337 
L 436.88023 336.924997 
L 437.373407 304.30973 
L 437.709805 269.589308 
L 438.047665 287.148978 
L 439.209216 264.843253 
L 439.408525 249.660853 
L 439.726427 251.663301 
L 440.064902 244.356218 
L 440.397339 281.645869 
L 440.73443 275.622597 
L 441.073943 257.229332 
L 441.446488 265.316348 
L 441.741818 220.095677 
L 442.307481 233.594754 
L 442.424805 212.675381 
L 442.910444 238.416713 
L 443.58751 235.535448 
L 443.72683 223.021665 
L 443.968823 259.493416 
L 444.115372 242.940453 
L 444.430159 264.259543 
L 444.765827 270.04859 
L 445.244199 254.188205 
L 445.774099 273.621371 
L 446.447742 270.264188 
L 447.119039 235.929665 
L 447.544767 201.958873 
L 448.168496 185.713033 
L 448.510393 161.448417 
L 449.206686 159.518016 
L 449.618301 150.796676 
L 449.887789 178.419782 
L 450.219688 193.197876 
L 450.892062 156.962661 
L 451.427269 157.664516 
L 451.595353 161.187076 
L 451.978742 152.422662 
L 452.240347 129.905809 
L 452.576976 137.619965 
L 452.907722 188.868457 
L 453.430431 192.305713 
L 453.590555 184.070638 
L 453.920185 197.455695 
L 454.24947 195.630363 
L 454.589983 207.42973 
L 454.982178 193.289316 
L 455.325729 219.190991 
L 455.712426 226.43702 
L 456.328618 214.32467 
L 456.612103 192.171599 
L 456.96396 239.910455 
L 457.345581 238.435793 
L 457.372691 237.280079 
L 457.645294 239.821606 
L 457.950429 245.947131 
L 458.338818 232.288511 
L 458.680638 246.543886 
L 459.068488 250.941106 
L 459.366202 245.324067 
L 459.628191 261.55736 
L 459.964359 223.734317 
L 460.304064 227.352785 
L 460.972785 180.108661 
L 461.33091 165.207683 
L 461.645389 194.160401 
L 462.01805 181.372368 
L 462.31534 207.32855 
L 462.653123 195.501209 
L 463.101308 186.477154 
L 463.841554 205.060817 
L 464.293469 250.777438 
L 464.965843 294.066586 
L 465.310624 286.357448 
L 465.66029 251.531182 
L 465.978422 277.919544 
L 466.647527 262.438347 
L 466.983926 268.14509 
L 467.324746 234.099506 
L 467.952244 224.251769 
L 468.37801 229.66197 
L 468.584625 271.955722 
L 468.662995 263.359006 
L 468.999932 252.636431 
L 469.336561 231.67608 
L 470.167021 211.243993 
L 471.176523 303.592259 
L 471.520997 284.762426 
L 472.012559 340.759886 
L 472.478087 330.93841 
L 472.859631 288.924832 
L 473.195991 302.843236 
L 473.869018 289.519047 
L 474.204955 305.883859 
L 474.756544 263.505619 
L 475.081483 253.329718 
L 475.768469 236.207657 
L 476.213116 302.414808 
L 476.698141 283.905005 
L 477.044768 289.427956 
L 477.390819 292.134511 
L 478.177171 333.878847 
L 478.743257 324.826143 
L 479.082116 329.725199 
L 479.44301 304.880596 
L 479.783562 304.686928 
L 480.113461 272.267268 
L 480.774376 262.633591 
L 481.137346 272.062959 
L 481.537886 254.60781 
L 481.943772 270.660636 
L 482.442909 244.495846 
L 482.926972 255.471062 
L 483.140086 249.48118 
L 483.825726 271.642919 
L 484.025304 273.926325 
L 484.532093 243.373837 
L 484.945093 243.664047 
L 485.187624 271.337376 
L 485.505911 264.246365 
L 485.806623 281.455978 
L 486.285111 285.066745 
L 486.713453 309.495995 
L 486.892574 301.11233 
L 487.146641 296.099055 
L 487.51338 284.703046 
L 487.890386 297.837992 
L 488.412404 335.317127 
L 488.815943 345.784423 
L 488.921808 339.87925 
L 489.163647 358.515374 
L 489.833829 312.087475 
L 490.170112 316.919938 
L 490.730199 295.562803 
L 491.025913 307.470323 
L 491.639759 302.386424 
L 492.177658 273.498514 
L 492.828344 270.058481 
L 493.193045 301.487043 
L 493.674647 270.239307 
L 494.184205 279.718492 
L 494.345944 275.075164 
L 494.861232 286.960884 
L 495.387364 276.748337 
L 495.534451 287.244528 
L 496.251048 269.723185 
L 496.542185 296.43498 
L 497.571569 222.3276 
L 498.396722 208.730017 
L 499.006992 166.170702 
L 499.30409 156.128598 
L 499.575078 157.536519 
L 499.89471 181.441602 
L 500.23853 180.446445 
L 500.578735 182.740204 
L 500.914595 172.79774 
L 501.24438 203.873022 
L 501.628231 193.775754 
L 502.194701 225.342649 
L 502.452768 221.130892 
L 503.285343 255.276134 
L 503.564598 245.773951 
L 504.079309 276.406745 
L 504.483579 257.614055 
L 504.823823 291.068702 
L 505.439631 289.09355 
L 505.788796 285.045613 
L 506.323696 307.846916 
L 506.628677 271.497577 
L 507.078169 291.054292 
L 507.470442 244.647297 
L 507.7765 231.104674 
L 508.201689 278.961795 
L 508.781503 247.8805 
L 509.325555 231.043228 
L 509.918021 265.627958 
L 510.475301 314.813342 
L 511.24208 291.803637 
L 511.359904 279.370485 
L 511.682382 283.316664 
L 512.015166 282.045438 
L 512.381251 314.20639 
L 512.688155 289.468288 
L 513.106345 286.312677 
L 513.393868 253.945375 
L 513.751994 281.563876 
L 514.054898 258.912152 
L 514.531309 248.556209 
L 514.757189 254.345755 
L 515.066824 273.672503 
L 515.422911 306.498444 
L 515.90582 321.913969 
L 516.119011 311.417588 
L 516.384884 310.35645 
L 516.76712 311.166762 
L 517.119246 310.409264 
L 517.406231 344.309903 
L 517.814462 335.797093 
L 518.076566 359.869221 
L 518.738711 349.815315 
L 519.118871 383.565736 
L 519.408124 366.873832 
L 519.745868 370.473682 
L 520.095418 375.508619 
L 520.416935 376.424676 
L 520.778444 357.19991 
L 521.43732 388.121988 
L 521.766105 384.243596 
L 522.101311 359.823746 
L 522.435018 320.123754 
L 522.789682 331.091232 
L 523.244712 336.413279 
L 523.498664 329.404046 
L 524.113626 336.366964 
L 524.451639 333.998485 
L 525.009342 339.57336 
L 525.42188 340.462412 
L 526.043917 352.024633 
L 526.282257 337.01649 
L 526.504215 335.693314 
L 526.867647 303.528108 
L 527.164514 302.478569 
L 527.682571 321.783265 
L 528.171133 281.073468 
L 528.849121 262.497881 
L 529.293499 271.619111 
L 529.604826 271.457221 
L 529.868315 291.271348 
L 530.196215 293.689406 
L 530.809792 284.594893 
L 531.162149 265.263217 
L 531.475359 281.814877 
L 531.637406 272.479626 
L 531.999838 274.644831 
L 532.238831 280.201306 
L 533.122665 244.66761 
L 533.855643 246.952969 
L 534.352281 240.151005 
L 535.033884 296.526606 
L 535.362283 283.538181 
L 535.702297 276.172427 
L 536.136061 241.676856 
L 536.708223 226.407414 
L 537.04366 204.80949 
L 537.457852 238.659336 
L 538.054163 199.303266 
L 538.3866 232.014435 
L 538.723768 250.059145 
L 539.058628 223.778135 
L 539.417215 221.048927 
L 539.731117 197.775998 
L 540.140925 230.874206 
L 540.404837 222.55923 
L 541.411648 166.054323 
L 541.747431 190.126148 
L 542.083637 159.873227 
L 542.771854 125.961352 
L 543.427039 104.223446 
L 543.764129 110.997596 
L 544.110564 124.306098 
L 544.43858 107.338635 
L 544.805357 122.620739 
L 545.295804 160.264093 
L 545.866312 155.46671 
L 546.941033 130.815393 
L 547.628673 185.946492 
L 547.95392 176.26146 
L 548.454634 228.535102 
L 548.882938 212.629175 
L 548.964653 268.859836 
L 549.970272 234.786199 
L 550.322052 210.747846 
L 550.684215 204.434205 
L 550.969085 204.042034 
L 551.304676 214.74042 
L 551.898295 217.451638 
L 552.182319 189.809257 
L 552.661459 247.721348 
L 552.748751 241.921606 
L 553.322912 275.257977 
L 553.665732 312.093713 
L 554.000054 305.163726 
L 554.331492 321.89712 
L 554.672505 323.151446 
L 555.002174 322.268683 
L 555.338303 301.953996 
L 555.681546 290.792045 
L 556.010523 271.166468 
L 556.345999 264.271624 
L 556.681782 303.362576 
L 557.022795 273.129479 
L 557.359693 259.5427 
L 557.712358 259.440414 
L 558.355122 287.833868 
L 558.97166 337.018707 
L 559.316287 327.687433 
L 559.895486 327.233404 
L 560.140902 303.166089 
L 560.38551 286.448999 
L 560.713948 280.132456 
L 561.053423 278.151428 
L 561.389398 311.76999 
L 561.771134 324.424465 
L 562.071962 313.919874 
L 562.393902 320.762187 
L 562.839126 307.088469 
L 563.255202 322.683309 
L 563.401828 273.920251 
L 563.844899 265.045359 
L 564.231519 302.400837 
L 564.410677 337.095915 
L 564.77134 291.675869 
L 565.719393 319.966712 
L 566.155042 338.44973 
L 566.632376 347.560964 
L 566.828839 320.895122 
L 567.428572 328.835491 
L 567.977354 301.147223 
L 568.297294 306.893072 
L 568.574626 309.598836 
L 568.845037 326.281101 
L 569.184935 335.440961 
L 569.517911 340.967423 
L 569.855578 350.856125 
L 570.190131 342.861457 
L 570.52676 340.000423 
L 570.86412 315.847506 
L 571.197519 278.428375 
L 571.677121 263.749718 
L 571.871354 281.819418 
L 572.20879 281.062026 
L 572.54938 282.386997 
L 572.984222 218.207481 
L 573.530312 272.197376 
L 574.539276 243.628097 
L 574.995229 278.413452 
L 575.349393 260.688265 
L 575.671564 221.807497 
L 576.005347 222.277667 
L 576.347283 202.24133 
L 576.868916 221.482189 
L 577.160707 236.455153 
L 577.683801 241.637696 
L 577.813546 220.478352 
L 578.51926 201.036829 
L 579.029933 202.758077 
L 579.408093 200.130292 
L 579.755758 202.544982 
L 580.039359 226.117591 
L 580.375988 228.639641 
L 580.716117 212.525416 
L 581.048554 227.648151 
L 581.38403 197.262479 
L 581.720313 225.012802 
L 582.126775 243.115407 
L 582.39484 234.407698 
L 582.72897 239.689395 
L 583.070213 213.154075 
L 583.400267 208.878104 
L 583.737319 227.637348 
L 584.072833 218.514286 
L 584.56128 198.630612 
L 584.929633 193.826263 
L 585.855114 227.492068 
L 586.03458 213.390831 
L 586.778594 204.455642 
L 587.336105 260.389519 
L 587.453352 252.58615 
L 587.788328 241.362669 
L 588.166141 246.86305 
L 588.461201 211.688127 
L 588.797946 211.634096 
L 589.204062 207.797465 
L 589.468512 189.022386 
L 590.202874 156.627496 
L 590.982767 154.349729 
L 591.828185 193.760942 
L 591.87706 191.883955 
L 592.004344 219.448212 
L 592.328476 213.118201 
L 592.730938 228.727086 
L 593.013155 223.912663 
L 593.33894 212.543328 
L 593.6728 220.136854 
L 594.009391 237.42314 
L 594.345097 264.243142 
L 594.67988 232.037851 
L 595.018701 226.606916 
L 595.37325 185.934958 
L 596.115765 230.579981 
L 596.371024 199.806372 
L 596.699463 187.808764 
L 597.486815 243.214955 
L 598.318313 210.543207 
L 598.726621 221.007374 
L 599.076132 204.432256 
L 599.40184 182.21645 
L 599.740546 203.06576 
L 600.207804 214.318816 
L 601.168778 268.752689 
L 601.986432 221.358474 
L 602.359516 215.45808 
L 602.984937 306.312425 
L 603.325181 291.340509 
L 603.499071 332.190469 
L 603.674192 320.30217 
L 604.163831 366.39405 
L 604.647509 363.936129 
L 604.776677 358.931038 
L 605.112807 368.881238 
L 605.450397 362.175295 
L 605.786296 330.984892 
L 606.123386 329.461044 
L 606.457708 334.218436 
L 606.792991 323.52625 
L 607.128774 339.979074 
L 607.464788 337.952389 
L 608.119204 344.391412 
L 608.271906 342.122591 
L 608.492903 329.130791 
L 609.144973 314.026053 
L 609.484178 296.413022 
L 609.817539 295.925219 
L 610.156552 293.070324 
L 610.826273 343.360365 
L 611.160979 328.200452 
L 611.500608 327.640441 
L 611.832968 308.274684 
L 612.16929 321.453387 
L 612.505381 329.011072 
L 612.842548 327.230121 
L 613.183407 334.76943 
L 613.543301 367.081374 
L 613.891659 347.728759 
L 614.492392 285.77888 
L 614.695777 286.694594 
L 614.949499 284.050646 
L 615.503279 293.207142 
L 615.684169 305.235344 
L 616.116472 280.291335 
L 616.286325 285.419838 
L 616.538508 265.781954 
L 617.125667 284.526722 
L 618.338401 327.853069 
L 619.120331 329.617439 
L 619.353749 333.1869 
L 619.875036 279.364789 
L 620.574212 242.082998 
L 621.109727 231.38168 
L 621.319842 263.31627 
L 621.500884 243.430149 
L 622.130689 221.378581 
L 622.353455 197.922285 
L 622.636364 193.296155 
L 622.636364 193.296155 
" clip-path="url(#p6937b47e1e)" style="fill: none; stroke: #008000; stroke-width: 1.5; stroke-linecap: square"/>
   </g>
   <g id="patch_3">
    <path d="M 90 448.56 
L 90 60.48 
" style="fill: none; stroke: #000000; stroke-width: 0.8; stroke-linejoin: miter; stroke-linecap: square"/>
   </g>
   <g id="patch_4">
    <path d="M 648 448.56 
L 648 60.48 
" style="fill: none; stroke: #000000; stroke-width: 0.8; stroke-linejoin: miter; stroke-linecap: square"/>
   </g>
   <g id="patch_5">
    <path d="M 90 448.56 
L 648 448.56 
" style="fill: none; stroke: #000000; stroke-width: 0.8; stroke-linejoin: miter; stroke-linecap: square"/>
   </g>
   <g id="patch_6">
    <path d="M 90 60.48 
L 648 60.48 
" style="fill: none; stroke: #000000; stroke-width: 0.8; stroke-linejoin: miter; stroke-linecap: square"/>
   </g>
   <g id="text_17">
    <!-- RMSE OptiTrack: 0.247 -->
    <g style="fill: #ff0000" transform="translate(95.58 83.7648)scale(0.1 -0.1)">
     <defs>
      <path id="DejaVuSans-52" d="M 2841 2188 
Q 3044 2119 3236 1894 
Q 3428 1669 3622 1275 
L 4263 0 
L 3584 0 
L 2988 1197 
Q 2756 1666 2539 1819 
Q 2322 1972 1947 1972 
L 1259 1972 
L 1259 0 
L 628 0 
L 628 4666 
L 2053 4666 
Q 2853 4666 3247 4331 
Q 3641 3997 3641 3322 
Q 3641 2881 3436 2590 
Q 3231 2300 2841 2188 
z
M 1259 4147 
L 1259 2491 
L 2053 2491 
Q 2509 2491 2742 2702 
Q 2975 2913 2975 3322 
Q 2975 3731 2742 3939 
Q 2509 4147 2053 4147 
L 1259 4147 
z
" transform="scale(0.015625)"/>
      <path id="DejaVuSans-53" d="M 3425 4513 
L 3425 3897 
Q 3066 4069 2747 4153 
Q 2428 4238 2131 4238 
Q 1616 4238 1336 4038 
Q 1056 3838 1056 3469 
Q 1056 3159 1242 3001 
Q 1428 2844 1947 2747 
L 2328 2669 
Q 3034 2534 3370 2195 
Q 3706 1856 3706 1288 
Q 3706 609 3251 259 
Q 2797 -91 1919 -91 
Q 1588 -91 1214 -16 
Q 841 59 441 206 
L 441 856 
Q 825 641 1194 531 
Q 1563 422 1919 422 
Q 2459 422 2753 634 
Q 3047 847 3047 1241 
Q 3047 1584 2836 1778 
Q 2625 1972 2144 2069 
L 1759 2144 
Q 1053 2284 737 2584 
Q 422 2884 422 3419 
Q 422 4038 858 4394 
Q 1294 4750 2059 4750 
Q 2388 4750 2728 4690 
Q 3069 4631 3425 4513 
z
" transform="scale(0.015625)"/>
      <path id="DejaVuSans-4f" d="M 2522 4238 
Q 1834 4238 1429 3725 
Q 1025 3213 1025 2328 
Q 1025 1447 1429 934 
Q 1834 422 2522 422 
Q 3209 422 3611 934 
Q 4013 1447 4013 2328 
Q 4013 3213 3611 3725 
Q 3209 4238 2522 4238 
z
M 2522 4750 
Q 3503 4750 4090 4092 
Q 4678 3434 4678 2328 
Q 4678 1225 4090 567 
Q 3503 -91 2522 -91 
Q 1538 -91 948 565 
Q 359 1222 359 2328 
Q 359 3434 948 4092 
Q 1538 4750 2522 4750 
z
" transform="scale(0.015625)"/>
      <path id="DejaVuSans-70" d="M 1159 525 
L 1159 -1331 
L 581 -1331 
L 581 3500 
L 1159 3500 
L 1159 2969 
Q 1341 3281 1617 3432 
Q 1894 3584 2278 3584 
Q 2916 3584 3314 3078 
Q 3713 2572 3713 1747 
Q 3713 922 3314 415 
Q 2916 -91 2278 -91 
Q 1894 -91 1617 61 
Q 1341 213 1159 525 
z
M 3116 1747 
Q 3116 2381 2855 2742 
Q 2594 3103 2138 3103 
Q 1681 3103 1420 2742 
Q 1159 2381 1159 1747 
Q 1159 1113 1420 752 
Q 1681 391 2138 391 
Q 2594 391 2855 752 
Q 3116 1113 3116 1747 
z
" transform="scale(0.015625)"/>
      <path id="DejaVuSans-63" d="M 3122 3366 
L 3122 2828 
Q 2878 2963 2633 3030 
Q 2388 3097 2138 3097 
Q 1578 3097 1268 2742 
Q 959 2388 959 1747 
Q 959 1106 1268 751 
Q 1578 397 2138 397 
Q 2388 397 2633 464 
Q 2878 531 3122 666 
L 3122 134 
Q 2881 22 2623 -34 
Q 2366 -91 2075 -91 
Q 1284 -91 818 406 
Q 353 903 353 1747 
Q 353 2603 823 3093 
Q 1294 3584 2113 3584 
Q 2378 3584 2631 3529 
Q 2884 3475 3122 3366 
z
" transform="scale(0.015625)"/>
      <path id="DejaVuSans-6b" d="M 581 4863 
L 1159 4863 
L 1159 1991 
L 2875 3500 
L 3609 3500 
L 1753 1863 
L 3688 0 
L 2938 0 
L 1159 1709 
L 1159 0 
L 581 0 
L 581 4863 
z
" transform="scale(0.015625)"/>
      <path id="DejaVuSans-3a" d="M 750 794 
L 1409 794 
L 1409 0 
L 750 0 
L 750 794 
z
M 750 3309 
L 1409 3309 
L 1409 2516 
L 750 2516 
L 750 3309 
z
" transform="scale(0.015625)"/>
      <path id="DejaVuSans-37" d="M 525 4666 
L 3525 4666 
L 3525 4397 
L 1831 0 
L 1172 0 
L 2766 4134 
L 525 4134 
L 525 4666 
z
" transform="scale(0.015625)"/>
     </defs>
     <use xlink:href="#DejaVuSans-52"/>
     <use xlink:href="#DejaVuSans-4d" x="69.482422"/>
     <use xlink:href="#DejaVuSans-53" x="155.761719"/>
     <use xlink:href="#DejaVuSans-45" x="219.238281"/>
     <use xlink:href="#DejaVuSans-20" x="282.421875"/>
     <use xlink:href="#DejaVuSans-4f" x="314.208984"/>
     <use xlink:href="#DejaVuSans-70" x="392.919922"/>
     <use xlink:href="#DejaVuSans-74" x="456.396484"/>
     <use xlink:href="#DejaVuSans-69" x="495.605469"/>
     <use xlink:href="#DejaVuSans-54" x="523.388672"/>
     <use xlink:href="#DejaVuSans-72" x="569.722656"/>
     <use xlink:href="#DejaVuSans-61" x="610.835938"/>
     <use xlink:href="#DejaVuSans-63" x="672.115234"/>
     <use xlink:href="#DejaVuSans-6b" x="727.095703"/>
     <use xlink:href="#DejaVuSans-3a" x="785.005859"/>
     <use xlink:href="#DejaVuSans-20" x="818.697266"/>
     <use xlink:href="#DejaVuSans-30" x="850.484375"/>
     <use xlink:href="#DejaVuSans-2e" x="914.107422"/>
     <use xlink:href="#DejaVuSans-32" x="945.894531"/>
     <use xlink:href="#DejaVuSans-34" x="1009.517578"/>
     <use xlink:href="#DejaVuSans-37" x="1073.140625"/>
    </g>
   </g>
   <g id="text_18">
    <!-- RMSE Kalman: 0.204 -->
    <g style="fill: #008000" transform="translate(95.58 72.1224)scale(0.1 -0.1)">
     <defs>
      <path id="DejaVuSans-4b" d="M 628 4666 
L 1259 4666 
L 1259 2694 
L 3353 4666 
L 4166 4666 
L 1850 2491 
L 4331 0 
L 3500 0 
L 1259 2247 
L 1259 0 
L 628 0 
L 628 4666 
z
" transform="scale(0.015625)"/>
      <path id="DejaVuSans-6c" d="M 603 4863 
L 1178 4863 
L 1178 0 
L 603 0 
L 603 4863 
z
" transform="scale(0.015625)"/>
     </defs>
     <use xlink:href="#DejaVuSans-52"/>
     <use xlink:href="#DejaVuSans-4d" x="69.482422"/>
     <use xlink:href="#DejaVuSans-53" x="155.761719"/>
     <use xlink:href="#DejaVuSans-45" x="219.238281"/>
     <use xlink:href="#DejaVuSans-20" x="282.421875"/>
     <use xlink:href="#DejaVuSans-4b" x="314.208984"/>
     <use xlink:href="#DejaVuSans-61" x="378.035156"/>
     <use xlink:href="#DejaVuSans-6c" x="439.314453"/>
     <use xlink:href="#DejaVuSans-6d" x="467.097656"/>
     <use xlink:href="#DejaVuSans-61" x="564.509766"/>
     <use xlink:href="#DejaVuSans-6e" x="625.789062"/>
     <use xlink:href="#DejaVuSans-3a" x="689.167969"/>
     <use xlink:href="#DejaVuSans-20" x="722.859375"/>
     <use xlink:href="#DejaVuSans-30" x="754.646484"/>
     <use xlink:href="#DejaVuSans-2e" x="818.269531"/>
     <use xlink:href="#DejaVuSans-32" x="850.056641"/>
     <use xlink:href="#DejaVuSans-30" x="913.679688"/>
     <use xlink:href="#DejaVuSans-34" x="977.302734"/>
    </g>
   </g>
   <g id="legend_1">
    <g id="patch_7">
     <path d="M 534.371875 97.83625 
L 641 97.83625 
Q 643 97.83625 643 95.83625 
L 643 67.48 
Q 643 65.48 641 65.48 
L 534.371875 65.48 
Q 532.371875 65.48 532.371875 67.48 
L 532.371875 95.83625 
Q 532.371875 97.83625 534.371875 97.83625 
z
" style="fill: #ffffff; opacity: 0.8; stroke: #cccccc; stroke-linejoin: miter"/>
    </g>
    <g id="line2d_31">
     <path d="M 536.371875 73.578438 
L 546.371875 73.578438 
L 556.371875 73.578438 
" style="fill: none; stroke: #ff0000; stroke-width: 1.5; stroke-linecap: square"/>
    </g>
    <g id="text_19">
     <!-- OptiTrack Error -->
     <g transform="translate(564.371875 77.078438)scale(0.1 -0.1)">
      <use xlink:href="#DejaVuSans-4f"/>
      <use xlink:href="#DejaVuSans-70" x="78.710938"/>
      <use xlink:href="#DejaVuSans-74" x="142.1875"/>
      <use xlink:href="#DejaVuSans-69" x="181.396484"/>
      <use xlink:href="#DejaVuSans-54" x="209.179688"/>
      <use xlink:href="#DejaVuSans-72" x="255.513672"/>
      <use xlink:href="#DejaVuSans-61" x="296.626953"/>
      <use xlink:href="#DejaVuSans-63" x="357.90625"/>
      <use xlink:href="#DejaVuSans-6b" x="412.886719"/>
      <use xlink:href="#DejaVuSans-20" x="470.796875"/>
      <use xlink:href="#DejaVuSans-45" x="502.583984"/>
      <use xlink:href="#DejaVuSans-72" x="565.767578"/>
      <use xlink:href="#DejaVuSans-72" x="605.130859"/>
      <use xlink:href="#DejaVuSans-6f" x="643.994141"/>
      <use xlink:href="#DejaVuSans-72" x="705.175781"/>
     </g>
    </g>
    <g id="line2d_32">
     <path d="M 536.371875 88.256563 
L 546.371875 88.256563 
L 556.371875 88.256563 
" style="fill: none; stroke: #008000; stroke-width: 1.5; stroke-linecap: square"/>
    </g>
    <g id="text_20">
     <!-- Kalman Error -->
     <g transform="translate(564.371875 91.756563)scale(0.1 -0.1)">
      <use xlink:href="#DejaVuSans-4b"/>
      <use xlink:href="#DejaVuSans-61" x="63.826172"/>
      <use xlink:href="#DejaVuSans-6c" x="125.105469"/>
      <use xlink:href="#DejaVuSans-6d" x="152.888672"/>
      <use xlink:href="#DejaVuSans-61" x="250.300781"/>
      <use xlink:href="#DejaVuSans-6e" x="311.580078"/>
      <use xlink:href="#DejaVuSans-20" x="374.958984"/>
      <use xlink:href="#DejaVuSans-45" x="406.746094"/>
      <use xlink:href="#DejaVuSans-72" x="469.929688"/>
      <use xlink:href="#DejaVuSans-72" x="509.292969"/>
      <use xlink:href="#DejaVuSans-6f" x="548.15625"/>
      <use xlink:href="#DejaVuSans-72" x="609.337891"/>
     </g>
    </g>
   </g>
  </g>
 </g>
 <defs>
  <clipPath id="p6937b47e1e">
   <rect x="90" y="60.48" width="558" height="388.08"/>
  </clipPath>
 </defs>
</svg>
