<?xml version="1.0" encoding="utf-8" standalone="no"?>
<!DOCTYPE svg PUBLIC "-//W3C//DTD SVG 1.1//EN"
  "http://www.w3.org/Graphics/SVG/1.1/DTD/svg11.dtd">
<svg xmlns:xlink="http://www.w3.org/1999/xlink" width="720pt" height="504pt" viewBox="0 0 720 504" xmlns="http://www.w3.org/2000/svg" version="1.1">
 <metadata>
  <rdf:RDF xmlns:dc="http://purl.org/dc/elements/1.1/" xmlns:cc="http://creativecommons.org/ns#" xmlns:rdf="http://www.w3.org/1999/02/22-rdf-syntax-ns#">
   <cc:Work>
    <dc:type rdf:resource="http://purl.org/dc/dcmitype/StillImage"/>
    <dc:date>2024-02-15T17:06:42.372951</dc:date>
    <dc:format>image/svg+xml</dc:format>
    <dc:creator>
     <cc:Agent>
      <dc:title>Matplotlib v3.5.1, https://matplotlib.org/</dc:title>
     </cc:Agent>
    </dc:creator>
   </cc:Work>
  </rdf:RDF>
 </metadata>
 <defs>
  <style type="text/css">*{stroke-linejoin: round; stroke-linecap: butt}</style>
 </defs>
 <g id="figure_1">
  <g id="patch_1">
   <path d="M 0 504 
L 720 504 
L 720 0 
L 0 0 
z
" style="fill: #ffffff"/>
  </g>
  <g id="patch_2">
   <path d="M 174.96 448.56 
L 563.04 448.56 
L 563.04 60.48 
L 174.96 60.48 
z
" style="fill: #ffffff"/>
  </g>
  <g id="pane3d_1">
   <g id="patch_3">
    <path d="M 469.28228 311.722272 
L 610.574867 411.376013 
L 618.92447 140.508855 
L 472.163932 76.237185 
" style="fill: #f2f2f2; opacity: 0.5; stroke: #f2f2f2; stroke-linejoin: miter"/>
   </g>
  </g>
  <g id="pane3d_2">
   <g id="patch_4">
    <path d="M 469.28228 311.722272 
L 159.6887 344.651347 
L 152.829168 97.405879 
L 472.163932 76.237185 
" style="fill: #e6e6e6; opacity: 0.5; stroke: #e6e6e6; stroke-linejoin: miter"/>
   </g>
  </g>
  <g id="pane3d_3">
   <g id="patch_5">
    <path d="M 469.28228 311.722272 
L 159.6887 344.651347 
L 257.246697 456.027861 
L 610.574867 411.376013 
" style="fill: #ececec; opacity: 0.5; stroke: #ececec; stroke-linejoin: miter"/>
   </g>
  </g>
  <g id="axis3d_1">
   <g id="line2d_1">
    <path d="M 610.574867 411.376013 
L 257.246697 456.027861 
" style="fill: none; stroke: #000000; stroke-width: 0.8; stroke-linecap: square"/>
   </g>
   <g id="text_1">
    <!-- Time (s) -->
    <g transform="translate(436.754141 487.499467)rotate(-7.202573)scale(0.1 -0.1)">
     <defs>
      <path id="DejaVuSans-54" d="M -19 4666 
L 3928 4666 
L 3928 4134 
L 2272 4134 
L 2272 0 
L 1638 0 
L 1638 4134 
L -19 4134 
L -19 4666 
z
" transform="scale(0.015625)"/>
      <path id="DejaVuSans-69" d="M 603 3500 
L 1178 3500 
L 1178 0 
L 603 0 
L 603 3500 
z
M 603 4863 
L 1178 4863 
L 1178 4134 
L 603 4134 
L 603 4863 
z
" transform="scale(0.015625)"/>
      <path id="DejaVuSans-6d" d="M 3328 2828 
Q 3544 3216 3844 3400 
Q 4144 3584 4550 3584 
Q 5097 3584 5394 3201 
Q 5691 2819 5691 2113 
L 5691 0 
L 5113 0 
L 5113 2094 
Q 5113 2597 4934 2840 
Q 4756 3084 4391 3084 
Q 3944 3084 3684 2787 
Q 3425 2491 3425 1978 
L 3425 0 
L 2847 0 
L 2847 2094 
Q 2847 2600 2669 2842 
Q 2491 3084 2119 3084 
Q 1678 3084 1418 2786 
Q 1159 2488 1159 1978 
L 1159 0 
L 581 0 
L 581 3500 
L 1159 3500 
L 1159 2956 
Q 1356 3278 1631 3431 
Q 1906 3584 2284 3584 
Q 2666 3584 2933 3390 
Q 3200 3197 3328 2828 
z
" transform="scale(0.015625)"/>
      <path id="DejaVuSans-65" d="M 3597 1894 
L 3597 1613 
L 953 1613 
Q 991 1019 1311 708 
Q 1631 397 2203 397 
Q 2534 397 2845 478 
Q 3156 559 3463 722 
L 3463 178 
Q 3153 47 2828 -22 
Q 2503 -91 2169 -91 
Q 1331 -91 842 396 
Q 353 884 353 1716 
Q 353 2575 817 3079 
Q 1281 3584 2069 3584 
Q 2775 3584 3186 3129 
Q 3597 2675 3597 1894 
z
M 3022 2063 
Q 3016 2534 2758 2815 
Q 2500 3097 2075 3097 
Q 1594 3097 1305 2825 
Q 1016 2553 972 2059 
L 3022 2063 
z
" transform="scale(0.015625)"/>
      <path id="DejaVuSans-20" transform="scale(0.015625)"/>
      <path id="DejaVuSans-28" d="M 1984 4856 
Q 1566 4138 1362 3434 
Q 1159 2731 1159 2009 
Q 1159 1288 1364 580 
Q 1569 -128 1984 -844 
L 1484 -844 
Q 1016 -109 783 600 
Q 550 1309 550 2009 
Q 550 2706 781 3412 
Q 1013 4119 1484 4856 
L 1984 4856 
z
" transform="scale(0.015625)"/>
      <path id="DejaVuSans-73" d="M 2834 3397 
L 2834 2853 
Q 2591 2978 2328 3040 
Q 2066 3103 1784 3103 
Q 1356 3103 1142 2972 
Q 928 2841 928 2578 
Q 928 2378 1081 2264 
Q 1234 2150 1697 2047 
L 1894 2003 
Q 2506 1872 2764 1633 
Q 3022 1394 3022 966 
Q 3022 478 2636 193 
Q 2250 -91 1575 -91 
Q 1294 -91 989 -36 
Q 684 19 347 128 
L 347 722 
Q 666 556 975 473 
Q 1284 391 1588 391 
Q 1994 391 2212 530 
Q 2431 669 2431 922 
Q 2431 1156 2273 1281 
Q 2116 1406 1581 1522 
L 1381 1569 
Q 847 1681 609 1914 
Q 372 2147 372 2553 
Q 372 3047 722 3315 
Q 1072 3584 1716 3584 
Q 2034 3584 2315 3537 
Q 2597 3491 2834 3397 
z
" transform="scale(0.015625)"/>
      <path id="DejaVuSans-29" d="M 513 4856 
L 1013 4856 
Q 1481 4119 1714 3412 
Q 1947 2706 1947 2009 
Q 1947 1309 1714 600 
Q 1481 -109 1013 -844 
L 513 -844 
Q 928 -128 1133 580 
Q 1338 1288 1338 2009 
Q 1338 2731 1133 3434 
Q 928 4138 513 4856 
z
" transform="scale(0.015625)"/>
     </defs>
     <use xlink:href="#DejaVuSans-54"/>
     <use xlink:href="#DejaVuSans-69" x="57.958984"/>
     <use xlink:href="#DejaVuSans-6d" x="85.742188"/>
     <use xlink:href="#DejaVuSans-65" x="183.154297"/>
     <use xlink:href="#DejaVuSans-20" x="244.677734"/>
     <use xlink:href="#DejaVuSans-28" x="276.464844"/>
     <use xlink:href="#DejaVuSans-73" x="315.478516"/>
     <use xlink:href="#DejaVuSans-29" x="367.578125"/>
    </g>
   </g>
   <g id="Line3DCollection_1">
    <path d="M 577.099664 415.606442 
L 439.725493 314.865999 
L 441.721251 78.255229 
" style="fill: none; stroke: #b0b0b0; stroke-width: 0.8"/>
    <path d="M 508.962088 424.217328 
L 379.710154 321.249366 
L 379.87849 82.354785 
" style="fill: none; stroke: #b0b0b0; stroke-width: 0.8"/>
    <path d="M 439.194278 433.034235 
L 318.461579 327.763903 
L 316.72539 86.541202 
" style="fill: none; stroke: #b0b0b0; stroke-width: 0.8"/>
    <path d="M 367.73702 442.064647 
L 255.94136 334.413696 
L 252.219859 90.817272 
" style="fill: none; stroke: #b0b0b0; stroke-width: 0.8"/>
    <path d="M 294.528196 451.316412 
L 192.10948 341.202999 
L 186.317982 95.185906 
" style="fill: none; stroke: #b0b0b0; stroke-width: 0.8"/>
   </g>
   <g id="xtick_1">
    <g id="line2d_2">
     <path d="M 575.82592 414.672369 
L 579.65699 417.481803 
" style="fill: none; stroke: #000000; stroke-width: 0.8; stroke-linecap: square"/>
    </g>
    <g id="text_2">
     <!-- −1.0 -->
     <g transform="translate(573.695243 444.976684)scale(0.1 -0.1)">
      <defs>
       <path id="DejaVuSans-2212" d="M 678 2272 
L 4684 2272 
L 4684 1741 
L 678 1741 
L 678 2272 
z
" transform="scale(0.015625)"/>
       <path id="DejaVuSans-31" d="M 794 531 
L 1825 531 
L 1825 4091 
L 703 3866 
L 703 4441 
L 1819 4666 
L 2450 4666 
L 2450 531 
L 3481 531 
L 3481 0 
L 794 0 
L 794 531 
z
" transform="scale(0.015625)"/>
       <path id="DejaVuSans-2e" d="M 684 794 
L 1344 794 
L 1344 0 
L 684 0 
L 684 794 
z
" transform="scale(0.015625)"/>
       <path id="DejaVuSans-30" d="M 2034 4250 
Q 1547 4250 1301 3770 
Q 1056 3291 1056 2328 
Q 1056 1369 1301 889 
Q 1547 409 2034 409 
Q 2525 409 2770 889 
Q 3016 1369 3016 2328 
Q 3016 3291 2770 3770 
Q 2525 4250 2034 4250 
z
M 2034 4750 
Q 2819 4750 3233 4129 
Q 3647 3509 3647 2328 
Q 3647 1150 3233 529 
Q 2819 -91 2034 -91 
Q 1250 -91 836 529 
Q 422 1150 422 2328 
Q 422 3509 836 4129 
Q 1250 4750 2034 4750 
z
" transform="scale(0.015625)"/>
      </defs>
      <use xlink:href="#DejaVuSans-2212"/>
      <use xlink:href="#DejaVuSans-31" x="83.789062"/>
      <use xlink:href="#DejaVuSans-2e" x="147.412109"/>
      <use xlink:href="#DejaVuSans-30" x="179.199219"/>
     </g>
    </g>
   </g>
   <g id="xtick_2">
    <g id="line2d_3">
     <path d="M 507.761713 423.261055 
L 511.372219 426.137348 
" style="fill: none; stroke: #000000; stroke-width: 0.8; stroke-linecap: square"/>
    </g>
    <g id="text_3">
     <!-- −0.5 -->
     <g transform="translate(505.163161 453.90983)scale(0.1 -0.1)">
      <defs>
       <path id="DejaVuSans-35" d="M 691 4666 
L 3169 4666 
L 3169 4134 
L 1269 4134 
L 1269 2991 
Q 1406 3038 1543 3061 
Q 1681 3084 1819 3084 
Q 2600 3084 3056 2656 
Q 3513 2228 3513 1497 
Q 3513 744 3044 326 
Q 2575 -91 1722 -91 
Q 1428 -91 1123 -41 
Q 819 9 494 109 
L 494 744 
Q 775 591 1075 516 
Q 1375 441 1709 441 
Q 2250 441 2565 725 
Q 2881 1009 2881 1497 
Q 2881 1984 2565 2268 
Q 2250 2553 1709 2553 
Q 1456 2553 1204 2497 
Q 953 2441 691 2322 
L 691 4666 
z
" transform="scale(0.015625)"/>
      </defs>
      <use xlink:href="#DejaVuSans-2212"/>
      <use xlink:href="#DejaVuSans-30" x="83.789062"/>
      <use xlink:href="#DejaVuSans-2e" x="147.412109"/>
      <use xlink:href="#DejaVuSans-35" x="179.199219"/>
     </g>
    </g>
   </g>
   <g id="xtick_3">
    <g id="line2d_4">
     <path d="M 438.071165 432.054961 
L 441.449386 435.000529 
" style="fill: none; stroke: #000000; stroke-width: 0.8; stroke-linecap: square"/>
    </g>
    <g id="text_4">
     <!-- 0.0 -->
     <g transform="translate(439.169109 463.058289)scale(0.1 -0.1)">
      <use xlink:href="#DejaVuSans-30"/>
      <use xlink:href="#DejaVuSans-2e" x="63.623047"/>
      <use xlink:href="#DejaVuSans-30" x="95.410156"/>
     </g>
    </g>
   </g>
   <g id="xtick_4">
    <g id="line2d_5">
     <path d="M 366.695283 441.061531 
L 369.828832 444.078907 
" style="fill: none; stroke: #000000; stroke-width: 0.8; stroke-linecap: square"/>
    </g>
    <g id="text_5">
     <!-- 0.5 -->
     <g transform="translate(367.272952 472.429942)scale(0.1 -0.1)">
      <use xlink:href="#DejaVuSans-30"/>
      <use xlink:href="#DejaVuSans-2e" x="63.623047"/>
      <use xlink:href="#DejaVuSans-35" x="95.410156"/>
     </g>
    </g>
   </g>
   <g id="xtick_5">
    <g id="line2d_6">
     <path d="M 293.572183 450.288574 
L 296.447968 453.380416 
" style="fill: none; stroke: #000000; stroke-width: 0.8; stroke-linecap: square"/>
    </g>
    <g id="text_6">
     <!-- 1.0 -->
     <g transform="translate(293.601098 482.033057)scale(0.1 -0.1)">
      <use xlink:href="#DejaVuSans-31"/>
      <use xlink:href="#DejaVuSans-2e" x="63.623047"/>
      <use xlink:href="#DejaVuSans-30" x="95.410156"/>
     </g>
    </g>
   </g>
  </g>
  <g id="axis3d_2">
   <g id="line2d_7">
    <path d="M 159.6887 344.651347 
L 257.246697 456.027861 
" style="fill: none; stroke: #000000; stroke-width: 0.8; stroke-linecap: square"/>
   </g>
   <g id="text_7">
    <!-- Position (X) -->
    <g transform="translate(141.317716 413.286557)rotate(-311.216081)scale(0.1 -0.1)">
     <defs>
      <path id="DejaVuSans-50" d="M 1259 4147 
L 1259 2394 
L 2053 2394 
Q 2494 2394 2734 2622 
Q 2975 2850 2975 3272 
Q 2975 3691 2734 3919 
Q 2494 4147 2053 4147 
L 1259 4147 
z
M 628 4666 
L 2053 4666 
Q 2838 4666 3239 4311 
Q 3641 3956 3641 3272 
Q 3641 2581 3239 2228 
Q 2838 1875 2053 1875 
L 1259 1875 
L 1259 0 
L 628 0 
L 628 4666 
z
" transform="scale(0.015625)"/>
      <path id="DejaVuSans-6f" d="M 1959 3097 
Q 1497 3097 1228 2736 
Q 959 2375 959 1747 
Q 959 1119 1226 758 
Q 1494 397 1959 397 
Q 2419 397 2687 759 
Q 2956 1122 2956 1747 
Q 2956 2369 2687 2733 
Q 2419 3097 1959 3097 
z
M 1959 3584 
Q 2709 3584 3137 3096 
Q 3566 2609 3566 1747 
Q 3566 888 3137 398 
Q 2709 -91 1959 -91 
Q 1206 -91 779 398 
Q 353 888 353 1747 
Q 353 2609 779 3096 
Q 1206 3584 1959 3584 
z
" transform="scale(0.015625)"/>
      <path id="DejaVuSans-74" d="M 1172 4494 
L 1172 3500 
L 2356 3500 
L 2356 3053 
L 1172 3053 
L 1172 1153 
Q 1172 725 1289 603 
Q 1406 481 1766 481 
L 2356 481 
L 2356 0 
L 1766 0 
Q 1100 0 847 248 
Q 594 497 594 1153 
L 594 3053 
L 172 3053 
L 172 3500 
L 594 3500 
L 594 4494 
L 1172 4494 
z
" transform="scale(0.015625)"/>
      <path id="DejaVuSans-6e" d="M 3513 2113 
L 3513 0 
L 2938 0 
L 2938 2094 
Q 2938 2591 2744 2837 
Q 2550 3084 2163 3084 
Q 1697 3084 1428 2787 
Q 1159 2491 1159 1978 
L 1159 0 
L 581 0 
L 581 3500 
L 1159 3500 
L 1159 2956 
Q 1366 3272 1645 3428 
Q 1925 3584 2291 3584 
Q 2894 3584 3203 3211 
Q 3513 2838 3513 2113 
z
" transform="scale(0.015625)"/>
      <path id="DejaVuSans-58" d="M 403 4666 
L 1081 4666 
L 2241 2931 
L 3406 4666 
L 4084 4666 
L 2584 2425 
L 4184 0 
L 3506 0 
L 2194 1984 
L 872 0 
L 191 0 
L 1856 2491 
L 403 4666 
z
" transform="scale(0.015625)"/>
     </defs>
     <use xlink:href="#DejaVuSans-50"/>
     <use xlink:href="#DejaVuSans-6f" x="56.677734"/>
     <use xlink:href="#DejaVuSans-73" x="117.859375"/>
     <use xlink:href="#DejaVuSans-69" x="169.958984"/>
     <use xlink:href="#DejaVuSans-74" x="197.742188"/>
     <use xlink:href="#DejaVuSans-69" x="236.951172"/>
     <use xlink:href="#DejaVuSans-6f" x="264.734375"/>
     <use xlink:href="#DejaVuSans-6e" x="325.916016"/>
     <use xlink:href="#DejaVuSans-20" x="389.294922"/>
     <use xlink:href="#DejaVuSans-28" x="421.082031"/>
     <use xlink:href="#DejaVuSans-58" x="460.095703"/>
     <use xlink:href="#DejaVuSans-29" x="528.601562"/>
    </g>
   </g>
   <g id="Line3DCollection_2">
    <path d="M 484.940352 81.832435 
L 481.637253 320.436241 
L 168.153869 354.315557 
" style="fill: none; stroke: #b0b0b0; stroke-width: 0.8"/>
    <path d="M 511.628344 93.520057 
L 507.411211 338.614628 
L 185.853413 374.522137 
" style="fill: none; stroke: #b0b0b0; stroke-width: 0.8"/>
    <path d="M 539.945352 105.921084 
L 534.708674 357.867544 
L 204.658652 395.991028 
" style="fill: none; stroke: #b0b0b0; stroke-width: 0.8"/>
    <path d="M 570.045222 119.10289 
L 563.668838 378.293164 
L 224.676537 418.844329 
" style="fill: none; stroke: #b0b0b0; stroke-width: 0.8"/>
    <path d="M 602.101803 133.14161 
L 594.448388 400.001998 
L 246.02827 443.22041 
" style="fill: none; stroke: #b0b0b0; stroke-width: 0.8"/>
   </g>
   <g id="xtick_6">
    <g id="line2d_8">
     <path d="M 170.794779 354.030144 
L 162.865261 354.887117 
" style="fill: none; stroke: #000000; stroke-width: 0.8; stroke-linecap: square"/>
    </g>
    <g id="text_8">
     <!-- −1.0 -->
     <g transform="translate(137.567888 377.779051)scale(0.1 -0.1)">
      <use xlink:href="#DejaVuSans-2212"/>
      <use xlink:href="#DejaVuSans-31" x="83.789062"/>
      <use xlink:href="#DejaVuSans-2e" x="147.412109"/>
      <use xlink:href="#DejaVuSans-30" x="179.199219"/>
     </g>
    </g>
   </g>
   <g id="xtick_7">
    <g id="line2d_9">
     <path d="M 188.566477 374.219177 
L 180.4201 375.128861 
" style="fill: none; stroke: #000000; stroke-width: 0.8; stroke-linecap: square"/>
    </g>
    <g id="text_9">
     <!-- −0.5 -->
     <g transform="translate(154.730963 398.492961)scale(0.1 -0.1)">
      <use xlink:href="#DejaVuSans-2212"/>
      <use xlink:href="#DejaVuSans-30" x="83.789062"/>
      <use xlink:href="#DejaVuSans-2e" x="147.412109"/>
      <use xlink:href="#DejaVuSans-35" x="179.199219"/>
     </g>
    </g>
   </g>
   <g id="xtick_8">
    <g id="line2d_10">
     <path d="M 207.447873 395.66885 
L 199.072593 396.636264 
" style="fill: none; stroke: #000000; stroke-width: 0.8; stroke-linecap: square"/>
    </g>
    <g id="text_10">
     <!-- 0.0 -->
     <g transform="translate(177.157495 420.502603)scale(0.1 -0.1)">
      <use xlink:href="#DejaVuSans-30"/>
      <use xlink:href="#DejaVuSans-2e" x="63.623047"/>
      <use xlink:href="#DejaVuSans-30" x="95.410156"/>
     </g>
    </g>
   </g>
   <g id="xtick_9">
    <g id="line2d_11">
     <path d="M 227.546254 418.501046 
L 218.929012 419.531863 
" style="fill: none; stroke: #000000; stroke-width: 0.8; stroke-linecap: square"/>
    </g>
    <g id="text_11">
     <!-- 0.5 -->
     <g transform="translate(196.571788 443.933481)scale(0.1 -0.1)">
      <use xlink:href="#DejaVuSans-30"/>
      <use xlink:href="#DejaVuSans-2e" x="63.623047"/>
      <use xlink:href="#DejaVuSans-35" x="95.410156"/>
     </g>
    </g>
   </g>
   <g id="xtick_10">
    <g id="line2d_12">
     <path d="M 248.983198 442.853877 
L 240.109806 443.954543 
" style="fill: none; stroke: #000000; stroke-width: 0.8; stroke-linecap: square"/>
    </g>
    <g id="text_12">
     <!-- 1.0 -->
     <g transform="translate(217.281553 468.92785)scale(0.1 -0.1)">
      <use xlink:href="#DejaVuSans-31"/>
      <use xlink:href="#DejaVuSans-2e" x="63.623047"/>
      <use xlink:href="#DejaVuSans-30" x="95.410156"/>
     </g>
    </g>
   </g>
  </g>
  <g id="axis3d_3">
   <g id="line2d_13">
    <path d="M 159.6887 344.651347 
L 152.829168 97.405879 
" style="fill: none; stroke: #000000; stroke-width: 0.8; stroke-linecap: square"/>
   </g>
   <g id="text_13">
    <!-- Position (Y) -->
    <g transform="translate(101.978427 188.921446)rotate(-271.589196)scale(0.1 -0.1)">
     <defs>
      <path id="DejaVuSans-59" d="M -13 4666 
L 666 4666 
L 1959 2747 
L 3244 4666 
L 3922 4666 
L 2272 2222 
L 2272 0 
L 1638 0 
L 1638 2222 
L -13 4666 
z
" transform="scale(0.015625)"/>
     </defs>
     <use xlink:href="#DejaVuSans-50"/>
     <use xlink:href="#DejaVuSans-6f" x="56.677734"/>
     <use xlink:href="#DejaVuSans-73" x="117.859375"/>
     <use xlink:href="#DejaVuSans-69" x="169.958984"/>
     <use xlink:href="#DejaVuSans-74" x="197.742188"/>
     <use xlink:href="#DejaVuSans-69" x="236.951172"/>
     <use xlink:href="#DejaVuSans-6f" x="264.734375"/>
     <use xlink:href="#DejaVuSans-6e" x="325.916016"/>
     <use xlink:href="#DejaVuSans-20" x="389.294922"/>
     <use xlink:href="#DejaVuSans-28" x="421.082031"/>
     <use xlink:href="#DejaVuSans-59" x="460.095703"/>
     <use xlink:href="#DejaVuSans-29" x="521.179688"/>
    </g>
   </g>
   <g id="Line3DCollection_3">
    <path d="M 159.555677 339.856662 
L 469.33825 307.148479 
L 610.736271 406.139961 
" style="fill: none; stroke: #b0b0b0; stroke-width: 0.8"/>
    <path d="M 158.21632 291.58078 
L 469.901597 261.112496 
L 612.362517 353.383373 
" style="fill: none; stroke: #b0b0b0; stroke-width: 0.8"/>
    <path d="M 156.860147 242.698768 
L 470.471657 214.527818 
L 614.011283 299.896196 
" style="fill: none; stroke: #b0b0b0; stroke-width: 0.8"/>
    <path d="M 155.486838 193.19914 
L 471.048553 167.384577 
L 615.683042 245.663149 
" style="fill: none; stroke: #b0b0b0; stroke-width: 0.8"/>
    <path d="M 154.096068 143.070114 
L 471.632408 119.672667 
L 617.378276 190.668518 
" style="fill: none; stroke: #b0b0b0; stroke-width: 0.8"/>
   </g>
   <g id="xtick_11">
    <g id="line2d_14">
     <path d="M 162.163587 339.581307 
L 154.333248 340.408068 
" style="fill: none; stroke: #000000; stroke-width: 0.8; stroke-linecap: square"/>
    </g>
    <g id="text_14">
     <!-- 0.0 -->
     <g transform="translate(128.422226 344.049429)scale(0.1 -0.1)">
      <use xlink:href="#DejaVuSans-30"/>
      <use xlink:href="#DejaVuSans-2e" x="63.623047"/>
      <use xlink:href="#DejaVuSans-30" x="95.410156"/>
     </g>
    </g>
   </g>
   <g id="xtick_12">
    <g id="line2d_15">
     <path d="M 160.841061 291.324202 
L 152.960144 292.094589 
" style="fill: none; stroke: #000000; stroke-width: 0.8; stroke-linecap: square"/>
    </g>
    <g id="text_15">
     <!-- 0.5 -->
     <g transform="translate(126.946038 296.005884)scale(0.1 -0.1)">
      <use xlink:href="#DejaVuSans-30"/>
      <use xlink:href="#DejaVuSans-2e" x="63.623047"/>
      <use xlink:href="#DejaVuSans-35" x="95.410156"/>
     </g>
    </g>
   </g>
   <g id="xtick_13">
    <g id="line2d_16">
     <path d="M 159.501938 242.461463 
L 151.569785 243.173988 
" style="fill: none; stroke: #000000; stroke-width: 0.8; stroke-linecap: square"/>
    </g>
    <g id="text_16">
     <!-- 1.0 -->
     <g transform="translate(125.451413 247.362312)scale(0.1 -0.1)">
      <use xlink:href="#DejaVuSans-31"/>
      <use xlink:href="#DejaVuSans-2e" x="63.623047"/>
      <use xlink:href="#DejaVuSans-30" x="95.410156"/>
     </g>
    </g>
   </g>
   <g id="xtick_14">
    <g id="line2d_17">
     <path d="M 158.145902 192.981615 
L 150.161844 193.634751 
" style="fill: none; stroke: #000000; stroke-width: 0.8; stroke-linecap: square"/>
    </g>
    <g id="text_17">
     <!-- 1.5 -->
     <g transform="translate(123.938005 198.107404)scale(0.1 -0.1)">
      <use xlink:href="#DejaVuSans-31"/>
      <use xlink:href="#DejaVuSans-2e" x="63.623047"/>
      <use xlink:href="#DejaVuSans-35" x="95.410156"/>
     </g>
    </g>
   </g>
   <g id="xtick_15">
    <g id="line2d_18">
     <path d="M 156.772631 142.872894 
L 148.735985 143.465068 
" style="fill: none; stroke: #000000; stroke-width: 0.8; stroke-linecap: square"/>
    </g>
    <g id="text_18">
     <!-- 2.0 -->
     <g transform="translate(122.405456 148.229562)scale(0.1 -0.1)">
      <defs>
       <path id="DejaVuSans-32" d="M 1228 531 
L 3431 531 
L 3431 0 
L 469 0 
L 469 531 
Q 828 903 1448 1529 
Q 2069 2156 2228 2338 
Q 2531 2678 2651 2914 
Q 2772 3150 2772 3378 
Q 2772 3750 2511 3984 
Q 2250 4219 1831 4219 
Q 1534 4219 1204 4116 
Q 875 4013 500 3803 
L 500 4441 
Q 881 4594 1212 4672 
Q 1544 4750 1819 4750 
Q 2544 4750 2975 4387 
Q 3406 4025 3406 3419 
Q 3406 3131 3298 2873 
Q 3191 2616 2906 2266 
Q 2828 2175 2409 1742 
Q 1991 1309 1228 531 
z
" transform="scale(0.015625)"/>
      </defs>
      <use xlink:href="#DejaVuSans-32"/>
      <use xlink:href="#DejaVuSans-2e" x="63.623047"/>
      <use xlink:href="#DejaVuSans-30" x="95.410156"/>
     </g>
    </g>
   </g>
  </g>
  <g id="axes_1">
   <g id="line2d_19">
    <path d="M 228.463076 240.323602 
L 228.834477 240.082608 
L 229.363533 240.334859 
L 229.591666 239.964322 
L 230.648976 240.281989 
L 231.352213 240.564436 
L 237.837411 244.833765 
L 237.837411 244.833765 
L 241.736744 247.805703 
L 246.305313 251.340629 
L 248.527845 252.650672 
L 249.760168 253.882233 
L 253.476843 256.947528 
L 255.405074 258.477012 
L 257.45155 259.736516 
L 261.7335 262.897265 
L 263.891608 265.038727 
L 267.272648 266.907713 
L 268.376125 268.653659 
L 270.692188 270.544314 
L 274.209224 272.939334 
L 276.696099 276.998909 
L 277.903195 277.19962 
L 280.475493 279.932939 
L 285.634838 282.839799 
L 288.400665 284.634114 
L 289.752925 286.892617 
L 295.408975 289.580291 
L 298.849119 294.329533 
L 302.804941 296.712291 
L 305.825117 300.708773 
L 308.845169 300.951056 
L 313.555464 303.996467 
L 315.141704 308.232811 
L 321.614647 310.750535 
L 324.874563 312.88701 
L 326.536458 316.309114 
L 329.891063 316.485808 
L 333.247547 318.640881 
L 336.623203 320.073482 
L 338.390198 322.150797 
L 343.576136 324.091393 
L 347.073767 325.524882 
L 352.374795 327.460387 
L 354.752861 329.052968 
L 361.278026 332.931712 
L 364.883676 332.959088 
L 370.896117 334.428311 
L 372.084903 335.653368 
L 379.271406 337.793906 
L 386.493345 338.621271 
L 390.091826 340.282012 
L 397.372198 340.647607 
L 402.839798 341.906994 
L 405.271002 342.111903 
L 411.917077 342.430039 
L 413.718405 342.699522 
L 420.955329 343.108526 
L 429.946107 342.362887 
L 440.596297 340.902728 
L 442.269263 339.957771 
L 443.99113 339.738707 
L 449.05888 338.481374 
L 452.346046 337.172817 
L 455.552043 336.627062 
L 457.11501 335.523072 
L 458.697709 334.079748 
L 462.250691 333.407405 
L 463.283847 331.40201 
L 467.613762 330.506753 
L 470.368953 328.588179 
L 473.096499 325.401179 
L 475.743453 323.705691 
L 478.267513 321.556215 
L 484.279338 318.350776 
L 484.300664 316.846852 
L 486.588974 314.598228 
L 490.927609 311.581864 
L 493.012733 307.740469 
L 496.038784 304.795797 
L 496.06673 303.012204 
L 496.06673 303.012204 
L 498.888137 300.071522 
L 500.704097 297.501868 
L 501.639245 295.272856 
L 505.016097 289.955386 
L 507.332357 286.881167 
L 509.461527 282.477623 
L 510.157898 279.834112 
L 510.775158 279.438171 
L 512.541591 276.214716 
L 513.109497 273.875347 
L 516.99699 263.460951 
L 517.554667 260.587511 
L 518.701752 257.134891 
L 519.04464 253.039882 
L 519.322101 252.397489 
L 519.824325 247.659115 
L 520.13621 242.647842 
L 520.11121 241.358259 
L 519.263752 233.159855 
L 518.307934 228.99268 
L 518.307934 228.99268 
L 518.328306 227.882724 
L 518.001266 227.537764 
L 517.358585 225.917254 
L 516.646713 224.454569 
L 515.456509 222.765999 
L 514.126046 221.212592 
L 513.679785 220.125424 
L 512.407381 219.026901 
L 511.508768 218.529072 
L 510.913293 217.912031 
L 509.807044 217.114536 
L 507.229473 215.909959 
L 507.229384 215.915226 
L 505.213415 215.153637 
L 503.002997 214.508529 
L 500.694286 214.182917 
L 499.856456 214.361778 
L 497.357046 213.597424 
L 494.93265 213.966722 
L 492.757465 214.444598 
L 491.793358 214.211749 
L 490.812642 215.012659 
L 489.831232 214.778675 
L 488.827931 215.507205 
L 483.598746 215.375749 
L 483.587262 216.201457 
L 482.47577 217.211937 
L 478.026613 217.55105 
L 475.78344 218.335552 
L 475.767106 219.599884 
L 471.161499 221.479135 
L 464.014765 222.915326 
L 461.599644 223.93355 
L 456.718031 225.082275 
L 455.436686 227.602656 
L 451.682541 229.25675 
L 450.434265 231.003422 
L 445.26144 234.023731 
L 440.080046 236.78758 
L 437.461323 238.623679 
L 435.272018 240.368982 
L 433.432428 240.242726 
L 432.080067 241.831891 
L 428.938274 243.564679 
L 422.586519 245.04445 
L 422.564023 248.689572 
L 421.161159 248.617025 
L 416.943779 250.216232 
L 415.486354 251.907361 
L 412.585498 253.502747 
L 408.147991 255.026005 
L 403.584577 256.342204 
L 398.921403 259.47748 
L 395.682055 260.737163 
L 393.523016 262.19734 
L 387.384511 264.356342 
L 387.384511 264.356342 
L 383.963166 265.766069 
L 377.086718 268.071901 
L 373.603351 269.123561 
L 366.631724 270.837634 
L 366.631724 270.837634 
L 363.152499 271.952269 
L 359.087047 272.957085 
L 352.282417 274.006039 
L 351.143737 275.356899 
L 347.749599 275.536494 
L 344.463941 276.719278 
L 341.12758 277.226299 
L 337.842735 277.467088 
L 336.206806 277.940192 
L 332.949684 278.424494 
L 322.773673 279.592053 
L 318.525515 279.939415 
L 312.229696 280.333549 
L 312.226763 279.964767 
L 302.98389 280.109252 
L 299.958971 279.22116 
L 298.969852 279.389961 
L 294.01604 279.5951 
L 292.027249 279.052597 
L 285.423624 279.4727 
L 284.896958 277.523124 
L 279.897267 277.882728 
L 279.880273 276.47773 
L 277.259342 277.096496 
L 274.617001 276.434159 
L 268.314172 276.70966 
L 261.260826 274.416539 
L 261.1896 269.496966 
L 255.707431 269.508455 
L 252.613147 267.377497 
L 251.606401 267.735659 
L 250.594729 266.027913 
L 248.66281 264.804095 
L 247.705677 263.302687 
L 245.882554 262.195989 
L 240.745716 260.776844 
L 239.235031 260.052267 
L 234.799003 256.832541 
L 232.636031 254.802901 
L 231.095622 252.828334 
L 228.722559 253.422594 
L 227.85004 251.626567 
L 227.288952 247.433968 
L 226.773907 247.112085 
L 226.574723 246.448896 
L 226.377741 244.61025 
L 226.423604 244.985303 
L 226.839573 244.379825 
L 226.839573 244.379825 
" clip-path="url(#p77366f606f)" style="fill: none; stroke-dasharray: 12.8,3.2,2,3.2; stroke-dashoffset: 0; stroke: #ff0000; stroke-width: 2"/>
   </g>
   <g id="line2d_20">
    <path d="M 232.210131 242.933288 
L 233.508946 242.72706 
L 234.812102 242.296607 
L 236.196482 243.804591 
L 239.350794 244.059736 
L 240.080789 243.452873 
L 234.2967 243.98625 
L 235.381938 244.343274 
L 242.735659 243.972522 
L 241.792862 244.988167 
L 239.156494 244.449717 
L 246.407278 246.330606 
L 246.04925 246.058226 
L 246.04925 246.058226 
L 245.295291 246.880203 
L 247.153854 248.65555 
L 246.386313 250.380432 
L 253.146426 251.321693 
L 248.92336 251.348571 
L 251.778941 253.416745 
L 255.732036 255.499554 
L 260.277916 257.012765 
L 264.029433 260.665918 
L 264.893837 261.980774 
L 266.259582 263.171855 
L 271.703617 263.630463 
L 271.42705 264.478838 
L 270.462263 266.742798 
L 278.274026 268.193402 
L 278.472822 269.969818 
L 280.205911 272.084666 
L 281.2227 272.36752 
L 284.871189 275.052404 
L 297.812751 279.524673 
L 297.812751 279.524673 
L 297.319696 282.604682 
L 298.258709 284.619923 
L 303.819598 285.611224 
L 303.846581 288.945299 
L 302.860785 291.020257 
L 306.49101 296.01032 
L 305.151813 297.217718 
L 320.058064 311.410534 
L 331.12428 314.156656 
L 329.143603 315.453507 
L 332.758045 318.908772 
L 332.758045 318.908772 
L 337.117273 322.133036 
L 340.528941 322.004011 
L 346.134439 325.540925 
L 353.019736 327.099301 
L 352.082444 327.456649 
L 352.799212 330.535694 
L 355.827445 330.918138 
L 365.916972 334.933023 
L 374.310812 335.418868 
L 374.310812 335.418868 
L 383.419372 337.779479 
L 377.888989 339.111207 
L 380.578043 339.927385 
L 384.877096 340.73355 
L 383.373217 342.916121 
L 391.337596 344.130921 
L 399.053535 343.001297 
L 411.764684 343.188672 
L 410.410878 344.56796 
L 411.362319 344.946497 
L 413.884366 346.171963 
L 423.502002 346.6503 
L 426.514274 346.596775 
L 426.514274 346.596775 
L 437.982636 345.136449 
L 445.482223 344.989339 
L 447.236404 342.90461 
L 447.236404 342.90461 
L 441.583287 341.776187 
L 441.401777 335.758688 
L 441.401777 335.758688 
L 452.855598 335.431524 
L 453.810307 333.945309 
L 453.810307 333.945309 
L 462.624674 330.134718 
L 462.624674 330.134718 
L 468.898262 330.604691 
L 473.655939 327.084476 
L 478.508955 324.825654 
L 484.687795 324.367518 
L 484.382049 323.378241 
L 482.980951 320.620347 
L 485.34775 319.274228 
L 486.155003 316.580493 
L 478.128813 313.828907 
L 486.793865 310.543172 
L 491.801191 306.182765 
L 494.751848 303.172436 
L 494.751848 303.172436 
L 497.833476 301.60145 
L 502.351378 296.305062 
L 507.567234 293.580829 
L 508.671107 290.42423 
L 505.722978 288.423735 
L 509.928175 286.506217 
L 513.025845 280.94064 
L 515.581822 278.47467 
L 515.581822 278.47467 
L 512.943107 276.086658 
L 512.351548 273.193812 
L 514.381534 270.096471 
L 514.245642 267.144917 
L 513.006544 265.234301 
L 520.014732 263.495173 
L 522.846837 260.13276 
L 525.374871 256.485541 
L 520.316753 251.684899 
L 520.316753 251.684899 
L 523.476561 247.932058 
L 522.344825 245.505831 
L 523.405996 243.740494 
L 524.124256 242.217508 
L 523.415405 240.431109 
L 525.214334 237.482989 
L 514.975105 230.855689 
L 515.96702 228.364831 
L 520.732136 225.887849 
L 515.955498 225.018211 
L 515.955498 225.018211 
L 518.095169 223.745424 
L 519.843936 223.312013 
L 514.733363 221.69159 
L 514.925216 220.163642 
L 510.229318 219.130845 
L 514.090066 217.425283 
L 514.090066 217.425283 
L 507.554072 217.364381 
L 507.974793 216.481504 
L 500.2556 214.547937 
L 496.298576 214.788032 
L 499.638444 214.154046 
L 494.727106 213.558207 
L 492.411938 214.63436 
L 488.920426 214.345284 
L 488.920426 214.345284 
L 483.268691 213.342981 
L 485.278325 213.242648 
L 485.278325 213.242648 
L 479.913939 213.185451 
L 479.913939 213.185451 
L 475.822594 213.322453 
L 468.924088 214.063302 
L 472.772415 213.87153 
L 472.420748 214.050051 
L 466.811318 214.938662 
L 460.451064 216.081231 
L 461.314591 216.598506 
L 461.413112 217.856473 
L 463.994229 218.154796 
L 461.890869 220.664715 
L 459.501751 222.146479 
L 458.0441 223.767755 
L 454.159335 226.214994 
L 450.65773 228.082085 
L 439.561486 230.890778 
L 440.132218 232.802372 
L 435.015099 236.089379 
L 431.954302 238.323225 
L 427.07514 240.170209 
L 427.07514 240.170209 
L 428.032301 242.056268 
L 425.60337 243.062911 
L 416.47349 243.555264 
L 409.997383 247.652567 
L 409.997383 247.652567 
L 406.887857 248.242522 
L 407.251582 248.426811 
L 401.420445 250.735154 
L 399.376906 252.87196 
L 391.06143 254.50842 
L 382.916192 259.143108 
L 379.762597 260.589917 
L 382.791374 261.649524 
L 369.837876 263.516831 
L 369.837876 263.516831 
L 368.103196 264.234364 
L 366.650185 264.466502 
L 365.81361 265.204208 
L 360.660813 266.07259 
L 355.133946 266.850948 
L 355.133946 266.850948 
L 350.281654 267.957383 
L 351.966865 268.31695 
L 349.372946 270.555636 
L 350.806497 272.43798 
L 350.806497 272.43798 
L 348.637694 273.366172 
L 340.281873 272.596582 
L 340.281873 272.596582 
L 334.096135 273.318749 
L 332.668822 273.815039 
L 329.546249 275.503169 
L 320.551004 276.554031 
L 308.369297 277.338959 
L 301.354568 277.402664 
L 300.563309 277.688753 
L 303.280875 278.331273 
L 296.371187 277.846642 
L 296.371187 277.846642 
L 292.791232 276.707645 
L 286.756416 275.020999 
L 285.880511 273.202066 
L 288.260519 273.796465 
L 285.461798 274.309508 
L 275.939602 272.727872 
L 275.939602 272.727872 
L 276.548084 272.541363 
L 273.859513 270.899502 
L 265.560625 267.068588 
L 257.649108 267.245081 
L 254.521307 265.93938 
L 251.2647 266.734301 
L 251.2647 266.734301 
L 252.714808 264.263302 
L 255.084707 263.168377 
L 251.922584 262.03545 
L 248.855072 260.08607 
L 241.342146 258.264065 
L 240.152075 256.184073 
L 239.748661 253.484326 
L 237.427438 252.598506 
L 242.382712 252.877343 
L 238.463751 252.084277 
L 235.270813 251.003514 
L 230.242815 250.845468 
L 227.920102 251.487701 
L 226.457248 249.126901 
L 228.434525 248.140315 
L 225.530842 247.00263 
L 227.555965 246.154378 
L 227.783796 243.601026 
L 224.777071 243.489425 
L 224.777071 243.489425 
L 222.034536 244.048811 
L 222.034536 244.048811 
" clip-path="url(#p77366f606f)" style="fill: none; stroke: #008000; stroke-width: 1.5; stroke-linecap: square"/>
   </g>
   <g id="line2d_21">
    <path d="M 236.296778 230.221246 
L 239.589558 233.137496 
L 243.523709 236.972176 
L 249.220529 242.873789 
L 257.673893 251.981567 
L 279.10202 275.263182 
L 290.355292 287.076666 
L 299.275619 296.087812 
L 306.354058 302.972051 
L 315.041441 311.058086 
L 322.483354 317.636308 
L 329.844723 323.800864 
L 340.191431 331.845118 
L 347.196723 336.85182 
L 354.919645 341.933489 
L 361.193855 345.706576 
L 368.893724 349.879463 
L 374.910447 352.773125 
L 381.659091 355.617772 
L 385.226349 356.943781 
L 389.896839 358.487818 
L 393.065498 359.408119 
L 397.21329 360.453025 
L 404.306144 361.805717 
L 406.64571 362.127802 
L 410.459979 362.516594 
L 414.51016 362.73967 
L 417.231654 362.776759 
L 420.817317 362.683376 
L 424.588414 362.405825 
L 428.333538 361.942478 
L 435.763539 360.444633 
L 438.443273 359.707381 
L 443.354494 358.071408 
L 448.079932 356.13407 
L 450.788236 354.855599 
L 456.117275 351.963599 
L 457.73502 350.982767 
L 464.409893 346.396 
L 468.669465 342.984671 
L 474.502068 337.640393 
L 476.546535 335.568068 
L 482.22907 329.208888 
L 485.262172 325.419827 
L 488.767828 320.656086 
L 492.692843 314.772564 
L 495.857201 309.543518 
L 499.315196 303.244564 
L 503.10447 295.483737 
L 506.219194 288.237712 
L 509.443648 279.588901 
L 511.528441 273.091461 
L 513.302591 266.691249 
L 514.798439 260.274491 
L 515.489122 256.783566 
L 516.649774 249.369279 
L 517.206161 244.012301 
L 517.468765 239.468702 
L 517.522975 236.775888 
L 517.338712 230.918049 
L 516.911167 226.784331 
L 515.948255 221.711111 
L 515.482094 219.989066 
L 514.323948 216.676902 
L 512.492701 213.012633 
L 511.50506 211.518392 
L 508.872007 208.562403 
L 506.529918 206.794018 
L 505.046535 205.972987 
L 503.655672 205.371865 
L 502.182928 204.88709 
L 500.659405 204.527657 
L 498.810425 204.259229 
L 496.560053 204.145499 
L 493.448681 204.310834 
L 490.031994 204.847297 
L 486.14993 205.822425 
L 481.197014 207.517975 
L 475.771838 209.831627 
L 473.363517 210.982749 
L 466.227688 214.747532 
L 460.367227 218.150124 
L 452.431073 223.071708 
L 441.599309 230.148672 
L 413.8852 248.550258 
L 408.369985 252.063724 
L 399.969136 257.223795 
L 392.307997 261.682608 
L 385.858997 265.220931 
L 380.119434 268.184058 
L 373.804163 271.222133 
L 367.194382 274.130866 
L 360.305951 276.843217 
L 352.119735 279.609469 
L 345.266893 281.515709 
L 339.941588 282.723524 
L 333.157169 283.897296 
L 327.186206 284.575718 
L 321.245902 284.905523 
L 318.724963 284.937755 
L 313.169528 284.774521 
L 308.915653 284.42526 
L 304.177216 283.799277 
L 298.92405 282.803466 
L 293.702247 281.487381 
L 287.499808 279.483707 
L 281.83543 277.216953 
L 279.361531 276.090776 
L 276.156115 274.504211 
L 272.126261 272.299018 
L 267.294163 269.332001 
L 265.02407 267.811112 
L 261.140473 265.011459 
L 257.422571 262.085003 
L 252.682432 257.9766 
L 248.019439 253.476668 
L 245.245101 250.554193 
L 240.659467 245.241841 
L 237.503179 241.138312 
L 234.729435 237.080884 
L 232.674144 233.582336 
L 231.546062 231.226545 
L 230.913728 229.327184 
L 230.807065 228.437325 
L 230.989353 227.746598 
L 231.532187 227.468009 
L 232.464428 227.661678 
L 234.267923 228.678432 
L 235.986294 229.968418 
L 235.986294 229.968418 
" clip-path="url(#p77366f606f)" style="fill: none; stroke-dasharray: 5.55,2.4; stroke-dashoffset: 0; stroke: #0000ff; stroke-width: 1.5"/>
   </g>
   <g id="legend_1">
    <g id="patch_6">
     <path d="M 476.960312 112.514375 
L 556.04 112.514375 
Q 558.04 112.514375 558.04 110.514375 
L 558.04 67.48 
Q 558.04 65.48 556.04 65.48 
L 476.960312 65.48 
Q 474.960312 65.48 474.960312 67.48 
L 474.960312 110.514375 
Q 474.960312 112.514375 476.960312 112.514375 
z
" style="fill: #ffffff; opacity: 0.8; stroke: #cccccc; stroke-linejoin: miter"/>
    </g>
    <g id="line2d_22">
     <path d="M 478.960312 73.578438 
L 488.960312 73.578438 
L 498.960312 73.578438 
" style="fill: none; stroke-dasharray: 12.8,3.2,2,3.2; stroke-dashoffset: 0; stroke: #ff0000; stroke-width: 2"/>
    </g>
    <g id="text_19">
     <!-- OptiTrack -->
     <g transform="translate(506.960312 77.078438)scale(0.1 -0.1)">
      <defs>
       <path id="DejaVuSans-4f" d="M 2522 4238 
Q 1834 4238 1429 3725 
Q 1025 3213 1025 2328 
Q 1025 1447 1429 934 
Q 1834 422 2522 422 
Q 3209 422 3611 934 
Q 4013 1447 4013 2328 
Q 4013 3213 3611 3725 
Q 3209 4238 2522 4238 
z
M 2522 4750 
Q 3503 4750 4090 4092 
Q 4678 3434 4678 2328 
Q 4678 1225 4090 567 
Q 3503 -91 2522 -91 
Q 1538 -91 948 565 
Q 359 1222 359 2328 
Q 359 3434 948 4092 
Q 1538 4750 2522 4750 
z
" transform="scale(0.015625)"/>
       <path id="DejaVuSans-70" d="M 1159 525 
L 1159 -1331 
L 581 -1331 
L 581 3500 
L 1159 3500 
L 1159 2969 
Q 1341 3281 1617 3432 
Q 1894 3584 2278 3584 
Q 2916 3584 3314 3078 
Q 3713 2572 3713 1747 
Q 3713 922 3314 415 
Q 2916 -91 2278 -91 
Q 1894 -91 1617 61 
Q 1341 213 1159 525 
z
M 3116 1747 
Q 3116 2381 2855 2742 
Q 2594 3103 2138 3103 
Q 1681 3103 1420 2742 
Q 1159 2381 1159 1747 
Q 1159 1113 1420 752 
Q 1681 391 2138 391 
Q 2594 391 2855 752 
Q 3116 1113 3116 1747 
z
" transform="scale(0.015625)"/>
       <path id="DejaVuSans-72" d="M 2631 2963 
Q 2534 3019 2420 3045 
Q 2306 3072 2169 3072 
Q 1681 3072 1420 2755 
Q 1159 2438 1159 1844 
L 1159 0 
L 581 0 
L 581 3500 
L 1159 3500 
L 1159 2956 
Q 1341 3275 1631 3429 
Q 1922 3584 2338 3584 
Q 2397 3584 2469 3576 
Q 2541 3569 2628 3553 
L 2631 2963 
z
" transform="scale(0.015625)"/>
       <path id="DejaVuSans-61" d="M 2194 1759 
Q 1497 1759 1228 1600 
Q 959 1441 959 1056 
Q 959 750 1161 570 
Q 1363 391 1709 391 
Q 2188 391 2477 730 
Q 2766 1069 2766 1631 
L 2766 1759 
L 2194 1759 
z
M 3341 1997 
L 3341 0 
L 2766 0 
L 2766 531 
Q 2569 213 2275 61 
Q 1981 -91 1556 -91 
Q 1019 -91 701 211 
Q 384 513 384 1019 
Q 384 1609 779 1909 
Q 1175 2209 1959 2209 
L 2766 2209 
L 2766 2266 
Q 2766 2663 2505 2880 
Q 2244 3097 1772 3097 
Q 1472 3097 1187 3025 
Q 903 2953 641 2809 
L 641 3341 
Q 956 3463 1253 3523 
Q 1550 3584 1831 3584 
Q 2591 3584 2966 3190 
Q 3341 2797 3341 1997 
z
" transform="scale(0.015625)"/>
       <path id="DejaVuSans-63" d="M 3122 3366 
L 3122 2828 
Q 2878 2963 2633 3030 
Q 2388 3097 2138 3097 
Q 1578 3097 1268 2742 
Q 959 2388 959 1747 
Q 959 1106 1268 751 
Q 1578 397 2138 397 
Q 2388 397 2633 464 
Q 2878 531 3122 666 
L 3122 134 
Q 2881 22 2623 -34 
Q 2366 -91 2075 -91 
Q 1284 -91 818 406 
Q 353 903 353 1747 
Q 353 2603 823 3093 
Q 1294 3584 2113 3584 
Q 2378 3584 2631 3529 
Q 2884 3475 3122 3366 
z
" transform="scale(0.015625)"/>
       <path id="DejaVuSans-6b" d="M 581 4863 
L 1159 4863 
L 1159 1991 
L 2875 3500 
L 3609 3500 
L 1753 1863 
L 3688 0 
L 2938 0 
L 1159 1709 
L 1159 0 
L 581 0 
L 581 4863 
z
" transform="scale(0.015625)"/>
      </defs>
      <use xlink:href="#DejaVuSans-4f"/>
      <use xlink:href="#DejaVuSans-70" x="78.710938"/>
      <use xlink:href="#DejaVuSans-74" x="142.1875"/>
      <use xlink:href="#DejaVuSans-69" x="181.396484"/>
      <use xlink:href="#DejaVuSans-54" x="209.179688"/>
      <use xlink:href="#DejaVuSans-72" x="255.513672"/>
      <use xlink:href="#DejaVuSans-61" x="296.626953"/>
      <use xlink:href="#DejaVuSans-63" x="357.90625"/>
      <use xlink:href="#DejaVuSans-6b" x="412.886719"/>
     </g>
    </g>
    <g id="line2d_23">
     <path d="M 478.960312 88.256563 
L 488.960312 88.256563 
L 498.960312 88.256563 
" style="fill: none; stroke: #008000; stroke-width: 1.5; stroke-linecap: square"/>
    </g>
    <g id="text_20">
     <!-- Kalman -->
     <g transform="translate(506.960312 91.756563)scale(0.1 -0.1)">
      <defs>
       <path id="DejaVuSans-4b" d="M 628 4666 
L 1259 4666 
L 1259 2694 
L 3353 4666 
L 4166 4666 
L 1850 2491 
L 4331 0 
L 3500 0 
L 1259 2247 
L 1259 0 
L 628 0 
L 628 4666 
z
" transform="scale(0.015625)"/>
       <path id="DejaVuSans-6c" d="M 603 4863 
L 1178 4863 
L 1178 0 
L 603 0 
L 603 4863 
z
" transform="scale(0.015625)"/>
      </defs>
      <use xlink:href="#DejaVuSans-4b"/>
      <use xlink:href="#DejaVuSans-61" x="63.826172"/>
      <use xlink:href="#DejaVuSans-6c" x="125.105469"/>
      <use xlink:href="#DejaVuSans-6d" x="152.888672"/>
      <use xlink:href="#DejaVuSans-61" x="250.300781"/>
      <use xlink:href="#DejaVuSans-6e" x="311.580078"/>
     </g>
    </g>
    <g id="line2d_24">
     <path d="M 478.960312 102.934687 
L 488.960312 102.934687 
L 498.960312 102.934687 
" style="fill: none; stroke-dasharray: 5.55,2.4; stroke-dashoffset: 0; stroke: #0000ff; stroke-width: 1.5"/>
    </g>
    <g id="text_21">
     <!-- Desired -->
     <g transform="translate(506.960312 106.434687)scale(0.1 -0.1)">
      <defs>
       <path id="DejaVuSans-44" d="M 1259 4147 
L 1259 519 
L 2022 519 
Q 2988 519 3436 956 
Q 3884 1394 3884 2338 
Q 3884 3275 3436 3711 
Q 2988 4147 2022 4147 
L 1259 4147 
z
M 628 4666 
L 1925 4666 
Q 3281 4666 3915 4102 
Q 4550 3538 4550 2338 
Q 4550 1131 3912 565 
Q 3275 0 1925 0 
L 628 0 
L 628 4666 
z
" transform="scale(0.015625)"/>
       <path id="DejaVuSans-64" d="M 2906 2969 
L 2906 4863 
L 3481 4863 
L 3481 0 
L 2906 0 
L 2906 525 
Q 2725 213 2448 61 
Q 2172 -91 1784 -91 
Q 1150 -91 751 415 
Q 353 922 353 1747 
Q 353 2572 751 3078 
Q 1150 3584 1784 3584 
Q 2172 3584 2448 3432 
Q 2725 3281 2906 2969 
z
M 947 1747 
Q 947 1113 1208 752 
Q 1469 391 1925 391 
Q 2381 391 2643 752 
Q 2906 1113 2906 1747 
Q 2906 2381 2643 2742 
Q 2381 3103 1925 3103 
Q 1469 3103 1208 2742 
Q 947 2381 947 1747 
z
" transform="scale(0.015625)"/>
      </defs>
      <use xlink:href="#DejaVuSans-44"/>
      <use xlink:href="#DejaVuSans-65" x="77.001953"/>
      <use xlink:href="#DejaVuSans-73" x="138.525391"/>
      <use xlink:href="#DejaVuSans-69" x="190.625"/>
      <use xlink:href="#DejaVuSans-72" x="218.408203"/>
      <use xlink:href="#DejaVuSans-65" x="257.271484"/>
      <use xlink:href="#DejaVuSans-64" x="318.794922"/>
     </g>
    </g>
   </g>
  </g>
 </g>
 <defs>
  <clipPath id="p77366f606f">
   <rect x="174.96" y="60.48" width="388.08" height="388.08"/>
  </clipPath>
 </defs>
</svg>
