<?xml version="1.0" encoding="utf-8" standalone="no"?>
<!DOCTYPE svg PUBLIC "-//W3C//DTD SVG 1.1//EN"
  "http://www.w3.org/Graphics/SVG/1.1/DTD/svg11.dtd">
<svg xmlns:xlink="http://www.w3.org/1999/xlink" width="720pt" height="504pt" viewBox="0 0 720 504" xmlns="http://www.w3.org/2000/svg" version="1.1">
 <metadata>
  <rdf:RDF xmlns:dc="http://purl.org/dc/elements/1.1/" xmlns:cc="http://creativecommons.org/ns#" xmlns:rdf="http://www.w3.org/1999/02/22-rdf-syntax-ns#">
   <cc:Work>
    <dc:type rdf:resource="http://purl.org/dc/dcmitype/StillImage"/>
    <dc:date>2024-02-15T17:06:42.076644</dc:date>
    <dc:format>image/svg+xml</dc:format>
    <dc:creator>
     <cc:Agent>
      <dc:title>Matplotlib v3.5.1, https://matplotlib.org/</dc:title>
     </cc:Agent>
    </dc:creator>
   </cc:Work>
  </rdf:RDF>
 </metadata>
 <defs>
  <style type="text/css">*{stroke-linejoin: round; stroke-linecap: butt}</style>
 </defs>
 <g id="figure_1">
  <g id="patch_1">
   <path d="M 0 504 
L 720 504 
L 720 0 
L 0 0 
z
" style="fill: #ffffff"/>
  </g>
  <g id="patch_2">
   <path d="M 174.96 448.56 
L 563.04 448.56 
L 563.04 60.48 
L 174.96 60.48 
z
" style="fill: #ffffff"/>
  </g>
  <g id="pane3d_1">
   <g id="patch_3">
    <path d="M 469.28228 311.722272 
L 610.574867 411.376013 
L 618.92447 140.508855 
L 472.163932 76.237185 
" style="fill: #f2f2f2; opacity: 0.5; stroke: #f2f2f2; stroke-linejoin: miter"/>
   </g>
  </g>
  <g id="pane3d_2">
   <g id="patch_4">
    <path d="M 469.28228 311.722272 
L 159.6887 344.651347 
L 152.829168 97.405879 
L 472.163932 76.237185 
" style="fill: #e6e6e6; opacity: 0.5; stroke: #e6e6e6; stroke-linejoin: miter"/>
   </g>
  </g>
  <g id="pane3d_3">
   <g id="patch_5">
    <path d="M 469.28228 311.722272 
L 159.6887 344.651347 
L 257.246697 456.027861 
L 610.574867 411.376013 
" style="fill: #ececec; opacity: 0.5; stroke: #ececec; stroke-linejoin: miter"/>
   </g>
  </g>
  <g id="axis3d_1">
   <g id="line2d_1">
    <path d="M 610.574867 411.376013 
L 257.246697 456.027861 
" style="fill: none; stroke: #000000; stroke-width: 0.8; stroke-linecap: square"/>
   </g>
   <g id="text_1">
    <!-- Time (s) -->
    <g transform="translate(436.754141 487.499467)rotate(-7.202573)scale(0.1 -0.1)">
     <defs>
      <path id="DejaVuSans-54" d="M -19 4666 
L 3928 4666 
L 3928 4134 
L 2272 4134 
L 2272 0 
L 1638 0 
L 1638 4134 
L -19 4134 
L -19 4666 
z
" transform="scale(0.015625)"/>
      <path id="DejaVuSans-69" d="M 603 3500 
L 1178 3500 
L 1178 0 
L 603 0 
L 603 3500 
z
M 603 4863 
L 1178 4863 
L 1178 4134 
L 603 4134 
L 603 4863 
z
" transform="scale(0.015625)"/>
      <path id="DejaVuSans-6d" d="M 3328 2828 
Q 3544 3216 3844 3400 
Q 4144 3584 4550 3584 
Q 5097 3584 5394 3201 
Q 5691 2819 5691 2113 
L 5691 0 
L 5113 0 
L 5113 2094 
Q 5113 2597 4934 2840 
Q 4756 3084 4391 3084 
Q 3944 3084 3684 2787 
Q 3425 2491 3425 1978 
L 3425 0 
L 2847 0 
L 2847 2094 
Q 2847 2600 2669 2842 
Q 2491 3084 2119 3084 
Q 1678 3084 1418 2786 
Q 1159 2488 1159 1978 
L 1159 0 
L 581 0 
L 581 3500 
L 1159 3500 
L 1159 2956 
Q 1356 3278 1631 3431 
Q 1906 3584 2284 3584 
Q 2666 3584 2933 3390 
Q 3200 3197 3328 2828 
z
" transform="scale(0.015625)"/>
      <path id="DejaVuSans-65" d="M 3597 1894 
L 3597 1613 
L 953 1613 
Q 991 1019 1311 708 
Q 1631 397 2203 397 
Q 2534 397 2845 478 
Q 3156 559 3463 722 
L 3463 178 
Q 3153 47 2828 -22 
Q 2503 -91 2169 -91 
Q 1331 -91 842 396 
Q 353 884 353 1716 
Q 353 2575 817 3079 
Q 1281 3584 2069 3584 
Q 2775 3584 3186 3129 
Q 3597 2675 3597 1894 
z
M 3022 2063 
Q 3016 2534 2758 2815 
Q 2500 3097 2075 3097 
Q 1594 3097 1305 2825 
Q 1016 2553 972 2059 
L 3022 2063 
z
" transform="scale(0.015625)"/>
      <path id="DejaVuSans-20" transform="scale(0.015625)"/>
      <path id="DejaVuSans-28" d="M 1984 4856 
Q 1566 4138 1362 3434 
Q 1159 2731 1159 2009 
Q 1159 1288 1364 580 
Q 1569 -128 1984 -844 
L 1484 -844 
Q 1016 -109 783 600 
Q 550 1309 550 2009 
Q 550 2706 781 3412 
Q 1013 4119 1484 4856 
L 1984 4856 
z
" transform="scale(0.015625)"/>
      <path id="DejaVuSans-73" d="M 2834 3397 
L 2834 2853 
Q 2591 2978 2328 3040 
Q 2066 3103 1784 3103 
Q 1356 3103 1142 2972 
Q 928 2841 928 2578 
Q 928 2378 1081 2264 
Q 1234 2150 1697 2047 
L 1894 2003 
Q 2506 1872 2764 1633 
Q 3022 1394 3022 966 
Q 3022 478 2636 193 
Q 2250 -91 1575 -91 
Q 1294 -91 989 -36 
Q 684 19 347 128 
L 347 722 
Q 666 556 975 473 
Q 1284 391 1588 391 
Q 1994 391 2212 530 
Q 2431 669 2431 922 
Q 2431 1156 2273 1281 
Q 2116 1406 1581 1522 
L 1381 1569 
Q 847 1681 609 1914 
Q 372 2147 372 2553 
Q 372 3047 722 3315 
Q 1072 3584 1716 3584 
Q 2034 3584 2315 3537 
Q 2597 3491 2834 3397 
z
" transform="scale(0.015625)"/>
      <path id="DejaVuSans-29" d="M 513 4856 
L 1013 4856 
Q 1481 4119 1714 3412 
Q 1947 2706 1947 2009 
Q 1947 1309 1714 600 
Q 1481 -109 1013 -844 
L 513 -844 
Q 928 -128 1133 580 
Q 1338 1288 1338 2009 
Q 1338 2731 1133 3434 
Q 928 4138 513 4856 
z
" transform="scale(0.015625)"/>
     </defs>
     <use xlink:href="#DejaVuSans-54"/>
     <use xlink:href="#DejaVuSans-69" x="57.958984"/>
     <use xlink:href="#DejaVuSans-6d" x="85.742188"/>
     <use xlink:href="#DejaVuSans-65" x="183.154297"/>
     <use xlink:href="#DejaVuSans-20" x="244.677734"/>
     <use xlink:href="#DejaVuSans-28" x="276.464844"/>
     <use xlink:href="#DejaVuSans-73" x="315.478516"/>
     <use xlink:href="#DejaVuSans-29" x="367.578125"/>
    </g>
   </g>
   <g id="Line3DCollection_1">
    <path d="M 577.099664 415.606442 
L 439.725493 314.865999 
L 441.721251 78.255229 
" style="fill: none; stroke: #b0b0b0; stroke-width: 0.8"/>
    <path d="M 508.962088 424.217328 
L 379.710154 321.249366 
L 379.87849 82.354785 
" style="fill: none; stroke: #b0b0b0; stroke-width: 0.8"/>
    <path d="M 439.194278 433.034235 
L 318.461579 327.763903 
L 316.72539 86.541202 
" style="fill: none; stroke: #b0b0b0; stroke-width: 0.8"/>
    <path d="M 367.73702 442.064647 
L 255.94136 334.413696 
L 252.219859 90.817272 
" style="fill: none; stroke: #b0b0b0; stroke-width: 0.8"/>
    <path d="M 294.528196 451.316412 
L 192.10948 341.202999 
L 186.317982 95.185906 
" style="fill: none; stroke: #b0b0b0; stroke-width: 0.8"/>
   </g>
   <g id="xtick_1">
    <g id="line2d_2">
     <path d="M 575.82592 414.672369 
L 579.65699 417.481803 
" style="fill: none; stroke: #000000; stroke-width: 0.8; stroke-linecap: square"/>
    </g>
    <g id="text_2">
     <!-- −1.0 -->
     <g transform="translate(573.695243 444.976684)scale(0.1 -0.1)">
      <defs>
       <path id="DejaVuSans-2212" d="M 678 2272 
L 4684 2272 
L 4684 1741 
L 678 1741 
L 678 2272 
z
" transform="scale(0.015625)"/>
       <path id="DejaVuSans-31" d="M 794 531 
L 1825 531 
L 1825 4091 
L 703 3866 
L 703 4441 
L 1819 4666 
L 2450 4666 
L 2450 531 
L 3481 531 
L 3481 0 
L 794 0 
L 794 531 
z
" transform="scale(0.015625)"/>
       <path id="DejaVuSans-2e" d="M 684 794 
L 1344 794 
L 1344 0 
L 684 0 
L 684 794 
z
" transform="scale(0.015625)"/>
       <path id="DejaVuSans-30" d="M 2034 4250 
Q 1547 4250 1301 3770 
Q 1056 3291 1056 2328 
Q 1056 1369 1301 889 
Q 1547 409 2034 409 
Q 2525 409 2770 889 
Q 3016 1369 3016 2328 
Q 3016 3291 2770 3770 
Q 2525 4250 2034 4250 
z
M 2034 4750 
Q 2819 4750 3233 4129 
Q 3647 3509 3647 2328 
Q 3647 1150 3233 529 
Q 2819 -91 2034 -91 
Q 1250 -91 836 529 
Q 422 1150 422 2328 
Q 422 3509 836 4129 
Q 1250 4750 2034 4750 
z
" transform="scale(0.015625)"/>
      </defs>
      <use xlink:href="#DejaVuSans-2212"/>
      <use xlink:href="#DejaVuSans-31" x="83.789062"/>
      <use xlink:href="#DejaVuSans-2e" x="147.412109"/>
      <use xlink:href="#DejaVuSans-30" x="179.199219"/>
     </g>
    </g>
   </g>
   <g id="xtick_2">
    <g id="line2d_3">
     <path d="M 507.761713 423.261055 
L 511.372219 426.137348 
" style="fill: none; stroke: #000000; stroke-width: 0.8; stroke-linecap: square"/>
    </g>
    <g id="text_3">
     <!-- −0.5 -->
     <g transform="translate(505.163161 453.90983)scale(0.1 -0.1)">
      <defs>
       <path id="DejaVuSans-35" d="M 691 4666 
L 3169 4666 
L 3169 4134 
L 1269 4134 
L 1269 2991 
Q 1406 3038 1543 3061 
Q 1681 3084 1819 3084 
Q 2600 3084 3056 2656 
Q 3513 2228 3513 1497 
Q 3513 744 3044 326 
Q 2575 -91 1722 -91 
Q 1428 -91 1123 -41 
Q 819 9 494 109 
L 494 744 
Q 775 591 1075 516 
Q 1375 441 1709 441 
Q 2250 441 2565 725 
Q 2881 1009 2881 1497 
Q 2881 1984 2565 2268 
Q 2250 2553 1709 2553 
Q 1456 2553 1204 2497 
Q 953 2441 691 2322 
L 691 4666 
z
" transform="scale(0.015625)"/>
      </defs>
      <use xlink:href="#DejaVuSans-2212"/>
      <use xlink:href="#DejaVuSans-30" x="83.789062"/>
      <use xlink:href="#DejaVuSans-2e" x="147.412109"/>
      <use xlink:href="#DejaVuSans-35" x="179.199219"/>
     </g>
    </g>
   </g>
   <g id="xtick_3">
    <g id="line2d_4">
     <path d="M 438.071165 432.054961 
L 441.449386 435.000529 
" style="fill: none; stroke: #000000; stroke-width: 0.8; stroke-linecap: square"/>
    </g>
    <g id="text_4">
     <!-- 0.0 -->
     <g transform="translate(439.169109 463.058289)scale(0.1 -0.1)">
      <use xlink:href="#DejaVuSans-30"/>
      <use xlink:href="#DejaVuSans-2e" x="63.623047"/>
      <use xlink:href="#DejaVuSans-30" x="95.410156"/>
     </g>
    </g>
   </g>
   <g id="xtick_4">
    <g id="line2d_5">
     <path d="M 366.695283 441.061531 
L 369.828832 444.078907 
" style="fill: none; stroke: #000000; stroke-width: 0.8; stroke-linecap: square"/>
    </g>
    <g id="text_5">
     <!-- 0.5 -->
     <g transform="translate(367.272952 472.429942)scale(0.1 -0.1)">
      <use xlink:href="#DejaVuSans-30"/>
      <use xlink:href="#DejaVuSans-2e" x="63.623047"/>
      <use xlink:href="#DejaVuSans-35" x="95.410156"/>
     </g>
    </g>
   </g>
   <g id="xtick_5">
    <g id="line2d_6">
     <path d="M 293.572183 450.288574 
L 296.447968 453.380416 
" style="fill: none; stroke: #000000; stroke-width: 0.8; stroke-linecap: square"/>
    </g>
    <g id="text_6">
     <!-- 1.0 -->
     <g transform="translate(293.601098 482.033057)scale(0.1 -0.1)">
      <use xlink:href="#DejaVuSans-31"/>
      <use xlink:href="#DejaVuSans-2e" x="63.623047"/>
      <use xlink:href="#DejaVuSans-30" x="95.410156"/>
     </g>
    </g>
   </g>
  </g>
  <g id="axis3d_2">
   <g id="line2d_7">
    <path d="M 159.6887 344.651347 
L 257.246697 456.027861 
" style="fill: none; stroke: #000000; stroke-width: 0.8; stroke-linecap: square"/>
   </g>
   <g id="text_7">
    <!-- Position (X) -->
    <g transform="translate(141.317716 413.286557)rotate(-311.216081)scale(0.1 -0.1)">
     <defs>
      <path id="DejaVuSans-50" d="M 1259 4147 
L 1259 2394 
L 2053 2394 
Q 2494 2394 2734 2622 
Q 2975 2850 2975 3272 
Q 2975 3691 2734 3919 
Q 2494 4147 2053 4147 
L 1259 4147 
z
M 628 4666 
L 2053 4666 
Q 2838 4666 3239 4311 
Q 3641 3956 3641 3272 
Q 3641 2581 3239 2228 
Q 2838 1875 2053 1875 
L 1259 1875 
L 1259 0 
L 628 0 
L 628 4666 
z
" transform="scale(0.015625)"/>
      <path id="DejaVuSans-6f" d="M 1959 3097 
Q 1497 3097 1228 2736 
Q 959 2375 959 1747 
Q 959 1119 1226 758 
Q 1494 397 1959 397 
Q 2419 397 2687 759 
Q 2956 1122 2956 1747 
Q 2956 2369 2687 2733 
Q 2419 3097 1959 3097 
z
M 1959 3584 
Q 2709 3584 3137 3096 
Q 3566 2609 3566 1747 
Q 3566 888 3137 398 
Q 2709 -91 1959 -91 
Q 1206 -91 779 398 
Q 353 888 353 1747 
Q 353 2609 779 3096 
Q 1206 3584 1959 3584 
z
" transform="scale(0.015625)"/>
      <path id="DejaVuSans-74" d="M 1172 4494 
L 1172 3500 
L 2356 3500 
L 2356 3053 
L 1172 3053 
L 1172 1153 
Q 1172 725 1289 603 
Q 1406 481 1766 481 
L 2356 481 
L 2356 0 
L 1766 0 
Q 1100 0 847 248 
Q 594 497 594 1153 
L 594 3053 
L 172 3053 
L 172 3500 
L 594 3500 
L 594 4494 
L 1172 4494 
z
" transform="scale(0.015625)"/>
      <path id="DejaVuSans-6e" d="M 3513 2113 
L 3513 0 
L 2938 0 
L 2938 2094 
Q 2938 2591 2744 2837 
Q 2550 3084 2163 3084 
Q 1697 3084 1428 2787 
Q 1159 2491 1159 1978 
L 1159 0 
L 581 0 
L 581 3500 
L 1159 3500 
L 1159 2956 
Q 1366 3272 1645 3428 
Q 1925 3584 2291 3584 
Q 2894 3584 3203 3211 
Q 3513 2838 3513 2113 
z
" transform="scale(0.015625)"/>
      <path id="DejaVuSans-58" d="M 403 4666 
L 1081 4666 
L 2241 2931 
L 3406 4666 
L 4084 4666 
L 2584 2425 
L 4184 0 
L 3506 0 
L 2194 1984 
L 872 0 
L 191 0 
L 1856 2491 
L 403 4666 
z
" transform="scale(0.015625)"/>
     </defs>
     <use xlink:href="#DejaVuSans-50"/>
     <use xlink:href="#DejaVuSans-6f" x="56.677734"/>
     <use xlink:href="#DejaVuSans-73" x="117.859375"/>
     <use xlink:href="#DejaVuSans-69" x="169.958984"/>
     <use xlink:href="#DejaVuSans-74" x="197.742188"/>
     <use xlink:href="#DejaVuSans-69" x="236.951172"/>
     <use xlink:href="#DejaVuSans-6f" x="264.734375"/>
     <use xlink:href="#DejaVuSans-6e" x="325.916016"/>
     <use xlink:href="#DejaVuSans-20" x="389.294922"/>
     <use xlink:href="#DejaVuSans-28" x="421.082031"/>
     <use xlink:href="#DejaVuSans-58" x="460.095703"/>
     <use xlink:href="#DejaVuSans-29" x="528.601562"/>
    </g>
   </g>
   <g id="Line3DCollection_2">
    <path d="M 484.940352 81.832435 
L 481.637253 320.436241 
L 168.153869 354.315557 
" style="fill: none; stroke: #b0b0b0; stroke-width: 0.8"/>
    <path d="M 511.628344 93.520057 
L 507.411211 338.614628 
L 185.853413 374.522137 
" style="fill: none; stroke: #b0b0b0; stroke-width: 0.8"/>
    <path d="M 539.945352 105.921084 
L 534.708674 357.867544 
L 204.658652 395.991028 
" style="fill: none; stroke: #b0b0b0; stroke-width: 0.8"/>
    <path d="M 570.045222 119.10289 
L 563.668838 378.293164 
L 224.676537 418.844329 
" style="fill: none; stroke: #b0b0b0; stroke-width: 0.8"/>
    <path d="M 602.101803 133.14161 
L 594.448388 400.001998 
L 246.02827 443.22041 
" style="fill: none; stroke: #b0b0b0; stroke-width: 0.8"/>
   </g>
   <g id="xtick_6">
    <g id="line2d_8">
     <path d="M 170.794779 354.030144 
L 162.865261 354.887117 
" style="fill: none; stroke: #000000; stroke-width: 0.8; stroke-linecap: square"/>
    </g>
    <g id="text_8">
     <!-- −1.0 -->
     <g transform="translate(137.567888 377.779051)scale(0.1 -0.1)">
      <use xlink:href="#DejaVuSans-2212"/>
      <use xlink:href="#DejaVuSans-31" x="83.789062"/>
      <use xlink:href="#DejaVuSans-2e" x="147.412109"/>
      <use xlink:href="#DejaVuSans-30" x="179.199219"/>
     </g>
    </g>
   </g>
   <g id="xtick_7">
    <g id="line2d_9">
     <path d="M 188.566477 374.219177 
L 180.4201 375.128861 
" style="fill: none; stroke: #000000; stroke-width: 0.8; stroke-linecap: square"/>
    </g>
    <g id="text_9">
     <!-- −0.5 -->
     <g transform="translate(154.730963 398.492961)scale(0.1 -0.1)">
      <use xlink:href="#DejaVuSans-2212"/>
      <use xlink:href="#DejaVuSans-30" x="83.789062"/>
      <use xlink:href="#DejaVuSans-2e" x="147.412109"/>
      <use xlink:href="#DejaVuSans-35" x="179.199219"/>
     </g>
    </g>
   </g>
   <g id="xtick_8">
    <g id="line2d_10">
     <path d="M 207.447873 395.66885 
L 199.072593 396.636264 
" style="fill: none; stroke: #000000; stroke-width: 0.8; stroke-linecap: square"/>
    </g>
    <g id="text_10">
     <!-- 0.0 -->
     <g transform="translate(177.157495 420.502603)scale(0.1 -0.1)">
      <use xlink:href="#DejaVuSans-30"/>
      <use xlink:href="#DejaVuSans-2e" x="63.623047"/>
      <use xlink:href="#DejaVuSans-30" x="95.410156"/>
     </g>
    </g>
   </g>
   <g id="xtick_9">
    <g id="line2d_11">
     <path d="M 227.546254 418.501046 
L 218.929012 419.531863 
" style="fill: none; stroke: #000000; stroke-width: 0.8; stroke-linecap: square"/>
    </g>
    <g id="text_11">
     <!-- 0.5 -->
     <g transform="translate(196.571788 443.933481)scale(0.1 -0.1)">
      <use xlink:href="#DejaVuSans-30"/>
      <use xlink:href="#DejaVuSans-2e" x="63.623047"/>
      <use xlink:href="#DejaVuSans-35" x="95.410156"/>
     </g>
    </g>
   </g>
   <g id="xtick_10">
    <g id="line2d_12">
     <path d="M 248.983198 442.853877 
L 240.109806 443.954543 
" style="fill: none; stroke: #000000; stroke-width: 0.8; stroke-linecap: square"/>
    </g>
    <g id="text_12">
     <!-- 1.0 -->
     <g transform="translate(217.281553 468.92785)scale(0.1 -0.1)">
      <use xlink:href="#DejaVuSans-31"/>
      <use xlink:href="#DejaVuSans-2e" x="63.623047"/>
      <use xlink:href="#DejaVuSans-30" x="95.410156"/>
     </g>
    </g>
   </g>
  </g>
  <g id="axis3d_3">
   <g id="line2d_13">
    <path d="M 159.6887 344.651347 
L 152.829168 97.405879 
" style="fill: none; stroke: #000000; stroke-width: 0.8; stroke-linecap: square"/>
   </g>
   <g id="text_13">
    <!-- Position (Y) -->
    <g transform="translate(101.978427 188.921446)rotate(-271.589196)scale(0.1 -0.1)">
     <defs>
      <path id="DejaVuSans-59" d="M -13 4666 
L 666 4666 
L 1959 2747 
L 3244 4666 
L 3922 4666 
L 2272 2222 
L 2272 0 
L 1638 0 
L 1638 2222 
L -13 4666 
z
" transform="scale(0.015625)"/>
     </defs>
     <use xlink:href="#DejaVuSans-50"/>
     <use xlink:href="#DejaVuSans-6f" x="56.677734"/>
     <use xlink:href="#DejaVuSans-73" x="117.859375"/>
     <use xlink:href="#DejaVuSans-69" x="169.958984"/>
     <use xlink:href="#DejaVuSans-74" x="197.742188"/>
     <use xlink:href="#DejaVuSans-69" x="236.951172"/>
     <use xlink:href="#DejaVuSans-6f" x="264.734375"/>
     <use xlink:href="#DejaVuSans-6e" x="325.916016"/>
     <use xlink:href="#DejaVuSans-20" x="389.294922"/>
     <use xlink:href="#DejaVuSans-28" x="421.082031"/>
     <use xlink:href="#DejaVuSans-59" x="460.095703"/>
     <use xlink:href="#DejaVuSans-29" x="521.179688"/>
    </g>
   </g>
   <g id="Line3DCollection_3">
    <path d="M 159.555677 339.856662 
L 469.33825 307.148479 
L 610.736271 406.139961 
" style="fill: none; stroke: #b0b0b0; stroke-width: 0.8"/>
    <path d="M 158.21632 291.58078 
L 469.901597 261.112496 
L 612.362517 353.383373 
" style="fill: none; stroke: #b0b0b0; stroke-width: 0.8"/>
    <path d="M 156.860147 242.698768 
L 470.471657 214.527818 
L 614.011283 299.896196 
" style="fill: none; stroke: #b0b0b0; stroke-width: 0.8"/>
    <path d="M 155.486838 193.19914 
L 471.048553 167.384577 
L 615.683042 245.663149 
" style="fill: none; stroke: #b0b0b0; stroke-width: 0.8"/>
    <path d="M 154.096068 143.070114 
L 471.632408 119.672667 
L 617.378276 190.668518 
" style="fill: none; stroke: #b0b0b0; stroke-width: 0.8"/>
   </g>
   <g id="xtick_11">
    <g id="line2d_14">
     <path d="M 162.163587 339.581307 
L 154.333248 340.408068 
" style="fill: none; stroke: #000000; stroke-width: 0.8; stroke-linecap: square"/>
    </g>
    <g id="text_14">
     <!-- 0.0 -->
     <g transform="translate(128.422226 344.049429)scale(0.1 -0.1)">
      <use xlink:href="#DejaVuSans-30"/>
      <use xlink:href="#DejaVuSans-2e" x="63.623047"/>
      <use xlink:href="#DejaVuSans-30" x="95.410156"/>
     </g>
    </g>
   </g>
   <g id="xtick_12">
    <g id="line2d_15">
     <path d="M 160.841061 291.324202 
L 152.960144 292.094589 
" style="fill: none; stroke: #000000; stroke-width: 0.8; stroke-linecap: square"/>
    </g>
    <g id="text_15">
     <!-- 0.5 -->
     <g transform="translate(126.946038 296.005884)scale(0.1 -0.1)">
      <use xlink:href="#DejaVuSans-30"/>
      <use xlink:href="#DejaVuSans-2e" x="63.623047"/>
      <use xlink:href="#DejaVuSans-35" x="95.410156"/>
     </g>
    </g>
   </g>
   <g id="xtick_13">
    <g id="line2d_16">
     <path d="M 159.501938 242.461463 
L 151.569785 243.173988 
" style="fill: none; stroke: #000000; stroke-width: 0.8; stroke-linecap: square"/>
    </g>
    <g id="text_16">
     <!-- 1.0 -->
     <g transform="translate(125.451413 247.362312)scale(0.1 -0.1)">
      <use xlink:href="#DejaVuSans-31"/>
      <use xlink:href="#DejaVuSans-2e" x="63.623047"/>
      <use xlink:href="#DejaVuSans-30" x="95.410156"/>
     </g>
    </g>
   </g>
   <g id="xtick_14">
    <g id="line2d_17">
     <path d="M 158.145902 192.981615 
L 150.161844 193.634751 
" style="fill: none; stroke: #000000; stroke-width: 0.8; stroke-linecap: square"/>
    </g>
    <g id="text_17">
     <!-- 1.5 -->
     <g transform="translate(123.938005 198.107404)scale(0.1 -0.1)">
      <use xlink:href="#DejaVuSans-31"/>
      <use xlink:href="#DejaVuSans-2e" x="63.623047"/>
      <use xlink:href="#DejaVuSans-35" x="95.410156"/>
     </g>
    </g>
   </g>
   <g id="xtick_15">
    <g id="line2d_18">
     <path d="M 156.772631 142.872894 
L 148.735985 143.465068 
" style="fill: none; stroke: #000000; stroke-width: 0.8; stroke-linecap: square"/>
    </g>
    <g id="text_18">
     <!-- 2.0 -->
     <g transform="translate(122.405456 148.229562)scale(0.1 -0.1)">
      <defs>
       <path id="DejaVuSans-32" d="M 1228 531 
L 3431 531 
L 3431 0 
L 469 0 
L 469 531 
Q 828 903 1448 1529 
Q 2069 2156 2228 2338 
Q 2531 2678 2651 2914 
Q 2772 3150 2772 3378 
Q 2772 3750 2511 3984 
Q 2250 4219 1831 4219 
Q 1534 4219 1204 4116 
Q 875 4013 500 3803 
L 500 4441 
Q 881 4594 1212 4672 
Q 1544 4750 1819 4750 
Q 2544 4750 2975 4387 
Q 3406 4025 3406 3419 
Q 3406 3131 3298 2873 
Q 3191 2616 2906 2266 
Q 2828 2175 2409 1742 
Q 1991 1309 1228 531 
z
" transform="scale(0.015625)"/>
      </defs>
      <use xlink:href="#DejaVuSans-32"/>
      <use xlink:href="#DejaVuSans-2e" x="63.623047"/>
      <use xlink:href="#DejaVuSans-30" x="95.410156"/>
     </g>
    </g>
   </g>
  </g>
  <g id="axes_1">
   <g id="line2d_19">
    <path d="M 231.262714 239.515501 
L 231.363882 239.09842 
L 231.63065 238.869504 
L 231.91542 238.794007 
L 232.872701 239.361249 
L 233.10939 239.338738 
L 234.227442 240.096585 
L 236.583141 242.60349 
L 236.94311 243.149919 
L 237.715487 244.117782 
L 240.542933 246.754803 
L 240.551548 247.259411 
L 241.629977 247.933666 
L 242.021414 248.712345 
L 243.424969 250.075574 
L 243.832954 251.049439 
L 245.82465 252.818034 
L 249.168317 254.990247 
L 253.754525 258.476141 
L 254.643824 260.973184 
L 256.445664 262.904785 
L 257.336511 264.394288 
L 258.971371 266.252179 
L 261.293879 268.115945 
L 265.443879 272.038437 
L 271.515609 277.758393 
L 277.101019 280.109044 
L 279.581158 282.401014 
L 282.136793 284.60762 
L 286.078886 288.90972 
L 286.091972 290.065862 
L 288.803614 292.497448 
L 291.101936 295.289254 
L 297.268363 300.362186 
L 300.140941 302.789536 
L 304.591055 304.994302 
L 306.139586 307.372454 
L 313.888198 309.740572 
L 315.454215 311.855049 
L 316.591287 314.116916 
L 322.022878 316.160219 
L 323.691863 318.259157 
L 324.833775 320.210435 
L 328.714828 322.155585 
L 336.218259 324.039657 
L 340.931494 326.94853 
L 351.024131 328.696807 
L 355.254114 331.129346 
L 362.57251 333.907277 
L 366.173726 335.100052 
L 369.9014 336.922684 
L 370.4908 336.894847 
L 371.727591 338.064373 
L 375.396753 338.840117 
L 378.475335 339.642026 
L 382.746392 339.448933 
L 384.608919 340.16978 
L 390.116127 341.212924 
L 402.356182 341.329928 
L 408.558098 341.774912 
L 410.375706 341.572964 
L 417.689705 341.099745 
L 421.884831 340.605353 
L 424.862064 340.141518 
L 430.162325 338.926663 
L 435.336597 338.162893 
L 443.739385 336.076017 
L 456.43117 330.2587 
L 460.904076 328.146915 
L 463.85764 325.131025 
L 471.683945 321.214483 
L 473.481454 317.727022 
L 476.039021 317.027854 
L 478.576011 314.218473 
L 485.728007 309.199294 
L 489.134125 304.118168 
L 490.235742 301.972615 
L 495.380628 297.070704 
L 496.080918 293.617356 
L 496.080918 293.617356 
L 499.163264 292.33405 
L 500.099555 287.745229 
L 501.797742 286.959474 
L 506.172449 281.483532 
L 508.842943 274.382322 
L 512.684905 265.755833 
L 513.535681 261.633056 
L 514.613542 258.381798 
L 514.955254 256.106031 
L 514.955254 256.106031 
L 515.794433 253.141708 
L 517.261513 243.133607 
L 517.352078 238.73252 
L 517.200714 232.52239 
L 517.088335 232.151742 
L 516.723098 229.050155 
L 516.42272 228.343841 
L 516.052341 225.049749 
L 515.618025 223.43768 
L 514.83714 221.761736 
L 513.622852 219.843392 
L 512.543352 217.274811 
L 512.275698 217.054799 
L 511.292199 215.960284 
L 510.882403 215.28735 
L 510.400116 214.988035 
L 508.398356 213.508606 
L 506.7616 212.635736 
L 506.348969 212.579768 
L 505.547196 212.343262 
L 502.980668 211.834231 
L 502.980668 211.834231 
L 498.564783 211.797608 
L 497.044875 212.080195 
L 495.369507 212.144102 
L 491.048128 212.691322 
L 489.159306 213.465678 
L 487.253625 213.870821 
L 483.327514 214.994017 
L 480.253593 215.423052 
L 473.602506 217.493142 
L 473.575843 219.60256 
L 471.233877 221.700793 
L 467.552533 223.299861 
L 462.118164 224.463825 
L 459.850574 227.144125 
L 459.850574 227.144125 
L 457.223719 228.900076 
L 455.854719 230.621727 
L 451.790504 231.977229 
L 450.401645 233.59905 
L 447.636993 234.738025 
L 444.81694 236.458383 
L 441.040655 237.944999 
L 436.369312 238.778975 
L 434.942713 240.38725 
L 433.532458 241.80595 
L 431.182076 243.815234 
L 428.333176 245.526409 
L 423.531747 247.953816 
L 422.094149 247.864991 
L 419.222062 249.899171 
L 416.289018 251.625209 
L 413.351918 253.190649 
L 404.397793 256.073867 
L 399.757712 258.486466 
L 396.623018 260.3296 
L 395.039802 261.926657 
L 393.454064 261.918776 
L 391.849675 263.370402 
L 388.61512 264.738762 
L 382.072391 266.041153 
L 375.4437 268.11803 
L 373.78592 269.404578 
L 372.105398 270.181538 
L 370.462949 270.22578 
L 365.463919 272.039031 
L 362.077789 272.982272 
L 358.811799 273.574135 
L 355.531278 274.373805 
L 352.218653 275.021791 
L 345.690135 275.799894 
L 345.690724 275.960833 
L 331.102268 277.562848 
L 326.347941 277.917121 
L 318.505642 278.182938 
L 318.505642 278.182938 
L 316.941171 277.891134 
L 312.333117 278.015139 
L 301.947767 278.695845 
L 300.445517 277.817625 
L 296.148097 277.360748 
L 294.759326 276.832872 
L 290.569067 276.416895 
L 289.190751 274.764196 
L 286.410336 273.840432 
L 281.236206 274.075593 
L 278.646875 273.375347 
L 276.84639 272.10214 
L 272.217135 271.737759 
L 269.308571 270.013046 
L 265.675225 269.394099 
L 263.674215 267.969206 
L 260.230024 267.723347 
L 253.712816 264.754688 
L 252.664122 262.819541 
L 252.003139 261.011715 
L 248.813435 260.263524 
L 247.867801 258.749395 
L 246.076976 257.595676 
L 243.511087 256.809007 
L 241.857562 255.69535 
L 238.506805 255.995344 
L 237.246178 252.650951 
L 235.165435 250.630665 
L 233.845773 251.336755 
L 232.584915 249.786458 
L 232.55952 248.383048 
L 231.321006 247.017245 
L 229.726965 246.327114 
L 228.351292 244.764792 
L 227.589083 245.528148 
L 226.954554 245.010268 
L 225.9937 243.394758 
L 225.864607 242.649928 
L 225.716514 242.545274 
L 225.558298 241.608335 
L 225.558298 241.608335 
" clip-path="url(#p54a19481cd)" style="fill: none; stroke-dasharray: 12.8,3.2,2,3.2; stroke-dashoffset: 0; stroke: #ff0000; stroke-width: 2"/>
   </g>
   <g id="line2d_20">
    <path d="M 231.058758 242.314543 
L 230.813884 241.263333 
L 231.112688 240.162053 
L 230.497434 241.4314 
L 229.466996 241.566857 
L 226.482817 242.960119 
L 227.256685 243.030773 
L 224.535688 244.14584 
L 225.843155 242.867268 
L 225.633646 243.930911 
L 229.59707 245.039447 
L 228.139795 245.068706 
L 229.372084 246.48152 
L 232.810525 245.876479 
L 232.525992 247.548428 
L 234.531629 248.65806 
L 234.531629 248.65806 
L 240.071636 249.748118 
L 243.043527 250.516445 
L 245.377521 252.471985 
L 244.480266 255.291567 
L 248.417725 259.263635 
L 248.755925 264.035822 
L 252.141815 266.831843 
L 260.280635 269.256619 
L 259.373395 269.663624 
L 262.221626 269.681615 
L 265.061394 274.937867 
L 275.29893 281.800925 
L 279.411919 283.689274 
L 281.561704 285.873566 
L 285.381805 287.797372 
L 289.721756 293.080328 
L 294.44537 293.875018 
L 299.059366 295.043937 
L 303.951163 298.163875 
L 304.970442 301.066833 
L 306.834082 304.22664 
L 314.533901 307.017096 
L 320.207956 307.512976 
L 319.080417 310.212724 
L 322.96396 311.656057 
L 327.528088 315.356851 
L 338.280715 316.636485 
L 336.560298 317.049539 
L 336.018834 320.505528 
L 341.559894 322.714014 
L 338.940837 324.710131 
L 344.975904 328.621177 
L 348.184283 331.006348 
L 357.252111 330.634886 
L 361.764141 335.173693 
L 361.127164 336.684815 
L 365.675466 338.400119 
L 365.675466 338.400119 
L 368.436639 339.842612 
L 372.989158 338.850607 
L 378.505547 341.981174 
L 378.505547 341.981174 
L 383.196204 341.250675 
L 397.74018 343.676335 
L 407.271565 343.277927 
L 411.646116 344.541445 
L 414.457226 345.233917 
L 414.457226 345.233917 
L 419.11529 343.962196 
L 422.626543 343.221382 
L 428.725395 343.043065 
L 429.474788 342.627776 
L 434.608667 339.928586 
L 434.608667 339.928586 
L 443.150097 338.807057 
L 452.017321 336.209876 
L 456.901403 334.089513 
L 458.793727 332.412652 
L 462.115549 329.714872 
L 461.873843 326.853376 
L 461.473379 325.590165 
L 461.677231 321.38874 
L 461.677231 321.38874 
L 471.478781 317.446942 
L 483.193828 311.361032 
L 489.916395 306.480451 
L 494.213616 303.71412 
L 500.898631 299.143501 
L 504.909071 292.377832 
L 504.909071 292.377832 
L 508.896508 286.223503 
L 508.896508 286.223503 
L 509.819688 279.443628 
L 503.125236 271.100674 
L 504.726015 266.235686 
L 507.871198 262.955863 
L 508.242812 257.478358 
L 506.115632 253.43926 
L 505.902623 251.810795 
L 510.058682 249.454986 
L 508.194645 245.461209 
L 507.2518 244.166277 
L 507.295204 242.489013 
L 512.804408 235.562423 
L 512.804408 235.562423 
L 507.088696 232.283041 
L 505.303504 229.664991 
L 508.657203 227.979908 
L 508.657203 227.979908 
L 507.733539 223.497383 
L 507.733539 223.497383 
L 507.157796 222.96556 
L 509.043607 222.391506 
L 505.400245 221.169306 
L 504.867877 220.384074 
L 504.339328 218.700633 
L 506.408374 215.552772 
L 506.408374 215.552772 
L 507.61013 215.258878 
L 512.548382 213.339205 
L 512.548382 213.339205 
L 510.376853 213.119223 
L 510.376853 213.119223 
L 505.147026 212.147164 
L 499.789118 212.935192 
L 499.913407 212.791727 
L 497.364646 211.572339 
L 497.364646 211.572339 
L 496.589996 210.265567 
L 495.996766 210.024204 
L 494.744839 209.720905 
L 491.485291 209.151598 
L 489.716453 210.68681 
L 479.038512 211.347095 
L 474.781642 211.275071 
L 472.855236 212.467313 
L 463.517988 215.383184 
L 460.001325 215.085278 
L 458.179498 217.170827 
L 456.945784 220.076617 
L 452.531558 221.712213 
L 450.469648 223.25712 
L 450.469648 223.25712 
L 444.322153 225.287541 
L 443.472226 227.454833 
L 438.622299 229.118776 
L 428.976868 229.678643 
L 426.778378 231.391816 
L 423.655188 234.128764 
L 422.773626 235.379785 
L 419.947617 236.21927 
L 419.587739 238.494784 
L 418.892179 238.236172 
L 411.240235 241.325279 
L 406.250634 243.820728 
L 403.182456 248.134485 
L 403.182456 248.134485 
L 396.944691 250.081887 
L 396.927294 252.588486 
L 396.026256 254.036368 
L 395.924723 256.39102 
L 391.208695 257.098298 
L 378.705515 260.34176 
L 374.956202 261.806582 
L 372.040088 262.780132 
L 372.040088 262.780132 
L 369.353688 264.965793 
L 370.58646 265.331719 
L 365.774654 268.219313 
L 355.618589 270.643437 
L 355.377154 271.86699 
L 351.531377 272.964842 
L 351.531377 272.964842 
L 347.323314 272.95942 
L 340.621161 273.931749 
L 337.997573 275.4578 
L 337.961049 277.192787 
L 339.718669 277.955114 
L 337.337773 278.229994 
L 336.59779 278.176729 
L 331.298951 279.192187 
L 325.376244 278.975096 
L 322.094067 278.05571 
L 319.191476 278.714026 
L 313.872337 278.063851 
L 313.377636 278.147704 
L 304.437944 278.641706 
L 301.563953 278.923792 
L 301.563953 278.923792 
L 292.865433 278.99214 
L 289.405664 279.159731 
L 292.339722 277.290686 
L 289.4323 275.891178 
L 285.074467 274.648185 
L 281.183271 275.9178 
L 281.619014 275.27928 
L 273.071498 275.88882 
L 273.646385 275.295455 
L 267.521059 275.137551 
L 266.178362 273.970291 
L 264.412142 272.760478 
L 259.688954 270.005562 
L 259.096648 268.348934 
L 256.213747 267.589962 
L 255.748704 266.6087 
L 253.682141 264.768167 
L 255.684774 263.930875 
L 254.915717 263.276822 
L 245.980994 262.410704 
L 245.807878 261.040917 
L 243.522669 261.934421 
L 240.927599 259.087616 
L 238.488115 257.310805 
L 240.074849 255.811322 
L 236.430442 255.288622 
L 229.912277 253.024416 
L 226.761392 251.764033 
L 225.76546 252.106895 
L 225.76546 252.106895 
L 223.189612 250.969996 
L 220.057613 251.562906 
L 217.093681 250.102996 
L 220.35019 249.274831 
L 216.264473 247.687681 
L 216.264473 247.687681 
L 213.076587 247.604444 
L 217.744729 247.481702 
L 219.243857 246.523152 
L 224.900625 245.895398 
L 228.57099 245.533136 
L 228.516181 245.173296 
L 228.516181 245.173296 
" clip-path="url(#p54a19481cd)" style="fill: none; stroke: #008000; stroke-width: 1.5; stroke-linecap: square"/>
   </g>
   <g id="line2d_21">
    <path d="M 236.339745 230.256618 
L 239.558207 233.10817 
L 243.581302 237.030162 
L 248.273657 241.873999 
L 255.877911 250.027793 
L 282.139628 278.494038 
L 292.645432 289.423067 
L 301.52251 298.300128 
L 304.573399 301.264113 
L 311.708685 308.005817 
L 320.855736 316.226488 
L 326.129605 320.733798 
L 332.629722 326.039435 
L 338.407473 330.512151 
L 345.369716 335.581639 
L 349.121837 338.16244 
L 356.533132 342.93487 
L 361.760769 346.031273 
L 369.657096 350.26477 
L 374.549284 352.608786 
L 380.951408 355.339914 
L 386.957006 357.541628 
L 393.485665 359.522281 
L 397.159798 360.440722 
L 405.748742 362.011745 
L 410.272315 362.501477 
L 415.36373 362.761187 
L 422.275774 362.598142 
L 426.585759 362.182378 
L 429.493051 361.76014 
L 432.417238 361.21673 
L 435.505968 360.509868 
L 440.1241 359.189578 
L 443.607184 357.976994 
L 449.243018 355.60038 
L 455.145371 352.529371 
L 459.807678 349.653188 
L 462.50209 347.798488 
L 465.309147 345.708524 
L 467.913689 343.619029 
L 471.083359 340.87117 
L 473.695617 338.428442 
L 478.827347 333.125188 
L 484.243479 326.725249 
L 488.263369 321.368632 
L 490.804195 317.681136 
L 494.268921 312.226743 
L 496.11243 309.100703 
L 500.819832 300.282332 
L 503.801474 293.938952 
L 506.622095 287.229534 
L 509.084114 280.626646 
L 510.305963 277.00813 
L 512.121131 271.061903 
L 513.297666 266.710527 
L 514.735689 260.571086 
L 515.329282 257.632927 
L 516.554259 250.104016 
L 517.414617 240.770743 
L 517.499582 234.326152 
L 517.165414 228.907169 
L 516.743723 225.658996 
L 516.258033 223.052721 
L 515.009387 218.502885 
L 513.6209 215.099063 
L 512.111137 212.403717 
L 510.198209 209.894004 
L 509.014699 208.692635 
L 506.450127 206.744583 
L 504.496362 205.717177 
L 502.798454 205.072144 
L 499.897549 204.396199 
L 494.317977 204.23074 
L 491.168229 204.632149 
L 490.767287 204.704108 
L 486.356942 205.761857 
L 482.104791 207.174295 
L 480.942917 207.616597 
L 476.47759 209.507667 
L 472.067212 211.629618 
L 466.830624 214.411683 
L 459.533929 218.651944 
L 453.235012 222.560318 
L 444.938992 227.937098 
L 413.150384 249.023298 
L 403.966631 254.800329 
L 396.89429 259.044293 
L 388.199084 263.961445 
L 382.123382 267.170485 
L 375.77064 270.302276 
L 369.532344 273.135091 
L 362.636938 275.96334 
L 355.199335 278.629407 
L 352.114721 279.611004 
L 344.747309 281.644305 
L 341.645309 282.3639 
L 337.793844 283.140224 
L 331.812824 284.079598 
L 326.019046 284.668167 
L 320.722387 284.91758 
L 315.030097 284.86561 
L 309.271937 284.462142 
L 303.596018 283.704914 
L 298.348566 282.674595 
L 292.888433 281.252157 
L 289.909501 280.320272 
L 286.856127 279.247516 
L 280.380948 276.565078 
L 277.480323 275.177317 
L 272.693027 272.623661 
L 267.410386 269.407638 
L 264.741023 267.615602 
L 259.553529 263.792722 
L 255.631738 260.584488 
L 251.618593 256.992158 
L 249.634494 255.090646 
L 245.138127 250.437461 
L 241.989537 246.852207 
L 238.452638 242.419886 
L 235.743298 238.627925 
L 233.482998 235.035479 
L 232.0151 232.275973 
L 231.050864 229.855719 
L 230.809745 228.601387 
L 230.82893 228.172005 
L 230.971819 227.772118 
L 231.499754 227.470778 
L 231.823233 227.480834 
L 232.892515 227.852892 
L 233.987158 228.490537 
L 235.967699 229.953436 
L 235.967699 229.953436 
" clip-path="url(#p54a19481cd)" style="fill: none; stroke-dasharray: 5.55,2.4; stroke-dashoffset: 0; stroke: #0000ff; stroke-width: 1.5"/>
   </g>
   <g id="legend_1">
    <g id="patch_6">
     <path d="M 476.960312 112.514375 
L 556.04 112.514375 
Q 558.04 112.514375 558.04 110.514375 
L 558.04 67.48 
Q 558.04 65.48 556.04 65.48 
L 476.960312 65.48 
Q 474.960312 65.48 474.960312 67.48 
L 474.960312 110.514375 
Q 474.960312 112.514375 476.960312 112.514375 
z
" style="fill: #ffffff; opacity: 0.8; stroke: #cccccc; stroke-linejoin: miter"/>
    </g>
    <g id="line2d_22">
     <path d="M 478.960312 73.578438 
L 488.960312 73.578438 
L 498.960312 73.578438 
" style="fill: none; stroke-dasharray: 12.8,3.2,2,3.2; stroke-dashoffset: 0; stroke: #ff0000; stroke-width: 2"/>
    </g>
    <g id="text_19">
     <!-- OptiTrack -->
     <g transform="translate(506.960312 77.078438)scale(0.1 -0.1)">
      <defs>
       <path id="DejaVuSans-4f" d="M 2522 4238 
Q 1834 4238 1429 3725 
Q 1025 3213 1025 2328 
Q 1025 1447 1429 934 
Q 1834 422 2522 422 
Q 3209 422 3611 934 
Q 4013 1447 4013 2328 
Q 4013 3213 3611 3725 
Q 3209 4238 2522 4238 
z
M 2522 4750 
Q 3503 4750 4090 4092 
Q 4678 3434 4678 2328 
Q 4678 1225 4090 567 
Q 3503 -91 2522 -91 
Q 1538 -91 948 565 
Q 359 1222 359 2328 
Q 359 3434 948 4092 
Q 1538 4750 2522 4750 
z
" transform="scale(0.015625)"/>
       <path id="DejaVuSans-70" d="M 1159 525 
L 1159 -1331 
L 581 -1331 
L 581 3500 
L 1159 3500 
L 1159 2969 
Q 1341 3281 1617 3432 
Q 1894 3584 2278 3584 
Q 2916 3584 3314 3078 
Q 3713 2572 3713 1747 
Q 3713 922 3314 415 
Q 2916 -91 2278 -91 
Q 1894 -91 1617 61 
Q 1341 213 1159 525 
z
M 3116 1747 
Q 3116 2381 2855 2742 
Q 2594 3103 2138 3103 
Q 1681 3103 1420 2742 
Q 1159 2381 1159 1747 
Q 1159 1113 1420 752 
Q 1681 391 2138 391 
Q 2594 391 2855 752 
Q 3116 1113 3116 1747 
z
" transform="scale(0.015625)"/>
       <path id="DejaVuSans-72" d="M 2631 2963 
Q 2534 3019 2420 3045 
Q 2306 3072 2169 3072 
Q 1681 3072 1420 2755 
Q 1159 2438 1159 1844 
L 1159 0 
L 581 0 
L 581 3500 
L 1159 3500 
L 1159 2956 
Q 1341 3275 1631 3429 
Q 1922 3584 2338 3584 
Q 2397 3584 2469 3576 
Q 2541 3569 2628 3553 
L 2631 2963 
z
" transform="scale(0.015625)"/>
       <path id="DejaVuSans-61" d="M 2194 1759 
Q 1497 1759 1228 1600 
Q 959 1441 959 1056 
Q 959 750 1161 570 
Q 1363 391 1709 391 
Q 2188 391 2477 730 
Q 2766 1069 2766 1631 
L 2766 1759 
L 2194 1759 
z
M 3341 1997 
L 3341 0 
L 2766 0 
L 2766 531 
Q 2569 213 2275 61 
Q 1981 -91 1556 -91 
Q 1019 -91 701 211 
Q 384 513 384 1019 
Q 384 1609 779 1909 
Q 1175 2209 1959 2209 
L 2766 2209 
L 2766 2266 
Q 2766 2663 2505 2880 
Q 2244 3097 1772 3097 
Q 1472 3097 1187 3025 
Q 903 2953 641 2809 
L 641 3341 
Q 956 3463 1253 3523 
Q 1550 3584 1831 3584 
Q 2591 3584 2966 3190 
Q 3341 2797 3341 1997 
z
" transform="scale(0.015625)"/>
       <path id="DejaVuSans-63" d="M 3122 3366 
L 3122 2828 
Q 2878 2963 2633 3030 
Q 2388 3097 2138 3097 
Q 1578 3097 1268 2742 
Q 959 2388 959 1747 
Q 959 1106 1268 751 
Q 1578 397 2138 397 
Q 2388 397 2633 464 
Q 2878 531 3122 666 
L 3122 134 
Q 2881 22 2623 -34 
Q 2366 -91 2075 -91 
Q 1284 -91 818 406 
Q 353 903 353 1747 
Q 353 2603 823 3093 
Q 1294 3584 2113 3584 
Q 2378 3584 2631 3529 
Q 2884 3475 3122 3366 
z
" transform="scale(0.015625)"/>
       <path id="DejaVuSans-6b" d="M 581 4863 
L 1159 4863 
L 1159 1991 
L 2875 3500 
L 3609 3500 
L 1753 1863 
L 3688 0 
L 2938 0 
L 1159 1709 
L 1159 0 
L 581 0 
L 581 4863 
z
" transform="scale(0.015625)"/>
      </defs>
      <use xlink:href="#DejaVuSans-4f"/>
      <use xlink:href="#DejaVuSans-70" x="78.710938"/>
      <use xlink:href="#DejaVuSans-74" x="142.1875"/>
      <use xlink:href="#DejaVuSans-69" x="181.396484"/>
      <use xlink:href="#DejaVuSans-54" x="209.179688"/>
      <use xlink:href="#DejaVuSans-72" x="255.513672"/>
      <use xlink:href="#DejaVuSans-61" x="296.626953"/>
      <use xlink:href="#DejaVuSans-63" x="357.90625"/>
      <use xlink:href="#DejaVuSans-6b" x="412.886719"/>
     </g>
    </g>
    <g id="line2d_23">
     <path d="M 478.960312 88.256563 
L 488.960312 88.256563 
L 498.960312 88.256563 
" style="fill: none; stroke: #008000; stroke-width: 1.5; stroke-linecap: square"/>
    </g>
    <g id="text_20">
     <!-- Kalman -->
     <g transform="translate(506.960312 91.756563)scale(0.1 -0.1)">
      <defs>
       <path id="DejaVuSans-4b" d="M 628 4666 
L 1259 4666 
L 1259 2694 
L 3353 4666 
L 4166 4666 
L 1850 2491 
L 4331 0 
L 3500 0 
L 1259 2247 
L 1259 0 
L 628 0 
L 628 4666 
z
" transform="scale(0.015625)"/>
       <path id="DejaVuSans-6c" d="M 603 4863 
L 1178 4863 
L 1178 0 
L 603 0 
L 603 4863 
z
" transform="scale(0.015625)"/>
      </defs>
      <use xlink:href="#DejaVuSans-4b"/>
      <use xlink:href="#DejaVuSans-61" x="63.826172"/>
      <use xlink:href="#DejaVuSans-6c" x="125.105469"/>
      <use xlink:href="#DejaVuSans-6d" x="152.888672"/>
      <use xlink:href="#DejaVuSans-61" x="250.300781"/>
      <use xlink:href="#DejaVuSans-6e" x="311.580078"/>
     </g>
    </g>
    <g id="line2d_24">
     <path d="M 478.960312 102.934687 
L 488.960312 102.934687 
L 498.960312 102.934687 
" style="fill: none; stroke-dasharray: 5.55,2.4; stroke-dashoffset: 0; stroke: #0000ff; stroke-width: 1.5"/>
    </g>
    <g id="text_21">
     <!-- Desired -->
     <g transform="translate(506.960312 106.434687)scale(0.1 -0.1)">
      <defs>
       <path id="DejaVuSans-44" d="M 1259 4147 
L 1259 519 
L 2022 519 
Q 2988 519 3436 956 
Q 3884 1394 3884 2338 
Q 3884 3275 3436 3711 
Q 2988 4147 2022 4147 
L 1259 4147 
z
M 628 4666 
L 1925 4666 
Q 3281 4666 3915 4102 
Q 4550 3538 4550 2338 
Q 4550 1131 3912 565 
Q 3275 0 1925 0 
L 628 0 
L 628 4666 
z
" transform="scale(0.015625)"/>
       <path id="DejaVuSans-64" d="M 2906 2969 
L 2906 4863 
L 3481 4863 
L 3481 0 
L 2906 0 
L 2906 525 
Q 2725 213 2448 61 
Q 2172 -91 1784 -91 
Q 1150 -91 751 415 
Q 353 922 353 1747 
Q 353 2572 751 3078 
Q 1150 3584 1784 3584 
Q 2172 3584 2448 3432 
Q 2725 3281 2906 2969 
z
M 947 1747 
Q 947 1113 1208 752 
Q 1469 391 1925 391 
Q 2381 391 2643 752 
Q 2906 1113 2906 1747 
Q 2906 2381 2643 2742 
Q 2381 3103 1925 3103 
Q 1469 3103 1208 2742 
Q 947 2381 947 1747 
z
" transform="scale(0.015625)"/>
      </defs>
      <use xlink:href="#DejaVuSans-44"/>
      <use xlink:href="#DejaVuSans-65" x="77.001953"/>
      <use xlink:href="#DejaVuSans-73" x="138.525391"/>
      <use xlink:href="#DejaVuSans-69" x="190.625"/>
      <use xlink:href="#DejaVuSans-72" x="218.408203"/>
      <use xlink:href="#DejaVuSans-65" x="257.271484"/>
      <use xlink:href="#DejaVuSans-64" x="318.794922"/>
     </g>
    </g>
   </g>
  </g>
 </g>
 <defs>
  <clipPath id="p54a19481cd">
   <rect x="174.96" y="60.48" width="388.08" height="388.08"/>
  </clipPath>
 </defs>
</svg>
