<?xml version="1.0" encoding="utf-8" standalone="no"?>
<!DOCTYPE svg PUBLIC "-//W3C//DTD SVG 1.1//EN"
  "http://www.w3.org/Graphics/SVG/1.1/DTD/svg11.dtd">
<svg xmlns:xlink="http://www.w3.org/1999/xlink" width="720pt" height="504pt" viewBox="0 0 720 504" xmlns="http://www.w3.org/2000/svg" version="1.1">
 <metadata>
  <rdf:RDF xmlns:dc="http://purl.org/dc/elements/1.1/" xmlns:cc="http://creativecommons.org/ns#" xmlns:rdf="http://www.w3.org/1999/02/22-rdf-syntax-ns#">
   <cc:Work>
    <dc:type rdf:resource="http://purl.org/dc/dcmitype/StillImage"/>
    <dc:date>2024-02-15T17:06:41.946721</dc:date>
    <dc:format>image/svg+xml</dc:format>
    <dc:creator>
     <cc:Agent>
      <dc:title>Matplotlib v3.5.1, https://matplotlib.org/</dc:title>
     </cc:Agent>
    </dc:creator>
   </cc:Work>
  </rdf:RDF>
 </metadata>
 <defs>
  <style type="text/css">*{stroke-linejoin: round; stroke-linecap: butt}</style>
 </defs>
 <g id="figure_1">
  <g id="patch_1">
   <path d="M 0 504 
L 720 504 
L 720 0 
L 0 0 
z
" style="fill: #ffffff"/>
  </g>
  <g id="patch_2">
   <path d="M 174.96 448.56 
L 563.04 448.56 
L 563.04 60.48 
L 174.96 60.48 
z
" style="fill: #ffffff"/>
  </g>
  <g id="pane3d_1">
   <g id="patch_3">
    <path d="M 469.28228 311.722272 
L 610.574867 411.376013 
L 618.92447 140.508855 
L 472.163932 76.237185 
" style="fill: #f2f2f2; opacity: 0.5; stroke: #f2f2f2; stroke-linejoin: miter"/>
   </g>
  </g>
  <g id="pane3d_2">
   <g id="patch_4">
    <path d="M 469.28228 311.722272 
L 159.6887 344.651347 
L 152.829168 97.405879 
L 472.163932 76.237185 
" style="fill: #e6e6e6; opacity: 0.5; stroke: #e6e6e6; stroke-linejoin: miter"/>
   </g>
  </g>
  <g id="pane3d_3">
   <g id="patch_5">
    <path d="M 469.28228 311.722272 
L 159.6887 344.651347 
L 257.246697 456.027861 
L 610.574867 411.376013 
" style="fill: #ececec; opacity: 0.5; stroke: #ececec; stroke-linejoin: miter"/>
   </g>
  </g>
  <g id="axis3d_1">
   <g id="line2d_1">
    <path d="M 610.574867 411.376013 
L 257.246697 456.027861 
" style="fill: none; stroke: #000000; stroke-width: 0.8; stroke-linecap: square"/>
   </g>
   <g id="text_1">
    <!-- Time (s) -->
    <g transform="translate(436.754141 487.499467)rotate(-7.202573)scale(0.1 -0.1)">
     <defs>
      <path id="DejaVuSans-54" d="M -19 4666 
L 3928 4666 
L 3928 4134 
L 2272 4134 
L 2272 0 
L 1638 0 
L 1638 4134 
L -19 4134 
L -19 4666 
z
" transform="scale(0.015625)"/>
      <path id="DejaVuSans-69" d="M 603 3500 
L 1178 3500 
L 1178 0 
L 603 0 
L 603 3500 
z
M 603 4863 
L 1178 4863 
L 1178 4134 
L 603 4134 
L 603 4863 
z
" transform="scale(0.015625)"/>
      <path id="DejaVuSans-6d" d="M 3328 2828 
Q 3544 3216 3844 3400 
Q 4144 3584 4550 3584 
Q 5097 3584 5394 3201 
Q 5691 2819 5691 2113 
L 5691 0 
L 5113 0 
L 5113 2094 
Q 5113 2597 4934 2840 
Q 4756 3084 4391 3084 
Q 3944 3084 3684 2787 
Q 3425 2491 3425 1978 
L 3425 0 
L 2847 0 
L 2847 2094 
Q 2847 2600 2669 2842 
Q 2491 3084 2119 3084 
Q 1678 3084 1418 2786 
Q 1159 2488 1159 1978 
L 1159 0 
L 581 0 
L 581 3500 
L 1159 3500 
L 1159 2956 
Q 1356 3278 1631 3431 
Q 1906 3584 2284 3584 
Q 2666 3584 2933 3390 
Q 3200 3197 3328 2828 
z
" transform="scale(0.015625)"/>
      <path id="DejaVuSans-65" d="M 3597 1894 
L 3597 1613 
L 953 1613 
Q 991 1019 1311 708 
Q 1631 397 2203 397 
Q 2534 397 2845 478 
Q 3156 559 3463 722 
L 3463 178 
Q 3153 47 2828 -22 
Q 2503 -91 2169 -91 
Q 1331 -91 842 396 
Q 353 884 353 1716 
Q 353 2575 817 3079 
Q 1281 3584 2069 3584 
Q 2775 3584 3186 3129 
Q 3597 2675 3597 1894 
z
M 3022 2063 
Q 3016 2534 2758 2815 
Q 2500 3097 2075 3097 
Q 1594 3097 1305 2825 
Q 1016 2553 972 2059 
L 3022 2063 
z
" transform="scale(0.015625)"/>
      <path id="DejaVuSans-20" transform="scale(0.015625)"/>
      <path id="DejaVuSans-28" d="M 1984 4856 
Q 1566 4138 1362 3434 
Q 1159 2731 1159 2009 
Q 1159 1288 1364 580 
Q 1569 -128 1984 -844 
L 1484 -844 
Q 1016 -109 783 600 
Q 550 1309 550 2009 
Q 550 2706 781 3412 
Q 1013 4119 1484 4856 
L 1984 4856 
z
" transform="scale(0.015625)"/>
      <path id="DejaVuSans-73" d="M 2834 3397 
L 2834 2853 
Q 2591 2978 2328 3040 
Q 2066 3103 1784 3103 
Q 1356 3103 1142 2972 
Q 928 2841 928 2578 
Q 928 2378 1081 2264 
Q 1234 2150 1697 2047 
L 1894 2003 
Q 2506 1872 2764 1633 
Q 3022 1394 3022 966 
Q 3022 478 2636 193 
Q 2250 -91 1575 -91 
Q 1294 -91 989 -36 
Q 684 19 347 128 
L 347 722 
Q 666 556 975 473 
Q 1284 391 1588 391 
Q 1994 391 2212 530 
Q 2431 669 2431 922 
Q 2431 1156 2273 1281 
Q 2116 1406 1581 1522 
L 1381 1569 
Q 847 1681 609 1914 
Q 372 2147 372 2553 
Q 372 3047 722 3315 
Q 1072 3584 1716 3584 
Q 2034 3584 2315 3537 
Q 2597 3491 2834 3397 
z
" transform="scale(0.015625)"/>
      <path id="DejaVuSans-29" d="M 513 4856 
L 1013 4856 
Q 1481 4119 1714 3412 
Q 1947 2706 1947 2009 
Q 1947 1309 1714 600 
Q 1481 -109 1013 -844 
L 513 -844 
Q 928 -128 1133 580 
Q 1338 1288 1338 2009 
Q 1338 2731 1133 3434 
Q 928 4138 513 4856 
z
" transform="scale(0.015625)"/>
     </defs>
     <use xlink:href="#DejaVuSans-54"/>
     <use xlink:href="#DejaVuSans-69" x="57.958984"/>
     <use xlink:href="#DejaVuSans-6d" x="85.742188"/>
     <use xlink:href="#DejaVuSans-65" x="183.154297"/>
     <use xlink:href="#DejaVuSans-20" x="244.677734"/>
     <use xlink:href="#DejaVuSans-28" x="276.464844"/>
     <use xlink:href="#DejaVuSans-73" x="315.478516"/>
     <use xlink:href="#DejaVuSans-29" x="367.578125"/>
    </g>
   </g>
   <g id="Line3DCollection_1">
    <path d="M 577.099664 415.606442 
L 439.725493 314.865999 
L 441.721251 78.255229 
" style="fill: none; stroke: #b0b0b0; stroke-width: 0.8"/>
    <path d="M 508.962088 424.217328 
L 379.710154 321.249366 
L 379.87849 82.354785 
" style="fill: none; stroke: #b0b0b0; stroke-width: 0.8"/>
    <path d="M 439.194278 433.034235 
L 318.461579 327.763903 
L 316.72539 86.541202 
" style="fill: none; stroke: #b0b0b0; stroke-width: 0.8"/>
    <path d="M 367.73702 442.064647 
L 255.94136 334.413696 
L 252.219859 90.817272 
" style="fill: none; stroke: #b0b0b0; stroke-width: 0.8"/>
    <path d="M 294.528196 451.316412 
L 192.10948 341.202999 
L 186.317982 95.185906 
" style="fill: none; stroke: #b0b0b0; stroke-width: 0.8"/>
   </g>
   <g id="xtick_1">
    <g id="line2d_2">
     <path d="M 575.82592 414.672369 
L 579.65699 417.481803 
" style="fill: none; stroke: #000000; stroke-width: 0.8; stroke-linecap: square"/>
    </g>
    <g id="text_2">
     <!-- −1.0 -->
     <g transform="translate(573.695243 444.976684)scale(0.1 -0.1)">
      <defs>
       <path id="DejaVuSans-2212" d="M 678 2272 
L 4684 2272 
L 4684 1741 
L 678 1741 
L 678 2272 
z
" transform="scale(0.015625)"/>
       <path id="DejaVuSans-31" d="M 794 531 
L 1825 531 
L 1825 4091 
L 703 3866 
L 703 4441 
L 1819 4666 
L 2450 4666 
L 2450 531 
L 3481 531 
L 3481 0 
L 794 0 
L 794 531 
z
" transform="scale(0.015625)"/>
       <path id="DejaVuSans-2e" d="M 684 794 
L 1344 794 
L 1344 0 
L 684 0 
L 684 794 
z
" transform="scale(0.015625)"/>
       <path id="DejaVuSans-30" d="M 2034 4250 
Q 1547 4250 1301 3770 
Q 1056 3291 1056 2328 
Q 1056 1369 1301 889 
Q 1547 409 2034 409 
Q 2525 409 2770 889 
Q 3016 1369 3016 2328 
Q 3016 3291 2770 3770 
Q 2525 4250 2034 4250 
z
M 2034 4750 
Q 2819 4750 3233 4129 
Q 3647 3509 3647 2328 
Q 3647 1150 3233 529 
Q 2819 -91 2034 -91 
Q 1250 -91 836 529 
Q 422 1150 422 2328 
Q 422 3509 836 4129 
Q 1250 4750 2034 4750 
z
" transform="scale(0.015625)"/>
      </defs>
      <use xlink:href="#DejaVuSans-2212"/>
      <use xlink:href="#DejaVuSans-31" x="83.789062"/>
      <use xlink:href="#DejaVuSans-2e" x="147.412109"/>
      <use xlink:href="#DejaVuSans-30" x="179.199219"/>
     </g>
    </g>
   </g>
   <g id="xtick_2">
    <g id="line2d_3">
     <path d="M 507.761713 423.261055 
L 511.372219 426.137348 
" style="fill: none; stroke: #000000; stroke-width: 0.8; stroke-linecap: square"/>
    </g>
    <g id="text_3">
     <!-- −0.5 -->
     <g transform="translate(505.163161 453.90983)scale(0.1 -0.1)">
      <defs>
       <path id="DejaVuSans-35" d="M 691 4666 
L 3169 4666 
L 3169 4134 
L 1269 4134 
L 1269 2991 
Q 1406 3038 1543 3061 
Q 1681 3084 1819 3084 
Q 2600 3084 3056 2656 
Q 3513 2228 3513 1497 
Q 3513 744 3044 326 
Q 2575 -91 1722 -91 
Q 1428 -91 1123 -41 
Q 819 9 494 109 
L 494 744 
Q 775 591 1075 516 
Q 1375 441 1709 441 
Q 2250 441 2565 725 
Q 2881 1009 2881 1497 
Q 2881 1984 2565 2268 
Q 2250 2553 1709 2553 
Q 1456 2553 1204 2497 
Q 953 2441 691 2322 
L 691 4666 
z
" transform="scale(0.015625)"/>
      </defs>
      <use xlink:href="#DejaVuSans-2212"/>
      <use xlink:href="#DejaVuSans-30" x="83.789062"/>
      <use xlink:href="#DejaVuSans-2e" x="147.412109"/>
      <use xlink:href="#DejaVuSans-35" x="179.199219"/>
     </g>
    </g>
   </g>
   <g id="xtick_3">
    <g id="line2d_4">
     <path d="M 438.071165 432.054961 
L 441.449386 435.000529 
" style="fill: none; stroke: #000000; stroke-width: 0.8; stroke-linecap: square"/>
    </g>
    <g id="text_4">
     <!-- 0.0 -->
     <g transform="translate(439.169109 463.058289)scale(0.1 -0.1)">
      <use xlink:href="#DejaVuSans-30"/>
      <use xlink:href="#DejaVuSans-2e" x="63.623047"/>
      <use xlink:href="#DejaVuSans-30" x="95.410156"/>
     </g>
    </g>
   </g>
   <g id="xtick_4">
    <g id="line2d_5">
     <path d="M 366.695283 441.061531 
L 369.828832 444.078907 
" style="fill: none; stroke: #000000; stroke-width: 0.8; stroke-linecap: square"/>
    </g>
    <g id="text_5">
     <!-- 0.5 -->
     <g transform="translate(367.272952 472.429942)scale(0.1 -0.1)">
      <use xlink:href="#DejaVuSans-30"/>
      <use xlink:href="#DejaVuSans-2e" x="63.623047"/>
      <use xlink:href="#DejaVuSans-35" x="95.410156"/>
     </g>
    </g>
   </g>
   <g id="xtick_5">
    <g id="line2d_6">
     <path d="M 293.572183 450.288574 
L 296.447968 453.380416 
" style="fill: none; stroke: #000000; stroke-width: 0.8; stroke-linecap: square"/>
    </g>
    <g id="text_6">
     <!-- 1.0 -->
     <g transform="translate(293.601098 482.033057)scale(0.1 -0.1)">
      <use xlink:href="#DejaVuSans-31"/>
      <use xlink:href="#DejaVuSans-2e" x="63.623047"/>
      <use xlink:href="#DejaVuSans-30" x="95.410156"/>
     </g>
    </g>
   </g>
  </g>
  <g id="axis3d_2">
   <g id="line2d_7">
    <path d="M 159.6887 344.651347 
L 257.246697 456.027861 
" style="fill: none; stroke: #000000; stroke-width: 0.8; stroke-linecap: square"/>
   </g>
   <g id="text_7">
    <!-- Position (X) -->
    <g transform="translate(141.317716 413.286557)rotate(-311.216081)scale(0.1 -0.1)">
     <defs>
      <path id="DejaVuSans-50" d="M 1259 4147 
L 1259 2394 
L 2053 2394 
Q 2494 2394 2734 2622 
Q 2975 2850 2975 3272 
Q 2975 3691 2734 3919 
Q 2494 4147 2053 4147 
L 1259 4147 
z
M 628 4666 
L 2053 4666 
Q 2838 4666 3239 4311 
Q 3641 3956 3641 3272 
Q 3641 2581 3239 2228 
Q 2838 1875 2053 1875 
L 1259 1875 
L 1259 0 
L 628 0 
L 628 4666 
z
" transform="scale(0.015625)"/>
      <path id="DejaVuSans-6f" d="M 1959 3097 
Q 1497 3097 1228 2736 
Q 959 2375 959 1747 
Q 959 1119 1226 758 
Q 1494 397 1959 397 
Q 2419 397 2687 759 
Q 2956 1122 2956 1747 
Q 2956 2369 2687 2733 
Q 2419 3097 1959 3097 
z
M 1959 3584 
Q 2709 3584 3137 3096 
Q 3566 2609 3566 1747 
Q 3566 888 3137 398 
Q 2709 -91 1959 -91 
Q 1206 -91 779 398 
Q 353 888 353 1747 
Q 353 2609 779 3096 
Q 1206 3584 1959 3584 
z
" transform="scale(0.015625)"/>
      <path id="DejaVuSans-74" d="M 1172 4494 
L 1172 3500 
L 2356 3500 
L 2356 3053 
L 1172 3053 
L 1172 1153 
Q 1172 725 1289 603 
Q 1406 481 1766 481 
L 2356 481 
L 2356 0 
L 1766 0 
Q 1100 0 847 248 
Q 594 497 594 1153 
L 594 3053 
L 172 3053 
L 172 3500 
L 594 3500 
L 594 4494 
L 1172 4494 
z
" transform="scale(0.015625)"/>
      <path id="DejaVuSans-6e" d="M 3513 2113 
L 3513 0 
L 2938 0 
L 2938 2094 
Q 2938 2591 2744 2837 
Q 2550 3084 2163 3084 
Q 1697 3084 1428 2787 
Q 1159 2491 1159 1978 
L 1159 0 
L 581 0 
L 581 3500 
L 1159 3500 
L 1159 2956 
Q 1366 3272 1645 3428 
Q 1925 3584 2291 3584 
Q 2894 3584 3203 3211 
Q 3513 2838 3513 2113 
z
" transform="scale(0.015625)"/>
      <path id="DejaVuSans-58" d="M 403 4666 
L 1081 4666 
L 2241 2931 
L 3406 4666 
L 4084 4666 
L 2584 2425 
L 4184 0 
L 3506 0 
L 2194 1984 
L 872 0 
L 191 0 
L 1856 2491 
L 403 4666 
z
" transform="scale(0.015625)"/>
     </defs>
     <use xlink:href="#DejaVuSans-50"/>
     <use xlink:href="#DejaVuSans-6f" x="56.677734"/>
     <use xlink:href="#DejaVuSans-73" x="117.859375"/>
     <use xlink:href="#DejaVuSans-69" x="169.958984"/>
     <use xlink:href="#DejaVuSans-74" x="197.742188"/>
     <use xlink:href="#DejaVuSans-69" x="236.951172"/>
     <use xlink:href="#DejaVuSans-6f" x="264.734375"/>
     <use xlink:href="#DejaVuSans-6e" x="325.916016"/>
     <use xlink:href="#DejaVuSans-20" x="389.294922"/>
     <use xlink:href="#DejaVuSans-28" x="421.082031"/>
     <use xlink:href="#DejaVuSans-58" x="460.095703"/>
     <use xlink:href="#DejaVuSans-29" x="528.601562"/>
    </g>
   </g>
   <g id="Line3DCollection_2">
    <path d="M 484.940352 81.832435 
L 481.637253 320.436241 
L 168.153869 354.315557 
" style="fill: none; stroke: #b0b0b0; stroke-width: 0.8"/>
    <path d="M 511.628344 93.520057 
L 507.411211 338.614628 
L 185.853413 374.522137 
" style="fill: none; stroke: #b0b0b0; stroke-width: 0.8"/>
    <path d="M 539.945352 105.921084 
L 534.708674 357.867544 
L 204.658652 395.991028 
" style="fill: none; stroke: #b0b0b0; stroke-width: 0.8"/>
    <path d="M 570.045222 119.10289 
L 563.668838 378.293164 
L 224.676537 418.844329 
" style="fill: none; stroke: #b0b0b0; stroke-width: 0.8"/>
    <path d="M 602.101803 133.14161 
L 594.448388 400.001998 
L 246.02827 443.22041 
" style="fill: none; stroke: #b0b0b0; stroke-width: 0.8"/>
   </g>
   <g id="xtick_6">
    <g id="line2d_8">
     <path d="M 170.794779 354.030144 
L 162.865261 354.887117 
" style="fill: none; stroke: #000000; stroke-width: 0.8; stroke-linecap: square"/>
    </g>
    <g id="text_8">
     <!-- −1.0 -->
     <g transform="translate(137.567888 377.779051)scale(0.1 -0.1)">
      <use xlink:href="#DejaVuSans-2212"/>
      <use xlink:href="#DejaVuSans-31" x="83.789062"/>
      <use xlink:href="#DejaVuSans-2e" x="147.412109"/>
      <use xlink:href="#DejaVuSans-30" x="179.199219"/>
     </g>
    </g>
   </g>
   <g id="xtick_7">
    <g id="line2d_9">
     <path d="M 188.566477 374.219177 
L 180.4201 375.128861 
" style="fill: none; stroke: #000000; stroke-width: 0.8; stroke-linecap: square"/>
    </g>
    <g id="text_9">
     <!-- −0.5 -->
     <g transform="translate(154.730963 398.492961)scale(0.1 -0.1)">
      <use xlink:href="#DejaVuSans-2212"/>
      <use xlink:href="#DejaVuSans-30" x="83.789062"/>
      <use xlink:href="#DejaVuSans-2e" x="147.412109"/>
      <use xlink:href="#DejaVuSans-35" x="179.199219"/>
     </g>
    </g>
   </g>
   <g id="xtick_8">
    <g id="line2d_10">
     <path d="M 207.447873 395.66885 
L 199.072593 396.636264 
" style="fill: none; stroke: #000000; stroke-width: 0.8; stroke-linecap: square"/>
    </g>
    <g id="text_10">
     <!-- 0.0 -->
     <g transform="translate(177.157495 420.502603)scale(0.1 -0.1)">
      <use xlink:href="#DejaVuSans-30"/>
      <use xlink:href="#DejaVuSans-2e" x="63.623047"/>
      <use xlink:href="#DejaVuSans-30" x="95.410156"/>
     </g>
    </g>
   </g>
   <g id="xtick_9">
    <g id="line2d_11">
     <path d="M 227.546254 418.501046 
L 218.929012 419.531863 
" style="fill: none; stroke: #000000; stroke-width: 0.8; stroke-linecap: square"/>
    </g>
    <g id="text_11">
     <!-- 0.5 -->
     <g transform="translate(196.571788 443.933481)scale(0.1 -0.1)">
      <use xlink:href="#DejaVuSans-30"/>
      <use xlink:href="#DejaVuSans-2e" x="63.623047"/>
      <use xlink:href="#DejaVuSans-35" x="95.410156"/>
     </g>
    </g>
   </g>
   <g id="xtick_10">
    <g id="line2d_12">
     <path d="M 248.983198 442.853877 
L 240.109806 443.954543 
" style="fill: none; stroke: #000000; stroke-width: 0.8; stroke-linecap: square"/>
    </g>
    <g id="text_12">
     <!-- 1.0 -->
     <g transform="translate(217.281553 468.92785)scale(0.1 -0.1)">
      <use xlink:href="#DejaVuSans-31"/>
      <use xlink:href="#DejaVuSans-2e" x="63.623047"/>
      <use xlink:href="#DejaVuSans-30" x="95.410156"/>
     </g>
    </g>
   </g>
  </g>
  <g id="axis3d_3">
   <g id="line2d_13">
    <path d="M 159.6887 344.651347 
L 152.829168 97.405879 
" style="fill: none; stroke: #000000; stroke-width: 0.8; stroke-linecap: square"/>
   </g>
   <g id="text_13">
    <!-- Position (Y) -->
    <g transform="translate(101.978427 188.921446)rotate(-271.589196)scale(0.1 -0.1)">
     <defs>
      <path id="DejaVuSans-59" d="M -13 4666 
L 666 4666 
L 1959 2747 
L 3244 4666 
L 3922 4666 
L 2272 2222 
L 2272 0 
L 1638 0 
L 1638 2222 
L -13 4666 
z
" transform="scale(0.015625)"/>
     </defs>
     <use xlink:href="#DejaVuSans-50"/>
     <use xlink:href="#DejaVuSans-6f" x="56.677734"/>
     <use xlink:href="#DejaVuSans-73" x="117.859375"/>
     <use xlink:href="#DejaVuSans-69" x="169.958984"/>
     <use xlink:href="#DejaVuSans-74" x="197.742188"/>
     <use xlink:href="#DejaVuSans-69" x="236.951172"/>
     <use xlink:href="#DejaVuSans-6f" x="264.734375"/>
     <use xlink:href="#DejaVuSans-6e" x="325.916016"/>
     <use xlink:href="#DejaVuSans-20" x="389.294922"/>
     <use xlink:href="#DejaVuSans-28" x="421.082031"/>
     <use xlink:href="#DejaVuSans-59" x="460.095703"/>
     <use xlink:href="#DejaVuSans-29" x="521.179688"/>
    </g>
   </g>
   <g id="Line3DCollection_3">
    <path d="M 159.555677 339.856662 
L 469.33825 307.148479 
L 610.736271 406.139961 
" style="fill: none; stroke: #b0b0b0; stroke-width: 0.8"/>
    <path d="M 158.21632 291.58078 
L 469.901597 261.112496 
L 612.362517 353.383373 
" style="fill: none; stroke: #b0b0b0; stroke-width: 0.8"/>
    <path d="M 156.860147 242.698768 
L 470.471657 214.527818 
L 614.011283 299.896196 
" style="fill: none; stroke: #b0b0b0; stroke-width: 0.8"/>
    <path d="M 155.486838 193.19914 
L 471.048553 167.384577 
L 615.683042 245.663149 
" style="fill: none; stroke: #b0b0b0; stroke-width: 0.8"/>
    <path d="M 154.096068 143.070114 
L 471.632408 119.672667 
L 617.378276 190.668518 
" style="fill: none; stroke: #b0b0b0; stroke-width: 0.8"/>
   </g>
   <g id="xtick_11">
    <g id="line2d_14">
     <path d="M 162.163587 339.581307 
L 154.333248 340.408068 
" style="fill: none; stroke: #000000; stroke-width: 0.8; stroke-linecap: square"/>
    </g>
    <g id="text_14">
     <!-- 0.0 -->
     <g transform="translate(128.422226 344.049429)scale(0.1 -0.1)">
      <use xlink:href="#DejaVuSans-30"/>
      <use xlink:href="#DejaVuSans-2e" x="63.623047"/>
      <use xlink:href="#DejaVuSans-30" x="95.410156"/>
     </g>
    </g>
   </g>
   <g id="xtick_12">
    <g id="line2d_15">
     <path d="M 160.841061 291.324202 
L 152.960144 292.094589 
" style="fill: none; stroke: #000000; stroke-width: 0.8; stroke-linecap: square"/>
    </g>
    <g id="text_15">
     <!-- 0.5 -->
     <g transform="translate(126.946038 296.005884)scale(0.1 -0.1)">
      <use xlink:href="#DejaVuSans-30"/>
      <use xlink:href="#DejaVuSans-2e" x="63.623047"/>
      <use xlink:href="#DejaVuSans-35" x="95.410156"/>
     </g>
    </g>
   </g>
   <g id="xtick_13">
    <g id="line2d_16">
     <path d="M 159.501938 242.461463 
L 151.569785 243.173988 
" style="fill: none; stroke: #000000; stroke-width: 0.8; stroke-linecap: square"/>
    </g>
    <g id="text_16">
     <!-- 1.0 -->
     <g transform="translate(125.451413 247.362312)scale(0.1 -0.1)">
      <use xlink:href="#DejaVuSans-31"/>
      <use xlink:href="#DejaVuSans-2e" x="63.623047"/>
      <use xlink:href="#DejaVuSans-30" x="95.410156"/>
     </g>
    </g>
   </g>
   <g id="xtick_14">
    <g id="line2d_17">
     <path d="M 158.145902 192.981615 
L 150.161844 193.634751 
" style="fill: none; stroke: #000000; stroke-width: 0.8; stroke-linecap: square"/>
    </g>
    <g id="text_17">
     <!-- 1.5 -->
     <g transform="translate(123.938005 198.107404)scale(0.1 -0.1)">
      <use xlink:href="#DejaVuSans-31"/>
      <use xlink:href="#DejaVuSans-2e" x="63.623047"/>
      <use xlink:href="#DejaVuSans-35" x="95.410156"/>
     </g>
    </g>
   </g>
   <g id="xtick_15">
    <g id="line2d_18">
     <path d="M 156.772631 142.872894 
L 148.735985 143.465068 
" style="fill: none; stroke: #000000; stroke-width: 0.8; stroke-linecap: square"/>
    </g>
    <g id="text_18">
     <!-- 2.0 -->
     <g transform="translate(122.405456 148.229562)scale(0.1 -0.1)">
      <defs>
       <path id="DejaVuSans-32" d="M 1228 531 
L 3431 531 
L 3431 0 
L 469 0 
L 469 531 
Q 828 903 1448 1529 
Q 2069 2156 2228 2338 
Q 2531 2678 2651 2914 
Q 2772 3150 2772 3378 
Q 2772 3750 2511 3984 
Q 2250 4219 1831 4219 
Q 1534 4219 1204 4116 
Q 875 4013 500 3803 
L 500 4441 
Q 881 4594 1212 4672 
Q 1544 4750 1819 4750 
Q 2544 4750 2975 4387 
Q 3406 4025 3406 3419 
Q 3406 3131 3298 2873 
Q 3191 2616 2906 2266 
Q 2828 2175 2409 1742 
Q 1991 1309 1228 531 
z
" transform="scale(0.015625)"/>
      </defs>
      <use xlink:href="#DejaVuSans-32"/>
      <use xlink:href="#DejaVuSans-2e" x="63.623047"/>
      <use xlink:href="#DejaVuSans-30" x="95.410156"/>
     </g>
    </g>
   </g>
  </g>
  <g id="axes_1">
   <g id="line2d_19">
    <path d="M 232.675181 239.14144 
L 233.275542 239.128519 
L 234.385358 239.501144 
L 235.49751 239.135257 
L 235.853645 239.503987 
L 237.05994 239.299061 
L 238.028782 239.435541 
L 239.160623 239.913975 
L 240.535549 240.679444 
L 240.532237 240.485324 
L 244.706937 243.377819 
L 245.315453 244.006384 
L 247.047002 245.406379 
L 250.027896 247.244368 
L 250.51794 248.034734 
L 250.528319 248.69153 
L 252.118992 250.31483 
L 253.723435 251.743109 
L 257.169051 254.107184 
L 257.185141 255.182478 
L 259.331859 257.097377 
L 261.2367 258.225363 
L 264.864293 260.711107 
L 267.329054 262.732696 
L 271.25084 266.838277 
L 280.871344 275.503592 
L 281.677082 277.52856 
L 281.677082 277.52856 
L 285.752635 280.363724 
L 287.027881 282.671559 
L 292.082903 286.813175 
L 293.35713 287.026926 
L 295.564448 289.580557 
L 300.846843 294.029634 
L 304.059084 297.792849 
L 309.652277 301.767257 
L 317.869349 304.285545 
L 322.806331 308.597924 
L 326.90832 313.01961 
L 329.991236 315.360953 
L 336.868671 317.421269 
L 336.877442 319.242582 
L 338.462594 321.493112 
L 341.689617 322.968328 
L 344.468051 324.974178 
L 354.57033 326.480682 
L 359.722855 330.813843 
L 359.726252 332.626357 
L 363.190207 332.604546 
L 365.556836 334.00774 
L 372.579417 334.927372 
L 376.11785 337.002318 
L 379.616092 338.245775 
L 379.616092 338.245775 
L 382.544987 339.007167 
L 386.608565 339.769484 
L 393.567113 340.115776 
L 402.250292 341.044545 
L 403.98808 342.003981 
L 403.98808 342.003981 
L 405.69338 341.897881 
L 405.691741 342.301161 
L 411.9881 342.170462 
L 418.886674 341.820443 
L 421.148803 341.83152 
L 427.943187 341.114014 
L 431.33558 340.658292 
L 438.915686 338.81901 
L 441.083424 338.041977 
L 444.20897 337.100355 
L 449.823764 335.535623 
L 451.790133 334.557958 
L 452.7719 333.553223 
L 459.808718 331.274037 
L 464.691108 328.530335 
L 467.763898 325.533568 
L 470.277939 323.697854 
L 475.157116 320.887225 
L 481.676225 315.213197 
L 484.610267 310.492404 
L 484.631474 308.99983 
L 484.631474 308.99983 
L 486.742263 308.244199 
L 488.846876 305.291234 
L 490.919255 301.090135 
L 492.863445 300.312391 
L 495.756465 295.077614 
L 498.498185 291.96966 
L 499.37691 289.661107 
L 500.794626 289.014467 
L 503.480131 284.457293 
L 507.694493 280.252157 
L 508.396238 273.667969 
L 510.58565 270.730436 
L 511.127408 268.463038 
L 512.311949 265.161653 
L 513.596394 260.806728 
L 514.16697 257.756653 
L 514.886319 254.883618 
L 515.428159 251.839902 
L 515.641417 249.816992 
L 515.716119 248.004169 
L 515.93803 247.376544 
L 516.299076 242.502312 
L 516.425075 238.515158 
L 516.344873 235.847146 
L 516.216613 232.573137 
L 515.357612 228.052175 
L 514.999327 226.949917 
L 514.462811 224.897048 
L 513.668857 222.853954 
L 513.682681 222.075079 
L 511.737531 218.537419 
L 511.150964 218.18436 
L 509.841918 216.630073 
L 508.359487 215.477966 
L 506.010598 214.122933 
L 504.719245 213.57196 
L 504.015766 213.410284 
L 503.322084 213.114967 
L 495.84697 211.775044 
L 494.961515 212.759226 
L 492.86058 212.782455 
L 488.153553 212.315759 
L 483.028516 213.805591 
L 482.34745 214.933531 
L 480.82839 215.990335 
L 476.32748 216.21784 
L 473.965141 217.022864 
L 467.946043 220.461649 
L 466.64223 221.623638 
L 465.433514 221.451704 
L 464.139945 223.21068 
L 463.299223 223.107409 
L 460.307162 224.301327 
L 456.441858 227.338998 
L 455.586707 227.250569 
L 451.227448 228.332848 
L 450.355205 229.372918 
L 445.906081 232.476228 
L 445.047998 232.381423 
L 442.357053 234.139132 
L 439.28193 235.71053 
L 437.044573 237.495682 
L 434.351322 238.89868 
L 431.135854 240.309728 
L 428.46086 241.983764 
L 427.048414 243.647961 
L 424.376399 245.142512 
L 421.66591 246.429393 
L 419.360113 248.051603 
L 416.122107 249.334465 
L 413.290326 250.857319 
L 406.083479 253.44138 
L 401.658306 254.812345 
L 398.203997 255.696413 
L 392.144531 258.160498 
L 388.61225 261.201699 
L 385.053797 262.439023 
L 378.924147 263.744052 
L 370.169589 268.180659 
L 362.936241 269.878855 
L 360.312485 270.799525 
L 358.801033 270.864902 
L 355.646788 272.087332 
L 354.07769 272.166675 
L 352.494748 272.846977 
L 346.614648 273.998357 
L 336.405258 275.345916 
L 326.705292 276.211953 
L 320.848698 276.390178 
L 312.555973 276.73306 
L 302.588344 276.492183 
L 299.793452 275.640413 
L 293.779168 276.734762 
L 291.49354 274.608706 
L 289.720529 274.969457 
L 288.813841 273.754754 
L 286.301641 273.032664 
L 284.998851 273.343647 
L 282.020706 272.871162 
L 280.823917 271.750573 
L 278.653752 270.964039 
L 275.056601 270.498626 
L 273.49871 269.439107 
L 265.393635 268.587434 
L 262.330935 264.6221 
L 260.921688 265.101219 
L 256.702696 264.585432 
L 254.650381 261.897697 
L 253.663327 262.286217 
L 251.696471 259.238792 
L 247.504495 259.202327 
L 245.80059 256.916305 
L 244.755789 257.42792 
L 243.441016 253.925828 
L 242.477376 254.452421 
L 239.779563 252.106368 
L 239.174016 250.612949 
L 237.509016 250.131697 
L 236.479419 248.979747 
L 235.138483 246.783894 
L 233.981923 246.322443 
L 233.502694 245.064223 
L 232.981893 244.048294 
L 232.265695 243.791255 
L 231.858417 241.771291 
L 231.528377 241.435863 
L 231.197898 241.913133 
L 231.211133 239.812083 
L 231.211133 239.812083 
" clip-path="url(#p9df7d23800)" style="fill: none; stroke-dasharray: 12.8,3.2,2,3.2; stroke-dashoffset: 0; stroke: #ff0000; stroke-width: 2"/>
   </g>
   <g id="line2d_20">
    <path d="M 237.609614 242.8263 
L 240.183868 242.268629 
L 243.039467 241.29349 
L 239.934416 241.654866 
L 239.934416 241.654866 
L 238.918647 242.636089 
L 243.106773 242.656597 
L 247.116386 243.434672 
L 242.846821 244.856168 
L 243.705607 244.535027 
L 249.814374 244.873196 
L 248.334612 245.577128 
L 252.241877 244.826845 
L 251.336108 247.40121 
L 251.537231 247.67923 
L 248.137103 248.685899 
L 254.544281 249.013021 
L 255.067071 250.809986 
L 250.103933 252.699153 
L 251.089349 253.860223 
L 251.81515 254.2515 
L 258.276776 255.95285 
L 255.32291 258.520316 
L 256.98824 259.625603 
L 253.900872 260.998784 
L 258.6691 262.283381 
L 260.813209 264.984058 
L 264.363412 267.104874 
L 268.826885 267.953332 
L 267.323879 274.207387 
L 267.308665 277.791415 
L 275.437154 281.72478 
L 275.437154 281.72478 
L 281.939178 284.635728 
L 291.978086 285.96345 
L 295.945905 288.519694 
L 293.613457 291.326115 
L 293.613457 291.326115 
L 296.064385 292.261351 
L 296.434088 295.22682 
L 301.268818 296.607683 
L 310.356435 299.852205 
L 312.10296 301.738849 
L 315.588865 304.445614 
L 319.68436 307.90856 
L 322.995993 309.900173 
L 323.05408 313.337239 
L 326.509037 315.24565 
L 331.777 317.527985 
L 336.002596 318.934139 
L 337.329958 322.955509 
L 341.737906 324.452311 
L 344.099655 327.96603 
L 348.511476 329.126648 
L 353.956907 333.414594 
L 361.919185 334.765693 
L 361.919185 334.765693 
L 370.115889 335.52336 
L 374.860005 336.793185 
L 387.01926 339.312913 
L 391.341882 340.944515 
L 391.341882 340.944515 
L 388.982462 342.320207 
L 390.243722 342.032173 
L 393.494199 342.910591 
L 411.078635 343.017343 
L 413.969321 345.374904 
L 413.969321 345.374904 
L 415.614582 346.099226 
L 419.601908 346.001153 
L 422.888268 346.710368 
L 426.563812 344.320232 
L 426.563812 344.320232 
L 426.463909 344.847443 
L 429.653077 343.411585 
L 436.010416 341.732213 
L 436.010416 341.732213 
L 438.293697 340.222497 
L 439.253831 340.219195 
L 446.016169 336.977009 
L 457.052956 334.669103 
L 460.069411 332.455008 
L 466.40387 330.334282 
L 468.521558 325.189165 
L 466.211739 323.526998 
L 471.021219 320.041676 
L 482.116834 316.074786 
L 481.711068 312.868582 
L 477.389182 310.219666 
L 477.389182 310.219666 
L 482.171823 306.299431 
L 483.798976 300.533918 
L 483.798976 300.533918 
L 492.175793 294.862968 
L 494.038227 292.267384 
L 498.308427 289.913193 
L 498.308427 289.913193 
L 505.964543 285.017002 
L 505.26712 282.591073 
L 507.405783 271.863241 
L 508.982181 271.395634 
L 509.645787 267.556434 
L 504.032077 264.983672 
L 498.260928 258.425562 
L 503.300543 255.684725 
L 504.643345 253.1971 
L 508.822042 250.555164 
L 508.878205 249.541119 
L 506.589306 246.098007 
L 506.589306 246.098007 
L 510.768884 244.46131 
L 513.220288 242.688465 
L 513.220288 242.688465 
L 512.285935 238.531022 
L 512.285935 238.531022 
L 515.397275 235.622832 
L 514.576698 230.928019 
L 513.113646 229.583406 
L 511.284575 226.949943 
L 509.753735 225.108654 
L 510.147125 221.600717 
L 511.533168 218.759536 
L 507.241607 217.835624 
L 506.658211 216.152779 
L 506.658211 216.152779 
L 503.2907 213.151731 
L 507.533159 212.579044 
L 503.811065 210.822531 
L 503.811065 210.822531 
L 500.659021 207.707483 
L 494.611383 207.639185 
L 489.239106 207.416375 
L 489.239106 207.416375 
L 494.020275 207.872408 
L 489.321796 207.821556 
L 485.555276 206.781919 
L 482.996668 207.825973 
L 481.75643 208.086483 
L 475.744958 209.995312 
L 479.562565 213.368949 
L 472.878407 214.486181 
L 475.129255 215.508484 
L 470.722245 216.99053 
L 466.295252 218.278536 
L 466.295252 218.278536 
L 462.159365 219.015294 
L 462.159365 219.015294 
L 453.326146 221.649918 
L 449.423274 225.798393 
L 449.423274 225.798393 
L 450.107877 226.872041 
L 446.564258 228.147869 
L 444.887783 229.848132 
L 440.705606 231.20062 
L 433.91643 231.591689 
L 428.013709 233.866573 
L 431.311159 236.449995 
L 427.508882 237.774047 
L 427.957176 239.593866 
L 423.646368 241.855322 
L 425.753131 243.399776 
L 416.96664 244.037496 
L 411.424185 245.531428 
L 404.564325 246.603707 
L 400.859405 249.209685 
L 395.92518 250.465706 
L 395.291873 251.888437 
L 391.231877 252.408993 
L 391.320604 253.533451 
L 386.76196 255.598122 
L 378.701714 258.206381 
L 374.065075 258.910954 
L 371.315745 263.846704 
L 362.711794 265.196481 
L 361.519243 266.604275 
L 357.424886 266.926318 
L 352.771947 267.456319 
L 352.771947 267.456319 
L 345.465352 269.843618 
L 345.465352 269.843618 
L 343.848129 270.820596 
L 333.870077 272.130028 
L 327.566165 273.794242 
L 325.947835 274.719539 
L 326.25934 275.745805 
L 321.635313 276.114249 
L 318.576907 275.573389 
L 317.523157 277.163922 
L 318.898126 277.078762 
L 316.60297 277.351904 
L 313.971892 276.557632 
L 317.7935 277.051098 
L 312.458091 276.738614 
L 302.718005 277.872557 
L 302.718005 277.872557 
L 294.032691 275.684185 
L 294.032691 275.684185 
L 293.33568 275.039141 
L 291.149743 274.323746 
L 291.149743 274.323746 
L 286.868908 273.98841 
L 280.420089 273.327923 
L 276.620238 273.68576 
L 275.246144 273.370172 
L 275.653614 271.36947 
L 273.64733 270.078358 
L 262.98036 269.141812 
L 263.40091 267.11353 
L 261.475293 266.228732 
L 251.324567 264.600045 
L 250.07867 262.424669 
L 250.07867 262.424669 
L 250.539096 261.612 
L 252.309311 260.745986 
L 252.805169 261.03632 
L 247.721578 258.105794 
L 247.721578 258.105794 
L 245.760961 255.878996 
L 245.760961 255.878996 
L 239.32781 254.980351 
L 241.647155 253.541238 
L 238.853003 252.36841 
L 236.614572 251.657671 
L 233.119312 251.128557 
L 234.548392 250.504843 
L 233.499567 250.39491 
L 238.234436 249.570264 
L 240.913768 248.210841 
L 233.646708 247.464334 
L 235.024451 246.907804 
L 237.837357 246.015294 
L 236.555518 245.041071 
L 232.784941 244.118434 
L 235.641091 243.552223 
L 229.91103 243.833368 
L 232.974816 243.19154 
L 232.974816 243.19154 
" clip-path="url(#p9df7d23800)" style="fill: none; stroke: #008000; stroke-width: 1.5; stroke-linecap: square"/>
   </g>
   <g id="line2d_21">
    <path d="M 236.581859 230.457586 
L 239.018258 232.606974 
L 244.075867 237.529851 
L 250.231723 243.947636 
L 260.870536 255.470813 
L 277.172891 273.197568 
L 287.637092 284.264448 
L 296.802839 293.625365 
L 304.845801 301.526457 
L 313.43109 309.591213 
L 319.583537 315.113091 
L 325.36716 320.093155 
L 332.148909 325.656733 
L 339.255725 331.148837 
L 346.367033 336.278158 
L 354.643301 341.759855 
L 359.643713 344.804865 
L 364.848555 347.751496 
L 369.436213 350.153817 
L 374.603843 352.63369 
L 379.255717 354.654459 
L 382.862719 356.079159 
L 386.33147 357.329004 
L 395.117381 359.947942 
L 403.096986 361.614782 
L 407.703277 362.252674 
L 413.328795 362.695138 
L 417.084159 362.777114 
L 421.771798 362.630723 
L 424.395188 362.424605 
L 427.705891 362.033438 
L 432.37409 361.225629 
L 438.459509 359.702586 
L 445.313204 357.312689 
L 446.705782 356.7353 
L 450.249342 355.120014 
L 454.876038 352.683077 
L 460.779033 349.001257 
L 462.5313 347.777581 
L 466.311839 344.921606 
L 471.665049 340.341494 
L 474.650022 337.494035 
L 477.844539 334.195203 
L 481.283918 330.331101 
L 484.806858 326.007506 
L 489.460395 319.662299 
L 491.325711 316.892843 
L 496.608434 308.230571 
L 499.437913 303.00837 
L 502.676006 296.413663 
L 507.230947 285.670384 
L 509.269694 280.093651 
L 511.404554 273.504031 
L 513.494532 265.931967 
L 514.843435 260.059952 
L 515.828414 254.876333 
L 516.535767 250.242441 
L 517.175648 244.386225 
L 517.473261 239.336828 
L 517.489045 233.936767 
L 517.258679 229.8991 
L 516.67512 225.239706 
L 515.756855 220.967159 
L 515.079091 218.708658 
L 514.231527 216.454419 
L 513.565519 214.985018 
L 512.713613 213.385473 
L 511.75909 211.877998 
L 510.85544 210.666846 
L 509.775198 209.43841 
L 508.413953 208.163513 
L 505.457272 206.180415 
L 504.294629 205.629429 
L 501.280815 204.658079 
L 498.860833 204.264328 
L 495.442314 204.165149 
L 491.648205 204.551867 
L 489.893531 204.875846 
L 487.14275 205.540274 
L 482.810245 206.916843 
L 478.726529 208.519356 
L 474.143735 210.602374 
L 467.148331 214.235903 
L 463.717451 216.175864 
L 451.870283 223.429861 
L 441.146019 230.450228 
L 414.880191 247.907527 
L 406.133175 253.462138 
L 397.072555 258.939842 
L 388.08638 264.022758 
L 381.72446 267.374087 
L 375.473203 270.442957 
L 368.941516 273.390218 
L 365.830383 274.694568 
L 359.228665 277.236373 
L 352.183301 279.589997 
L 348.463163 280.674713 
L 341.181181 282.464395 
L 333.97499 283.778134 
L 329.509449 284.352254 
L 323.165618 284.83751 
L 319.426026 284.935355 
L 314.239422 284.83143 
L 309.980659 284.53133 
L 304.28019 283.81559 
L 298.917136 282.801941 
L 293.649343 281.472339 
L 288.466806 279.828411 
L 285.733163 278.822466 
L 280.201404 276.482589 
L 275.419664 274.118962 
L 273.342324 272.989686 
L 267.756878 269.63186 
L 261.074834 264.961928 
L 256.595846 261.399868 
L 253.561346 258.772106 
L 249.915746 255.365525 
L 245.806293 251.161486 
L 241.868717 246.70846 
L 238.670921 242.708324 
L 236.871694 240.25948 
L 234.061187 236.007827 
L 232.370473 232.998161 
L 231.265121 230.505466 
L 230.850022 228.988873 
L 230.837309 228.124525 
L 231.083927 227.641048 
L 231.664204 227.466235 
L 232.599413 227.717237 
L 234.745779 229.015259 
L 235.68994 229.731921 
L 235.68994 229.731921 
" clip-path="url(#p9df7d23800)" style="fill: none; stroke-dasharray: 5.55,2.4; stroke-dashoffset: 0; stroke: #0000ff; stroke-width: 1.5"/>
   </g>
   <g id="legend_1">
    <g id="patch_6">
     <path d="M 476.960312 112.514375 
L 556.04 112.514375 
Q 558.04 112.514375 558.04 110.514375 
L 558.04 67.48 
Q 558.04 65.48 556.04 65.48 
L 476.960312 65.48 
Q 474.960312 65.48 474.960312 67.48 
L 474.960312 110.514375 
Q 474.960312 112.514375 476.960312 112.514375 
z
" style="fill: #ffffff; opacity: 0.8; stroke: #cccccc; stroke-linejoin: miter"/>
    </g>
    <g id="line2d_22">
     <path d="M 478.960312 73.578438 
L 488.960312 73.578438 
L 498.960312 73.578438 
" style="fill: none; stroke-dasharray: 12.8,3.2,2,3.2; stroke-dashoffset: 0; stroke: #ff0000; stroke-width: 2"/>
    </g>
    <g id="text_19">
     <!-- OptiTrack -->
     <g transform="translate(506.960312 77.078438)scale(0.1 -0.1)">
      <defs>
       <path id="DejaVuSans-4f" d="M 2522 4238 
Q 1834 4238 1429 3725 
Q 1025 3213 1025 2328 
Q 1025 1447 1429 934 
Q 1834 422 2522 422 
Q 3209 422 3611 934 
Q 4013 1447 4013 2328 
Q 4013 3213 3611 3725 
Q 3209 4238 2522 4238 
z
M 2522 4750 
Q 3503 4750 4090 4092 
Q 4678 3434 4678 2328 
Q 4678 1225 4090 567 
Q 3503 -91 2522 -91 
Q 1538 -91 948 565 
Q 359 1222 359 2328 
Q 359 3434 948 4092 
Q 1538 4750 2522 4750 
z
" transform="scale(0.015625)"/>
       <path id="DejaVuSans-70" d="M 1159 525 
L 1159 -1331 
L 581 -1331 
L 581 3500 
L 1159 3500 
L 1159 2969 
Q 1341 3281 1617 3432 
Q 1894 3584 2278 3584 
Q 2916 3584 3314 3078 
Q 3713 2572 3713 1747 
Q 3713 922 3314 415 
Q 2916 -91 2278 -91 
Q 1894 -91 1617 61 
Q 1341 213 1159 525 
z
M 3116 1747 
Q 3116 2381 2855 2742 
Q 2594 3103 2138 3103 
Q 1681 3103 1420 2742 
Q 1159 2381 1159 1747 
Q 1159 1113 1420 752 
Q 1681 391 2138 391 
Q 2594 391 2855 752 
Q 3116 1113 3116 1747 
z
" transform="scale(0.015625)"/>
       <path id="DejaVuSans-72" d="M 2631 2963 
Q 2534 3019 2420 3045 
Q 2306 3072 2169 3072 
Q 1681 3072 1420 2755 
Q 1159 2438 1159 1844 
L 1159 0 
L 581 0 
L 581 3500 
L 1159 3500 
L 1159 2956 
Q 1341 3275 1631 3429 
Q 1922 3584 2338 3584 
Q 2397 3584 2469 3576 
Q 2541 3569 2628 3553 
L 2631 2963 
z
" transform="scale(0.015625)"/>
       <path id="DejaVuSans-61" d="M 2194 1759 
Q 1497 1759 1228 1600 
Q 959 1441 959 1056 
Q 959 750 1161 570 
Q 1363 391 1709 391 
Q 2188 391 2477 730 
Q 2766 1069 2766 1631 
L 2766 1759 
L 2194 1759 
z
M 3341 1997 
L 3341 0 
L 2766 0 
L 2766 531 
Q 2569 213 2275 61 
Q 1981 -91 1556 -91 
Q 1019 -91 701 211 
Q 384 513 384 1019 
Q 384 1609 779 1909 
Q 1175 2209 1959 2209 
L 2766 2209 
L 2766 2266 
Q 2766 2663 2505 2880 
Q 2244 3097 1772 3097 
Q 1472 3097 1187 3025 
Q 903 2953 641 2809 
L 641 3341 
Q 956 3463 1253 3523 
Q 1550 3584 1831 3584 
Q 2591 3584 2966 3190 
Q 3341 2797 3341 1997 
z
" transform="scale(0.015625)"/>
       <path id="DejaVuSans-63" d="M 3122 3366 
L 3122 2828 
Q 2878 2963 2633 3030 
Q 2388 3097 2138 3097 
Q 1578 3097 1268 2742 
Q 959 2388 959 1747 
Q 959 1106 1268 751 
Q 1578 397 2138 397 
Q 2388 397 2633 464 
Q 2878 531 3122 666 
L 3122 134 
Q 2881 22 2623 -34 
Q 2366 -91 2075 -91 
Q 1284 -91 818 406 
Q 353 903 353 1747 
Q 353 2603 823 3093 
Q 1294 3584 2113 3584 
Q 2378 3584 2631 3529 
Q 2884 3475 3122 3366 
z
" transform="scale(0.015625)"/>
       <path id="DejaVuSans-6b" d="M 581 4863 
L 1159 4863 
L 1159 1991 
L 2875 3500 
L 3609 3500 
L 1753 1863 
L 3688 0 
L 2938 0 
L 1159 1709 
L 1159 0 
L 581 0 
L 581 4863 
z
" transform="scale(0.015625)"/>
      </defs>
      <use xlink:href="#DejaVuSans-4f"/>
      <use xlink:href="#DejaVuSans-70" x="78.710938"/>
      <use xlink:href="#DejaVuSans-74" x="142.1875"/>
      <use xlink:href="#DejaVuSans-69" x="181.396484"/>
      <use xlink:href="#DejaVuSans-54" x="209.179688"/>
      <use xlink:href="#DejaVuSans-72" x="255.513672"/>
      <use xlink:href="#DejaVuSans-61" x="296.626953"/>
      <use xlink:href="#DejaVuSans-63" x="357.90625"/>
      <use xlink:href="#DejaVuSans-6b" x="412.886719"/>
     </g>
    </g>
    <g id="line2d_23">
     <path d="M 478.960312 88.256563 
L 488.960312 88.256563 
L 498.960312 88.256563 
" style="fill: none; stroke: #008000; stroke-width: 1.5; stroke-linecap: square"/>
    </g>
    <g id="text_20">
     <!-- Kalman -->
     <g transform="translate(506.960312 91.756563)scale(0.1 -0.1)">
      <defs>
       <path id="DejaVuSans-4b" d="M 628 4666 
L 1259 4666 
L 1259 2694 
L 3353 4666 
L 4166 4666 
L 1850 2491 
L 4331 0 
L 3500 0 
L 1259 2247 
L 1259 0 
L 628 0 
L 628 4666 
z
" transform="scale(0.015625)"/>
       <path id="DejaVuSans-6c" d="M 603 4863 
L 1178 4863 
L 1178 0 
L 603 0 
L 603 4863 
z
" transform="scale(0.015625)"/>
      </defs>
      <use xlink:href="#DejaVuSans-4b"/>
      <use xlink:href="#DejaVuSans-61" x="63.826172"/>
      <use xlink:href="#DejaVuSans-6c" x="125.105469"/>
      <use xlink:href="#DejaVuSans-6d" x="152.888672"/>
      <use xlink:href="#DejaVuSans-61" x="250.300781"/>
      <use xlink:href="#DejaVuSans-6e" x="311.580078"/>
     </g>
    </g>
    <g id="line2d_24">
     <path d="M 478.960312 102.934687 
L 488.960312 102.934687 
L 498.960312 102.934687 
" style="fill: none; stroke-dasharray: 5.55,2.4; stroke-dashoffset: 0; stroke: #0000ff; stroke-width: 1.5"/>
    </g>
    <g id="text_21">
     <!-- Desired -->
     <g transform="translate(506.960312 106.434687)scale(0.1 -0.1)">
      <defs>
       <path id="DejaVuSans-44" d="M 1259 4147 
L 1259 519 
L 2022 519 
Q 2988 519 3436 956 
Q 3884 1394 3884 2338 
Q 3884 3275 3436 3711 
Q 2988 4147 2022 4147 
L 1259 4147 
z
M 628 4666 
L 1925 4666 
Q 3281 4666 3915 4102 
Q 4550 3538 4550 2338 
Q 4550 1131 3912 565 
Q 3275 0 1925 0 
L 628 0 
L 628 4666 
z
" transform="scale(0.015625)"/>
       <path id="DejaVuSans-64" d="M 2906 2969 
L 2906 4863 
L 3481 4863 
L 3481 0 
L 2906 0 
L 2906 525 
Q 2725 213 2448 61 
Q 2172 -91 1784 -91 
Q 1150 -91 751 415 
Q 353 922 353 1747 
Q 353 2572 751 3078 
Q 1150 3584 1784 3584 
Q 2172 3584 2448 3432 
Q 2725 3281 2906 2969 
z
M 947 1747 
Q 947 1113 1208 752 
Q 1469 391 1925 391 
Q 2381 391 2643 752 
Q 2906 1113 2906 1747 
Q 2906 2381 2643 2742 
Q 2381 3103 1925 3103 
Q 1469 3103 1208 2742 
Q 947 2381 947 1747 
z
" transform="scale(0.015625)"/>
      </defs>
      <use xlink:href="#DejaVuSans-44"/>
      <use xlink:href="#DejaVuSans-65" x="77.001953"/>
      <use xlink:href="#DejaVuSans-73" x="138.525391"/>
      <use xlink:href="#DejaVuSans-69" x="190.625"/>
      <use xlink:href="#DejaVuSans-72" x="218.408203"/>
      <use xlink:href="#DejaVuSans-65" x="257.271484"/>
      <use xlink:href="#DejaVuSans-64" x="318.794922"/>
     </g>
    </g>
   </g>
  </g>
 </g>
 <defs>
  <clipPath id="p9df7d23800">
   <rect x="174.96" y="60.48" width="388.08" height="388.08"/>
  </clipPath>
 </defs>
</svg>
