<?xml version="1.0" encoding="utf-8" standalone="no"?>
<!DOCTYPE svg PUBLIC "-//W3C//DTD SVG 1.1//EN"
  "http://www.w3.org/Graphics/SVG/1.1/DTD/svg11.dtd">
<svg xmlns:xlink="http://www.w3.org/1999/xlink" width="720pt" height="504pt" viewBox="0 0 720 504" xmlns="http://www.w3.org/2000/svg" version="1.1">
 <metadata>
  <rdf:RDF xmlns:dc="http://purl.org/dc/elements/1.1/" xmlns:cc="http://creativecommons.org/ns#" xmlns:rdf="http://www.w3.org/1999/02/22-rdf-syntax-ns#">
   <cc:Work>
    <dc:type rdf:resource="http://purl.org/dc/dcmitype/StillImage"/>
    <dc:date>2024-02-15T17:06:42.516555</dc:date>
    <dc:format>image/svg+xml</dc:format>
    <dc:creator>
     <cc:Agent>
      <dc:title>Matplotlib v3.5.1, https://matplotlib.org/</dc:title>
     </cc:Agent>
    </dc:creator>
   </cc:Work>
  </rdf:RDF>
 </metadata>
 <defs>
  <style type="text/css">*{stroke-linejoin: round; stroke-linecap: butt}</style>
 </defs>
 <g id="figure_1">
  <g id="patch_1">
   <path d="M 0 504 
L 720 504 
L 720 0 
L 0 0 
z
" style="fill: #ffffff"/>
  </g>
  <g id="patch_2">
   <path d="M 174.96 448.56 
L 563.04 448.56 
L 563.04 60.48 
L 174.96 60.48 
z
" style="fill: #ffffff"/>
  </g>
  <g id="pane3d_1">
   <g id="patch_3">
    <path d="M 469.28228 311.722272 
L 610.574867 411.376013 
L 618.92447 140.508855 
L 472.163932 76.237185 
" style="fill: #f2f2f2; opacity: 0.5; stroke: #f2f2f2; stroke-linejoin: miter"/>
   </g>
  </g>
  <g id="pane3d_2">
   <g id="patch_4">
    <path d="M 469.28228 311.722272 
L 159.6887 344.651347 
L 152.829168 97.405879 
L 472.163932 76.237185 
" style="fill: #e6e6e6; opacity: 0.5; stroke: #e6e6e6; stroke-linejoin: miter"/>
   </g>
  </g>
  <g id="pane3d_3">
   <g id="patch_5">
    <path d="M 469.28228 311.722272 
L 159.6887 344.651347 
L 257.246697 456.027861 
L 610.574867 411.376013 
" style="fill: #ececec; opacity: 0.5; stroke: #ececec; stroke-linejoin: miter"/>
   </g>
  </g>
  <g id="axis3d_1">
   <g id="line2d_1">
    <path d="M 610.574867 411.376013 
L 257.246697 456.027861 
" style="fill: none; stroke: #000000; stroke-width: 0.8; stroke-linecap: square"/>
   </g>
   <g id="text_1">
    <!-- Time (s) -->
    <g transform="translate(436.754141 487.499467)rotate(-7.202573)scale(0.1 -0.1)">
     <defs>
      <path id="DejaVuSans-54" d="M -19 4666 
L 3928 4666 
L 3928 4134 
L 2272 4134 
L 2272 0 
L 1638 0 
L 1638 4134 
L -19 4134 
L -19 4666 
z
" transform="scale(0.015625)"/>
      <path id="DejaVuSans-69" d="M 603 3500 
L 1178 3500 
L 1178 0 
L 603 0 
L 603 3500 
z
M 603 4863 
L 1178 4863 
L 1178 4134 
L 603 4134 
L 603 4863 
z
" transform="scale(0.015625)"/>
      <path id="DejaVuSans-6d" d="M 3328 2828 
Q 3544 3216 3844 3400 
Q 4144 3584 4550 3584 
Q 5097 3584 5394 3201 
Q 5691 2819 5691 2113 
L 5691 0 
L 5113 0 
L 5113 2094 
Q 5113 2597 4934 2840 
Q 4756 3084 4391 3084 
Q 3944 3084 3684 2787 
Q 3425 2491 3425 1978 
L 3425 0 
L 2847 0 
L 2847 2094 
Q 2847 2600 2669 2842 
Q 2491 3084 2119 3084 
Q 1678 3084 1418 2786 
Q 1159 2488 1159 1978 
L 1159 0 
L 581 0 
L 581 3500 
L 1159 3500 
L 1159 2956 
Q 1356 3278 1631 3431 
Q 1906 3584 2284 3584 
Q 2666 3584 2933 3390 
Q 3200 3197 3328 2828 
z
" transform="scale(0.015625)"/>
      <path id="DejaVuSans-65" d="M 3597 1894 
L 3597 1613 
L 953 1613 
Q 991 1019 1311 708 
Q 1631 397 2203 397 
Q 2534 397 2845 478 
Q 3156 559 3463 722 
L 3463 178 
Q 3153 47 2828 -22 
Q 2503 -91 2169 -91 
Q 1331 -91 842 396 
Q 353 884 353 1716 
Q 353 2575 817 3079 
Q 1281 3584 2069 3584 
Q 2775 3584 3186 3129 
Q 3597 2675 3597 1894 
z
M 3022 2063 
Q 3016 2534 2758 2815 
Q 2500 3097 2075 3097 
Q 1594 3097 1305 2825 
Q 1016 2553 972 2059 
L 3022 2063 
z
" transform="scale(0.015625)"/>
      <path id="DejaVuSans-20" transform="scale(0.015625)"/>
      <path id="DejaVuSans-28" d="M 1984 4856 
Q 1566 4138 1362 3434 
Q 1159 2731 1159 2009 
Q 1159 1288 1364 580 
Q 1569 -128 1984 -844 
L 1484 -844 
Q 1016 -109 783 600 
Q 550 1309 550 2009 
Q 550 2706 781 3412 
Q 1013 4119 1484 4856 
L 1984 4856 
z
" transform="scale(0.015625)"/>
      <path id="DejaVuSans-73" d="M 2834 3397 
L 2834 2853 
Q 2591 2978 2328 3040 
Q 2066 3103 1784 3103 
Q 1356 3103 1142 2972 
Q 928 2841 928 2578 
Q 928 2378 1081 2264 
Q 1234 2150 1697 2047 
L 1894 2003 
Q 2506 1872 2764 1633 
Q 3022 1394 3022 966 
Q 3022 478 2636 193 
Q 2250 -91 1575 -91 
Q 1294 -91 989 -36 
Q 684 19 347 128 
L 347 722 
Q 666 556 975 473 
Q 1284 391 1588 391 
Q 1994 391 2212 530 
Q 2431 669 2431 922 
Q 2431 1156 2273 1281 
Q 2116 1406 1581 1522 
L 1381 1569 
Q 847 1681 609 1914 
Q 372 2147 372 2553 
Q 372 3047 722 3315 
Q 1072 3584 1716 3584 
Q 2034 3584 2315 3537 
Q 2597 3491 2834 3397 
z
" transform="scale(0.015625)"/>
      <path id="DejaVuSans-29" d="M 513 4856 
L 1013 4856 
Q 1481 4119 1714 3412 
Q 1947 2706 1947 2009 
Q 1947 1309 1714 600 
Q 1481 -109 1013 -844 
L 513 -844 
Q 928 -128 1133 580 
Q 1338 1288 1338 2009 
Q 1338 2731 1133 3434 
Q 928 4138 513 4856 
z
" transform="scale(0.015625)"/>
     </defs>
     <use xlink:href="#DejaVuSans-54"/>
     <use xlink:href="#DejaVuSans-69" x="57.958984"/>
     <use xlink:href="#DejaVuSans-6d" x="85.742188"/>
     <use xlink:href="#DejaVuSans-65" x="183.154297"/>
     <use xlink:href="#DejaVuSans-20" x="244.677734"/>
     <use xlink:href="#DejaVuSans-28" x="276.464844"/>
     <use xlink:href="#DejaVuSans-73" x="315.478516"/>
     <use xlink:href="#DejaVuSans-29" x="367.578125"/>
    </g>
   </g>
   <g id="Line3DCollection_1">
    <path d="M 577.099664 415.606442 
L 439.725493 314.865999 
L 441.721251 78.255229 
" style="fill: none; stroke: #b0b0b0; stroke-width: 0.8"/>
    <path d="M 508.962088 424.217328 
L 379.710154 321.249366 
L 379.87849 82.354785 
" style="fill: none; stroke: #b0b0b0; stroke-width: 0.8"/>
    <path d="M 439.194278 433.034235 
L 318.461579 327.763903 
L 316.72539 86.541202 
" style="fill: none; stroke: #b0b0b0; stroke-width: 0.8"/>
    <path d="M 367.73702 442.064647 
L 255.94136 334.413696 
L 252.219859 90.817272 
" style="fill: none; stroke: #b0b0b0; stroke-width: 0.8"/>
    <path d="M 294.528196 451.316412 
L 192.10948 341.202999 
L 186.317982 95.185906 
" style="fill: none; stroke: #b0b0b0; stroke-width: 0.8"/>
   </g>
   <g id="xtick_1">
    <g id="line2d_2">
     <path d="M 575.82592 414.672369 
L 579.65699 417.481803 
" style="fill: none; stroke: #000000; stroke-width: 0.8; stroke-linecap: square"/>
    </g>
    <g id="text_2">
     <!-- −1.0 -->
     <g transform="translate(573.695243 444.976684)scale(0.1 -0.1)">
      <defs>
       <path id="DejaVuSans-2212" d="M 678 2272 
L 4684 2272 
L 4684 1741 
L 678 1741 
L 678 2272 
z
" transform="scale(0.015625)"/>
       <path id="DejaVuSans-31" d="M 794 531 
L 1825 531 
L 1825 4091 
L 703 3866 
L 703 4441 
L 1819 4666 
L 2450 4666 
L 2450 531 
L 3481 531 
L 3481 0 
L 794 0 
L 794 531 
z
" transform="scale(0.015625)"/>
       <path id="DejaVuSans-2e" d="M 684 794 
L 1344 794 
L 1344 0 
L 684 0 
L 684 794 
z
" transform="scale(0.015625)"/>
       <path id="DejaVuSans-30" d="M 2034 4250 
Q 1547 4250 1301 3770 
Q 1056 3291 1056 2328 
Q 1056 1369 1301 889 
Q 1547 409 2034 409 
Q 2525 409 2770 889 
Q 3016 1369 3016 2328 
Q 3016 3291 2770 3770 
Q 2525 4250 2034 4250 
z
M 2034 4750 
Q 2819 4750 3233 4129 
Q 3647 3509 3647 2328 
Q 3647 1150 3233 529 
Q 2819 -91 2034 -91 
Q 1250 -91 836 529 
Q 422 1150 422 2328 
Q 422 3509 836 4129 
Q 1250 4750 2034 4750 
z
" transform="scale(0.015625)"/>
      </defs>
      <use xlink:href="#DejaVuSans-2212"/>
      <use xlink:href="#DejaVuSans-31" x="83.789062"/>
      <use xlink:href="#DejaVuSans-2e" x="147.412109"/>
      <use xlink:href="#DejaVuSans-30" x="179.199219"/>
     </g>
    </g>
   </g>
   <g id="xtick_2">
    <g id="line2d_3">
     <path d="M 507.761713 423.261055 
L 511.372219 426.137348 
" style="fill: none; stroke: #000000; stroke-width: 0.8; stroke-linecap: square"/>
    </g>
    <g id="text_3">
     <!-- −0.5 -->
     <g transform="translate(505.163161 453.90983)scale(0.1 -0.1)">
      <defs>
       <path id="DejaVuSans-35" d="M 691 4666 
L 3169 4666 
L 3169 4134 
L 1269 4134 
L 1269 2991 
Q 1406 3038 1543 3061 
Q 1681 3084 1819 3084 
Q 2600 3084 3056 2656 
Q 3513 2228 3513 1497 
Q 3513 744 3044 326 
Q 2575 -91 1722 -91 
Q 1428 -91 1123 -41 
Q 819 9 494 109 
L 494 744 
Q 775 591 1075 516 
Q 1375 441 1709 441 
Q 2250 441 2565 725 
Q 2881 1009 2881 1497 
Q 2881 1984 2565 2268 
Q 2250 2553 1709 2553 
Q 1456 2553 1204 2497 
Q 953 2441 691 2322 
L 691 4666 
z
" transform="scale(0.015625)"/>
      </defs>
      <use xlink:href="#DejaVuSans-2212"/>
      <use xlink:href="#DejaVuSans-30" x="83.789062"/>
      <use xlink:href="#DejaVuSans-2e" x="147.412109"/>
      <use xlink:href="#DejaVuSans-35" x="179.199219"/>
     </g>
    </g>
   </g>
   <g id="xtick_3">
    <g id="line2d_4">
     <path d="M 438.071165 432.054961 
L 441.449386 435.000529 
" style="fill: none; stroke: #000000; stroke-width: 0.8; stroke-linecap: square"/>
    </g>
    <g id="text_4">
     <!-- 0.0 -->
     <g transform="translate(439.169109 463.058289)scale(0.1 -0.1)">
      <use xlink:href="#DejaVuSans-30"/>
      <use xlink:href="#DejaVuSans-2e" x="63.623047"/>
      <use xlink:href="#DejaVuSans-30" x="95.410156"/>
     </g>
    </g>
   </g>
   <g id="xtick_4">
    <g id="line2d_5">
     <path d="M 366.695283 441.061531 
L 369.828832 444.078907 
" style="fill: none; stroke: #000000; stroke-width: 0.8; stroke-linecap: square"/>
    </g>
    <g id="text_5">
     <!-- 0.5 -->
     <g transform="translate(367.272952 472.429942)scale(0.1 -0.1)">
      <use xlink:href="#DejaVuSans-30"/>
      <use xlink:href="#DejaVuSans-2e" x="63.623047"/>
      <use xlink:href="#DejaVuSans-35" x="95.410156"/>
     </g>
    </g>
   </g>
   <g id="xtick_5">
    <g id="line2d_6">
     <path d="M 293.572183 450.288574 
L 296.447968 453.380416 
" style="fill: none; stroke: #000000; stroke-width: 0.8; stroke-linecap: square"/>
    </g>
    <g id="text_6">
     <!-- 1.0 -->
     <g transform="translate(293.601098 482.033057)scale(0.1 -0.1)">
      <use xlink:href="#DejaVuSans-31"/>
      <use xlink:href="#DejaVuSans-2e" x="63.623047"/>
      <use xlink:href="#DejaVuSans-30" x="95.410156"/>
     </g>
    </g>
   </g>
  </g>
  <g id="axis3d_2">
   <g id="line2d_7">
    <path d="M 159.6887 344.651347 
L 257.246697 456.027861 
" style="fill: none; stroke: #000000; stroke-width: 0.8; stroke-linecap: square"/>
   </g>
   <g id="text_7">
    <!-- Position (X) -->
    <g transform="translate(141.317716 413.286557)rotate(-311.216081)scale(0.1 -0.1)">
     <defs>
      <path id="DejaVuSans-50" d="M 1259 4147 
L 1259 2394 
L 2053 2394 
Q 2494 2394 2734 2622 
Q 2975 2850 2975 3272 
Q 2975 3691 2734 3919 
Q 2494 4147 2053 4147 
L 1259 4147 
z
M 628 4666 
L 2053 4666 
Q 2838 4666 3239 4311 
Q 3641 3956 3641 3272 
Q 3641 2581 3239 2228 
Q 2838 1875 2053 1875 
L 1259 1875 
L 1259 0 
L 628 0 
L 628 4666 
z
" transform="scale(0.015625)"/>
      <path id="DejaVuSans-6f" d="M 1959 3097 
Q 1497 3097 1228 2736 
Q 959 2375 959 1747 
Q 959 1119 1226 758 
Q 1494 397 1959 397 
Q 2419 397 2687 759 
Q 2956 1122 2956 1747 
Q 2956 2369 2687 2733 
Q 2419 3097 1959 3097 
z
M 1959 3584 
Q 2709 3584 3137 3096 
Q 3566 2609 3566 1747 
Q 3566 888 3137 398 
Q 2709 -91 1959 -91 
Q 1206 -91 779 398 
Q 353 888 353 1747 
Q 353 2609 779 3096 
Q 1206 3584 1959 3584 
z
" transform="scale(0.015625)"/>
      <path id="DejaVuSans-74" d="M 1172 4494 
L 1172 3500 
L 2356 3500 
L 2356 3053 
L 1172 3053 
L 1172 1153 
Q 1172 725 1289 603 
Q 1406 481 1766 481 
L 2356 481 
L 2356 0 
L 1766 0 
Q 1100 0 847 248 
Q 594 497 594 1153 
L 594 3053 
L 172 3053 
L 172 3500 
L 594 3500 
L 594 4494 
L 1172 4494 
z
" transform="scale(0.015625)"/>
      <path id="DejaVuSans-6e" d="M 3513 2113 
L 3513 0 
L 2938 0 
L 2938 2094 
Q 2938 2591 2744 2837 
Q 2550 3084 2163 3084 
Q 1697 3084 1428 2787 
Q 1159 2491 1159 1978 
L 1159 0 
L 581 0 
L 581 3500 
L 1159 3500 
L 1159 2956 
Q 1366 3272 1645 3428 
Q 1925 3584 2291 3584 
Q 2894 3584 3203 3211 
Q 3513 2838 3513 2113 
z
" transform="scale(0.015625)"/>
      <path id="DejaVuSans-58" d="M 403 4666 
L 1081 4666 
L 2241 2931 
L 3406 4666 
L 4084 4666 
L 2584 2425 
L 4184 0 
L 3506 0 
L 2194 1984 
L 872 0 
L 191 0 
L 1856 2491 
L 403 4666 
z
" transform="scale(0.015625)"/>
     </defs>
     <use xlink:href="#DejaVuSans-50"/>
     <use xlink:href="#DejaVuSans-6f" x="56.677734"/>
     <use xlink:href="#DejaVuSans-73" x="117.859375"/>
     <use xlink:href="#DejaVuSans-69" x="169.958984"/>
     <use xlink:href="#DejaVuSans-74" x="197.742188"/>
     <use xlink:href="#DejaVuSans-69" x="236.951172"/>
     <use xlink:href="#DejaVuSans-6f" x="264.734375"/>
     <use xlink:href="#DejaVuSans-6e" x="325.916016"/>
     <use xlink:href="#DejaVuSans-20" x="389.294922"/>
     <use xlink:href="#DejaVuSans-28" x="421.082031"/>
     <use xlink:href="#DejaVuSans-58" x="460.095703"/>
     <use xlink:href="#DejaVuSans-29" x="528.601562"/>
    </g>
   </g>
   <g id="Line3DCollection_2">
    <path d="M 484.940352 81.832435 
L 481.637253 320.436241 
L 168.153869 354.315557 
" style="fill: none; stroke: #b0b0b0; stroke-width: 0.8"/>
    <path d="M 511.628344 93.520057 
L 507.411211 338.614628 
L 185.853413 374.522137 
" style="fill: none; stroke: #b0b0b0; stroke-width: 0.8"/>
    <path d="M 539.945352 105.921084 
L 534.708674 357.867544 
L 204.658652 395.991028 
" style="fill: none; stroke: #b0b0b0; stroke-width: 0.8"/>
    <path d="M 570.045222 119.10289 
L 563.668838 378.293164 
L 224.676537 418.844329 
" style="fill: none; stroke: #b0b0b0; stroke-width: 0.8"/>
    <path d="M 602.101803 133.14161 
L 594.448388 400.001998 
L 246.02827 443.22041 
" style="fill: none; stroke: #b0b0b0; stroke-width: 0.8"/>
   </g>
   <g id="xtick_6">
    <g id="line2d_8">
     <path d="M 170.794779 354.030144 
L 162.865261 354.887117 
" style="fill: none; stroke: #000000; stroke-width: 0.8; stroke-linecap: square"/>
    </g>
    <g id="text_8">
     <!-- −1.0 -->
     <g transform="translate(137.567888 377.779051)scale(0.1 -0.1)">
      <use xlink:href="#DejaVuSans-2212"/>
      <use xlink:href="#DejaVuSans-31" x="83.789062"/>
      <use xlink:href="#DejaVuSans-2e" x="147.412109"/>
      <use xlink:href="#DejaVuSans-30" x="179.199219"/>
     </g>
    </g>
   </g>
   <g id="xtick_7">
    <g id="line2d_9">
     <path d="M 188.566477 374.219177 
L 180.4201 375.128861 
" style="fill: none; stroke: #000000; stroke-width: 0.8; stroke-linecap: square"/>
    </g>
    <g id="text_9">
     <!-- −0.5 -->
     <g transform="translate(154.730963 398.492961)scale(0.1 -0.1)">
      <use xlink:href="#DejaVuSans-2212"/>
      <use xlink:href="#DejaVuSans-30" x="83.789062"/>
      <use xlink:href="#DejaVuSans-2e" x="147.412109"/>
      <use xlink:href="#DejaVuSans-35" x="179.199219"/>
     </g>
    </g>
   </g>
   <g id="xtick_8">
    <g id="line2d_10">
     <path d="M 207.447873 395.66885 
L 199.072593 396.636264 
" style="fill: none; stroke: #000000; stroke-width: 0.8; stroke-linecap: square"/>
    </g>
    <g id="text_10">
     <!-- 0.0 -->
     <g transform="translate(177.157495 420.502603)scale(0.1 -0.1)">
      <use xlink:href="#DejaVuSans-30"/>
      <use xlink:href="#DejaVuSans-2e" x="63.623047"/>
      <use xlink:href="#DejaVuSans-30" x="95.410156"/>
     </g>
    </g>
   </g>
   <g id="xtick_9">
    <g id="line2d_11">
     <path d="M 227.546254 418.501046 
L 218.929012 419.531863 
" style="fill: none; stroke: #000000; stroke-width: 0.8; stroke-linecap: square"/>
    </g>
    <g id="text_11">
     <!-- 0.5 -->
     <g transform="translate(196.571788 443.933481)scale(0.1 -0.1)">
      <use xlink:href="#DejaVuSans-30"/>
      <use xlink:href="#DejaVuSans-2e" x="63.623047"/>
      <use xlink:href="#DejaVuSans-35" x="95.410156"/>
     </g>
    </g>
   </g>
   <g id="xtick_10">
    <g id="line2d_12">
     <path d="M 248.983198 442.853877 
L 240.109806 443.954543 
" style="fill: none; stroke: #000000; stroke-width: 0.8; stroke-linecap: square"/>
    </g>
    <g id="text_12">
     <!-- 1.0 -->
     <g transform="translate(217.281553 468.92785)scale(0.1 -0.1)">
      <use xlink:href="#DejaVuSans-31"/>
      <use xlink:href="#DejaVuSans-2e" x="63.623047"/>
      <use xlink:href="#DejaVuSans-30" x="95.410156"/>
     </g>
    </g>
   </g>
  </g>
  <g id="axis3d_3">
   <g id="line2d_13">
    <path d="M 159.6887 344.651347 
L 152.829168 97.405879 
" style="fill: none; stroke: #000000; stroke-width: 0.8; stroke-linecap: square"/>
   </g>
   <g id="text_13">
    <!-- Position (Y) -->
    <g transform="translate(101.978427 188.921446)rotate(-271.589196)scale(0.1 -0.1)">
     <defs>
      <path id="DejaVuSans-59" d="M -13 4666 
L 666 4666 
L 1959 2747 
L 3244 4666 
L 3922 4666 
L 2272 2222 
L 2272 0 
L 1638 0 
L 1638 2222 
L -13 4666 
z
" transform="scale(0.015625)"/>
     </defs>
     <use xlink:href="#DejaVuSans-50"/>
     <use xlink:href="#DejaVuSans-6f" x="56.677734"/>
     <use xlink:href="#DejaVuSans-73" x="117.859375"/>
     <use xlink:href="#DejaVuSans-69" x="169.958984"/>
     <use xlink:href="#DejaVuSans-74" x="197.742188"/>
     <use xlink:href="#DejaVuSans-69" x="236.951172"/>
     <use xlink:href="#DejaVuSans-6f" x="264.734375"/>
     <use xlink:href="#DejaVuSans-6e" x="325.916016"/>
     <use xlink:href="#DejaVuSans-20" x="389.294922"/>
     <use xlink:href="#DejaVuSans-28" x="421.082031"/>
     <use xlink:href="#DejaVuSans-59" x="460.095703"/>
     <use xlink:href="#DejaVuSans-29" x="521.179688"/>
    </g>
   </g>
   <g id="Line3DCollection_3">
    <path d="M 159.555677 339.856662 
L 469.33825 307.148479 
L 610.736271 406.139961 
" style="fill: none; stroke: #b0b0b0; stroke-width: 0.8"/>
    <path d="M 158.21632 291.58078 
L 469.901597 261.112496 
L 612.362517 353.383373 
" style="fill: none; stroke: #b0b0b0; stroke-width: 0.8"/>
    <path d="M 156.860147 242.698768 
L 470.471657 214.527818 
L 614.011283 299.896196 
" style="fill: none; stroke: #b0b0b0; stroke-width: 0.8"/>
    <path d="M 155.486838 193.19914 
L 471.048553 167.384577 
L 615.683042 245.663149 
" style="fill: none; stroke: #b0b0b0; stroke-width: 0.8"/>
    <path d="M 154.096068 143.070114 
L 471.632408 119.672667 
L 617.378276 190.668518 
" style="fill: none; stroke: #b0b0b0; stroke-width: 0.8"/>
   </g>
   <g id="xtick_11">
    <g id="line2d_14">
     <path d="M 162.163587 339.581307 
L 154.333248 340.408068 
" style="fill: none; stroke: #000000; stroke-width: 0.8; stroke-linecap: square"/>
    </g>
    <g id="text_14">
     <!-- 0.0 -->
     <g transform="translate(128.422226 344.049429)scale(0.1 -0.1)">
      <use xlink:href="#DejaVuSans-30"/>
      <use xlink:href="#DejaVuSans-2e" x="63.623047"/>
      <use xlink:href="#DejaVuSans-30" x="95.410156"/>
     </g>
    </g>
   </g>
   <g id="xtick_12">
    <g id="line2d_15">
     <path d="M 160.841061 291.324202 
L 152.960144 292.094589 
" style="fill: none; stroke: #000000; stroke-width: 0.8; stroke-linecap: square"/>
    </g>
    <g id="text_15">
     <!-- 0.5 -->
     <g transform="translate(126.946038 296.005884)scale(0.1 -0.1)">
      <use xlink:href="#DejaVuSans-30"/>
      <use xlink:href="#DejaVuSans-2e" x="63.623047"/>
      <use xlink:href="#DejaVuSans-35" x="95.410156"/>
     </g>
    </g>
   </g>
   <g id="xtick_13">
    <g id="line2d_16">
     <path d="M 159.501938 242.461463 
L 151.569785 243.173988 
" style="fill: none; stroke: #000000; stroke-width: 0.8; stroke-linecap: square"/>
    </g>
    <g id="text_16">
     <!-- 1.0 -->
     <g transform="translate(125.451413 247.362312)scale(0.1 -0.1)">
      <use xlink:href="#DejaVuSans-31"/>
      <use xlink:href="#DejaVuSans-2e" x="63.623047"/>
      <use xlink:href="#DejaVuSans-30" x="95.410156"/>
     </g>
    </g>
   </g>
   <g id="xtick_14">
    <g id="line2d_17">
     <path d="M 158.145902 192.981615 
L 150.161844 193.634751 
" style="fill: none; stroke: #000000; stroke-width: 0.8; stroke-linecap: square"/>
    </g>
    <g id="text_17">
     <!-- 1.5 -->
     <g transform="translate(123.938005 198.107404)scale(0.1 -0.1)">
      <use xlink:href="#DejaVuSans-31"/>
      <use xlink:href="#DejaVuSans-2e" x="63.623047"/>
      <use xlink:href="#DejaVuSans-35" x="95.410156"/>
     </g>
    </g>
   </g>
   <g id="xtick_15">
    <g id="line2d_18">
     <path d="M 156.772631 142.872894 
L 148.735985 143.465068 
" style="fill: none; stroke: #000000; stroke-width: 0.8; stroke-linecap: square"/>
    </g>
    <g id="text_18">
     <!-- 2.0 -->
     <g transform="translate(122.405456 148.229562)scale(0.1 -0.1)">
      <defs>
       <path id="DejaVuSans-32" d="M 1228 531 
L 3431 531 
L 3431 0 
L 469 0 
L 469 531 
Q 828 903 1448 1529 
Q 2069 2156 2228 2338 
Q 2531 2678 2651 2914 
Q 2772 3150 2772 3378 
Q 2772 3750 2511 3984 
Q 2250 4219 1831 4219 
Q 1534 4219 1204 4116 
Q 875 4013 500 3803 
L 500 4441 
Q 881 4594 1212 4672 
Q 1544 4750 1819 4750 
Q 2544 4750 2975 4387 
Q 3406 4025 3406 3419 
Q 3406 3131 3298 2873 
Q 3191 2616 2906 2266 
Q 2828 2175 2409 1742 
Q 1991 1309 1228 531 
z
" transform="scale(0.015625)"/>
      </defs>
      <use xlink:href="#DejaVuSans-32"/>
      <use xlink:href="#DejaVuSans-2e" x="63.623047"/>
      <use xlink:href="#DejaVuSans-30" x="95.410156"/>
     </g>
    </g>
   </g>
  </g>
  <g id="axes_1">
   <g id="line2d_19">
    <path d="M 227.223519 245.133048 
L 227.586799 244.064895 
L 227.903016 244.41058 
L 228.176294 243.89636 
L 229.007899 243.687084 
L 231.555678 244.594687 
L 232.032358 244.364373 
L 233.121903 244.617373 
L 233.883732 245.055236 
L 235.509517 245.586887 
L 235.505998 245.388181 
L 241.272364 248.058173 
L 242.548186 249.21787 
L 242.548186 249.21787 
L 245.162911 250.70374 
L 246.227873 251.6038 
L 248.980609 253.432123 
L 252.441648 257.191946 
L 252.441648 257.191946 
L 256.11676 261.050744 
L 258.101649 262.971526 
L 262.187951 266.476467 
L 263.26232 268.275888 
L 268.778713 270.651874 
L 270.745952 272.461784 
L 276.016289 276.724619 
L 278.555027 280.58783 
L 282.466069 282.935372 
L 285.633554 285.107452 
L 289.325661 288.72769 
L 292.143844 289.104758 
L 297.911257 293.756913 
L 297.929609 295.628414 
L 299.399053 295.806812 
L 305.336529 300.297566 
L 306.845853 302.388571 
L 309.913817 304.603432 
L 314.56404 306.926591 
L 317.731762 309.098739 
L 321.480172 311.264503 
L 325.899835 315.355133 
L 329.818924 317.459562 
L 332.718286 319.465905 
L 336.169872 319.615223 
L 336.179037 321.482777 
L 339.756575 323.63477 
L 341.580653 325.330855 
L 346.396668 327.697885 
L 352.557847 329.156877 
L 356.293102 330.749007 
L 359.981961 333.548902 
L 365.641425 333.579799 
L 369.384769 336.645853 
L 374.351281 337.912923 
L 378.040951 339.061703 
L 382.279882 340.111938 
L 387.711534 340.995178 
L 391.837413 341.78026 
L 394.769948 343.767145 
L 403.427239 344.218436 
L 410.278748 345.097217 
L 411.983338 345.493708 
L 417.072112 345.434626 
L 420.516156 345.506855 
L 425.615606 345.244255 
L 439.03717 343.306259 
L 450.343025 340.085376 
L 451.926234 338.978793 
L 458.120427 337.158266 
L 459.630758 335.255925 
L 461.131431 334.937759 
L 466.968721 331.226173 
L 471.177909 328.991709 
L 475.206193 325.844587 
L 475.206193 325.844587 
L 479.082317 323.197128 
L 481.533625 320.963097 
L 485.111726 318.829912 
L 486.281958 317.432358 
L 487.415199 315.202997 
L 490.671576 312.519795 
L 495.934756 304.987498 
L 495.934756 304.987498 
L 498.791222 302.373676 
L 500.626341 299.693783 
L 501.5751 297.036752 
L 505.809414 291.6031 
L 507.34363 289.093181 
L 508.095222 286.6294 
L 509.551386 283.44989 
L 512.189417 278.450472 
L 516.423565 266.669095 
L 517.993725 261.65517 
L 519.290817 256.196665 
L 520.22985 251.13118 
L 520.886985 247.882907 
L 520.901182 247.124858 
L 521.258736 242.056265 
L 521.248507 239.404599 
L 520.673002 233.255292 
L 519.620362 227.936783 
L 518.034666 224.628585 
L 516.535783 222.23525 
L 514.558762 219.744035 
L 513.51167 218.116257 
L 510.535558 215.746161 
L 507.124696 214.277347 
L 504.173086 213.436363 
L 503.376076 213.530549 
L 502.302711 213.166729 
L 500.889394 213.114429 
L 496.485359 212.564452 
L 495.540988 213.001061 
L 491.707704 212.930497 
L 488.588047 213.678839 
L 483.173724 216.018841 
L 480.946181 216.855383 
L 478.606327 217.338297 
L 474.992554 218.836962 
L 472.590817 220.0958 
L 472.590817 220.0958 
L 466.2869 224.356979 
L 463.682977 225.362162 
L 461.062094 225.052639 
L 456.547118 227.752642 
L 451.496731 229.45595 
L 449.631608 230.688643 
L 447.276659 232.649295 
L 442.986619 235.559448 
L 442.006969 235.474664 
L 440.060059 237.512808 
L 437.166842 239.267375 
L 434.644418 240.413015 
L 431.196461 242.404858 
L 426.740202 244.086903 
L 422.210653 245.673184 
L 419.164177 248.412651 
L 416.081647 249.874057 
L 415.049831 249.836888 
L 409.883103 251.470538 
L 406.745872 252.909901 
L 403.551878 254.587138 
L 398.788613 257.784255 
L 393.936695 259.156412 
L 387.365918 262.29925 
L 382.981581 265.037407 
L 375.768576 267.832369 
L 372.381113 268.863288 
L 367.30515 270.290391 
L 363.941957 272.613807 
L 362.189245 272.665518 
L 362.189245 272.665518 
L 360.511632 273.955218 
L 356.008989 275.03917 
L 353.774114 275.931289 
L 350.376249 276.804775 
L 345.337504 277.665849 
L 343.654117 278.334846 
L 338.631497 279.07288 
L 333.61832 279.638868 
L 330.280753 280.168676 
L 322.035978 280.803336 
L 314.056673 280.751184 
L 312.493037 280.477933 
L 307.842065 280.491373 
L 301.82208 280.00543 
L 298.85474 279.64193 
L 297.353776 279.055633 
L 293.036266 278.807966 
L 291.578063 278.051362 
L 286.055401 276.898961 
L 281.609038 276.592514 
L 276.122933 276.995463 
L 273.221158 275.362383 
L 269.607052 273.943341 
L 267.283354 274.597988 
L 264.003242 272.656986 
L 262.866986 271.400491 
L 262.866986 271.400491 
L 260.703993 270.051965 
L 258.576659 268.985962 
L 256.838694 267.889871 
L 254.808611 266.897572 
L 252.527039 266.190237 
L 251.555305 264.703447 
L 247.836629 264.560803 
L 245.205018 264.311981 
L 245.17814 262.684427 
L 244.314259 260.746993 
L 240.333598 260.641532 
L 240.30752 259.119111 
L 238.115601 258.171826 
L 235.037789 258.148569 
L 233.255741 254.194816 
L 232.114123 253.65364 
L 231.378261 252.759207 
L 230.389878 251.841504 
L 229.682396 249.919365 
L 229.651709 248.25764 
L 229.22198 249.004798 
L 228.701279 246.587074 
L 228.572097 245.30698 
L 228.316492 244.043867 
L 228.456845 242.935242 
L 228.931923 242.156086 
L 228.931923 242.156086 
" clip-path="url(#p90780a000d)" style="fill: none; stroke-dasharray: 12.8,3.2,2,3.2; stroke-dashoffset: 0; stroke: #ff0000; stroke-width: 2"/>
   </g>
   <g id="line2d_20">
    <path d="M 222.034536 244.048811 
L 223.487718 243.650494 
L 223.487718 243.650494 
L 220.317747 243.394401 
L 225.762687 243.141362 
L 232.404618 242.683423 
L 232.673964 244.61567 
L 231.439247 244.646225 
L 229.382534 245.008261 
L 229.382534 245.008261 
L 234.843925 245.071018 
L 239.417107 245.768281 
L 240.92983 246.414175 
L 245.402903 248.9032 
L 250.140042 251.321562 
L 250.140042 251.321562 
L 252.074166 252.476659 
L 247.352348 254.762707 
L 254.950093 255.97054 
L 259.734913 261.371609 
L 261.658827 262.915431 
L 261.658827 262.915431 
L 267.081788 264.71626 
L 268.579523 265.676393 
L 268.03467 266.861344 
L 273.950583 269.625753 
L 275.458618 270.727142 
L 282.315776 272.371935 
L 286.290939 275.237027 
L 289.199542 277.549697 
L 292.738847 281.931084 
L 299.473732 285.028894 
L 303.799544 285.351235 
L 308.771687 289.781221 
L 308.771687 289.781221 
L 318.470557 294.410094 
L 317.270522 297.000056 
L 317.270522 297.000056 
L 322.147084 299.417294 
L 324.958425 303.324459 
L 331.082347 306.421576 
L 329.113329 308.274096 
L 331.826528 309.322729 
L 329.624452 312.028697 
L 333.738747 315.665714 
L 335.337601 317.651244 
L 333.12282 319.578661 
L 333.12282 319.578661 
L 338.73805 319.181565 
L 341.241356 321.591243 
L 347.4291 323.885345 
L 351.406536 326.157896 
L 360.043262 326.074667 
L 362.017532 327.132031 
L 371.529554 329.928247 
L 371.529554 329.928247 
L 383.750013 332.90803 
L 385.147301 334.393428 
L 391.555538 335.473771 
L 397.225202 337.275725 
L 397.973932 338.373401 
L 408.477665 338.947456 
L 411.378592 339.650243 
L 420.309557 340.783049 
L 419.128643 342.246334 
L 421.185563 344.876804 
L 427.157281 346.280624 
L 425.445708 345.13814 
L 431.478043 345.381308 
L 428.168324 345.209633 
L 441.474898 342.93025 
L 439.099557 343.075689 
L 442.201317 340.259932 
L 450.447129 339.381802 
L 456.876489 338.278712 
L 462.236118 336.638277 
L 465.125224 337.31973 
L 465.125224 337.31973 
L 469.099917 336.312644 
L 469.989407 333.944895 
L 478.306059 331.504407 
L 475.06323 326.847103 
L 475.06323 326.847103 
L 472.450627 324.443808 
L 479.20967 322.283488 
L 478.853806 320.541817 
L 476.045364 318.313663 
L 477.568463 315.352204 
L 483.35452 313.569274 
L 490.40665 308.285013 
L 501.072192 306.997376 
L 501.072192 306.997376 
L 499.833509 303.839756 
L 501.461681 301.242602 
L 497.660358 297.236561 
L 504.281094 293.561061 
L 500.960263 290.440516 
L 508.861407 288.415433 
L 517.302571 286.661075 
L 517.014422 283.622166 
L 520.445573 279.164259 
L 526.226441 276.154686 
L 524.449902 273.343673 
L 523.963072 270.040006 
L 526.434984 265.795777 
L 528.042599 264.370695 
L 524.26391 261.390415 
L 521.663881 259.102815 
L 520.409543 256.486631 
L 533.874633 250.494079 
L 528.617923 245.542988 
L 526.83299 245.380216 
L 519.707906 244.008218 
L 516.471265 241.678456 
L 517.244362 238.80038 
L 512.831771 235.279863 
L 507.930801 232.392762 
L 510.626066 230.56455 
L 508.368457 228.627261 
L 508.368457 228.627261 
L 507.632377 227.103741 
L 515.594825 225.481499 
L 516.932664 223.856762 
L 513.379137 220.970495 
L 512.437395 220.058019 
L 512.39064 218.040547 
L 510.848488 216.616214 
L 510.79705 214.946956 
L 508.793588 213.176997 
L 498.364944 213.288088 
L 492.574881 213.838553 
L 489.701691 213.364621 
L 489.701691 213.364621 
L 488.818484 212.947219 
L 486.006774 212.212655 
L 486.59663 212.860546 
L 485.461086 213.695888 
L 476.070868 214.244984 
L 474.415772 214.701888 
L 463.245205 214.759916 
L 465.059085 215.312156 
L 463.923857 215.793495 
L 466.514113 217.483606 
L 461.430275 219.64858 
L 461.430275 219.64858 
L 462.037549 221.585086 
L 454.517314 223.376935 
L 453.00558 225.099057 
L 453.00558 225.099057 
L 446.813117 225.562516 
L 442.35154 226.313574 
L 439.545661 229.37517 
L 440.365854 229.642856 
L 437.227956 233.004137 
L 431.159684 234.562945 
L 431.159684 234.562945 
L 429.538527 237.277059 
L 426.474553 240.321944 
L 427.056214 241.355279 
L 424.151986 241.78799 
L 425.151446 244.101185 
L 423.995496 245.83941 
L 422.250188 249.022734 
L 421.654774 250.35754 
L 421.654774 250.35754 
L 416.668141 251.880208 
L 410.162004 254.077088 
L 412.108052 254.591328 
L 405.388141 257.607985 
L 395.908432 258.915819 
L 389.981768 262.925346 
L 384.211271 265.918207 
L 373.521165 267.550053 
L 370.504485 269.116761 
L 360.403286 270.900943 
L 360.403286 270.900943 
L 350.516013 272.498821 
L 348.521161 273.994678 
L 347.87628 275.567303 
L 347.351483 275.829943 
L 346.617809 274.673494 
L 346.080767 275.987345 
L 341.37507 278.758674 
L 337.04032 279.36552 
L 332.950227 280.561846 
L 334.061474 281.451113 
L 323.206574 280.842109 
L 323.206574 280.842109 
L 319.368505 281.953258 
L 313.576334 280.151666 
L 305.179283 280.286852 
L 300.337897 280.186527 
L 297.569586 280.803173 
L 295.15129 280.188455 
L 294.925304 278.368664 
L 294.818584 278.561135 
L 294.98413 277.667341 
L 291.768909 276.057294 
L 281.926513 275.571539 
L 285.761852 274.846132 
L 283.370075 275.573188 
L 279.199614 277.489784 
L 268.784433 276.952698 
L 268.784433 276.952698 
L 264.876904 274.196939 
L 266.718766 272.162111 
L 266.718766 272.162111 
L 264.538966 269.466967 
L 265.933704 268.589303 
L 265.547737 268.128294 
L 259.090092 267.516637 
L 255.898514 267.458926 
L 254.196412 265.177853 
L 252.608839 264.82626 
L 252.434735 264.623563 
L 249.856099 263.824396 
L 256.673914 260.999451 
L 251.37737 259.48544 
L 246.809616 259.253436 
L 245.316587 259.700926 
L 249.923911 258.134935 
L 242.234267 254.948605 
L 239.255792 255.332042 
L 240.993702 255.020561 
L 244.03411 253.16915 
L 246.629022 253.349104 
L 246.707334 250.383211 
L 246.707334 250.383211 
L 240.425336 248.642761 
L 233.755225 247.07547 
L 235.363409 247.133439 
L 237.271797 246.625672 
L 234.193388 246.535442 
L 234.441951 245.745229 
L 230.222553 245.572698 
L 232.451873 244.202369 
L 232.451873 244.202369 
" clip-path="url(#p90780a000d)" style="fill: none; stroke: #008000; stroke-width: 1.5; stroke-linecap: square"/>
   </g>
   <g id="line2d_21">
    <path d="M 236.804942 230.645138 
L 239.195571 232.77073 
L 243.117525 236.564481 
L 248.645678 242.266102 
L 258.136651 252.48592 
L 278.773245 274.911865 
L 288.609063 285.273328 
L 295.344752 292.160215 
L 306.091225 302.720993 
L 314.739886 310.784542 
L 318.810499 314.431705 
L 325.613051 320.300175 
L 335.950661 328.639001 
L 341.861937 333.072264 
L 348.554582 337.779235 
L 355.809388 342.488321 
L 360.660045 345.39835 
L 368.529408 349.693742 
L 374.214338 352.455296 
L 380.565805 355.186473 
L 383.605192 356.356697 
L 388.060732 357.907168 
L 393.366044 359.489968 
L 396.499931 360.286413 
L 402.475451 361.510213 
L 408.421065 362.330002 
L 412.108228 362.63129 
L 415.613512 362.765782 
L 420.071466 362.716323 
L 423.812339 362.478245 
L 427.803902 362.01959 
L 431.989359 361.303802 
L 436.92332 360.138729 
L 440.014909 359.224531 
L 445.454677 357.255482 
L 448.260493 356.052719 
L 452.237428 354.119406 
L 455.171042 352.514651 
L 459.643157 349.76177 
L 461.910356 348.218295 
L 467.009838 344.360951 
L 470.038426 341.802622 
L 475.805917 336.331311 
L 480.248874 331.529587 
L 482.134294 329.322636 
L 487.593852 322.299912 
L 491.110043 317.220179 
L 493.542376 313.414265 
L 497.283511 307.025443 
L 501.248698 299.41049 
L 504.217759 292.996545 
L 506.660919 287.131415 
L 509.699525 278.837095 
L 511.691917 272.541092 
L 513.144685 267.304463 
L 514.863921 259.961751 
L 515.74957 255.333577 
L 516.718098 248.82125 
L 517.270702 243.161553 
L 517.515279 237.576182 
L 517.513637 235.021181 
L 517.265271 229.976054 
L 516.715454 225.483644 
L 515.826736 221.232237 
L 514.375446 216.803072 
L 513.73239 215.332841 
L 512.888369 213.691783 
L 511.840315 211.996391 
L 510.221286 209.919762 
L 508.240167 208.019511 
L 506.119758 206.546563 
L 505.439161 206.170961 
L 502.319834 204.926164 
L 500.043656 204.419066 
L 496.790852 204.14743 
L 493.504338 204.30497 
L 489.900792 204.874337 
L 488.651505 205.153506 
L 483.725821 206.595811 
L 479.271301 208.290612 
L 474.886021 210.247026 
L 467.742865 213.909222 
L 466.276322 214.720333 
L 457.60905 219.825831 
L 449.162325 225.17445 
L 438.630785 232.128064 
L 414.391404 248.223578 
L 405.816482 253.658774 
L 396.594098 259.219872 
L 390.272806 262.821789 
L 382.45714 266.999449 
L 377.799008 269.328434 
L 370.502734 272.711015 
L 367.267003 274.100494 
L 358.703305 277.42497 
L 353.164478 279.285362 
L 346.728788 281.141658 
L 337.786521 283.141574 
L 330.451654 284.246824 
L 326.609024 284.623104 
L 320.642812 284.919167 
L 318.297706 284.936721 
L 311.99363 284.697735 
L 307.589132 284.275514 
L 304.804688 283.896798 
L 298.520738 282.713566 
L 293.364115 281.390647 
L 287.720428 279.563419 
L 283.338484 277.86026 
L 278.142265 275.504425 
L 273.791069 273.239 
L 269.345391 270.635629 
L 265.020079 267.808364 
L 262.529207 266.041934 
L 259.244079 263.549856 
L 256.506604 261.325139 
L 252.000431 257.348253 
L 248.008442 253.465466 
L 243.86417 249.022572 
L 240.086408 244.528137 
L 236.928931 240.340077 
L 236.01299 239.025701 
L 233.367016 234.834546 
L 232.342201 232.942381 
L 231.423254 230.92352 
L 230.914557 229.330949 
L 230.818236 228.727804 
L 230.999535 227.732814 
L 231.262464 227.52883 
L 231.74425 227.471558 
L 232.697374 227.760425 
L 233.988112 228.491162 
L 235.631971 229.686248 
L 235.631971 229.686248 
" clip-path="url(#p90780a000d)" style="fill: none; stroke-dasharray: 5.55,2.4; stroke-dashoffset: 0; stroke: #0000ff; stroke-width: 1.5"/>
   </g>
   <g id="legend_1">
    <g id="patch_6">
     <path d="M 476.960312 112.514375 
L 556.04 112.514375 
Q 558.04 112.514375 558.04 110.514375 
L 558.04 67.48 
Q 558.04 65.48 556.04 65.48 
L 476.960312 65.48 
Q 474.960312 65.48 474.960312 67.48 
L 474.960312 110.514375 
Q 474.960312 112.514375 476.960312 112.514375 
z
" style="fill: #ffffff; opacity: 0.8; stroke: #cccccc; stroke-linejoin: miter"/>
    </g>
    <g id="line2d_22">
     <path d="M 478.960312 73.578438 
L 488.960312 73.578438 
L 498.960312 73.578438 
" style="fill: none; stroke-dasharray: 12.8,3.2,2,3.2; stroke-dashoffset: 0; stroke: #ff0000; stroke-width: 2"/>
    </g>
    <g id="text_19">
     <!-- OptiTrack -->
     <g transform="translate(506.960312 77.078438)scale(0.1 -0.1)">
      <defs>
       <path id="DejaVuSans-4f" d="M 2522 4238 
Q 1834 4238 1429 3725 
Q 1025 3213 1025 2328 
Q 1025 1447 1429 934 
Q 1834 422 2522 422 
Q 3209 422 3611 934 
Q 4013 1447 4013 2328 
Q 4013 3213 3611 3725 
Q 3209 4238 2522 4238 
z
M 2522 4750 
Q 3503 4750 4090 4092 
Q 4678 3434 4678 2328 
Q 4678 1225 4090 567 
Q 3503 -91 2522 -91 
Q 1538 -91 948 565 
Q 359 1222 359 2328 
Q 359 3434 948 4092 
Q 1538 4750 2522 4750 
z
" transform="scale(0.015625)"/>
       <path id="DejaVuSans-70" d="M 1159 525 
L 1159 -1331 
L 581 -1331 
L 581 3500 
L 1159 3500 
L 1159 2969 
Q 1341 3281 1617 3432 
Q 1894 3584 2278 3584 
Q 2916 3584 3314 3078 
Q 3713 2572 3713 1747 
Q 3713 922 3314 415 
Q 2916 -91 2278 -91 
Q 1894 -91 1617 61 
Q 1341 213 1159 525 
z
M 3116 1747 
Q 3116 2381 2855 2742 
Q 2594 3103 2138 3103 
Q 1681 3103 1420 2742 
Q 1159 2381 1159 1747 
Q 1159 1113 1420 752 
Q 1681 391 2138 391 
Q 2594 391 2855 752 
Q 3116 1113 3116 1747 
z
" transform="scale(0.015625)"/>
       <path id="DejaVuSans-72" d="M 2631 2963 
Q 2534 3019 2420 3045 
Q 2306 3072 2169 3072 
Q 1681 3072 1420 2755 
Q 1159 2438 1159 1844 
L 1159 0 
L 581 0 
L 581 3500 
L 1159 3500 
L 1159 2956 
Q 1341 3275 1631 3429 
Q 1922 3584 2338 3584 
Q 2397 3584 2469 3576 
Q 2541 3569 2628 3553 
L 2631 2963 
z
" transform="scale(0.015625)"/>
       <path id="DejaVuSans-61" d="M 2194 1759 
Q 1497 1759 1228 1600 
Q 959 1441 959 1056 
Q 959 750 1161 570 
Q 1363 391 1709 391 
Q 2188 391 2477 730 
Q 2766 1069 2766 1631 
L 2766 1759 
L 2194 1759 
z
M 3341 1997 
L 3341 0 
L 2766 0 
L 2766 531 
Q 2569 213 2275 61 
Q 1981 -91 1556 -91 
Q 1019 -91 701 211 
Q 384 513 384 1019 
Q 384 1609 779 1909 
Q 1175 2209 1959 2209 
L 2766 2209 
L 2766 2266 
Q 2766 2663 2505 2880 
Q 2244 3097 1772 3097 
Q 1472 3097 1187 3025 
Q 903 2953 641 2809 
L 641 3341 
Q 956 3463 1253 3523 
Q 1550 3584 1831 3584 
Q 2591 3584 2966 3190 
Q 3341 2797 3341 1997 
z
" transform="scale(0.015625)"/>
       <path id="DejaVuSans-63" d="M 3122 3366 
L 3122 2828 
Q 2878 2963 2633 3030 
Q 2388 3097 2138 3097 
Q 1578 3097 1268 2742 
Q 959 2388 959 1747 
Q 959 1106 1268 751 
Q 1578 397 2138 397 
Q 2388 397 2633 464 
Q 2878 531 3122 666 
L 3122 134 
Q 2881 22 2623 -34 
Q 2366 -91 2075 -91 
Q 1284 -91 818 406 
Q 353 903 353 1747 
Q 353 2603 823 3093 
Q 1294 3584 2113 3584 
Q 2378 3584 2631 3529 
Q 2884 3475 3122 3366 
z
" transform="scale(0.015625)"/>
       <path id="DejaVuSans-6b" d="M 581 4863 
L 1159 4863 
L 1159 1991 
L 2875 3500 
L 3609 3500 
L 1753 1863 
L 3688 0 
L 2938 0 
L 1159 1709 
L 1159 0 
L 581 0 
L 581 4863 
z
" transform="scale(0.015625)"/>
      </defs>
      <use xlink:href="#DejaVuSans-4f"/>
      <use xlink:href="#DejaVuSans-70" x="78.710938"/>
      <use xlink:href="#DejaVuSans-74" x="142.1875"/>
      <use xlink:href="#DejaVuSans-69" x="181.396484"/>
      <use xlink:href="#DejaVuSans-54" x="209.179688"/>
      <use xlink:href="#DejaVuSans-72" x="255.513672"/>
      <use xlink:href="#DejaVuSans-61" x="296.626953"/>
      <use xlink:href="#DejaVuSans-63" x="357.90625"/>
      <use xlink:href="#DejaVuSans-6b" x="412.886719"/>
     </g>
    </g>
    <g id="line2d_23">
     <path d="M 478.960312 88.256563 
L 488.960312 88.256563 
L 498.960312 88.256563 
" style="fill: none; stroke: #008000; stroke-width: 1.5; stroke-linecap: square"/>
    </g>
    <g id="text_20">
     <!-- Kalman -->
     <g transform="translate(506.960312 91.756563)scale(0.1 -0.1)">
      <defs>
       <path id="DejaVuSans-4b" d="M 628 4666 
L 1259 4666 
L 1259 2694 
L 3353 4666 
L 4166 4666 
L 1850 2491 
L 4331 0 
L 3500 0 
L 1259 2247 
L 1259 0 
L 628 0 
L 628 4666 
z
" transform="scale(0.015625)"/>
       <path id="DejaVuSans-6c" d="M 603 4863 
L 1178 4863 
L 1178 0 
L 603 0 
L 603 4863 
z
" transform="scale(0.015625)"/>
      </defs>
      <use xlink:href="#DejaVuSans-4b"/>
      <use xlink:href="#DejaVuSans-61" x="63.826172"/>
      <use xlink:href="#DejaVuSans-6c" x="125.105469"/>
      <use xlink:href="#DejaVuSans-6d" x="152.888672"/>
      <use xlink:href="#DejaVuSans-61" x="250.300781"/>
      <use xlink:href="#DejaVuSans-6e" x="311.580078"/>
     </g>
    </g>
    <g id="line2d_24">
     <path d="M 478.960312 102.934687 
L 488.960312 102.934687 
L 498.960312 102.934687 
" style="fill: none; stroke-dasharray: 5.55,2.4; stroke-dashoffset: 0; stroke: #0000ff; stroke-width: 1.5"/>
    </g>
    <g id="text_21">
     <!-- Desired -->
     <g transform="translate(506.960312 106.434687)scale(0.1 -0.1)">
      <defs>
       <path id="DejaVuSans-44" d="M 1259 4147 
L 1259 519 
L 2022 519 
Q 2988 519 3436 956 
Q 3884 1394 3884 2338 
Q 3884 3275 3436 3711 
Q 2988 4147 2022 4147 
L 1259 4147 
z
M 628 4666 
L 1925 4666 
Q 3281 4666 3915 4102 
Q 4550 3538 4550 2338 
Q 4550 1131 3912 565 
Q 3275 0 1925 0 
L 628 0 
L 628 4666 
z
" transform="scale(0.015625)"/>
       <path id="DejaVuSans-64" d="M 2906 2969 
L 2906 4863 
L 3481 4863 
L 3481 0 
L 2906 0 
L 2906 525 
Q 2725 213 2448 61 
Q 2172 -91 1784 -91 
Q 1150 -91 751 415 
Q 353 922 353 1747 
Q 353 2572 751 3078 
Q 1150 3584 1784 3584 
Q 2172 3584 2448 3432 
Q 2725 3281 2906 2969 
z
M 947 1747 
Q 947 1113 1208 752 
Q 1469 391 1925 391 
Q 2381 391 2643 752 
Q 2906 1113 2906 1747 
Q 2906 2381 2643 2742 
Q 2381 3103 1925 3103 
Q 1469 3103 1208 2742 
Q 947 2381 947 1747 
z
" transform="scale(0.015625)"/>
      </defs>
      <use xlink:href="#DejaVuSans-44"/>
      <use xlink:href="#DejaVuSans-65" x="77.001953"/>
      <use xlink:href="#DejaVuSans-73" x="138.525391"/>
      <use xlink:href="#DejaVuSans-69" x="190.625"/>
      <use xlink:href="#DejaVuSans-72" x="218.408203"/>
      <use xlink:href="#DejaVuSans-65" x="257.271484"/>
      <use xlink:href="#DejaVuSans-64" x="318.794922"/>
     </g>
    </g>
   </g>
  </g>
 </g>
 <defs>
  <clipPath id="p90780a000d">
   <rect x="174.96" y="60.48" width="388.08" height="388.08"/>
  </clipPath>
 </defs>
</svg>
