<?xml version="1.0" encoding="utf-8" standalone="no"?>
<!DOCTYPE svg PUBLIC "-//W3C//DTD SVG 1.1//EN"
  "http://www.w3.org/Graphics/SVG/1.1/DTD/svg11.dtd">
<svg xmlns:xlink="http://www.w3.org/1999/xlink" width="720pt" height="504pt" viewBox="0 0 720 504" xmlns="http://www.w3.org/2000/svg" version="1.1">
 <metadata>
  <rdf:RDF xmlns:dc="http://purl.org/dc/elements/1.1/" xmlns:cc="http://creativecommons.org/ns#" xmlns:rdf="http://www.w3.org/1999/02/22-rdf-syntax-ns#">
   <cc:Work>
    <dc:type rdf:resource="http://purl.org/dc/dcmitype/StillImage"/>
    <dc:date>2024-02-15T17:06:42.212359</dc:date>
    <dc:format>image/svg+xml</dc:format>
    <dc:creator>
     <cc:Agent>
      <dc:title>Matplotlib v3.5.1, https://matplotlib.org/</dc:title>
     </cc:Agent>
    </dc:creator>
   </cc:Work>
  </rdf:RDF>
 </metadata>
 <defs>
  <style type="text/css">*{stroke-linejoin: round; stroke-linecap: butt}</style>
 </defs>
 <g id="figure_1">
  <g id="patch_1">
   <path d="M 0 504 
L 720 504 
L 720 0 
L 0 0 
z
" style="fill: #ffffff"/>
  </g>
  <g id="patch_2">
   <path d="M 174.96 448.56 
L 563.04 448.56 
L 563.04 60.48 
L 174.96 60.48 
z
" style="fill: #ffffff"/>
  </g>
  <g id="pane3d_1">
   <g id="patch_3">
    <path d="M 469.28228 311.722272 
L 610.574867 411.376013 
L 618.92447 140.508855 
L 472.163932 76.237185 
" style="fill: #f2f2f2; opacity: 0.5; stroke: #f2f2f2; stroke-linejoin: miter"/>
   </g>
  </g>
  <g id="pane3d_2">
   <g id="patch_4">
    <path d="M 469.28228 311.722272 
L 159.6887 344.651347 
L 152.829168 97.405879 
L 472.163932 76.237185 
" style="fill: #e6e6e6; opacity: 0.5; stroke: #e6e6e6; stroke-linejoin: miter"/>
   </g>
  </g>
  <g id="pane3d_3">
   <g id="patch_5">
    <path d="M 469.28228 311.722272 
L 159.6887 344.651347 
L 257.246697 456.027861 
L 610.574867 411.376013 
" style="fill: #ececec; opacity: 0.5; stroke: #ececec; stroke-linejoin: miter"/>
   </g>
  </g>
  <g id="axis3d_1">
   <g id="line2d_1">
    <path d="M 610.574867 411.376013 
L 257.246697 456.027861 
" style="fill: none; stroke: #000000; stroke-width: 0.8; stroke-linecap: square"/>
   </g>
   <g id="text_1">
    <!-- Time (s) -->
    <g transform="translate(436.754141 487.499467)rotate(-7.202573)scale(0.1 -0.1)">
     <defs>
      <path id="DejaVuSans-54" d="M -19 4666 
L 3928 4666 
L 3928 4134 
L 2272 4134 
L 2272 0 
L 1638 0 
L 1638 4134 
L -19 4134 
L -19 4666 
z
" transform="scale(0.015625)"/>
      <path id="DejaVuSans-69" d="M 603 3500 
L 1178 3500 
L 1178 0 
L 603 0 
L 603 3500 
z
M 603 4863 
L 1178 4863 
L 1178 4134 
L 603 4134 
L 603 4863 
z
" transform="scale(0.015625)"/>
      <path id="DejaVuSans-6d" d="M 3328 2828 
Q 3544 3216 3844 3400 
Q 4144 3584 4550 3584 
Q 5097 3584 5394 3201 
Q 5691 2819 5691 2113 
L 5691 0 
L 5113 0 
L 5113 2094 
Q 5113 2597 4934 2840 
Q 4756 3084 4391 3084 
Q 3944 3084 3684 2787 
Q 3425 2491 3425 1978 
L 3425 0 
L 2847 0 
L 2847 2094 
Q 2847 2600 2669 2842 
Q 2491 3084 2119 3084 
Q 1678 3084 1418 2786 
Q 1159 2488 1159 1978 
L 1159 0 
L 581 0 
L 581 3500 
L 1159 3500 
L 1159 2956 
Q 1356 3278 1631 3431 
Q 1906 3584 2284 3584 
Q 2666 3584 2933 3390 
Q 3200 3197 3328 2828 
z
" transform="scale(0.015625)"/>
      <path id="DejaVuSans-65" d="M 3597 1894 
L 3597 1613 
L 953 1613 
Q 991 1019 1311 708 
Q 1631 397 2203 397 
Q 2534 397 2845 478 
Q 3156 559 3463 722 
L 3463 178 
Q 3153 47 2828 -22 
Q 2503 -91 2169 -91 
Q 1331 -91 842 396 
Q 353 884 353 1716 
Q 353 2575 817 3079 
Q 1281 3584 2069 3584 
Q 2775 3584 3186 3129 
Q 3597 2675 3597 1894 
z
M 3022 2063 
Q 3016 2534 2758 2815 
Q 2500 3097 2075 3097 
Q 1594 3097 1305 2825 
Q 1016 2553 972 2059 
L 3022 2063 
z
" transform="scale(0.015625)"/>
      <path id="DejaVuSans-20" transform="scale(0.015625)"/>
      <path id="DejaVuSans-28" d="M 1984 4856 
Q 1566 4138 1362 3434 
Q 1159 2731 1159 2009 
Q 1159 1288 1364 580 
Q 1569 -128 1984 -844 
L 1484 -844 
Q 1016 -109 783 600 
Q 550 1309 550 2009 
Q 550 2706 781 3412 
Q 1013 4119 1484 4856 
L 1984 4856 
z
" transform="scale(0.015625)"/>
      <path id="DejaVuSans-73" d="M 2834 3397 
L 2834 2853 
Q 2591 2978 2328 3040 
Q 2066 3103 1784 3103 
Q 1356 3103 1142 2972 
Q 928 2841 928 2578 
Q 928 2378 1081 2264 
Q 1234 2150 1697 2047 
L 1894 2003 
Q 2506 1872 2764 1633 
Q 3022 1394 3022 966 
Q 3022 478 2636 193 
Q 2250 -91 1575 -91 
Q 1294 -91 989 -36 
Q 684 19 347 128 
L 347 722 
Q 666 556 975 473 
Q 1284 391 1588 391 
Q 1994 391 2212 530 
Q 2431 669 2431 922 
Q 2431 1156 2273 1281 
Q 2116 1406 1581 1522 
L 1381 1569 
Q 847 1681 609 1914 
Q 372 2147 372 2553 
Q 372 3047 722 3315 
Q 1072 3584 1716 3584 
Q 2034 3584 2315 3537 
Q 2597 3491 2834 3397 
z
" transform="scale(0.015625)"/>
      <path id="DejaVuSans-29" d="M 513 4856 
L 1013 4856 
Q 1481 4119 1714 3412 
Q 1947 2706 1947 2009 
Q 1947 1309 1714 600 
Q 1481 -109 1013 -844 
L 513 -844 
Q 928 -128 1133 580 
Q 1338 1288 1338 2009 
Q 1338 2731 1133 3434 
Q 928 4138 513 4856 
z
" transform="scale(0.015625)"/>
     </defs>
     <use xlink:href="#DejaVuSans-54"/>
     <use xlink:href="#DejaVuSans-69" x="57.958984"/>
     <use xlink:href="#DejaVuSans-6d" x="85.742188"/>
     <use xlink:href="#DejaVuSans-65" x="183.154297"/>
     <use xlink:href="#DejaVuSans-20" x="244.677734"/>
     <use xlink:href="#DejaVuSans-28" x="276.464844"/>
     <use xlink:href="#DejaVuSans-73" x="315.478516"/>
     <use xlink:href="#DejaVuSans-29" x="367.578125"/>
    </g>
   </g>
   <g id="Line3DCollection_1">
    <path d="M 577.099664 415.606442 
L 439.725493 314.865999 
L 441.721251 78.255229 
" style="fill: none; stroke: #b0b0b0; stroke-width: 0.8"/>
    <path d="M 508.962088 424.217328 
L 379.710154 321.249366 
L 379.87849 82.354785 
" style="fill: none; stroke: #b0b0b0; stroke-width: 0.8"/>
    <path d="M 439.194278 433.034235 
L 318.461579 327.763903 
L 316.72539 86.541202 
" style="fill: none; stroke: #b0b0b0; stroke-width: 0.8"/>
    <path d="M 367.73702 442.064647 
L 255.94136 334.413696 
L 252.219859 90.817272 
" style="fill: none; stroke: #b0b0b0; stroke-width: 0.8"/>
    <path d="M 294.528196 451.316412 
L 192.10948 341.202999 
L 186.317982 95.185906 
" style="fill: none; stroke: #b0b0b0; stroke-width: 0.8"/>
   </g>
   <g id="xtick_1">
    <g id="line2d_2">
     <path d="M 575.82592 414.672369 
L 579.65699 417.481803 
" style="fill: none; stroke: #000000; stroke-width: 0.8; stroke-linecap: square"/>
    </g>
    <g id="text_2">
     <!-- −1.0 -->
     <g transform="translate(573.695243 444.976684)scale(0.1 -0.1)">
      <defs>
       <path id="DejaVuSans-2212" d="M 678 2272 
L 4684 2272 
L 4684 1741 
L 678 1741 
L 678 2272 
z
" transform="scale(0.015625)"/>
       <path id="DejaVuSans-31" d="M 794 531 
L 1825 531 
L 1825 4091 
L 703 3866 
L 703 4441 
L 1819 4666 
L 2450 4666 
L 2450 531 
L 3481 531 
L 3481 0 
L 794 0 
L 794 531 
z
" transform="scale(0.015625)"/>
       <path id="DejaVuSans-2e" d="M 684 794 
L 1344 794 
L 1344 0 
L 684 0 
L 684 794 
z
" transform="scale(0.015625)"/>
       <path id="DejaVuSans-30" d="M 2034 4250 
Q 1547 4250 1301 3770 
Q 1056 3291 1056 2328 
Q 1056 1369 1301 889 
Q 1547 409 2034 409 
Q 2525 409 2770 889 
Q 3016 1369 3016 2328 
Q 3016 3291 2770 3770 
Q 2525 4250 2034 4250 
z
M 2034 4750 
Q 2819 4750 3233 4129 
Q 3647 3509 3647 2328 
Q 3647 1150 3233 529 
Q 2819 -91 2034 -91 
Q 1250 -91 836 529 
Q 422 1150 422 2328 
Q 422 3509 836 4129 
Q 1250 4750 2034 4750 
z
" transform="scale(0.015625)"/>
      </defs>
      <use xlink:href="#DejaVuSans-2212"/>
      <use xlink:href="#DejaVuSans-31" x="83.789062"/>
      <use xlink:href="#DejaVuSans-2e" x="147.412109"/>
      <use xlink:href="#DejaVuSans-30" x="179.199219"/>
     </g>
    </g>
   </g>
   <g id="xtick_2">
    <g id="line2d_3">
     <path d="M 507.761713 423.261055 
L 511.372219 426.137348 
" style="fill: none; stroke: #000000; stroke-width: 0.8; stroke-linecap: square"/>
    </g>
    <g id="text_3">
     <!-- −0.5 -->
     <g transform="translate(505.163161 453.90983)scale(0.1 -0.1)">
      <defs>
       <path id="DejaVuSans-35" d="M 691 4666 
L 3169 4666 
L 3169 4134 
L 1269 4134 
L 1269 2991 
Q 1406 3038 1543 3061 
Q 1681 3084 1819 3084 
Q 2600 3084 3056 2656 
Q 3513 2228 3513 1497 
Q 3513 744 3044 326 
Q 2575 -91 1722 -91 
Q 1428 -91 1123 -41 
Q 819 9 494 109 
L 494 744 
Q 775 591 1075 516 
Q 1375 441 1709 441 
Q 2250 441 2565 725 
Q 2881 1009 2881 1497 
Q 2881 1984 2565 2268 
Q 2250 2553 1709 2553 
Q 1456 2553 1204 2497 
Q 953 2441 691 2322 
L 691 4666 
z
" transform="scale(0.015625)"/>
      </defs>
      <use xlink:href="#DejaVuSans-2212"/>
      <use xlink:href="#DejaVuSans-30" x="83.789062"/>
      <use xlink:href="#DejaVuSans-2e" x="147.412109"/>
      <use xlink:href="#DejaVuSans-35" x="179.199219"/>
     </g>
    </g>
   </g>
   <g id="xtick_3">
    <g id="line2d_4">
     <path d="M 438.071165 432.054961 
L 441.449386 435.000529 
" style="fill: none; stroke: #000000; stroke-width: 0.8; stroke-linecap: square"/>
    </g>
    <g id="text_4">
     <!-- 0.0 -->
     <g transform="translate(439.169109 463.058289)scale(0.1 -0.1)">
      <use xlink:href="#DejaVuSans-30"/>
      <use xlink:href="#DejaVuSans-2e" x="63.623047"/>
      <use xlink:href="#DejaVuSans-30" x="95.410156"/>
     </g>
    </g>
   </g>
   <g id="xtick_4">
    <g id="line2d_5">
     <path d="M 366.695283 441.061531 
L 369.828832 444.078907 
" style="fill: none; stroke: #000000; stroke-width: 0.8; stroke-linecap: square"/>
    </g>
    <g id="text_5">
     <!-- 0.5 -->
     <g transform="translate(367.272952 472.429942)scale(0.1 -0.1)">
      <use xlink:href="#DejaVuSans-30"/>
      <use xlink:href="#DejaVuSans-2e" x="63.623047"/>
      <use xlink:href="#DejaVuSans-35" x="95.410156"/>
     </g>
    </g>
   </g>
   <g id="xtick_5">
    <g id="line2d_6">
     <path d="M 293.572183 450.288574 
L 296.447968 453.380416 
" style="fill: none; stroke: #000000; stroke-width: 0.8; stroke-linecap: square"/>
    </g>
    <g id="text_6">
     <!-- 1.0 -->
     <g transform="translate(293.601098 482.033057)scale(0.1 -0.1)">
      <use xlink:href="#DejaVuSans-31"/>
      <use xlink:href="#DejaVuSans-2e" x="63.623047"/>
      <use xlink:href="#DejaVuSans-30" x="95.410156"/>
     </g>
    </g>
   </g>
  </g>
  <g id="axis3d_2">
   <g id="line2d_7">
    <path d="M 159.6887 344.651347 
L 257.246697 456.027861 
" style="fill: none; stroke: #000000; stroke-width: 0.8; stroke-linecap: square"/>
   </g>
   <g id="text_7">
    <!-- Position (X) -->
    <g transform="translate(141.317716 413.286557)rotate(-311.216081)scale(0.1 -0.1)">
     <defs>
      <path id="DejaVuSans-50" d="M 1259 4147 
L 1259 2394 
L 2053 2394 
Q 2494 2394 2734 2622 
Q 2975 2850 2975 3272 
Q 2975 3691 2734 3919 
Q 2494 4147 2053 4147 
L 1259 4147 
z
M 628 4666 
L 2053 4666 
Q 2838 4666 3239 4311 
Q 3641 3956 3641 3272 
Q 3641 2581 3239 2228 
Q 2838 1875 2053 1875 
L 1259 1875 
L 1259 0 
L 628 0 
L 628 4666 
z
" transform="scale(0.015625)"/>
      <path id="DejaVuSans-6f" d="M 1959 3097 
Q 1497 3097 1228 2736 
Q 959 2375 959 1747 
Q 959 1119 1226 758 
Q 1494 397 1959 397 
Q 2419 397 2687 759 
Q 2956 1122 2956 1747 
Q 2956 2369 2687 2733 
Q 2419 3097 1959 3097 
z
M 1959 3584 
Q 2709 3584 3137 3096 
Q 3566 2609 3566 1747 
Q 3566 888 3137 398 
Q 2709 -91 1959 -91 
Q 1206 -91 779 398 
Q 353 888 353 1747 
Q 353 2609 779 3096 
Q 1206 3584 1959 3584 
z
" transform="scale(0.015625)"/>
      <path id="DejaVuSans-74" d="M 1172 4494 
L 1172 3500 
L 2356 3500 
L 2356 3053 
L 1172 3053 
L 1172 1153 
Q 1172 725 1289 603 
Q 1406 481 1766 481 
L 2356 481 
L 2356 0 
L 1766 0 
Q 1100 0 847 248 
Q 594 497 594 1153 
L 594 3053 
L 172 3053 
L 172 3500 
L 594 3500 
L 594 4494 
L 1172 4494 
z
" transform="scale(0.015625)"/>
      <path id="DejaVuSans-6e" d="M 3513 2113 
L 3513 0 
L 2938 0 
L 2938 2094 
Q 2938 2591 2744 2837 
Q 2550 3084 2163 3084 
Q 1697 3084 1428 2787 
Q 1159 2491 1159 1978 
L 1159 0 
L 581 0 
L 581 3500 
L 1159 3500 
L 1159 2956 
Q 1366 3272 1645 3428 
Q 1925 3584 2291 3584 
Q 2894 3584 3203 3211 
Q 3513 2838 3513 2113 
z
" transform="scale(0.015625)"/>
      <path id="DejaVuSans-58" d="M 403 4666 
L 1081 4666 
L 2241 2931 
L 3406 4666 
L 4084 4666 
L 2584 2425 
L 4184 0 
L 3506 0 
L 2194 1984 
L 872 0 
L 191 0 
L 1856 2491 
L 403 4666 
z
" transform="scale(0.015625)"/>
     </defs>
     <use xlink:href="#DejaVuSans-50"/>
     <use xlink:href="#DejaVuSans-6f" x="56.677734"/>
     <use xlink:href="#DejaVuSans-73" x="117.859375"/>
     <use xlink:href="#DejaVuSans-69" x="169.958984"/>
     <use xlink:href="#DejaVuSans-74" x="197.742188"/>
     <use xlink:href="#DejaVuSans-69" x="236.951172"/>
     <use xlink:href="#DejaVuSans-6f" x="264.734375"/>
     <use xlink:href="#DejaVuSans-6e" x="325.916016"/>
     <use xlink:href="#DejaVuSans-20" x="389.294922"/>
     <use xlink:href="#DejaVuSans-28" x="421.082031"/>
     <use xlink:href="#DejaVuSans-58" x="460.095703"/>
     <use xlink:href="#DejaVuSans-29" x="528.601562"/>
    </g>
   </g>
   <g id="Line3DCollection_2">
    <path d="M 484.940352 81.832435 
L 481.637253 320.436241 
L 168.153869 354.315557 
" style="fill: none; stroke: #b0b0b0; stroke-width: 0.8"/>
    <path d="M 511.628344 93.520057 
L 507.411211 338.614628 
L 185.853413 374.522137 
" style="fill: none; stroke: #b0b0b0; stroke-width: 0.8"/>
    <path d="M 539.945352 105.921084 
L 534.708674 357.867544 
L 204.658652 395.991028 
" style="fill: none; stroke: #b0b0b0; stroke-width: 0.8"/>
    <path d="M 570.045222 119.10289 
L 563.668838 378.293164 
L 224.676537 418.844329 
" style="fill: none; stroke: #b0b0b0; stroke-width: 0.8"/>
    <path d="M 602.101803 133.14161 
L 594.448388 400.001998 
L 246.02827 443.22041 
" style="fill: none; stroke: #b0b0b0; stroke-width: 0.8"/>
   </g>
   <g id="xtick_6">
    <g id="line2d_8">
     <path d="M 170.794779 354.030144 
L 162.865261 354.887117 
" style="fill: none; stroke: #000000; stroke-width: 0.8; stroke-linecap: square"/>
    </g>
    <g id="text_8">
     <!-- −1.0 -->
     <g transform="translate(137.567888 377.779051)scale(0.1 -0.1)">
      <use xlink:href="#DejaVuSans-2212"/>
      <use xlink:href="#DejaVuSans-31" x="83.789062"/>
      <use xlink:href="#DejaVuSans-2e" x="147.412109"/>
      <use xlink:href="#DejaVuSans-30" x="179.199219"/>
     </g>
    </g>
   </g>
   <g id="xtick_7">
    <g id="line2d_9">
     <path d="M 188.566477 374.219177 
L 180.4201 375.128861 
" style="fill: none; stroke: #000000; stroke-width: 0.8; stroke-linecap: square"/>
    </g>
    <g id="text_9">
     <!-- −0.5 -->
     <g transform="translate(154.730963 398.492961)scale(0.1 -0.1)">
      <use xlink:href="#DejaVuSans-2212"/>
      <use xlink:href="#DejaVuSans-30" x="83.789062"/>
      <use xlink:href="#DejaVuSans-2e" x="147.412109"/>
      <use xlink:href="#DejaVuSans-35" x="179.199219"/>
     </g>
    </g>
   </g>
   <g id="xtick_8">
    <g id="line2d_10">
     <path d="M 207.447873 395.66885 
L 199.072593 396.636264 
" style="fill: none; stroke: #000000; stroke-width: 0.8; stroke-linecap: square"/>
    </g>
    <g id="text_10">
     <!-- 0.0 -->
     <g transform="translate(177.157495 420.502603)scale(0.1 -0.1)">
      <use xlink:href="#DejaVuSans-30"/>
      <use xlink:href="#DejaVuSans-2e" x="63.623047"/>
      <use xlink:href="#DejaVuSans-30" x="95.410156"/>
     </g>
    </g>
   </g>
   <g id="xtick_9">
    <g id="line2d_11">
     <path d="M 227.546254 418.501046 
L 218.929012 419.531863 
" style="fill: none; stroke: #000000; stroke-width: 0.8; stroke-linecap: square"/>
    </g>
    <g id="text_11">
     <!-- 0.5 -->
     <g transform="translate(196.571788 443.933481)scale(0.1 -0.1)">
      <use xlink:href="#DejaVuSans-30"/>
      <use xlink:href="#DejaVuSans-2e" x="63.623047"/>
      <use xlink:href="#DejaVuSans-35" x="95.410156"/>
     </g>
    </g>
   </g>
   <g id="xtick_10">
    <g id="line2d_12">
     <path d="M 248.983198 442.853877 
L 240.109806 443.954543 
" style="fill: none; stroke: #000000; stroke-width: 0.8; stroke-linecap: square"/>
    </g>
    <g id="text_12">
     <!-- 1.0 -->
     <g transform="translate(217.281553 468.92785)scale(0.1 -0.1)">
      <use xlink:href="#DejaVuSans-31"/>
      <use xlink:href="#DejaVuSans-2e" x="63.623047"/>
      <use xlink:href="#DejaVuSans-30" x="95.410156"/>
     </g>
    </g>
   </g>
  </g>
  <g id="axis3d_3">
   <g id="line2d_13">
    <path d="M 159.6887 344.651347 
L 152.829168 97.405879 
" style="fill: none; stroke: #000000; stroke-width: 0.8; stroke-linecap: square"/>
   </g>
   <g id="text_13">
    <!-- Position (Y) -->
    <g transform="translate(101.978427 188.921446)rotate(-271.589196)scale(0.1 -0.1)">
     <defs>
      <path id="DejaVuSans-59" d="M -13 4666 
L 666 4666 
L 1959 2747 
L 3244 4666 
L 3922 4666 
L 2272 2222 
L 2272 0 
L 1638 0 
L 1638 2222 
L -13 4666 
z
" transform="scale(0.015625)"/>
     </defs>
     <use xlink:href="#DejaVuSans-50"/>
     <use xlink:href="#DejaVuSans-6f" x="56.677734"/>
     <use xlink:href="#DejaVuSans-73" x="117.859375"/>
     <use xlink:href="#DejaVuSans-69" x="169.958984"/>
     <use xlink:href="#DejaVuSans-74" x="197.742188"/>
     <use xlink:href="#DejaVuSans-69" x="236.951172"/>
     <use xlink:href="#DejaVuSans-6f" x="264.734375"/>
     <use xlink:href="#DejaVuSans-6e" x="325.916016"/>
     <use xlink:href="#DejaVuSans-20" x="389.294922"/>
     <use xlink:href="#DejaVuSans-28" x="421.082031"/>
     <use xlink:href="#DejaVuSans-59" x="460.095703"/>
     <use xlink:href="#DejaVuSans-29" x="521.179688"/>
    </g>
   </g>
   <g id="Line3DCollection_3">
    <path d="M 159.555677 339.856662 
L 469.33825 307.148479 
L 610.736271 406.139961 
" style="fill: none; stroke: #b0b0b0; stroke-width: 0.8"/>
    <path d="M 158.21632 291.58078 
L 469.901597 261.112496 
L 612.362517 353.383373 
" style="fill: none; stroke: #b0b0b0; stroke-width: 0.8"/>
    <path d="M 156.860147 242.698768 
L 470.471657 214.527818 
L 614.011283 299.896196 
" style="fill: none; stroke: #b0b0b0; stroke-width: 0.8"/>
    <path d="M 155.486838 193.19914 
L 471.048553 167.384577 
L 615.683042 245.663149 
" style="fill: none; stroke: #b0b0b0; stroke-width: 0.8"/>
    <path d="M 154.096068 143.070114 
L 471.632408 119.672667 
L 617.378276 190.668518 
" style="fill: none; stroke: #b0b0b0; stroke-width: 0.8"/>
   </g>
   <g id="xtick_11">
    <g id="line2d_14">
     <path d="M 162.163587 339.581307 
L 154.333248 340.408068 
" style="fill: none; stroke: #000000; stroke-width: 0.8; stroke-linecap: square"/>
    </g>
    <g id="text_14">
     <!-- 0.0 -->
     <g transform="translate(128.422226 344.049429)scale(0.1 -0.1)">
      <use xlink:href="#DejaVuSans-30"/>
      <use xlink:href="#DejaVuSans-2e" x="63.623047"/>
      <use xlink:href="#DejaVuSans-30" x="95.410156"/>
     </g>
    </g>
   </g>
   <g id="xtick_12">
    <g id="line2d_15">
     <path d="M 160.841061 291.324202 
L 152.960144 292.094589 
" style="fill: none; stroke: #000000; stroke-width: 0.8; stroke-linecap: square"/>
    </g>
    <g id="text_15">
     <!-- 0.5 -->
     <g transform="translate(126.946038 296.005884)scale(0.1 -0.1)">
      <use xlink:href="#DejaVuSans-30"/>
      <use xlink:href="#DejaVuSans-2e" x="63.623047"/>
      <use xlink:href="#DejaVuSans-35" x="95.410156"/>
     </g>
    </g>
   </g>
   <g id="xtick_13">
    <g id="line2d_16">
     <path d="M 159.501938 242.461463 
L 151.569785 243.173988 
" style="fill: none; stroke: #000000; stroke-width: 0.8; stroke-linecap: square"/>
    </g>
    <g id="text_16">
     <!-- 1.0 -->
     <g transform="translate(125.451413 247.362312)scale(0.1 -0.1)">
      <use xlink:href="#DejaVuSans-31"/>
      <use xlink:href="#DejaVuSans-2e" x="63.623047"/>
      <use xlink:href="#DejaVuSans-30" x="95.410156"/>
     </g>
    </g>
   </g>
   <g id="xtick_14">
    <g id="line2d_17">
     <path d="M 158.145902 192.981615 
L 150.161844 193.634751 
" style="fill: none; stroke: #000000; stroke-width: 0.8; stroke-linecap: square"/>
    </g>
    <g id="text_17">
     <!-- 1.5 -->
     <g transform="translate(123.938005 198.107404)scale(0.1 -0.1)">
      <use xlink:href="#DejaVuSans-31"/>
      <use xlink:href="#DejaVuSans-2e" x="63.623047"/>
      <use xlink:href="#DejaVuSans-35" x="95.410156"/>
     </g>
    </g>
   </g>
   <g id="xtick_15">
    <g id="line2d_18">
     <path d="M 156.772631 142.872894 
L 148.735985 143.465068 
" style="fill: none; stroke: #000000; stroke-width: 0.8; stroke-linecap: square"/>
    </g>
    <g id="text_18">
     <!-- 2.0 -->
     <g transform="translate(122.405456 148.229562)scale(0.1 -0.1)">
      <defs>
       <path id="DejaVuSans-32" d="M 1228 531 
L 3431 531 
L 3431 0 
L 469 0 
L 469 531 
Q 828 903 1448 1529 
Q 2069 2156 2228 2338 
Q 2531 2678 2651 2914 
Q 2772 3150 2772 3378 
Q 2772 3750 2511 3984 
Q 2250 4219 1831 4219 
Q 1534 4219 1204 4116 
Q 875 4013 500 3803 
L 500 4441 
Q 881 4594 1212 4672 
Q 1544 4750 1819 4750 
Q 2544 4750 2975 4387 
Q 3406 4025 3406 3419 
Q 3406 3131 3298 2873 
Q 3191 2616 2906 2266 
Q 2828 2175 2409 1742 
Q 1991 1309 1228 531 
z
" transform="scale(0.015625)"/>
      </defs>
      <use xlink:href="#DejaVuSans-32"/>
      <use xlink:href="#DejaVuSans-2e" x="63.623047"/>
      <use xlink:href="#DejaVuSans-30" x="95.410156"/>
     </g>
    </g>
   </g>
  </g>
  <g id="axes_1">
   <g id="line2d_19">
    <path d="M 225.905234 242.085576 
L 226.050073 241.675457 
L 226.469112 241.427078 
L 226.616162 241.025635 
L 228.446311 241.87257 
L 229.780055 242.155233 
L 230.316984 242.066939 
L 231.146062 242.19677 
L 233.291285 243.349509 
L 234.985926 243.850362 
L 239.600028 246.039717 
L 239.602133 246.162158 
L 242.288875 248.709263 
L 244.422912 250.24211 
L 245.172079 251.408902 
L 249.955269 254.130317 
L 250.797044 256.463605 
L 252.625296 257.977044 
L 253.551665 258.24782 
L 257.49779 262.317301 
L 259.51283 265.882496 
L 262.609303 268.227713 
L 264.803641 270.434006 
L 265.89788 272.482612 
L 269.199154 275.002912 
L 270.289172 277.183054 
L 272.586627 279.568272 
L 276.116716 282.148442 
L 278.53214 284.511391 
L 279.794803 286.673508 
L 282.303373 288.982205 
L 286.190541 291.434998 
L 288.856673 293.690962 
L 290.179845 295.392602 
L 294.396081 298.02895 
L 298.736155 300.497831 
L 301.668188 302.381466 
L 306.388908 306.011852 
L 307.95562 306.118389 
L 311.253474 309.047637 
L 311.271662 311.290878 
L 314.612075 313.611816 
L 321.583381 315.981454 
L 325.179536 318.111314 
L 325.18441 318.882249 
L 328.826776 321.674999 
L 334.381708 323.977512 
L 343.769339 326.076934 
L 343.778766 328.47481 
L 349.526958 328.525908 
L 359.190134 330.677264 
L 365.569444 334.489326 
L 370.676279 336.649601 
L 370.676279 336.649601 
L 376.403047 337.84923 
L 383.996887 338.717088 
L 383.995294 339.981958 
L 383.995294 339.981958 
L 387.741042 340.817826 
L 391.524874 341.399936 
L 393.411092 341.933067 
L 397.09356 342.280816 
L 404.494256 342.319175 
L 404.493054 342.626638 
L 409.942765 342.501241 
L 418.882145 341.94914 
L 424.118559 341.313813 
L 432.725858 339.897097 
L 436.079114 338.669718 
L 442.563486 337.240581 
L 447.305034 335.928417 
L 448.895876 335.225164 
L 452.390913 333.955044 
L 453.425503 332.93687 
L 457.874968 331.012648 
L 460.747601 329.399562 
L 462.186116 328.000245 
L 465.047085 326.270015 
L 469.130683 324.083802 
L 471.806222 322.153476 
L 475.673786 319.811118 
L 475.691993 318.418408 
L 479.117134 316.022938 
L 480.764627 314.22197 
L 487.820636 310.427135 
L 491.190273 304.872003 
L 492.298109 302.45884 
L 496.457397 297.220024 
L 500.271424 291.989535 
L 503.804329 286.701445 
L 506.156392 283.66708 
L 507.63084 281.024473 
L 508.341987 278.766231 
L 509.639857 276.145316 
L 511.34115 273.679416 
L 511.885919 271.113126 
L 513.245566 268.005192 
L 513.731827 265.764148 
L 516.090363 257.418701 
L 516.120698 255.746169 
L 516.647304 252.973696 
L 517.406045 244.291315 
L 517.420268 238.084819 
L 517.339822 236.121227 
L 516.970242 232.509195 
L 516.502308 230.361067 
L 515.737708 227.378239 
L 514.699913 225.056004 
L 512.51844 220.505989 
L 509.948 218.289799 
L 509.360921 217.709785 
L 509.360921 217.709785 
L 508.762755 217.281963 
L 506.172412 216.050151 
L 504.748495 215.55133 
L 502.348353 214.832644 
L 501.517715 215.315101 
L 498.336307 214.820877 
L 494.202763 214.660785 
L 492.125006 215.059353 
L 490.013368 216.367862 
L 488.968339 216.1323 
L 484.550681 216.165087 
L 482.24692 217.661272 
L 481.071276 218.557868 
L 479.884071 218.344313 
L 475.92789 218.796831 
L 472.623165 220.43122 
L 469.766003 221.418659 
L 468.531794 222.662862 
L 466.401613 222.340482 
L 465.144719 223.598173 
L 461.282516 224.538826 
L 460.008552 225.917698 
L 457.382314 227.1748 
L 453.94994 230.078209 
L 449.590093 230.566034 
L 448.270334 230.402811 
L 446.952837 232.452701 
L 444.314691 234.106147 
L 436.352382 236.966653 
L 435.004005 238.666783 
L 433.173852 240.333484 
L 429.485319 241.803803 
L 426.74476 245.133118 
L 425.351797 245.01649 
L 423.948206 246.65269 
L 419.738337 247.881428 
L 418.291245 249.606815 
L 413.886071 250.848887 
L 407.93436 252.258648 
L 404.866974 255.354274 
L 401.823578 255.216935 
L 401.81805 256.78502 
L 397.132981 258.119078 
L 396.09547 259.596976 
L 389.208238 260.708184 
L 385.978062 263.595039 
L 379.454253 266.225517 
L 366.258056 267.52277 
L 364.588343 270.809291 
L 359.564983 272.694912 
L 358.463228 272.7266 
L 352.808608 273.658357 
L 340.993488 276.321477 
L 340.994768 276.62196 
L 337.642496 276.820407 
L 329.199324 277.794476 
L 317.691357 278.475752 
L 316.113666 278.389154 
L 312.975752 278.414286 
L 308.336846 278.59883 
L 298.076222 277.785727 
L 296.685168 278.008844 
L 292.566999 277.950448 
L 292.557234 277.017915 
L 289.953278 276.645125 
L 287.353375 275.829771 
L 284.844155 275.459946 
L 279.987773 275.307259 
L 279.974173 274.181379 
L 276.484067 272.288133 
L 274.174985 272.899636 
L 268.987442 271.26845 
L 267.520322 270.516203 
L 264.99113 269.911956 
L 264.19482 268.141763 
L 260.959581 267.381429 
L 259.888288 266.355678 
L 257.726063 265.509067 
L 249.566285 261.730857 
L 247.661872 260.083187 
L 244.017028 257.534192 
L 241.542854 257.279878 
L 240.459754 255.517395 
L 238.234556 254.918884 
L 235.738112 252.751163 
L 234.443451 251.879023 
L 233.877118 250.954073 
L 233.877118 250.954073 
L 231.877368 250.040235 
L 231.286555 247.677963 
L 230.67166 248.277046 
L 229.138605 245.550011 
L 228.910089 245.917232 
L 228.535902 245.269266 
L 228.348653 244.117304 
L 227.979454 243.48905 
L 227.895745 243.020189 
L 228.005416 242.791906 
L 228.184266 241.638704 
L 228.40399 241.039877 
L 228.383884 239.959411 
L 228.383884 239.959411 
" clip-path="url(#p40203cb8da)" style="fill: none; stroke-dasharray: 12.8,3.2,2,3.2; stroke-dashoffset: 0; stroke: #ff0000; stroke-width: 2"/>
   </g>
   <g id="line2d_20">
    <path d="M 227.105817 244.568982 
L 224.490829 243.278305 
L 227.577912 243.271188 
L 227.874589 243.842034 
L 233.74046 244.598083 
L 233.969764 245.395118 
L 239.884918 246.237683 
L 241.130484 245.399122 
L 247.026446 246.118764 
L 246.143637 245.824904 
L 248.295122 248.011586 
L 250.936861 248.925162 
L 250.936861 248.925162 
L 251.12346 249.975403 
L 252.076145 249.312464 
L 253.087826 250.97109 
L 256.397873 251.663213 
L 255.009377 253.122114 
L 249.742075 255.269488 
L 257.249637 256.184805 
L 255.462548 260.349161 
L 261.109449 264.229245 
L 261.109449 264.229245 
L 264.975416 265.303886 
L 267.496687 267.359706 
L 271.64703 267.264665 
L 272.828458 269.233556 
L 277.95907 272.63286 
L 279.092024 273.852701 
L 278.765677 278.486347 
L 289.855588 281.203561 
L 294.837827 283.164199 
L 296.952099 285.383151 
L 290.807465 287.61795 
L 290.250017 290.619082 
L 291.096658 292.318347 
L 295.249555 292.68924 
L 293.376403 296.244809 
L 293.867484 298.226965 
L 297.734045 301.057745 
L 302.782219 303.507428 
L 305.451898 303.412312 
L 308.956481 307.321079 
L 308.956481 307.321079 
L 311.594965 309.075357 
L 321.852591 311.339772 
L 327.833483 313.869341 
L 335.743165 317.022595 
L 339.039565 318.729039 
L 347.797871 319.000386 
L 351.377325 321.935595 
L 357.467004 324.174349 
L 359.028925 326.9196 
L 361.176996 328.417818 
L 361.176996 328.417818 
L 362.197692 331.010688 
L 373.390174 336.758696 
L 382.0143 339.132195 
L 382.0143 339.132195 
L 384.270586 339.380545 
L 385.834791 338.942782 
L 385.834791 338.942782 
L 394.528627 338.843114 
L 396.803937 339.151294 
L 399.716961 340.625411 
L 407.564755 341.309077 
L 407.513246 342.804167 
L 409.001898 344.281982 
L 416.218137 344.044923 
L 418.78136 343.146111 
L 423.916663 343.774994 
L 429.095933 345.277156 
L 431.766962 344.410064 
L 435.508374 343.43995 
L 438.574014 340.732832 
L 438.948915 339.277235 
L 442.867633 339.355003 
L 449.514151 337.102764 
L 452.620127 336.530636 
L 455.218769 334.899982 
L 458.167522 332.356053 
L 462.582685 329.534355 
L 466.814027 327.811555 
L 468.247528 325.623737 
L 469.37229 322.76596 
L 468.637139 319.164527 
L 472.220228 318.711456 
L 473.956908 316.878581 
L 472.884617 314.971514 
L 471.612047 313.768621 
L 477.052488 310.82922 
L 478.644275 309.270415 
L 492.117527 300.225079 
L 498.611447 297.255633 
L 500.81679 294.37429 
L 500.329177 292.992141 
L 502.722122 289.538719 
L 503.734429 288.46898 
L 503.813951 285.610364 
L 504.253945 283.586454 
L 505.15047 282.304866 
L 508.270356 279.704652 
L 506.764764 277.406301 
L 506.694758 275.022376 
L 509.411372 274.486833 
L 509.26988 272.94411 
L 511.606572 270.450908 
L 513.909645 264.828837 
L 512.827647 262.352563 
L 506.89978 259.954964 
L 505.44915 256.918634 
L 510.329871 254.016755 
L 513.028293 251.712891 
L 511.682804 249.806451 
L 516.820666 247.312098 
L 517.834113 244.249088 
L 517.880376 242.362151 
L 517.045717 240.061926 
L 518.316469 237.650745 
L 520.919665 235.911308 
L 517.403254 233.544337 
L 513.673834 231.442266 
L 515.545267 230.538003 
L 507.477967 228.295804 
L 505.939351 227.138426 
L 505.374118 226.288357 
L 503.284425 225.582898 
L 504.541907 222.156662 
L 507.943384 220.369066 
L 506.405993 218.99466 
L 502.758892 218.21929 
L 498.599647 216.478572 
L 495.167465 215.789517 
L 495.167465 215.789517 
L 494.105666 213.574653 
L 489.633327 212.898708 
L 491.796635 211.947929 
L 495.395222 212.601475 
L 498.00892 214.653154 
L 496.057159 215.289822 
L 494.095555 213.477012 
L 490.236172 214.549421 
L 480.582306 213.51476 
L 480.582306 213.51476 
L 485.224848 215.120871 
L 481.650178 215.42603 
L 474.523266 214.945162 
L 467.966194 217.396119 
L 466.318348 217.810212 
L 464.335266 218.472559 
L 464.335266 218.472559 
L 457.061861 220.100532 
L 449.859773 223.927372 
L 454.448938 224.794024 
L 444.087428 227.874302 
L 442.293858 229.84368 
L 442.293858 229.84368 
L 434.90992 231.807505 
L 430.243221 233.474066 
L 423.743602 235.987823 
L 424.640939 237.688594 
L 422.492151 239.226994 
L 417.326284 241.910037 
L 409.02703 242.505862 
L 407.777886 244.277 
L 403.713564 244.922636 
L 402.584506 246.493407 
L 400.035668 247.593403 
L 397.114779 249.431036 
L 391.62378 249.710103 
L 386.61044 252.347774 
L 386.61044 252.347774 
L 385.924432 254.650234 
L 381.758118 255.624939 
L 379.56799 257.076959 
L 381.624579 257.799786 
L 380.473683 259.563647 
L 374.013452 261.456478 
L 371.377209 261.9535 
L 363.634462 263.965595 
L 357.63165 265.272479 
L 347.546785 268.596126 
L 339.020729 272.509342 
L 339.020729 272.509342 
L 337.756845 273.848158 
L 329.260532 275.06161 
L 331.286334 275.961866 
L 331.286334 275.961866 
L 325.375962 275.940076 
L 319.819743 276.772408 
L 315.872686 277.60415 
L 318.911764 279.487902 
L 313.394283 277.923183 
L 310.044525 276.558841 
L 306.178963 278.759075 
L 298.722884 280.832354 
L 298.848621 280.695563 
L 302.348808 279.541163 
L 290.677 279.22137 
L 290.677 279.22137 
L 288.520187 278.145927 
L 291.550721 277.567722 
L 288.740543 276.271241 
L 288.488173 275.503971 
L 285.477291 275.792547 
L 287.924108 275.230033 
L 290.251436 275.063232 
L 285.139909 274.484076 
L 285.139909 274.484076 
L 287.332963 273.281763 
L 278.239446 271.519946 
L 275.970029 269.457892 
L 273.132354 268.426701 
L 272.803354 267.0756 
L 267.187673 266.856051 
L 263.518821 266.06837 
L 263.455219 264.459057 
L 259.996855 263.974065 
L 261.734937 263.669759 
L 259.394859 261.515317 
L 257.779595 260.41206 
L 252.413497 256.462644 
L 249.009334 256.132308 
L 244.122578 255.30192 
L 243.064306 255.966516 
L 240.382852 255.106793 
L 243.42094 252.4725 
L 247.791694 250.666159 
L 247.414973 249.483556 
L 240.993938 249.417832 
L 240.993938 249.417832 
L 238.63169 247.909438 
L 229.556386 249.012096 
L 229.556386 249.012096 
L 229.212653 247.554937 
L 229.936729 248.548827 
L 229.936729 248.548827 
L 226.707819 247.710139 
L 228.722528 247.928556 
L 230.394258 246.618491 
L 233.901927 245.189036 
L 233.864268 244.603177 
L 229.190069 243.826254 
L 228.212819 244.211159 
L 232.210131 242.933288 
L 232.210131 242.933288 
" clip-path="url(#p40203cb8da)" style="fill: none; stroke: #008000; stroke-width: 1.5; stroke-linecap: square"/>
   </g>
   <g id="line2d_21">
    <path d="M 236.897585 230.723665 
L 239.888416 233.418239 
L 245.200545 238.67699 
L 250.625841 244.367721 
L 264.225605 259.139407 
L 277.187277 273.213008 
L 288.682315 285.349216 
L 298.643618 295.461173 
L 308.524794 305.031503 
L 314.441726 310.513559 
L 321.982498 317.204236 
L 327.567697 321.931842 
L 334.831074 327.771208 
L 342.180984 333.304297 
L 348.549612 337.775867 
L 357.652089 343.616794 
L 362.58118 346.496313 
L 366.118822 348.435218 
L 371.353976 351.102491 
L 376.879316 353.647618 
L 380.482351 355.153076 
L 384.50201 356.684687 
L 389.618878 358.402131 
L 394.260649 359.727966 
L 397.787828 360.583214 
L 402.8651 361.576277 
L 412.045368 362.627514 
L 418.142962 362.768504 
L 420.977533 362.675363 
L 427.062569 362.121069 
L 429.56215 361.748685 
L 432.503361 361.198888 
L 435.85243 360.421893 
L 438.518066 359.685256 
L 441.667901 358.675619 
L 447.817247 356.251443 
L 451.379836 354.55951 
L 457.988657 350.8245 
L 462.376681 347.888055 
L 465.725225 345.384609 
L 471.261339 340.709958 
L 472.959744 339.133376 
L 477.072143 335.017599 
L 481.417967 330.173572 
L 485.134178 325.585724 
L 488.185642 321.477586 
L 491.777255 316.201275 
L 494.065331 312.561961 
L 496.167267 309.005129 
L 499.767485 302.369399 
L 502.941324 295.839551 
L 503.800271 293.941652 
L 507.198066 285.755724 
L 510.476244 276.481898 
L 512.468449 269.825791 
L 514.125159 263.316691 
L 515.446097 257.015008 
L 516.47468 250.691627 
L 517.125867 244.965076 
L 517.472773 239.351427 
L 517.492327 234.050664 
L 517.187904 229.131833 
L 516.56319 224.597459 
L 515.622858 220.478061 
L 515.032095 218.569457 
L 513.618441 215.093969 
L 512.790835 213.51955 
L 511.909967 212.099279 
L 510.932633 210.763228 
L 509.890856 209.559924 
L 508.644271 208.360502 
L 507.515503 207.459608 
L 506.03098 206.495143 
L 503.51186 205.318015 
L 501.278018 204.657444 
L 498.537548 204.233669 
L 496.379714 204.145448 
L 494.787946 204.197955 
L 490.817152 204.69492 
L 488.098605 205.289149 
L 485.954167 205.880525 
L 480.519156 207.783366 
L 478.217921 208.736772 
L 473.885373 210.727564 
L 467.535601 214.02277 
L 462.596058 216.828561 
L 453.480456 222.404689 
L 444.671898 228.113218 
L 410.735427 250.567602 
L 400.766536 256.74533 
L 394.911003 260.196932 
L 386.8446 264.693957 
L 380.560024 267.963195 
L 372.456546 271.838389 
L 364.023109 275.421485 
L 358.07955 277.646202 
L 351.240051 279.875621 
L 345.967465 281.338701 
L 342.716655 282.12476 
L 335.501837 283.539091 
L 329.702086 284.331389 
L 323.597463 284.817092 
L 320.513092 284.921617 
L 314.835505 284.857817 
L 308.916127 284.42531 
L 303.982552 283.768104 
L 298.894588 282.796964 
L 293.672635 281.478966 
L 288.520886 279.847332 
L 283.252056 277.824098 
L 280.895059 276.798818 
L 277.662126 275.267776 
L 273.114079 272.861733 
L 269.478342 270.717854 
L 265.198364 267.930847 
L 260.764674 264.726863 
L 256.474147 261.297923 
L 253.293498 258.531358 
L 250.025826 255.472623 
L 246.849798 252.268579 
L 242.75003 247.74599 
L 239.094312 243.261622 
L 236.062702 239.098456 
L 233.707949 235.419297 
L 231.938953 232.114388 
L 231.299856 230.600586 
L 230.846089 228.962796 
L 230.8277 228.17984 
L 231.111088 227.618127 
L 231.646116 227.465657 
L 232.096879 227.538199 
L 232.726257 227.773588 
L 233.523034 228.199344 
L 235.807912 229.825474 
L 235.807912 229.825474 
" clip-path="url(#p40203cb8da)" style="fill: none; stroke-dasharray: 5.55,2.4; stroke-dashoffset: 0; stroke: #0000ff; stroke-width: 1.5"/>
   </g>
   <g id="legend_1">
    <g id="patch_6">
     <path d="M 476.960312 112.514375 
L 556.04 112.514375 
Q 558.04 112.514375 558.04 110.514375 
L 558.04 67.48 
Q 558.04 65.48 556.04 65.48 
L 476.960312 65.48 
Q 474.960312 65.48 474.960312 67.48 
L 474.960312 110.514375 
Q 474.960312 112.514375 476.960312 112.514375 
z
" style="fill: #ffffff; opacity: 0.8; stroke: #cccccc; stroke-linejoin: miter"/>
    </g>
    <g id="line2d_22">
     <path d="M 478.960312 73.578438 
L 488.960312 73.578438 
L 498.960312 73.578438 
" style="fill: none; stroke-dasharray: 12.8,3.2,2,3.2; stroke-dashoffset: 0; stroke: #ff0000; stroke-width: 2"/>
    </g>
    <g id="text_19">
     <!-- OptiTrack -->
     <g transform="translate(506.960312 77.078438)scale(0.1 -0.1)">
      <defs>
       <path id="DejaVuSans-4f" d="M 2522 4238 
Q 1834 4238 1429 3725 
Q 1025 3213 1025 2328 
Q 1025 1447 1429 934 
Q 1834 422 2522 422 
Q 3209 422 3611 934 
Q 4013 1447 4013 2328 
Q 4013 3213 3611 3725 
Q 3209 4238 2522 4238 
z
M 2522 4750 
Q 3503 4750 4090 4092 
Q 4678 3434 4678 2328 
Q 4678 1225 4090 567 
Q 3503 -91 2522 -91 
Q 1538 -91 948 565 
Q 359 1222 359 2328 
Q 359 3434 948 4092 
Q 1538 4750 2522 4750 
z
" transform="scale(0.015625)"/>
       <path id="DejaVuSans-70" d="M 1159 525 
L 1159 -1331 
L 581 -1331 
L 581 3500 
L 1159 3500 
L 1159 2969 
Q 1341 3281 1617 3432 
Q 1894 3584 2278 3584 
Q 2916 3584 3314 3078 
Q 3713 2572 3713 1747 
Q 3713 922 3314 415 
Q 2916 -91 2278 -91 
Q 1894 -91 1617 61 
Q 1341 213 1159 525 
z
M 3116 1747 
Q 3116 2381 2855 2742 
Q 2594 3103 2138 3103 
Q 1681 3103 1420 2742 
Q 1159 2381 1159 1747 
Q 1159 1113 1420 752 
Q 1681 391 2138 391 
Q 2594 391 2855 752 
Q 3116 1113 3116 1747 
z
" transform="scale(0.015625)"/>
       <path id="DejaVuSans-72" d="M 2631 2963 
Q 2534 3019 2420 3045 
Q 2306 3072 2169 3072 
Q 1681 3072 1420 2755 
Q 1159 2438 1159 1844 
L 1159 0 
L 581 0 
L 581 3500 
L 1159 3500 
L 1159 2956 
Q 1341 3275 1631 3429 
Q 1922 3584 2338 3584 
Q 2397 3584 2469 3576 
Q 2541 3569 2628 3553 
L 2631 2963 
z
" transform="scale(0.015625)"/>
       <path id="DejaVuSans-61" d="M 2194 1759 
Q 1497 1759 1228 1600 
Q 959 1441 959 1056 
Q 959 750 1161 570 
Q 1363 391 1709 391 
Q 2188 391 2477 730 
Q 2766 1069 2766 1631 
L 2766 1759 
L 2194 1759 
z
M 3341 1997 
L 3341 0 
L 2766 0 
L 2766 531 
Q 2569 213 2275 61 
Q 1981 -91 1556 -91 
Q 1019 -91 701 211 
Q 384 513 384 1019 
Q 384 1609 779 1909 
Q 1175 2209 1959 2209 
L 2766 2209 
L 2766 2266 
Q 2766 2663 2505 2880 
Q 2244 3097 1772 3097 
Q 1472 3097 1187 3025 
Q 903 2953 641 2809 
L 641 3341 
Q 956 3463 1253 3523 
Q 1550 3584 1831 3584 
Q 2591 3584 2966 3190 
Q 3341 2797 3341 1997 
z
" transform="scale(0.015625)"/>
       <path id="DejaVuSans-63" d="M 3122 3366 
L 3122 2828 
Q 2878 2963 2633 3030 
Q 2388 3097 2138 3097 
Q 1578 3097 1268 2742 
Q 959 2388 959 1747 
Q 959 1106 1268 751 
Q 1578 397 2138 397 
Q 2388 397 2633 464 
Q 2878 531 3122 666 
L 3122 134 
Q 2881 22 2623 -34 
Q 2366 -91 2075 -91 
Q 1284 -91 818 406 
Q 353 903 353 1747 
Q 353 2603 823 3093 
Q 1294 3584 2113 3584 
Q 2378 3584 2631 3529 
Q 2884 3475 3122 3366 
z
" transform="scale(0.015625)"/>
       <path id="DejaVuSans-6b" d="M 581 4863 
L 1159 4863 
L 1159 1991 
L 2875 3500 
L 3609 3500 
L 1753 1863 
L 3688 0 
L 2938 0 
L 1159 1709 
L 1159 0 
L 581 0 
L 581 4863 
z
" transform="scale(0.015625)"/>
      </defs>
      <use xlink:href="#DejaVuSans-4f"/>
      <use xlink:href="#DejaVuSans-70" x="78.710938"/>
      <use xlink:href="#DejaVuSans-74" x="142.1875"/>
      <use xlink:href="#DejaVuSans-69" x="181.396484"/>
      <use xlink:href="#DejaVuSans-54" x="209.179688"/>
      <use xlink:href="#DejaVuSans-72" x="255.513672"/>
      <use xlink:href="#DejaVuSans-61" x="296.626953"/>
      <use xlink:href="#DejaVuSans-63" x="357.90625"/>
      <use xlink:href="#DejaVuSans-6b" x="412.886719"/>
     </g>
    </g>
    <g id="line2d_23">
     <path d="M 478.960312 88.256563 
L 488.960312 88.256563 
L 498.960312 88.256563 
" style="fill: none; stroke: #008000; stroke-width: 1.5; stroke-linecap: square"/>
    </g>
    <g id="text_20">
     <!-- Kalman -->
     <g transform="translate(506.960312 91.756563)scale(0.1 -0.1)">
      <defs>
       <path id="DejaVuSans-4b" d="M 628 4666 
L 1259 4666 
L 1259 2694 
L 3353 4666 
L 4166 4666 
L 1850 2491 
L 4331 0 
L 3500 0 
L 1259 2247 
L 1259 0 
L 628 0 
L 628 4666 
z
" transform="scale(0.015625)"/>
       <path id="DejaVuSans-6c" d="M 603 4863 
L 1178 4863 
L 1178 0 
L 603 0 
L 603 4863 
z
" transform="scale(0.015625)"/>
      </defs>
      <use xlink:href="#DejaVuSans-4b"/>
      <use xlink:href="#DejaVuSans-61" x="63.826172"/>
      <use xlink:href="#DejaVuSans-6c" x="125.105469"/>
      <use xlink:href="#DejaVuSans-6d" x="152.888672"/>
      <use xlink:href="#DejaVuSans-61" x="250.300781"/>
      <use xlink:href="#DejaVuSans-6e" x="311.580078"/>
     </g>
    </g>
    <g id="line2d_24">
     <path d="M 478.960312 102.934687 
L 488.960312 102.934687 
L 498.960312 102.934687 
" style="fill: none; stroke-dasharray: 5.55,2.4; stroke-dashoffset: 0; stroke: #0000ff; stroke-width: 1.5"/>
    </g>
    <g id="text_21">
     <!-- Desired -->
     <g transform="translate(506.960312 106.434687)scale(0.1 -0.1)">
      <defs>
       <path id="DejaVuSans-44" d="M 1259 4147 
L 1259 519 
L 2022 519 
Q 2988 519 3436 956 
Q 3884 1394 3884 2338 
Q 3884 3275 3436 3711 
Q 2988 4147 2022 4147 
L 1259 4147 
z
M 628 4666 
L 1925 4666 
Q 3281 4666 3915 4102 
Q 4550 3538 4550 2338 
Q 4550 1131 3912 565 
Q 3275 0 1925 0 
L 628 0 
L 628 4666 
z
" transform="scale(0.015625)"/>
       <path id="DejaVuSans-64" d="M 2906 2969 
L 2906 4863 
L 3481 4863 
L 3481 0 
L 2906 0 
L 2906 525 
Q 2725 213 2448 61 
Q 2172 -91 1784 -91 
Q 1150 -91 751 415 
Q 353 922 353 1747 
Q 353 2572 751 3078 
Q 1150 3584 1784 3584 
Q 2172 3584 2448 3432 
Q 2725 3281 2906 2969 
z
M 947 1747 
Q 947 1113 1208 752 
Q 1469 391 1925 391 
Q 2381 391 2643 752 
Q 2906 1113 2906 1747 
Q 2906 2381 2643 2742 
Q 2381 3103 1925 3103 
Q 1469 3103 1208 2742 
Q 947 2381 947 1747 
z
" transform="scale(0.015625)"/>
      </defs>
      <use xlink:href="#DejaVuSans-44"/>
      <use xlink:href="#DejaVuSans-65" x="77.001953"/>
      <use xlink:href="#DejaVuSans-73" x="138.525391"/>
      <use xlink:href="#DejaVuSans-69" x="190.625"/>
      <use xlink:href="#DejaVuSans-72" x="218.408203"/>
      <use xlink:href="#DejaVuSans-65" x="257.271484"/>
      <use xlink:href="#DejaVuSans-64" x="318.794922"/>
     </g>
    </g>
   </g>
  </g>
 </g>
 <defs>
  <clipPath id="p40203cb8da">
   <rect x="174.96" y="60.48" width="388.08" height="388.08"/>
  </clipPath>
 </defs>
</svg>
