<?xml version="1.0" encoding="utf-8" standalone="no"?>
<!DOCTYPE svg PUBLIC "-//W3C//DTD SVG 1.1//EN"
  "http://www.w3.org/Graphics/SVG/1.1/DTD/svg11.dtd">
<svg xmlns:xlink="http://www.w3.org/1999/xlink" width="720pt" height="504pt" viewBox="0 0 720 504" xmlns="http://www.w3.org/2000/svg" version="1.1">
 <metadata>
  <rdf:RDF xmlns:dc="http://purl.org/dc/elements/1.1/" xmlns:cc="http://creativecommons.org/ns#" xmlns:rdf="http://www.w3.org/1999/02/22-rdf-syntax-ns#">
   <cc:Work>
    <dc:type rdf:resource="http://purl.org/dc/dcmitype/StillImage"/>
    <dc:date>2024-02-15T17:06:43.300164</dc:date>
    <dc:format>image/svg+xml</dc:format>
    <dc:creator>
     <cc:Agent>
      <dc:title>Matplotlib v3.5.1, https://matplotlib.org/</dc:title>
     </cc:Agent>
    </dc:creator>
   </cc:Work>
  </rdf:RDF>
 </metadata>
 <defs>
  <style type="text/css">*{stroke-linejoin: round; stroke-linecap: butt}</style>
 </defs>
 <g id="figure_1">
  <g id="patch_1">
   <path d="M 0 504 
L 720 504 
L 720 0 
L 0 0 
z
" style="fill: #ffffff"/>
  </g>
  <g id="axes_1">
   <g id="patch_2">
    <path d="M 90 448.56 
L 648 448.56 
L 648 60.48 
L 90 60.48 
z
" style="fill: #ffffff"/>
   </g>
   <g id="matplotlib.axis_1">
    <g id="xtick_1">
     <g id="line2d_1">
      <path d="M 164.798108 448.56 
L 164.798108 60.48 
" clip-path="url(#pff691a7fe7)" style="fill: none; stroke: #b0b0b0; stroke-width: 0.8; stroke-linecap: square"/>
     </g>
     <g id="line2d_2">
      <defs>
       <path id="mbea6404a3d" d="M 0 0 
L 0 3.5 
" style="stroke: #000000; stroke-width: 0.8"/>
      </defs>
      <g>
       <use xlink:href="#mbea6404a3d" x="164.798108" y="448.56" style="stroke: #000000; stroke-width: 0.8"/>
      </g>
     </g>
     <g id="text_1">
      <!-- 10 -->
      <g transform="translate(158.435608 463.158437)scale(0.1 -0.1)">
       <defs>
        <path id="DejaVuSans-31" d="M 794 531 
L 1825 531 
L 1825 4091 
L 703 3866 
L 703 4441 
L 1819 4666 
L 2450 4666 
L 2450 531 
L 3481 531 
L 3481 0 
L 794 0 
L 794 531 
z
" transform="scale(0.015625)"/>
        <path id="DejaVuSans-30" d="M 2034 4250 
Q 1547 4250 1301 3770 
Q 1056 3291 1056 2328 
Q 1056 1369 1301 889 
Q 1547 409 2034 409 
Q 2525 409 2770 889 
Q 3016 1369 3016 2328 
Q 3016 3291 2770 3770 
Q 2525 4250 2034 4250 
z
M 2034 4750 
Q 2819 4750 3233 4129 
Q 3647 3509 3647 2328 
Q 3647 1150 3233 529 
Q 2819 -91 2034 -91 
Q 1250 -91 836 529 
Q 422 1150 422 2328 
Q 422 3509 836 4129 
Q 1250 4750 2034 4750 
z
" transform="scale(0.015625)"/>
       </defs>
       <use xlink:href="#DejaVuSans-31"/>
       <use xlink:href="#DejaVuSans-30" x="63.623047"/>
      </g>
     </g>
    </g>
    <g id="xtick_2">
     <g id="line2d_3">
      <path d="M 265.603802 448.56 
L 265.603802 60.48 
" clip-path="url(#pff691a7fe7)" style="fill: none; stroke: #b0b0b0; stroke-width: 0.8; stroke-linecap: square"/>
     </g>
     <g id="line2d_4">
      <g>
       <use xlink:href="#mbea6404a3d" x="265.603802" y="448.56" style="stroke: #000000; stroke-width: 0.8"/>
      </g>
     </g>
     <g id="text_2">
      <!-- 20 -->
      <g transform="translate(259.241302 463.158437)scale(0.1 -0.1)">
       <defs>
        <path id="DejaVuSans-32" d="M 1228 531 
L 3431 531 
L 3431 0 
L 469 0 
L 469 531 
Q 828 903 1448 1529 
Q 2069 2156 2228 2338 
Q 2531 2678 2651 2914 
Q 2772 3150 2772 3378 
Q 2772 3750 2511 3984 
Q 2250 4219 1831 4219 
Q 1534 4219 1204 4116 
Q 875 4013 500 3803 
L 500 4441 
Q 881 4594 1212 4672 
Q 1544 4750 1819 4750 
Q 2544 4750 2975 4387 
Q 3406 4025 3406 3419 
Q 3406 3131 3298 2873 
Q 3191 2616 2906 2266 
Q 2828 2175 2409 1742 
Q 1991 1309 1228 531 
z
" transform="scale(0.015625)"/>
       </defs>
       <use xlink:href="#DejaVuSans-32"/>
       <use xlink:href="#DejaVuSans-30" x="63.623047"/>
      </g>
     </g>
    </g>
    <g id="xtick_3">
     <g id="line2d_5">
      <path d="M 366.409496 448.56 
L 366.409496 60.48 
" clip-path="url(#pff691a7fe7)" style="fill: none; stroke: #b0b0b0; stroke-width: 0.8; stroke-linecap: square"/>
     </g>
     <g id="line2d_6">
      <g>
       <use xlink:href="#mbea6404a3d" x="366.409496" y="448.56" style="stroke: #000000; stroke-width: 0.8"/>
      </g>
     </g>
     <g id="text_3">
      <!-- 30 -->
      <g transform="translate(360.046996 463.158437)scale(0.1 -0.1)">
       <defs>
        <path id="DejaVuSans-33" d="M 2597 2516 
Q 3050 2419 3304 2112 
Q 3559 1806 3559 1356 
Q 3559 666 3084 287 
Q 2609 -91 1734 -91 
Q 1441 -91 1130 -33 
Q 819 25 488 141 
L 488 750 
Q 750 597 1062 519 
Q 1375 441 1716 441 
Q 2309 441 2620 675 
Q 2931 909 2931 1356 
Q 2931 1769 2642 2001 
Q 2353 2234 1838 2234 
L 1294 2234 
L 1294 2753 
L 1863 2753 
Q 2328 2753 2575 2939 
Q 2822 3125 2822 3475 
Q 2822 3834 2567 4026 
Q 2313 4219 1838 4219 
Q 1578 4219 1281 4162 
Q 984 4106 628 3988 
L 628 4550 
Q 988 4650 1302 4700 
Q 1616 4750 1894 4750 
Q 2613 4750 3031 4423 
Q 3450 4097 3450 3541 
Q 3450 3153 3228 2886 
Q 3006 2619 2597 2516 
z
" transform="scale(0.015625)"/>
       </defs>
       <use xlink:href="#DejaVuSans-33"/>
       <use xlink:href="#DejaVuSans-30" x="63.623047"/>
      </g>
     </g>
    </g>
    <g id="xtick_4">
     <g id="line2d_7">
      <path d="M 467.21519 448.56 
L 467.21519 60.48 
" clip-path="url(#pff691a7fe7)" style="fill: none; stroke: #b0b0b0; stroke-width: 0.8; stroke-linecap: square"/>
     </g>
     <g id="line2d_8">
      <g>
       <use xlink:href="#mbea6404a3d" x="467.21519" y="448.56" style="stroke: #000000; stroke-width: 0.8"/>
      </g>
     </g>
     <g id="text_4">
      <!-- 40 -->
      <g transform="translate(460.85269 463.158437)scale(0.1 -0.1)">
       <defs>
        <path id="DejaVuSans-34" d="M 2419 4116 
L 825 1625 
L 2419 1625 
L 2419 4116 
z
M 2253 4666 
L 3047 4666 
L 3047 1625 
L 3713 1625 
L 3713 1100 
L 3047 1100 
L 3047 0 
L 2419 0 
L 2419 1100 
L 313 1100 
L 313 1709 
L 2253 4666 
z
" transform="scale(0.015625)"/>
       </defs>
       <use xlink:href="#DejaVuSans-34"/>
       <use xlink:href="#DejaVuSans-30" x="63.623047"/>
      </g>
     </g>
    </g>
    <g id="xtick_5">
     <g id="line2d_9">
      <path d="M 568.020884 448.56 
L 568.020884 60.48 
" clip-path="url(#pff691a7fe7)" style="fill: none; stroke: #b0b0b0; stroke-width: 0.8; stroke-linecap: square"/>
     </g>
     <g id="line2d_10">
      <g>
       <use xlink:href="#mbea6404a3d" x="568.020884" y="448.56" style="stroke: #000000; stroke-width: 0.8"/>
      </g>
     </g>
     <g id="text_5">
      <!-- 50 -->
      <g transform="translate(561.658384 463.158437)scale(0.1 -0.1)">
       <defs>
        <path id="DejaVuSans-35" d="M 691 4666 
L 3169 4666 
L 3169 4134 
L 1269 4134 
L 1269 2991 
Q 1406 3038 1543 3061 
Q 1681 3084 1819 3084 
Q 2600 3084 3056 2656 
Q 3513 2228 3513 1497 
Q 3513 744 3044 326 
Q 2575 -91 1722 -91 
Q 1428 -91 1123 -41 
Q 819 9 494 109 
L 494 744 
Q 775 591 1075 516 
Q 1375 441 1709 441 
Q 2250 441 2565 725 
Q 2881 1009 2881 1497 
Q 2881 1984 2565 2268 
Q 2250 2553 1709 2553 
Q 1456 2553 1204 2497 
Q 953 2441 691 2322 
L 691 4666 
z
" transform="scale(0.015625)"/>
       </defs>
       <use xlink:href="#DejaVuSans-35"/>
       <use xlink:href="#DejaVuSans-30" x="63.623047"/>
      </g>
     </g>
    </g>
    <g id="text_6">
     <!-- Time (s) -->
     <g transform="translate(348.671094 476.836563)scale(0.1 -0.1)">
      <defs>
       <path id="DejaVuSans-54" d="M -19 4666 
L 3928 4666 
L 3928 4134 
L 2272 4134 
L 2272 0 
L 1638 0 
L 1638 4134 
L -19 4134 
L -19 4666 
z
" transform="scale(0.015625)"/>
       <path id="DejaVuSans-69" d="M 603 3500 
L 1178 3500 
L 1178 0 
L 603 0 
L 603 3500 
z
M 603 4863 
L 1178 4863 
L 1178 4134 
L 603 4134 
L 603 4863 
z
" transform="scale(0.015625)"/>
       <path id="DejaVuSans-6d" d="M 3328 2828 
Q 3544 3216 3844 3400 
Q 4144 3584 4550 3584 
Q 5097 3584 5394 3201 
Q 5691 2819 5691 2113 
L 5691 0 
L 5113 0 
L 5113 2094 
Q 5113 2597 4934 2840 
Q 4756 3084 4391 3084 
Q 3944 3084 3684 2787 
Q 3425 2491 3425 1978 
L 3425 0 
L 2847 0 
L 2847 2094 
Q 2847 2600 2669 2842 
Q 2491 3084 2119 3084 
Q 1678 3084 1418 2786 
Q 1159 2488 1159 1978 
L 1159 0 
L 581 0 
L 581 3500 
L 1159 3500 
L 1159 2956 
Q 1356 3278 1631 3431 
Q 1906 3584 2284 3584 
Q 2666 3584 2933 3390 
Q 3200 3197 3328 2828 
z
" transform="scale(0.015625)"/>
       <path id="DejaVuSans-65" d="M 3597 1894 
L 3597 1613 
L 953 1613 
Q 991 1019 1311 708 
Q 1631 397 2203 397 
Q 2534 397 2845 478 
Q 3156 559 3463 722 
L 3463 178 
Q 3153 47 2828 -22 
Q 2503 -91 2169 -91 
Q 1331 -91 842 396 
Q 353 884 353 1716 
Q 353 2575 817 3079 
Q 1281 3584 2069 3584 
Q 2775 3584 3186 3129 
Q 3597 2675 3597 1894 
z
M 3022 2063 
Q 3016 2534 2758 2815 
Q 2500 3097 2075 3097 
Q 1594 3097 1305 2825 
Q 1016 2553 972 2059 
L 3022 2063 
z
" transform="scale(0.015625)"/>
       <path id="DejaVuSans-20" transform="scale(0.015625)"/>
       <path id="DejaVuSans-28" d="M 1984 4856 
Q 1566 4138 1362 3434 
Q 1159 2731 1159 2009 
Q 1159 1288 1364 580 
Q 1569 -128 1984 -844 
L 1484 -844 
Q 1016 -109 783 600 
Q 550 1309 550 2009 
Q 550 2706 781 3412 
Q 1013 4119 1484 4856 
L 1984 4856 
z
" transform="scale(0.015625)"/>
       <path id="DejaVuSans-73" d="M 2834 3397 
L 2834 2853 
Q 2591 2978 2328 3040 
Q 2066 3103 1784 3103 
Q 1356 3103 1142 2972 
Q 928 2841 928 2578 
Q 928 2378 1081 2264 
Q 1234 2150 1697 2047 
L 1894 2003 
Q 2506 1872 2764 1633 
Q 3022 1394 3022 966 
Q 3022 478 2636 193 
Q 2250 -91 1575 -91 
Q 1294 -91 989 -36 
Q 684 19 347 128 
L 347 722 
Q 666 556 975 473 
Q 1284 391 1588 391 
Q 1994 391 2212 530 
Q 2431 669 2431 922 
Q 2431 1156 2273 1281 
Q 2116 1406 1581 1522 
L 1381 1569 
Q 847 1681 609 1914 
Q 372 2147 372 2553 
Q 372 3047 722 3315 
Q 1072 3584 1716 3584 
Q 2034 3584 2315 3537 
Q 2597 3491 2834 3397 
z
" transform="scale(0.015625)"/>
       <path id="DejaVuSans-29" d="M 513 4856 
L 1013 4856 
Q 1481 4119 1714 3412 
Q 1947 2706 1947 2009 
Q 1947 1309 1714 600 
Q 1481 -109 1013 -844 
L 513 -844 
Q 928 -128 1133 580 
Q 1338 1288 1338 2009 
Q 1338 2731 1133 3434 
Q 928 4138 513 4856 
z
" transform="scale(0.015625)"/>
      </defs>
      <use xlink:href="#DejaVuSans-54"/>
      <use xlink:href="#DejaVuSans-69" x="57.958984"/>
      <use xlink:href="#DejaVuSans-6d" x="85.742188"/>
      <use xlink:href="#DejaVuSans-65" x="183.154297"/>
      <use xlink:href="#DejaVuSans-20" x="244.677734"/>
      <use xlink:href="#DejaVuSans-28" x="276.464844"/>
      <use xlink:href="#DejaVuSans-73" x="315.478516"/>
      <use xlink:href="#DejaVuSans-29" x="367.578125"/>
     </g>
    </g>
   </g>
   <g id="matplotlib.axis_2">
    <g id="ytick_1">
     <g id="line2d_11">
      <path d="M 90 390.985407 
L 648 390.985407 
" clip-path="url(#pff691a7fe7)" style="fill: none; stroke: #b0b0b0; stroke-width: 0.8; stroke-linecap: square"/>
     </g>
     <g id="line2d_12">
      <defs>
       <path id="ma92b6f6dde" d="M 0 0 
L -3.5 0 
" style="stroke: #000000; stroke-width: 0.8"/>
      </defs>
      <g>
       <use xlink:href="#ma92b6f6dde" x="90" y="390.985407" style="stroke: #000000; stroke-width: 0.8"/>
      </g>
     </g>
     <g id="text_7">
      <!-- 0.1 -->
      <g transform="translate(67.096875 394.784625)scale(0.1 -0.1)">
       <defs>
        <path id="DejaVuSans-2e" d="M 684 794 
L 1344 794 
L 1344 0 
L 684 0 
L 684 794 
z
" transform="scale(0.015625)"/>
       </defs>
       <use xlink:href="#DejaVuSans-30"/>
       <use xlink:href="#DejaVuSans-2e" x="63.623047"/>
       <use xlink:href="#DejaVuSans-31" x="95.410156"/>
      </g>
     </g>
    </g>
    <g id="ytick_2">
     <g id="line2d_13">
      <path d="M 90 307.923517 
L 648 307.923517 
" clip-path="url(#pff691a7fe7)" style="fill: none; stroke: #b0b0b0; stroke-width: 0.8; stroke-linecap: square"/>
     </g>
     <g id="line2d_14">
      <g>
       <use xlink:href="#ma92b6f6dde" x="90" y="307.923517" style="stroke: #000000; stroke-width: 0.8"/>
      </g>
     </g>
     <g id="text_8">
      <!-- 0.2 -->
      <g transform="translate(67.096875 311.722735)scale(0.1 -0.1)">
       <use xlink:href="#DejaVuSans-30"/>
       <use xlink:href="#DejaVuSans-2e" x="63.623047"/>
       <use xlink:href="#DejaVuSans-32" x="95.410156"/>
      </g>
     </g>
    </g>
    <g id="ytick_3">
     <g id="line2d_15">
      <path d="M 90 224.861627 
L 648 224.861627 
" clip-path="url(#pff691a7fe7)" style="fill: none; stroke: #b0b0b0; stroke-width: 0.8; stroke-linecap: square"/>
     </g>
     <g id="line2d_16">
      <g>
       <use xlink:href="#ma92b6f6dde" x="90" y="224.861627" style="stroke: #000000; stroke-width: 0.8"/>
      </g>
     </g>
     <g id="text_9">
      <!-- 0.3 -->
      <g transform="translate(67.096875 228.660845)scale(0.1 -0.1)">
       <use xlink:href="#DejaVuSans-30"/>
       <use xlink:href="#DejaVuSans-2e" x="63.623047"/>
       <use xlink:href="#DejaVuSans-33" x="95.410156"/>
      </g>
     </g>
    </g>
    <g id="ytick_4">
     <g id="line2d_17">
      <path d="M 90 141.799737 
L 648 141.799737 
" clip-path="url(#pff691a7fe7)" style="fill: none; stroke: #b0b0b0; stroke-width: 0.8; stroke-linecap: square"/>
     </g>
     <g id="line2d_18">
      <g>
       <use xlink:href="#ma92b6f6dde" x="90" y="141.799737" style="stroke: #000000; stroke-width: 0.8"/>
      </g>
     </g>
     <g id="text_10">
      <!-- 0.4 -->
      <g transform="translate(67.096875 145.598955)scale(0.1 -0.1)">
       <use xlink:href="#DejaVuSans-30"/>
       <use xlink:href="#DejaVuSans-2e" x="63.623047"/>
       <use xlink:href="#DejaVuSans-34" x="95.410156"/>
      </g>
     </g>
    </g>
    <g id="text_11">
     <!-- Error Magnitude -->
     <g transform="translate(61.017187 294.784063)rotate(-90)scale(0.1 -0.1)">
      <defs>
       <path id="DejaVuSans-45" d="M 628 4666 
L 3578 4666 
L 3578 4134 
L 1259 4134 
L 1259 2753 
L 3481 2753 
L 3481 2222 
L 1259 2222 
L 1259 531 
L 3634 531 
L 3634 0 
L 628 0 
L 628 4666 
z
" transform="scale(0.015625)"/>
       <path id="DejaVuSans-72" d="M 2631 2963 
Q 2534 3019 2420 3045 
Q 2306 3072 2169 3072 
Q 1681 3072 1420 2755 
Q 1159 2438 1159 1844 
L 1159 0 
L 581 0 
L 581 3500 
L 1159 3500 
L 1159 2956 
Q 1341 3275 1631 3429 
Q 1922 3584 2338 3584 
Q 2397 3584 2469 3576 
Q 2541 3569 2628 3553 
L 2631 2963 
z
" transform="scale(0.015625)"/>
       <path id="DejaVuSans-6f" d="M 1959 3097 
Q 1497 3097 1228 2736 
Q 959 2375 959 1747 
Q 959 1119 1226 758 
Q 1494 397 1959 397 
Q 2419 397 2687 759 
Q 2956 1122 2956 1747 
Q 2956 2369 2687 2733 
Q 2419 3097 1959 3097 
z
M 1959 3584 
Q 2709 3584 3137 3096 
Q 3566 2609 3566 1747 
Q 3566 888 3137 398 
Q 2709 -91 1959 -91 
Q 1206 -91 779 398 
Q 353 888 353 1747 
Q 353 2609 779 3096 
Q 1206 3584 1959 3584 
z
" transform="scale(0.015625)"/>
       <path id="DejaVuSans-4d" d="M 628 4666 
L 1569 4666 
L 2759 1491 
L 3956 4666 
L 4897 4666 
L 4897 0 
L 4281 0 
L 4281 4097 
L 3078 897 
L 2444 897 
L 1241 4097 
L 1241 0 
L 628 0 
L 628 4666 
z
" transform="scale(0.015625)"/>
       <path id="DejaVuSans-61" d="M 2194 1759 
Q 1497 1759 1228 1600 
Q 959 1441 959 1056 
Q 959 750 1161 570 
Q 1363 391 1709 391 
Q 2188 391 2477 730 
Q 2766 1069 2766 1631 
L 2766 1759 
L 2194 1759 
z
M 3341 1997 
L 3341 0 
L 2766 0 
L 2766 531 
Q 2569 213 2275 61 
Q 1981 -91 1556 -91 
Q 1019 -91 701 211 
Q 384 513 384 1019 
Q 384 1609 779 1909 
Q 1175 2209 1959 2209 
L 2766 2209 
L 2766 2266 
Q 2766 2663 2505 2880 
Q 2244 3097 1772 3097 
Q 1472 3097 1187 3025 
Q 903 2953 641 2809 
L 641 3341 
Q 956 3463 1253 3523 
Q 1550 3584 1831 3584 
Q 2591 3584 2966 3190 
Q 3341 2797 3341 1997 
z
" transform="scale(0.015625)"/>
       <path id="DejaVuSans-67" d="M 2906 1791 
Q 2906 2416 2648 2759 
Q 2391 3103 1925 3103 
Q 1463 3103 1205 2759 
Q 947 2416 947 1791 
Q 947 1169 1205 825 
Q 1463 481 1925 481 
Q 2391 481 2648 825 
Q 2906 1169 2906 1791 
z
M 3481 434 
Q 3481 -459 3084 -895 
Q 2688 -1331 1869 -1331 
Q 1566 -1331 1297 -1286 
Q 1028 -1241 775 -1147 
L 775 -588 
Q 1028 -725 1275 -790 
Q 1522 -856 1778 -856 
Q 2344 -856 2625 -561 
Q 2906 -266 2906 331 
L 2906 616 
Q 2728 306 2450 153 
Q 2172 0 1784 0 
Q 1141 0 747 490 
Q 353 981 353 1791 
Q 353 2603 747 3093 
Q 1141 3584 1784 3584 
Q 2172 3584 2450 3431 
Q 2728 3278 2906 2969 
L 2906 3500 
L 3481 3500 
L 3481 434 
z
" transform="scale(0.015625)"/>
       <path id="DejaVuSans-6e" d="M 3513 2113 
L 3513 0 
L 2938 0 
L 2938 2094 
Q 2938 2591 2744 2837 
Q 2550 3084 2163 3084 
Q 1697 3084 1428 2787 
Q 1159 2491 1159 1978 
L 1159 0 
L 581 0 
L 581 3500 
L 1159 3500 
L 1159 2956 
Q 1366 3272 1645 3428 
Q 1925 3584 2291 3584 
Q 2894 3584 3203 3211 
Q 3513 2838 3513 2113 
z
" transform="scale(0.015625)"/>
       <path id="DejaVuSans-74" d="M 1172 4494 
L 1172 3500 
L 2356 3500 
L 2356 3053 
L 1172 3053 
L 1172 1153 
Q 1172 725 1289 603 
Q 1406 481 1766 481 
L 2356 481 
L 2356 0 
L 1766 0 
Q 1100 0 847 248 
Q 594 497 594 1153 
L 594 3053 
L 172 3053 
L 172 3500 
L 594 3500 
L 594 4494 
L 1172 4494 
z
" transform="scale(0.015625)"/>
       <path id="DejaVuSans-75" d="M 544 1381 
L 544 3500 
L 1119 3500 
L 1119 1403 
Q 1119 906 1312 657 
Q 1506 409 1894 409 
Q 2359 409 2629 706 
Q 2900 1003 2900 1516 
L 2900 3500 
L 3475 3500 
L 3475 0 
L 2900 0 
L 2900 538 
Q 2691 219 2414 64 
Q 2138 -91 1772 -91 
Q 1169 -91 856 284 
Q 544 659 544 1381 
z
M 1991 3584 
L 1991 3584 
z
" transform="scale(0.015625)"/>
       <path id="DejaVuSans-64" d="M 2906 2969 
L 2906 4863 
L 3481 4863 
L 3481 0 
L 2906 0 
L 2906 525 
Q 2725 213 2448 61 
Q 2172 -91 1784 -91 
Q 1150 -91 751 415 
Q 353 922 353 1747 
Q 353 2572 751 3078 
Q 1150 3584 1784 3584 
Q 2172 3584 2448 3432 
Q 2725 3281 2906 2969 
z
M 947 1747 
Q 947 1113 1208 752 
Q 1469 391 1925 391 
Q 2381 391 2643 752 
Q 2906 1113 2906 1747 
Q 2906 2381 2643 2742 
Q 2381 3103 1925 3103 
Q 1469 3103 1208 2742 
Q 947 2381 947 1747 
z
" transform="scale(0.015625)"/>
      </defs>
      <use xlink:href="#DejaVuSans-45"/>
      <use xlink:href="#DejaVuSans-72" x="63.183594"/>
      <use xlink:href="#DejaVuSans-72" x="102.546875"/>
      <use xlink:href="#DejaVuSans-6f" x="141.410156"/>
      <use xlink:href="#DejaVuSans-72" x="202.591797"/>
      <use xlink:href="#DejaVuSans-20" x="243.705078"/>
      <use xlink:href="#DejaVuSans-4d" x="275.492188"/>
      <use xlink:href="#DejaVuSans-61" x="361.771484"/>
      <use xlink:href="#DejaVuSans-67" x="423.050781"/>
      <use xlink:href="#DejaVuSans-6e" x="486.527344"/>
      <use xlink:href="#DejaVuSans-69" x="549.90625"/>
      <use xlink:href="#DejaVuSans-74" x="577.689453"/>
      <use xlink:href="#DejaVuSans-75" x="616.898438"/>
      <use xlink:href="#DejaVuSans-64" x="680.277344"/>
      <use xlink:href="#DejaVuSans-65" x="743.753906"/>
     </g>
    </g>
   </g>
   <g id="line2d_19">
    <path d="M 115.363636 239.076813 
L 115.682202 236.851388 
L 116.018369 241.397283 
L 116.691714 238.240541 
L 117.367904 233.029858 
L 117.747468 205.904653 
L 118.678557 217.630733 
L 119.040605 239.230298 
L 119.098089 223.455821 
L 119.689363 255.468804 
L 119.916695 237.721438 
L 120.588204 281.693792 
L 121.228074 279.234222 
L 121.536045 296.270626 
L 121.951847 290.489828 
L 122.457531 300.270617 
L 122.836763 298.890152 
L 122.870117 296.838805 
L 122.980005 300.782002 
L 123.279127 303.690579 
L 123.625461 300.256756 
L 123.951726 287.132814 
L 124.562842 301.692573 
L 124.842785 291.898351 
L 125.086898 320.472748 
L 125.337678 323.068274 
L 125.96866 360.079162 
L 126.416134 338.454107 
L 126.643779 354.671595 
L 126.981398 354.532634 
L 127.317739 326.786126 
L 127.653733 357.770439 
L 127.989891 343.162745 
L 128.326223 321.914019 
L 128.662275 310.980757 
L 129.251414 312.837451 
L 129.35625 318.888408 
L 129.664529 307.389174 
L 130.008291 282.006412 
L 130.339181 280.428019 
L 130.713149 285.076041 
L 131.691788 224.143769 
L 132.451006 230.278918 
L 132.948557 213.630916 
L 133.177773 211.707573 
L 133.493185 174.45359 
L 134.062963 178.235518 
L 134.719508 225.334601 
L 135.392372 243.367265 
L 136.385229 190.20992 
L 136.721272 181.703713 
L 137.058035 178.906178 
L 137.41243 199.382437 
L 137.748593 189.569459 
L 138.085323 191.693169 
L 138.421856 165.776953 
L 139.296346 154.380454 
L 139.661066 136.708415 
L 140.191068 129.304326 
L 140.597842 129.878739 
L 141.074988 132.54861 
L 141.20095 152.017217 
L 141.537699 155.635004 
L 141.873223 161.940579 
L 142.226782 136.607666 
L 143.05528 150.549007 
L 143.460555 178.106895 
L 143.713253 163.702114 
L 143.893147 193.597466 
L 144.327613 193.465757 
L 144.744372 238.57851 
L 145.108774 245.998153 
L 145.30468 244.69141 
L 145.570428 229.024245 
L 145.90598 222.314463 
L 146.241321 220.766954 
L 146.706176 280.898572 
L 147.504065 281.624908 
L 147.770448 273.807014 
L 148.260692 282.632875 
L 148.658771 275.603923 
L 149.183346 283.927423 
L 149.462717 275.430764 
L 149.700038 263.366867 
L 150.138705 264.140234 
L 150.458386 272.539243 
L 150.850033 268.456662 
L 151.074203 258.308407 
L 151.283356 265.486236 
L 151.617783 245.180164 
L 151.954768 268.439789 
L 152.638294 303.202225 
L 153.125914 282.342549 
L 153.660179 300.161564 
L 154.248395 289.336426 
L 154.609674 269.152525 
L 154.967434 270.081343 
L 155.853681 288.397457 
L 156.616739 234.029351 
L 156.985622 222.243378 
L 157.200255 205.778521 
L 157.541796 224.201114 
L 157.881271 234.016546 
L 158.214324 218.364015 
L 158.544435 252.402126 
L 158.92794 248.148316 
L 159.27526 252.129008 
L 159.553486 229.965882 
L 159.951258 240.42626 
L 160.560941 220.072868 
L 161.298014 260.409731 
L 161.744306 224.74013 
L 162.153056 235.463112 
L 162.382994 224.317853 
L 162.907164 231.442856 
L 163.630759 249.889835 
L 164.206305 251.098672 
L 164.465853 245.857229 
L 164.685754 266.34159 
L 165.080612 252.458884 
L 165.365818 262.774381 
L 165.669694 247.391593 
L 166.008303 262.956017 
L 166.342548 244.999314 
L 166.677524 262.667376 
L 167.020806 295.476703 
L 167.351628 288.229053 
L 167.918224 295.449696 
L 168.161101 313.440572 
L 168.366457 343.065323 
L 169.186015 363.661351 
L 169.370701 370.787354 
L 169.701283 367.366593 
L 170.049362 394.306465 
L 170.379868 388.493251 
L 170.721861 359.233887 
L 171.058154 384.616969 
L 171.384073 372.74775 
L 172.529906 430.92 
L 172.726139 419.69274 
L 173.077803 369.767013 
L 173.401945 367.952187 
L 173.827297 386.570716 
L 175.096194 326.125514 
L 175.970328 292.49024 
L 176.778551 240.713181 
L 177.14056 229.798825 
L 177.76378 214.473995 
L 177.967309 191.951196 
L 178.320954 189.986198 
L 178.816534 195.692216 
L 178.947375 184.670056 
L 179.144943 210.38239 
L 179.370959 189.893805 
L 179.735419 195.484809 
L 180.117174 185.826688 
L 180.687135 144.19873 
L 181.028157 141.996441 
L 181.359682 155.144765 
L 181.692148 140.192232 
L 182.020461 143.940005 
L 182.360648 168.892313 
L 182.730549 173.011949 
L 183.044654 139.05937 
L 183.411143 138.264328 
L 183.722382 126.801561 
L 184.037112 129.392315 
L 184.375452 108.13299 
L 184.716378 135.528506 
L 185.386551 164.02869 
L 185.719642 161.27789 
L 186.07273 170.090564 
L 186.397842 162.323059 
L 186.731327 165.666174 
L 187.101729 161.055514 
L 187.652222 158.164043 
L 188.201888 192.357103 
L 188.548957 197.497807 
L 189.009246 194.429906 
L 189.632167 177.688535 
L 190.227219 208.748593 
L 190.742488 200.522123 
L 190.907197 212.232713 
L 191.295297 228.69032 
L 191.510449 221.743542 
L 191.805134 250.216733 
L 192.117518 242.573492 
L 192.323037 247.053171 
L 192.65884 285.766578 
L 192.994161 280.400295 
L 193.336136 302.989259 
L 193.705903 297.84113 
L 194.004491 287.845063 
L 194.338928 303.441731 
L 194.676038 311.846495 
L 195.011167 303.043122 
L 195.346297 283.03787 
L 195.679955 282.238265 
L 196.109413 266.437297 
L 196.620981 223.961794 
L 197.297104 261.794015 
L 197.950471 263.295222 
L 198.233178 250.474249 
L 198.980019 268.193865 
L 199.104005 261.62276 
L 199.363658 257.258996 
L 199.653709 257.399103 
L 199.813208 245.372568 
L 200.050298 256.617518 
L 200.38637 282.459938 
L 200.722653 287.244298 
L 201.06829 279.463889 
L 201.442249 263.275793 
L 201.74226 256.060699 
L 202.072919 273.060979 
L 202.746523 263.767611 
L 203.025009 268.02429 
L 203.163637 252.460376 
L 203.411821 280.52385 
L 204.119746 264.030866 
L 204.34505 253.472848 
L 204.454347 264.603962 
L 204.762299 259.814593 
L 205.204639 245.723883 
L 205.734991 245.71303 
L 205.982493 235.69147 
L 206.286503 262.801461 
L 206.479582 255.839902 
L 206.782929 265.992323 
L 207.121548 259.291128 
L 207.444632 268.730717 
L 207.802295 270.150241 
L 208.468189 277.330537 
L 208.786678 288.163047 
L 209.128383 282.845554 
L 209.46381 284.399741 
L 209.797892 297.673615 
L 210.17882 298.470517 
L 210.802934 307.682482 
L 211.150003 308.691919 
L 211.598121 298.860067 
L 212.086068 328.462095 
L 212.39501 334.636473 
L 213.17147 324.787494 
L 213.495804 315.73141 
L 213.829308 336.611759 
L 214.173157 333.651215 
L 214.589492 337.655559 
L 214.835292 338.503241 
L 215.172114 332.195727 
L 215.507359 313.907063 
L 215.844122 313.220613 
L 216.204689 325.903516 
L 216.704768 296.709829 
L 216.857836 310.108442 
L 217.636103 274.709763 
L 218.254324 266.018077 
L 218.345451 251.897718 
L 218.602162 275.760637 
L 218.875601 271.828456 
L 219.203444 281.326362 
L 219.539756 270.822554 
L 219.929154 231.988019 
L 220.660911 225.371576 
L 221.460866 215.177484 
L 221.801216 222.125729 
L 222.138162 243.819186 
L 222.806835 194.264847 
L 223.147136 194.693117 
L 223.479093 183.795517 
L 223.849091 199.8657 
L 224.545258 177.038171 
L 225.099722 168.235665 
L 225.443571 149.657006 
L 225.891583 150.583591 
L 226.308274 163.30704 
L 226.563995 156.71841 
L 226.906681 176.243512 
L 227.242752 169.237045 
L 227.573267 166.206751 
L 227.909761 181.140982 
L 228.246102 166.741084 
L 228.582289 163.821901 
L 228.918457 150.242614 
L 229.460547 151.023836 
L 229.79833 179.77676 
L 229.926152 166.492553 
L 230.279221 163.279553 
L 230.60018 174.746458 
L 230.934694 156.950917 
L 231.272707 121.830641 
L 232.283056 132.710329 
L 233.261045 125.981824 
L 233.622651 143.918125 
L 234.187468 122.042611 
L 234.755957 123.562104 
L 234.89122 116.968491 
L 235.012005 130.560225 
L 235.300624 135.110895 
L 235.629236 157.013083 
L 235.970383 143.318788 
L 236.287727 153.427279 
L 236.656774 210.689883 
L 236.960044 234.003304 
L 237.577966 222.293211 
L 238.060702 227.399377 
L 238.29635 236.099617 
L 238.435247 232.726077 
L 238.648534 223.736273 
L 238.991355 238.249553 
L 239.314698 245.367141 
L 239.648404 263.583793 
L 239.984783 253.685929 
L 240.356041 269.164454 
L 240.675654 253.309856 
L 241.03524 265.797872 
L 242.001693 273.948252 
L 242.640593 265.433783 
L 244.004375 232.911417 
L 244.623394 188.731912 
L 244.992305 194.891593 
L 245.313495 177.447605 
L 245.637569 215.23722 
L 246.196079 250.480409 
L 246.869184 250.87387 
L 247.410351 253.608059 
L 247.766034 254.309099 
L 248.366076 279.538605 
L 248.480958 277.30514 
L 248.767039 248.079429 
L 249.104879 279.609747 
L 249.42853 258.005568 
L 249.893078 248.26104 
L 250.567624 244.036486 
L 251.279683 243.440042 
L 251.669013 241.124321 
L 252.489513 258.315532 
L 253.183998 265.977224 
L 253.35239 260.375536 
L 254.114497 273.787263 
L 254.4677 273.182003 
L 254.871278 259.442257 
L 255.560187 301.870624 
L 255.74148 296.540541 
L 255.948864 307.799583 
L 256.365305 317.387212 
L 256.552404 328.789363 
L 256.81101 324.485592 
L 257.017336 341.152554 
L 257.37302 340.186358 
L 257.823973 342.986482 
L 258.012265 339.044708 
L 258.34851 339.724508 
L 258.676813 334.651191 
L 259.015558 347.090707 
L 259.586373 341.356508 
L 260.094163 334.519825 
L 260.264996 318.801899 
L 260.774131 307.576608 
L 261.143889 286.924208 
L 261.49986 277.306889 
L 261.7014 295.804691 
L 262.371716 276.588931 
L 262.718113 286.615008 
L 263.083775 279.152675 
L 263.402619 287.513347 
L 263.714618 287.013898 
L 264.064725 275.301297 
L 264.41191 287.82778 
L 264.725582 260.98866 
L 265.059096 273.118234 
L 265.644909 264.372669 
L 266.049449 249.218338 
L 266.536377 256.619469 
L 267.621077 203.993869 
L 268.528618 218.255294 
L 268.866362 214.862815 
L 269.209029 195.468993 
L 269.540986 184.662988 
L 270.218955 177.181364 
L 270.274233 175.160375 
L 270.602902 181.705168 
L 270.882657 174.329508 
L 271.220805 174.1141 
L 271.55455 202.959506 
L 272.564803 171.436196 
L 272.901509 153.480795 
L 273.235869 157.174044 
L 273.570576 157.06664 
L 273.90682 171.226384 
L 274.244699 173.037561 
L 274.929051 143.95121 
L 275.253279 161.24445 
L 275.588889 147.667346 
L 275.923019 146.256367 
L 276.263993 126.84439 
L 276.598161 140.959585 
L 277.041328 173.410553 
L 277.713606 195.764118 
L 277.990861 194.396324 
L 278.281557 194.400259 
L 278.611956 195.119553 
L 278.970773 189.93067 
L 279.520786 214.405905 
L 279.903906 212.95577 
L 280.19837 224.545473 
L 280.336344 221.037325 
L 280.963111 267.576853 
L 281.312353 268.644668 
L 281.639946 250.127522 
L 281.971902 238.543879 
L 282.306955 247.203819 
L 282.642969 249.178571 
L 282.985078 260.724692 
L 283.652299 309.271913 
L 283.986909 313.104808 
L 284.323134 337.487169 
L 284.66705 326.487912 
L 285.000988 363.149836 
L 285.527389 355.834163 
L 285.756365 354.874912 
L 286.013009 394.797698 
L 286.340967 394.277809 
L 286.79417 337.464671 
L 287.640646 313.406552 
L 287.845608 322.110728 
L 288.324537 330.61171 
L 288.520769 299.998476 
L 289.178588 335.660588 
L 289.516929 324.982821 
L 289.879476 317.92034 
L 290.233044 315.40963 
L 290.641717 303.472171 
L 290.861522 293.167933 
L 291.840377 260.693986 
L 292.280506 265.180167 
L 292.791564 243.495241 
L 293.081221 251.947253 
L 293.726677 223.702077 
L 294.078957 231.746195 
L 294.400377 253.897271 
L 294.738064 246.660339 
L 295.072866 258.960011 
L 296.088868 237.757519 
L 296.416403 218.517623 
L 297.336711 238.882021 
L 297.584453 243.442884 
L 297.779185 223.413107 
L 298.432909 250.109242 
L 298.768557 248.500418 
L 299.10486 256.24986 
L 299.45389 252.758462 
L 299.798518 244.878565 
L 300.130206 243.097906 
L 300.457779 265.498262 
L 300.793139 270.413288 
L 301.124634 282.914442 
L 301.457303 288.984824 
L 301.80543 301.837402 
L 302.151826 303.239802 
L 302.498588 295.534253 
L 302.850907 277.248376 
L 303.811861 324.51574 
L 304.592387 338.458484 
L 304.974643 366.163662 
L 305.267934 350.601332 
L 305.573472 365.937218 
L 306.337137 334.437048 
L 307.371539 370.766831 
L 307.44241 348.235022 
L 307.966773 351.209895 
L 308.021955 327.531467 
L 308.356777 336.090859 
L 308.70102 326.570669 
L 309.037418 313.092007 
L 309.379066 291.245091 
L 309.720521 285.746986 
L 310.283742 269.800326 
L 310.540809 298.411349 
L 310.865056 288.448747 
L 311.071248 276.670353 
L 311.431873 272.786702 
L 312.062889 256.409296 
L 312.398307 271.195074 
L 312.734301 245.924579 
L 313.44488 217.483315 
L 313.739344 249.135649 
L 314.069993 245.646871 
L 314.455613 235.308436 
L 314.765978 196.735773 
L 315.079284 195.011427 
L 316.123531 149.025497 
L 316.437068 137.335384 
L 316.837743 136.354665 
L 317.100405 145.77555 
L 317.802889 106.564636 
L 318.450132 95.510769 
L 318.779282 129.80442 
L 319.448234 159.153609 
L 319.810281 148.586649 
L 320.128625 174.379104 
L 320.802575 193.648218 
L 321.295964 191.449122 
L 321.78093 181.283951 
L 321.963146 165.315607 
L 322.343805 159.743837 
L 323.803589 220.004768 
L 324.211628 212.706155 
L 324.641566 190.883449 
L 325.240839 179.622282 
L 325.510288 200.059783 
L 325.897677 190.629372 
L 326.182181 192.483486 
L 326.515907 204.721471 
L 326.852671 230.359883 
L 327.191684 231.096159 
L 327.526486 227.6017 
L 327.86475 241.754314 
L 328.342141 249.579206 
L 328.532259 270.305933 
L 328.868927 279.004213 
L 329.556702 274.027035 
L 329.878276 290.531713 
L 330.606024 277.251785 
L 330.890567 304.531757 
L 331.338348 305.147526 
L 331.712701 293.558475 
L 331.926891 314.67968 
L 332.287401 316.461216 
L 332.582691 322.670597 
L 332.931741 319.825407 
L 333.323379 306.274055 
L 333.628918 281.408244 
L 334.025959 287.806984 
L 334.279757 284.986751 
L 334.720155 270.864446 
L 334.946555 250.36631 
L 335.27632 270.466628 
L 335.59228 235.150859 
L 336.720818 269.947247 
L 337.059005 285.620995 
L 337.395173 283.448542 
L 337.732244 278.245626 
L 338.069123 276.678305 
L 339.076549 262.940476 
L 339.441712 249.578218 
L 339.766804 252.242607 
L 340.085918 245.074457 
L 340.420336 240.496913 
L 341.090825 206.236486 
L 341.429146 200.908601 
L 341.76416 239.945732 
L 342.103212 237.995714 
L 342.792948 221.801813 
L 343.107485 246.914216 
L 343.476089 245.921381 
L 343.77884 246.555486 
L 344.114815 252.367007 
L 344.45329 261.722904 
L 344.789131 262.341087 
L 345.459505 273.366848 
L 345.796173 269.904734 
L 346.469739 290.940684 
L 346.807617 282.455342 
L 347.143401 296.790999 
L 347.559938 288.624098 
L 347.818428 291.219957 
L 348.152423 271.850279 
L 348.653156 293.554077 
L 349.281326 295.656671 
L 349.526242 303.835429 
L 349.704862 290.852914 
L 350.33732 326.840034 
L 350.568873 329.61254 
L 350.666547 328.460635 
L 350.8354 369.202982 
L 351.171914 374.656046 
L 351.5121 367.787691 
L 352.531505 237.712606 
L 353.566887 263.309951 
L 353.914072 253.276194 
L 354.387579 307.570136 
L 354.576909 296.215363 
L 354.913365 231.655742 
L 355.389064 244.737604 
L 355.756765 284.943305 
L 355.921003 271.772638 
L 356.257248 255.946289 
L 356.768652 250.911457 
L 357.107319 228.390669 
L 357.495438 243.206022 
L 357.676539 221.503045 
L 357.959024 238.217102 
L 358.273734 218.824556 
L 358.609518 220.144728 
L 358.974622 192.383761 
L 359.454051 210.224361 
L 359.619174 185.148607 
L 360.099853 160.867768 
L 360.289375 183.254042 
L 360.682167 180.445816 
L 361.478768 151.882372 
L 361.77477 155.266044 
L 361.99071 148.980699 
L 362.691405 197.602938 
L 362.978928 190.222478 
L 363.314 203.945014 
L 363.65036 195.984673 
L 363.988566 203.046836 
L 364.321638 195.516244 
L 364.658228 208.770822 
L 365.199761 221.692324 
L 365.712127 209.005727 
L 366.005072 219.608001 
L 366.381347 221.893005 
L 366.674638 200.457321 
L 367.087465 201.776814 
L 367.3498 220.644338 
L 367.685179 230.170302 
L 368.018982 250.034906 
L 368.367167 249.847593 
L 369.860387 304.823073 
L 370.45689 296.995248 
L 371.003037 322.396993 
L 371.579641 325.006043 
L 372.232364 299.957542 
L 372.472742 324.361552 
L 372.812313 344.237091 
L 373.156556 355.428646 
L 373.48263 318.259085 
L 373.818182 347.381375 
L 374.152504 349.865088 
L 374.489864 363.662844 
L 374.824897 364.400413 
L 375.17189 367.309497 
L 375.498636 353.526587 
L 375.837534 318.300761 
L 376.290622 365.407539 
L 377.513027 317.154925 
L 377.849656 304.181167 
L 378.186112 305.715568 
L 378.874195 253.362596 
L 379.21142 267.448927 
L 379.534071 253.46182 
L 379.870623 226.370426 
L 380.217289 250.356116 
L 380.537786 243.750778 
L 380.873416 233.825611 
L 381.2236 231.987578 
L 381.882303 252.129839 
L 382.219105 235.961404 
L 382.554292 240.854556 
L 383.640069 209.863227 
L 383.898598 194.982175 
L 384.235458 210.247623 
L 384.907216 225.613166 
L 385.241653 236.428241 
L 385.609546 201.26327 
L 386.502282 183.886127 
L 386.801399 209.615003 
L 386.928106 201.278067 
L 387.262236 197.262167 
L 387.597711 247.713494 
L 387.932764 237.580551 
L 388.304348 235.037312 
L 388.612944 266.149083 
L 389.273512 249.785085 
L 389.609603 273.02339 
L 389.951077 275.685534 
L 390.292167 265.44316 
L 390.709473 267.801209 
L 391.103284 275.358052 
L 391.588154 287.05586 
L 391.783579 295.184365 
L 391.962507 288.510067 
L 392.29856 293.569125 
L 392.63392 287.264576 
L 392.979355 319.580549 
L 393.311062 327.286561 
L 393.642653 319.235061 
L 393.97859 317.409012 
L 394.315681 318.899921 
L 394.650541 316.722655 
L 395.006359 318.276308 
L 395.336912 294.839429 
L 395.738222 313.3145 
L 396.670277 289.48392 
L 397.002869 305.205692 
L 397.339037 310.220186 
L 397.674512 319.629136 
L 398.011526 280.383274 
L 398.346694 292.93368 
L 398.693705 312.366229 
L 399.017952 319.035115 
L 399.354235 352.088402 
L 400.362584 314.112193 
L 400.701521 289.92985 
L 401.038188 280.244561 
L 401.370357 280.61074 
L 401.707793 257.85544 
L 402.045999 262.700179 
L 402.378629 232.19302 
L 402.722488 228.252542 
L 403.132911 251.626892 
L 403.386555 243.722111 
L 403.7233 238.903924 
L 404.062428 215.961025 
L 404.471582 208.552569 
L 404.75303 211.400716 
L 405.128921 187.06334 
L 405.638709 170.709096 
L 406.150498 147.358605 
L 406.56815 189.932507 
L 407.176959 145.431985 
L 407.591343 181.559823 
L 407.888441 194.284762 
L 408.470639 167.016463 
L 408.808422 174.470516 
L 409.144436 161.724879 
L 409.484795 172.844292 
L 409.819771 162.458103 
L 410.15267 184.520196 
L 410.488645 197.636237 
L 410.831389 169.586044 
L 411.182361 172.461454 
L 411.504724 163.554367 
L 411.833201 203.071371 
L 412.195133 224.469606 
L 412.504805 214.218983 
L 412.844395 243.943522 
L 413.251857 211.477408 
L 413.515346 214.947404 
L 413.85609 221.909952 
L 414.211139 205.526596 
L 414.64898 232.175954 
L 415.200069 236.155304 
L 415.705628 285.635634 
L 416.55143 254.848694 
L 416.963815 256.948079 
L 417.212114 289.750788 
L 417.679065 301.149251 
L 417.890294 292.982206 
L 418.224386 321.695027 
L 418.742711 300.703283 
L 419.227044 336.945527 
L 419.684304 326.432253 
L 419.858156 312.421073 
L 420.152754 270.34153 
L 420.762063 248.125415 
L 420.91415 238.223507 
L 421.242319 284.737213 
L 421.490388 286.463736 
L 421.581332 262.938152 
L 422.018596 308.470215 
L 422.256552 290.441477 
L 422.589066 296.333631 
L 423.265439 324.121614 
L 423.596993 324.29266 
L 424.33993 281.06937 
L 424.694863 270.037909 
L 424.968081 266.687274 
L 425.285637 226.141985 
L 425.755357 229.085974 
L 426.128364 253.276011 
L 426.564897 262.11798 
L 426.62081 258.173612 
L 426.957708 248.257395 
L 427.294798 263.567851 
L 427.62889 269.369751 
L 427.968018 266.558496 
L 428.30284 256.690494 
L 428.641853 250.347964 
L 429.014899 251.959605 
L 429.331455 256.069144 
L 429.981486 232.642634 
L 430.654745 243.414165 
L 430.991028 244.764939 
L 431.340001 231.453984 
L 431.667708 227.691315 
L 432.074632 231.953809 
L 432.341159 244.392746 
L 432.806418 255.787613 
L 433.12505 245.309534 
L 433.366928 256.539636 
L 434.022843 261.582451 
L 434.354204 249.352878 
L 435.02154 258.542447 
L 435.737137 298.771058 
L 436.199589 304.461549 
L 436.551292 305.12906 
L 436.835854 299.814483 
L 436.88023 316.377684 
L 437.037393 311.205219 
L 437.373407 303.87641 
L 437.709805 285.22711 
L 438.047665 303.250962 
L 438.382717 303.793964 
L 438.717462 306.070384 
L 439.209216 301.85671 
L 439.408525 290.981231 
L 439.726427 295.782232 
L 440.064902 292.178098 
L 440.397339 328.568682 
L 440.73443 324.363942 
L 441.073943 309.459291 
L 441.446488 317.641878 
L 441.741818 275.832606 
L 442.307481 287.676521 
L 442.424805 266.763217 
L 442.910444 285.210098 
L 443.58751 280.281723 
L 443.72683 266.277518 
L 443.968823 298.310669 
L 444.115372 279.051368 
L 444.430159 295.689114 
L 444.765827 294.615268 
L 445.244199 274.14046 
L 445.437816 278.860492 
L 445.774099 283.135514 
L 446.255163 269.775274 
L 446.447742 268.433521 
L 447.119039 235.303077 
L 447.544767 198.085982 
L 448.168496 177.720209 
L 448.510393 149.526246 
L 449.206686 146.847801 
L 449.618301 133.468793 
L 449.887789 156.679359 
L 450.219688 164.24358 
L 450.892062 132.794004 
L 451.427269 137.329659 
L 451.595353 136.853401 
L 451.978742 125.509306 
L 452.240347 110.895633 
L 452.576976 116.119496 
L 452.907722 150.621346 
L 453.430431 160.659799 
L 453.590555 150.677642 
L 453.920185 158.94563 
L 454.24947 160.738788 
L 454.589983 170.339324 
L 454.982178 162.30426 
L 455.712426 196.58043 
L 456.328618 185.881426 
L 456.612103 176.093069 
L 456.96396 212.394917 
L 457.345581 211.10439 
L 457.372691 210.097538 
L 457.950429 226.792419 
L 458.338818 222.081135 
L 459.068488 248.126714 
L 459.366202 244.309621 
L 459.628191 261.867721 
L 459.964359 240.290411 
L 460.304064 248.026614 
L 460.972785 218.631649 
L 461.33091 212.004406 
L 461.645389 240.210958 
L 462.01805 230.478399 
L 462.31534 255.923268 
L 462.653123 248.383567 
L 463.101308 243.879556 
L 463.841554 262.617159 
L 464.293469 302.924732 
L 464.965843 342.090802 
L 465.310624 333.271632 
L 465.66029 298.704337 
L 465.978422 318.885902 
L 466.311936 309.174029 
L 466.647527 296.031397 
L 466.983926 297.477716 
L 467.324746 264.875962 
L 467.952244 248.533257 
L 468.37801 242.449298 
L 468.584625 278.353242 
L 468.662995 267.357827 
L 468.999932 251.17613 
L 469.336561 227.014398 
L 470.167021 200.466535 
L 471.176523 260.746887 
L 471.520997 234.516381 
L 472.012559 254.821508 
L 472.478087 242.636541 
L 472.620945 241.889177 
L 472.859631 225.555526 
L 473.195991 235.283666 
L 473.532543 234.237892 
L 473.869018 221.211312 
L 474.204955 228.997838 
L 474.756544 199.858093 
L 475.081483 197.636008 
L 475.768469 177.768939 
L 476.213116 227.897308 
L 476.698141 208.283682 
L 477.044768 215.253837 
L 477.390819 212.765169 
L 478.177171 234.148734 
L 478.743257 244.879906 
L 479.082116 254.22615 
L 479.44301 246.595297 
L 479.783562 252.219673 
L 480.113461 245.563876 
L 480.60733 245.180153 
L 480.774376 243.77798 
L 481.137346 259.834066 
L 481.537886 248.296419 
L 481.943772 269.360901 
L 482.209991 258.693848 
L 482.442909 256.522788 
L 482.926972 273.2063 
L 483.140086 275.015869 
L 484.025304 303.414127 
L 484.532093 285.06471 
L 484.945093 289.838968 
L 485.187624 315.271843 
L 485.505911 312.661655 
L 485.806623 329.271765 
L 486.285111 335.11874 
L 486.713453 358.077985 
L 486.892574 350.367808 
L 487.146641 344.667896 
L 487.51338 332.508849 
L 487.890386 340.286014 
L 488.412404 364.925384 
L 488.815943 372.346577 
L 488.921808 365.04086 
L 489.163647 375.997462 
L 489.833829 331.831253 
L 490.170112 330.610369 
L 490.730199 311.056233 
L 491.025913 308.234984 
L 491.639759 281.274345 
L 492.177658 263.643102 
L 492.828344 256.387394 
L 493.193045 270.369804 
L 493.674647 243.709604 
L 494.184205 241.109381 
L 494.345944 234.65397 
L 494.861232 234.304005 
L 495.387364 225.785721 
L 495.534451 228.429506 
L 495.885347 225.304075 
L 496.251048 219.385687 
L 496.542185 231.883003 
L 497.246207 203.442613 
L 497.571569 182.264918 
L 497.944422 185.849162 
L 498.396722 182.285701 
L 499.006992 149.195833 
L 499.30409 144.342799 
L 499.575078 148.578827 
L 499.89471 167.572161 
L 500.23853 169.796399 
L 500.578735 169.31876 
L 500.914595 165.309287 
L 501.24438 196.511481 
L 501.628231 186.245386 
L 502.194701 217.752591 
L 502.452768 218.611809 
L 503.285343 250.415596 
L 503.564598 248.596615 
L 504.079309 274.841422 
L 504.483579 273.026528 
L 504.823823 302.601023 
L 505.439631 305.580653 
L 505.788796 313.655673 
L 506.323696 336.680258 
L 506.628677 312.575157 
L 507.078169 333.33278 
L 507.470442 296.386192 
L 507.7765 285.241187 
L 508.201689 330.175447 
L 508.781503 301.229034 
L 509.325555 282.536724 
L 509.918021 310.234961 
L 510.475301 346.492478 
L 511.24208 319.657897 
L 511.359904 304.39778 
L 511.682382 306.291086 
L 512.015166 300.577314 
L 512.381251 314.856797 
L 512.688155 286.714375 
L 513.106345 282.322942 
L 513.393868 251.299857 
L 513.751994 264.948516 
L 514.054898 234.360311 
L 514.531309 228.763709 
L 514.757189 232.10948 
L 515.066824 238.571913 
L 515.422911 252.304457 
L 515.90582 259.945668 
L 516.384884 232.700483 
L 516.76712 231.42898 
L 517.119246 234.964254 
L 517.406231 242.348053 
L 517.814462 231.346619 
L 518.076566 234.629425 
L 518.401467 240.828845 
L 518.738711 240.128674 
L 519.118871 243.292306 
L 519.408124 236.21628 
L 519.745868 241.325373 
L 520.095418 241.236423 
L 520.416935 244.657535 
L 520.778444 241.462938 
L 521.112304 244.449041 
L 521.43732 248.816136 
L 521.766105 250.815045 
L 522.101311 249.636743 
L 522.435018 239.096577 
L 522.789682 246.271236 
L 523.244712 246.126507 
L 523.498664 244.910749 
L 525.42188 286.800904 
L 525.714402 298.099045 
L 526.043917 306.437083 
L 526.282257 299.401484 
L 526.504215 306.876857 
L 526.867647 294.653455 
L 527.164514 299.619461 
L 527.682571 321.071944 
L 528.171133 304.267772 
L 528.849121 298.901499 
L 529.293499 310.180684 
L 529.604826 314.267242 
L 529.868315 333.61611 
L 530.196215 341.797968 
L 530.809792 334.705773 
L 531.162149 317.65377 
L 531.475359 332.722286 
L 531.637406 323.912043 
L 531.999838 324.973155 
L 532.238831 326.239743 
L 533.122665 290.641143 
L 533.855643 281.521109 
L 534.352281 271.610606 
L 535.033884 305.701206 
L 535.702297 278.76967 
L 536.370825 240.441843 
L 536.708223 229.106915 
L 537.04366 211.968011 
L 537.457852 237.278633 
L 538.054163 192.218984 
L 538.3866 212.197677 
L 538.723768 219.939721 
L 539.058628 199.469683 
L 539.417215 193.481372 
L 539.731117 178.328596 
L 540.140925 201.145529 
L 541.411648 148.980506 
L 541.747431 166.686391 
L 542.419728 130.888511 
L 542.771854 123.172507 
L 543.427039 102.999487 
L 543.764129 106.71915 
L 544.110564 117.643407 
L 544.43858 107.074942 
L 545.295804 154.038718 
L 545.866312 158.3957 
L 546.597328 150.471553 
L 546.941033 152.231246 
L 547.628673 198.382741 
L 547.95392 195.285843 
L 548.454634 245.347671 
L 548.882938 233.062413 
L 548.964653 281.493326 
L 549.305589 277.750403 
L 549.63595 270.952345 
L 549.970272 268.704124 
L 550.322052 253.168043 
L 550.684215 250.311039 
L 550.969085 253.722205 
L 551.304676 265.418068 
L 551.898295 270.507339 
L 552.182319 246.951213 
L 552.661459 300.698424 
L 552.748751 295.763866 
L 553.322912 326.747737 
L 553.665732 360.050598 
L 554.000054 353.037285 
L 554.331492 366.599724 
L 554.672505 364.888575 
L 555.002174 360.574258 
L 555.338303 340.963114 
L 555.681546 327.888306 
L 556.010523 308.027614 
L 556.345999 298.754092 
L 556.681782 325.300702 
L 557.022795 297.420212 
L 557.712358 266.524031 
L 558.355122 280.644136 
L 558.97166 299.417401 
L 559.316287 279.961192 
L 559.895486 268.985117 
L 560.140902 259.714748 
L 560.38551 247.417726 
L 560.713948 245.873044 
L 561.053423 238.92168 
L 561.389398 253.869002 
L 561.771134 247.680424 
L 562.071962 245.406945 
L 562.393902 241.608723 
L 562.839126 216.615813 
L 563.255202 226.351348 
L 563.401828 213.884434 
L 563.844899 191.526925 
L 564.410677 231.501031 
L 564.77134 202.807426 
L 565.719393 224.291758 
L 566.155042 223.491458 
L 566.632376 231.916125 
L 566.828839 226.520139 
L 567.428572 233.178533 
L 567.977354 227.881802 
L 568.574626 242.760052 
L 568.845037 258.364163 
L 569.517911 274.987434 
L 569.855578 284.379491 
L 570.190131 287.527248 
L 570.52676 292.560466 
L 570.86412 286.799751 
L 571.197519 269.985372 
L 571.677121 265.575788 
L 571.871354 282.552525 
L 572.54938 293.947615 
L 572.984222 251.69325 
L 573.530312 299.896794 
L 574.108395 294.867265 
L 574.539276 288.864458 
L 574.995229 323.404207 
L 575.349393 309.885026 
L 575.671564 277.010582 
L 576.005347 277.739987 
L 576.347283 260.02191 
L 577.160707 288.921593 
L 577.683801 292.445622 
L 577.813546 269.93818 
L 578.51926 248.904893 
L 579.029933 246.391507 
L 579.408093 237.505836 
L 579.755758 238.174049 
L 580.039359 254.72664 
L 580.375988 252.092657 
L 580.716117 235.227307 
L 581.048554 242.34352 
L 581.38403 215.102956 
L 581.720313 231.60527 
L 582.126775 237.000111 
L 582.39484 222.500881 
L 582.72897 228.560444 
L 583.070213 205.730187 
L 583.400267 199.674157 
L 583.737319 208.852532 
L 584.072833 199.448209 
L 584.929633 167.092174 
L 585.570206 184.129251 
L 585.855114 194.863268 
L 586.03458 177.789903 
L 586.778594 168.583467 
L 587.336105 208.670303 
L 587.453352 199.943962 
L 587.788328 200.41785 
L 588.166141 205.731685 
L 588.461201 187.719303 
L 588.797946 189.409294 
L 589.204062 195.169463 
L 589.468512 180.039344 
L 590.202874 156.937238 
L 590.982767 158.792931 
L 591.828185 196.081608 
L 591.87706 194.414666 
L 592.004344 220.412211 
L 592.328476 219.232105 
L 592.730938 232.477663 
L 593.013155 233.181916 
L 593.33894 228.256749 
L 593.6728 237.639545 
L 594.009391 254.578563 
L 594.345097 278.895968 
L 594.67988 259.377198 
L 595.018701 258.218792 
L 595.37325 229.324489 
L 596.115765 273.391457 
L 596.371024 249.264643 
L 596.699463 241.007965 
L 597.486815 296.084232 
L 598.318313 267.623534 
L 598.726621 276.128086 
L 599.076132 260.680036 
L 599.40184 238.863687 
L 599.740546 255.940968 
L 600.207804 259.318904 
L 600.871718 280.132688 
L 601.168778 294.017959 
L 601.986432 239.223789 
L 602.359516 233.722781 
L 602.984937 291.132479 
L 603.325181 269.387651 
L 603.499071 294.613086 
L 603.674192 278.256919 
L 604.163831 280.346221 
L 604.647509 276.523142 
L 604.672928 274.721612 
L 604.776677 282.535911 
L 605.112807 280.378678 
L 605.450397 273.298909 
L 605.786296 257.76966 
L 606.792991 241.221548 
L 607.128774 244.242365 
L 607.464788 232.388702 
L 608.119204 234.155239 
L 608.271906 231.122021 
L 608.492903 222.397979 
L 608.81142 225.024969 
L 609.144973 222.678929 
L 609.484178 215.164067 
L 609.817539 215.352827 
L 610.156552 206.697539 
L 610.826273 239.058163 
L 611.160979 234.639874 
L 611.500608 237.717484 
L 611.832968 231.944154 
L 612.505381 247.068453 
L 612.842548 249.556165 
L 613.183407 255.399857 
L 613.543301 270.629383 
L 613.891659 267.263922 
L 614.492392 239.216432 
L 614.695777 247.754929 
L 614.949499 251.455319 
L 615.503279 262.029478 
L 615.684169 275.212985 
L 616.116472 266.225771 
L 616.286325 275.148873 
L 616.538508 268.555308 
L 617.125667 296.365971 
L 618.338401 342.544129 
L 619.353749 365.029966 
L 619.875036 325.371288 
L 620.574212 296.082881 
L 621.109727 286.622582 
L 621.319842 315.645515 
L 621.500884 296.376455 
L 622.130689 273.885339 
L 622.353455 250.696605 
L 622.636364 246.251758 
L 622.636364 246.251758 
" clip-path="url(#pff691a7fe7)" style="fill: none; stroke: #008000; stroke-width: 1.5; stroke-linecap: square"/>
   </g>
   <g id="line2d_20">
    <path d="M 115.363636 235.287787 
L 116.018369 232.639127 
L 116.356234 226.980487 
L 116.691714 224.428589 
L 117.026574 225.921434 
L 117.367904 222.497244 
L 117.747468 237.34264 
L 118.678557 224.62528 
L 119.040605 224.183994 
L 119.098089 232.359405 
L 119.689363 225.878702 
L 119.916695 242.72307 
L 120.588204 243.374079 
L 121.228074 230.64124 
L 121.536045 243.939878 
L 121.951847 241.495176 
L 122.457531 229.191788 
L 122.836763 227.144266 
L 122.980005 237.133048 
L 123.279127 242.947299 
L 123.625461 245.977169 
L 123.951726 255.679081 
L 124.562842 251.762913 
L 124.842785 248.87027 
L 125.086898 255.621834 
L 125.337678 252.046069 
L 125.633853 254.100796 
L 125.96866 257.241415 
L 126.643779 251.434252 
L 126.981398 251.133117 
L 127.317739 250.988041 
L 127.653733 260.670398 
L 127.989891 253.757727 
L 128.326223 253.437448 
L 128.662275 265.74661 
L 129.35625 246.230307 
L 129.664529 246.182907 
L 130.008291 243.067286 
L 130.339181 247.295595 
L 130.713149 236.296422 
L 131.018482 234.876913 
L 131.355212 237.734706 
L 131.691788 228.447863 
L 132.270521 229.216657 
L 132.451006 232.543084 
L 132.948557 214.379701 
L 133.177773 225.833756 
L 133.493185 215.200709 
L 134.062963 215.294812 
L 134.540325 196.239024 
L 134.719508 210.17588 
L 135.098374 192.437096 
L 135.392372 197.683912 
L 135.832857 183.603942 
L 136.049528 181.483054 
L 136.385229 173.716696 
L 137.058035 165.32955 
L 137.41243 163.950269 
L 138.085323 156.47362 
L 138.421856 161.224696 
L 139.296346 164.183744 
L 140.191068 153.096662 
L 140.597842 168.806154 
L 141.074988 149.793289 
L 141.20095 152.214618 
L 141.537699 152.988095 
L 141.873223 151.609927 
L 142.226782 167.702246 
L 143.05528 171.008368 
L 143.460555 158.74072 
L 143.552874 165.844879 
L 143.713253 165.069154 
L 144.327613 184.22976 
L 144.744372 187.216319 
L 145.108774 187.611509 
L 145.30468 186.269061 
L 145.570428 191.037276 
L 145.90598 199.315808 
L 146.706176 237.702839 
L 147.504065 228.578512 
L 147.747942 222.166234 
L 147.770448 230.237756 
L 147.922621 224.989218 
L 148.658771 260.49131 
L 149.183346 255.262282 
L 149.700038 275.708113 
L 150.458386 277.296225 
L 150.850033 285.342281 
L 151.074203 282.828891 
L 151.283356 286.656177 
L 151.617783 285.000424 
L 151.954768 295.245998 
L 152.459846 291.670508 
L 152.638294 286.582684 
L 153.125914 292.531785 
L 153.660179 309.275521 
L 154.248395 290.002947 
L 154.609674 293.558728 
L 155.853681 311.784734 
L 156.985622 262.777896 
L 157.200255 268.756753 
L 157.541796 266.510017 
L 157.881271 256.370692 
L 158.92794 274.846242 
L 159.27526 263.168607 
L 159.553486 260.483307 
L 159.951258 258.402567 
L 160.560941 289.557891 
L 161.298014 254.230424 
L 161.744306 257.589386 
L 162.153056 245.517462 
L 162.382994 252.827417 
L 162.907164 254.542295 
L 163.452197 250.284183 
L 163.630759 260.173139 
L 164.206305 259.039032 
L 164.465853 259.312518 
L 164.685754 253.844737 
L 165.365818 266.126538 
L 165.669694 260.608692 
L 166.008303 262.967528 
L 166.342548 274.596664 
L 166.677524 265.366258 
L 167.020806 267.619977 
L 167.351628 284.961885 
L 167.918224 277.371206 
L 168.366457 289.770502 
L 168.743204 289.852356 
L 169.186015 282.22338 
L 169.370701 288.166548 
L 169.701283 282.274017 
L 170.049362 286.584215 
L 170.379868 281.851634 
L 170.721861 282.421112 
L 171.058154 285.343391 
L 171.384073 276.742593 
L 171.731787 283.042283 
L 172.726139 264.007774 
L 173.077803 261.558552 
L 173.401945 258.380573 
L 173.827297 274.3707 
L 174.440836 238.74201 
L 174.741049 237.967189 
L 175.096194 249.710662 
L 175.970328 222.675857 
L 176.64298 196.552018 
L 176.778551 203.671848 
L 177.14056 204.772359 
L 177.967309 182.88641 
L 178.320954 172.102595 
L 178.816534 163.154505 
L 178.947375 162.875909 
L 179.144943 163.029526 
L 179.370959 150.502655 
L 180.117174 146.326862 
L 180.369992 135.780175 
L 180.687135 137.456406 
L 181.028157 125.480838 
L 181.359682 131.74706 
L 182.020461 118.691832 
L 182.360648 122.986134 
L 182.730549 114.528575 
L 183.044654 112.581596 
L 183.411143 111.312153 
L 183.722382 112.635535 
L 184.037112 103.731116 
L 184.716378 101.668665 
L 185.046153 98.363465 
L 185.386551 102.26537 
L 185.719642 103.683159 
L 186.397842 116.202478 
L 186.731327 119.106697 
L 187.101729 133.618058 
L 187.652222 135.797501 
L 188.201888 139.893193 
L 188.548957 140.676886 
L 189.009246 166.629541 
L 189.632167 160.937443 
L 190.227219 165.825887 
L 190.742488 168.918101 
L 190.907197 181.118692 
L 191.805134 193.054958 
L 192.117518 194.655977 
L 192.323037 197.204765 
L 192.65884 204.019694 
L 192.994161 207.63119 
L 193.705903 228.347324 
L 194.004491 230.333031 
L 194.338928 234.038941 
L 194.676038 240.468321 
L 195.011167 249.841133 
L 195.346297 255.66577 
L 195.679955 257.067164 
L 196.109413 275.427783 
L 196.620981 274.143462 
L 196.972857 281.441288 
L 197.297104 292.398438 
L 197.950471 279.976607 
L 198.100347 287.148828 
L 198.233178 308.023301 
L 198.980019 281.508461 
L 199.104005 288.265791 
L 199.363658 279.11639 
L 199.653709 280.053781 
L 199.813208 277.504172 
L 200.050298 283.11065 
L 200.722653 273.025794 
L 201.06829 280.909414 
L 201.442249 269.357699 
L 202.072919 285.415619 
L 202.746523 271.281395 
L 203.025009 261.911654 
L 203.163637 261.020184 
L 203.411821 294.683083 
L 204.119746 264.964698 
L 204.454347 267.121177 
L 204.762299 257.518795 
L 205.204639 271.287995 
L 205.734991 255.573881 
L 205.982493 259.891716 
L 206.286503 258.003931 
L 206.479582 265.287126 
L 206.782929 264.960297 
L 207.121548 263.155697 
L 207.444632 259.798096 
L 207.802295 270.844053 
L 208.123571 266.312697 
L 208.468189 263.565068 
L 208.786678 266.7995 
L 209.128383 272.716024 
L 209.46381 271.456822 
L 209.797892 271.723686 
L 210.17882 280.371272 
L 210.46816 276.779004 
L 210.802934 275.237929 
L 211.598121 289.147627 
L 212.086068 294.089494 
L 212.39501 292.533039 
L 212.841003 292.497386 
L 213.17147 293.597473 
L 213.495804 296.192297 
L 213.829308 297.402924 
L 214.173157 300.668925 
L 214.589492 302.633509 
L 214.835292 298.453833 
L 215.172114 298.343625 
L 215.844122 295.34343 
L 216.204689 311.127221 
L 216.704768 288.539411 
L 216.857836 287.791216 
L 217.190735 282.907646 
L 217.636103 294.519658 
L 218.254324 267.938065 
L 218.345451 269.882547 
L 218.602162 267.241298 
L 218.875601 267.264564 
L 219.539756 243.711872 
L 219.929154 252.250737 
L 220.660911 248.529272 
L 221.460866 214.939063 
L 221.801216 209.489861 
L 222.138162 192.101086 
L 222.472667 183.50928 
L 222.806835 179.805738 
L 223.849091 158.899525 
L 224.545258 159.907091 
L 225.099722 153.471163 
L 225.443571 133.003666 
L 225.891583 125.10924 
L 226.563995 108.755436 
L 226.906681 112.88044 
L 227.242752 113.498105 
L 227.573267 111.225972 
L 228.246102 103.336515 
L 228.582289 101.43882 
L 228.918457 123.442128 
L 229.460547 100.493221 
L 229.79833 91.276722 
L 229.926152 118.902198 
L 230.279221 109.507707 
L 230.60018 96.483724 
L 230.934694 104.38494 
L 231.272707 117.529105 
L 231.913318 110.376136 
L 232.283056 151.120781 
L 233.261045 131.904982 
L 233.622651 151.675268 
L 234.187468 148.027968 
L 234.755957 143.439395 
L 234.89122 140.451768 
L 235.300624 148.503769 
L 235.629236 152.636759 
L 235.970383 163.15978 
L 236.287727 160.102161 
L 236.656774 170.119985 
L 236.960044 194.646929 
L 237.577966 196.908796 
L 238.060702 202.448508 
L 238.29635 207.46342 
L 238.435247 207.71848 
L 238.648534 206.533407 
L 238.991355 222.785329 
L 239.314698 220.273871 
L 239.648404 229.533396 
L 239.984783 232.767839 
L 240.675654 260.01076 
L 241.03524 277.796297 
L 242.001693 279.921665 
L 242.640593 287.927775 
L 243.105871 295.673935 
L 243.66467 282.428927 
L 244.004375 293.549591 
L 244.623394 277.886178 
L 244.992305 277.826981 
L 245.313495 282.698222 
L 245.637569 277.691435 
L 246.196079 296.817942 
L 246.869184 283.000003 
L 247.410351 267.8706 
L 247.766034 280.086838 
L 248.480958 255.131182 
L 248.767039 262.979783 
L 249.104879 257.140512 
L 249.42853 257.236486 
L 249.893078 262.523858 
L 250.567624 252.594612 
L 251.279683 251.88131 
L 251.669013 252.187434 
L 251.953864 261.727313 
L 252.489513 253.876833 
L 252.829507 270.083312 
L 253.183998 262.106655 
L 253.35239 252.822632 
L 253.730492 261.113905 
L 254.114497 263.952656 
L 254.4677 263.206793 
L 254.871278 282.034041 
L 255.560187 274.271705 
L 255.74148 275.01268 
L 255.948864 286.229436 
L 256.365305 281.65756 
L 256.552404 286.495171 
L 256.81101 283.344545 
L 257.37302 295.448608 
L 257.823973 290.54695 
L 258.012265 290.536285 
L 258.34851 288.929837 
L 258.676813 297.667456 
L 259.015558 315.184293 
L 259.586373 292.822437 
L 260.094163 290.334507 
L 260.264996 294.785587 
L 260.590339 285.842532 
L 260.774131 289.47179 
L 261.143889 280.65994 
L 261.49986 278.337477 
L 261.7014 280.813689 
L 262.152392 265.761074 
L 262.371716 264.901131 
L 262.718113 260.627949 
L 263.083775 253.27586 
L 263.402619 242.539934 
L 263.714618 242.558445 
L 264.064725 229.684978 
L 264.41191 224.637753 
L 264.725582 218.067264 
L 265.059096 213.839553 
L 265.644909 203.651076 
L 266.049449 189.798804 
L 266.536377 189.672063 
L 267.116748 176.833946 
L 267.621077 163.06682 
L 268.528618 134.413019 
L 268.866362 128.813326 
L 269.209029 130.608614 
L 269.540986 138.780788 
L 270.274233 114.88682 
L 270.602902 108.462814 
L 270.882657 100.525009 
L 271.220805 105.438742 
L 271.55455 93.999997 
L 272.226597 88.864331 
L 272.564803 87.616988 
L 272.901509 87.146652 
L 273.235869 93.951074 
L 273.570576 81.174332 
L 273.90682 78.592517 
L 274.244699 78.12 
L 274.590192 85.805456 
L 274.929051 82.415237 
L 275.253279 84.15315 
L 275.588889 85.27943 
L 275.923019 87.649265 
L 277.041328 117.989497 
L 277.424564 122.226696 
L 277.713606 107.762986 
L 277.990861 117.008035 
L 278.281557 113.660639 
L 278.611956 118.920347 
L 278.970773 142.190251 
L 279.520786 154.504891 
L 279.903906 148.694526 
L 280.626943 160.259398 
L 280.963111 162.941455 
L 282.306955 189.125518 
L 282.642969 214.591918 
L 282.985078 201.062617 
L 283.31715 214.377106 
L 283.652299 211.179181 
L 283.986909 230.031737 
L 284.323134 234.727125 
L 285.000988 259.207027 
L 285.527389 252.632181 
L 285.756365 251.634289 
L 286.013009 249.160276 
L 286.340967 258.939025 
L 286.79417 292.138522 
L 287.640646 271.146119 
L 287.845608 289.055717 
L 288.324537 274.426779 
L 288.520769 272.611878 
L 289.178588 262.330767 
L 289.516929 264.178543 
L 289.879476 280.501401 
L 290.233044 279.460275 
L 290.641717 264.766964 
L 290.861522 277.584933 
L 291.428301 257.73168 
L 291.840377 267.193156 
L 292.280506 261.919459 
L 292.791564 263.774752 
L 293.081221 277.202752 
L 294.400377 238.61487 
L 294.738064 249.514991 
L 295.072866 240.346582 
L 295.408534 239.911912 
L 295.746971 247.593328 
L 296.088868 247.812752 
L 296.416403 256.646619 
L 296.992948 242.990364 
L 297.336711 250.264072 
L 297.584453 243.013135 
L 297.779185 242.001726 
L 298.134869 252.602093 
L 298.432909 240.802666 
L 298.768557 241.426238 
L 299.10486 246.65059 
L 299.45389 246.677866 
L 299.798518 255.540785 
L 300.130206 258.303753 
L 300.457779 257.149815 
L 300.793139 257.918625 
L 301.124634 256.27484 
L 301.457303 257.712941 
L 301.80543 258.398292 
L 302.151826 254.681298 
L 302.498588 266.0116 
L 302.850907 261.618002 
L 303.136795 262.349368 
L 303.474847 259.901427 
L 303.811861 269.423617 
L 304.592387 275.545017 
L 305.267934 265.496204 
L 305.573472 280.612518 
L 306.337137 264.369562 
L 307.371539 258.144967 
L 307.44241 258.957525 
L 308.356777 235.318779 
L 308.70102 229.711089 
L 309.037418 230.47732 
L 309.379066 217.142513 
L 309.720521 235.089494 
L 310.283742 203.1365 
L 310.540809 198.969078 
L 310.865056 198.753784 
L 311.071248 188.867732 
L 311.724376 180.691029 
L 312.062889 167.788363 
L 312.398307 170.317867 
L 313.065182 149.629263 
L 313.44488 148.281523 
L 313.739344 137.564983 
L 314.069993 131.116357 
L 314.455613 133.794897 
L 315.079284 116.89346 
L 315.413491 112.341179 
L 315.784517 116.292835 
L 316.123531 111.382833 
L 316.437068 98.884837 
L 316.837743 101.755343 
L 317.100405 113.005572 
L 317.437188 112.895156 
L 317.802889 94.309617 
L 318.280645 97.54862 
L 318.450132 103.945915 
L 318.779282 89.09119 
L 319.116411 90.254389 
L 319.448234 105.324211 
L 319.810281 98.53968 
L 320.128625 96.221547 
L 320.469234 99.062064 
L 320.802575 111.853618 
L 321.295964 141.357197 
L 321.78093 117.193082 
L 322.343805 162.321797 
L 323.152596 155.139338 
L 323.803589 162.177202 
L 324.071808 155.949431 
L 324.211628 174.613884 
L 324.641566 189.424086 
L 325.240839 179.605599 
L 325.510288 187.434417 
L 325.897677 194.044839 
L 326.182181 193.58949 
L 326.515907 200.460984 
L 326.852671 220.481202 
L 327.191684 214.686233 
L 327.86475 243.636894 
L 328.342141 238.648884 
L 328.532259 241.3505 
L 328.868927 256.105246 
L 329.228398 259.40823 
L 329.556702 266.545599 
L 329.878276 268.376546 
L 330.212309 268.405728 
L 330.606024 281.024112 
L 330.890567 295.269589 
L 331.712701 284.734375 
L 331.926891 290.069028 
L 332.287401 293.201079 
L 332.582691 293.419596 
L 333.323379 284.806382 
L 333.628918 291.479786 
L 334.025959 286.764864 
L 334.279757 297.856357 
L 334.720155 277.896289 
L 334.946555 280.356167 
L 335.27632 281.118624 
L 335.59228 287.399563 
L 337.059005 262.451804 
L 338.404541 252.070992 
L 339.076549 247.962913 
L 339.441712 253.246502 
L 339.766804 253.690736 
L 340.085918 241.682348 
L 340.420336 240.517076 
L 340.832201 244.594829 
L 341.090825 237.869477 
L 341.429146 244.086351 
L 341.76416 236.12467 
L 342.103212 235.694389 
L 342.440379 235.727773 
L 342.792948 242.566748 
L 343.107485 236.673127 
L 343.476089 243.015396 
L 343.77884 238.465683 
L 344.114815 239.738345 
L 344.45329 249.777647 
L 344.789131 243.08986 
L 345.12501 244.74609 
L 345.796173 249.135772 
L 346.132379 251.239617 
L 346.469739 251.964101 
L 346.807617 254.53232 
L 347.143401 262.344306 
L 347.559938 264.940896 
L 347.818428 267.298149 
L 348.152423 275.887642 
L 348.653156 280.083163 
L 349.281326 267.963636 
L 349.526242 261.003088 
L 349.704862 260.086022 
L 350.33732 263.59987 
L 350.666547 256.059006 
L 350.8354 254.98558 
L 351.171914 267.281119 
L 351.5121 254.290166 
L 351.849171 259.523319 
L 352.401241 247.3708 
L 352.531505 240.063016 
L 353.566887 243.654821 
L 353.914072 239.503323 
L 354.387579 224.24292 
L 354.576909 222.60681 
L 354.913365 222.087249 
L 355.389064 210.590073 
L 355.921003 203.94851 
L 356.257248 206.227843 
L 356.768652 195.760462 
L 357.107319 174.76087 
L 357.495438 177.379256 
L 357.959024 169.968562 
L 358.273734 170.37155 
L 358.609518 166.711426 
L 359.454051 150.48107 
L 359.619174 163.784857 
L 360.289375 147.591977 
L 360.682167 138.766562 
L 361.029486 142.336951 
L 361.478768 145.074607 
L 361.99071 135.008973 
L 362.313245 138.31351 
L 362.691405 132.084743 
L 362.978928 134.977187 
L 363.314 123.52663 
L 363.65036 133.848602 
L 363.988566 123.900809 
L 364.321638 132.796981 
L 364.658228 147.562768 
L 365.199761 138.89525 
L 365.470211 153.224932 
L 365.712127 138.841153 
L 366.005072 153.84147 
L 366.381347 144.239619 
L 366.674638 165.277225 
L 367.087465 164.489047 
L 367.3498 161.683327 
L 367.685179 169.164463 
L 368.018982 174.000789 
L 368.367167 221.265427 
L 369.446907 205.504264 
L 369.860387 219.98657 
L 370.206706 215.176832 
L 370.45689 234.492233 
L 371.003037 249.264928 
L 371.579641 258.98401 
L 371.934286 253.835803 
L 372.127461 254.478522 
L 372.232364 262.052367 
L 372.472742 271.212205 
L 372.812313 275.698347 
L 373.156556 277.742144 
L 373.818182 291.482113 
L 374.152504 306.120641 
L 374.489864 303.175793 
L 374.824897 307.90601 
L 375.17189 319.977355 
L 375.498636 323.672099 
L 375.837534 329.710182 
L 376.551573 322.312322 
L 376.845825 328.081758 
L 377.178321 318.791899 
L 377.849656 315.125737 
L 378.186112 312.057124 
L 378.526779 326.150349 
L 378.874195 304.925478 
L 379.21142 302.782438 
L 379.534071 307.036532 
L 379.870623 301.249816 
L 380.537786 295.920966 
L 380.873416 289.805852 
L 381.2236 277.208327 
L 381.616276 280.404918 
L 381.882303 272.96403 
L 383.225128 261.255847 
L 383.640069 252.740131 
L 383.898598 256.049196 
L 384.570106 251.058079 
L 384.907216 258.924155 
L 385.241653 251.252637 
L 385.609546 253.659517 
L 385.991878 247.406843 
L 386.502282 243.365151 
L 386.801399 246.458343 
L 386.928106 238.263038 
L 387.262236 246.24533 
L 387.597711 238.608099 
L 387.932764 243.860093 
L 388.304348 239.939832 
L 388.612944 240.574607 
L 388.978837 240.156244 
L 389.273512 233.586001 
L 389.609603 235.964043 
L 389.951077 244.23302 
L 390.292167 240.952849 
L 390.709473 249.596409 
L 391.103284 248.860604 
L 391.783579 243.407581 
L 392.29856 245.387306 
L 392.63392 248.416089 
L 392.979355 246.72458 
L 393.311062 246.206546 
L 393.97859 250.164523 
L 394.315681 250.590969 
L 394.650541 251.206557 
L 395.006359 250.482691 
L 395.336912 256.704973 
L 395.738222 260.685148 
L 396.670277 247.452169 
L 397.002869 248.504937 
L 397.339037 247.259319 
L 398.011526 242.740066 
L 398.346694 238.201959 
L 398.693705 240.276923 
L 399.017952 232.541508 
L 400.026186 218.917079 
L 401.038188 202.728335 
L 401.707793 190.268308 
L 402.722488 178.258577 
L 403.132911 163.324239 
L 403.386555 165.529777 
L 403.7233 161.426703 
L 404.062428 169.869941 
L 404.471582 168.96025 
L 404.75303 156.616118 
L 405.128921 168.56985 
L 405.638709 140.208175 
L 406.150498 149.917554 
L 406.56815 143.122515 
L 406.846214 145.89984 
L 407.591343 139.194729 
L 407.888441 143.301988 
L 408.470639 140.403238 
L 408.808422 129.43571 
L 409.144436 138.804027 
L 409.484795 137.884662 
L 409.819771 140.554769 
L 410.15267 132.86655 
L 410.488645 145.799657 
L 410.831389 142.905165 
L 411.182361 158.672388 
L 411.504724 152.408638 
L 411.833201 159.261451 
L 412.195133 156.891436 
L 412.504805 166.471152 
L 412.844395 183.275771 
L 413.251857 172.701938 
L 413.515346 181.016185 
L 413.85609 185.986648 
L 414.211139 208.937382 
L 414.64898 213.426434 
L 415.200069 223.484541 
L 415.705628 241.291835 
L 416.202611 236.415867 
L 416.55143 252.787043 
L 416.963815 251.95894 
L 417.212114 263.399283 
L 417.890294 261.858571 
L 418.224386 279.593494 
L 418.742711 290.576422 
L 419.227044 314.879869 
L 419.684304 304.140087 
L 419.858156 302.985223 
L 420.152754 318.96728 
L 420.762063 310.428671 
L 420.91415 318.598689 
L 421.242319 310.804922 
L 421.490388 313.898187 
L 421.581332 313.068339 
L 422.018596 311.957534 
L 422.256552 322.171674 
L 422.589066 321.106032 
L 423.265439 304.358402 
L 423.596993 302.749626 
L 423.932853 299.550234 
L 424.33993 317.383272 
L 424.694863 294.036334 
L 424.968081 291.841875 
L 425.285637 302.812585 
L 425.755357 280.654801 
L 426.128364 291.270428 
L 426.62081 268.80533 
L 426.957708 274.548731 
L 427.968018 255.03046 
L 428.30284 253.193598 
L 428.641853 259.050079 
L 429.331455 244.897947 
L 429.647318 243.514791 
L 429.981486 245.98245 
L 430.317347 241.223607 
L 430.654745 241.833577 
L 430.991028 241.290766 
L 431.667708 246.146101 
L 432.074632 242.057188 
L 432.341159 272.288435 
L 432.806418 253.662923 
L 433.366928 262.853608 
L 433.68756 256.131233 
L 434.354204 264.993706 
L 434.68545 261.235635 
L 435.02154 286.891591 
L 435.737137 277.988133 
L 436.199589 276.521735 
L 436.551292 283.122695 
L 436.88023 273.670521 
L 437.037393 275.145901 
L 437.373407 276.868078 
L 437.709805 277.866981 
L 438.047665 286.705439 
L 438.382717 292.239343 
L 438.717462 279.187799 
L 439.408525 281.985126 
L 439.726427 275.603217 
L 440.064902 274.424002 
L 440.397339 279.917583 
L 440.73443 270.041864 
L 441.073943 271.186436 
L 441.446488 271.670021 
L 441.741818 259.439306 
L 442.307481 254.32153 
L 442.424805 256.72618 
L 442.910444 237.623263 
L 443.58751 233.723551 
L 443.72683 228.682338 
L 443.968823 229.264845 
L 444.115372 219.469444 
L 444.430159 214.821922 
L 444.765827 233.559631 
L 445.437816 196.818808 
L 445.774099 211.842349 
L 446.255163 194.486657 
L 446.447742 178.471944 
L 446.782141 174.912747 
L 447.119039 169.216095 
L 447.544767 174.384944 
L 448.168496 161.304491 
L 448.510393 159.802157 
L 449.206686 137.620199 
L 449.618301 130.639293 
L 450.219688 125.001507 
L 450.557201 125.909478 
L 450.892062 117.45193 
L 451.427269 123.558041 
L 451.595353 112.496811 
L 451.978742 115.726523 
L 452.240347 108.215213 
L 452.576976 109.181551 
L 452.907722 136.811309 
L 453.430431 106.538935 
L 453.590555 107.218234 
L 453.920185 114.666854 
L 454.24947 107.961994 
L 454.589983 110.086562 
L 455.325729 129.56591 
L 455.712426 143.138492 
L 456.328618 131.759568 
L 456.612103 132.763217 
L 456.96396 139.047586 
L 457.345581 137.47884 
L 457.372691 136.256783 
L 457.645294 141.707957 
L 457.950429 152.920828 
L 458.338818 157.690924 
L 458.680638 163.650027 
L 459.068488 182.6447 
L 459.366202 179.0325 
L 459.964359 198.304806 
L 460.304064 227.085049 
L 460.849346 216.32716 
L 460.972785 230.479692 
L 461.33091 231.950916 
L 461.645389 238.340533 
L 462.01805 249.712237 
L 462.31534 249.546803 
L 462.653123 254.855688 
L 463.101308 288.246952 
L 463.841554 281.994003 
L 464.293469 289.646048 
L 464.965843 286.51683 
L 465.310624 299.24127 
L 465.66029 305.691931 
L 465.978422 302.543867 
L 466.311936 300.804101 
L 466.647527 308.315683 
L 466.983926 305.431704 
L 467.324746 329.438118 
L 467.952244 293.397444 
L 468.37801 300.678165 
L 468.584625 296.803546 
L 468.662995 307.718895 
L 468.999932 299.161978 
L 469.336561 318.985572 
L 470.167021 314.567816 
L 471.176523 270.5787 
L 471.520997 281.276749 
L 472.012559 272.950026 
L 472.478087 271.869955 
L 472.620945 272.772285 
L 472.859631 263.573391 
L 473.195991 258.848972 
L 473.532543 262.909785 
L 473.869018 259.790802 
L 474.204955 271.059551 
L 474.756544 261.451787 
L 475.081483 266.490817 
L 475.768469 247.104417 
L 476.213116 269.805503 
L 476.698141 246.245987 
L 477.044768 247.740823 
L 477.390819 273.256794 
L 478.177171 266.2214 
L 478.743257 251.067103 
L 479.082116 251.165029 
L 479.44301 258.695716 
L 479.783562 263.094525 
L 480.113461 274.996387 
L 480.60733 266.422042 
L 480.774376 273.420215 
L 481.137346 280.031077 
L 481.943772 289.422315 
L 482.209991 286.630874 
L 482.926972 292.224536 
L 483.140086 298.15956 
L 483.825726 298.228947 
L 484.025304 301.958015 
L 484.252492 300.983767 
L 484.532093 301.8012 
L 484.945093 301.682573 
L 485.187624 296.82989 
L 485.505911 299.771022 
L 485.806623 305.65341 
L 486.285111 305.451863 
L 486.713453 294.439749 
L 486.892574 286.829587 
L 487.146641 290.349078 
L 487.51338 280.652248 
L 487.890386 280.792728 
L 488.412404 269.160019 
L 488.815943 269.160511 
L 488.921808 262.295392 
L 489.163647 262.497349 
L 489.833829 249.869987 
L 490.170112 255.006938 
L 490.730199 239.760823 
L 491.025913 256.891381 
L 491.639759 215.574975 
L 492.177658 227.675082 
L 492.828344 203.44195 
L 493.193045 209.131473 
L 493.674647 201.332072 
L 494.184205 183.109358 
L 494.345944 198.643717 
L 494.861232 189.801402 
L 495.343218 166.141334 
L 495.387364 175.508184 
L 495.534451 172.719636 
L 495.885347 177.249682 
L 496.251048 164.5643 
L 496.542185 163.434539 
L 496.892581 175.912783 
L 497.571569 164.815673 
L 497.944422 165.191521 
L 498.396722 171.82771 
L 498.882285 162.904324 
L 499.006992 179.161656 
L 499.30409 160.035462 
L 499.575078 164.533799 
L 499.89471 158.692526 
L 500.23853 164.371942 
L 500.578735 173.921658 
L 501.24438 185.305728 
L 501.628231 205.447224 
L 502.194701 198.117805 
L 502.452768 209.1307 
L 502.861461 214.044322 
L 503.285343 217.785308 
L 503.564598 231.499871 
L 504.079309 237.083534 
L 504.483579 235.533987 
L 504.823823 243.269539 
L 505.439631 249.136588 
L 505.788796 263.305251 
L 506.323696 260.665371 
L 506.628677 270.554506 
L 507.078169 275.940324 
L 507.470442 282.454063 
L 507.7765 298.529421 
L 508.201689 299.895273 
L 508.781503 301.213839 
L 509.325555 298.900882 
L 509.918021 311.895489 
L 510.276107 307.919611 
L 510.475301 331.329627 
L 511.359904 303.047219 
L 511.682382 308.271848 
L 512.015166 306.938349 
L 512.381251 310.06394 
L 512.688155 298.44891 
L 513.393868 291.897821 
L 513.751994 289.649753 
L 514.054898 282.332481 
L 514.531309 284.014571 
L 514.757189 275.526441 
L 515.066824 282.258651 
L 515.422911 274.280496 
L 515.90582 273.930741 
L 516.119011 261.658603 
L 516.384884 259.336708 
L 516.76712 259.223358 
L 517.119246 252.683245 
L 517.406231 255.558459 
L 518.076566 249.744994 
L 518.401467 249.24046 
L 518.738711 247.106183 
L 519.118871 242.985326 
L 519.408124 241.745862 
L 519.745868 242.54487 
L 520.095418 238.508256 
L 520.416935 241.631868 
L 520.778444 242.726765 
L 521.112304 238.490352 
L 521.43732 243.923845 
L 521.766105 243.20764 
L 522.101311 247.579691 
L 522.435018 250.073064 
L 522.789682 251.099989 
L 523.244712 258.969403 
L 523.498664 249.571883 
L 523.830948 263.517209 
L 524.113626 265.906699 
L 524.451639 266.167911 
L 525.009342 277.65202 
L 525.42188 274.907053 
L 525.714402 287.109886 
L 526.043917 282.072833 
L 526.282257 280.544875 
L 526.867647 284.328051 
L 527.164514 292.659403 
L 527.682571 303.031156 
L 528.171133 306.494598 
L 528.849121 294.95656 
L 529.293499 298.101929 
L 529.604826 295.564854 
L 530.196215 289.292989 
L 530.809792 285.728556 
L 531.475359 278.618721 
L 531.637406 280.226136 
L 531.999838 275.066327 
L 532.238831 279.254973 
L 533.020646 260.195378 
L 533.122665 280.869591 
L 533.855643 249.431761 
L 535.033884 222.105153 
L 535.702297 210.275301 
L 536.136061 206.289159 
L 536.708223 188.0942 
L 537.04366 182.896641 
L 537.457852 181.956879 
L 537.71888 177.04209 
L 538.3866 169.543612 
L 538.723768 162.542418 
L 539.058628 171.244562 
L 539.731117 156.017847 
L 540.140925 154.625118 
L 540.404837 151.697599 
L 540.738582 142.244801 
L 541.077826 140.45587 
L 541.411648 135.905303 
L 541.747431 138.585414 
L 542.083637 149.353359 
L 542.419728 153.707858 
L 542.771854 149.74129 
L 543.427039 147.628111 
L 543.764129 156.009562 
L 544.110564 159.404475 
L 544.43858 161.315567 
L 544.805357 165.244163 
L 545.866312 188.967093 
L 546.597328 182.957696 
L 546.941033 194.415261 
L 547.628673 205.476523 
L 547.95392 214.936089 
L 548.737773 226.63909 
L 548.882938 221.404547 
L 548.964653 225.501021 
L 549.305589 236.00339 
L 549.63595 239.009427 
L 550.322052 257.26033 
L 550.684215 259.822718 
L 550.969085 269.076368 
L 551.304676 285.034036 
L 551.898295 288.038078 
L 552.182319 303.180857 
L 552.661459 298.357225 
L 552.748751 302.791178 
L 552.99309 305.591273 
L 553.322912 304.410703 
L 553.665732 311.720459 
L 554.000054 308.538432 
L 554.331492 322.145903 
L 554.672505 322.750278 
L 555.002174 323.088443 
L 555.338303 326.906771 
L 555.681546 316.565007 
L 556.010523 326.475249 
L 556.345999 315.145419 
L 556.681782 313.286613 
L 557.022795 310.278298 
L 557.712358 321.294047 
L 558.97166 299.677452 
L 559.163431 291.576705 
L 559.316287 297.747261 
L 559.895486 279.978608 
L 560.094757 279.338971 
L 560.140902 276.682286 
L 560.38551 269.837512 
L 560.713948 275.152073 
L 561.053423 264.615862 
L 561.389398 263.258252 
L 562.071962 247.012325 
L 562.393902 262.217028 
L 563.255202 236.801897 
L 563.401828 236.836686 
L 563.844899 237.642823 
L 564.231519 232.163112 
L 564.410677 241.895146 
L 564.77134 253.866383 
L 566.155042 233.668402 
L 566.632376 241.086913 
L 566.828839 249.461666 
L 567.428572 238.915005 
L 567.950051 227.095809 
L 567.977354 245.575133 
L 568.297294 241.091784 
L 568.574626 239.392872 
L 568.845037 238.446951 
L 569.184935 238.333521 
L 569.517911 245.458921 
L 569.855578 247.122786 
L 570.52676 253.482833 
L 570.86412 255.373118 
L 571.871354 262.556143 
L 572.20879 269.728571 
L 572.54938 262.735615 
L 572.984222 275.78105 
L 573.530312 296.930789 
L 574.108395 287.601139 
L 574.539276 288.727669 
L 574.995229 283.705049 
L 575.349393 278.270024 
L 575.671564 279.571358 
L 576.005347 289.525208 
L 576.347283 279.648638 
L 576.868916 278.958259 
L 577.683801 268.015893 
L 577.813546 271.517238 
L 579.755758 233.072162 
L 580.039359 222.248571 
L 581.048554 204.567246 
L 581.720313 193.084773 
L 582.126775 191.80436 
L 582.39484 178.497404 
L 582.72897 176.930611 
L 583.070213 170.657752 
L 583.737319 162.828611 
L 584.072833 158.600127 
L 584.56128 158.786249 
L 584.929633 170.577116 
L 585.570206 152.718246 
L 585.855114 149.98493 
L 586.03458 156.885145 
L 586.778594 175.395522 
L 587.336105 147.539875 
L 587.453352 150.602678 
L 587.788328 140.092941 
L 588.461201 154.007429 
L 588.797946 155.079832 
L 589.204062 153.003125 
L 589.468512 181.302808 
L 590.202874 176.365936 
L 590.982767 201.954533 
L 591.87706 184.750995 
L 592.004344 188.938964 
L 592.328476 193.638729 
L 592.730938 196.846073 
L 593.33894 212.985525 
L 593.6728 219.052875 
L 594.009391 221.815866 
L 594.67988 239.266566 
L 595.018701 242.044703 
L 595.37325 266.373278 
L 595.888115 255.875872 
L 596.115765 255.99931 
L 596.371024 264.233461 
L 596.699463 269.599557 
L 597.116923 270.364229 
L 597.486815 293.713985 
L 598.318313 297.315037 
L 599.076132 303.266328 
L 599.40184 302.470577 
L 599.740546 299.177874 
L 600.207804 306.893119 
L 600.871718 301.4167 
L 601.168778 308.292269 
L 601.662185 294.249346 
L 601.986432 297.400213 
L 602.359516 304.768741 
L 602.729177 292.694044 
L 602.984937 297.070536 
L 603.325181 278.753035 
L 603.674192 296.980371 
L 604.163831 272.407566 
L 604.647509 268.161371 
L 604.672928 266.168089 
L 604.776677 268.819764 
L 605.450397 261.440743 
L 605.786296 259.006563 
L 606.457708 247.188477 
L 606.792991 247.88032 
L 607.128774 245.789295 
L 607.464788 238.800108 
L 608.119204 235.077391 
L 608.271906 231.710549 
L 608.492903 232.775084 
L 608.81142 237.421907 
L 609.817539 236.559522 
L 610.156552 233.637795 
L 610.580896 240.317869 
L 610.826273 240.168741 
L 611.160979 239.527593 
L 611.500608 242.670228 
L 611.832968 243.742141 
L 612.16929 245.530241 
L 612.505381 245.216704 
L 612.842548 250.188156 
L 613.183407 250.667929 
L 613.543301 253.439157 
L 613.891659 268.588976 
L 614.492392 255.207055 
L 614.695777 260.944502 
L 614.949499 278.085734 
L 615.503279 267.906758 
L 615.684169 273.830151 
L 616.116472 279.994124 
L 616.286325 280.061361 
L 616.538508 285.988742 
L 617.125667 294.753168 
L 618.338401 297.138742 
L 618.691489 303.718327 
L 619.120331 298.367826 
L 619.353749 305.237686 
L 619.875036 294.95012 
L 620.211319 293.06565 
L 620.574212 298.506075 
L 621.319842 281.373874 
L 621.500884 300.736799 
L 622.353455 272.031865 
L 622.636364 270.729085 
L 622.636364 270.729085 
" clip-path="url(#pff691a7fe7)" style="fill: none; stroke: #ff0000; stroke-width: 1.5; stroke-linecap: square"/>
   </g>
   <g id="patch_3">
    <path d="M 90 448.56 
L 90 60.48 
" style="fill: none; stroke: #000000; stroke-width: 0.8; stroke-linejoin: miter; stroke-linecap: square"/>
   </g>
   <g id="patch_4">
    <path d="M 648 448.56 
L 648 60.48 
" style="fill: none; stroke: #000000; stroke-width: 0.8; stroke-linejoin: miter; stroke-linecap: square"/>
   </g>
   <g id="patch_5">
    <path d="M 90 448.56 
L 648 448.56 
" style="fill: none; stroke: #000000; stroke-width: 0.8; stroke-linejoin: miter; stroke-linecap: square"/>
   </g>
   <g id="patch_6">
    <path d="M 90 60.48 
L 648 60.48 
" style="fill: none; stroke: #000000; stroke-width: 0.8; stroke-linejoin: miter; stroke-linecap: square"/>
   </g>
   <g id="text_12">
    <!-- RMSE Kalman: 0.276 -->
    <g style="fill: #008000" transform="translate(95.58 72.1224)scale(0.1 -0.1)">
     <defs>
      <path id="DejaVuSans-52" d="M 2841 2188 
Q 3044 2119 3236 1894 
Q 3428 1669 3622 1275 
L 4263 0 
L 3584 0 
L 2988 1197 
Q 2756 1666 2539 1819 
Q 2322 1972 1947 1972 
L 1259 1972 
L 1259 0 
L 628 0 
L 628 4666 
L 2053 4666 
Q 2853 4666 3247 4331 
Q 3641 3997 3641 3322 
Q 3641 2881 3436 2590 
Q 3231 2300 2841 2188 
z
M 1259 4147 
L 1259 2491 
L 2053 2491 
Q 2509 2491 2742 2702 
Q 2975 2913 2975 3322 
Q 2975 3731 2742 3939 
Q 2509 4147 2053 4147 
L 1259 4147 
z
" transform="scale(0.015625)"/>
      <path id="DejaVuSans-53" d="M 3425 4513 
L 3425 3897 
Q 3066 4069 2747 4153 
Q 2428 4238 2131 4238 
Q 1616 4238 1336 4038 
Q 1056 3838 1056 3469 
Q 1056 3159 1242 3001 
Q 1428 2844 1947 2747 
L 2328 2669 
Q 3034 2534 3370 2195 
Q 3706 1856 3706 1288 
Q 3706 609 3251 259 
Q 2797 -91 1919 -91 
Q 1588 -91 1214 -16 
Q 841 59 441 206 
L 441 856 
Q 825 641 1194 531 
Q 1563 422 1919 422 
Q 2459 422 2753 634 
Q 3047 847 3047 1241 
Q 3047 1584 2836 1778 
Q 2625 1972 2144 2069 
L 1759 2144 
Q 1053 2284 737 2584 
Q 422 2884 422 3419 
Q 422 4038 858 4394 
Q 1294 4750 2059 4750 
Q 2388 4750 2728 4690 
Q 3069 4631 3425 4513 
z
" transform="scale(0.015625)"/>
      <path id="DejaVuSans-4b" d="M 628 4666 
L 1259 4666 
L 1259 2694 
L 3353 4666 
L 4166 4666 
L 1850 2491 
L 4331 0 
L 3500 0 
L 1259 2247 
L 1259 0 
L 628 0 
L 628 4666 
z
" transform="scale(0.015625)"/>
      <path id="DejaVuSans-6c" d="M 603 4863 
L 1178 4863 
L 1178 0 
L 603 0 
L 603 4863 
z
" transform="scale(0.015625)"/>
      <path id="DejaVuSans-3a" d="M 750 794 
L 1409 794 
L 1409 0 
L 750 0 
L 750 794 
z
M 750 3309 
L 1409 3309 
L 1409 2516 
L 750 2516 
L 750 3309 
z
" transform="scale(0.015625)"/>
      <path id="DejaVuSans-37" d="M 525 4666 
L 3525 4666 
L 3525 4397 
L 1831 0 
L 1172 0 
L 2766 4134 
L 525 4134 
L 525 4666 
z
" transform="scale(0.015625)"/>
      <path id="DejaVuSans-36" d="M 2113 2584 
Q 1688 2584 1439 2293 
Q 1191 2003 1191 1497 
Q 1191 994 1439 701 
Q 1688 409 2113 409 
Q 2538 409 2786 701 
Q 3034 994 3034 1497 
Q 3034 2003 2786 2293 
Q 2538 2584 2113 2584 
z
M 3366 4563 
L 3366 3988 
Q 3128 4100 2886 4159 
Q 2644 4219 2406 4219 
Q 1781 4219 1451 3797 
Q 1122 3375 1075 2522 
Q 1259 2794 1537 2939 
Q 1816 3084 2150 3084 
Q 2853 3084 3261 2657 
Q 3669 2231 3669 1497 
Q 3669 778 3244 343 
Q 2819 -91 2113 -91 
Q 1303 -91 875 529 
Q 447 1150 447 2328 
Q 447 3434 972 4092 
Q 1497 4750 2381 4750 
Q 2619 4750 2861 4703 
Q 3103 4656 3366 4563 
z
" transform="scale(0.015625)"/>
     </defs>
     <use xlink:href="#DejaVuSans-52"/>
     <use xlink:href="#DejaVuSans-4d" x="69.482422"/>
     <use xlink:href="#DejaVuSans-53" x="155.761719"/>
     <use xlink:href="#DejaVuSans-45" x="219.238281"/>
     <use xlink:href="#DejaVuSans-20" x="282.421875"/>
     <use xlink:href="#DejaVuSans-4b" x="314.208984"/>
     <use xlink:href="#DejaVuSans-61" x="378.035156"/>
     <use xlink:href="#DejaVuSans-6c" x="439.314453"/>
     <use xlink:href="#DejaVuSans-6d" x="467.097656"/>
     <use xlink:href="#DejaVuSans-61" x="564.509766"/>
     <use xlink:href="#DejaVuSans-6e" x="625.789062"/>
     <use xlink:href="#DejaVuSans-3a" x="689.167969"/>
     <use xlink:href="#DejaVuSans-20" x="722.859375"/>
     <use xlink:href="#DejaVuSans-30" x="754.646484"/>
     <use xlink:href="#DejaVuSans-2e" x="818.269531"/>
     <use xlink:href="#DejaVuSans-32" x="850.056641"/>
     <use xlink:href="#DejaVuSans-37" x="913.679688"/>
     <use xlink:href="#DejaVuSans-36" x="977.302734"/>
    </g>
   </g>
   <g id="text_13">
    <!-- RMSE OptiTrack: 0.301 -->
    <g style="fill: #ff0000" transform="translate(95.58 83.7648)scale(0.1 -0.1)">
     <defs>
      <path id="DejaVuSans-4f" d="M 2522 4238 
Q 1834 4238 1429 3725 
Q 1025 3213 1025 2328 
Q 1025 1447 1429 934 
Q 1834 422 2522 422 
Q 3209 422 3611 934 
Q 4013 1447 4013 2328 
Q 4013 3213 3611 3725 
Q 3209 4238 2522 4238 
z
M 2522 4750 
Q 3503 4750 4090 4092 
Q 4678 3434 4678 2328 
Q 4678 1225 4090 567 
Q 3503 -91 2522 -91 
Q 1538 -91 948 565 
Q 359 1222 359 2328 
Q 359 3434 948 4092 
Q 1538 4750 2522 4750 
z
" transform="scale(0.015625)"/>
      <path id="DejaVuSans-70" d="M 1159 525 
L 1159 -1331 
L 581 -1331 
L 581 3500 
L 1159 3500 
L 1159 2969 
Q 1341 3281 1617 3432 
Q 1894 3584 2278 3584 
Q 2916 3584 3314 3078 
Q 3713 2572 3713 1747 
Q 3713 922 3314 415 
Q 2916 -91 2278 -91 
Q 1894 -91 1617 61 
Q 1341 213 1159 525 
z
M 3116 1747 
Q 3116 2381 2855 2742 
Q 2594 3103 2138 3103 
Q 1681 3103 1420 2742 
Q 1159 2381 1159 1747 
Q 1159 1113 1420 752 
Q 1681 391 2138 391 
Q 2594 391 2855 752 
Q 3116 1113 3116 1747 
z
" transform="scale(0.015625)"/>
      <path id="DejaVuSans-63" d="M 3122 3366 
L 3122 2828 
Q 2878 2963 2633 3030 
Q 2388 3097 2138 3097 
Q 1578 3097 1268 2742 
Q 959 2388 959 1747 
Q 959 1106 1268 751 
Q 1578 397 2138 397 
Q 2388 397 2633 464 
Q 2878 531 3122 666 
L 3122 134 
Q 2881 22 2623 -34 
Q 2366 -91 2075 -91 
Q 1284 -91 818 406 
Q 353 903 353 1747 
Q 353 2603 823 3093 
Q 1294 3584 2113 3584 
Q 2378 3584 2631 3529 
Q 2884 3475 3122 3366 
z
" transform="scale(0.015625)"/>
      <path id="DejaVuSans-6b" d="M 581 4863 
L 1159 4863 
L 1159 1991 
L 2875 3500 
L 3609 3500 
L 1753 1863 
L 3688 0 
L 2938 0 
L 1159 1709 
L 1159 0 
L 581 0 
L 581 4863 
z
" transform="scale(0.015625)"/>
     </defs>
     <use xlink:href="#DejaVuSans-52"/>
     <use xlink:href="#DejaVuSans-4d" x="69.482422"/>
     <use xlink:href="#DejaVuSans-53" x="155.761719"/>
     <use xlink:href="#DejaVuSans-45" x="219.238281"/>
     <use xlink:href="#DejaVuSans-20" x="282.421875"/>
     <use xlink:href="#DejaVuSans-4f" x="314.208984"/>
     <use xlink:href="#DejaVuSans-70" x="392.919922"/>
     <use xlink:href="#DejaVuSans-74" x="456.396484"/>
     <use xlink:href="#DejaVuSans-69" x="495.605469"/>
     <use xlink:href="#DejaVuSans-54" x="523.388672"/>
     <use xlink:href="#DejaVuSans-72" x="569.722656"/>
     <use xlink:href="#DejaVuSans-61" x="610.835938"/>
     <use xlink:href="#DejaVuSans-63" x="672.115234"/>
     <use xlink:href="#DejaVuSans-6b" x="727.095703"/>
     <use xlink:href="#DejaVuSans-3a" x="785.005859"/>
     <use xlink:href="#DejaVuSans-20" x="818.697266"/>
     <use xlink:href="#DejaVuSans-30" x="850.484375"/>
     <use xlink:href="#DejaVuSans-2e" x="914.107422"/>
     <use xlink:href="#DejaVuSans-33" x="945.894531"/>
     <use xlink:href="#DejaVuSans-30" x="1009.517578"/>
     <use xlink:href="#DejaVuSans-31" x="1073.140625"/>
    </g>
   </g>
   <g id="legend_1">
    <g id="patch_7">
     <path d="M 534.371875 97.83625 
L 641 97.83625 
Q 643 97.83625 643 95.83625 
L 643 67.48 
Q 643 65.48 641 65.48 
L 534.371875 65.48 
Q 532.371875 65.48 532.371875 67.48 
L 532.371875 95.83625 
Q 532.371875 97.83625 534.371875 97.83625 
z
" style="fill: #ffffff; opacity: 0.8; stroke: #cccccc; stroke-linejoin: miter"/>
    </g>
    <g id="line2d_21">
     <path d="M 536.371875 73.578438 
L 546.371875 73.578438 
L 556.371875 73.578438 
" style="fill: none; stroke: #008000; stroke-width: 1.5; stroke-linecap: square"/>
    </g>
    <g id="text_14">
     <!-- Kalman Error -->
     <g transform="translate(564.371875 77.078438)scale(0.1 -0.1)">
      <use xlink:href="#DejaVuSans-4b"/>
      <use xlink:href="#DejaVuSans-61" x="63.826172"/>
      <use xlink:href="#DejaVuSans-6c" x="125.105469"/>
      <use xlink:href="#DejaVuSans-6d" x="152.888672"/>
      <use xlink:href="#DejaVuSans-61" x="250.300781"/>
      <use xlink:href="#DejaVuSans-6e" x="311.580078"/>
      <use xlink:href="#DejaVuSans-20" x="374.958984"/>
      <use xlink:href="#DejaVuSans-45" x="406.746094"/>
      <use xlink:href="#DejaVuSans-72" x="469.929688"/>
      <use xlink:href="#DejaVuSans-72" x="509.292969"/>
      <use xlink:href="#DejaVuSans-6f" x="548.15625"/>
      <use xlink:href="#DejaVuSans-72" x="609.337891"/>
     </g>
    </g>
    <g id="line2d_22">
     <path d="M 536.371875 88.256563 
L 546.371875 88.256563 
L 556.371875 88.256563 
" style="fill: none; stroke: #ff0000; stroke-width: 1.5; stroke-linecap: square"/>
    </g>
    <g id="text_15">
     <!-- OptiTrack Error -->
     <g transform="translate(564.371875 91.756563)scale(0.1 -0.1)">
      <use xlink:href="#DejaVuSans-4f"/>
      <use xlink:href="#DejaVuSans-70" x="78.710938"/>
      <use xlink:href="#DejaVuSans-74" x="142.1875"/>
      <use xlink:href="#DejaVuSans-69" x="181.396484"/>
      <use xlink:href="#DejaVuSans-54" x="209.179688"/>
      <use xlink:href="#DejaVuSans-72" x="255.513672"/>
      <use xlink:href="#DejaVuSans-61" x="296.626953"/>
      <use xlink:href="#DejaVuSans-63" x="357.90625"/>
      <use xlink:href="#DejaVuSans-6b" x="412.886719"/>
      <use xlink:href="#DejaVuSans-20" x="470.796875"/>
      <use xlink:href="#DejaVuSans-45" x="502.583984"/>
      <use xlink:href="#DejaVuSans-72" x="565.767578"/>
      <use xlink:href="#DejaVuSans-72" x="605.130859"/>
      <use xlink:href="#DejaVuSans-6f" x="643.994141"/>
      <use xlink:href="#DejaVuSans-72" x="705.175781"/>
     </g>
    </g>
   </g>
  </g>
 </g>
 <defs>
  <clipPath id="pff691a7fe7">
   <rect x="90" y="60.48" width="558" height="388.08"/>
  </clipPath>
 </defs>
</svg>
