<?xml version="1.0" encoding="utf-8" standalone="no"?>
<!DOCTYPE svg PUBLIC "-//W3C//DTD SVG 1.1//EN"
  "http://www.w3.org/Graphics/SVG/1.1/DTD/svg11.dtd">
<svg xmlns:xlink="http://www.w3.org/1999/xlink" width="720pt" height="504pt" viewBox="0 0 720 504" xmlns="http://www.w3.org/2000/svg" version="1.1">
 <metadata>
  <rdf:RDF xmlns:dc="http://purl.org/dc/elements/1.1/" xmlns:cc="http://creativecommons.org/ns#" xmlns:rdf="http://www.w3.org/1999/02/22-rdf-syntax-ns#">
   <cc:Work>
    <dc:type rdf:resource="http://purl.org/dc/dcmitype/StillImage"/>
    <dc:date>2024-02-15T17:06:39.536477</dc:date>
    <dc:format>image/svg+xml</dc:format>
    <dc:creator>
     <cc:Agent>
      <dc:title>Matplotlib v3.5.1, https://matplotlib.org/</dc:title>
     </cc:Agent>
    </dc:creator>
   </cc:Work>
  </rdf:RDF>
 </metadata>
 <defs>
  <style type="text/css">*{stroke-linejoin: round; stroke-linecap: butt}</style>
 </defs>
 <g id="figure_1">
  <g id="patch_1">
   <path d="M 0 504 
L 720 504 
L 720 0 
L 0 0 
z
" style="fill: #ffffff"/>
  </g>
  <g id="axes_1">
   <g id="patch_2">
    <path d="M 90 448.56 
L 648 448.56 
L 648 60.48 
L 90 60.48 
z
" style="fill: #ffffff"/>
   </g>
   <g id="matplotlib.axis_1">
    <g id="xtick_1">
     <g id="line2d_1">
      <path d="M 164.798108 448.56 
L 164.798108 60.48 
" clip-path="url(#p85bf05dad2)" style="fill: none; stroke: #b0b0b0; stroke-width: 0.8; stroke-linecap: square"/>
     </g>
     <g id="line2d_2">
      <defs>
       <path id="m900ebb7a59" d="M 0 0 
L 0 3.5 
" style="stroke: #000000; stroke-width: 0.8"/>
      </defs>
      <g>
       <use xlink:href="#m900ebb7a59" x="164.798108" y="448.56" style="stroke: #000000; stroke-width: 0.8"/>
      </g>
     </g>
     <g id="text_1">
      <!-- 10 -->
      <g transform="translate(158.435608 463.158437)scale(0.1 -0.1)">
       <defs>
        <path id="DejaVuSans-31" d="M 794 531 
L 1825 531 
L 1825 4091 
L 703 3866 
L 703 4441 
L 1819 4666 
L 2450 4666 
L 2450 531 
L 3481 531 
L 3481 0 
L 794 0 
L 794 531 
z
" transform="scale(0.015625)"/>
        <path id="DejaVuSans-30" d="M 2034 4250 
Q 1547 4250 1301 3770 
Q 1056 3291 1056 2328 
Q 1056 1369 1301 889 
Q 1547 409 2034 409 
Q 2525 409 2770 889 
Q 3016 1369 3016 2328 
Q 3016 3291 2770 3770 
Q 2525 4250 2034 4250 
z
M 2034 4750 
Q 2819 4750 3233 4129 
Q 3647 3509 3647 2328 
Q 3647 1150 3233 529 
Q 2819 -91 2034 -91 
Q 1250 -91 836 529 
Q 422 1150 422 2328 
Q 422 3509 836 4129 
Q 1250 4750 2034 4750 
z
" transform="scale(0.015625)"/>
       </defs>
       <use xlink:href="#DejaVuSans-31"/>
       <use xlink:href="#DejaVuSans-30" x="63.623047"/>
      </g>
     </g>
    </g>
    <g id="xtick_2">
     <g id="line2d_3">
      <path d="M 265.603802 448.56 
L 265.603802 60.48 
" clip-path="url(#p85bf05dad2)" style="fill: none; stroke: #b0b0b0; stroke-width: 0.8; stroke-linecap: square"/>
     </g>
     <g id="line2d_4">
      <g>
       <use xlink:href="#m900ebb7a59" x="265.603802" y="448.56" style="stroke: #000000; stroke-width: 0.8"/>
      </g>
     </g>
     <g id="text_2">
      <!-- 20 -->
      <g transform="translate(259.241302 463.158437)scale(0.1 -0.1)">
       <defs>
        <path id="DejaVuSans-32" d="M 1228 531 
L 3431 531 
L 3431 0 
L 469 0 
L 469 531 
Q 828 903 1448 1529 
Q 2069 2156 2228 2338 
Q 2531 2678 2651 2914 
Q 2772 3150 2772 3378 
Q 2772 3750 2511 3984 
Q 2250 4219 1831 4219 
Q 1534 4219 1204 4116 
Q 875 4013 500 3803 
L 500 4441 
Q 881 4594 1212 4672 
Q 1544 4750 1819 4750 
Q 2544 4750 2975 4387 
Q 3406 4025 3406 3419 
Q 3406 3131 3298 2873 
Q 3191 2616 2906 2266 
Q 2828 2175 2409 1742 
Q 1991 1309 1228 531 
z
" transform="scale(0.015625)"/>
       </defs>
       <use xlink:href="#DejaVuSans-32"/>
       <use xlink:href="#DejaVuSans-30" x="63.623047"/>
      </g>
     </g>
    </g>
    <g id="xtick_3">
     <g id="line2d_5">
      <path d="M 366.409496 448.56 
L 366.409496 60.48 
" clip-path="url(#p85bf05dad2)" style="fill: none; stroke: #b0b0b0; stroke-width: 0.8; stroke-linecap: square"/>
     </g>
     <g id="line2d_6">
      <g>
       <use xlink:href="#m900ebb7a59" x="366.409496" y="448.56" style="stroke: #000000; stroke-width: 0.8"/>
      </g>
     </g>
     <g id="text_3">
      <!-- 30 -->
      <g transform="translate(360.046996 463.158437)scale(0.1 -0.1)">
       <defs>
        <path id="DejaVuSans-33" d="M 2597 2516 
Q 3050 2419 3304 2112 
Q 3559 1806 3559 1356 
Q 3559 666 3084 287 
Q 2609 -91 1734 -91 
Q 1441 -91 1130 -33 
Q 819 25 488 141 
L 488 750 
Q 750 597 1062 519 
Q 1375 441 1716 441 
Q 2309 441 2620 675 
Q 2931 909 2931 1356 
Q 2931 1769 2642 2001 
Q 2353 2234 1838 2234 
L 1294 2234 
L 1294 2753 
L 1863 2753 
Q 2328 2753 2575 2939 
Q 2822 3125 2822 3475 
Q 2822 3834 2567 4026 
Q 2313 4219 1838 4219 
Q 1578 4219 1281 4162 
Q 984 4106 628 3988 
L 628 4550 
Q 988 4650 1302 4700 
Q 1616 4750 1894 4750 
Q 2613 4750 3031 4423 
Q 3450 4097 3450 3541 
Q 3450 3153 3228 2886 
Q 3006 2619 2597 2516 
z
" transform="scale(0.015625)"/>
       </defs>
       <use xlink:href="#DejaVuSans-33"/>
       <use xlink:href="#DejaVuSans-30" x="63.623047"/>
      </g>
     </g>
    </g>
    <g id="xtick_4">
     <g id="line2d_7">
      <path d="M 467.21519 448.56 
L 467.21519 60.48 
" clip-path="url(#p85bf05dad2)" style="fill: none; stroke: #b0b0b0; stroke-width: 0.8; stroke-linecap: square"/>
     </g>
     <g id="line2d_8">
      <g>
       <use xlink:href="#m900ebb7a59" x="467.21519" y="448.56" style="stroke: #000000; stroke-width: 0.8"/>
      </g>
     </g>
     <g id="text_4">
      <!-- 40 -->
      <g transform="translate(460.85269 463.158437)scale(0.1 -0.1)">
       <defs>
        <path id="DejaVuSans-34" d="M 2419 4116 
L 825 1625 
L 2419 1625 
L 2419 4116 
z
M 2253 4666 
L 3047 4666 
L 3047 1625 
L 3713 1625 
L 3713 1100 
L 3047 1100 
L 3047 0 
L 2419 0 
L 2419 1100 
L 313 1100 
L 313 1709 
L 2253 4666 
z
" transform="scale(0.015625)"/>
       </defs>
       <use xlink:href="#DejaVuSans-34"/>
       <use xlink:href="#DejaVuSans-30" x="63.623047"/>
      </g>
     </g>
    </g>
    <g id="xtick_5">
     <g id="line2d_9">
      <path d="M 568.020884 448.56 
L 568.020884 60.48 
" clip-path="url(#p85bf05dad2)" style="fill: none; stroke: #b0b0b0; stroke-width: 0.8; stroke-linecap: square"/>
     </g>
     <g id="line2d_10">
      <g>
       <use xlink:href="#m900ebb7a59" x="568.020884" y="448.56" style="stroke: #000000; stroke-width: 0.8"/>
      </g>
     </g>
     <g id="text_5">
      <!-- 50 -->
      <g transform="translate(561.658384 463.158437)scale(0.1 -0.1)">
       <defs>
        <path id="DejaVuSans-35" d="M 691 4666 
L 3169 4666 
L 3169 4134 
L 1269 4134 
L 1269 2991 
Q 1406 3038 1543 3061 
Q 1681 3084 1819 3084 
Q 2600 3084 3056 2656 
Q 3513 2228 3513 1497 
Q 3513 744 3044 326 
Q 2575 -91 1722 -91 
Q 1428 -91 1123 -41 
Q 819 9 494 109 
L 494 744 
Q 775 591 1075 516 
Q 1375 441 1709 441 
Q 2250 441 2565 725 
Q 2881 1009 2881 1497 
Q 2881 1984 2565 2268 
Q 2250 2553 1709 2553 
Q 1456 2553 1204 2497 
Q 953 2441 691 2322 
L 691 4666 
z
" transform="scale(0.015625)"/>
       </defs>
       <use xlink:href="#DejaVuSans-35"/>
       <use xlink:href="#DejaVuSans-30" x="63.623047"/>
      </g>
     </g>
    </g>
    <g id="text_6">
     <!-- Time (s) -->
     <g transform="translate(348.671094 476.836563)scale(0.1 -0.1)">
      <defs>
       <path id="DejaVuSans-54" d="M -19 4666 
L 3928 4666 
L 3928 4134 
L 2272 4134 
L 2272 0 
L 1638 0 
L 1638 4134 
L -19 4134 
L -19 4666 
z
" transform="scale(0.015625)"/>
       <path id="DejaVuSans-69" d="M 603 3500 
L 1178 3500 
L 1178 0 
L 603 0 
L 603 3500 
z
M 603 4863 
L 1178 4863 
L 1178 4134 
L 603 4134 
L 603 4863 
z
" transform="scale(0.015625)"/>
       <path id="DejaVuSans-6d" d="M 3328 2828 
Q 3544 3216 3844 3400 
Q 4144 3584 4550 3584 
Q 5097 3584 5394 3201 
Q 5691 2819 5691 2113 
L 5691 0 
L 5113 0 
L 5113 2094 
Q 5113 2597 4934 2840 
Q 4756 3084 4391 3084 
Q 3944 3084 3684 2787 
Q 3425 2491 3425 1978 
L 3425 0 
L 2847 0 
L 2847 2094 
Q 2847 2600 2669 2842 
Q 2491 3084 2119 3084 
Q 1678 3084 1418 2786 
Q 1159 2488 1159 1978 
L 1159 0 
L 581 0 
L 581 3500 
L 1159 3500 
L 1159 2956 
Q 1356 3278 1631 3431 
Q 1906 3584 2284 3584 
Q 2666 3584 2933 3390 
Q 3200 3197 3328 2828 
z
" transform="scale(0.015625)"/>
       <path id="DejaVuSans-65" d="M 3597 1894 
L 3597 1613 
L 953 1613 
Q 991 1019 1311 708 
Q 1631 397 2203 397 
Q 2534 397 2845 478 
Q 3156 559 3463 722 
L 3463 178 
Q 3153 47 2828 -22 
Q 2503 -91 2169 -91 
Q 1331 -91 842 396 
Q 353 884 353 1716 
Q 353 2575 817 3079 
Q 1281 3584 2069 3584 
Q 2775 3584 3186 3129 
Q 3597 2675 3597 1894 
z
M 3022 2063 
Q 3016 2534 2758 2815 
Q 2500 3097 2075 3097 
Q 1594 3097 1305 2825 
Q 1016 2553 972 2059 
L 3022 2063 
z
" transform="scale(0.015625)"/>
       <path id="DejaVuSans-20" transform="scale(0.015625)"/>
       <path id="DejaVuSans-28" d="M 1984 4856 
Q 1566 4138 1362 3434 
Q 1159 2731 1159 2009 
Q 1159 1288 1364 580 
Q 1569 -128 1984 -844 
L 1484 -844 
Q 1016 -109 783 600 
Q 550 1309 550 2009 
Q 550 2706 781 3412 
Q 1013 4119 1484 4856 
L 1984 4856 
z
" transform="scale(0.015625)"/>
       <path id="DejaVuSans-73" d="M 2834 3397 
L 2834 2853 
Q 2591 2978 2328 3040 
Q 2066 3103 1784 3103 
Q 1356 3103 1142 2972 
Q 928 2841 928 2578 
Q 928 2378 1081 2264 
Q 1234 2150 1697 2047 
L 1894 2003 
Q 2506 1872 2764 1633 
Q 3022 1394 3022 966 
Q 3022 478 2636 193 
Q 2250 -91 1575 -91 
Q 1294 -91 989 -36 
Q 684 19 347 128 
L 347 722 
Q 666 556 975 473 
Q 1284 391 1588 391 
Q 1994 391 2212 530 
Q 2431 669 2431 922 
Q 2431 1156 2273 1281 
Q 2116 1406 1581 1522 
L 1381 1569 
Q 847 1681 609 1914 
Q 372 2147 372 2553 
Q 372 3047 722 3315 
Q 1072 3584 1716 3584 
Q 2034 3584 2315 3537 
Q 2597 3491 2834 3397 
z
" transform="scale(0.015625)"/>
       <path id="DejaVuSans-29" d="M 513 4856 
L 1013 4856 
Q 1481 4119 1714 3412 
Q 1947 2706 1947 2009 
Q 1947 1309 1714 600 
Q 1481 -109 1013 -844 
L 513 -844 
Q 928 -128 1133 580 
Q 1338 1288 1338 2009 
Q 1338 2731 1133 3434 
Q 928 4138 513 4856 
z
" transform="scale(0.015625)"/>
      </defs>
      <use xlink:href="#DejaVuSans-54"/>
      <use xlink:href="#DejaVuSans-69" x="57.958984"/>
      <use xlink:href="#DejaVuSans-6d" x="85.742188"/>
      <use xlink:href="#DejaVuSans-65" x="183.154297"/>
      <use xlink:href="#DejaVuSans-20" x="244.677734"/>
      <use xlink:href="#DejaVuSans-28" x="276.464844"/>
      <use xlink:href="#DejaVuSans-73" x="315.478516"/>
      <use xlink:href="#DejaVuSans-29" x="367.578125"/>
     </g>
    </g>
   </g>
   <g id="matplotlib.axis_2">
    <g id="ytick_1">
     <g id="line2d_11">
      <path d="M 90 430.339922 
L 648 430.339922 
" clip-path="url(#p85bf05dad2)" style="fill: none; stroke: #b0b0b0; stroke-width: 0.8; stroke-linecap: square"/>
     </g>
     <g id="line2d_12">
      <defs>
       <path id="m59e4f4ac65" d="M 0 0 
L -3.5 0 
" style="stroke: #000000; stroke-width: 0.8"/>
      </defs>
      <g>
       <use xlink:href="#m59e4f4ac65" x="90" y="430.339922" style="stroke: #000000; stroke-width: 0.8"/>
      </g>
     </g>
     <g id="text_7">
      <!-- −0.3 -->
      <g transform="translate(58.717187 434.139141)scale(0.1 -0.1)">
       <defs>
        <path id="DejaVuSans-2212" d="M 678 2272 
L 4684 2272 
L 4684 1741 
L 678 1741 
L 678 2272 
z
" transform="scale(0.015625)"/>
        <path id="DejaVuSans-2e" d="M 684 794 
L 1344 794 
L 1344 0 
L 684 0 
L 684 794 
z
" transform="scale(0.015625)"/>
       </defs>
       <use xlink:href="#DejaVuSans-2212"/>
       <use xlink:href="#DejaVuSans-30" x="83.789062"/>
       <use xlink:href="#DejaVuSans-2e" x="147.412109"/>
       <use xlink:href="#DejaVuSans-33" x="179.199219"/>
      </g>
     </g>
    </g>
    <g id="ytick_2">
     <g id="line2d_13">
      <path d="M 90 372.930565 
L 648 372.930565 
" clip-path="url(#p85bf05dad2)" style="fill: none; stroke: #b0b0b0; stroke-width: 0.8; stroke-linecap: square"/>
     </g>
     <g id="line2d_14">
      <g>
       <use xlink:href="#m59e4f4ac65" x="90" y="372.930565" style="stroke: #000000; stroke-width: 0.8"/>
      </g>
     </g>
     <g id="text_8">
      <!-- −0.2 -->
      <g transform="translate(58.717187 376.729784)scale(0.1 -0.1)">
       <use xlink:href="#DejaVuSans-2212"/>
       <use xlink:href="#DejaVuSans-30" x="83.789062"/>
       <use xlink:href="#DejaVuSans-2e" x="147.412109"/>
       <use xlink:href="#DejaVuSans-32" x="179.199219"/>
      </g>
     </g>
    </g>
    <g id="ytick_3">
     <g id="line2d_15">
      <path d="M 90 315.521208 
L 648 315.521208 
" clip-path="url(#p85bf05dad2)" style="fill: none; stroke: #b0b0b0; stroke-width: 0.8; stroke-linecap: square"/>
     </g>
     <g id="line2d_16">
      <g>
       <use xlink:href="#m59e4f4ac65" x="90" y="315.521208" style="stroke: #000000; stroke-width: 0.8"/>
      </g>
     </g>
     <g id="text_9">
      <!-- −0.1 -->
      <g transform="translate(58.717187 319.320427)scale(0.1 -0.1)">
       <use xlink:href="#DejaVuSans-2212"/>
       <use xlink:href="#DejaVuSans-30" x="83.789062"/>
       <use xlink:href="#DejaVuSans-2e" x="147.412109"/>
       <use xlink:href="#DejaVuSans-31" x="179.199219"/>
      </g>
     </g>
    </g>
    <g id="ytick_4">
     <g id="line2d_17">
      <path d="M 90 258.111851 
L 648 258.111851 
" clip-path="url(#p85bf05dad2)" style="fill: none; stroke: #b0b0b0; stroke-width: 0.8; stroke-linecap: square"/>
     </g>
     <g id="line2d_18">
      <g>
       <use xlink:href="#m59e4f4ac65" x="90" y="258.111851" style="stroke: #000000; stroke-width: 0.8"/>
      </g>
     </g>
     <g id="text_10">
      <!-- 0.0 -->
      <g transform="translate(67.096875 261.91107)scale(0.1 -0.1)">
       <use xlink:href="#DejaVuSans-30"/>
       <use xlink:href="#DejaVuSans-2e" x="63.623047"/>
       <use xlink:href="#DejaVuSans-30" x="95.410156"/>
      </g>
     </g>
    </g>
    <g id="ytick_5">
     <g id="line2d_19">
      <path d="M 90 200.702494 
L 648 200.702494 
" clip-path="url(#p85bf05dad2)" style="fill: none; stroke: #b0b0b0; stroke-width: 0.8; stroke-linecap: square"/>
     </g>
     <g id="line2d_20">
      <g>
       <use xlink:href="#m59e4f4ac65" x="90" y="200.702494" style="stroke: #000000; stroke-width: 0.8"/>
      </g>
     </g>
     <g id="text_11">
      <!-- 0.1 -->
      <g transform="translate(67.096875 204.501713)scale(0.1 -0.1)">
       <use xlink:href="#DejaVuSans-30"/>
       <use xlink:href="#DejaVuSans-2e" x="63.623047"/>
       <use xlink:href="#DejaVuSans-31" x="95.410156"/>
      </g>
     </g>
    </g>
    <g id="ytick_6">
     <g id="line2d_21">
      <path d="M 90 143.293137 
L 648 143.293137 
" clip-path="url(#p85bf05dad2)" style="fill: none; stroke: #b0b0b0; stroke-width: 0.8; stroke-linecap: square"/>
     </g>
     <g id="line2d_22">
      <g>
       <use xlink:href="#m59e4f4ac65" x="90" y="143.293137" style="stroke: #000000; stroke-width: 0.8"/>
      </g>
     </g>
     <g id="text_12">
      <!-- 0.2 -->
      <g transform="translate(67.096875 147.092355)scale(0.1 -0.1)">
       <use xlink:href="#DejaVuSans-30"/>
       <use xlink:href="#DejaVuSans-2e" x="63.623047"/>
       <use xlink:href="#DejaVuSans-32" x="95.410156"/>
      </g>
     </g>
    </g>
    <g id="ytick_7">
     <g id="line2d_23">
      <path d="M 90 85.88378 
L 648 85.88378 
" clip-path="url(#p85bf05dad2)" style="fill: none; stroke: #b0b0b0; stroke-width: 0.8; stroke-linecap: square"/>
     </g>
     <g id="line2d_24">
      <g>
       <use xlink:href="#m59e4f4ac65" x="90" y="85.88378" style="stroke: #000000; stroke-width: 0.8"/>
      </g>
     </g>
     <g id="text_13">
      <!-- 0.3 -->
      <g transform="translate(67.096875 89.682998)scale(0.1 -0.1)">
       <use xlink:href="#DejaVuSans-30"/>
       <use xlink:href="#DejaVuSans-2e" x="63.623047"/>
       <use xlink:href="#DejaVuSans-33" x="95.410156"/>
      </g>
     </g>
    </g>
    <g id="text_14">
     <!-- Error (Y) -->
     <g transform="translate(52.6375 275.249688)rotate(-90)scale(0.1 -0.1)">
      <defs>
       <path id="DejaVuSans-45" d="M 628 4666 
L 3578 4666 
L 3578 4134 
L 1259 4134 
L 1259 2753 
L 3481 2753 
L 3481 2222 
L 1259 2222 
L 1259 531 
L 3634 531 
L 3634 0 
L 628 0 
L 628 4666 
z
" transform="scale(0.015625)"/>
       <path id="DejaVuSans-72" d="M 2631 2963 
Q 2534 3019 2420 3045 
Q 2306 3072 2169 3072 
Q 1681 3072 1420 2755 
Q 1159 2438 1159 1844 
L 1159 0 
L 581 0 
L 581 3500 
L 1159 3500 
L 1159 2956 
Q 1341 3275 1631 3429 
Q 1922 3584 2338 3584 
Q 2397 3584 2469 3576 
Q 2541 3569 2628 3553 
L 2631 2963 
z
" transform="scale(0.015625)"/>
       <path id="DejaVuSans-6f" d="M 1959 3097 
Q 1497 3097 1228 2736 
Q 959 2375 959 1747 
Q 959 1119 1226 758 
Q 1494 397 1959 397 
Q 2419 397 2687 759 
Q 2956 1122 2956 1747 
Q 2956 2369 2687 2733 
Q 2419 3097 1959 3097 
z
M 1959 3584 
Q 2709 3584 3137 3096 
Q 3566 2609 3566 1747 
Q 3566 888 3137 398 
Q 2709 -91 1959 -91 
Q 1206 -91 779 398 
Q 353 888 353 1747 
Q 353 2609 779 3096 
Q 1206 3584 1959 3584 
z
" transform="scale(0.015625)"/>
       <path id="DejaVuSans-59" d="M -13 4666 
L 666 4666 
L 1959 2747 
L 3244 4666 
L 3922 4666 
L 2272 2222 
L 2272 0 
L 1638 0 
L 1638 2222 
L -13 4666 
z
" transform="scale(0.015625)"/>
      </defs>
      <use xlink:href="#DejaVuSans-45"/>
      <use xlink:href="#DejaVuSans-72" x="63.183594"/>
      <use xlink:href="#DejaVuSans-72" x="102.546875"/>
      <use xlink:href="#DejaVuSans-6f" x="141.410156"/>
      <use xlink:href="#DejaVuSans-72" x="202.591797"/>
      <use xlink:href="#DejaVuSans-20" x="243.705078"/>
      <use xlink:href="#DejaVuSans-28" x="275.492188"/>
      <use xlink:href="#DejaVuSans-59" x="314.505859"/>
      <use xlink:href="#DejaVuSans-29" x="375.589844"/>
     </g>
    </g>
   </g>
   <g id="line2d_25">
    <path d="M 115.363636 180.670895 
L 116.018369 175.28424 
L 116.691714 167.138816 
L 117.026574 164.52654 
L 117.367904 159.797245 
L 117.747468 161.464303 
L 118.678557 150.86978 
L 119.040605 149.023595 
L 119.098089 151.326276 
L 119.689363 145.154951 
L 119.916695 150.561651 
L 120.588204 147.597022 
L 121.228074 135.909766 
L 121.536045 141.860172 
L 121.951847 135.642795 
L 122.457531 123.192364 
L 122.836763 121.516977 
L 122.980005 126.325168 
L 123.279127 127.199973 
L 123.625461 126.329096 
L 123.951726 128.947475 
L 124.842785 117.052124 
L 125.086898 120.315144 
L 125.337678 115.735021 
L 125.633853 114.977479 
L 125.96866 114.837699 
L 126.643779 107.699679 
L 126.981398 106.113004 
L 127.317739 105.066656 
L 127.653733 111.158324 
L 127.989891 106.079118 
L 128.326223 105.969122 
L 128.662275 114.93013 
L 129.35625 103.078477 
L 129.664529 104.203088 
L 130.008291 103.78126 
L 130.339181 109.413993 
L 130.713149 103.634793 
L 131.018482 105.380404 
L 131.355212 108.901204 
L 131.691788 108.705813 
L 132.270521 111.883623 
L 132.451006 116.14241 
L 132.948557 110.068011 
L 133.177773 117.453682 
L 133.493185 117.505954 
L 134.062963 119.531566 
L 134.540325 113.19159 
L 134.719508 121.668282 
L 135.098374 116.503618 
L 135.392372 120.569505 
L 135.832857 117.414722 
L 136.049528 117.651683 
L 136.385229 116.512736 
L 137.058035 117.239289 
L 137.41243 118.470985 
L 138.085323 118.993999 
L 138.421856 123.291077 
L 139.296346 125.316479 
L 139.661066 125.385191 
L 140.191068 124.523388 
L 140.597842 129.510532 
L 141.074988 125.44324 
L 141.20095 126.199311 
L 141.537699 127.299978 
L 141.873223 127.70097 
L 142.226782 133.862295 
L 143.05528 136.239157 
L 143.460555 134.615434 
L 143.552874 136.784568 
L 143.713253 137.238784 
L 144.744372 146.730472 
L 145.108774 149.246901 
L 145.30468 149.208174 
L 145.90598 155.097751 
L 146.706176 168.29168 
L 147.747942 172.54773 
L 147.770448 173.639133 
L 147.922621 174.559064 
L 148.658771 186.548979 
L 149.700038 196.83639 
L 151.074203 212.887825 
L 151.283356 215.198279 
L 151.954768 225.678966 
L 152.459846 229.728457 
L 153.125914 239.784186 
L 153.660179 239.518711 
L 154.248395 249.553636 
L 154.609674 250.991435 
L 154.967434 253.628856 
L 155.853681 254.526844 
L 156.616739 270.662195 
L 156.985622 275.874416 
L 157.200255 275.632599 
L 157.541796 278.470907 
L 157.881271 284.744925 
L 158.214324 284.237124 
L 158.544435 285.775566 
L 158.92794 285.993149 
L 159.553486 295.583995 
L 159.951258 300.816712 
L 160.560941 293.28999 
L 161.298014 312.448615 
L 161.744306 316.416446 
L 162.153056 324.685509 
L 162.382994 324.765209 
L 163.452197 334.883112 
L 163.630759 333.493035 
L 164.465853 341.115624 
L 164.685754 345.486827 
L 164.91995 346.090784 
L 165.080612 348.763224 
L 165.365818 346.572396 
L 165.669694 352.882314 
L 166.008303 355.611776 
L 166.342548 353.13431 
L 166.677524 361.881982 
L 167.020806 364.424947 
L 167.351628 358.293028 
L 167.918224 369.103414 
L 168.366457 365.524344 
L 169.186015 376.355718 
L 169.370701 375.049073 
L 169.701283 379.914983 
L 170.049362 379.077221 
L 170.379868 383.784429 
L 170.721861 384.990121 
L 171.058154 383.507331 
L 171.384073 390.156592 
L 171.731787 385.983312 
L 172.529906 396.346786 
L 172.726139 398.104361 
L 173.401945 398.585548 
L 173.827297 387.483144 
L 174.440836 406.785978 
L 174.741049 405.616446 
L 175.096194 396.350045 
L 175.970328 406.398303 
L 176.64298 417.723022 
L 176.778551 413.683201 
L 177.14056 410.790488 
L 178.320954 420.059087 
L 178.816534 422.909945 
L 179.144943 421.764202 
L 179.370959 426.02539 
L 180.117174 424.803753 
L 180.369992 428.151007 
L 180.687135 425.981954 
L 181.028157 429.547878 
L 181.359682 425.858865 
L 181.692148 427.589332 
L 182.020461 428.317014 
L 182.360648 425.772282 
L 182.730549 427.135406 
L 183.044654 426.253142 
L 183.411143 424.735812 
L 183.722382 422.957298 
L 184.037112 424.349632 
L 185.046153 420.085595 
L 186.07273 409.268394 
L 186.731327 400.569004 
L 187.101729 394.780237 
L 187.652222 388.86903 
L 188.201888 384.931762 
L 188.548957 381.398818 
L 189.009246 372.822529 
L 190.742488 360.33293 
L 190.907197 355.869131 
L 191.510449 351.291576 
L 191.805134 347.579233 
L 192.323037 343.727457 
L 193.336136 332.571084 
L 193.705903 327.262173 
L 194.004491 324.902624 
L 195.679955 304.337021 
L 196.109413 295.881597 
L 196.620981 290.086947 
L 197.297104 285.368602 
L 197.950471 277.012525 
L 198.100347 276.906704 
L 198.233178 279.10668 
L 198.980019 266.742275 
L 199.104005 267.024055 
L 199.363658 262.768121 
L 200.38637 254.499808 
L 200.722653 250.040079 
L 201.06829 249.970297 
L 201.442249 244.263274 
L 201.74226 244.274482 
L 202.072919 243.390243 
L 202.746523 236.02929 
L 203.163637 228.943185 
L 203.411821 239.759646 
L 204.119746 224.63782 
L 204.34505 224.230759 
L 204.454347 223.677497 
L 204.762299 218.100798 
L 205.204639 219.868841 
L 205.734991 209.715832 
L 205.982493 210.305545 
L 206.286503 207.208736 
L 206.479582 209.489836 
L 207.121548 202.681033 
L 207.444632 199.211262 
L 207.802295 201.284142 
L 208.468189 190.602118 
L 208.786678 190.435218 
L 209.128383 188.909638 
L 209.797892 182.391806 
L 210.17882 183.042674 
L 210.802934 173.526114 
L 211.150003 172.96284 
L 211.598121 168.637803 
L 212.086068 168.541222 
L 212.39501 163.309034 
L 214.173157 152.365156 
L 214.589492 151.112939 
L 214.835292 146.522208 
L 215.172114 144.671984 
L 215.844122 140.080528 
L 216.204689 151.143271 
L 216.704768 134.369101 
L 216.857836 133.983687 
L 217.190735 131.086833 
L 217.636103 141.111892 
L 218.254324 124.329677 
L 218.345451 126.971389 
L 218.602162 125.873417 
L 218.875601 127.675177 
L 219.203444 120.463225 
L 219.539756 118.081619 
L 219.929154 126.938466 
L 220.660911 130.621133 
L 221.460866 116.348521 
L 221.801216 116.044319 
L 222.138162 109.843546 
L 222.472667 108.232583 
L 222.806835 109.572492 
L 223.147136 108.79702 
L 223.479093 108.422403 
L 223.849091 111.788612 
L 224.545258 116.320252 
L 225.099722 115.515342 
L 225.443571 110.460534 
L 225.891583 109.807422 
L 226.563995 105.904984 
L 226.906681 107.853519 
L 227.242752 108.871675 
L 227.573267 109.108272 
L 228.582289 108.339418 
L 228.918457 114.967242 
L 229.460547 109.879665 
L 229.79833 108.103944 
L 229.926152 115.538753 
L 230.279221 113.899652 
L 230.60018 111.637132 
L 230.934694 114.598056 
L 231.272707 120.199404 
L 231.913318 121.266932 
L 232.283056 132.722134 
L 233.261045 132.681859 
L 233.622651 139.443803 
L 234.187468 141.659297 
L 235.012005 145.99199 
L 235.970383 155.773848 
L 236.287727 157.930337 
L 236.960044 168.709171 
L 238.991355 186.818977 
L 240.675654 204.869093 
L 241.03524 211.082384 
L 242.640593 225.325795 
L 243.105871 228.140082 
L 243.66467 236.868721 
L 244.004375 237.789672 
L 244.623394 247.981876 
L 245.313495 251.116601 
L 245.637569 255.870982 
L 246.196079 256.168302 
L 247.410351 272.93231 
L 247.766034 273.609699 
L 248.480958 285.30225 
L 248.767039 285.959526 
L 249.104879 289.854629 
L 249.42853 292.294496 
L 249.893078 296.786756 
L 250.567624 307.12574 
L 251.279683 309.983678 
L 251.669013 313.650346 
L 251.953864 312.594695 
L 252.489513 320.477709 
L 252.829507 315.380203 
L 253.183998 322.266977 
L 253.35239 328.402226 
L 253.730492 328.662406 
L 254.4677 336.060818 
L 254.871278 333.183544 
L 255.74148 344.189686 
L 255.948864 341.781469 
L 256.365305 348.009972 
L 256.552404 346.255654 
L 257.017336 354.479169 
L 257.37302 351.888875 
L 258.34851 365.382311 
L 258.676813 362.483194 
L 259.015558 352.114332 
L 259.586373 373.518019 
L 260.094163 375.878951 
L 260.264996 373.327494 
L 260.590339 380.349534 
L 260.774131 377.801607 
L 261.143889 384.044886 
L 261.49986 385.431528 
L 261.7014 382.735036 
L 262.152392 392.378949 
L 262.371716 392.174327 
L 262.718113 392.209164 
L 263.402619 401.29173 
L 263.714618 399.719594 
L 264.064725 405.0736 
L 264.41191 405.98667 
L 264.725582 407.648509 
L 265.059096 405.6958 
L 265.644909 408.805314 
L 266.049449 413.662772 
L 266.536377 410.917793 
L 267.116748 414.363318 
L 267.621077 416.648445 
L 268.528618 427.397912 
L 268.866362 428.285279 
L 269.209029 426.003372 
L 269.540986 420.989313 
L 270.274233 428.0961 
L 270.602902 429.029923 
L 270.882657 430.92 
L 271.220805 427.415114 
L 271.55455 430.235388 
L 272.226597 428.88531 
L 272.564803 427.010064 
L 273.235869 421.717428 
L 273.570576 424.070056 
L 273.90682 423.079079 
L 274.244699 421.343279 
L 274.590192 416.459744 
L 274.929051 416.281209 
L 275.923019 409.085437 
L 277.041328 394.387848 
L 277.424564 391.568226 
L 277.713606 392.103795 
L 277.990861 389.875511 
L 278.281557 388.917971 
L 278.611956 385.584413 
L 278.970773 377.946014 
L 279.520786 370.834314 
L 279.903906 369.148886 
L 280.19837 367.250249 
L 280.626943 361.336726 
L 280.963111 359.412187 
L 283.31715 331.004307 
L 283.652299 328.239887 
L 285.527389 304.624072 
L 285.756365 304.279688 
L 286.340967 296.808881 
L 286.79417 294.107417 
L 287.640646 284.175645 
L 287.845608 285.667147 
L 288.324537 278.578392 
L 288.520769 273.117137 
L 289.516929 265.635452 
L 289.879476 266.990262 
L 290.233044 264.10725 
L 290.641717 256.300786 
L 290.861522 256.824644 
L 291.428301 245.840576 
L 291.840377 245.708883 
L 292.280506 241.229528 
L 292.791564 238.012428 
L 293.081221 238.621773 
L 294.400377 215.594315 
L 294.738064 216.005049 
L 295.072866 209.99259 
L 295.408534 206.627314 
L 295.746971 205.734702 
L 296.416403 200.014124 
L 296.992948 188.883513 
L 297.336711 189.351823 
L 297.779185 177.729979 
L 298.134869 180.481752 
L 298.432909 172.71871 
L 298.768557 168.755002 
L 299.10486 166.329016 
L 299.45389 160.683892 
L 299.798518 163.68748 
L 300.130206 162.576978 
L 300.457779 158.328305 
L 301.80543 147.382369 
L 302.151826 140.843149 
L 302.498588 145.742999 
L 302.850907 140.133742 
L 303.474847 133.475181 
L 303.811861 133.304533 
L 304.592387 134.357016 
L 305.267934 123.117061 
L 305.573472 132.136743 
L 306.337137 119.240455 
L 307.371539 115.757229 
L 307.44241 117.4613 
L 307.966773 109.005873 
L 308.021955 109.096433 
L 308.356777 104.570469 
L 308.70102 102.880142 
L 309.037418 105.674091 
L 309.379066 99.490337 
L 309.720521 113.492157 
L 310.283742 98.75051 
L 310.540809 98.717919 
L 310.865056 99.429935 
L 311.071248 96.560924 
L 311.431873 96.262343 
L 311.724376 95.305788 
L 312.062889 90.593125 
L 312.398307 93.192302 
L 313.065182 86.266036 
L 313.44488 86.827334 
L 313.739344 83.275808 
L 314.069993 81.765906 
L 314.455613 83.817118 
L 315.079284 79.424012 
L 315.413491 78.839854 
L 315.784517 81.729176 
L 316.123531 81.322512 
L 316.437068 78.12 
L 316.837743 81.151192 
L 317.100405 86.454975 
L 317.437188 87.933045 
L 317.802889 84.965938 
L 318.280645 86.264187 
L 318.450132 89.399646 
L 318.779282 85.711323 
L 319.116411 87.216181 
L 319.448234 93.046046 
L 320.128625 92.153809 
L 320.469234 94.130023 
L 320.802575 98.488818 
L 321.295964 107.59254 
L 321.78093 103.510796 
L 322.343805 118.691419 
L 323.152596 122.3695 
L 323.803589 127.101423 
L 324.071808 126.759554 
L 324.211628 133.183139 
L 324.641566 141.049713 
L 325.240839 141.238491 
L 325.510288 145.537252 
L 326.515907 157.055125 
L 326.852671 165.077716 
L 327.191684 166.142724 
L 327.86475 179.996023 
L 328.342141 181.37216 
L 329.228398 193.733268 
L 329.556702 200.469216 
L 329.878276 202.572602 
L 330.212309 205.819802 
L 330.606024 212.100838 
L 331.338348 219.14441 
L 331.712701 226.113859 
L 331.926891 225.897283 
L 332.582691 234.651618 
L 332.931741 238.154124 
L 333.323379 243.418864 
L 333.628918 245.719325 
L 334.025959 250.615757 
L 334.279757 250.943328 
L 334.946555 261.156753 
L 335.27632 262.749459 
L 335.59228 268.305233 
L 337.395173 287.234011 
L 339.076549 305.648292 
L 339.441712 306.9768 
L 339.766804 309.289149 
L 340.085918 316.442783 
L 340.420336 319.556041 
L 340.832201 320.884023 
L 341.090825 325.69256 
L 341.429146 325.825262 
L 341.76416 331.667732 
L 342.440379 337.2685 
L 342.792948 338.568897 
L 343.107485 342.418683 
L 343.476089 342.787635 
L 343.77884 347.664646 
L 344.114815 350.124987 
L 344.45329 348.350358 
L 344.789131 355.331117 
L 346.132379 365.863878 
L 346.469739 369.968256 
L 346.807617 372.285889 
L 347.143401 372.009849 
L 347.559938 375.843937 
L 347.818428 375.736641 
L 348.152423 374.986438 
L 348.653156 376.867252 
L 349.281326 388.465478 
L 349.704862 398.926022 
L 350.33732 396.751439 
L 350.666547 402.981861 
L 350.8354 404.094516 
L 351.171914 395.962715 
L 351.5121 405.238796 
L 351.849171 401.561552 
L 352.531505 412.794625 
L 353.566887 409.028864 
L 353.914072 410.611399 
L 354.387579 417.876265 
L 354.576909 418.237864 
L 354.913365 416.282043 
L 355.389064 420.671964 
L 355.921003 422.4859 
L 356.257248 419.331492 
L 356.768652 422.119621 
L 357.107319 429.204984 
L 357.495438 427.518722 
L 357.676539 427.359295 
L 357.959024 428.54414 
L 358.273734 426.332768 
L 358.609518 426.97762 
L 358.974622 428.582047 
L 359.454051 429.647475 
L 359.619174 422.87184 
L 360.099853 426.599628 
L 360.289375 426.943639 
L 360.682167 428.444685 
L 361.029486 425.122837 
L 361.478768 422.152765 
L 361.77477 423.519801 
L 361.99071 423.481762 
L 362.313245 420.267657 
L 362.691405 420.4098 
L 362.978928 418.804871 
L 363.314 420.911416 
L 363.65036 415.47798 
L 363.988566 416.982688 
L 364.321638 411.954621 
L 364.658228 404.575392 
L 365.199761 404.268151 
L 365.470211 399.266922 
L 365.712127 402.093824 
L 366.005072 395.765395 
L 366.381347 396.701495 
L 366.674638 387.765597 
L 367.3498 385.499083 
L 368.018982 378.377756 
L 368.367167 362.635055 
L 369.446907 361.434888 
L 369.860387 355.631364 
L 370.206706 354.131218 
L 370.45689 347.904272 
L 371.003037 339.844791 
L 371.579641 333.356946 
L 371.934286 332.396679 
L 373.156556 316.461092 
L 376.551573 273.932143 
L 377.513027 264.163388 
L 378.186112 257.197256 
L 378.526779 257.350332 
L 378.874195 250.271448 
L 379.21142 246.919084 
L 379.534071 246.794227 
L 380.217289 240.917326 
L 380.537786 239.047354 
L 380.873416 235.532056 
L 381.2236 230.162143 
L 381.616276 229.170776 
L 381.882303 225.49319 
L 382.89221 216.481097 
L 383.225128 213.41343 
L 383.640069 207.327039 
L 383.898598 206.461063 
L 384.570106 199.26173 
L 384.907216 198.968791 
L 385.241653 193.222773 
L 385.609546 190.266158 
L 385.991878 182.146581 
L 386.502282 177.137848 
L 386.801399 177.639354 
L 386.928106 172.858449 
L 387.262236 172.852239 
L 387.597711 166.52782 
L 387.932764 167.821396 
L 388.612944 158.861729 
L 388.978837 157.071237 
L 389.273512 149.158979 
L 389.609603 149.214925 
L 389.951077 150.470836 
L 390.292167 144.551164 
L 390.709473 145.567066 
L 391.783579 131.939012 
L 393.311062 119.313864 
L 393.642653 118.605112 
L 393.97859 117.508547 
L 395.006359 110.926392 
L 395.336912 114.52008 
L 395.738222 115.08809 
L 396.670277 105.1732 
L 397.002869 105.947495 
L 397.339037 105.452838 
L 398.011526 104.049415 
L 398.346694 102.421301 
L 398.693705 105.189686 
L 399.017952 101.904074 
L 400.362584 99.063152 
L 400.701521 98.533069 
L 401.038188 97.580598 
L 401.370357 96.169026 
L 401.707793 95.98251 
L 402.045999 94.857881 
L 402.378629 94.284307 
L 402.722488 94.576208 
L 403.132911 89.869628 
L 403.386555 91.172168 
L 403.7233 90.432046 
L 404.062428 94.770255 
L 404.471582 94.801514 
L 404.75303 90.905557 
L 405.128921 95.279876 
L 405.638709 86.631502 
L 406.150498 90.146291 
L 406.56815 88.430913 
L 406.846214 89.919257 
L 407.176959 89.959969 
L 407.591343 89.496026 
L 407.888441 92.475711 
L 408.470639 92.917008 
L 408.808422 91.027924 
L 409.144436 94.710325 
L 409.484795 96.119939 
L 409.819771 98.419232 
L 410.15267 97.808721 
L 410.488645 103.445089 
L 410.831389 105.09223 
L 411.182361 111.63971 
L 411.504724 112.197527 
L 411.833201 116.703186 
L 412.195133 117.839792 
L 412.504805 121.615178 
L 412.844395 128.621895 
L 413.251857 128.687523 
L 414.211139 144.013135 
L 414.64898 147.722054 
L 415.200069 155.492824 
L 416.202611 164.519036 
L 416.55143 171.261057 
L 416.963815 174.068033 
L 417.212114 180.011469 
L 417.679065 181.465108 
L 417.890294 183.523935 
L 418.224386 193.537328 
L 418.742711 199.348193 
L 419.227044 199.627233 
L 420.152754 211.526147 
L 421.242319 226.326691 
L 421.490388 227.17453 
L 421.581332 231.960056 
L 422.018596 233.779829 
L 422.256552 235.350068 
L 422.589066 238.679404 
L 423.265439 246.995177 
L 423.932853 253.755949 
L 424.33993 252.206701 
L 424.694863 260.733357 
L 424.968081 263.43772 
L 425.285637 262.639144 
L 425.755357 272.696574 
L 426.128364 270.904786 
L 426.62081 279.994309 
L 426.957708 279.866315 
L 427.968018 292.646319 
L 428.30284 295.222153 
L 428.641853 295.241494 
L 429.331455 305.753473 
L 429.981486 309.391888 
L 430.317347 313.014201 
L 430.991028 317.682144 
L 431.667708 321.55032 
L 432.074632 326.774864 
L 432.341159 313.342317 
L 432.806418 328.695111 
L 433.12505 328.357676 
L 433.366928 329.264948 
L 433.68756 337.248708 
L 434.022843 337.357761 
L 434.354204 340.958399 
L 434.68545 346.388747 
L 435.02154 335.398975 
L 435.737137 350.899742 
L 436.199589 356.745605 
L 436.551292 355.011589 
L 436.88023 363.683955 
L 437.373407 366.984269 
L 437.709805 369.691304 
L 438.047665 366.581307 
L 438.382717 365.839284 
L 438.717462 378.418851 
L 439.209216 379.202963 
L 439.408525 380.003696 
L 439.726427 385.970745 
L 440.064902 387.895371 
L 440.397339 385.312505 
L 440.73443 392.583583 
L 441.446488 391.613615 
L 441.741818 398.945617 
L 442.307481 401.834667 
L 442.424805 399.214347 
L 442.910444 408.875865 
L 443.58751 409.696354 
L 443.72683 411.786045 
L 443.968823 410.895457 
L 444.115372 415.226297 
L 444.430159 416.857549 
L 444.765827 404.637592 
L 445.244199 418.683188 
L 445.437816 421.041612 
L 445.774099 411.582425 
L 446.255163 417.667514 
L 446.447742 424.347942 
L 446.782141 424.316667 
L 447.119039 424.978241 
L 447.544767 418.447457 
L 448.168496 421.806349 
L 448.510393 419.727365 
L 449.206686 426.649208 
L 449.887789 427.339263 
L 450.219688 427.17114 
L 450.557201 425.817861 
L 450.892062 426.66939 
L 451.427269 424.029068 
L 451.595353 426.4961 
L 451.978742 425.063621 
L 452.240347 426.712865 
L 452.576976 425.506494 
L 452.907722 416.398375 
L 453.430431 423.925699 
L 453.590555 423.243297 
L 453.920185 419.884838 
L 454.24947 420.772825 
L 454.589983 418.982185 
L 455.325729 409.870687 
L 455.712426 404.55594 
L 456.328618 404.091324 
L 456.612103 402.175425 
L 456.96396 395.672997 
L 457.372691 395.982025 
L 458.338818 383.311591 
L 458.680638 378.891896 
L 459.068488 370.084907 
L 459.366202 370.053048 
L 460.304064 353.851594 
L 460.849346 350.809141 
L 460.972785 347.808152 
L 461.645389 338.684727 
L 462.31534 333.034512 
L 463.841554 312.673618 
L 464.293469 305.23694 
L 464.965843 304.151841 
L 465.310624 301.829612 
L 465.66029 297.976505 
L 465.978422 293.228178 
L 466.311936 291.36172 
L 466.983926 285.251217 
L 467.324746 288.00283 
L 467.952244 274.31385 
L 468.37801 272.703772 
L 468.584625 271.293696 
L 468.662995 273.26891 
L 468.999932 268.048814 
L 469.336561 271.085 
L 470.167021 264.936118 
L 471.176523 246.690539 
L 471.520997 246.496997 
L 472.012559 239.987758 
L 472.620945 237.951116 
L 472.859631 231.518362 
L 473.195991 228.231935 
L 473.532543 228.181594 
L 473.869018 223.654426 
L 474.204955 226.644883 
L 474.756544 219.452895 
L 475.081483 218.272009 
L 475.768469 204.208741 
L 476.213116 214.66221 
L 476.698141 197.842891 
L 477.044768 196.19161 
L 477.390819 205.913257 
L 478.177171 195.457327 
L 478.743257 180.950125 
L 479.082116 178.786108 
L 479.44301 178.520603 
L 479.783562 178.013887 
L 480.113461 179.805979 
L 480.60733 168.957481 
L 480.774376 173.355362 
L 481.137346 170.134942 
L 481.537886 170.377884 
L 481.943772 169.701908 
L 482.209991 164.490532 
L 482.442909 163.897269 
L 483.825726 154.620133 
L 484.025304 156.553839 
L 484.252492 152.625736 
L 484.532093 151.598766 
L 484.945093 148.763701 
L 485.187624 144.790339 
L 485.505911 145.250459 
L 485.806623 148.782532 
L 486.285111 147.772123 
L 486.892574 135.277363 
L 487.146641 138.445948 
L 487.51338 133.190029 
L 487.890386 135.04163 
L 488.412404 131.003378 
L 488.815943 131.719019 
L 488.921808 128.186074 
L 489.163647 129.954117 
L 489.497315 128.030466 
L 489.833829 127.71521 
L 490.170112 133.903108 
L 490.730199 128.209746 
L 491.025913 140.122711 
L 491.639759 124.77313 
L 492.177658 133.206181 
L 492.828344 125.867269 
L 493.193045 130.384128 
L 493.674647 129.395908 
L 494.184205 125.293253 
L 494.345944 131.760176 
L 494.861232 131.83523 
L 495.343218 124.726752 
L 495.387364 128.372729 
L 495.534451 129.142848 
L 495.885347 131.905968 
L 496.251048 129.180021 
L 496.542185 130.220617 
L 496.892581 135.709321 
L 497.571569 135.881883 
L 497.944422 137.859684 
L 498.396722 140.950057 
L 498.882285 140.006858 
L 499.006992 144.879556 
L 499.30409 140.889698 
L 499.575078 143.332326 
L 499.89471 142.841803 
L 500.23853 146.030029 
L 500.578735 150.650842 
L 501.24438 156.105245 
L 501.628231 162.115065 
L 502.194701 163.061818 
L 502.452768 167.053221 
L 503.285343 172.461019 
L 503.564598 176.615686 
L 504.483579 181.636818 
L 504.823823 185.296451 
L 505.439631 187.819973 
L 505.788796 192.417907 
L 506.323696 194.495788 
L 506.628677 197.811578 
L 507.078169 200.636511 
L 507.470442 204.521168 
L 507.7765 205.84466 
L 508.201689 211.2387 
L 508.781503 214.427151 
L 509.325555 221.421204 
L 509.918021 222.918224 
L 510.276107 225.913897 
L 510.475301 224.237396 
L 511.359904 236.170989 
L 511.682382 237.075361 
L 512.381251 242.1507 
L 512.688155 249.211177 
L 513.106345 250.643473 
L 513.393868 254.509521 
L 513.751994 256.771398 
L 514.054898 261.767021 
L 514.531309 262.076825 
L 514.757189 265.832589 
L 515.066824 265.514143 
L 515.422911 270.700629 
L 515.90582 272.316722 
L 516.119011 277.326229 
L 516.384884 280.566053 
L 516.76712 282.208689 
L 517.119246 286.020104 
L 517.406231 287.347874 
L 518.076566 293.607065 
L 518.401467 294.638557 
L 519.118871 301.569204 
L 519.408124 304.49776 
L 519.745868 306.148965 
L 520.095418 310.741912 
L 520.416935 311.314611 
L 520.778444 313.20057 
L 521.112304 318.509801 
L 521.43732 317.849204 
L 521.766105 321.367384 
L 522.101311 321.609308 
L 522.435018 323.216903 
L 522.789682 325.99099 
L 523.244712 327.583098 
L 523.498664 335.31797 
L 523.830948 330.204469 
L 524.113626 332.640925 
L 524.451639 337.093918 
L 525.009342 335.822666 
L 525.42188 343.570794 
L 525.714402 336.379102 
L 526.282257 348.00493 
L 526.504215 348.97037 
L 526.867647 353.738515 
L 527.164514 349.505447 
L 527.682571 346.47988 
L 528.171133 349.502463 
L 528.849121 362.583532 
L 529.293499 361.881275 
L 530.196215 371.018816 
L 530.809792 373.239191 
L 531.475359 377.021186 
L 531.637406 375.4367 
L 531.999838 377.932492 
L 532.238831 372.847844 
L 533.020646 382.941853 
L 533.122665 369.63989 
L 533.855643 384.149952 
L 534.69837 392.076159 
L 535.362283 395.440523 
L 535.702297 396.277083 
L 536.136061 396.183259 
L 536.370825 397.900839 
L 536.708223 402.227789 
L 537.04366 403.039084 
L 537.457852 401.764157 
L 537.71888 402.342061 
L 538.054163 402.661395 
L 538.3866 403.221371 
L 538.723768 404.792324 
L 539.058628 400.100245 
L 539.417215 402.527407 
L 539.731117 403.565195 
L 540.140925 402.521262 
L 540.404837 403.010903 
L 540.738582 405.088411 
L 541.077826 404.62711 
L 541.411648 404.709075 
L 541.747431 402.961797 
L 542.083637 398.56689 
L 542.419728 395.716495 
L 542.771854 395.660932 
L 543.180201 394.652922 
L 543.427039 394.520015 
L 543.764129 390.456085 
L 544.43858 386.478969 
L 545.866312 373.774977 
L 546.597328 372.013501 
L 546.941033 365.714202 
L 547.628673 362.243502 
L 547.95392 357.627306 
L 548.737773 352.684194 
L 548.882938 352.677387 
L 548.964653 351.095974 
L 549.305589 346.736397 
L 549.63595 344.352283 
L 549.970272 340.995312 
L 550.322052 335.454881 
L 550.684215 333.658687 
L 550.969085 327.899028 
L 551.304676 323.408476 
L 551.898295 318.605941 
L 552.182319 313.905073 
L 552.99309 306.408963 
L 553.322912 300.541606 
L 554.331492 290.112479 
L 555.681546 272.57012 
L 556.010523 269.564211 
L 556.681782 260.51304 
L 557.022795 256.718099 
L 557.712358 251.686658 
L 558.97166 240.625804 
L 559.163431 237.097471 
L 559.316287 238.865487 
L 559.895486 231.469752 
L 560.094757 230.659884 
L 560.38551 226.365732 
L 560.713948 227.54841 
L 561.053423 222.789208 
L 561.389398 221.318478 
L 562.071962 212.763992 
L 562.393902 217.057426 
L 563.255202 203.251542 
L 563.401828 202.397301 
L 564.231519 195.798337 
L 564.410677 198.111807 
L 564.77134 199.912313 
L 565.719393 187.927104 
L 566.155042 180.558856 
L 566.828839 183.820359 
L 567.950051 163.511957 
L 567.977354 173.159547 
L 568.574626 162.050327 
L 568.845037 159.760752 
L 569.184935 154.740052 
L 569.517911 156.297717 
L 569.855578 153.098345 
L 570.52676 149.539108 
L 571.197519 145.247909 
L 571.871354 141.247686 
L 572.20879 142.094734 
L 572.54938 133.94942 
L 572.984222 137.533819 
L 573.530312 150.953128 
L 574.108395 139.792334 
L 574.539276 137.574771 
L 575.349393 127.251306 
L 575.671564 127.322098 
L 576.005347 134.096029 
L 576.347283 127.307763 
L 576.868916 127.42233 
L 577.160707 126.037272 
L 577.683801 122.590094 
L 577.813546 126.123839 
L 579.029933 116.472504 
L 579.408093 115.53821 
L 579.755758 113.530166 
L 580.039359 109.529319 
L 581.38403 106.731182 
L 581.720313 106.442849 
L 582.126775 108.896559 
L 582.39484 106.040436 
L 582.72897 106.480363 
L 583.070213 106.208715 
L 583.400267 107.046412 
L 583.737319 107.313574 
L 584.072833 107.831984 
L 584.56128 111.28853 
L 584.929633 117.673284 
L 585.570206 113.400782 
L 585.855114 113.357572 
L 586.03458 116.143842 
L 586.778594 122.99747 
L 587.336105 115.908145 
L 587.453352 116.761763 
L 587.788328 114.711227 
L 588.461201 119.847311 
L 589.204062 122.027687 
L 589.468512 130.983033 
L 590.202874 134.398523 
L 590.982767 146.121009 
L 591.828185 146.002772 
L 591.87706 145.831067 
L 592.328476 152.157703 
L 592.730938 156.551506 
L 593.33894 166.069951 
L 594.345097 179.441889 
L 594.67988 186.059307 
L 595.018701 188.017135 
L 595.37325 196.527755 
L 595.888115 198.214402 
L 597.116923 210.953091 
L 597.486815 215.798023 
L 598.726621 226.814412 
L 599.076132 227.907753 
L 600.207804 239.348851 
L 600.871718 244.572342 
L 601.168778 244.863681 
L 601.662185 252.633877 
L 601.986432 253.276318 
L 602.359516 252.558971 
L 602.729177 258.387728 
L 602.984937 258.313476 
L 603.325181 265.196187 
L 603.674192 261.725716 
L 604.163831 273.656963 
L 604.647509 275.234036 
L 604.672928 275.974989 
L 604.776677 275.78517 
L 605.450397 281.609161 
L 605.786296 284.133333 
L 606.457708 291.892273 
L 606.792991 293.19277 
L 607.128774 295.632429 
L 607.464788 302.154772 
L 608.119204 305.448563 
L 608.492903 308.373306 
L 608.81142 307.986477 
L 609.817539 314.598661 
L 610.156552 320.158775 
L 610.580896 318.846578 
L 610.826273 320.403174 
L 611.160979 323.675911 
L 611.500608 324.531148 
L 612.505381 332.289355 
L 612.842548 332.67843 
L 613.183407 336.113666 
L 613.543301 337.856855 
L 613.891659 332.750337 
L 614.492392 348.754773 
L 614.695777 346.502408 
L 614.949499 339.153694 
L 615.503279 351.956175 
L 615.684169 348.291135 
L 616.116472 349.555168 
L 616.286325 352.005974 
L 616.538508 352.969597 
L 617.125667 357.142134 
L 618.338401 361.60647 
L 618.691489 358.743156 
L 619.120331 365.428049 
L 619.353749 361.634007 
L 619.875036 370.97328 
L 620.211319 373.329194 
L 620.574212 369.639136 
L 621.319842 380.506238 
L 621.500884 367.094865 
L 622.130689 380.095846 
L 622.353455 382.267992 
L 622.636364 382.381333 
L 622.636364 382.381333 
" clip-path="url(#p85bf05dad2)" style="fill: none; stroke-dasharray: 9.6,2.4,1.5,2.4; stroke-dashoffset: 0; stroke: #ff0000; stroke-width: 1.5"/>
   </g>
   <g id="line2d_26">
    <path d="M 115.363636 209.577846 
L 115.682202 203.625225 
L 116.018369 214.430542 
L 116.356234 212.241744 
L 116.691714 188.49538 
L 117.026574 192.613517 
L 117.367904 183.156865 
L 117.747468 155.628503 
L 119.040605 173.982516 
L 119.098089 163.686252 
L 119.689363 183.707853 
L 119.916695 171.077926 
L 120.588204 209.686035 
L 121.228074 204.362464 
L 121.536045 214.132182 
L 121.951847 200.456034 
L 122.836763 196.020831 
L 122.980005 191.090929 
L 123.279127 189.088603 
L 123.625461 182.697116 
L 123.951726 167.476694 
L 124.562842 164.809835 
L 124.842785 154.626982 
L 125.086898 172.921514 
L 125.337678 173.726105 
L 125.633853 186.379592 
L 125.96866 192.636854 
L 126.416134 170.694858 
L 126.643779 184.65774 
L 126.981398 179.712304 
L 127.317739 160.365952 
L 127.653733 178.588589 
L 128.662275 146.470235 
L 129.251414 150.17663 
L 129.35625 159.99605 
L 129.664529 153.514318 
L 130.008291 137.032226 
L 130.339181 137.04429 
L 130.713149 148.296448 
L 131.018482 137.850906 
L 131.355212 138.105914 
L 131.691788 122.475408 
L 132.270521 134.524327 
L 132.451006 132.935408 
L 132.948557 122.221038 
L 133.177773 124.276986 
L 133.493185 112.793493 
L 134.062963 132.604628 
L 134.719508 173.439105 
L 135.098374 166.555766 
L 135.392372 173.096463 
L 135.832857 178.533204 
L 136.049528 174.28256 
L 136.385229 152.192244 
L 136.721272 159.09287 
L 137.058035 151.179203 
L 137.41243 153.182862 
L 137.748593 149.937373 
L 138.421856 171.509354 
L 139.296346 141.98238 
L 139.661066 124.339445 
L 140.191068 118.538831 
L 140.597842 124.194953 
L 141.074988 120.47558 
L 141.20095 142.746508 
L 141.537699 145.599281 
L 141.873223 163.777293 
L 142.226782 158.202084 
L 143.05528 160.185823 
L 143.460555 163.293487 
L 143.713253 161.654186 
L 143.893147 163.211886 
L 144.327613 169.656831 
L 144.744372 188.587265 
L 145.108774 196.730015 
L 145.30468 196.691288 
L 145.570428 199.283916 
L 145.90598 186.78093 
L 147.504065 224.437094 
L 147.770448 225.577636 
L 147.922621 232.3926 
L 148.260692 235.341763 
L 148.658771 249.475623 
L 149.183346 228.077646 
L 149.462717 230.174377 
L 149.700038 239.078212 
L 150.138705 232.846875 
L 150.458386 233.975314 
L 151.074203 243.712472 
L 151.283356 237.517783 
L 151.617783 251.288997 
L 151.954768 237.929764 
L 152.459846 242.123102 
L 152.638294 251.901095 
L 153.125914 254.393615 
L 153.660179 263.660905 
L 154.248395 246.349032 
L 154.609674 243.48839 
L 154.967434 237.671451 
L 155.853681 265.837508 
L 156.616739 296.541736 
L 156.957791 280.697171 
L 156.985622 281.540758 
L 157.200255 287.999944 
L 157.541796 282.310901 
L 157.881271 268.073874 
L 158.214324 274.906862 
L 158.544435 278.18341 
L 158.92794 283.861158 
L 159.951258 311.555166 
L 160.560941 321.087328 
L 161.298014 286.688386 
L 161.744306 323.263617 
L 162.153056 310.282809 
L 162.382994 311.039811 
L 162.907164 275.200937 
L 164.206305 311.995702 
L 164.465853 327.925476 
L 164.685754 305.70656 
L 164.91995 314.950998 
L 165.080612 336.838898 
L 165.365818 339.57316 
L 165.669694 351.333971 
L 166.008303 350.144585 
L 166.342548 364.284803 
L 166.677524 357.286559 
L 167.020806 337.809272 
L 167.351628 348.935286 
L 167.918224 346.945153 
L 168.161101 332.424504 
L 168.366457 309.52422 
L 168.743204 304.431422 
L 169.186015 302.479752 
L 169.370701 301.104869 
L 169.701283 305.970779 
L 170.049362 283.723099 
L 170.379868 294.667918 
L 170.721861 318.735678 
L 171.058154 298.844251 
L 171.384073 310.935727 
L 171.731787 277.19244 
L 172.068041 282.694765 
L 172.529906 280.515077 
L 172.726139 287.869355 
L 173.077803 310.955304 
L 173.401945 314.724278 
L 173.827297 296.274771 
L 174.440836 297.91021 
L 174.741049 312.420415 
L 175.970328 335.013441 
L 176.778551 370.162597 
L 177.14056 376.401072 
L 177.76378 373.753789 
L 177.967309 376.850885 
L 178.320954 368.842621 
L 178.816534 369.277915 
L 178.947375 373.197915 
L 179.144943 352.264893 
L 179.735419 373.45194 
L 180.117174 390.415691 
L 180.687135 401.367708 
L 181.028157 404.818671 
L 181.359682 383.135973 
L 181.692148 387.587198 
L 182.020461 379.84541 
L 182.360648 353.336682 
L 182.730549 357.221561 
L 183.044654 383.674931 
L 183.411143 379.98834 
L 184.037112 391.65175 
L 184.375452 397.93578 
L 184.716378 377.161685 
L 185.046153 369.628004 
L 185.386551 357.68643 
L 185.719642 370.521743 
L 186.07273 362.357854 
L 186.397842 365.58451 
L 186.731327 348.463267 
L 187.101729 351.58031 
L 187.652222 341.8142 
L 188.548957 311.524554 
L 189.009246 317.855345 
L 189.632167 329.71586 
L 190.227219 307.968803 
L 190.742488 318.032681 
L 190.907197 303.248279 
L 191.295297 291.512393 
L 191.510449 291.048581 
L 191.805134 298.944586 
L 192.117518 298.038347 
L 192.323037 300.657967 
L 192.65884 296.890018 
L 192.994161 289.921966 
L 193.336136 299.590859 
L 193.705903 304.32189 
L 194.004491 316.062825 
L 194.338928 310.685449 
L 194.676038 294.506151 
L 195.011167 313.738753 
L 195.346297 312.94101 
L 195.679955 312.443896 
L 196.109413 295.332512 
L 196.620981 308.131472 
L 196.972857 299.552003 
L 197.950471 314.265336 
L 198.233178 308.818592 
L 199.104005 283.831929 
L 199.363658 288.329064 
L 199.653709 286.642015 
L 199.813208 281.797054 
L 200.050298 280.774645 
L 200.38637 277.339042 
L 200.722653 287.492333 
L 201.06829 292.78612 
L 202.072919 248.198204 
L 202.746523 249.13007 
L 203.025009 253.48293 
L 203.411821 232.365853 
L 204.119746 226.062286 
L 204.34505 221.239412 
L 204.454347 234.22895 
L 204.762299 241.513968 
L 205.204639 254.643733 
L 205.734991 230.208734 
L 205.982493 224.594676 
L 206.286503 239.728561 
L 206.782929 230.114063 
L 207.121548 226.801399 
L 207.802295 222.949634 
L 208.123571 222.81849 
L 208.468189 229.531188 
L 208.786678 242.299817 
L 209.128383 243.384001 
L 209.46381 242.74488 
L 209.797892 234.534465 
L 210.17882 233.497925 
L 210.46816 237.203436 
L 210.802934 228.965697 
L 211.598121 199.197847 
L 212.086068 218.891997 
L 212.39501 216.141842 
L 213.495804 174.658275 
L 213.829308 191.034415 
L 214.173157 185.433044 
L 214.589492 195.839042 
L 214.835292 193.306653 
L 215.172114 199.060169 
L 215.507359 171.814411 
L 216.204689 179.532859 
L 216.704768 159.189338 
L 216.857836 172.502834 
L 217.190735 150.197756 
L 217.636103 141.95544 
L 218.254324 136.552107 
L 218.345451 128.007479 
L 218.602162 138.198884 
L 218.875601 133.497821 
L 219.539756 151.06087 
L 219.929154 125.018014 
L 220.660911 134.637495 
L 221.460866 151.180775 
L 222.138162 180.51489 
L 222.806835 132.244674 
L 223.147136 146.809927 
L 223.479093 147.224175 
L 223.849091 170.729831 
L 225.099722 164.026723 
L 225.443571 156.702924 
L 225.891583 168.944313 
L 226.308274 167.387659 
L 226.563995 152.334968 
L 226.906681 161.701682 
L 227.242752 163.323906 
L 227.573267 170.898997 
L 227.909761 181.234523 
L 228.246102 160.714565 
L 228.582289 161.031575 
L 228.918457 150.871538 
L 229.460547 169.343686 
L 229.79833 167.73764 
L 229.926152 145.557335 
L 230.279221 157.766668 
L 230.60018 164.297755 
L 230.934694 141.754685 
L 231.272707 131.987669 
L 232.283056 157.073516 
L 233.261045 129.287066 
L 233.622651 153.651133 
L 234.187468 154.128488 
L 234.755957 156.678193 
L 234.89122 156.513196 
L 235.012005 162.962488 
L 235.300624 146.234054 
L 235.629236 179.939961 
L 235.970383 180.394863 
L 236.287727 168.966877 
L 236.656774 202.250759 
L 236.960044 203.662537 
L 237.577966 203.499677 
L 238.435247 229.614229 
L 238.648534 231.480039 
L 238.991355 223.791404 
L 239.314698 222.101032 
L 239.648404 232.125711 
L 239.984783 233.475095 
L 240.356041 219.984191 
L 240.675654 224.987375 
L 241.03524 242.979165 
L 242.001693 258.957178 
L 242.640593 272.159107 
L 243.105871 276.980454 
L 243.66467 290.290815 
L 244.004375 276.790167 
L 244.623394 288.080026 
L 244.992305 279.428508 
L 245.313495 285.905276 
L 245.637569 286.553955 
L 246.196079 279.959972 
L 246.869184 296.440574 
L 247.410351 300.442878 
L 247.766034 307.666253 
L 248.366076 280.087838 
L 248.480958 281.095264 
L 248.767039 294.280258 
L 249.104879 281.734869 
L 249.42853 292.204551 
L 249.893078 274.507045 
L 250.567624 254.798705 
L 251.279683 258.647319 
L 251.669013 269.390522 
L 251.953864 267.335485 
L 252.489513 255.232214 
L 252.829507 234.093355 
L 253.730492 268.382194 
L 254.114497 271.885016 
L 254.871278 310.099982 
L 255.560187 284.313881 
L 255.74148 291.392297 
L 255.948864 275.056874 
L 256.365305 267.466106 
L 256.552404 266.592627 
L 256.81101 277.311924 
L 257.017336 258.168002 
L 257.37302 266.547008 
L 257.823973 291.787388 
L 258.012265 310.285114 
L 258.34851 316.621086 
L 258.676813 327.529735 
L 259.015558 321.574502 
L 259.586373 338.27882 
L 260.094163 344.405732 
L 260.264996 357.28481 
L 260.590339 352.382881 
L 260.774131 355.155687 
L 261.143889 375.321265 
L 261.49986 382.138485 
L 261.7014 372.796228 
L 262.152392 388.694637 
L 262.371716 391.256559 
L 262.718113 380.130908 
L 263.083775 384.514485 
L 263.402619 369.858458 
L 263.714618 365.404427 
L 264.064725 366.664474 
L 264.41191 351.443598 
L 264.725582 376.435554 
L 265.059096 368.362589 
L 265.644909 361.964672 
L 266.049449 361.601695 
L 266.536377 339.105971 
L 267.621077 368.434069 
L 268.528618 335.580308 
L 268.866362 337.189161 
L 269.209029 359.481286 
L 269.540986 363.452279 
L 270.218955 352.279234 
L 270.274233 352.91284 
L 270.602902 353.215475 
L 270.882657 363.069218 
L 271.220805 363.332165 
L 271.55455 337.397961 
L 271.892775 346.748973 
L 272.226597 361.692284 
L 272.564803 360.347507 
L 272.901509 360.438439 
L 273.235869 369.896757 
L 273.570576 347.059289 
L 274.244699 362.764369 
L 274.590192 389.614726 
L 274.929051 392.894772 
L 275.253279 384.268222 
L 275.588889 398.202251 
L 275.923019 396.751636 
L 276.263993 412.071224 
L 276.598161 395.842469 
L 277.041328 391.828254 
L 277.424564 382.315403 
L 277.713606 371.422174 
L 277.990861 371.630977 
L 278.281557 380.136172 
L 278.611956 368.17533 
L 278.970773 386.870405 
L 279.520786 379.730029 
L 280.19837 378.784502 
L 280.336344 378.68535 
L 280.626943 355.882554 
L 280.963111 351.387452 
L 281.312353 356.903487 
L 281.639946 374.893288 
L 281.971902 377.793374 
L 282.642969 360.574227 
L 282.985078 362.675931 
L 283.652299 322.182645 
L 283.986909 323.721945 
L 284.323134 302.481379 
L 284.66705 300.614935 
L 285.000988 295.194882 
L 285.527389 290.989873 
L 285.756365 290.645489 
L 286.013009 282.092019 
L 286.340967 280.5168 
L 286.79417 259.365739 
L 287.640646 239.613886 
L 287.845608 229.306675 
L 288.324537 245.397473 
L 288.520769 243.337766 
L 289.516929 268.866405 
L 289.879476 267.938492 
L 290.233044 274.247038 
L 290.641717 268.71385 
L 290.861522 260.834471 
L 291.428301 232.01533 
L 291.840377 220.786295 
L 292.280506 224.977568 
L 292.791564 215.05352 
L 293.081221 222.219788 
L 293.726677 218.332179 
L 294.078957 231.455287 
L 294.738064 223.392408 
L 295.072866 251.37635 
L 295.408534 221.733597 
L 295.746971 206.222383 
L 296.088868 201.854226 
L 296.416403 186.531253 
L 296.992948 184.289262 
L 297.336711 182.237657 
L 297.584453 191.917385 
L 297.779185 178.085773 
L 298.134869 185.256594 
L 298.432909 203.160878 
L 298.768557 195.496178 
L 299.10486 197.673652 
L 299.798518 180.55676 
L 300.130206 182.46099 
L 300.457779 197.764034 
L 300.793139 193.139958 
L 301.124634 200.367171 
L 301.457303 199.27473 
L 301.80543 204.634251 
L 302.151826 198.007811 
L 302.498588 184.359046 
L 302.850907 161.936857 
L 303.136795 166.431458 
L 303.474847 177.044066 
L 303.811861 180.707731 
L 304.592387 187.680885 
L 304.974643 202.885441 
L 305.267934 183.509653 
L 305.573472 190.966495 
L 306.337137 162.955799 
L 307.371539 188.02179 
L 307.44241 174.194331 
L 307.966773 179.270995 
L 308.021955 161.074114 
L 308.356777 170.141625 
L 308.70102 163.927169 
L 309.037418 160.801528 
L 309.379066 160.43852 
L 309.720521 152.175265 
L 310.283742 159.443877 
L 310.540809 196.910475 
L 310.865056 192.587628 
L 311.071248 178.271794 
L 311.431873 179.011074 
L 311.724376 156.652918 
L 312.062889 154.160186 
L 312.398307 173.437643 
L 312.734301 155.040442 
L 313.065182 147.925203 
L 313.44488 146.338274 
L 313.739344 162.812961 
L 314.455613 154.073176 
L 314.765978 138.35813 
L 315.079284 145.060011 
L 315.413491 134.12912 
L 315.784517 110.024144 
L 316.123531 120.482194 
L 316.437068 119.714285 
L 316.837743 124.579753 
L 317.100405 130.355054 
L 317.437188 106.099698 
L 317.802889 104.989338 
L 318.280645 102.878691 
L 318.450132 90.197966 
L 319.116411 107.749898 
L 319.448234 124.555339 
L 319.810281 118.456208 
L 320.469234 126.856477 
L 321.295964 137.874225 
L 321.963146 122.836151 
L 322.343805 126.68285 
L 323.152596 159.923794 
L 323.803589 171.692644 
L 324.071808 171.350775 
L 324.211628 161.826012 
L 324.641566 146.1713 
L 325.216958 131.168334 
L 325.240839 131.199249 
L 325.510288 128.70396 
L 325.897677 123.244275 
L 326.182181 123.872741 
L 327.526486 192.004455 
L 327.86475 202.340124 
L 328.342141 195.895623 
L 328.868927 241.993476 
L 329.228398 242.572937 
L 329.556702 246.172184 
L 329.878276 225.152206 
L 330.212309 216.858849 
L 330.606024 237.761341 
L 330.890567 231.585409 
L 331.338348 239.728909 
L 331.712701 241.224865 
L 331.926891 225.163658 
L 332.287401 219.370059 
L 332.582691 223.382279 
L 332.931741 217.1876 
L 333.323379 206.171006 
L 333.628918 184.273183 
L 334.025959 208.591342 
L 334.279757 212.235807 
L 334.720155 211.571705 
L 334.946555 222.96476 
L 335.27632 215.202006 
L 335.59228 241.414637 
L 336.720818 221.502347 
L 337.059005 225.030902 
L 337.395173 225.491619 
L 337.732244 241.554737 
L 338.069123 234.311517 
L 338.404541 257.096604 
L 338.74067 255.290951 
L 339.076549 265.120159 
L 339.441712 287.562479 
L 340.085918 296.112436 
L 340.420336 300.463622 
L 341.090825 346.895519 
L 341.429146 356.849165 
L 341.76416 319.068176 
L 342.103212 320.716623 
L 342.440379 315.877809 
L 342.792948 317.01196 
L 343.107485 310.178177 
L 343.476089 320.001162 
L 343.77884 323.138136 
L 344.114815 329.266608 
L 344.45329 322.165703 
L 344.789131 328.155043 
L 345.12501 326.781596 
L 345.459505 325.989764 
L 345.796173 336.184723 
L 346.132379 327.999504 
L 346.469739 324.201093 
L 346.807617 341.04383 
L 347.143401 328.600226 
L 347.559938 343.648044 
L 347.818428 344.921443 
L 348.152423 367.039145 
L 348.653156 362.170889 
L 349.281326 366.499507 
L 349.526242 363.545182 
L 349.704862 378.340118 
L 350.33732 352.809276 
L 350.568873 352.247045 
L 350.666547 353.281127 
L 350.8354 325.723292 
L 351.171914 323.353784 
L 351.5121 330.43675 
L 352.531505 416.91142 
L 353.566887 390.235716 
L 353.914072 399.903723 
L 354.387579 359.348938 
L 354.576909 364.897408 
L 354.913365 400.749727 
L 355.389064 384.478478 
L 355.756765 355.320368 
L 356.257248 370.494882 
L 356.768652 367.354767 
L 357.107319 367.047385 
L 357.495438 355.083754 
L 357.676539 363.048312 
L 357.959024 361.544578 
L 358.273734 378.091299 
L 358.609518 380.996175 
L 358.974622 386.865738 
L 359.454051 380.824474 
L 359.619174 401.02975 
L 360.099853 409.213525 
L 360.289375 399.466574 
L 360.682167 398.243081 
L 361.029486 408.105743 
L 361.478768 416.432181 
L 361.77477 414.09936 
L 361.99071 424.913207 
L 362.691405 379.648009 
L 362.978928 381.859896 
L 363.314 364.776769 
L 363.65036 369.124354 
L 363.988566 359.399972 
L 364.321638 365.738643 
L 364.658228 341.565415 
L 365.199761 331.496881 
L 365.470211 333.023884 
L 365.712127 346.255843 
L 366.005072 335.191849 
L 366.381347 334.11901 
L 366.674638 332.347554 
L 367.087465 335.981157 
L 367.3498 335.564222 
L 367.685179 320.104043 
L 368.018982 321.032608 
L 368.367167 315.988461 
L 369.446907 303.16539 
L 369.860387 322.812459 
L 370.206706 322.449775 
L 370.45689 328.742767 
L 371.579641 297.398774 
L 371.934286 308.372525 
L 372.232364 306.245498 
L 372.472742 292.029296 
L 372.812313 291.14473 
L 373.156556 294.184133 
L 373.48263 323.930872 
L 374.152504 263.522741 
L 374.489864 290.274684 
L 374.824897 297.248829 
L 375.17189 309.913965 
L 375.498636 311.922412 
L 375.837534 306.952103 
L 376.290622 287.016657 
L 376.551573 283.183035 
L 376.845825 267.652258 
L 377.178321 274.297681 
L 377.513027 256.856105 
L 377.849656 257.570795 
L 378.526779 267.633984 
L 378.874195 278.13714 
L 379.21142 291.901252 
L 379.870623 280.963022 
L 380.537786 235.366288 
L 380.873416 225.0165 
L 381.2236 226.525639 
L 381.616276 230.200567 
L 381.882303 226.367167 
L 382.219105 215.181331 
L 382.554292 216.9388 
L 382.89221 226.874132 
L 383.225128 205.538159 
L 383.640069 199.156979 
L 383.898598 158.533257 
L 384.235458 167.860938 
L 384.570106 165.712075 
L 384.907216 181.337199 
L 385.241653 186.929624 
L 385.609546 160.593596 
L 385.991878 167.501324 
L 386.502282 159.035999 
L 386.801399 164.33852 
L 387.262236 150.029496 
L 387.597711 184.255904 
L 388.304348 169.472078 
L 388.612944 205.018172 
L 388.978837 197.998917 
L 389.273512 183.30901 
L 389.609603 206.89329 
L 389.951077 200.720797 
L 390.292167 185.332562 
L 390.709473 180.726587 
L 391.103284 174.287985 
L 391.783579 181.712457 
L 391.962507 174.64465 
L 392.29856 174.02748 
L 392.63392 162.4564 
L 392.979355 188.856925 
L 393.311062 191.196048 
L 393.642653 178.411966 
L 393.97859 172.189377 
L 394.315681 169.656131 
L 395.006359 159.795204 
L 395.336912 141.206776 
L 395.738222 149.664911 
L 396.670277 131.860828 
L 397.002869 142.749114 
L 397.339037 148.820346 
L 397.674512 152.330983 
L 398.011526 128.82025 
L 398.346694 139.378745 
L 398.693705 155.248581 
L 399.017952 160.174782 
L 399.354235 191.214439 
L 400.026186 179.737559 
L 400.362584 172.087877 
L 400.701521 158.736976 
L 401.038188 162.247689 
L 401.370357 158.541507 
L 401.707793 152.690884 
L 402.045999 157.254218 
L 402.378629 132.989915 
L 402.722488 137.219837 
L 403.132911 151.505311 
L 403.386555 148.509545 
L 403.7233 148.186561 
L 404.062428 134.968722 
L 404.471582 127.963323 
L 404.75303 136.413461 
L 405.128921 123.928094 
L 405.638709 118.493684 
L 406.150498 99.777299 
L 406.56815 140.312276 
L 406.846214 134.720235 
L 407.176959 116.133782 
L 407.888441 147.708869 
L 408.470639 130.682301 
L 408.808422 131.579316 
L 409.144436 128.65437 
L 409.484795 144.445163 
L 409.819771 127.43699 
L 410.15267 149.660167 
L 410.488645 152.681903 
L 410.831389 135.319155 
L 411.182361 149.68413 
L 411.504724 136.319014 
L 411.833201 162.957067 
L 412.195133 164.906997 
L 412.504805 163.626681 
L 412.844395 185.233792 
L 413.251857 177.737648 
L 413.515346 176.879785 
L 413.85609 179.016059 
L 414.211139 191.085684 
L 414.64898 195.078032 
L 415.200069 185.684763 
L 415.705628 187.493189 
L 416.202611 200.371409 
L 416.55143 200.349582 
L 417.212114 228.054904 
L 417.679065 230.234599 
L 418.224386 235.75937 
L 418.742711 243.795798 
L 419.227044 254.43623 
L 419.684304 247.633643 
L 419.858156 251.370342 
L 420.152754 240.911905 
L 420.762063 188.216091 
L 420.91415 192.092924 
L 421.242319 219.581537 
L 421.490388 219.075162 
L 421.581332 227.258154 
L 422.018596 217.532118 
L 422.256552 224.202099 
L 422.589066 261.194934 
L 422.989145 247.017366 
L 423.265439 247.156162 
L 423.596993 270.259778 
L 423.932853 284.262812 
L 424.33993 278.519393 
L 424.694863 292.176104 
L 424.968081 287.516222 
L 425.285637 273.66101 
L 425.755357 299.657498 
L 426.128364 282.817874 
L 426.564897 278.670723 
L 426.62081 280.270794 
L 426.957708 298.020014 
L 427.294798 271.28628 
L 427.62889 275.45778 
L 427.968018 270.969711 
L 428.30284 276.10842 
L 428.641853 293.818465 
L 429.014899 286.333467 
L 429.647318 301.183797 
L 429.981486 308.215793 
L 430.317347 302.772076 
L 430.991028 297.568122 
L 431.340001 309.652872 
L 431.667708 326.145472 
L 432.074632 327.69677 
L 432.341159 313.396702 
L 432.806418 311.273802 
L 433.12505 319.632574 
L 433.366928 307.295065 
L 433.68756 309.84052 
L 434.022843 318.353258 
L 434.354204 340.238201 
L 434.68545 337.491679 
L 435.02154 338.430415 
L 435.737137 310.712277 
L 436.199589 312.460515 
L 436.551292 311.760842 
L 436.835854 319.256114 
L 436.88023 317.276719 
L 437.373407 335.200667 
L 437.709805 356.858656 
L 438.047665 349.222817 
L 438.382717 350.922838 
L 438.717462 358.339581 
L 439.209216 356.904173 
L 439.408525 366.614979 
L 439.726427 372.804787 
L 440.064902 375.52446 
L 440.397339 354.267841 
L 440.73443 359.626501 
L 441.073943 368.544649 
L 441.446488 365.029537 
L 441.741818 394.313074 
L 442.307481 386.105218 
L 442.424805 399.023943 
L 442.910444 382.477685 
L 443.58751 380.070503 
L 443.72683 387.20007 
L 443.968823 366.452648 
L 444.115372 375.868251 
L 444.430159 363.686888 
L 444.765827 362.841592 
L 445.244199 366.222844 
L 445.437816 356.419535 
L 445.774099 353.970263 
L 446.255163 359.852263 
L 446.447742 355.946958 
L 446.782141 364.648234 
L 447.119039 361.934741 
L 447.544767 379.740036 
L 448.168496 390.520383 
L 448.510393 400.872408 
L 449.206686 402.957838 
L 449.618301 407.168864 
L 450.219688 389.835558 
L 450.892062 408.457969 
L 451.427269 411.382438 
L 451.595353 411.531263 
L 451.978742 414.720765 
L 452.240347 424.309726 
L 452.576976 412.915636 
L 452.907722 384.479012 
L 453.590555 392.178389 
L 454.24947 355.248239 
L 454.589983 360.268935 
L 454.982178 368.800921 
L 455.325729 363.598497 
L 455.712426 376.14037 
L 456.328618 378.639378 
L 456.612103 378.22884 
L 456.96396 357.363686 
L 457.372691 357.672715 
L 457.950429 329.34639 
L 458.338818 323.545295 
L 458.680638 313.940065 
L 459.068488 293.140112 
L 459.366202 293.108253 
L 459.964359 280.468614 
L 460.304064 297.848256 
L 460.849346 306.681106 
L 460.972785 305.965374 
L 461.33091 299.021547 
L 461.645389 268.194404 
L 462.01805 266.587413 
L 462.31534 260.877549 
L 462.653123 259.461067 
L 463.101308 270.694877 
L 463.841554 265.330093 
L 464.293469 255.179728 
L 464.965843 250.294919 
L 465.310624 256.808396 
L 465.66029 272.104234 
L 465.978422 267.684825 
L 466.311936 264.757658 
L 467.324746 195.386958 
L 467.952244 223.823372 
L 468.37801 227.769076 
L 468.662995 206.471848 
L 468.999932 213.039754 
L 469.336561 192.745924 
L 470.167021 161.53629 
L 471.176523 208.081915 
L 471.520997 191.624854 
L 472.012559 228.524649 
L 472.478087 223.149925 
L 472.620945 214.659564 
L 472.859631 216.206007 
L 473.195991 215.264051 
L 473.869018 183.110982 
L 474.204955 189.894825 
L 474.756544 162.737984 
L 475.081483 157.742762 
L 475.768469 144.266556 
L 476.213116 199.383403 
L 476.698141 177.417463 
L 477.044768 174.619968 
L 477.390819 169.508847 
L 478.177171 193.485719 
L 478.743257 187.673112 
L 479.082116 190.916724 
L 479.44301 175.18249 
L 479.783562 174.952677 
L 480.113461 154.580055 
L 480.774376 148.742644 
L 481.137346 158.684423 
L 481.537886 147.212065 
L 481.943772 157.9979 
L 482.209991 147.230391 
L 482.442909 145.825014 
L 482.926972 148.215878 
L 483.140086 140.464715 
L 484.025304 159.902311 
L 484.532093 144.883287 
L 484.945093 140.326156 
L 485.187624 155.568512 
L 485.505911 151.43316 
L 485.806623 162.494565 
L 486.285111 165.466456 
L 486.713453 180.532765 
L 486.892574 175.558121 
L 487.146641 172.951797 
L 487.51338 179.645813 
L 487.890386 178.890262 
L 488.412404 214.46578 
L 488.815943 223.725949 
L 488.921808 220.193004 
L 489.163647 224.305673 
L 489.833829 194.480167 
L 490.170112 192.507754 
L 490.730199 177.737232 
L 491.025913 181.238539 
L 491.639759 182.616623 
L 492.177658 161.540163 
L 492.828344 162.311582 
L 493.193045 180.291862 
L 493.674647 156.354318 
L 494.184205 164.475218 
L 494.345944 162.310146 
L 494.861232 167.110932 
L 495.343218 167.64833 
L 495.387364 167.065635 
L 495.534451 172.500269 
L 495.885347 167.267866 
L 496.251048 164.710117 
L 496.542185 180.81704 
L 496.892581 171.662255 
L 497.246207 156.981252 
L 497.571569 156.066227 
L 497.944422 151.9373 
L 498.396722 150.515977 
L 499.006992 140.459419 
L 499.30409 115.755943 
L 499.575078 120.092169 
L 499.89471 132.73361 
L 500.23853 133.749139 
L 500.578735 122.809475 
L 500.914595 117.010935 
L 501.24438 127.324705 
L 501.628231 125.585166 
L 502.194701 136.825024 
L 502.452768 138.887513 
L 502.861461 144.338914 
L 503.285343 158.120104 
L 503.564598 158.769626 
L 504.079309 167.409319 
L 504.483579 154.437432 
L 504.823823 173.484904 
L 505.439631 185.036312 
L 505.788796 204.108957 
L 506.323696 223.638551 
L 506.628677 205.299714 
L 507.078169 213.546773 
L 507.470442 207.466921 
L 507.7765 210.366626 
L 508.201689 207.18821 
L 508.781503 211.774717 
L 509.325555 202.33802 
L 510.276107 224.093567 
L 510.475301 223.454194 
L 511.359904 270.006531 
L 511.682382 282.966045 
L 512.015166 276.634684 
L 512.381251 282.036915 
L 512.688155 261.263749 
L 513.106345 262.696045 
L 513.393868 260.97635 
L 513.751994 269.937289 
L 514.054898 274.585359 
L 514.757189 254.520129 
L 515.066824 268.861102 
L 515.422911 269.553622 
L 515.90582 304.659976 
L 516.119011 309.669483 
L 516.384884 300.657842 
L 516.76712 303.176439 
L 517.119246 283.32368 
L 517.406231 284.553776 
L 517.814462 269.031583 
L 518.401467 307.517716 
L 518.738711 309.960079 
L 519.118871 291.242274 
L 519.408124 292.778195 
L 519.745868 296.254438 
L 520.095418 293.493901 
L 520.416935 276.283765 
L 520.778444 297.470495 
L 521.43732 287.347525 
L 521.766105 290.923194 
L 522.101311 297.726479 
L 522.435018 297.796186 
L 522.789682 298.885537 
L 523.244712 304.670539 
L 523.498664 318.452012 
L 523.830948 322.910705 
L 524.113626 320.537947 
L 524.451639 322.72519 
L 525.009342 317.883014 
L 525.42188 313.055519 
L 525.714402 313.871211 
L 526.043917 309.238898 
L 526.282257 319.026564 
L 526.504215 319.73228 
L 526.867647 339.243126 
L 527.164514 336.260554 
L 527.682571 322.715257 
L 528.171133 351.346166 
L 528.849121 359.839113 
L 529.604826 345.353781 
L 529.868315 325.315545 
L 530.196215 343.102966 
L 530.809792 352.457548 
L 531.162149 365.200179 
L 531.475359 355.01952 
L 531.637406 360.682217 
L 531.999838 358.150035 
L 532.238831 352.346389 
L 533.020646 367.973364 
L 533.122665 372.873168 
L 533.855643 375.264745 
L 534.352281 379.371214 
L 535.033884 345.134055 
L 535.702297 350.555127 
L 536.136061 362.453675 
L 536.370825 374.744783 
L 536.708223 379.071732 
L 537.04366 388.30886 
L 537.457852 369.285754 
L 537.71888 382.781911 
L 538.054163 391.764515 
L 538.3866 373.224992 
L 538.723768 361.513208 
L 539.058628 381.530849 
L 539.417215 372.637912 
L 539.731117 394.566061 
L 540.140925 369.757809 
L 540.404837 372.991785 
L 540.738582 386.13711 
L 541.077826 405.475507 
L 541.411648 408.295239 
L 541.747431 383.14537 
L 542.083637 396.475362 
L 542.419728 400.880323 
L 542.771854 409.525133 
L 543.180201 410.188559 
L 543.427039 412.130909 
L 543.764129 406.626683 
L 544.110564 411.156704 
L 544.43858 399.036529 
L 545.295804 378.566265 
L 545.866312 361.286312 
L 546.597328 350.318228 
L 546.941033 349.238874 
L 547.628673 344.152769 
L 547.95392 344.689373 
L 548.454634 323.561319 
L 548.882938 323.608387 
L 548.964653 314.656098 
L 549.305589 320.175457 
L 549.63595 330.299937 
L 549.970272 322.052274 
L 550.322052 292.684367 
L 550.684215 302.263418 
L 550.969085 327.251578 
L 551.304676 324.358534 
L 551.898295 328.314402 
L 552.182319 339.678027 
L 552.748751 310.736701 
L 552.99309 321.826238 
L 553.322912 285.280299 
L 553.665732 278.845206 
L 554.000054 280.27196 
L 554.331492 274.685319 
L 554.672505 282.849244 
L 555.002174 274.095164 
L 555.338303 253.096161 
L 555.681546 261.562098 
L 556.010523 255.469441 
L 556.345999 234.968017 
L 556.681782 222.089728 
L 557.022795 226.258082 
L 557.712358 241.042432 
L 558.355122 285.942273 
L 558.97166 283.888832 
L 560.140902 246.483394 
L 560.38551 223.127559 
L 561.053423 238.727454 
L 561.389398 236.618365 
L 561.771134 239.638816 
L 562.071962 223.586605 
L 562.393902 227.755751 
L 562.839126 224.276731 
L 563.255202 226.826063 
L 563.401828 223.578915 
L 563.844899 196.846136 
L 564.231519 206.931813 
L 564.410677 230.992344 
L 564.77134 220.479762 
L 565.719393 211.684338 
L 566.155042 215.505426 
L 566.632376 229.715021 
L 566.828839 222.479994 
L 567.428572 246.412554 
L 568.574626 187.141457 
L 569.517911 207.13723 
L 569.855578 206.79956 
L 570.52676 197.282601 
L 570.86412 182.368086 
L 571.197519 162.457155 
L 571.677121 154.631389 
L 571.871354 166.326027 
L 572.20879 167.173418 
L 572.54938 165.022697 
L 572.984222 135.566265 
L 573.530312 160.513803 
L 574.108395 148.309295 
L 574.539276 141.83232 
L 574.995229 160.490738 
L 575.349393 149.72555 
L 575.671564 132.846948 
L 576.005347 134.366349 
L 576.347283 127.347818 
L 576.868916 124.115255 
L 577.160707 136.47217 
L 577.683801 137.750891 
L 577.813546 125.456187 
L 578.51926 114.831676 
L 579.029933 116.786882 
L 579.408093 121.285408 
L 579.755758 122.045764 
L 580.039359 135.366962 
L 580.375988 138.690572 
L 580.716117 122.069622 
L 581.048554 130.181143 
L 581.38403 109.737853 
L 582.126775 144.995264 
L 582.39484 141.814924 
L 582.72897 143.383351 
L 583.070213 136.531271 
L 583.400267 133.87582 
L 583.737319 137.995767 
L 584.072833 137.448117 
L 584.56128 135.259698 
L 584.929633 147.48227 
L 585.570206 159.61768 
L 585.855114 174.764283 
L 586.03458 170.246584 
L 586.778594 181.586686 
L 587.336105 194.084293 
L 587.453352 191.981078 
L 587.788328 194.715659 
L 588.166141 175.214802 
L 588.797946 164.351594 
L 589.204062 168.17174 
L 589.468512 154.299015 
L 590.202874 131.905277 
L 590.982767 135.994997 
L 591.828185 157.303445 
L 591.87706 157.131739 
L 592.004344 158.343856 
L 592.328476 171.891426 
L 592.730938 205.134542 
L 593.013155 202.767851 
L 593.33894 202.872872 
L 593.6728 207.032025 
L 594.009391 217.071885 
L 594.345097 204.145193 
L 594.67988 184.716505 
L 595.018701 175.7345 
L 595.37325 148.782842 
L 595.888115 171.106171 
L 596.115765 200.556067 
L 596.371024 186.308983 
L 597.116923 230.098753 
L 597.486815 233.58435 
L 598.318313 237.394467 
L 598.726621 238.073567 
L 599.076132 251.363929 
L 599.40184 243.795385 
L 599.740546 271.547246 
L 600.207804 274.001569 
L 600.871718 278.896325 
L 601.168778 264.902335 
L 601.986432 281.844381 
L 602.359516 286.339336 
L 602.984937 256.122015 
L 603.674192 272.679658 
L 604.163831 255.693525 
L 604.647509 257.270597 
L 604.672928 258.01155 
L 604.776677 257.181277 
L 605.112807 262.509909 
L 605.450397 251.307242 
L 605.786296 255.446968 
L 606.123386 284.074753 
L 606.457708 264.173606 
L 606.792991 253.264752 
L 607.128774 258.053272 
L 607.464788 267.868811 
L 608.271906 276.244699 
L 608.492903 276.529276 
L 608.81142 269.784762 
L 609.144973 278.22317 
L 609.484178 283.30512 
L 609.817539 274.400343 
L 610.156552 276.470499 
L 610.580896 280.51894 
L 610.826273 270.911746 
L 611.160979 273.122627 
L 611.500608 276.884169 
L 611.832968 289.701881 
L 612.16929 297.605723 
L 612.505381 282.39138 
L 612.842548 301.925769 
L 613.183407 298.138582 
L 613.543301 296.108101 
L 613.891659 311.483463 
L 614.492392 350.809638 
L 614.695777 349.940222 
L 614.949499 354.236174 
L 615.503279 348.048522 
L 615.684169 339.278771 
L 616.116472 352.587555 
L 616.286325 353.467862 
L 616.538508 365.833181 
L 618.338401 326.109192 
L 618.691489 325.768333 
L 619.120331 323.045569 
L 619.353749 320.75593 
L 620.211319 354.492622 
L 620.574212 362.811223 
L 621.109727 365.448038 
L 621.319842 346.663277 
L 621.500884 358.581964 
L 622.130689 365.744658 
L 622.353455 372.322229 
L 622.636364 374.512124 
L 622.636364 374.512124 
" clip-path="url(#p85bf05dad2)" style="fill: none; stroke: #008000; stroke-width: 1.5; stroke-linecap: square"/>
   </g>
   <g id="patch_3">
    <path d="M 90 448.56 
L 90 60.48 
" style="fill: none; stroke: #000000; stroke-width: 0.8; stroke-linejoin: miter; stroke-linecap: square"/>
   </g>
   <g id="patch_4">
    <path d="M 648 448.56 
L 648 60.48 
" style="fill: none; stroke: #000000; stroke-width: 0.8; stroke-linejoin: miter; stroke-linecap: square"/>
   </g>
   <g id="patch_5">
    <path d="M 90 448.56 
L 648 448.56 
" style="fill: none; stroke: #000000; stroke-width: 0.8; stroke-linejoin: miter; stroke-linecap: square"/>
   </g>
   <g id="patch_6">
    <path d="M 90 60.48 
L 648 60.48 
" style="fill: none; stroke: #000000; stroke-width: 0.8; stroke-linejoin: miter; stroke-linecap: square"/>
   </g>
   <g id="legend_1">
    <g id="patch_7">
     <path d="M 525.085938 97.83625 
L 641 97.83625 
Q 643 97.83625 643 95.83625 
L 643 67.48 
Q 643 65.48 641 65.48 
L 525.085938 65.48 
Q 523.085938 65.48 523.085938 67.48 
L 523.085938 95.83625 
Q 523.085938 97.83625 525.085938 97.83625 
z
" style="fill: #ffffff; opacity: 0.8; stroke: #cccccc; stroke-linejoin: miter"/>
    </g>
    <g id="line2d_27">
     <path d="M 527.085938 73.578438 
L 537.085938 73.578438 
L 547.085938 73.578438 
" style="fill: none; stroke-dasharray: 9.6,2.4,1.5,2.4; stroke-dashoffset: 0; stroke: #ff0000; stroke-width: 1.5"/>
    </g>
    <g id="text_15">
     <!-- OptiTrack Error Y -->
     <g transform="translate(555.085938 77.078438)scale(0.1 -0.1)">
      <defs>
       <path id="DejaVuSans-4f" d="M 2522 4238 
Q 1834 4238 1429 3725 
Q 1025 3213 1025 2328 
Q 1025 1447 1429 934 
Q 1834 422 2522 422 
Q 3209 422 3611 934 
Q 4013 1447 4013 2328 
Q 4013 3213 3611 3725 
Q 3209 4238 2522 4238 
z
M 2522 4750 
Q 3503 4750 4090 4092 
Q 4678 3434 4678 2328 
Q 4678 1225 4090 567 
Q 3503 -91 2522 -91 
Q 1538 -91 948 565 
Q 359 1222 359 2328 
Q 359 3434 948 4092 
Q 1538 4750 2522 4750 
z
" transform="scale(0.015625)"/>
       <path id="DejaVuSans-70" d="M 1159 525 
L 1159 -1331 
L 581 -1331 
L 581 3500 
L 1159 3500 
L 1159 2969 
Q 1341 3281 1617 3432 
Q 1894 3584 2278 3584 
Q 2916 3584 3314 3078 
Q 3713 2572 3713 1747 
Q 3713 922 3314 415 
Q 2916 -91 2278 -91 
Q 1894 -91 1617 61 
Q 1341 213 1159 525 
z
M 3116 1747 
Q 3116 2381 2855 2742 
Q 2594 3103 2138 3103 
Q 1681 3103 1420 2742 
Q 1159 2381 1159 1747 
Q 1159 1113 1420 752 
Q 1681 391 2138 391 
Q 2594 391 2855 752 
Q 3116 1113 3116 1747 
z
" transform="scale(0.015625)"/>
       <path id="DejaVuSans-74" d="M 1172 4494 
L 1172 3500 
L 2356 3500 
L 2356 3053 
L 1172 3053 
L 1172 1153 
Q 1172 725 1289 603 
Q 1406 481 1766 481 
L 2356 481 
L 2356 0 
L 1766 0 
Q 1100 0 847 248 
Q 594 497 594 1153 
L 594 3053 
L 172 3053 
L 172 3500 
L 594 3500 
L 594 4494 
L 1172 4494 
z
" transform="scale(0.015625)"/>
       <path id="DejaVuSans-61" d="M 2194 1759 
Q 1497 1759 1228 1600 
Q 959 1441 959 1056 
Q 959 750 1161 570 
Q 1363 391 1709 391 
Q 2188 391 2477 730 
Q 2766 1069 2766 1631 
L 2766 1759 
L 2194 1759 
z
M 3341 1997 
L 3341 0 
L 2766 0 
L 2766 531 
Q 2569 213 2275 61 
Q 1981 -91 1556 -91 
Q 1019 -91 701 211 
Q 384 513 384 1019 
Q 384 1609 779 1909 
Q 1175 2209 1959 2209 
L 2766 2209 
L 2766 2266 
Q 2766 2663 2505 2880 
Q 2244 3097 1772 3097 
Q 1472 3097 1187 3025 
Q 903 2953 641 2809 
L 641 3341 
Q 956 3463 1253 3523 
Q 1550 3584 1831 3584 
Q 2591 3584 2966 3190 
Q 3341 2797 3341 1997 
z
" transform="scale(0.015625)"/>
       <path id="DejaVuSans-63" d="M 3122 3366 
L 3122 2828 
Q 2878 2963 2633 3030 
Q 2388 3097 2138 3097 
Q 1578 3097 1268 2742 
Q 959 2388 959 1747 
Q 959 1106 1268 751 
Q 1578 397 2138 397 
Q 2388 397 2633 464 
Q 2878 531 3122 666 
L 3122 134 
Q 2881 22 2623 -34 
Q 2366 -91 2075 -91 
Q 1284 -91 818 406 
Q 353 903 353 1747 
Q 353 2603 823 3093 
Q 1294 3584 2113 3584 
Q 2378 3584 2631 3529 
Q 2884 3475 3122 3366 
z
" transform="scale(0.015625)"/>
       <path id="DejaVuSans-6b" d="M 581 4863 
L 1159 4863 
L 1159 1991 
L 2875 3500 
L 3609 3500 
L 1753 1863 
L 3688 0 
L 2938 0 
L 1159 1709 
L 1159 0 
L 581 0 
L 581 4863 
z
" transform="scale(0.015625)"/>
      </defs>
      <use xlink:href="#DejaVuSans-4f"/>
      <use xlink:href="#DejaVuSans-70" x="78.710938"/>
      <use xlink:href="#DejaVuSans-74" x="142.1875"/>
      <use xlink:href="#DejaVuSans-69" x="181.396484"/>
      <use xlink:href="#DejaVuSans-54" x="209.179688"/>
      <use xlink:href="#DejaVuSans-72" x="255.513672"/>
      <use xlink:href="#DejaVuSans-61" x="296.626953"/>
      <use xlink:href="#DejaVuSans-63" x="357.90625"/>
      <use xlink:href="#DejaVuSans-6b" x="412.886719"/>
      <use xlink:href="#DejaVuSans-20" x="470.796875"/>
      <use xlink:href="#DejaVuSans-45" x="502.583984"/>
      <use xlink:href="#DejaVuSans-72" x="565.767578"/>
      <use xlink:href="#DejaVuSans-72" x="605.130859"/>
      <use xlink:href="#DejaVuSans-6f" x="643.994141"/>
      <use xlink:href="#DejaVuSans-72" x="705.175781"/>
      <use xlink:href="#DejaVuSans-20" x="746.289062"/>
      <use xlink:href="#DejaVuSans-59" x="778.076172"/>
     </g>
    </g>
    <g id="line2d_28">
     <path d="M 527.085938 88.256563 
L 537.085938 88.256563 
L 547.085938 88.256563 
" style="fill: none; stroke: #008000; stroke-width: 1.5; stroke-linecap: square"/>
    </g>
    <g id="text_16">
     <!-- Kalman Error Y -->
     <g transform="translate(555.085938 91.756563)scale(0.1 -0.1)">
      <defs>
       <path id="DejaVuSans-4b" d="M 628 4666 
L 1259 4666 
L 1259 2694 
L 3353 4666 
L 4166 4666 
L 1850 2491 
L 4331 0 
L 3500 0 
L 1259 2247 
L 1259 0 
L 628 0 
L 628 4666 
z
" transform="scale(0.015625)"/>
       <path id="DejaVuSans-6c" d="M 603 4863 
L 1178 4863 
L 1178 0 
L 603 0 
L 603 4863 
z
" transform="scale(0.015625)"/>
       <path id="DejaVuSans-6e" d="M 3513 2113 
L 3513 0 
L 2938 0 
L 2938 2094 
Q 2938 2591 2744 2837 
Q 2550 3084 2163 3084 
Q 1697 3084 1428 2787 
Q 1159 2491 1159 1978 
L 1159 0 
L 581 0 
L 581 3500 
L 1159 3500 
L 1159 2956 
Q 1366 3272 1645 3428 
Q 1925 3584 2291 3584 
Q 2894 3584 3203 3211 
Q 3513 2838 3513 2113 
z
" transform="scale(0.015625)"/>
      </defs>
      <use xlink:href="#DejaVuSans-4b"/>
      <use xlink:href="#DejaVuSans-61" x="63.826172"/>
      <use xlink:href="#DejaVuSans-6c" x="125.105469"/>
      <use xlink:href="#DejaVuSans-6d" x="152.888672"/>
      <use xlink:href="#DejaVuSans-61" x="250.300781"/>
      <use xlink:href="#DejaVuSans-6e" x="311.580078"/>
      <use xlink:href="#DejaVuSans-20" x="374.958984"/>
      <use xlink:href="#DejaVuSans-45" x="406.746094"/>
      <use xlink:href="#DejaVuSans-72" x="469.929688"/>
      <use xlink:href="#DejaVuSans-72" x="509.292969"/>
      <use xlink:href="#DejaVuSans-6f" x="548.15625"/>
      <use xlink:href="#DejaVuSans-72" x="609.337891"/>
      <use xlink:href="#DejaVuSans-20" x="650.451172"/>
      <use xlink:href="#DejaVuSans-59" x="682.238281"/>
     </g>
    </g>
   </g>
  </g>
 </g>
 <defs>
  <clipPath id="p85bf05dad2">
   <rect x="90" y="60.48" width="558" height="388.08"/>
  </clipPath>
 </defs>
</svg>
