<?xml version="1.0" encoding="utf-8" standalone="no"?>
<!DOCTYPE svg PUBLIC "-//W3C//DTD SVG 1.1//EN"
  "http://www.w3.org/Graphics/SVG/1.1/DTD/svg11.dtd">
<svg xmlns:xlink="http://www.w3.org/1999/xlink" width="720pt" height="504pt" viewBox="0 0 720 504" xmlns="http://www.w3.org/2000/svg" version="1.1">
 <metadata>
  <rdf:RDF xmlns:dc="http://purl.org/dc/elements/1.1/" xmlns:cc="http://creativecommons.org/ns#" xmlns:rdf="http://www.w3.org/1999/02/22-rdf-syntax-ns#">
   <cc:Work>
    <dc:type rdf:resource="http://purl.org/dc/dcmitype/StillImage"/>
    <dc:date>2024-02-15T17:06:39.621171</dc:date>
    <dc:format>image/svg+xml</dc:format>
    <dc:creator>
     <cc:Agent>
      <dc:title>Matplotlib v3.5.1, https://matplotlib.org/</dc:title>
     </cc:Agent>
    </dc:creator>
   </cc:Work>
  </rdf:RDF>
 </metadata>
 <defs>
  <style type="text/css">*{stroke-linejoin: round; stroke-linecap: butt}</style>
 </defs>
 <g id="figure_1">
  <g id="patch_1">
   <path d="M 0 504 
L 720 504 
L 720 0 
L 0 0 
z
" style="fill: #ffffff"/>
  </g>
  <g id="axes_1">
   <g id="patch_2">
    <path d="M 90 448.56 
L 648 448.56 
L 648 60.48 
L 90 60.48 
z
" style="fill: #ffffff"/>
   </g>
   <g id="matplotlib.axis_1">
    <g id="xtick_1">
     <g id="line2d_1">
      <path d="M 164.798108 448.56 
L 164.798108 60.48 
" clip-path="url(#pa658fb3518)" style="fill: none; stroke: #b0b0b0; stroke-width: 0.8; stroke-linecap: square"/>
     </g>
     <g id="line2d_2">
      <defs>
       <path id="mc145aadf56" d="M 0 0 
L 0 3.5 
" style="stroke: #000000; stroke-width: 0.8"/>
      </defs>
      <g>
       <use xlink:href="#mc145aadf56" x="164.798108" y="448.56" style="stroke: #000000; stroke-width: 0.8"/>
      </g>
     </g>
     <g id="text_1">
      <!-- 10 -->
      <g transform="translate(158.435608 463.158437)scale(0.1 -0.1)">
       <defs>
        <path id="DejaVuSans-31" d="M 794 531 
L 1825 531 
L 1825 4091 
L 703 3866 
L 703 4441 
L 1819 4666 
L 2450 4666 
L 2450 531 
L 3481 531 
L 3481 0 
L 794 0 
L 794 531 
z
" transform="scale(0.015625)"/>
        <path id="DejaVuSans-30" d="M 2034 4250 
Q 1547 4250 1301 3770 
Q 1056 3291 1056 2328 
Q 1056 1369 1301 889 
Q 1547 409 2034 409 
Q 2525 409 2770 889 
Q 3016 1369 3016 2328 
Q 3016 3291 2770 3770 
Q 2525 4250 2034 4250 
z
M 2034 4750 
Q 2819 4750 3233 4129 
Q 3647 3509 3647 2328 
Q 3647 1150 3233 529 
Q 2819 -91 2034 -91 
Q 1250 -91 836 529 
Q 422 1150 422 2328 
Q 422 3509 836 4129 
Q 1250 4750 2034 4750 
z
" transform="scale(0.015625)"/>
       </defs>
       <use xlink:href="#DejaVuSans-31"/>
       <use xlink:href="#DejaVuSans-30" x="63.623047"/>
      </g>
     </g>
    </g>
    <g id="xtick_2">
     <g id="line2d_3">
      <path d="M 265.603802 448.56 
L 265.603802 60.48 
" clip-path="url(#pa658fb3518)" style="fill: none; stroke: #b0b0b0; stroke-width: 0.8; stroke-linecap: square"/>
     </g>
     <g id="line2d_4">
      <g>
       <use xlink:href="#mc145aadf56" x="265.603802" y="448.56" style="stroke: #000000; stroke-width: 0.8"/>
      </g>
     </g>
     <g id="text_2">
      <!-- 20 -->
      <g transform="translate(259.241302 463.158437)scale(0.1 -0.1)">
       <defs>
        <path id="DejaVuSans-32" d="M 1228 531 
L 3431 531 
L 3431 0 
L 469 0 
L 469 531 
Q 828 903 1448 1529 
Q 2069 2156 2228 2338 
Q 2531 2678 2651 2914 
Q 2772 3150 2772 3378 
Q 2772 3750 2511 3984 
Q 2250 4219 1831 4219 
Q 1534 4219 1204 4116 
Q 875 4013 500 3803 
L 500 4441 
Q 881 4594 1212 4672 
Q 1544 4750 1819 4750 
Q 2544 4750 2975 4387 
Q 3406 4025 3406 3419 
Q 3406 3131 3298 2873 
Q 3191 2616 2906 2266 
Q 2828 2175 2409 1742 
Q 1991 1309 1228 531 
z
" transform="scale(0.015625)"/>
       </defs>
       <use xlink:href="#DejaVuSans-32"/>
       <use xlink:href="#DejaVuSans-30" x="63.623047"/>
      </g>
     </g>
    </g>
    <g id="xtick_3">
     <g id="line2d_5">
      <path d="M 366.409496 448.56 
L 366.409496 60.48 
" clip-path="url(#pa658fb3518)" style="fill: none; stroke: #b0b0b0; stroke-width: 0.8; stroke-linecap: square"/>
     </g>
     <g id="line2d_6">
      <g>
       <use xlink:href="#mc145aadf56" x="366.409496" y="448.56" style="stroke: #000000; stroke-width: 0.8"/>
      </g>
     </g>
     <g id="text_3">
      <!-- 30 -->
      <g transform="translate(360.046996 463.158437)scale(0.1 -0.1)">
       <defs>
        <path id="DejaVuSans-33" d="M 2597 2516 
Q 3050 2419 3304 2112 
Q 3559 1806 3559 1356 
Q 3559 666 3084 287 
Q 2609 -91 1734 -91 
Q 1441 -91 1130 -33 
Q 819 25 488 141 
L 488 750 
Q 750 597 1062 519 
Q 1375 441 1716 441 
Q 2309 441 2620 675 
Q 2931 909 2931 1356 
Q 2931 1769 2642 2001 
Q 2353 2234 1838 2234 
L 1294 2234 
L 1294 2753 
L 1863 2753 
Q 2328 2753 2575 2939 
Q 2822 3125 2822 3475 
Q 2822 3834 2567 4026 
Q 2313 4219 1838 4219 
Q 1578 4219 1281 4162 
Q 984 4106 628 3988 
L 628 4550 
Q 988 4650 1302 4700 
Q 1616 4750 1894 4750 
Q 2613 4750 3031 4423 
Q 3450 4097 3450 3541 
Q 3450 3153 3228 2886 
Q 3006 2619 2597 2516 
z
" transform="scale(0.015625)"/>
       </defs>
       <use xlink:href="#DejaVuSans-33"/>
       <use xlink:href="#DejaVuSans-30" x="63.623047"/>
      </g>
     </g>
    </g>
    <g id="xtick_4">
     <g id="line2d_7">
      <path d="M 467.21519 448.56 
L 467.21519 60.48 
" clip-path="url(#pa658fb3518)" style="fill: none; stroke: #b0b0b0; stroke-width: 0.8; stroke-linecap: square"/>
     </g>
     <g id="line2d_8">
      <g>
       <use xlink:href="#mc145aadf56" x="467.21519" y="448.56" style="stroke: #000000; stroke-width: 0.8"/>
      </g>
     </g>
     <g id="text_4">
      <!-- 40 -->
      <g transform="translate(460.85269 463.158437)scale(0.1 -0.1)">
       <defs>
        <path id="DejaVuSans-34" d="M 2419 4116 
L 825 1625 
L 2419 1625 
L 2419 4116 
z
M 2253 4666 
L 3047 4666 
L 3047 1625 
L 3713 1625 
L 3713 1100 
L 3047 1100 
L 3047 0 
L 2419 0 
L 2419 1100 
L 313 1100 
L 313 1709 
L 2253 4666 
z
" transform="scale(0.015625)"/>
       </defs>
       <use xlink:href="#DejaVuSans-34"/>
       <use xlink:href="#DejaVuSans-30" x="63.623047"/>
      </g>
     </g>
    </g>
    <g id="xtick_5">
     <g id="line2d_9">
      <path d="M 568.020884 448.56 
L 568.020884 60.48 
" clip-path="url(#pa658fb3518)" style="fill: none; stroke: #b0b0b0; stroke-width: 0.8; stroke-linecap: square"/>
     </g>
     <g id="line2d_10">
      <g>
       <use xlink:href="#mc145aadf56" x="568.020884" y="448.56" style="stroke: #000000; stroke-width: 0.8"/>
      </g>
     </g>
     <g id="text_5">
      <!-- 50 -->
      <g transform="translate(561.658384 463.158437)scale(0.1 -0.1)">
       <defs>
        <path id="DejaVuSans-35" d="M 691 4666 
L 3169 4666 
L 3169 4134 
L 1269 4134 
L 1269 2991 
Q 1406 3038 1543 3061 
Q 1681 3084 1819 3084 
Q 2600 3084 3056 2656 
Q 3513 2228 3513 1497 
Q 3513 744 3044 326 
Q 2575 -91 1722 -91 
Q 1428 -91 1123 -41 
Q 819 9 494 109 
L 494 744 
Q 775 591 1075 516 
Q 1375 441 1709 441 
Q 2250 441 2565 725 
Q 2881 1009 2881 1497 
Q 2881 1984 2565 2268 
Q 2250 2553 1709 2553 
Q 1456 2553 1204 2497 
Q 953 2441 691 2322 
L 691 4666 
z
" transform="scale(0.015625)"/>
       </defs>
       <use xlink:href="#DejaVuSans-35"/>
       <use xlink:href="#DejaVuSans-30" x="63.623047"/>
      </g>
     </g>
    </g>
    <g id="text_6">
     <!-- Time (s) -->
     <g transform="translate(348.671094 476.836563)scale(0.1 -0.1)">
      <defs>
       <path id="DejaVuSans-54" d="M -19 4666 
L 3928 4666 
L 3928 4134 
L 2272 4134 
L 2272 0 
L 1638 0 
L 1638 4134 
L -19 4134 
L -19 4666 
z
" transform="scale(0.015625)"/>
       <path id="DejaVuSans-69" d="M 603 3500 
L 1178 3500 
L 1178 0 
L 603 0 
L 603 3500 
z
M 603 4863 
L 1178 4863 
L 1178 4134 
L 603 4134 
L 603 4863 
z
" transform="scale(0.015625)"/>
       <path id="DejaVuSans-6d" d="M 3328 2828 
Q 3544 3216 3844 3400 
Q 4144 3584 4550 3584 
Q 5097 3584 5394 3201 
Q 5691 2819 5691 2113 
L 5691 0 
L 5113 0 
L 5113 2094 
Q 5113 2597 4934 2840 
Q 4756 3084 4391 3084 
Q 3944 3084 3684 2787 
Q 3425 2491 3425 1978 
L 3425 0 
L 2847 0 
L 2847 2094 
Q 2847 2600 2669 2842 
Q 2491 3084 2119 3084 
Q 1678 3084 1418 2786 
Q 1159 2488 1159 1978 
L 1159 0 
L 581 0 
L 581 3500 
L 1159 3500 
L 1159 2956 
Q 1356 3278 1631 3431 
Q 1906 3584 2284 3584 
Q 2666 3584 2933 3390 
Q 3200 3197 3328 2828 
z
" transform="scale(0.015625)"/>
       <path id="DejaVuSans-65" d="M 3597 1894 
L 3597 1613 
L 953 1613 
Q 991 1019 1311 708 
Q 1631 397 2203 397 
Q 2534 397 2845 478 
Q 3156 559 3463 722 
L 3463 178 
Q 3153 47 2828 -22 
Q 2503 -91 2169 -91 
Q 1331 -91 842 396 
Q 353 884 353 1716 
Q 353 2575 817 3079 
Q 1281 3584 2069 3584 
Q 2775 3584 3186 3129 
Q 3597 2675 3597 1894 
z
M 3022 2063 
Q 3016 2534 2758 2815 
Q 2500 3097 2075 3097 
Q 1594 3097 1305 2825 
Q 1016 2553 972 2059 
L 3022 2063 
z
" transform="scale(0.015625)"/>
       <path id="DejaVuSans-20" transform="scale(0.015625)"/>
       <path id="DejaVuSans-28" d="M 1984 4856 
Q 1566 4138 1362 3434 
Q 1159 2731 1159 2009 
Q 1159 1288 1364 580 
Q 1569 -128 1984 -844 
L 1484 -844 
Q 1016 -109 783 600 
Q 550 1309 550 2009 
Q 550 2706 781 3412 
Q 1013 4119 1484 4856 
L 1984 4856 
z
" transform="scale(0.015625)"/>
       <path id="DejaVuSans-73" d="M 2834 3397 
L 2834 2853 
Q 2591 2978 2328 3040 
Q 2066 3103 1784 3103 
Q 1356 3103 1142 2972 
Q 928 2841 928 2578 
Q 928 2378 1081 2264 
Q 1234 2150 1697 2047 
L 1894 2003 
Q 2506 1872 2764 1633 
Q 3022 1394 3022 966 
Q 3022 478 2636 193 
Q 2250 -91 1575 -91 
Q 1294 -91 989 -36 
Q 684 19 347 128 
L 347 722 
Q 666 556 975 473 
Q 1284 391 1588 391 
Q 1994 391 2212 530 
Q 2431 669 2431 922 
Q 2431 1156 2273 1281 
Q 2116 1406 1581 1522 
L 1381 1569 
Q 847 1681 609 1914 
Q 372 2147 372 2553 
Q 372 3047 722 3315 
Q 1072 3584 1716 3584 
Q 2034 3584 2315 3537 
Q 2597 3491 2834 3397 
z
" transform="scale(0.015625)"/>
       <path id="DejaVuSans-29" d="M 513 4856 
L 1013 4856 
Q 1481 4119 1714 3412 
Q 1947 2706 1947 2009 
Q 1947 1309 1714 600 
Q 1481 -109 1013 -844 
L 513 -844 
Q 928 -128 1133 580 
Q 1338 1288 1338 2009 
Q 1338 2731 1133 3434 
Q 928 4138 513 4856 
z
" transform="scale(0.015625)"/>
      </defs>
      <use xlink:href="#DejaVuSans-54"/>
      <use xlink:href="#DejaVuSans-69" x="57.958984"/>
      <use xlink:href="#DejaVuSans-6d" x="85.742188"/>
      <use xlink:href="#DejaVuSans-65" x="183.154297"/>
      <use xlink:href="#DejaVuSans-20" x="244.677734"/>
      <use xlink:href="#DejaVuSans-28" x="276.464844"/>
      <use xlink:href="#DejaVuSans-73" x="315.478516"/>
      <use xlink:href="#DejaVuSans-29" x="367.578125"/>
     </g>
    </g>
   </g>
   <g id="matplotlib.axis_2">
    <g id="ytick_1">
     <g id="line2d_11">
      <path d="M 90 427.721776 
L 648 427.721776 
" clip-path="url(#pa658fb3518)" style="fill: none; stroke: #b0b0b0; stroke-width: 0.8; stroke-linecap: square"/>
     </g>
     <g id="line2d_12">
      <defs>
       <path id="m45fe168115" d="M 0 0 
L -3.5 0 
" style="stroke: #000000; stroke-width: 0.8"/>
      </defs>
      <g>
       <use xlink:href="#m45fe168115" x="90" y="427.721776" style="stroke: #000000; stroke-width: 0.8"/>
      </g>
     </g>
     <g id="text_7">
      <!-- −0.3 -->
      <g transform="translate(58.717187 431.520994)scale(0.1 -0.1)">
       <defs>
        <path id="DejaVuSans-2212" d="M 678 2272 
L 4684 2272 
L 4684 1741 
L 678 1741 
L 678 2272 
z
" transform="scale(0.015625)"/>
        <path id="DejaVuSans-2e" d="M 684 794 
L 1344 794 
L 1344 0 
L 684 0 
L 684 794 
z
" transform="scale(0.015625)"/>
       </defs>
       <use xlink:href="#DejaVuSans-2212"/>
       <use xlink:href="#DejaVuSans-30" x="83.789062"/>
       <use xlink:href="#DejaVuSans-2e" x="147.412109"/>
       <use xlink:href="#DejaVuSans-33" x="179.199219"/>
      </g>
     </g>
    </g>
    <g id="ytick_2">
     <g id="line2d_13">
      <path d="M 90 367.971618 
L 648 367.971618 
" clip-path="url(#pa658fb3518)" style="fill: none; stroke: #b0b0b0; stroke-width: 0.8; stroke-linecap: square"/>
     </g>
     <g id="line2d_14">
      <g>
       <use xlink:href="#m45fe168115" x="90" y="367.971618" style="stroke: #000000; stroke-width: 0.8"/>
      </g>
     </g>
     <g id="text_8">
      <!-- −0.2 -->
      <g transform="translate(58.717187 371.770837)scale(0.1 -0.1)">
       <use xlink:href="#DejaVuSans-2212"/>
       <use xlink:href="#DejaVuSans-30" x="83.789062"/>
       <use xlink:href="#DejaVuSans-2e" x="147.412109"/>
       <use xlink:href="#DejaVuSans-32" x="179.199219"/>
      </g>
     </g>
    </g>
    <g id="ytick_3">
     <g id="line2d_15">
      <path d="M 90 308.221461 
L 648 308.221461 
" clip-path="url(#pa658fb3518)" style="fill: none; stroke: #b0b0b0; stroke-width: 0.8; stroke-linecap: square"/>
     </g>
     <g id="line2d_16">
      <g>
       <use xlink:href="#m45fe168115" x="90" y="308.221461" style="stroke: #000000; stroke-width: 0.8"/>
      </g>
     </g>
     <g id="text_9">
      <!-- −0.1 -->
      <g transform="translate(58.717187 312.02068)scale(0.1 -0.1)">
       <use xlink:href="#DejaVuSans-2212"/>
       <use xlink:href="#DejaVuSans-30" x="83.789062"/>
       <use xlink:href="#DejaVuSans-2e" x="147.412109"/>
       <use xlink:href="#DejaVuSans-31" x="179.199219"/>
      </g>
     </g>
    </g>
    <g id="ytick_4">
     <g id="line2d_17">
      <path d="M 90 248.471304 
L 648 248.471304 
" clip-path="url(#pa658fb3518)" style="fill: none; stroke: #b0b0b0; stroke-width: 0.8; stroke-linecap: square"/>
     </g>
     <g id="line2d_18">
      <g>
       <use xlink:href="#m45fe168115" x="90" y="248.471304" style="stroke: #000000; stroke-width: 0.8"/>
      </g>
     </g>
     <g id="text_10">
      <!-- 0.0 -->
      <g transform="translate(67.096875 252.270522)scale(0.1 -0.1)">
       <use xlink:href="#DejaVuSans-30"/>
       <use xlink:href="#DejaVuSans-2e" x="63.623047"/>
       <use xlink:href="#DejaVuSans-30" x="95.410156"/>
      </g>
     </g>
    </g>
    <g id="ytick_5">
     <g id="line2d_19">
      <path d="M 90 188.721146 
L 648 188.721146 
" clip-path="url(#pa658fb3518)" style="fill: none; stroke: #b0b0b0; stroke-width: 0.8; stroke-linecap: square"/>
     </g>
     <g id="line2d_20">
      <g>
       <use xlink:href="#m45fe168115" x="90" y="188.721146" style="stroke: #000000; stroke-width: 0.8"/>
      </g>
     </g>
     <g id="text_11">
      <!-- 0.1 -->
      <g transform="translate(67.096875 192.520365)scale(0.1 -0.1)">
       <use xlink:href="#DejaVuSans-30"/>
       <use xlink:href="#DejaVuSans-2e" x="63.623047"/>
       <use xlink:href="#DejaVuSans-31" x="95.410156"/>
      </g>
     </g>
    </g>
    <g id="ytick_6">
     <g id="line2d_21">
      <path d="M 90 128.970989 
L 648 128.970989 
" clip-path="url(#pa658fb3518)" style="fill: none; stroke: #b0b0b0; stroke-width: 0.8; stroke-linecap: square"/>
     </g>
     <g id="line2d_22">
      <g>
       <use xlink:href="#m45fe168115" x="90" y="128.970989" style="stroke: #000000; stroke-width: 0.8"/>
      </g>
     </g>
     <g id="text_12">
      <!-- 0.2 -->
      <g transform="translate(67.096875 132.770207)scale(0.1 -0.1)">
       <use xlink:href="#DejaVuSans-30"/>
       <use xlink:href="#DejaVuSans-2e" x="63.623047"/>
       <use xlink:href="#DejaVuSans-32" x="95.410156"/>
      </g>
     </g>
    </g>
    <g id="ytick_7">
     <g id="line2d_23">
      <path d="M 90 69.220831 
L 648 69.220831 
" clip-path="url(#pa658fb3518)" style="fill: none; stroke: #b0b0b0; stroke-width: 0.8; stroke-linecap: square"/>
     </g>
     <g id="line2d_24">
      <g>
       <use xlink:href="#m45fe168115" x="90" y="69.220831" style="stroke: #000000; stroke-width: 0.8"/>
      </g>
     </g>
     <g id="text_13">
      <!-- 0.3 -->
      <g transform="translate(67.096875 73.02005)scale(0.1 -0.1)">
       <use xlink:href="#DejaVuSans-30"/>
       <use xlink:href="#DejaVuSans-2e" x="63.623047"/>
       <use xlink:href="#DejaVuSans-33" x="95.410156"/>
      </g>
     </g>
    </g>
    <g id="text_14">
     <!-- Error (Z) -->
     <g transform="translate(52.6375 275.620781)rotate(-90)scale(0.1 -0.1)">
      <defs>
       <path id="DejaVuSans-45" d="M 628 4666 
L 3578 4666 
L 3578 4134 
L 1259 4134 
L 1259 2753 
L 3481 2753 
L 3481 2222 
L 1259 2222 
L 1259 531 
L 3634 531 
L 3634 0 
L 628 0 
L 628 4666 
z
" transform="scale(0.015625)"/>
       <path id="DejaVuSans-72" d="M 2631 2963 
Q 2534 3019 2420 3045 
Q 2306 3072 2169 3072 
Q 1681 3072 1420 2755 
Q 1159 2438 1159 1844 
L 1159 0 
L 581 0 
L 581 3500 
L 1159 3500 
L 1159 2956 
Q 1341 3275 1631 3429 
Q 1922 3584 2338 3584 
Q 2397 3584 2469 3576 
Q 2541 3569 2628 3553 
L 2631 2963 
z
" transform="scale(0.015625)"/>
       <path id="DejaVuSans-6f" d="M 1959 3097 
Q 1497 3097 1228 2736 
Q 959 2375 959 1747 
Q 959 1119 1226 758 
Q 1494 397 1959 397 
Q 2419 397 2687 759 
Q 2956 1122 2956 1747 
Q 2956 2369 2687 2733 
Q 2419 3097 1959 3097 
z
M 1959 3584 
Q 2709 3584 3137 3096 
Q 3566 2609 3566 1747 
Q 3566 888 3137 398 
Q 2709 -91 1959 -91 
Q 1206 -91 779 398 
Q 353 888 353 1747 
Q 353 2609 779 3096 
Q 1206 3584 1959 3584 
z
" transform="scale(0.015625)"/>
       <path id="DejaVuSans-5a" d="M 359 4666 
L 4025 4666 
L 4025 4184 
L 1075 531 
L 4097 531 
L 4097 0 
L 288 0 
L 288 481 
L 3238 4134 
L 359 4134 
L 359 4666 
z
" transform="scale(0.015625)"/>
      </defs>
      <use xlink:href="#DejaVuSans-45"/>
      <use xlink:href="#DejaVuSans-72" x="63.183594"/>
      <use xlink:href="#DejaVuSans-72" x="102.546875"/>
      <use xlink:href="#DejaVuSans-6f" x="141.410156"/>
      <use xlink:href="#DejaVuSans-72" x="202.591797"/>
      <use xlink:href="#DejaVuSans-20" x="243.705078"/>
      <use xlink:href="#DejaVuSans-28" x="275.492188"/>
      <use xlink:href="#DejaVuSans-5a" x="314.505859"/>
      <use xlink:href="#DejaVuSans-29" x="383.011719"/>
     </g>
    </g>
   </g>
   <g id="line2d_25">
    <path d="M 115.363636 111.252436 
L 116.018369 109.942394 
L 116.356234 107.496457 
L 116.691714 106.728113 
L 117.026574 108.368506 
L 117.367904 107.966352 
L 117.747468 117.26348 
L 118.678557 114.051331 
L 119.040605 114.891197 
L 119.098089 119.696117 
L 119.689363 119.015624 
L 119.916695 129.016796 
L 120.588204 132.280285 
L 121.228074 131.706295 
L 121.536045 138.638107 
L 121.951847 143.097211 
L 122.457531 145.146114 
L 122.836763 145.024181 
L 122.980005 150.103418 
L 123.951726 169.377036 
L 125.086898 186.017208 
L 125.633853 196.487833 
L 126.416134 214.213373 
L 126.643779 215.165618 
L 129.251414 268.442304 
L 129.35625 269.412781 
L 130.008291 282.088528 
L 130.339181 290.315157 
L 130.713149 296.230775 
L 131.018482 302.943993 
L 131.355212 306.001811 
L 131.691788 318.870584 
L 132.270521 323.158975 
L 132.451006 325.548891 
L 132.948557 337.482291 
L 133.177773 334.573261 
L 133.493185 345.57603 
L 134.062963 347.629921 
L 134.540325 358.625014 
L 134.719508 354.278045 
L 135.098374 364.738342 
L 135.392372 363.841928 
L 135.832857 372.437261 
L 136.049528 374.211074 
L 136.385229 379.181458 
L 137.058035 385.411278 
L 137.41243 386.927295 
L 138.085323 391.67651 
L 138.421856 389.706154 
L 139.296346 387.744407 
L 139.661066 389.100999 
L 140.191068 391.533929 
L 140.597842 382.796658 
L 141.074988 390.789183 
L 141.20095 389.134225 
L 141.537699 387.626352 
L 141.873223 386.957228 
L 142.226782 376.899687 
L 143.05528 373.235816 
L 143.460555 376.569357 
L 143.552874 373.410199 
L 143.713253 372.868815 
L 144.327613 361.973464 
L 145.108774 355.038448 
L 145.30468 355.119026 
L 145.90598 346.024933 
L 146.706176 326.287594 
L 147.747942 318.053327 
L 147.770448 316.678881 
L 147.922621 314.785461 
L 148.658771 296.765217 
L 150.138705 270.142502 
L 150.458386 260.723767 
L 150.850033 256.493661 
L 151.617783 237.823776 
L 151.954768 229.410653 
L 152.459846 221.970155 
L 153.125914 203.257828 
L 153.660179 203.236196 
L 154.248395 185.259645 
L 154.609674 182.597588 
L 154.967434 176.995314 
L 155.853681 174.226207 
L 156.616739 149.445937 
L 156.985622 141.769628 
L 157.200255 142.195562 
L 157.541796 138.076919 
L 157.881271 129.920747 
L 158.214324 131.135617 
L 158.544435 130.512196 
L 158.92794 131.750531 
L 159.27526 124.605681 
L 159.951258 118.918408 
L 160.560941 132.764888 
L 161.298014 114.626934 
L 161.744306 116.289273 
L 162.153056 110.797395 
L 162.382994 114.947062 
L 162.907164 117.265505 
L 163.452197 116.489601 
L 163.630759 122.52056 
L 164.465853 125.756405 
L 164.685754 124.207537 
L 165.365818 134.350086 
L 165.669694 134.446023 
L 166.008303 138.544636 
L 166.342548 146.610316 
L 166.677524 146.263008 
L 167.020806 150.99261 
L 167.351628 161.75711 
L 167.918224 167.095249 
L 168.161101 171.453858 
L 168.743204 185.302387 
L 169.186015 186.245085 
L 169.370701 193.950697 
L 169.701283 195.041937 
L 170.049362 202.63056 
L 170.379868 207.071597 
L 170.721861 215.619205 
L 171.384073 225.937287 
L 172.068041 243.372904 
L 172.726139 253.433739 
L 173.401945 271.070383 
L 173.827297 270.57262 
L 174.440836 289.706048 
L 174.741049 294.438711 
L 175.096194 297.048576 
L 176.64298 332.682701 
L 176.778551 330.849435 
L 177.14056 335.252047 
L 177.76378 345.672542 
L 178.320954 360.059527 
L 178.947375 367.051329 
L 179.144943 367.904756 
L 179.370959 375.219282 
L 180.117174 381.374937 
L 180.369992 387.439416 
L 180.687135 388.43249 
L 181.028157 395.201096 
L 181.359682 393.520914 
L 182.020461 401.580143 
L 182.360648 399.959076 
L 182.730549 404.924958 
L 183.411143 408.079055 
L 183.722382 407.674333 
L 184.037112 412.29787 
L 184.375452 412.99404 
L 184.716378 413.440726 
L 185.046153 414.860619 
L 185.386551 412.886066 
L 185.719642 411.933815 
L 186.397842 405.509372 
L 186.731327 403.188018 
L 187.101729 396.698985 
L 188.201888 389.318509 
L 188.548957 385.908193 
L 189.009246 374.767747 
L 189.632167 370.151602 
L 190.742488 358.407999 
L 190.907197 351.733038 
L 191.510449 344.54251 
L 191.805134 338.277342 
L 192.323037 331.696889 
L 193.336136 312.797793 
L 193.705903 303.452562 
L 194.004491 299.418315 
L 195.346297 270.713125 
L 195.679955 262.419317 
L 196.109413 246.738765 
L 196.620981 236.010776 
L 197.297104 227.284578 
L 197.950471 211.421487 
L 198.100347 210.983284 
L 198.233178 214.236332 
L 198.980019 192.15413 
L 199.104005 192.346965 
L 199.363658 184.788087 
L 199.653709 180.323431 
L 199.813208 176.13731 
L 200.050298 173.901727 
L 200.722653 162.178746 
L 201.06829 160.759044 
L 201.442249 151.77619 
L 201.74226 151.139072 
L 202.072919 149.440054 
L 202.746523 139.1062 
L 203.163637 130.526011 
L 203.411821 144.232635 
L 204.119746 125.965496 
L 204.454347 125.258259 
L 204.762299 119.394846 
L 205.204639 123.459411 
L 205.734991 114.460825 
L 205.982493 116.201123 
L 206.286503 114.884508 
L 206.479582 118.231391 
L 206.782929 117.98377 
L 207.121548 117.281457 
L 207.444632 115.939289 
L 207.802295 121.811046 
L 208.123571 120.622325 
L 208.468189 120.397766 
L 208.786678 122.563038 
L 209.128383 127.193101 
L 209.46381 127.974222 
L 209.797892 129.722219 
L 210.17882 135.832548 
L 210.46816 136.234808 
L 210.802934 138.155614 
L 211.150003 143.379686 
L 211.598121 154.420566 
L 212.841003 166.371088 
L 213.829308 182.713377 
L 214.173157 190.049706 
L 215.507359 211.237861 
L 217.636103 247.706957 
L 219.203444 278.364303 
L 219.539756 288.992236 
L 219.929154 291.96376 
L 220.660911 301.90377 
L 221.460866 320.843787 
L 221.801216 326.111393 
L 222.138162 336.447764 
L 222.806835 348.037658 
L 223.849091 368.600313 
L 224.545258 371.415282 
L 225.099722 375.635371 
L 225.443571 387.110252 
L 226.308274 396.436989 
L 226.563995 399.85541 
L 226.906681 397.62186 
L 227.242752 396.882759 
L 227.573267 397.643631 
L 227.909761 399.130651 
L 228.582289 400.124478 
L 228.918457 387.864549 
L 229.460547 397.669551 
L 229.79833 401.43608 
L 229.926152 388.369397 
L 230.279221 391.894088 
L 230.60018 396.790841 
L 230.934694 392.638194 
L 231.272707 386.237192 
L 231.913318 387.42832 
L 232.283056 372.243664 
L 233.261045 375.66804 
L 233.622651 367.364371 
L 234.187468 365.211447 
L 234.89122 361.733105 
L 235.629236 351.129635 
L 236.656774 333.259673 
L 236.960044 324.086075 
L 239.314698 282.090385 
L 240.675654 253.222986 
L 241.03524 240.429989 
L 242.640593 212.469273 
L 243.105871 206.623692 
L 243.66467 191.022792 
L 244.004375 188.897825 
L 244.623394 171.75053 
L 244.992305 168.225467 
L 245.313495 166.504092 
L 245.637569 158.934377 
L 246.196079 158.540511 
L 247.410351 135.060971 
L 247.766034 135.253691 
L 248.480958 120.567618 
L 248.767039 121.524021 
L 249.104879 117.498034 
L 249.42853 115.980385 
L 249.893078 115.53665 
L 250.567624 109.241386 
L 251.279683 108.7496 
L 251.669013 108.893864 
L 251.953864 113.823996 
L 252.489513 110.739033 
L 252.829507 119.251171 
L 253.183998 116.273902 
L 253.35239 112.409497 
L 253.730492 117.988521 
L 254.114497 121.754726 
L 254.4677 122.955417 
L 254.871278 135.657722 
L 255.560187 135.692372 
L 255.74148 137.608917 
L 255.948864 145.482582 
L 256.365305 146.73084 
L 256.552404 149.677521 
L 256.81101 151.566248 
L 257.017336 159.651814 
L 257.37302 165.06317 
L 257.823973 167.891081 
L 258.34851 176.850396 
L 259.586373 207.396708 
L 260.094163 210.188465 
L 260.264996 215.682299 
L 260.774131 223.181971 
L 261.143889 234.496622 
L 261.49986 238.229511 
L 261.7014 244.526879 
L 262.371716 255.898111 
L 262.718113 266.845656 
L 263.083775 270.190136 
L 263.402619 279.327379 
L 263.714618 283.243247 
L 264.064725 293.145089 
L 264.725582 305.472202 
L 265.059096 314.496606 
L 265.644909 322.496094 
L 266.049449 331.74446 
L 266.536377 335.679143 
L 267.116748 344.952426 
L 267.621077 356.654388 
L 268.866362 376.149342 
L 269.209029 377.268556 
L 269.540986 375.714251 
L 270.602902 393.971213 
L 270.882657 398.727365 
L 271.220805 397.889583 
L 271.55455 404.260561 
L 272.564803 410.625053 
L 272.901509 411.76225 
L 273.235869 408.707851 
L 273.570576 414.93001 
L 273.90682 416.126898 
L 274.244699 416.203162 
L 274.590192 412.185203 
L 274.929051 413.283364 
L 275.923019 407.968834 
L 277.424564 385.470332 
L 277.713606 387.787997 
L 277.990861 383.935335 
L 278.281557 383.018621 
L 278.611956 378.182151 
L 278.970773 366.482414 
L 279.520786 356.454052 
L 279.903906 353.9749 
L 280.19837 351.231177 
L 280.626943 342.620626 
L 280.963111 339.682033 
L 281.971902 321.786422 
L 284.323134 275.318148 
L 285.000988 259.963268 
L 285.527389 245.51105 
L 285.756365 244.850226 
L 286.340967 230.428159 
L 286.79417 222.721186 
L 287.640646 204.607482 
L 287.845608 205.31884 
L 288.324537 192.455757 
L 288.520769 181.771493 
L 289.516929 167.587507 
L 289.879476 167.329664 
L 290.233044 161.919843 
L 290.641717 150.039891 
L 290.861522 149.975134 
L 291.428301 134.095882 
L 291.840377 134.557963 
L 292.280506 128.997679 
L 292.791564 126.060837 
L 293.081221 129.139092 
L 294.400377 105.337343 
L 294.738064 109.186219 
L 295.072866 103.984801 
L 295.408534 103.133869 
L 295.746971 106.463873 
L 296.088868 106.407236 
L 296.416403 111.129608 
L 296.992948 105.413441 
L 297.336711 109.651549 
L 297.584453 107.169095 
L 297.779185 108.366188 
L 298.134869 114.301879 
L 298.432909 109.68749 
L 298.768557 112.05455 
L 299.45389 120.99095 
L 299.798518 126.188201 
L 300.793139 135.455144 
L 301.124634 136.813858 
L 302.151826 148.990882 
L 302.498588 156.18951 
L 302.850907 158.84205 
L 303.136795 164.168084 
L 303.474847 167.743479 
L 303.811861 184.00242 
L 304.592387 193.60246 
L 304.974643 199.721453 
L 306.337137 234.122204 
L 307.013337 247.955769 
L 307.371539 252.024471 
L 307.44241 259.734401 
L 307.966773 266.233375 
L 308.021955 269.220684 
L 309.379066 297.452546 
L 309.720521 297.704483 
L 310.540809 320.650832 
L 310.865056 321.991113 
L 311.071248 329.49505 
L 311.724376 336.817734 
L 312.062889 344.411958 
L 312.398307 344.526953 
L 313.065182 356.540465 
L 313.44488 357.581571 
L 313.739344 363.402357 
L 314.069993 367.081477 
L 314.455613 365.755326 
L 314.765978 371.615265 
L 315.413491 378.121365 
L 315.784517 376.746908 
L 316.123531 379.909234 
L 316.437068 386.622629 
L 316.837743 386.240028 
L 317.100405 381.300424 
L 317.437188 381.870311 
L 317.802889 391.625365 
L 318.280645 389.900284 
L 318.450132 387.090684 
L 318.779282 394.056999 
L 319.116411 393.084093 
L 319.448234 385.61291 
L 319.810281 387.7961 
L 320.128625 388.760202 
L 320.469234 386.788359 
L 320.802575 380.057205 
L 321.295964 366.941178 
L 321.78093 375.209276 
L 322.343805 357.782087 
L 323.152596 356.865484 
L 323.803589 352.754405 
L 324.071808 353.464785 
L 324.211628 346.984454 
L 324.641566 339.18041 
L 325.240839 338.78754 
L 325.897677 329.242828 
L 326.182181 325.810082 
L 326.515907 320.162513 
L 326.852671 310.702686 
L 327.191684 308.513418 
L 327.526486 300.941282 
L 327.86475 289.583116 
L 328.342141 286.800835 
L 329.228398 268.973979 
L 329.556702 258.54676 
L 330.212309 249.766672 
L 330.606024 239.51012 
L 330.890567 236.277714 
L 331.338348 227.964563 
L 331.712701 215.511824 
L 331.926891 216.383566 
L 332.582691 200.853619 
L 334.025959 173.906089 
L 334.279757 173.493048 
L 334.946555 157.294297 
L 335.27632 155.14438 
L 335.59228 148.428162 
L 337.395173 125.234965 
L 338.404541 115.815135 
L 339.076549 111.193607 
L 339.441712 112.621594 
L 339.766804 112.214774 
L 340.085918 105.931396 
L 340.420336 105.046206 
L 340.832201 106.73617 
L 341.090825 103.544269 
L 341.429146 106.772572 
L 341.76416 103.296789 
L 342.103212 103.736594 
L 342.440379 104.571267 
L 342.792948 109.463705 
L 343.107485 107.142167 
L 343.476089 111.689981 
L 343.77884 110.959982 
L 344.114815 113.234849 
L 344.45329 119.822375 
L 344.789131 119.134002 
L 345.459505 126.304254 
L 346.469739 139.549972 
L 346.807617 144.708028 
L 347.559938 161.272232 
L 347.818428 164.13825 
L 348.152423 174.892642 
L 348.653156 185.751178 
L 349.281326 191.764073 
L 349.526242 197.030493 
L 349.704862 209.987221 
L 350.33732 211.913275 
L 350.8354 221.062571 
L 351.171914 227.809483 
L 351.5121 238.537362 
L 352.401241 251.733282 
L 352.531505 264.087499 
L 353.566887 272.006711 
L 353.914072 278.331677 
L 354.913365 301.150947 
L 355.389064 311.047055 
L 355.756765 315.189982 
L 356.768652 332.747788 
L 357.107319 347.637875 
L 357.495438 347.376015 
L 357.959024 354.911043 
L 358.609518 361.166232 
L 359.454051 374.248589 
L 359.619174 369.363675 
L 360.682167 385.289784 
L 361.029486 384.8236 
L 361.478768 384.485314 
L 361.99071 390.503184 
L 362.313245 389.801416 
L 362.691405 393.375459 
L 362.978928 392.179206 
L 363.314 397.965661 
L 363.65036 393.326566 
L 363.988566 398.15236 
L 364.321638 394.249505 
L 364.658228 387.703372 
L 365.199761 391.124064 
L 365.470211 384.851769 
L 365.712127 390.505157 
L 366.005072 383.542633 
L 366.381347 386.571968 
L 366.674638 376.426159 
L 367.3498 375.487039 
L 368.018982 367.065922 
L 368.367167 346.635656 
L 369.446907 345.606987 
L 369.860387 338.368224 
L 370.206706 336.165778 
L 370.45689 328.672818 
L 371.003037 318.240851 
L 371.579641 309.64047 
L 371.934286 307.665766 
L 372.472742 297.139603 
L 374.489864 260.026218 
L 377.513027 199.52075 
L 378.186112 187.589 
L 378.526779 187.791317 
L 378.874195 175.948876 
L 379.21142 169.60483 
L 379.534071 168.595807 
L 380.217289 157.119274 
L 380.537786 153.805177 
L 381.2236 139.616897 
L 381.616276 137.765504 
L 381.882303 132.702237 
L 382.89221 122.053683 
L 383.225128 119.318817 
L 383.640069 113.790889 
L 383.898598 114.620296 
L 384.570106 110.920441 
L 384.907216 114.807573 
L 385.241653 111.189247 
L 385.609546 112.926711 
L 385.991878 110.981368 
L 386.502282 109.966345 
L 386.801399 111.779008 
L 386.928106 108.248031 
L 387.262236 113.528469 
L 387.597711 111.245721 
L 387.932764 114.389333 
L 388.304348 114.477821 
L 388.612944 117.56838 
L 389.273512 119.118896 
L 389.609603 121.180601 
L 389.951077 127.602798 
L 390.292167 130.123358 
L 391.103284 143.043091 
L 391.588154 147.255637 
L 391.783579 147.20383 
L 392.29856 154.943939 
L 392.63392 162.630303 
L 392.979355 165.468223 
L 394.650541 193.676813 
L 395.006359 203.322886 
L 395.336912 207.518721 
L 395.738222 221.86113 
L 396.354068 226.567486 
L 400.701521 317.975443 
L 401.707793 337.824551 
L 402.045999 341.030975 
L 402.722488 349.10741 
L 403.132911 358.39337 
L 403.386555 357.701836 
L 403.7233 360.692971 
L 404.062428 356.98548 
L 404.471582 357.789643 
L 404.75303 364.727907 
L 405.128921 358.213361 
L 405.638709 373.752871 
L 406.150498 368.630083 
L 406.56815 372.196728 
L 406.846214 370.964752 
L 407.591343 374.987763 
L 407.888441 373.753249 
L 408.470639 375.664582 
L 408.808422 381.112931 
L 409.144436 377.148789 
L 409.484795 377.88127 
L 409.819771 377.014442 
L 410.15267 380.342129 
L 410.488645 374.987984 
L 410.831389 375.89402 
L 411.182361 369.646229 
L 411.504724 371.334799 
L 411.833201 367.928807 
L 412.195133 367.849096 
L 412.504805 363.765987 
L 412.844395 356.799931 
L 413.251857 357.96486 
L 413.85609 349.815753 
L 414.211139 340.744744 
L 414.64898 336.270887 
L 415.200069 325.5556 
L 416.202611 311.88994 
L 416.55143 301.362683 
L 416.963815 296.150967 
L 417.212114 286.485908 
L 417.679065 283.954569 
L 417.890294 280.117831 
L 418.224386 263.205571 
L 418.742711 253.66016 
L 419.227044 254.739056 
L 419.858156 236.228782 
L 420.152754 233.085001 
L 421.242319 207.440437 
L 421.490388 205.761113 
L 421.581332 197.318702 
L 422.018596 194.547763 
L 422.256552 192.103308 
L 422.589066 186.413168 
L 423.596993 166.482471 
L 423.932853 160.754266 
L 424.33993 162.504539 
L 424.694863 149.052409 
L 424.968081 144.902009 
L 425.285637 146.068594 
L 425.755357 131.293538 
L 426.128364 134.226555 
L 426.62081 121.663763 
L 426.957708 122.222147 
L 427.968018 108.050582 
L 428.30284 105.967176 
L 428.641853 107.819792 
L 429.331455 99.04622 
L 429.647318 98.193906 
L 429.981486 99.189379 
L 430.317347 96.741557 
L 430.654745 97.235929 
L 430.991028 97.246075 
L 431.667708 101.106889 
L 432.074632 100.131082 
L 432.341159 116.045786 
L 432.806418 109.081075 
L 433.366928 116.321049 
L 433.68756 115.560234 
L 434.022843 119.413575 
L 434.354204 125.3318 
L 434.68545 126.071796 
L 435.02154 140.602288 
L 435.737137 145.93902 
L 436.199589 150.673145 
L 436.551292 155.980453 
L 436.88023 155.911965 
L 441.446488 242.835744 
L 441.741818 255.857771 
L 442.307481 260.615 
L 442.424805 266.353676 
L 442.910444 281.566254 
L 443.58751 288.270105 
L 443.72683 292.79429 
L 443.968823 294.365251 
L 444.115372 301.332202 
L 444.430159 305.58777 
L 444.765827 304.252963 
L 445.437816 325.428118 
L 445.774099 323.424394 
L 446.255163 335.47272 
L 446.447742 344.106132 
L 448.510393 370.718006 
L 449.206686 383.317194 
L 449.618301 388.585356 
L 450.219688 392.779522 
L 450.557201 393.008727 
L 450.892062 397.843156 
L 451.427269 394.774496 
L 451.595353 400.282458 
L 451.978742 398.70179 
L 452.240347 402.359795 
L 452.576976 401.412383 
L 452.907722 386.932541 
L 453.430431 401.234913 
L 453.590555 400.580505 
L 453.920185 396.002487 
L 454.24947 398.519074 
L 454.589983 396.561895 
L 455.712426 379.297822 
L 456.328618 382.173847 
L 456.612103 380.858974 
L 456.96396 375.960145 
L 457.345581 376.320791 
L 457.372691 376.597853 
L 458.680638 359.469259 
L 459.068488 349.142392 
L 459.366202 349.07608 
L 460.304064 327.089281 
L 460.849346 321.935378 
L 460.972785 317.444526 
L 461.645389 301.555454 
L 462.31534 291.550905 
L 463.101308 270.579972 
L 463.841554 252.37953 
L 464.293469 237.416365 
L 464.965843 235.336673 
L 465.310624 229.942964 
L 466.311936 207.218071 
L 466.983926 193.117299 
L 467.324746 194.121212 
L 467.952244 170.48596 
L 468.584625 163.112226 
L 468.662995 165.234594 
L 468.999932 155.885514 
L 469.336561 159.143847 
L 470.167021 148.615856 
L 471.176523 122.650857 
L 471.520997 123.941121 
L 472.012559 116.972066 
L 472.620945 115.583039 
L 472.859631 109.375793 
L 473.195991 106.277993 
L 473.532543 107.688127 
L 473.869018 104.907565 
L 474.204955 110.340259 
L 474.756544 104.865423 
L 475.081483 107.244554 
L 475.768469 97.622082 
L 476.213116 109.584724 
L 476.698141 98.472405 
L 477.044768 99.988898 
L 477.390819 114.715128 
L 478.177171 113.980781 
L 478.743257 109.704437 
L 479.082116 111.082632 
L 480.113461 131.012282 
L 480.60733 131.742991 
L 480.774376 134.675421 
L 481.137346 144.056606 
L 482.442909 159.98297 
L 482.926972 169.003364 
L 483.140086 178.795533 
L 484.025304 190.171234 
L 484.252492 197.535395 
L 484.532093 201.983796 
L 484.945093 210.906776 
L 485.187624 212.931507 
L 485.505911 221.747853 
L 485.806623 225.022243 
L 486.892574 248.062952 
L 487.51338 262.433164 
L 487.890386 269.055297 
L 488.412404 281.183151 
L 488.815943 282.720075 
L 488.921808 286.321137 
L 489.163647 289.406568 
L 489.833829 302.925762 
L 490.170112 306.390087 
L 490.730199 316.012021 
L 491.025913 313.879312 
L 491.639759 337.7545 
L 492.177658 336.132834 
L 492.828344 350.873945 
L 493.193045 350.848157 
L 493.674647 357.057258 
L 494.184205 368.648966 
L 494.345944 362.045799 
L 494.861232 369.182796 
L 495.343218 381.251029 
L 495.387364 377.152634 
L 495.534451 379.47479 
L 495.885347 378.12678 
L 496.251048 384.802079 
L 496.542185 385.937161 
L 496.892581 380.676813 
L 497.571569 386.572695 
L 497.944422 386.486181 
L 498.396722 383.489877 
L 498.882285 387.092059 
L 499.006992 379.976634 
L 499.30409 387.809153 
L 499.575078 385.507253 
L 499.89471 387.246518 
L 500.23853 383.762556 
L 500.578735 378.453252 
L 501.24438 371.718239 
L 501.628231 363.586518 
L 502.194701 363.000756 
L 502.452768 357.169065 
L 503.285343 348.149521 
L 503.564598 340.751473 
L 504.483579 330.130044 
L 504.823823 321.071698 
L 505.439631 314.899937 
L 505.788796 302.57966 
L 506.323696 297.262648 
L 506.628677 287.781822 
L 507.078169 280.629124 
L 507.470442 269.484215 
L 507.7765 263.984266 
L 508.201689 250.390655 
L 508.781503 241.942251 
L 509.325555 224.53619 
L 509.918021 218.730946 
L 510.276107 212.639859 
L 510.475301 212.777919 
L 511.359904 189.269514 
L 511.682382 186.400166 
L 512.381251 174.293836 
L 512.688155 161.009039 
L 513.106345 158.61213 
L 513.393868 151.45256 
L 513.751994 146.697785 
L 514.054898 137.828635 
L 514.531309 137.386713 
L 514.757189 131.226619 
L 515.066824 131.388937 
L 515.422911 123.479926 
L 515.90582 121.33993 
L 516.119011 114.420217 
L 516.384884 110.635954 
L 516.76712 109.138691 
L 517.119246 104.838468 
L 517.406231 104.692073 
L 518.076566 99.713633 
L 518.401467 99.058421 
L 518.738711 97.294584 
L 519.118871 94.6268 
L 519.408124 93.770263 
L 519.745868 94.059732 
L 520.095418 92.0629 
L 520.416935 93.875706 
L 520.778444 94.772282 
L 521.112304 93.269228 
L 521.43732 96.606377 
L 521.766105 97.211452 
L 522.435018 102.774177 
L 522.789682 104.766877 
L 523.244712 111.700894 
L 523.498664 108.448598 
L 523.830948 116.9581 
L 524.451639 123.883809 
L 525.009342 133.699506 
L 525.42188 137.668537 
L 525.714402 143.660227 
L 526.043917 145.694818 
L 526.504215 151.130313 
L 527.164514 165.362001 
L 528.849121 197.911551 
L 529.293499 204.104313 
L 529.868315 214.941114 
L 530.196215 231.418747 
L 530.809792 237.643452 
L 531.162149 245.800745 
L 531.637406 252.584702 
L 531.999838 259.217036 
L 532.238831 268.27455 
L 533.020646 279.800509 
L 533.122665 276.428334 
L 533.855643 297.756742 
L 534.352281 305.54187 
L 535.362283 325.514286 
L 536.370825 342.092512 
L 537.04366 352.803387 
L 537.457852 355.951146 
L 537.71888 360.484212 
L 538.3866 367.373881 
L 538.723768 372.17384 
L 539.058628 370.041932 
L 539.731117 379.590328 
L 540.404837 383.514854 
L 540.738582 388.828775 
L 541.077826 390.267548 
L 541.411648 393.310677 
L 541.747431 392.289754 
L 542.083637 387.532838 
L 542.419728 385.831918 
L 542.771854 387.668821 
L 543.427039 388.471525 
L 543.764129 384.312979 
L 544.43858 380.934964 
L 544.805357 377.731056 
L 545.866312 364.06663 
L 546.597328 362.213972 
L 546.941033 352.563293 
L 547.628673 347.064926 
L 547.95392 339.6018 
L 548.737773 331.877388 
L 548.882938 331.863219 
L 548.964653 329.015051 
L 549.305589 321.320522 
L 549.970272 311.609674 
L 550.322052 302.107263 
L 550.684215 298.905852 
L 550.969085 289.428566 
L 551.304676 282.839211 
L 551.898295 275.438774 
L 552.182319 269.802731 
L 552.99309 257.465898 
L 553.322912 247.890372 
L 553.665732 243.629882 
L 557.359693 177.115819 
L 558.97166 151.351291 
L 559.163431 145.599107 
L 559.316287 147.52584 
L 559.895486 134.323766 
L 560.094757 132.804123 
L 560.38551 125.450868 
L 560.713948 126.250598 
L 561.053423 119.03484 
L 561.389398 116.61667 
L 562.071962 105.630142 
L 562.393902 111.417364 
L 563.255202 96.884344 
L 563.844899 96.073224 
L 564.231519 93.316639 
L 564.410677 98.095261 
L 564.77134 104.682993 
L 565.719393 99.158784 
L 566.155042 97.777116 
L 566.632376 102.143179 
L 566.828839 107.819841 
L 567.428572 106.200542 
L 567.950051 102.068137 
L 567.977354 110.842711 
L 568.297294 111.546335 
L 568.574626 113.258341 
L 568.845037 114.142109 
L 569.184935 118.011052 
L 570.52676 137.223235 
L 571.871354 157.110079 
L 572.20879 164.785352 
L 572.54938 168.655459 
L 572.984222 181.578619 
L 573.530312 188.030108 
L 574.108395 197.796117 
L 574.995229 216.845281 
L 575.349393 222.77324 
L 575.671564 232.377509 
L 576.005347 233.689849 
L 576.347283 245.78724 
L 576.868916 253.721059 
L 577.160707 263.730825 
L 577.683801 269.984364 
L 577.813546 275.262489 
L 581.38403 343.845098 
L 581.720313 349.001942 
L 582.126775 352.846807 
L 582.39484 361.943614 
L 582.72897 363.757486 
L 583.400267 371.992084 
L 584.072833 378.889484 
L 584.56128 380.718074 
L 584.929633 375.899164 
L 585.570206 385.227572 
L 585.855114 386.693086 
L 586.03458 383.187233 
L 586.778594 373.123717 
L 587.336105 386.397671 
L 587.453352 384.571958 
L 587.788328 389.109406 
L 588.461201 381.07291 
L 588.797946 379.870152 
L 589.204062 379.985797 
L 589.468512 367.563143 
L 590.202874 368.014046 
L 590.982767 357.285775 
L 591.87706 360.464924 
L 592.328476 355.466747 
L 592.730938 352.351993 
L 594.345097 329.825594 
L 594.67988 321.378141 
L 595.018701 318.407957 
L 595.37325 305.815824 
L 595.888115 302.345887 
L 596.699463 285.784615 
L 597.116923 276.639653 
L 597.486815 265.155213 
L 598.318313 248.693328 
L 598.726621 237.450492 
L 599.076132 234.500237 
L 600.207804 203.883707 
L 600.871718 191.803366 
L 601.168778 189.619991 
L 601.662185 173.198826 
L 601.986432 169.875787 
L 602.359516 169.300277 
L 602.729177 158.288113 
L 602.984937 156.662783 
L 603.325181 145.886236 
L 603.674192 149.096737 
L 604.163831 130.071878 
L 604.647509 127.725793 
L 604.672928 126.62665 
L 604.776677 126.782857 
L 605.450397 118.028584 
L 605.786296 114.657608 
L 606.457708 104.808257 
L 606.792991 103.853787 
L 607.128774 101.416203 
L 607.464788 95.439862 
L 608.119204 92.930414 
L 608.271906 91.160784 
L 608.492903 91.167215 
L 608.81142 93.208632 
L 609.484178 92.559619 
L 609.817539 92.632303 
L 610.156552 91.863209 
L 610.580896 95.676831 
L 611.160979 96.546864 
L 611.832968 100.640464 
L 612.16929 102.763499 
L 612.505381 104.002564 
L 612.842548 107.91765 
L 613.183407 110.141242 
L 613.543301 113.378832 
L 613.891659 122.73904 
L 614.492392 122.456079 
L 614.695777 125.909487 
L 614.949499 136.021438 
L 615.503279 137.468746 
L 615.684169 140.005038 
L 616.286325 150.633111 
L 617.125667 177.288457 
L 618.338401 190.909941 
L 619.353749 210.36394 
L 619.875036 220.389759 
L 620.211319 231.239911 
L 622.130689 269.728065 
L 622.353455 277.048132 
L 622.636364 279.840267 
L 622.636364 279.840267 
" clip-path="url(#pa658fb3518)" style="fill: none; stroke-dasharray: 9.6,2.4,1.5,2.4; stroke-dashoffset: 0; stroke: #ff0000; stroke-width: 1.5"/>
   </g>
   <g id="line2d_26">
    <path d="M 115.363636 104.757055 
L 115.682202 103.276456 
L 116.018369 103.687971 
L 116.356234 100.055888 
L 116.691714 101.505449 
L 117.026574 100.44794 
L 117.367904 96.551271 
L 117.747468 93.860526 
L 118.678557 100.321257 
L 119.040605 107.310849 
L 119.098089 101.191999 
L 119.689363 112.00984 
L 119.916695 109.2831 
L 120.588204 119.856974 
L 121.228074 120.821723 
L 121.536045 129.560294 
L 121.951847 131.062926 
L 122.457531 140.540156 
L 122.836763 140.418223 
L 122.870117 140.257215 
L 122.980005 145.641916 
L 123.279127 152.193648 
L 123.625461 156.960193 
L 124.562842 174.698912 
L 124.842785 176.935065 
L 125.96866 202.911023 
L 126.416134 213.315057 
L 126.643779 215.362996 
L 128.326223 252.455487 
L 128.662275 264.092704 
L 129.251414 273.459899 
L 129.35625 270.756973 
L 129.664529 275.756047 
L 130.008291 283.444847 
L 130.339181 296.995446 
L 130.713149 296.919983 
L 131.355212 311.283651 
L 131.691788 329.865124 
L 132.451006 336.886879 
L 132.948557 348.798494 
L 133.177773 347.143432 
L 133.493185 358.470837 
L 134.505659 363.900964 
L 134.540325 365.566649 
L 134.719508 366.697462 
L 135.098374 370.849547 
L 135.392372 371.069529 
L 136.049528 387.763861 
L 136.385229 389.201472 
L 137.058035 395.663352 
L 137.41243 390.737903 
L 138.085323 397.894093 
L 138.421856 415.871444 
L 139.296346 409.680869 
L 139.661066 402.100571 
L 140.191068 402.855185 
L 140.597842 406.343908 
L 141.074988 404.265266 
L 141.20095 395.280088 
L 141.537699 395.705696 
L 141.873223 392.107721 
L 142.226782 400.324878 
L 143.460555 377.620278 
L 143.713253 380.995499 
L 143.893147 374.846216 
L 144.327613 373.884167 
L 144.744372 364.162201 
L 145.108774 358.334618 
L 145.30468 358.415196 
L 146.241321 344.001953 
L 146.706176 332.2454 
L 147.922621 314.813479 
L 150.458386 258.695586 
L 150.850033 254.668416 
L 151.617783 235.405663 
L 151.954768 223.498379 
L 152.638294 213.989689 
L 153.125914 192.76345 
L 153.660179 190.577345 
L 154.248395 176.925798 
L 154.609674 173.855686 
L 154.967434 160.00934 
L 155.853681 152.973973 
L 156.616739 136.647334 
L 156.957791 138.655005 
L 157.200255 128.043184 
L 157.541796 126.338995 
L 157.881271 127.374164 
L 158.214324 118.195589 
L 158.544435 124.67492 
L 158.92794 120.727306 
L 159.27526 119.056799 
L 159.553486 107.282738 
L 159.951258 104.535029 
L 160.560941 96.388621 
L 161.298014 108.150824 
L 161.744306 96.094801 
L 162.153056 96.086335 
L 162.382994 98.942994 
L 162.907164 101.288382 
L 163.452197 105.579733 
L 163.630759 108.557933 
L 164.206305 108.835731 
L 164.685754 121.191987 
L 164.91995 116.809029 
L 165.365818 128.889766 
L 165.669694 124.474778 
L 166.008303 138.523981 
L 166.342548 134.585721 
L 166.677524 139.171676 
L 167.020806 151.229786 
L 167.351628 155.760513 
L 168.161101 163.581105 
L 168.366457 171.075118 
L 168.743204 178.960724 
L 169.186015 184.444234 
L 169.370701 191.108238 
L 169.701283 192.199478 
L 170.049362 201.423546 
L 170.379868 204.826724 
L 170.721861 214.785228 
L 171.384073 225.509429 
L 172.068041 244.348565 
L 172.529906 250.406178 
L 173.077803 263.878785 
L 173.401945 275.17821 
L 173.827297 278.330025 
L 174.741049 298.802156 
L 175.096194 310.464947 
L 175.970328 332.295193 
L 176.64298 341.556132 
L 176.778551 336.579523 
L 177.14056 350.209333 
L 178.320954 372.21761 
L 178.816534 374.655492 
L 178.947375 380.289009 
L 179.144943 374.282291 
L 179.370959 384.722647 
L 179.735419 389.55024 
L 180.117174 386.924771 
L 180.687135 405.3196 
L 181.028157 408.644699 
L 181.359682 403.157146 
L 181.692148 410.680105 
L 182.020461 413.208452 
L 182.360648 412.997496 
L 182.730549 414.69384 
L 183.044654 416.811434 
L 183.411143 420.154823 
L 184.037112 417.689868 
L 184.375452 418.166891 
L 184.716378 419.605687 
L 185.046153 418.49099 
L 185.386551 418.769357 
L 185.719642 417.097834 
L 186.397842 415.615545 
L 186.731327 416.825377 
L 187.652222 410.579375 
L 188.201888 396.882399 
L 188.548957 394.352394 
L 189.009246 388.774311 
L 189.632167 378.891688 
L 190.227219 367.660886 
L 190.742488 363.575002 
L 190.907197 357.296098 
L 191.295297 351.085917 
L 191.510449 350.122732 
L 191.805134 340.617723 
L 192.117518 338.742655 
L 192.65884 326.719266 
L 194.338928 292.152117 
L 195.679955 261.37326 
L 196.109413 243.165126 
L 196.620981 232.284633 
L 196.972857 227.499995 
L 198.100347 204.369348 
L 198.233178 198.627294 
L 198.980019 186.710265 
L 199.104005 182.388722 
L 199.363658 181.098409 
L 199.653709 177.069191 
L 199.813208 169.046567 
L 200.050298 164.394586 
L 200.38637 163.826033 
L 201.74226 138.611687 
L 202.072919 127.844132 
L 202.746523 126.60753 
L 203.025009 126.496729 
L 203.163637 117.394465 
L 203.411821 122.051888 
L 204.119746 113.480072 
L 204.34505 107.779939 
L 204.454347 113.694135 
L 204.762299 113.306367 
L 205.204639 103.139217 
L 205.734991 101.338003 
L 205.982493 95.910226 
L 206.286503 109.895162 
L 206.479582 106.000036 
L 206.782929 106.454496 
L 207.121548 106.175671 
L 207.444632 110.480379 
L 208.123571 109.958887 
L 208.468189 112.031063 
L 208.786678 116.581481 
L 209.128383 116.269431 
L 209.797892 125.095258 
L 210.17882 126.67242 
L 210.46816 131.889108 
L 211.150003 139.053907 
L 211.598121 140.803308 
L 212.39501 158.199921 
L 212.841003 162.220392 
L 214.173157 187.589019 
L 214.835292 198.6425 
L 218.254324 262.606265 
L 218.345451 269.289298 
L 218.602162 269.903921 
L 219.203444 280.544559 
L 219.929154 304.802395 
L 220.660911 322.446413 
L 221.801216 337.267211 
L 222.472667 349.487792 
L 223.479093 368.093209 
L 223.849091 375.124515 
L 224.545258 392.539213 
L 225.099722 396.3642 
L 225.443571 408.112963 
L 225.891583 408.352861 
L 226.308274 406.849544 
L 226.563995 409.95331 
L 226.906681 403.279007 
L 227.242752 403.502871 
L 227.573267 403.974308 
L 227.909761 405.073705 
L 228.246102 412.68157 
L 228.582289 406.502478 
L 228.918457 411.868902 
L 229.460547 415.800088 
L 229.79833 410.931719 
L 229.926152 404.956262 
L 230.934694 396.893804 
L 231.272707 400.294658 
L 231.913318 396.755295 
L 232.283056 393.597525 
L 233.261045 391.53448 
L 233.622651 380.366494 
L 234.187468 377.218597 
L 234.755957 369.179369 
L 234.89122 369.522663 
L 235.012005 363.064054 
L 235.629236 352.71916 
L 235.970383 351.772975 
L 236.287727 345.674598 
L 236.960044 327.63345 
L 237.577966 317.295972 
L 238.29635 302.326527 
L 238.435247 300.942082 
L 238.991355 289.293864 
L 240.675654 248.717131 
L 241.03524 231.581337 
L 242.001693 215.462334 
L 244.004375 177.762187 
L 244.623394 154.527689 
L 244.992305 162.530972 
L 245.313495 152.190292 
L 245.637569 147.666434 
L 246.196079 135.313254 
L 247.410351 124.792342 
L 247.766034 116.810804 
L 248.366076 118.101472 
L 248.480958 116.839015 
L 248.767039 100.65546 
L 249.104879 115.330397 
L 249.42853 103.224175 
L 249.893078 90.931495 
L 250.567624 94.455424 
L 251.279683 93.723552 
L 251.669013 92.850746 
L 251.953864 92.515372 
L 252.489513 98.030959 
L 252.829507 102.996139 
L 253.183998 105.764113 
L 253.35239 101.899708 
L 253.730492 102.949421 
L 254.4677 115.914696 
L 254.871278 113.099017 
L 255.560187 128.010818 
L 255.74148 125.999652 
L 255.948864 132.783168 
L 256.365305 139.105392 
L 256.552404 144.674603 
L 256.81101 143.135067 
L 257.017336 152.940912 
L 257.37302 152.641227 
L 257.823973 161.107418 
L 258.012265 167.970238 
L 259.015558 185.799795 
L 259.586373 205.397021 
L 260.094163 207.542529 
L 260.264996 213.517932 
L 260.590339 220.870379 
L 260.774131 222.112853 
L 261.143889 234.782717 
L 261.49986 238.509623 
L 261.7014 246.176375 
L 262.371716 257.446565 
L 262.718113 268.977915 
L 263.083775 272.322394 
L 263.402619 281.331671 
L 263.714618 285.421478 
L 264.064725 296.290809 
L 264.41191 301.769493 
L 264.725582 309.867863 
L 265.059096 322.916475 
L 265.644909 329.818346 
L 266.049449 341.23596 
L 266.536377 348.706153 
L 267.116748 364.278266 
L 267.621077 384.125502 
L 268.528618 386.679499 
L 268.866362 385.90927 
L 269.209029 389.206724 
L 269.540986 398.4211 
L 270.218955 402.195406 
L 270.274233 403.214224 
L 270.602902 405.759369 
L 270.882657 404.468216 
L 271.220805 408.669118 
L 271.55455 409.742039 
L 271.892775 414.164521 
L 272.226597 414.937164 
L 272.564803 419.656567 
L 272.901509 430.92 
L 273.235869 422.662824 
L 273.570576 424.781378 
L 273.90682 421.475731 
L 274.244699 420.388909 
L 274.590192 417.072144 
L 274.929051 423.441229 
L 275.253279 418.681664 
L 275.923019 413.218298 
L 276.263993 412.272664 
L 276.598161 410.933042 
L 277.424564 395.783545 
L 277.713606 392.402334 
L 277.990861 392.832312 
L 278.611956 381.737974 
L 278.970773 376.975789 
L 280.19837 355.475302 
L 280.336344 355.268941 
L 280.626943 347.40359 
L 280.963111 342.914521 
L 284.66705 265.238788 
L 285.527389 241.795361 
L 285.756365 241.134536 
L 286.013009 236.057558 
L 286.340967 226.285687 
L 286.79417 208.932068 
L 287.640646 194.875875 
L 287.845608 194.559614 
L 288.324537 183.37069 
L 288.520769 170.048107 
L 289.178588 168.967241 
L 289.516929 166.10599 
L 289.879476 156.158259 
L 290.641717 142.775251 
L 290.861522 135.568856 
L 291.428301 123.697213 
L 291.840377 119.199856 
L 292.280506 117.352879 
L 292.791564 106.676403 
L 293.081221 109.317625 
L 293.726677 96.545043 
L 294.078957 98.237035 
L 294.400377 100.910135 
L 294.738064 98.125927 
L 295.072866 98.571388 
L 295.408534 97.907264 
L 295.746971 95.890183 
L 296.088868 95.914795 
L 296.416403 85.014293 
L 297.336711 98.873716 
L 297.584453 97.658763 
L 297.779185 88.570855 
L 298.134869 97.812008 
L 299.45389 114.612165 
L 299.798518 111.742163 
L 300.130206 114.997342 
L 301.124634 129.71197 
L 301.457303 132.459673 
L 302.151826 143.775377 
L 302.850907 152.570841 
L 303.474847 165.398712 
L 303.811861 179.272724 
L 304.592387 189.837117 
L 305.267934 206.348974 
L 306.337137 233.334337 
L 307.013337 248.595032 
L 307.371539 252.970911 
L 307.44241 263.040331 
L 307.966773 268.854951 
L 308.021955 271.142698 
L 308.70102 283.948599 
L 310.540809 326.92725 
L 310.865056 331.908195 
L 311.071248 338.606455 
L 311.431873 342.938241 
L 311.724376 341.615499 
L 312.062889 344.850899 
L 312.734301 356.502585 
L 313.065182 357.074918 
L 313.44488 363.514552 
L 313.739344 363.76585 
L 314.455613 371.481488 
L 314.765978 376.982586 
L 315.079284 375.269805 
L 315.413491 377.994484 
L 316.437068 388.714462 
L 316.837743 392.294221 
L 317.100405 392.432244 
L 317.437188 395.035601 
L 317.802889 403.253792 
L 318.280645 407.184905 
L 318.450132 400.479487 
L 318.779282 395.020599 
L 319.116411 393.58182 
L 319.448234 396.683691 
L 319.810281 398.656337 
L 320.128625 395.345995 
L 320.469234 389.027362 
L 320.802575 385.773175 
L 321.295964 385.21999 
L 321.78093 380.172092 
L 321.963146 385.785925 
L 322.343805 381.124221 
L 323.803589 360.08977 
L 324.071808 360.80015 
L 324.211628 354.8881 
L 325.240839 342.416007 
L 325.510288 336.287144 
L 326.182181 325.360994 
L 326.515907 319.590977 
L 326.852671 311.705035 
L 327.191684 307.798955 
L 327.526486 300.788204 
L 327.86475 289.321937 
L 328.342141 286.28521 
L 328.868927 276.160917 
L 329.228398 267.716788 
L 329.556702 255.938721 
L 330.212309 249.352127 
L 330.606024 235.780821 
L 331.338348 221.957553 
L 331.712701 207.604576 
L 331.926891 211.645037 
L 332.582691 194.002021 
L 332.931741 190.838431 
L 334.279757 161.11512 
L 334.720155 157.183825 
L 334.946555 149.844341 
L 335.27632 149.456291 
L 335.59228 124.454809 
L 336.720818 120.24869 
L 337.059005 122.536417 
L 338.74067 107.795348 
L 339.076549 105.807091 
L 339.441712 101.908112 
L 339.766804 101.458286 
L 340.420336 99.626669 
L 340.832201 93.021482 
L 341.090825 97.158712 
L 341.429146 96.185137 
L 341.76416 98.233779 
L 342.440379 99.835499 
L 342.792948 95.410741 
L 343.107485 102.704747 
L 343.476089 102.900954 
L 343.77884 106.648393 
L 344.45329 111.511752 
L 345.796173 126.745526 
L 346.807617 141.029209 
L 348.152423 165.947578 
L 348.653156 179.152209 
L 349.281326 187.584605 
L 349.526242 194.673533 
L 349.704862 207.139762 
L 350.33732 210.122452 
L 350.8354 221.378286 
L 351.171914 229.175785 
L 351.5121 240.940189 
L 351.849171 248.741092 
L 352.401241 253.686192 
L 352.531505 269.095566 
L 353.566887 280.44905 
L 354.576909 298.886215 
L 354.913365 313.255071 
L 355.389064 318.103382 
L 355.756765 318.870571 
L 356.257248 334.993452 
L 356.768652 342.252475 
L 357.107319 358.041764 
L 357.495438 353.58002 
L 357.676539 364.64444 
L 357.959024 364.299124 
L 358.273734 372.624913 
L 358.609518 371.138005 
L 358.974622 377.746931 
L 359.454051 377.902128 
L 359.619174 384.445558 
L 360.099853 397.692729 
L 360.289375 392.050192 
L 361.478768 406.852601 
L 361.77477 405.28387 
L 361.99071 403.438277 
L 362.313245 406.109296 
L 362.691405 398.681863 
L 362.978928 402.783102 
L 363.314 403.232206 
L 363.65036 404.821329 
L 363.988566 403.540948 
L 364.658228 407.709417 
L 365.199761 400.752096 
L 365.470211 403.793825 
L 365.712127 399.836247 
L 366.381347 394.053692 
L 366.674638 394.627542 
L 368.018982 374.284393 
L 368.367167 372.122155 
L 369.446907 353.754439 
L 369.860387 342.629948 
L 370.206706 341.875383 
L 371.003037 323.306613 
L 371.579641 311.801001 
L 371.934286 307.976157 
L 374.152504 264.236765 
L 374.824897 250.607963 
L 376.845825 200.189621 
L 377.178321 200.451782 
L 377.513027 193.317899 
L 377.849656 188.707581 
L 378.526779 173.080011 
L 378.874195 168.069451 
L 379.21142 166.282586 
L 379.870623 149.614456 
L 380.217289 143.288625 
L 380.537786 140.898901 
L 380.873416 131.879921 
L 381.2236 132.929332 
L 381.616276 127.132982 
L 381.882303 125.239671 
L 383.640069 103.065407 
L 383.898598 107.111017 
L 384.235458 106.394674 
L 384.570106 105.341491 
L 384.907216 100.345446 
L 385.241653 102.540473 
L 385.609546 97.866962 
L 385.991878 97.609483 
L 386.502282 95.935731 
L 386.801399 100.358417 
L 386.928106 96.827439 
L 387.262236 97.352941 
L 387.597711 105.707351 
L 387.932764 101.557741 
L 388.304348 104.482944 
L 388.612944 109.832047 
L 388.978837 106.667634 
L 389.273512 107.178387 
L 389.951077 119.150066 
L 390.292167 121.460496 
L 390.709473 126.082353 
L 391.103284 135.262543 
L 391.588154 141.402595 
L 391.783579 147.530579 
L 391.962507 147.364791 
L 394.650541 193.066541 
L 395.006359 202.825747 
L 395.336912 207.483465 
L 395.738222 223.396301 
L 396.354068 227.61723 
L 398.346694 271.428855 
L 399.017952 286.220545 
L 400.026186 307.367647 
L 401.038188 331.673457 
L 401.370357 336.600025 
L 401.707793 349.620352 
L 402.045999 348.839965 
L 402.378629 354.636934 
L 402.722488 363.056535 
L 403.132911 362.484175 
L 403.386555 366.926095 
L 403.7233 367.900882 
L 404.062428 374.856327 
L 404.471582 379.210712 
L 404.75303 380.307462 
L 405.128921 385.800283 
L 405.638709 390.554657 
L 406.150498 389.644962 
L 406.56815 383.956138 
L 406.846214 393.951861 
L 407.176959 397.459453 
L 407.591343 382.022888 
L 407.888441 389.919289 
L 408.470639 390.963054 
L 408.808422 382.956669 
L 409.144436 388.61632 
L 409.484795 387.788503 
L 409.819771 388.807371 
L 410.15267 385.683681 
L 410.488645 383.815497 
L 410.831389 385.841138 
L 411.182361 381.899441 
L 411.504724 380.175491 
L 411.833201 371.714187 
L 412.195133 369.106966 
L 412.504805 371.745548 
L 414.211139 350.259748 
L 414.64898 340.334265 
L 415.200069 333.870865 
L 415.705628 323.465998 
L 416.202611 316.714455 
L 416.55143 306.233378 
L 416.963815 299.538022 
L 417.212114 287.094873 
L 417.679065 283.64662 
L 417.890294 280.040375 
L 418.224386 261.955976 
L 418.742711 251.21475 
L 419.227044 249.990247 
L 419.684304 239.974437 
L 419.858156 232.755066 
L 420.152754 227.270789 
L 420.762063 213.257942 
L 420.91415 206.020335 
L 421.242319 199.577981 
L 421.490388 201.68826 
L 421.581332 186.840375 
L 422.018596 192.291805 
L 422.256552 180.43375 
L 422.989145 169.879057 
L 423.265439 167.656948 
L 424.33993 144.835119 
L 424.968081 135.657658 
L 425.285637 127.078028 
L 425.755357 120.231511 
L 426.128364 118.655439 
L 426.564897 118.415729 
L 426.62081 116.225968 
L 427.294798 106.185412 
L 427.62889 105.806006 
L 427.968018 102.523066 
L 428.30284 100.484851 
L 429.014899 93.557771 
L 429.331455 97.688737 
L 429.647318 91.379239 
L 429.981486 87.700382 
L 430.317347 91.022668 
L 430.654745 91.547181 
L 430.991028 91.70414 
L 431.340001 87.683244 
L 431.667708 86.879933 
L 432.074632 90.135546 
L 432.806418 101.586139 
L 433.12505 97.020313 
L 433.366928 101.506917 
L 433.68756 104.251272 
L 434.022843 110.014494 
L 434.68545 113.988704 
L 435.737137 135.042578 
L 436.199589 141.656701 
L 436.551292 149.399162 
L 436.835854 149.323975 
L 436.88023 155.792454 
L 437.037393 155.919854 
L 438.382717 181.271321 
L 438.717462 190.618362 
L 439.408525 200.810521 
L 440.064902 214.16427 
L 440.397339 223.91915 
L 440.73443 227.891928 
L 441.446488 245.343074 
L 441.741818 258.925372 
L 442.307481 262.540391 
L 442.424805 272.983089 
L 442.910444 287.358529 
L 443.58751 293.09387 
L 443.72683 300.047491 
L 443.968823 298.032648 
L 444.115372 307.639798 
L 444.430159 308.934373 
L 445.244199 328.038687 
L 445.437816 329.294971 
L 445.774099 334.551865 
L 446.255163 347.15541 
L 446.447742 348.216908 
L 447.119039 358.589541 
L 447.544767 373.577922 
L 448.168496 383.658716 
L 448.510393 396.185749 
L 449.206686 397.676911 
L 449.618301 405.839202 
L 449.887789 401.290263 
L 450.219688 403.714971 
L 450.557201 403.910504 
L 450.892062 411.286846 
L 451.427269 406.860243 
L 451.978742 415.813133 
L 452.240347 414.715891 
L 452.576976 414.924388 
L 452.907722 414.741368 
L 453.430431 406.801138 
L 453.590555 411.536141 
L 453.920185 411.87633 
L 454.589983 406.807514 
L 454.982178 405.772135 
L 455.325729 405.714492 
L 455.712426 392.642418 
L 456.328618 395.626562 
L 456.96396 385.368389 
L 457.345581 385.729034 
L 457.372691 386.006096 
L 457.950429 374.800748 
L 458.680638 365.3214 
L 459.068488 355.928105 
L 459.366202 355.861793 
L 459.964359 341.898591 
L 460.972785 321.731122 
L 461.645389 302.620771 
L 462.01805 299.338437 
L 462.653123 284.094162 
L 463.101308 268.883141 
L 463.841554 249.572514 
L 464.293469 232.275585 
L 464.965843 232.454166 
L 465.310624 225.516527 
L 465.66029 214.712575 
L 466.311936 203.052812 
L 466.647527 190.850123 
L 466.983926 186.029309 
L 468.37801 152.120487 
L 468.584625 158.299405 
L 468.662995 152.730494 
L 469.336561 132.434672 
L 470.167021 118.781372 
L 471.176523 122.289148 
L 471.520997 107.925171 
L 472.012559 103.841187 
L 472.478087 97.125254 
L 472.620945 103.908887 
L 472.859631 98.29054 
L 473.195991 100.84964 
L 473.532543 102.297742 
L 473.869018 94.33882 
L 474.204955 94.481428 
L 474.756544 87.274325 
L 475.081483 90.19372 
L 475.768469 80.833075 
L 476.213116 94.861365 
L 476.698141 85.684574 
L 477.044768 89.34094 
L 477.390819 86.19707 
L 478.177171 89.600415 
L 479.082116 106.738099 
L 479.44301 109.558785 
L 479.783562 114.429962 
L 480.113461 124.486306 
L 480.60733 128.673158 
L 480.774376 128.516583 
L 481.137346 138.588163 
L 481.537886 138.519532 
L 481.943772 149.430084 
L 482.209991 150.292544 
L 483.140086 174.992145 
L 483.825726 183.621865 
L 484.025304 187.9822 
L 484.252492 196.111163 
L 484.532093 199.701341 
L 484.945093 209.677692 
L 485.187624 212.817612 
L 485.505911 222.586957 
L 485.806623 226.750588 
L 486.713453 247.430729 
L 486.892574 251.140696 
L 487.146641 260.975017 
L 488.412404 290.27847 
L 488.815943 290.961512 
L 488.921808 294.562574 
L 489.163647 297.000265 
L 490.170112 315.39428 
L 490.730199 320.417542 
L 491.639759 355.567178 
L 492.177658 355.431283 
L 492.828344 360.533955 
L 493.193045 365.098957 
L 494.345944 384.149785 
L 494.861232 390.217517 
L 495.343218 391.968248 
L 495.534451 395.454293 
L 495.885347 393.925543 
L 496.542185 396.393016 
L 496.892581 396.5188 
L 497.246207 399.508243 
L 497.571569 404.191727 
L 497.944422 397.059897 
L 498.396722 395.597084 
L 498.882285 397.401898 
L 499.006992 400.272317 
L 499.30409 397.794569 
L 499.575078 394.079136 
L 500.23853 388.416511 
L 500.578735 390.74042 
L 500.914595 387.359841 
L 501.24438 376.88089 
L 501.628231 380.449429 
L 502.452768 365.666403 
L 503.285343 356.644547 
L 503.564598 351.413942 
L 504.079309 345.799598 
L 504.483579 332.712986 
L 504.823823 326.468798 
L 505.439631 321.338888 
L 505.788796 306.892146 
L 506.323696 299.69675 
L 506.628677 290.195575 
L 507.078169 281.903353 
L 507.470442 269.504218 
L 507.7765 263.684705 
L 508.201689 248.29199 
L 508.781503 238.695277 
L 509.325555 221.034613 
L 510.475301 203.392473 
L 511.24208 191.027265 
L 511.359904 183.37448 
L 511.682382 181.867963 
L 512.015166 175.835541 
L 512.381251 166.848984 
L 512.688155 154.49878 
L 513.106345 152.10187 
L 513.393868 142.226036 
L 513.751994 137.724845 
L 514.054898 121.529172 
L 514.531309 122.442086 
L 514.757189 122.116406 
L 515.066824 117.13417 
L 515.422911 113.74024 
L 515.90582 114.093372 
L 516.384884 95.903509 
L 516.76712 94.577312 
L 517.119246 97.740062 
L 518.076566 83.753952 
L 518.401467 89.341046 
L 518.738711 90.116645 
L 519.408124 83.601681 
L 519.745868 86.765834 
L 520.095418 85.849153 
L 520.416935 88.235303 
L 520.778444 89.464532 
L 521.112304 88.27171 
L 521.43732 89.586717 
L 521.766105 91.58861 
L 522.435018 97.728187 
L 522.789682 99.958984 
L 523.244712 98.264002 
L 523.498664 99.398286 
L 524.113626 108.090165 
L 524.451639 114.526201 
L 525.009342 122.145516 
L 525.42188 129.446298 
L 525.714402 136.718279 
L 526.043917 141.40938 
L 526.282257 141.156611 
L 526.504215 148.073027 
L 527.164514 159.059733 
L 527.682571 168.260611 
L 528.171133 181.461159 
L 528.849121 195.512332 
L 529.293499 201.981077 
L 529.868315 215.248794 
L 530.196215 232.656353 
L 530.809792 239.033004 
L 531.162149 248.433487 
L 531.475359 251.467288 
L 531.999838 262.364262 
L 532.238831 276.077349 
L 533.122665 287.447422 
L 533.855643 309.050287 
L 534.69837 321.513129 
L 535.362283 333.582991 
L 535.702297 341.414817 
L 536.136061 347.198942 
L 536.708223 357.957672 
L 537.04366 359.651412 
L 537.457852 358.515852 
L 537.71888 364.545091 
L 538.054163 378.100572 
L 538.3866 380.478691 
L 539.417215 392.309953 
L 539.731117 392.140675 
L 540.140925 390.886742 
L 540.404837 396.469465 
L 540.738582 395.844588 
L 541.077826 396.455495 
L 541.411648 400.421185 
L 541.747431 399.038558 
L 542.083637 398.801593 
L 542.419728 402.080725 
L 542.771854 396.961069 
L 543.180201 398.16452 
L 543.427039 401.918624 
L 543.764129 403.554012 
L 544.110564 402.183081 
L 544.43858 399.733358 
L 544.805357 390.794724 
L 545.295804 390.007247 
L 545.866312 380.54693 
L 546.597328 373.224721 
L 546.941033 363.479517 
L 547.628673 358.972398 
L 547.95392 353.167096 
L 548.454634 340.074637 
L 548.882938 340.172606 
L 548.964653 332.470451 
L 550.684215 299.918421 
L 550.969085 290.711817 
L 551.304676 284.358855 
L 551.898295 275.283209 
L 552.182319 268.597145 
L 552.99309 255.736932 
L 553.322912 245.933248 
L 554.000054 236.816232 
L 554.672505 223.469888 
L 555.002174 216.294629 
L 555.338303 211.6637 
L 557.359693 171.960528 
L 557.712358 154.918296 
L 558.355122 149.385465 
L 558.97166 141.169128 
L 559.316287 128.526751 
L 559.895486 119.587774 
L 560.094757 123.005693 
L 560.140902 121.580308 
L 560.38551 118.621244 
L 560.713948 120.453731 
L 561.053423 115.108321 
L 561.389398 112.918265 
L 561.771134 103.217438 
L 562.071962 105.050562 
L 562.393902 99.542101 
L 562.839126 83.948833 
L 563.255202 86.727606 
L 563.401828 94.796625 
L 563.844899 79.315828 
L 564.410677 86.664165 
L 564.77134 78.12 
L 565.719393 85.926049 
L 566.155042 80.12441 
L 566.632376 84.372735 
L 566.828839 87.410399 
L 567.428572 90.283418 
L 568.297294 99.807472 
L 568.574626 104.478634 
L 568.845037 111.23763 
L 569.184935 114.196827 
L 570.190131 129.211436 
L 572.20879 161.519474 
L 572.54938 167.635472 
L 572.984222 177.704114 
L 573.530312 184.892043 
L 575.349393 223.921037 
L 575.671564 234.788423 
L 576.005347 237.251065 
L 576.347283 250.752499 
L 576.868916 258.122118 
L 577.160707 269.839237 
L 577.683801 274.396276 
L 577.813546 285.993583 
L 579.029933 305.259924 
L 579.408093 317.937129 
L 579.755758 320.254954 
L 580.375988 331.157822 
L 582.126775 362.187179 
L 582.39484 371.390853 
L 582.72897 368.725343 
L 583.400267 377.239224 
L 584.072833 384.488759 
L 584.56128 391.507071 
L 584.929633 401.191434 
L 585.570206 397.984862 
L 585.855114 395.001041 
L 586.03458 403.138644 
L 586.778594 406.683993 
L 587.336105 400.307107 
L 587.453352 404.280186 
L 587.788328 397.816769 
L 588.166141 395.876454 
L 588.461201 391.995138 
L 588.797946 390.207974 
L 589.204062 381.353659 
L 589.468512 383.673908 
L 590.202874 383.389357 
L 590.982767 379.017988 
L 591.828185 369.034401 
L 591.87706 369.389234 
L 592.004344 362.251927 
L 592.328476 358.252336 
L 592.730938 355.977112 
L 593.33894 346.466173 
L 594.345097 331.531766 
L 595.37325 310.729275 
L 595.888115 304.479731 
L 596.699463 285.779531 
L 597.116923 276.64499 
L 597.486815 264.583771 
L 598.318313 246.964736 
L 598.726621 233.677516 
L 599.076132 231.118195 
L 600.871718 182.849362 
L 601.168778 180.459288 
L 601.986432 156.015845 
L 602.359516 154.724318 
L 602.729177 150.111567 
L 602.984937 148.465112 
L 603.325181 136.303258 
L 603.499071 139.067715 
L 603.674192 130.094983 
L 604.163831 116.946112 
L 604.647509 114.600026 
L 604.672928 113.500883 
L 604.776677 120.460259 
L 606.457708 99.492964 
L 606.792991 98.317689 
L 607.128774 95.791345 
L 607.464788 87.12591 
L 608.119204 86.847874 
L 608.492903 81.743005 
L 608.81142 85.972721 
L 609.144973 86.526802 
L 609.484178 86.567302 
L 609.817539 86.906401 
L 610.156552 80.813845 
L 610.580896 84.914941 
L 610.826273 90.880438 
L 611.160979 91.624203 
L 611.832968 96.032977 
L 612.505381 101.239881 
L 613.891659 111.613247 
L 614.492392 111.605198 
L 614.695777 118.803193 
L 614.949499 123.534915 
L 615.503279 128.468151 
L 615.684169 134.3471 
L 616.116472 139.759807 
L 616.538508 152.186181 
L 617.125667 168.661431 
L 618.338401 186.355549 
L 619.353749 209.127293 
L 619.875036 220.505791 
L 620.211319 232.01994 
L 621.319842 254.590205 
L 621.500884 264.019813 
L 622.130689 275.85573 
L 622.353455 283.589469 
L 622.636364 284.6354 
L 622.636364 284.6354 
" clip-path="url(#pa658fb3518)" style="fill: none; stroke: #008000; stroke-width: 1.5; stroke-linecap: square"/>
   </g>
   <g id="patch_3">
    <path d="M 90 448.56 
L 90 60.48 
" style="fill: none; stroke: #000000; stroke-width: 0.8; stroke-linejoin: miter; stroke-linecap: square"/>
   </g>
   <g id="patch_4">
    <path d="M 648 448.56 
L 648 60.48 
" style="fill: none; stroke: #000000; stroke-width: 0.8; stroke-linejoin: miter; stroke-linecap: square"/>
   </g>
   <g id="patch_5">
    <path d="M 90 448.56 
L 648 448.56 
" style="fill: none; stroke: #000000; stroke-width: 0.8; stroke-linejoin: miter; stroke-linecap: square"/>
   </g>
   <g id="patch_6">
    <path d="M 90 60.48 
L 648 60.48 
" style="fill: none; stroke: #000000; stroke-width: 0.8; stroke-linejoin: miter; stroke-linecap: square"/>
   </g>
   <g id="legend_1">
    <g id="patch_7">
     <path d="M 524.34375 97.83625 
L 641 97.83625 
Q 643 97.83625 643 95.83625 
L 643 67.48 
Q 643 65.48 641 65.48 
L 524.34375 65.48 
Q 522.34375 65.48 522.34375 67.48 
L 522.34375 95.83625 
Q 522.34375 97.83625 524.34375 97.83625 
z
" style="fill: #ffffff; opacity: 0.8; stroke: #cccccc; stroke-linejoin: miter"/>
    </g>
    <g id="line2d_27">
     <path d="M 526.34375 73.578438 
L 536.34375 73.578438 
L 546.34375 73.578438 
" style="fill: none; stroke-dasharray: 9.6,2.4,1.5,2.4; stroke-dashoffset: 0; stroke: #ff0000; stroke-width: 1.5"/>
    </g>
    <g id="text_15">
     <!-- OptiTrack Error Z -->
     <g transform="translate(554.34375 77.078438)scale(0.1 -0.1)">
      <defs>
       <path id="DejaVuSans-4f" d="M 2522 4238 
Q 1834 4238 1429 3725 
Q 1025 3213 1025 2328 
Q 1025 1447 1429 934 
Q 1834 422 2522 422 
Q 3209 422 3611 934 
Q 4013 1447 4013 2328 
Q 4013 3213 3611 3725 
Q 3209 4238 2522 4238 
z
M 2522 4750 
Q 3503 4750 4090 4092 
Q 4678 3434 4678 2328 
Q 4678 1225 4090 567 
Q 3503 -91 2522 -91 
Q 1538 -91 948 565 
Q 359 1222 359 2328 
Q 359 3434 948 4092 
Q 1538 4750 2522 4750 
z
" transform="scale(0.015625)"/>
       <path id="DejaVuSans-70" d="M 1159 525 
L 1159 -1331 
L 581 -1331 
L 581 3500 
L 1159 3500 
L 1159 2969 
Q 1341 3281 1617 3432 
Q 1894 3584 2278 3584 
Q 2916 3584 3314 3078 
Q 3713 2572 3713 1747 
Q 3713 922 3314 415 
Q 2916 -91 2278 -91 
Q 1894 -91 1617 61 
Q 1341 213 1159 525 
z
M 3116 1747 
Q 3116 2381 2855 2742 
Q 2594 3103 2138 3103 
Q 1681 3103 1420 2742 
Q 1159 2381 1159 1747 
Q 1159 1113 1420 752 
Q 1681 391 2138 391 
Q 2594 391 2855 752 
Q 3116 1113 3116 1747 
z
" transform="scale(0.015625)"/>
       <path id="DejaVuSans-74" d="M 1172 4494 
L 1172 3500 
L 2356 3500 
L 2356 3053 
L 1172 3053 
L 1172 1153 
Q 1172 725 1289 603 
Q 1406 481 1766 481 
L 2356 481 
L 2356 0 
L 1766 0 
Q 1100 0 847 248 
Q 594 497 594 1153 
L 594 3053 
L 172 3053 
L 172 3500 
L 594 3500 
L 594 4494 
L 1172 4494 
z
" transform="scale(0.015625)"/>
       <path id="DejaVuSans-61" d="M 2194 1759 
Q 1497 1759 1228 1600 
Q 959 1441 959 1056 
Q 959 750 1161 570 
Q 1363 391 1709 391 
Q 2188 391 2477 730 
Q 2766 1069 2766 1631 
L 2766 1759 
L 2194 1759 
z
M 3341 1997 
L 3341 0 
L 2766 0 
L 2766 531 
Q 2569 213 2275 61 
Q 1981 -91 1556 -91 
Q 1019 -91 701 211 
Q 384 513 384 1019 
Q 384 1609 779 1909 
Q 1175 2209 1959 2209 
L 2766 2209 
L 2766 2266 
Q 2766 2663 2505 2880 
Q 2244 3097 1772 3097 
Q 1472 3097 1187 3025 
Q 903 2953 641 2809 
L 641 3341 
Q 956 3463 1253 3523 
Q 1550 3584 1831 3584 
Q 2591 3584 2966 3190 
Q 3341 2797 3341 1997 
z
" transform="scale(0.015625)"/>
       <path id="DejaVuSans-63" d="M 3122 3366 
L 3122 2828 
Q 2878 2963 2633 3030 
Q 2388 3097 2138 3097 
Q 1578 3097 1268 2742 
Q 959 2388 959 1747 
Q 959 1106 1268 751 
Q 1578 397 2138 397 
Q 2388 397 2633 464 
Q 2878 531 3122 666 
L 3122 134 
Q 2881 22 2623 -34 
Q 2366 -91 2075 -91 
Q 1284 -91 818 406 
Q 353 903 353 1747 
Q 353 2603 823 3093 
Q 1294 3584 2113 3584 
Q 2378 3584 2631 3529 
Q 2884 3475 3122 3366 
z
" transform="scale(0.015625)"/>
       <path id="DejaVuSans-6b" d="M 581 4863 
L 1159 4863 
L 1159 1991 
L 2875 3500 
L 3609 3500 
L 1753 1863 
L 3688 0 
L 2938 0 
L 1159 1709 
L 1159 0 
L 581 0 
L 581 4863 
z
" transform="scale(0.015625)"/>
      </defs>
      <use xlink:href="#DejaVuSans-4f"/>
      <use xlink:href="#DejaVuSans-70" x="78.710938"/>
      <use xlink:href="#DejaVuSans-74" x="142.1875"/>
      <use xlink:href="#DejaVuSans-69" x="181.396484"/>
      <use xlink:href="#DejaVuSans-54" x="209.179688"/>
      <use xlink:href="#DejaVuSans-72" x="255.513672"/>
      <use xlink:href="#DejaVuSans-61" x="296.626953"/>
      <use xlink:href="#DejaVuSans-63" x="357.90625"/>
      <use xlink:href="#DejaVuSans-6b" x="412.886719"/>
      <use xlink:href="#DejaVuSans-20" x="470.796875"/>
      <use xlink:href="#DejaVuSans-45" x="502.583984"/>
      <use xlink:href="#DejaVuSans-72" x="565.767578"/>
      <use xlink:href="#DejaVuSans-72" x="605.130859"/>
      <use xlink:href="#DejaVuSans-6f" x="643.994141"/>
      <use xlink:href="#DejaVuSans-72" x="705.175781"/>
      <use xlink:href="#DejaVuSans-20" x="746.289062"/>
      <use xlink:href="#DejaVuSans-5a" x="778.076172"/>
     </g>
    </g>
    <g id="line2d_28">
     <path d="M 526.34375 88.256563 
L 536.34375 88.256563 
L 546.34375 88.256563 
" style="fill: none; stroke: #008000; stroke-width: 1.5; stroke-linecap: square"/>
    </g>
    <g id="text_16">
     <!-- Kalman Error Z -->
     <g transform="translate(554.34375 91.756563)scale(0.1 -0.1)">
      <defs>
       <path id="DejaVuSans-4b" d="M 628 4666 
L 1259 4666 
L 1259 2694 
L 3353 4666 
L 4166 4666 
L 1850 2491 
L 4331 0 
L 3500 0 
L 1259 2247 
L 1259 0 
L 628 0 
L 628 4666 
z
" transform="scale(0.015625)"/>
       <path id="DejaVuSans-6c" d="M 603 4863 
L 1178 4863 
L 1178 0 
L 603 0 
L 603 4863 
z
" transform="scale(0.015625)"/>
       <path id="DejaVuSans-6e" d="M 3513 2113 
L 3513 0 
L 2938 0 
L 2938 2094 
Q 2938 2591 2744 2837 
Q 2550 3084 2163 3084 
Q 1697 3084 1428 2787 
Q 1159 2491 1159 1978 
L 1159 0 
L 581 0 
L 581 3500 
L 1159 3500 
L 1159 2956 
Q 1366 3272 1645 3428 
Q 1925 3584 2291 3584 
Q 2894 3584 3203 3211 
Q 3513 2838 3513 2113 
z
" transform="scale(0.015625)"/>
      </defs>
      <use xlink:href="#DejaVuSans-4b"/>
      <use xlink:href="#DejaVuSans-61" x="63.826172"/>
      <use xlink:href="#DejaVuSans-6c" x="125.105469"/>
      <use xlink:href="#DejaVuSans-6d" x="152.888672"/>
      <use xlink:href="#DejaVuSans-61" x="250.300781"/>
      <use xlink:href="#DejaVuSans-6e" x="311.580078"/>
      <use xlink:href="#DejaVuSans-20" x="374.958984"/>
      <use xlink:href="#DejaVuSans-45" x="406.746094"/>
      <use xlink:href="#DejaVuSans-72" x="469.929688"/>
      <use xlink:href="#DejaVuSans-72" x="509.292969"/>
      <use xlink:href="#DejaVuSans-6f" x="548.15625"/>
      <use xlink:href="#DejaVuSans-72" x="609.337891"/>
      <use xlink:href="#DejaVuSans-20" x="650.451172"/>
      <use xlink:href="#DejaVuSans-5a" x="682.238281"/>
     </g>
    </g>
   </g>
  </g>
 </g>
 <defs>
  <clipPath id="pa658fb3518">
   <rect x="90" y="60.48" width="558" height="388.08"/>
  </clipPath>
 </defs>
</svg>
