<?xml version="1.0" encoding="utf-8" standalone="no"?>
<!DOCTYPE svg PUBLIC "-//W3C//DTD SVG 1.1//EN"
  "http://www.w3.org/Graphics/SVG/1.1/DTD/svg11.dtd">
<svg xmlns:xlink="http://www.w3.org/1999/xlink" width="720pt" height="504pt" viewBox="0 0 720 504" xmlns="http://www.w3.org/2000/svg" version="1.1">
 <metadata>
  <rdf:RDF xmlns:dc="http://purl.org/dc/elements/1.1/" xmlns:cc="http://creativecommons.org/ns#" xmlns:rdf="http://www.w3.org/1999/02/22-rdf-syntax-ns#">
   <cc:Work>
    <dc:type rdf:resource="http://purl.org/dc/dcmitype/StillImage"/>
    <dc:date>2024-02-15T17:06:39.439243</dc:date>
    <dc:format>image/svg+xml</dc:format>
    <dc:creator>
     <cc:Agent>
      <dc:title>Matplotlib v3.5.1, https://matplotlib.org/</dc:title>
     </cc:Agent>
    </dc:creator>
   </cc:Work>
  </rdf:RDF>
 </metadata>
 <defs>
  <style type="text/css">*{stroke-linejoin: round; stroke-linecap: butt}</style>
 </defs>
 <g id="figure_1">
  <g id="patch_1">
   <path d="M 0 504 
L 720 504 
L 720 0 
L 0 0 
z
" style="fill: #ffffff"/>
  </g>
  <g id="axes_1">
   <g id="patch_2">
    <path d="M 90 448.56 
L 648 448.56 
L 648 60.48 
L 90 60.48 
z
" style="fill: #ffffff"/>
   </g>
   <g id="matplotlib.axis_1">
    <g id="xtick_1">
     <g id="line2d_1">
      <path d="M 164.798108 448.56 
L 164.798108 60.48 
" clip-path="url(#p4e565bc103)" style="fill: none; stroke: #b0b0b0; stroke-width: 0.8; stroke-linecap: square"/>
     </g>
     <g id="line2d_2">
      <defs>
       <path id="mbaf2301abb" d="M 0 0 
L 0 3.5 
" style="stroke: #000000; stroke-width: 0.8"/>
      </defs>
      <g>
       <use xlink:href="#mbaf2301abb" x="164.798108" y="448.56" style="stroke: #000000; stroke-width: 0.8"/>
      </g>
     </g>
     <g id="text_1">
      <!-- 10 -->
      <g transform="translate(158.435608 463.158437)scale(0.1 -0.1)">
       <defs>
        <path id="DejaVuSans-31" d="M 794 531 
L 1825 531 
L 1825 4091 
L 703 3866 
L 703 4441 
L 1819 4666 
L 2450 4666 
L 2450 531 
L 3481 531 
L 3481 0 
L 794 0 
L 794 531 
z
" transform="scale(0.015625)"/>
        <path id="DejaVuSans-30" d="M 2034 4250 
Q 1547 4250 1301 3770 
Q 1056 3291 1056 2328 
Q 1056 1369 1301 889 
Q 1547 409 2034 409 
Q 2525 409 2770 889 
Q 3016 1369 3016 2328 
Q 3016 3291 2770 3770 
Q 2525 4250 2034 4250 
z
M 2034 4750 
Q 2819 4750 3233 4129 
Q 3647 3509 3647 2328 
Q 3647 1150 3233 529 
Q 2819 -91 2034 -91 
Q 1250 -91 836 529 
Q 422 1150 422 2328 
Q 422 3509 836 4129 
Q 1250 4750 2034 4750 
z
" transform="scale(0.015625)"/>
       </defs>
       <use xlink:href="#DejaVuSans-31"/>
       <use xlink:href="#DejaVuSans-30" x="63.623047"/>
      </g>
     </g>
    </g>
    <g id="xtick_2">
     <g id="line2d_3">
      <path d="M 265.603802 448.56 
L 265.603802 60.48 
" clip-path="url(#p4e565bc103)" style="fill: none; stroke: #b0b0b0; stroke-width: 0.8; stroke-linecap: square"/>
     </g>
     <g id="line2d_4">
      <g>
       <use xlink:href="#mbaf2301abb" x="265.603802" y="448.56" style="stroke: #000000; stroke-width: 0.8"/>
      </g>
     </g>
     <g id="text_2">
      <!-- 20 -->
      <g transform="translate(259.241302 463.158437)scale(0.1 -0.1)">
       <defs>
        <path id="DejaVuSans-32" d="M 1228 531 
L 3431 531 
L 3431 0 
L 469 0 
L 469 531 
Q 828 903 1448 1529 
Q 2069 2156 2228 2338 
Q 2531 2678 2651 2914 
Q 2772 3150 2772 3378 
Q 2772 3750 2511 3984 
Q 2250 4219 1831 4219 
Q 1534 4219 1204 4116 
Q 875 4013 500 3803 
L 500 4441 
Q 881 4594 1212 4672 
Q 1544 4750 1819 4750 
Q 2544 4750 2975 4387 
Q 3406 4025 3406 3419 
Q 3406 3131 3298 2873 
Q 3191 2616 2906 2266 
Q 2828 2175 2409 1742 
Q 1991 1309 1228 531 
z
" transform="scale(0.015625)"/>
       </defs>
       <use xlink:href="#DejaVuSans-32"/>
       <use xlink:href="#DejaVuSans-30" x="63.623047"/>
      </g>
     </g>
    </g>
    <g id="xtick_3">
     <g id="line2d_5">
      <path d="M 366.409496 448.56 
L 366.409496 60.48 
" clip-path="url(#p4e565bc103)" style="fill: none; stroke: #b0b0b0; stroke-width: 0.8; stroke-linecap: square"/>
     </g>
     <g id="line2d_6">
      <g>
       <use xlink:href="#mbaf2301abb" x="366.409496" y="448.56" style="stroke: #000000; stroke-width: 0.8"/>
      </g>
     </g>
     <g id="text_3">
      <!-- 30 -->
      <g transform="translate(360.046996 463.158437)scale(0.1 -0.1)">
       <defs>
        <path id="DejaVuSans-33" d="M 2597 2516 
Q 3050 2419 3304 2112 
Q 3559 1806 3559 1356 
Q 3559 666 3084 287 
Q 2609 -91 1734 -91 
Q 1441 -91 1130 -33 
Q 819 25 488 141 
L 488 750 
Q 750 597 1062 519 
Q 1375 441 1716 441 
Q 2309 441 2620 675 
Q 2931 909 2931 1356 
Q 2931 1769 2642 2001 
Q 2353 2234 1838 2234 
L 1294 2234 
L 1294 2753 
L 1863 2753 
Q 2328 2753 2575 2939 
Q 2822 3125 2822 3475 
Q 2822 3834 2567 4026 
Q 2313 4219 1838 4219 
Q 1578 4219 1281 4162 
Q 984 4106 628 3988 
L 628 4550 
Q 988 4650 1302 4700 
Q 1616 4750 1894 4750 
Q 2613 4750 3031 4423 
Q 3450 4097 3450 3541 
Q 3450 3153 3228 2886 
Q 3006 2619 2597 2516 
z
" transform="scale(0.015625)"/>
       </defs>
       <use xlink:href="#DejaVuSans-33"/>
       <use xlink:href="#DejaVuSans-30" x="63.623047"/>
      </g>
     </g>
    </g>
    <g id="xtick_4">
     <g id="line2d_7">
      <path d="M 467.21519 448.56 
L 467.21519 60.48 
" clip-path="url(#p4e565bc103)" style="fill: none; stroke: #b0b0b0; stroke-width: 0.8; stroke-linecap: square"/>
     </g>
     <g id="line2d_8">
      <g>
       <use xlink:href="#mbaf2301abb" x="467.21519" y="448.56" style="stroke: #000000; stroke-width: 0.8"/>
      </g>
     </g>
     <g id="text_4">
      <!-- 40 -->
      <g transform="translate(460.85269 463.158437)scale(0.1 -0.1)">
       <defs>
        <path id="DejaVuSans-34" d="M 2419 4116 
L 825 1625 
L 2419 1625 
L 2419 4116 
z
M 2253 4666 
L 3047 4666 
L 3047 1625 
L 3713 1625 
L 3713 1100 
L 3047 1100 
L 3047 0 
L 2419 0 
L 2419 1100 
L 313 1100 
L 313 1709 
L 2253 4666 
z
" transform="scale(0.015625)"/>
       </defs>
       <use xlink:href="#DejaVuSans-34"/>
       <use xlink:href="#DejaVuSans-30" x="63.623047"/>
      </g>
     </g>
    </g>
    <g id="xtick_5">
     <g id="line2d_9">
      <path d="M 568.020884 448.56 
L 568.020884 60.48 
" clip-path="url(#p4e565bc103)" style="fill: none; stroke: #b0b0b0; stroke-width: 0.8; stroke-linecap: square"/>
     </g>
     <g id="line2d_10">
      <g>
       <use xlink:href="#mbaf2301abb" x="568.020884" y="448.56" style="stroke: #000000; stroke-width: 0.8"/>
      </g>
     </g>
     <g id="text_5">
      <!-- 50 -->
      <g transform="translate(561.658384 463.158437)scale(0.1 -0.1)">
       <defs>
        <path id="DejaVuSans-35" d="M 691 4666 
L 3169 4666 
L 3169 4134 
L 1269 4134 
L 1269 2991 
Q 1406 3038 1543 3061 
Q 1681 3084 1819 3084 
Q 2600 3084 3056 2656 
Q 3513 2228 3513 1497 
Q 3513 744 3044 326 
Q 2575 -91 1722 -91 
Q 1428 -91 1123 -41 
Q 819 9 494 109 
L 494 744 
Q 775 591 1075 516 
Q 1375 441 1709 441 
Q 2250 441 2565 725 
Q 2881 1009 2881 1497 
Q 2881 1984 2565 2268 
Q 2250 2553 1709 2553 
Q 1456 2553 1204 2497 
Q 953 2441 691 2322 
L 691 4666 
z
" transform="scale(0.015625)"/>
       </defs>
       <use xlink:href="#DejaVuSans-35"/>
       <use xlink:href="#DejaVuSans-30" x="63.623047"/>
      </g>
     </g>
    </g>
    <g id="text_6">
     <!-- Time (s) -->
     <g transform="translate(348.671094 476.836563)scale(0.1 -0.1)">
      <defs>
       <path id="DejaVuSans-54" d="M -19 4666 
L 3928 4666 
L 3928 4134 
L 2272 4134 
L 2272 0 
L 1638 0 
L 1638 4134 
L -19 4134 
L -19 4666 
z
" transform="scale(0.015625)"/>
       <path id="DejaVuSans-69" d="M 603 3500 
L 1178 3500 
L 1178 0 
L 603 0 
L 603 3500 
z
M 603 4863 
L 1178 4863 
L 1178 4134 
L 603 4134 
L 603 4863 
z
" transform="scale(0.015625)"/>
       <path id="DejaVuSans-6d" d="M 3328 2828 
Q 3544 3216 3844 3400 
Q 4144 3584 4550 3584 
Q 5097 3584 5394 3201 
Q 5691 2819 5691 2113 
L 5691 0 
L 5113 0 
L 5113 2094 
Q 5113 2597 4934 2840 
Q 4756 3084 4391 3084 
Q 3944 3084 3684 2787 
Q 3425 2491 3425 1978 
L 3425 0 
L 2847 0 
L 2847 2094 
Q 2847 2600 2669 2842 
Q 2491 3084 2119 3084 
Q 1678 3084 1418 2786 
Q 1159 2488 1159 1978 
L 1159 0 
L 581 0 
L 581 3500 
L 1159 3500 
L 1159 2956 
Q 1356 3278 1631 3431 
Q 1906 3584 2284 3584 
Q 2666 3584 2933 3390 
Q 3200 3197 3328 2828 
z
" transform="scale(0.015625)"/>
       <path id="DejaVuSans-65" d="M 3597 1894 
L 3597 1613 
L 953 1613 
Q 991 1019 1311 708 
Q 1631 397 2203 397 
Q 2534 397 2845 478 
Q 3156 559 3463 722 
L 3463 178 
Q 3153 47 2828 -22 
Q 2503 -91 2169 -91 
Q 1331 -91 842 396 
Q 353 884 353 1716 
Q 353 2575 817 3079 
Q 1281 3584 2069 3584 
Q 2775 3584 3186 3129 
Q 3597 2675 3597 1894 
z
M 3022 2063 
Q 3016 2534 2758 2815 
Q 2500 3097 2075 3097 
Q 1594 3097 1305 2825 
Q 1016 2553 972 2059 
L 3022 2063 
z
" transform="scale(0.015625)"/>
       <path id="DejaVuSans-20" transform="scale(0.015625)"/>
       <path id="DejaVuSans-28" d="M 1984 4856 
Q 1566 4138 1362 3434 
Q 1159 2731 1159 2009 
Q 1159 1288 1364 580 
Q 1569 -128 1984 -844 
L 1484 -844 
Q 1016 -109 783 600 
Q 550 1309 550 2009 
Q 550 2706 781 3412 
Q 1013 4119 1484 4856 
L 1984 4856 
z
" transform="scale(0.015625)"/>
       <path id="DejaVuSans-73" d="M 2834 3397 
L 2834 2853 
Q 2591 2978 2328 3040 
Q 2066 3103 1784 3103 
Q 1356 3103 1142 2972 
Q 928 2841 928 2578 
Q 928 2378 1081 2264 
Q 1234 2150 1697 2047 
L 1894 2003 
Q 2506 1872 2764 1633 
Q 3022 1394 3022 966 
Q 3022 478 2636 193 
Q 2250 -91 1575 -91 
Q 1294 -91 989 -36 
Q 684 19 347 128 
L 347 722 
Q 666 556 975 473 
Q 1284 391 1588 391 
Q 1994 391 2212 530 
Q 2431 669 2431 922 
Q 2431 1156 2273 1281 
Q 2116 1406 1581 1522 
L 1381 1569 
Q 847 1681 609 1914 
Q 372 2147 372 2553 
Q 372 3047 722 3315 
Q 1072 3584 1716 3584 
Q 2034 3584 2315 3537 
Q 2597 3491 2834 3397 
z
" transform="scale(0.015625)"/>
       <path id="DejaVuSans-29" d="M 513 4856 
L 1013 4856 
Q 1481 4119 1714 3412 
Q 1947 2706 1947 2009 
Q 1947 1309 1714 600 
Q 1481 -109 1013 -844 
L 513 -844 
Q 928 -128 1133 580 
Q 1338 1288 1338 2009 
Q 1338 2731 1133 3434 
Q 928 4138 513 4856 
z
" transform="scale(0.015625)"/>
      </defs>
      <use xlink:href="#DejaVuSans-54"/>
      <use xlink:href="#DejaVuSans-69" x="57.958984"/>
      <use xlink:href="#DejaVuSans-6d" x="85.742188"/>
      <use xlink:href="#DejaVuSans-65" x="183.154297"/>
      <use xlink:href="#DejaVuSans-20" x="244.677734"/>
      <use xlink:href="#DejaVuSans-28" x="276.464844"/>
      <use xlink:href="#DejaVuSans-73" x="315.478516"/>
      <use xlink:href="#DejaVuSans-29" x="367.578125"/>
     </g>
    </g>
   </g>
   <g id="matplotlib.axis_2">
    <g id="ytick_1">
     <g id="line2d_11">
      <path d="M 90 411.190749 
L 648 411.190749 
" clip-path="url(#p4e565bc103)" style="fill: none; stroke: #b0b0b0; stroke-width: 0.8; stroke-linecap: square"/>
     </g>
     <g id="line2d_12">
      <defs>
       <path id="me94471457b" d="M 0 0 
L -3.5 0 
" style="stroke: #000000; stroke-width: 0.8"/>
      </defs>
      <g>
       <use xlink:href="#me94471457b" x="90" y="411.190749" style="stroke: #000000; stroke-width: 0.8"/>
      </g>
     </g>
     <g id="text_7">
      <!-- −0.3 -->
      <g transform="translate(58.717187 414.989968)scale(0.1 -0.1)">
       <defs>
        <path id="DejaVuSans-2212" d="M 678 2272 
L 4684 2272 
L 4684 1741 
L 678 1741 
L 678 2272 
z
" transform="scale(0.015625)"/>
        <path id="DejaVuSans-2e" d="M 684 794 
L 1344 794 
L 1344 0 
L 684 0 
L 684 794 
z
" transform="scale(0.015625)"/>
       </defs>
       <use xlink:href="#DejaVuSans-2212"/>
       <use xlink:href="#DejaVuSans-30" x="83.789062"/>
       <use xlink:href="#DejaVuSans-2e" x="147.412109"/>
       <use xlink:href="#DejaVuSans-33" x="179.199219"/>
      </g>
     </g>
    </g>
    <g id="ytick_2">
     <g id="line2d_13">
      <path d="M 90 355.345878 
L 648 355.345878 
" clip-path="url(#p4e565bc103)" style="fill: none; stroke: #b0b0b0; stroke-width: 0.8; stroke-linecap: square"/>
     </g>
     <g id="line2d_14">
      <g>
       <use xlink:href="#me94471457b" x="90" y="355.345878" style="stroke: #000000; stroke-width: 0.8"/>
      </g>
     </g>
     <g id="text_8">
      <!-- −0.2 -->
      <g transform="translate(58.717187 359.145097)scale(0.1 -0.1)">
       <use xlink:href="#DejaVuSans-2212"/>
       <use xlink:href="#DejaVuSans-30" x="83.789062"/>
       <use xlink:href="#DejaVuSans-2e" x="147.412109"/>
       <use xlink:href="#DejaVuSans-32" x="179.199219"/>
      </g>
     </g>
    </g>
    <g id="ytick_3">
     <g id="line2d_15">
      <path d="M 90 299.501007 
L 648 299.501007 
" clip-path="url(#p4e565bc103)" style="fill: none; stroke: #b0b0b0; stroke-width: 0.8; stroke-linecap: square"/>
     </g>
     <g id="line2d_16">
      <g>
       <use xlink:href="#me94471457b" x="90" y="299.501007" style="stroke: #000000; stroke-width: 0.8"/>
      </g>
     </g>
     <g id="text_9">
      <!-- −0.1 -->
      <g transform="translate(58.717187 303.300225)scale(0.1 -0.1)">
       <use xlink:href="#DejaVuSans-2212"/>
       <use xlink:href="#DejaVuSans-30" x="83.789062"/>
       <use xlink:href="#DejaVuSans-2e" x="147.412109"/>
       <use xlink:href="#DejaVuSans-31" x="179.199219"/>
      </g>
     </g>
    </g>
    <g id="ytick_4">
     <g id="line2d_17">
      <path d="M 90 243.656135 
L 648 243.656135 
" clip-path="url(#p4e565bc103)" style="fill: none; stroke: #b0b0b0; stroke-width: 0.8; stroke-linecap: square"/>
     </g>
     <g id="line2d_18">
      <g>
       <use xlink:href="#me94471457b" x="90" y="243.656135" style="stroke: #000000; stroke-width: 0.8"/>
      </g>
     </g>
     <g id="text_10">
      <!-- 0.0 -->
      <g transform="translate(67.096875 247.455354)scale(0.1 -0.1)">
       <use xlink:href="#DejaVuSans-30"/>
       <use xlink:href="#DejaVuSans-2e" x="63.623047"/>
       <use xlink:href="#DejaVuSans-30" x="95.410156"/>
      </g>
     </g>
    </g>
    <g id="ytick_5">
     <g id="line2d_19">
      <path d="M 90 187.811264 
L 648 187.811264 
" clip-path="url(#p4e565bc103)" style="fill: none; stroke: #b0b0b0; stroke-width: 0.8; stroke-linecap: square"/>
     </g>
     <g id="line2d_20">
      <g>
       <use xlink:href="#me94471457b" x="90" y="187.811264" style="stroke: #000000; stroke-width: 0.8"/>
      </g>
     </g>
     <g id="text_11">
      <!-- 0.1 -->
      <g transform="translate(67.096875 191.610483)scale(0.1 -0.1)">
       <use xlink:href="#DejaVuSans-30"/>
       <use xlink:href="#DejaVuSans-2e" x="63.623047"/>
       <use xlink:href="#DejaVuSans-31" x="95.410156"/>
      </g>
     </g>
    </g>
    <g id="ytick_6">
     <g id="line2d_21">
      <path d="M 90 131.966393 
L 648 131.966393 
" clip-path="url(#p4e565bc103)" style="fill: none; stroke: #b0b0b0; stroke-width: 0.8; stroke-linecap: square"/>
     </g>
     <g id="line2d_22">
      <g>
       <use xlink:href="#me94471457b" x="90" y="131.966393" style="stroke: #000000; stroke-width: 0.8"/>
      </g>
     </g>
     <g id="text_12">
      <!-- 0.2 -->
      <g transform="translate(67.096875 135.765611)scale(0.1 -0.1)">
       <use xlink:href="#DejaVuSans-30"/>
       <use xlink:href="#DejaVuSans-2e" x="63.623047"/>
       <use xlink:href="#DejaVuSans-32" x="95.410156"/>
      </g>
     </g>
    </g>
    <g id="ytick_7">
     <g id="line2d_23">
      <path d="M 90 76.121521 
L 648 76.121521 
" clip-path="url(#p4e565bc103)" style="fill: none; stroke: #b0b0b0; stroke-width: 0.8; stroke-linecap: square"/>
     </g>
     <g id="line2d_24">
      <g>
       <use xlink:href="#me94471457b" x="90" y="76.121521" style="stroke: #000000; stroke-width: 0.8"/>
      </g>
     </g>
     <g id="text_13">
      <!-- 0.3 -->
      <g transform="translate(67.096875 79.92074)scale(0.1 -0.1)">
       <use xlink:href="#DejaVuSans-30"/>
       <use xlink:href="#DejaVuSans-2e" x="63.623047"/>
       <use xlink:href="#DejaVuSans-33" x="95.410156"/>
      </g>
     </g>
    </g>
    <g id="text_14">
     <!-- Error (X) -->
     <g transform="translate(52.6375 275.620781)rotate(-90)scale(0.1 -0.1)">
      <defs>
       <path id="DejaVuSans-45" d="M 628 4666 
L 3578 4666 
L 3578 4134 
L 1259 4134 
L 1259 2753 
L 3481 2753 
L 3481 2222 
L 1259 2222 
L 1259 531 
L 3634 531 
L 3634 0 
L 628 0 
L 628 4666 
z
" transform="scale(0.015625)"/>
       <path id="DejaVuSans-72" d="M 2631 2963 
Q 2534 3019 2420 3045 
Q 2306 3072 2169 3072 
Q 1681 3072 1420 2755 
Q 1159 2438 1159 1844 
L 1159 0 
L 581 0 
L 581 3500 
L 1159 3500 
L 1159 2956 
Q 1341 3275 1631 3429 
Q 1922 3584 2338 3584 
Q 2397 3584 2469 3576 
Q 2541 3569 2628 3553 
L 2631 2963 
z
" transform="scale(0.015625)"/>
       <path id="DejaVuSans-6f" d="M 1959 3097 
Q 1497 3097 1228 2736 
Q 959 2375 959 1747 
Q 959 1119 1226 758 
Q 1494 397 1959 397 
Q 2419 397 2687 759 
Q 2956 1122 2956 1747 
Q 2956 2369 2687 2733 
Q 2419 3097 1959 3097 
z
M 1959 3584 
Q 2709 3584 3137 3096 
Q 3566 2609 3566 1747 
Q 3566 888 3137 398 
Q 2709 -91 1959 -91 
Q 1206 -91 779 398 
Q 353 888 353 1747 
Q 353 2609 779 3096 
Q 1206 3584 1959 3584 
z
" transform="scale(0.015625)"/>
       <path id="DejaVuSans-58" d="M 403 4666 
L 1081 4666 
L 2241 2931 
L 3406 4666 
L 4084 4666 
L 2584 2425 
L 4184 0 
L 3506 0 
L 2194 1984 
L 872 0 
L 191 0 
L 1856 2491 
L 403 4666 
z
" transform="scale(0.015625)"/>
      </defs>
      <use xlink:href="#DejaVuSans-45"/>
      <use xlink:href="#DejaVuSans-72" x="63.183594"/>
      <use xlink:href="#DejaVuSans-72" x="102.546875"/>
      <use xlink:href="#DejaVuSans-6f" x="141.410156"/>
      <use xlink:href="#DejaVuSans-72" x="202.591797"/>
      <use xlink:href="#DejaVuSans-20" x="243.705078"/>
      <use xlink:href="#DejaVuSans-28" x="275.492188"/>
      <use xlink:href="#DejaVuSans-58" x="314.505859"/>
      <use xlink:href="#DejaVuSans-29" x="383.011719"/>
     </g>
    </g>
   </g>
   <g id="line2d_25">
    <path d="M 115.363636 183.278965 
L 116.018369 188.087919 
L 116.356234 188.895842 
L 116.691714 190.895555 
L 117.026574 194.712532 
L 117.367904 196.629057 
L 117.747468 205.585478 
L 118.678557 205.517206 
L 119.040605 206.60375 
L 119.098089 210.071684 
L 119.689363 210.096937 
L 119.916695 215.762472 
L 120.588204 217.157826 
L 121.228074 216.446838 
L 121.536045 218.985537 
L 121.951847 220.123796 
L 122.457531 220.202701 
L 122.836763 220.145685 
L 122.980005 221.639752 
L 123.279127 223.185514 
L 123.625461 224.364037 
L 123.951726 226.240412 
L 124.562842 228.034275 
L 124.842785 229.37194 
L 125.086898 229.815705 
L 125.96866 234.684461 
L 126.416134 238.272397 
L 126.643779 238.729679 
L 128.662275 255.783038 
L 131.018482 278.182573 
L 131.355212 279.4974 
L 131.691788 286.250414 
L 132.270521 288.257589 
L 132.451006 289.509905 
L 132.948557 296.750543 
L 133.177773 295.154398 
L 133.493185 301.468183 
L 134.062963 302.844009 
L 134.540325 310.092735 
L 134.719508 307.517089 
L 135.098374 314.818183 
L 135.392372 314.338934 
L 135.832857 320.959805 
L 136.049528 322.465415 
L 136.721272 329.572237 
L 137.058035 332.65901 
L 137.41243 334.593175 
L 138.085323 340.404662 
L 138.421856 341.686061 
L 139.296346 342.502362 
L 140.191068 352.27223 
L 140.597842 347.122289 
L 141.074988 358.452882 
L 141.20095 357.978224 
L 141.537699 359.789542 
L 141.873223 362.606745 
L 142.226782 359.436706 
L 143.05528 361.377666 
L 143.460555 370.832904 
L 143.552874 367.641976 
L 143.713253 369.397603 
L 144.327613 363.864583 
L 144.744372 365.611336 
L 145.30468 371.23799 
L 145.570428 370.854354 
L 145.90598 369.206783 
L 146.706176 354.67836 
L 147.504065 368.764618 
L 147.747942 376.024083 
L 147.770448 370.359603 
L 147.922621 376.290387 
L 148.260692 367.4381 
L 148.658771 360.839058 
L 149.183346 370.612251 
L 149.700038 359.266029 
L 150.458386 366.033618 
L 150.850033 361.432858 
L 151.074203 364.419142 
L 151.283356 362.526455 
L 151.617783 365.006653 
L 151.954768 358.279442 
L 152.459846 360.528468 
L 152.638294 363.552868 
L 153.125914 356.747575 
L 153.660179 344.441954 
L 154.248395 352.059954 
L 154.609674 347.995115 
L 154.967434 340.73352 
L 155.853681 327.763058 
L 156.985622 343.315079 
L 157.200255 337.961112 
L 157.541796 335.478839 
L 157.881271 335.689222 
L 158.544435 323.798686 
L 158.92794 316.458887 
L 159.27526 318.481578 
L 159.553486 316.526297 
L 159.951258 311.722842 
L 160.560941 293.848144 
L 161.298014 301.955321 
L 161.744306 295.615506 
L 162.153056 297.100164 
L 162.382994 292.062685 
L 162.907164 287.686164 
L 163.452197 286.54405 
L 163.630759 281.631396 
L 164.465853 277.85201 
L 164.685754 278.375742 
L 165.365818 271.226491 
L 165.669694 270.788875 
L 166.008303 267.921041 
L 166.342548 263.002987 
L 166.677524 262.885874 
L 167.020806 259.977874 
L 167.351628 253.461468 
L 167.918224 250.248423 
L 168.161101 247.750677 
L 168.743204 239.572252 
L 169.186015 239.130601 
L 169.370701 234.577564 
L 169.701283 234.064616 
L 170.049362 229.385932 
L 170.379868 227.665262 
L 170.721861 223.084359 
L 171.384073 218.064469 
L 172.068041 210.756079 
L 172.529906 208.253617 
L 173.401945 199.992459 
L 173.827297 201.71879 
L 174.440836 192.401608 
L 174.741049 191.126341 
L 175.096194 192.614592 
L 175.970328 184.401434 
L 176.64298 176.524782 
L 176.778551 178.733135 
L 177.14056 179.315524 
L 177.967309 172.69446 
L 178.320954 169.378994 
L 178.816534 166.594481 
L 178.947375 166.505082 
L 179.144943 166.698788 
L 179.370959 162.380629 
L 179.735419 161.977077 
L 180.117174 161.03904 
L 180.369992 157.089467 
L 180.687135 157.435391 
L 181.028157 152.535692 
L 181.359682 154.446854 
L 182.020461 147.790543 
L 182.360648 148.451866 
L 182.730549 143.604557 
L 183.411143 139.005804 
L 183.722382 137.87783 
L 184.037112 132.330517 
L 184.716378 126.143869 
L 185.046153 122.048402 
L 185.386551 120.865306 
L 185.719642 118.450391 
L 186.07273 118.187397 
L 186.397842 117.626762 
L 186.731327 113.91024 
L 187.101729 119.081323 
L 187.652222 112.202857 
L 188.201888 109.77336 
L 188.548957 104.540104 
L 189.009246 115.851565 
L 189.632167 102.811485 
L 190.742488 96.550404 
L 190.907197 100.723855 
L 191.295297 101.279248 
L 191.510449 100.920662 
L 191.805134 98.497438 
L 192.323037 96.491517 
L 192.65884 97.515913 
L 192.994161 96.002664 
L 193.336136 98.401748 
L 193.705903 101.801625 
L 194.338928 100.109971 
L 194.676038 101.531688 
L 195.011167 105.453 
L 195.346297 106.990521 
L 195.679955 105.490681 
L 196.109413 115.28249 
L 196.620981 113.423404 
L 196.972857 118.433989 
L 197.297104 126.097358 
L 197.950471 119.206593 
L 198.100347 124.375716 
L 198.233178 138.686142 
L 198.980019 125.689725 
L 199.104005 130.630636 
L 199.363658 126.982042 
L 199.653709 129.862631 
L 199.813208 130.118935 
L 200.050298 135.854443 
L 200.38637 134.995836 
L 200.722653 135.490881 
L 201.06829 143.265754 
L 201.442249 140.74958 
L 202.072919 158.147224 
L 202.746523 156.049915 
L 203.025009 154.721455 
L 203.163637 156.730638 
L 203.411821 174.867295 
L 204.119746 168.887886 
L 204.454347 173.148989 
L 204.762299 172.072575 
L 205.204639 184.09413 
L 205.734991 183.065183 
L 205.982493 186.338052 
L 206.286503 188.361993 
L 206.479582 192.225858 
L 207.121548 197.158124 
L 207.444632 197.583018 
L 207.802295 203.720767 
L 208.468189 206.444341 
L 208.786678 208.541635 
L 209.128383 212.956091 
L 209.46381 214.219191 
L 209.797892 216.087049 
L 210.17882 220.416873 
L 210.46816 220.861885 
L 210.802934 222.079571 
L 211.150003 225.207855 
L 211.598121 231.345956 
L 213.17147 240.021322 
L 213.829308 245.042329 
L 214.173157 248.677425 
L 215.172114 256.837554 
L 215.844122 263.052744 
L 216.204689 267.941616 
L 216.857836 273.993612 
L 217.636103 283.84672 
L 218.254324 290.020482 
L 218.345451 292.369186 
L 218.602162 293.810902 
L 219.203444 300.836141 
L 219.539756 306.84879 
L 219.929154 309.253208 
L 220.660911 315.176766 
L 222.472667 338.870849 
L 223.147136 345.263217 
L 223.849091 353.331405 
L 224.545258 354.920589 
L 225.099722 358.057545 
L 225.443571 366.766742 
L 226.563995 379.216709 
L 226.906681 378.438064 
L 227.242752 379.469708 
L 227.573267 381.704136 
L 228.246102 388.450668 
L 228.582289 390.085382 
L 228.918457 382.229027 
L 229.79833 400.166733 
L 229.926152 387.468874 
L 230.279221 393.393028 
L 230.60018 401.516048 
L 230.934694 398.976704 
L 231.272707 394.910741 
L 231.913318 402.389154 
L 232.283056 381.053836 
L 233.261045 398.235039 
L 233.622651 389.611568 
L 234.187468 396.325814 
L 234.89122 407.787102 
L 235.012005 407.155476 
L 235.300624 407.116639 
L 235.629236 407.496881 
L 235.970383 403.568478 
L 236.287727 409.290203 
L 236.656774 407.745644 
L 236.960044 394.418937 
L 237.577966 399.588849 
L 238.060702 400.534908 
L 238.29635 398.211819 
L 238.435247 398.804449 
L 238.648534 401.699208 
L 238.991355 392.940388 
L 239.314698 397.899224 
L 239.648404 393.858528 
L 239.984783 393.853362 
L 240.356041 387.051068 
L 241.03524 367.188177 
L 242.001693 366.500297 
L 242.640593 359.884326 
L 243.105871 353.211259 
L 243.66467 358.92657 
L 244.004375 349.654761 
L 244.623394 353.904415 
L 244.992305 351.893261 
L 245.313495 346.783767 
L 245.637569 345.735686 
L 246.196079 328.094097 
L 246.869184 328.157623 
L 247.410351 331.813408 
L 247.766034 318.361199 
L 248.480958 325.342632 
L 248.767039 316.634836 
L 249.104879 316.654858 
L 249.42853 312.999553 
L 249.893078 301.726728 
L 250.567624 298.070635 
L 251.279683 295.726395 
L 251.669013 291.743577 
L 251.953864 285.261571 
L 252.489513 284.400782 
L 252.829507 277.048949 
L 253.183998 277.472293 
L 253.35239 279.367067 
L 254.114497 269.530709 
L 254.4677 267.795031 
L 254.871278 258.332144 
L 255.560187 257.569283 
L 255.74148 256.28434 
L 255.948864 251.120711 
L 256.365305 250.117569 
L 256.552404 248.41677 
L 256.81101 247.204851 
L 257.017336 242.456509 
L 257.37302 239.195205 
L 257.823973 237.730901 
L 258.34851 232.657962 
L 259.586373 215.920537 
L 260.094163 214.462013 
L 260.264996 211.631713 
L 260.774131 207.802401 
L 261.143889 202.086718 
L 261.49986 200.260621 
L 261.7014 197.086823 
L 262.371716 191.523206 
L 262.718113 186.398105 
L 263.083775 184.718237 
L 263.402619 180.438005 
L 263.714618 178.911882 
L 264.064725 174.289497 
L 264.725582 168.676159 
L 265.059096 164.994849 
L 265.644909 161.345938 
L 266.049449 156.653114 
L 266.536377 155.241982 
L 267.116748 150.401176 
L 268.866362 133.054025 
L 269.209029 133.414741 
L 269.540986 136.124821 
L 270.882657 120.827794 
L 271.220805 122.032351 
L 271.55455 116.953322 
L 272.564803 111.224223 
L 272.901509 108.666444 
L 273.235869 111.184776 
L 273.570576 104.001176 
L 274.244699 98.500186 
L 274.590192 98.758295 
L 274.929051 95.572271 
L 275.923019 89.712568 
L 276.598161 90.896819 
L 277.041328 93.937588 
L 277.424564 92.983841 
L 277.713606 80.248301 
L 277.990861 85.023005 
L 278.281557 80.242116 
L 278.611956 79.53984 
L 278.970773 88.648632 
L 279.520786 88.911112 
L 279.903906 80.99393 
L 280.336344 83.392644 
L 280.626943 80.310068 
L 280.963111 80.032726 
L 281.312353 80.637261 
L 281.971902 82.486341 
L 282.306955 82.818618 
L 282.642969 98.071398 
L 282.985078 84.166589 
L 283.31715 89.956952 
L 283.652299 85.104898 
L 283.986909 96.075458 
L 284.323134 96.622945 
L 285.000988 109.48795 
L 285.527389 101.861715 
L 285.756365 101.064905 
L 286.013009 98.567616 
L 286.340967 105.039451 
L 286.79417 128.971182 
L 287.640646 116.040132 
L 287.845608 129.096018 
L 288.324537 121.692479 
L 288.520769 124.315761 
L 289.178588 120.669239 
L 289.516929 124.740547 
L 289.879476 138.267039 
L 290.233044 141.003213 
L 290.641717 137.207969 
L 290.861522 148.942278 
L 291.428301 145.77191 
L 291.840377 154.996271 
L 292.280506 156.468825 
L 292.791564 162.945182 
L 293.081221 174.982884 
L 294.078957 171.718171 
L 294.400377 169.847117 
L 294.738064 179.127845 
L 295.072866 178.385247 
L 295.408534 181.853218 
L 295.746971 189.172322 
L 296.088868 192.761581 
L 296.416403 202.514353 
L 296.992948 202.185667 
L 297.336711 207.200053 
L 297.584453 207.378711 
L 298.134869 216.475455 
L 298.432909 214.225307 
L 298.768557 218.190766 
L 299.45389 229.868423 
L 300.130206 238.033469 
L 300.793139 243.996082 
L 301.124634 245.144718 
L 302.498588 256.926458 
L 302.850907 258.149284 
L 303.474847 262.016434 
L 303.811861 267.247561 
L 304.592387 269.912923 
L 305.573472 276.006042 
L 306.337137 281.667239 
L 307.013337 285.848527 
L 307.371539 287.063615 
L 307.44241 289.290047 
L 308.021955 293.578978 
L 309.379066 306.344157 
L 309.720521 306.131392 
L 310.540809 318.570798 
L 310.865056 319.217251 
L 311.071248 323.22806 
L 311.724376 327.33028 
L 312.062889 331.990432 
L 312.398307 332.559532 
L 313.065182 340.758184 
L 313.44488 342.699745 
L 314.069993 350.630095 
L 314.455613 351.220522 
L 314.765978 356.126988 
L 315.413491 362.16676 
L 315.784517 362.153689 
L 316.123531 365.258986 
L 316.437068 371.301611 
L 316.837743 371.872968 
L 317.100405 368.666082 
L 317.437188 370.183171 
L 317.802889 381.180073 
L 318.280645 380.251448 
L 318.450132 378.55255 
L 318.779282 386.299152 
L 319.116411 387.455646 
L 319.448234 382.380239 
L 319.810281 388.133586 
L 320.128625 389.512006 
L 320.469234 389.95793 
L 320.802575 385.301802 
L 321.295964 371.456556 
L 321.78093 388.276987 
L 322.343805 366.512089 
L 323.152596 378.833842 
L 323.803589 378.654253 
L 324.071808 384.308837 
L 324.211628 375.120809 
L 324.641566 371.969082 
L 325.240839 381.99679 
L 325.510288 380.374537 
L 325.897677 380.269539 
L 326.182181 384.425717 
L 326.515907 383.944066 
L 326.852671 375.906839 
L 327.191684 382.415373 
L 327.86475 373.066603 
L 328.342141 378.534071 
L 328.532259 378.623613 
L 328.868927 370.851077 
L 329.228398 372.247703 
L 329.556702 371.053618 
L 329.878276 370.810989 
L 330.212309 372.211736 
L 330.606024 365.180593 
L 330.890567 355.571585 
L 331.712701 363.165655 
L 331.926891 359.495447 
L 332.287401 355.949072 
L 332.582691 354.319716 
L 332.931741 355.981279 
L 333.323379 355.828774 
L 333.628918 348.729083 
L 334.025959 348.272449 
L 334.279757 338.907578 
L 334.720155 347.6455 
L 334.946555 342.081149 
L 335.27632 339.552676 
L 335.59228 326.758551 
L 336.720818 328.220102 
L 337.059005 328.307782 
L 338.74067 313.98602 
L 339.076549 310.771321 
L 339.441712 304.126494 
L 339.766804 300.686662 
L 340.085918 302.293647 
L 340.420336 299.421632 
L 340.832201 293.868516 
L 341.090825 294.098251 
L 341.429146 288.664933 
L 341.76416 289.017286 
L 342.440379 284.344986 
L 342.792948 278.526378 
L 343.107485 279.659895 
L 343.476089 275.267542 
L 343.77884 274.960513 
L 344.114815 272.447745 
L 344.45329 267.583078 
L 344.789131 267.220758 
L 345.796173 259.005627 
L 346.807617 250.090251 
L 347.559938 240.982158 
L 347.818428 239.486542 
L 348.152423 233.897726 
L 348.653156 228.653458 
L 349.281326 226.047053 
L 349.526242 223.590994 
L 349.704862 218.415712 
L 350.33732 217.88301 
L 350.8354 214.155063 
L 351.171914 212.496585 
L 351.5121 208.146615 
L 351.849171 207.438777 
L 352.401241 204.086091 
L 352.531505 200.132556 
L 353.566887 199.40177 
L 353.914072 198.031952 
L 354.387579 193.478573 
L 354.576909 192.902725 
L 354.913365 192.673307 
L 355.389064 189.349241 
L 355.921003 187.545173 
L 356.257248 188.65795 
L 356.768652 185.780681 
L 357.107319 178.853838 
L 357.495438 179.760967 
L 357.959024 177.221057 
L 358.273734 177.284361 
L 358.609518 175.690326 
L 359.454051 168.404982 
L 359.619174 172.523702 
L 360.682167 159.943293 
L 361.029486 159.376931 
L 361.478768 158.237926 
L 361.99071 151.679212 
L 362.313245 150.803339 
L 362.691405 145.715115 
L 362.978928 146.218324 
L 363.314 139.078294 
L 363.65036 140.929816 
L 363.988566 134.271319 
L 364.321638 135.582716 
L 364.658228 139.015071 
L 365.199761 130.586415 
L 365.470211 136.77163 
L 365.712127 127.243036 
L 366.005072 131.942875 
L 366.381347 123.933476 
L 366.674638 130.134815 
L 367.087465 127.226057 
L 367.3498 122.591771 
L 367.685179 123.503599 
L 368.018982 122.320313 
L 368.367167 143.0166 
L 369.446907 124.266003 
L 369.860387 129.120269 
L 370.206706 121.79537 
L 370.45689 130.997075 
L 371.003037 132.903528 
L 371.579641 132.835554 
L 372.127461 124.046802 
L 372.232364 129.023058 
L 372.472742 132.425141 
L 372.812313 131.620576 
L 373.156556 129.71013 
L 373.818182 133.312607 
L 374.152504 141.073676 
L 374.489864 136.510391 
L 374.824897 137.96758 
L 375.17189 145.096595 
L 375.498636 146.882946 
L 375.837534 150.748222 
L 376.290622 147.824225 
L 376.551573 147.149136 
L 376.845825 152.705523 
L 377.178321 147.631261 
L 378.186112 150.797244 
L 378.526779 161.983829 
L 378.874195 152.681925 
L 379.21142 155.868368 
L 379.534071 160.507942 
L 379.870623 160.929519 
L 380.217289 164.092369 
L 380.537786 165.107338 
L 380.873416 166.670478 
L 381.2236 163.507242 
L 381.616276 169.824142 
L 381.882303 169.071369 
L 383.225128 180.362282 
L 383.640069 181.582302 
L 383.898598 186.152422 
L 384.570106 191.968085 
L 384.907216 198.911247 
L 385.241653 199.047817 
L 385.991878 208.370938 
L 386.502282 210.610348 
L 386.801399 212.613508 
L 386.928106 210.848561 
L 387.262236 217.735268 
L 387.597711 217.770491 
L 387.932764 220.584229 
L 388.304348 221.973381 
L 388.612944 224.951569 
L 389.273512 226.685646 
L 389.609603 227.929056 
L 389.951077 231.491683 
L 390.292167 232.610383 
L 390.709473 235.52378 
L 391.103284 237.384631 
L 391.588154 238.85859 
L 391.783579 238.834375 
L 392.63392 244.819323 
L 392.979355 245.94174 
L 393.642653 250.554368 
L 394.315681 255.057628 
L 394.650541 257.533699 
L 395.006359 261.353493 
L 395.336912 263.084404 
L 395.738222 268.214031 
L 396.354068 270.513216 
L 397.339037 278.234988 
L 398.346694 286.453803 
L 398.693705 287.896563 
L 399.354235 293.488066 
L 401.707793 311.144092 
L 402.378629 315.251059 
L 402.722488 317.106796 
L 403.132911 323.052555 
L 403.386555 322.598764 
L 403.7233 324.717717 
L 404.062428 322.969853 
L 404.471582 323.642617 
L 404.75303 329.012777 
L 405.128921 324.724795 
L 405.638709 337.688729 
L 406.150498 334.108711 
L 406.56815 337.920536 
L 406.846214 337.460083 
L 407.176959 340.177883 
L 407.591343 342.644384 
L 407.888441 342.534336 
L 408.470639 345.460139 
L 408.808422 352.72473 
L 409.144436 348.886532 
L 409.484795 351.458445 
L 409.819771 351.86105 
L 410.15267 358.159931 
L 410.488645 353.592178 
L 410.831389 358.665876 
L 411.182361 352.429651 
L 411.504724 359.542556 
L 411.833201 359.432673 
L 412.195133 363.659423 
L 412.504805 359.937226 
L 412.844395 353.658265 
L 413.251857 365.002715 
L 413.515346 362.927154 
L 413.85609 364.298041 
L 414.211139 353.26196 
L 414.64898 355.182999 
L 415.200069 358.650753 
L 415.705628 349.390096 
L 416.202611 360.802366 
L 416.55143 355.674458 
L 416.963815 360.385906 
L 417.212114 357.776307 
L 417.679065 360.343406 
L 417.890294 362.873955 
L 418.224386 357.483961 
L 418.742711 352.857057 
L 419.227044 334.104205 
L 419.858156 347.863862 
L 420.152754 336.45037 
L 420.762063 343.339109 
L 420.91415 337.05672 
L 421.242319 341.732508 
L 421.581332 337.36322 
L 422.018596 337.335492 
L 422.256552 328.276987 
L 422.589066 326.431689 
L 422.989145 330.348984 
L 423.265439 331.667981 
L 423.932853 327.468576 
L 424.33993 311.52035 
L 424.694863 321.15855 
L 424.968081 318.553644 
L 425.285637 307.486053 
L 425.755357 312.288222 
L 426.128364 303.193153 
L 426.62081 311.045333 
L 426.957708 303.816351 
L 427.294798 302.726443 
L 427.62889 303.811734 
L 428.30284 298.478029 
L 428.641853 291.703079 
L 429.014899 289.306556 
L 429.331455 289.300051 
L 429.647318 288.19557 
L 429.981486 283.102515 
L 430.317347 282.896949 
L 430.991028 277.62085 
L 431.667708 270.101737 
L 432.074632 269.038287 
L 432.341159 257.619511 
L 432.806418 260.014663 
L 433.366928 254.406647 
L 433.68756 254.046847 
L 434.022843 251.502953 
L 434.354204 247.468554 
L 434.68545 246.911179 
L 435.02154 239.577242 
L 436.199589 234.954692 
L 436.551292 232.715111 
L 436.88023 232.747118 
L 438.047665 224.413793 
L 438.717462 219.198803 
L 439.209216 217.173121 
L 439.726427 213.750472 
L 440.397339 209.264018 
L 441.446488 203.393254 
L 441.741818 198.898661 
L 442.307481 197.299465 
L 442.424805 196.43775 
L 442.910444 190.722633 
L 443.58751 189.060006 
L 443.72683 187.518426 
L 443.968823 187.470445 
L 444.115372 184.521564 
L 444.430159 182.993867 
L 444.765827 187.898819 
L 445.437816 176.960954 
L 445.774099 181.343777 
L 446.255163 175.64023 
L 446.447742 170.493369 
L 446.782141 169.139486 
L 447.119039 166.791849 
L 447.544767 167.550772 
L 448.168496 162.350947 
L 448.510393 160.785347 
L 449.618301 148.094423 
L 449.887789 146.748537 
L 450.219688 144.482038 
L 450.557201 144.043072 
L 450.892062 138.276736 
L 451.427269 139.822513 
L 451.595353 133.534287 
L 451.978742 134.351662 
L 452.240347 130.030736 
L 452.576976 128.638588 
L 452.907722 138.999439 
L 453.430431 122.620237 
L 453.590555 121.950825 
L 453.920185 122.808156 
L 454.24947 117.655504 
L 454.589983 116.247493 
L 455.325729 119.707628 
L 455.712426 124.271005 
L 456.328618 112.585894 
L 456.612103 110.612002 
L 456.96396 107.18441 
L 457.345581 105.907175 
L 457.372691 104.910576 
L 457.645294 104.334376 
L 457.950429 108.334628 
L 458.338818 106.733977 
L 458.680638 105.87059 
L 459.068488 110.739294 
L 459.366202 107.117488 
L 459.628191 110.215499 
L 459.964359 110.956103 
L 460.304064 127.48112 
L 460.849346 112.591199 
L 460.972785 120.986491 
L 461.33091 115.19125 
L 461.645389 115.169142 
L 462.01805 121.214832 
L 462.31534 117.761375 
L 462.653123 117.473126 
L 463.101308 137.08246 
L 463.841554 126.002255 
L 464.293469 128.928405 
L 464.965843 126.43729 
L 465.310624 135.470058 
L 465.66029 140.413768 
L 465.978422 139.271532 
L 466.311936 138.613378 
L 466.647527 146.352667 
L 466.983926 146.30076 
L 467.324746 166.023508 
L 467.952244 147.789112 
L 468.37801 157.852376 
L 468.584625 156.070329 
L 468.662995 164.689732 
L 468.999932 164.640222 
L 469.336561 182.509602 
L 470.167021 191.288785 
L 471.176523 174.654835 
L 471.520997 187.772294 
L 472.012559 190.143095 
L 472.478087 191.580196 
L 472.620945 193.642252 
L 472.859631 194.117103 
L 473.195991 194.398109 
L 473.869018 203.372668 
L 474.204955 211.70602 
L 474.756544 212.017286 
L 475.081483 220.241224 
L 475.768469 218.096955 
L 476.213116 228.844631 
L 476.698141 224.53892 
L 477.044768 227.435383 
L 477.390819 239.465399 
L 478.177171 240.719838 
L 478.743257 239.226843 
L 479.082116 240.20407 
L 479.44301 244.158127 
L 479.783562 246.429137 
L 480.113461 251.112829 
L 480.60733 251.546962 
L 481.537886 258.327366 
L 481.943772 260.320647 
L 482.442909 261.778681 
L 483.140086 266.668232 
L 483.825726 269.111072 
L 484.025304 269.30671 
L 484.252492 270.91593 
L 484.532093 271.728722 
L 485.187624 274.34108 
L 485.505911 276.094777 
L 485.806623 275.706457 
L 486.285111 277.672395 
L 487.51338 288.037492 
L 487.890386 290.344562 
L 488.412404 296.122764 
L 488.815943 296.895394 
L 488.921808 298.82549 
L 489.163647 300.440275 
L 489.833829 307.195399 
L 490.170112 308.144702 
L 490.730199 313.365896 
L 491.025913 310.032157 
L 491.639759 323.73103 
L 492.177658 320.870668 
L 492.828344 329.631875 
L 493.193045 328.097311 
L 493.674647 331.072904 
L 494.184205 338.275506 
L 494.345944 332.595875 
L 494.861232 336.953761 
L 495.343218 346.702505 
L 495.387364 343.128116 
L 495.534451 345.206873 
L 495.885347 343.965096 
L 496.251048 350.095065 
L 496.542185 351.486162 
L 496.892581 347.2554 
L 497.571569 355.13363 
L 497.944422 356.779474 
L 498.396722 354.888905 
L 498.882285 361.026298 
L 499.006992 353.509997 
L 499.30409 364.523517 
L 499.575078 363.793719 
L 499.89471 368.384302 
L 500.23853 368.044611 
L 500.914595 364.913774 
L 501.24438 364.366957 
L 501.628231 354.633583 
L 502.194701 363.692481 
L 502.452768 360.088155 
L 502.861461 360.326369 
L 503.285343 362.245965 
L 503.564598 357.097374 
L 504.079309 357.615206 
L 504.483579 363.473119 
L 504.823823 363.875822 
L 505.439631 363.387234 
L 505.788796 359.562401 
L 506.323696 364.786433 
L 506.628677 361.671008 
L 507.470442 359.80115 
L 507.7765 349.155519 
L 508.201689 351.485888 
L 508.781503 351.635947 
L 509.325555 353.620565 
L 509.918021 343.358446 
L 510.276107 345.502414 
L 510.475301 327.371706 
L 511.359904 342.147258 
L 511.682382 336.596732 
L 512.015166 334.26199 
L 512.381251 327.962776 
L 512.688155 328.39568 
L 513.106345 330.279239 
L 513.393868 325.892362 
L 514.531309 318.016271 
L 514.757189 319.485198 
L 515.066824 311.479927 
L 515.90582 305.239378 
L 516.119011 309.562161 
L 516.384884 305.018496 
L 516.76712 301.556687 
L 517.119246 301.892452 
L 517.406231 295.725841 
L 517.814462 293.405121 
L 518.076566 290.764861 
L 518.401467 289.27082 
L 518.738711 286.583089 
L 519.118871 284.53565 
L 519.745868 278.49915 
L 520.095418 276.618953 
L 520.778444 269.726358 
L 521.112304 267.90368 
L 521.766105 261.38886 
L 522.435018 254.673071 
L 522.789682 251.938963 
L 523.244712 245.221323 
L 523.498664 246.773214 
L 523.830948 240.748898 
L 525.009342 229.030948 
L 525.42188 226.612577 
L 525.714402 223.566772 
L 526.282257 221.040987 
L 526.504215 219.631111 
L 527.164514 213.080806 
L 528.171133 203.946708 
L 528.849121 199.640091 
L 529.293499 197.999501 
L 529.868315 193.480121 
L 530.196215 187.863298 
L 530.809792 185.462989 
L 531.162149 182.803011 
L 532.238831 177.682888 
L 533.020646 172.451464 
L 533.122665 177.203531 
L 533.855643 168.475279 
L 535.362283 158.458352 
L 535.702297 157.145333 
L 536.136061 156.399377 
L 537.04366 149.135652 
L 537.457852 149.064414 
L 537.71888 147.584557 
L 538.3866 145.482501 
L 538.723768 142.975625 
L 539.058628 146.401052 
L 539.731117 140.304605 
L 540.140925 139.344529 
L 540.404837 137.95883 
L 540.738582 133.588569 
L 541.077826 132.182274 
L 541.411648 129.535787 
L 541.747431 129.872601 
L 542.083637 133.676948 
L 542.419728 134.173425 
L 542.771854 130.904197 
L 543.427039 127.748567 
L 543.764129 129.51376 
L 544.110564 129.453495 
L 544.805357 126.815318 
L 545.295804 129.968474 
L 545.866312 132.278193 
L 546.597328 122.313863 
L 546.941033 121.488838 
L 547.628673 125.95852 
L 547.95392 126.51175 
L 548.737773 129.075041 
L 548.882938 124.009555 
L 548.964653 125.014782 
L 549.305589 127.268952 
L 549.63595 126.121215 
L 549.970272 129.643021 
L 550.684215 129.105136 
L 550.969085 130.002359 
L 551.304676 138.381079 
L 551.898295 136.223633 
L 552.182319 144.388754 
L 552.661459 137.674153 
L 552.748751 140.056994 
L 552.99309 140.94566 
L 553.322912 137.336095 
L 553.665732 141.475797 
L 554.000054 138.419458 
L 554.331492 147.455493 
L 554.672505 147.776403 
L 555.002174 148.549971 
L 555.338303 151.904127 
L 555.681546 146.739408 
L 556.010523 155.027006 
L 556.345999 150.336611 
L 557.022795 153.577728 
L 557.712358 170.585717 
L 558.355122 169.822968 
L 558.97166 171.442251 
L 559.163431 170.252884 
L 559.316287 174.390434 
L 559.895486 173.152508 
L 560.094757 174.832887 
L 560.140902 173.899772 
L 560.38551 175.273263 
L 560.713948 180.815953 
L 561.053423 180.32674 
L 561.389398 183.521459 
L 561.771134 184.465873 
L 562.071962 184.241194 
L 562.393902 195.90822 
L 562.839126 197.241368 
L 563.255202 193.440794 
L 563.401828 195.067673 
L 563.844899 203.356295 
L 564.231519 201.896233 
L 564.410677 208.990618 
L 564.77134 218.196397 
L 565.719393 218.323418 
L 566.155042 219.354564 
L 566.632376 222.52533 
L 566.828839 226.458793 
L 567.428572 226.272684 
L 567.950051 224.287124 
L 567.977354 228.819681 
L 568.297294 229.233796 
L 568.845037 230.4181 
L 569.184935 231.994952 
L 569.517911 234.124902 
L 569.855578 235.410619 
L 572.54938 249.275924 
L 572.984222 253.787284 
L 573.530312 254.759705 
L 575.349393 266.997459 
L 575.671564 269.798239 
L 576.005347 269.088134 
L 576.347283 273.425959 
L 576.868916 275.567819 
L 577.160707 278.491773 
L 577.813546 281.472539 
L 579.755758 296.573517 
L 580.039359 300.395161 
L 580.716117 305.863211 
L 581.720313 314.983448 
L 582.126775 317.303498 
L 582.39484 323.368254 
L 582.72897 324.512307 
L 583.400267 331.004154 
L 584.072833 337.206125 
L 584.56128 339.836731 
L 584.929633 337.366448 
L 585.570206 346.222291 
L 585.855114 348.314402 
L 586.03458 346.345704 
L 586.778594 340.967835 
L 587.336105 355.173861 
L 587.453352 354.120767 
L 587.788328 360.60104 
L 588.166141 358.041909 
L 588.461201 357.013035 
L 588.797946 358.12721 
L 589.204062 361.798688 
L 589.468512 348.803396 
L 590.202874 358.068683 
L 590.982767 349.742972 
L 591.87706 365.907015 
L 592.004344 364.707013 
L 592.328476 365.799932 
L 592.730938 368.344613 
L 593.013155 366.327734 
L 593.33894 365.345572 
L 593.6728 365.493934 
L 594.009391 368.034422 
L 594.345097 366.37516 
L 594.67988 367.594818 
L 595.018701 367.787425 
L 595.37325 357.822204 
L 596.115765 370.952695 
L 596.371024 367.708258 
L 596.699463 366.832937 
L 597.116923 369.971519 
L 597.486815 356.627623 
L 598.318313 357.373056 
L 599.076132 353.883572 
L 599.40184 353.997207 
L 599.740546 355.422405 
L 600.207804 346.418176 
L 600.871718 346.088061 
L 601.168778 339.716927 
L 601.662185 341.813542 
L 602.359516 329.959399 
L 602.729177 331.758327 
L 602.984937 326.08645 
L 603.325181 333.097212 
L 603.674192 318.042122 
L 604.163831 320.495209 
L 604.647509 322.062667 
L 604.672928 322.794868 
L 604.776677 319.862389 
L 605.450397 314.691828 
L 605.786296 311.628034 
L 606.457708 308.110767 
L 607.464788 295.836463 
L 608.119204 294.248092 
L 608.271906 295.213259 
L 608.81142 287.21765 
L 610.580896 272.106781 
L 611.160979 268.778894 
L 612.16929 260.668218 
L 612.505381 258.85592 
L 613.183407 252.741684 
L 613.543301 249.938943 
L 613.891659 243.046938 
L 614.492392 242.357723 
L 614.695777 240.062664 
L 614.949499 233.783252 
L 615.503279 233.096305 
L 616.286325 226.16589 
L 616.538508 222.144047 
L 617.125667 214.934497 
L 618.691489 208.672664 
L 621.319842 192.799056 
L 621.500884 195.793386 
L 622.353455 187.550454 
L 622.636364 186.966726 
L 622.636364 186.966726 
" clip-path="url(#p4e565bc103)" style="fill: none; stroke-dasharray: 9.6,2.4,1.5,2.4; stroke-dashoffset: 0; stroke: #ff0000; stroke-width: 1.5"/>
   </g>
   <g id="line2d_26">
    <path d="M 115.363636 175.203369 
L 115.682202 178.796189 
L 116.018369 177.706939 
L 116.356234 184.298427 
L 116.691714 202.655037 
L 117.026574 193.90962 
L 117.367904 215.72083 
L 117.747468 202.658013 
L 118.678557 187.008741 
L 119.040605 215.013913 
L 119.098089 212.030128 
L 119.689363 234.124968 
L 119.916695 209.681328 
L 120.588204 236.178217 
L 121.228074 229.957956 
L 121.951847 237.091076 
L 122.457531 239.130638 
L 122.870117 238.998343 
L 123.625461 212.743335 
L 123.951726 202.576584 
L 124.562842 222.763966 
L 124.842785 223.814871 
L 125.086898 235.769882 
L 125.337678 223.794801 
L 125.633853 217.087299 
L 125.96866 242.444232 
L 126.416134 243.288018 
L 126.643779 224.197949 
L 126.981398 236.039945 
L 127.317739 222.308558 
L 127.653733 239.74056 
L 127.989891 242.839638 
L 128.326223 263.13881 
L 128.662275 247.221406 
L 129.251414 257.010549 
L 129.35625 280.250705 
L 130.008291 285.248767 
L 130.339181 275.585673 
L 130.713149 295.427962 
L 131.018482 296.994291 
L 131.355212 316.869608 
L 131.691788 314.609306 
L 132.270521 320.506514 
L 132.451006 315.802734 
L 132.948557 309.902222 
L 133.177773 318.85898 
L 133.493185 343.756827 
L 134.062963 359.679587 
L 134.505659 347.981672 
L 134.540325 349.083791 
L 135.098374 311.117953 
L 135.392372 307.569669 
L 135.832857 334.151251 
L 136.049528 339.228996 
L 136.385229 335.853378 
L 136.721272 349.674163 
L 137.058035 341.785507 
L 137.41243 321.131807 
L 137.748593 327.02435 
L 138.085323 330.768393 
L 138.421856 350.333713 
L 139.296346 347.230891 
L 139.661066 361.507108 
L 140.597842 365.317661 
L 141.074988 360.223181 
L 141.20095 367.975954 
L 141.537699 365.778591 
L 141.873223 376.279197 
L 142.226782 391.578818 
L 143.05528 392.333174 
L 143.460555 372.151927 
L 143.713253 382.906508 
L 143.893147 358.022938 
L 144.327613 363.834972 
L 144.744372 337.448712 
L 145.30468 341.8882 
L 145.570428 362.5788 
L 145.90598 366.237035 
L 146.241321 374.698652 
L 146.706176 332.458819 
L 147.504065 348.677589 
L 147.922621 358.307861 
L 148.260692 357.773763 
L 148.658771 368.635683 
L 149.183346 362.800324 
L 149.462717 370.42717 
L 149.700038 381.295044 
L 150.138705 381.450119 
L 150.458386 376.743138 
L 150.850033 380.728253 
L 151.074203 388.024743 
L 151.283356 382.420681 
L 151.617783 396.901033 
L 151.954768 378.485371 
L 152.638294 353.740659 
L 153.125914 361.504464 
L 153.660179 347.147817 
L 154.248395 347.674548 
L 154.609674 361.601198 
L 154.967434 351.238079 
L 155.853681 330.583755 
L 157.200255 381.558652 
L 157.541796 364.621311 
L 157.881271 358.282602 
L 158.214324 363.897873 
L 158.544435 335.512593 
L 158.92794 334.124718 
L 159.27526 323.706528 
L 159.553486 330.404444 
L 159.951258 305.868945 
L 160.560941 315.765843 
L 161.298014 295.212896 
L 161.744306 305.268065 
L 162.153056 297.228579 
L 162.382994 321.168878 
L 162.907164 329.707926 
L 163.630759 309.043768 
L 164.206305 295.506459 
L 164.465853 300.962182 
L 164.685754 300.278586 
L 164.91995 302.382198 
L 165.080612 291.074399 
L 165.365818 281.152337 
L 165.669694 283.25006 
L 166.008303 283.248046 
L 166.342548 285.105318 
L 166.677524 264.975271 
L 167.020806 255.635589 
L 167.351628 260.798619 
L 167.918224 258.324814 
L 168.161101 255.453644 
L 168.366457 239.049267 
L 168.743204 220.922984 
L 169.186015 235.644915 
L 169.370701 229.645221 
L 169.701283 229.132273 
L 170.049362 225.7682 
L 170.379868 224.159704 
L 170.721861 205.05919 
L 171.058154 207.066035 
L 171.384073 204.444212 
L 171.731787 192.006338 
L 172.068041 209.721706 
L 172.529906 224.615162 
L 172.726139 222.255258 
L 173.077803 198.204903 
L 173.401945 205.809846 
L 173.827297 207.572238 
L 174.440836 188.734561 
L 174.741049 196.073108 
L 175.096194 189.215295 
L 175.970328 187.38699 
L 176.64298 174.196265 
L 176.778551 166.528821 
L 177.14056 175.211148 
L 177.76378 162.421798 
L 177.967309 140.590727 
L 178.320954 136.439979 
L 178.816534 146.594146 
L 178.947375 142.95488 
L 179.144943 147.691048 
L 179.370959 140.794578 
L 179.735419 172.233594 
L 180.117174 178.528787 
L 180.369992 171.836337 
L 180.687135 152.711791 
L 181.028157 159.619844 
L 181.359682 142.27726 
L 181.692148 136.254319 
L 182.020461 136.285349 
L 182.360648 144.327948 
L 182.730549 156.864684 
L 183.044654 138.530684 
L 183.411143 138.003359 
L 183.722382 125.669309 
L 184.037112 134.998413 
L 184.375452 113.778514 
L 184.716378 130.495872 
L 185.046153 138.371691 
L 185.386551 150.229312 
L 185.719642 157.497917 
L 186.07273 160.957997 
L 186.731327 141.169674 
L 187.101729 133.897622 
L 187.652222 119.082464 
L 188.201888 132.190374 
L 188.548957 128.413373 
L 189.009246 122.129122 
L 189.632167 102.268085 
L 190.227219 113.06822 
L 190.742488 106.369171 
L 190.907197 106.864905 
L 191.295297 113.433055 
L 191.510449 106.8287 
L 191.805134 126.816227 
L 192.117518 118.785559 
L 192.323037 119.958002 
L 192.65884 147.465171 
L 192.994161 136.40474 
L 193.336136 154.636664 
L 194.004491 142.493274 
L 194.338928 149.450862 
L 194.676038 146.238991 
L 195.011167 145.808707 
L 195.346297 128.527831 
L 195.679955 126.644795 
L 196.620981 83.423211 
L 197.297104 110.758094 
L 197.950471 118.40287 
L 198.233178 109.524727 
L 198.980019 120.9035 
L 199.104005 117.336674 
L 199.363658 115.535942 
L 199.653709 117.194028 
L 199.813208 111.006468 
L 200.722653 155.612638 
L 201.06829 155.501803 
L 201.442249 141.25139 
L 201.74226 139.268968 
L 202.072919 169.792555 
L 202.746523 160.360246 
L 203.025009 165.109049 
L 203.163637 159.636407 
L 203.411821 195.274841 
L 204.454347 185.166025 
L 204.762299 176.381126 
L 205.204639 172.222376 
L 205.734991 181.050257 
L 205.982493 178.185994 
L 206.286503 188.18847 
L 206.479582 186.165416 
L 206.782929 208.92034 
L 207.121548 196.410372 
L 207.444632 206.342165 
L 207.802295 213.586113 
L 208.123571 226.721036 
L 208.468189 222.270851 
L 208.786678 229.985855 
L 209.128383 211.212367 
L 209.46381 200.503001 
L 209.797892 228.210662 
L 210.17882 223.598675 
L 210.46816 214.351612 
L 210.802934 218.89114 
L 211.150003 232.03904 
L 211.598121 222.159662 
L 212.086068 253.014619 
L 212.39501 243.648905 
L 212.841003 249.875342 
L 213.17147 251.170966 
L 213.495804 249.75771 
L 214.589492 289.82344 
L 214.835292 290.151446 
L 215.172114 308.006189 
L 215.507359 301.239803 
L 215.844122 309.301077 
L 216.204689 303.542868 
L 216.857836 314.752965 
L 217.190735 302.929794 
L 217.636103 315.600662 
L 218.254324 317.175011 
L 218.345451 320.5452 
L 218.602162 305.01729 
L 218.875601 299.786251 
L 219.203444 301.262415 
L 219.539756 321.530862 
L 220.660911 337.178546 
L 221.460866 358.988596 
L 221.801216 359.993022 
L 222.138162 344.659552 
L 222.472667 351.35682 
L 222.806835 344.768069 
L 223.479093 361.750809 
L 223.849091 356.543123 
L 225.443571 368.445758 
L 225.891583 375.722954 
L 226.563995 353.890189 
L 226.906681 345.433224 
L 227.573267 364.137987 
L 227.909761 352.124961 
L 228.246102 344.435153 
L 228.582289 356.656083 
L 228.918457 358.502419 
L 229.460547 367.153328 
L 229.79833 335.08275 
L 230.279221 359.717607 
L 230.60018 353.599693 
L 230.934694 359.399017 
L 231.272707 388.186269 
L 231.913318 395.205764 
L 232.283056 400.524182 
L 233.261045 389.18974 
L 233.622651 397.740911 
L 234.187468 420.568929 
L 234.755957 425.488675 
L 234.89122 430.92 
L 235.300624 415.57492 
L 235.629236 417.315729 
L 235.970383 429.144858 
L 236.287727 418.852084 
L 236.960044 376.947682 
L 237.577966 390.929396 
L 238.060702 395.874235 
L 238.29635 392.833879 
L 238.435247 395.809435 
L 238.648534 403.593598 
L 238.991355 393.864503 
L 239.314698 390.08435 
L 239.648404 380.847371 
L 239.984783 388.910632 
L 240.356041 375.991169 
L 240.675654 388.523854 
L 241.03524 381.994407 
L 242.001693 374.600564 
L 242.640593 376.542985 
L 244.004375 390.577953 
L 244.623394 411.69728 
L 244.992305 412.011737 
L 245.313495 419.543918 
L 245.637569 387.307477 
L 246.196079 348.326707 
L 246.869184 337.747847 
L 247.410351 326.768317 
L 248.366076 286.054843 
L 248.480958 286.793717 
L 248.767039 296.159295 
L 249.104879 276.461671 
L 249.42853 283.266102 
L 249.893078 276.960243 
L 250.567624 300.070616 
L 251.279683 299.508566 
L 251.669013 300.647061 
L 251.953864 286.427797 
L 252.489513 279.139003 
L 252.829507 278.68452 
L 253.35239 286.820381 
L 253.730492 272.625761 
L 254.114497 278.942191 
L 254.4677 288.25427 
L 254.871278 291.114691 
L 255.560187 252.299297 
L 255.74148 253.248054 
L 255.948864 266.680724 
L 256.365305 267.373679 
L 256.552404 251.284552 
L 256.81101 252.005758 
L 257.017336 240.317478 
L 257.37302 240.457551 
L 257.823973 248.555355 
L 258.012265 244.993414 
L 258.34851 256.120478 
L 258.676813 256.400655 
L 259.015558 250.26555 
L 259.586373 227.633597 
L 260.094163 226.616447 
L 260.264996 220.840637 
L 260.590339 189.399836 
L 260.774131 188.805261 
L 261.143889 192.037087 
L 261.49986 190.232027 
L 262.152392 220.351172 
L 262.371716 215.735893 
L 262.718113 205.914031 
L 263.083775 204.234164 
L 263.402619 189.168145 
L 264.064725 175.046646 
L 264.41191 173.291408 
L 264.725582 180.580584 
L 265.059096 199.994454 
L 266.049449 171.562518 
L 266.536377 163.746982 
L 267.116748 159.576407 
L 267.621077 170.349385 
L 268.866362 154.505662 
L 269.209029 153.909048 
L 269.540986 155.83645 
L 270.274233 138.969039 
L 270.602902 151.66612 
L 270.882657 149.188872 
L 271.220805 155.509574 
L 271.55455 176.196222 
L 271.892775 175.732838 
L 272.226597 181.305028 
L 272.564803 166.815821 
L 272.901509 157.254412 
L 273.235869 159.648424 
L 273.570576 139.842949 
L 273.90682 163.918818 
L 274.244699 174.555751 
L 274.590192 178.97363 
L 274.929051 170.710072 
L 275.253279 181.521185 
L 276.263993 150.789182 
L 276.598161 148.027663 
L 277.041328 186.176742 
L 277.424564 185.547534 
L 277.713606 174.663798 
L 277.990861 173.287108 
L 278.281557 176.618686 
L 278.611956 153.152553 
L 279.520786 179.466936 
L 279.903906 165.664929 
L 280.19837 177.640704 
L 280.336344 171.433688 
L 280.626943 165.645726 
L 280.963111 186.685951 
L 281.312353 187.162746 
L 281.639946 181.221804 
L 281.971902 162.167973 
L 282.306955 156.917828 
L 282.642969 145.376314 
L 282.985078 156.264961 
L 283.31715 162.275702 
L 283.652299 160.295099 
L 283.986909 162.036051 
L 284.323134 166.14041 
L 284.66705 154.845609 
L 285.000988 178.884257 
L 285.527389 171.164917 
L 285.756365 170.368107 
L 286.013009 197.178217 
L 286.340967 199.256165 
L 286.79417 159.600815 
L 287.640646 149.679051 
L 287.845608 159.33057 
L 288.324537 169.867829 
L 288.520769 153.577543 
L 289.178588 187.750515 
L 289.516929 180.343803 
L 289.879476 184.6401 
L 290.233044 191.448386 
L 290.861522 183.26629 
L 291.428301 182.390731 
L 291.840377 175.393939 
L 292.280506 183.13474 
L 292.791564 175.031896 
L 293.081221 179.130967 
L 293.726677 161.989936 
L 294.078957 165.236629 
L 294.400377 198.609585 
L 294.738064 193.798887 
L 295.072866 208.439175 
L 295.408534 207.596441 
L 295.746971 210.128377 
L 296.088868 199.923819 
L 296.416403 207.226052 
L 297.336711 242.540881 
L 297.584453 248.495932 
L 297.779185 244.019752 
L 298.134869 256.21799 
L 298.432909 273.756038 
L 298.768557 283.586069 
L 299.10486 271.436288 
L 299.45389 286.460784 
L 299.798518 285.095975 
L 300.130206 299.620471 
L 300.457779 286.914194 
L 301.124634 275.869921 
L 301.80543 254.767829 
L 302.151826 257.600458 
L 302.498588 262.970746 
L 302.850907 270.498894 
L 303.136795 263.996084 
L 303.474847 269.252621 
L 303.811861 259.621677 
L 304.592387 268.417007 
L 304.974643 255.465235 
L 305.267934 252.150499 
L 305.573472 238.606385 
L 307.013337 259.502832 
L 307.371539 256.12573 
L 307.44241 261.149263 
L 307.966773 267.655248 
L 308.021955 262.216414 
L 308.356777 267.844287 
L 308.70102 262.038674 
L 309.037418 276.534485 
L 309.379066 306.187027 
L 309.720521 288.950652 
L 310.283742 315.506121 
L 310.540809 314.528072 
L 310.865056 317.323078 
L 311.071248 310.596994 
L 311.431873 311.431751 
L 311.724376 294.440126 
L 312.062889 299.075587 
L 312.398307 296.939623 
L 312.734301 300.890807 
L 313.065182 308.357901 
L 313.44488 323.477924 
L 313.739344 295.233423 
L 314.069993 287.572252 
L 314.455613 291.650572 
L 314.765978 325.903988 
L 315.079284 338.822859 
L 315.413491 345.009079 
L 315.784517 335.575951 
L 316.123531 359.849318 
L 316.437068 369.921929 
L 316.837743 372.519061 
L 317.437188 361.170777 
L 317.802889 377.554923 
L 318.280645 381.669346 
L 318.450132 377.472013 
L 318.779282 349.496563 
L 319.448234 337.22073 
L 319.810281 342.256515 
L 320.128625 310.938436 
L 320.469234 312.195085 
L 320.802575 305.39603 
L 321.295964 321.656649 
L 321.78093 327.164921 
L 321.963146 340.082901 
L 322.343805 357.398989 
L 323.152596 361.111986 
L 323.803589 349.592736 
L 324.071808 355.247321 
L 324.211628 354.145327 
L 324.641566 367.784857 
L 325.216958 369.923348 
L 325.240839 371.068068 
L 325.510288 350.195167 
L 325.897677 358.582251 
L 326.182181 360.360598 
L 326.515907 367.488969 
L 326.852671 360.66272 
L 327.191684 372.595905 
L 327.526486 388.320435 
L 327.86475 385.043144 
L 328.342141 377.311961 
L 328.532259 369.135656 
L 328.868927 371.250287 
L 329.556702 377.451061 
L 329.878276 362.721613 
L 330.212309 364.903039 
L 330.606024 373.939274 
L 330.890567 353.292872 
L 331.338348 353.023127 
L 331.712701 357.658471 
L 331.926891 339.929971 
L 332.582691 325.050727 
L 332.931741 322.806954 
L 333.323379 323.147192 
L 334.025959 329.574541 
L 334.279757 330.255922 
L 334.720155 340.257866 
L 334.946555 357.454608 
L 335.27632 335.458616 
L 335.59228 353.650088 
L 336.720818 300.221628 
L 337.059005 277.703727 
L 337.395173 272.998384 
L 337.732244 285.783681 
L 338.069123 276.346579 
L 338.404541 285.021231 
L 338.74067 286.907804 
L 339.076549 291.812909 
L 339.441712 300.142036 
L 339.766804 290.927895 
L 340.085918 300.306185 
L 340.420336 303.702367 
L 340.832201 305.486644 
L 341.090825 314.092563 
L 341.429146 308.769163 
L 341.76416 282.892331 
L 342.103212 287.721593 
L 342.440379 309.970251 
L 342.792948 314.462271 
L 343.107485 290.490471 
L 343.476089 280.91868 
L 343.77884 286.3408 
L 344.114815 264.575926 
L 344.45329 254.131137 
L 345.12501 252.99109 
L 345.796173 232.406439 
L 346.469739 248.591744 
L 346.807617 242.853202 
L 347.143401 265.934953 
L 347.559938 270.418895 
L 347.818428 271.076233 
L 348.152423 279.768936 
L 349.281326 238.163507 
L 349.526242 236.634148 
L 349.704862 243.475106 
L 350.33732 248.67671 
L 350.568873 256.585772 
L 350.666547 256.341044 
L 350.8354 245.086849 
L 351.171914 254.261401 
L 351.849171 219.057213 
L 352.531505 211.808332 
L 353.566887 192.051438 
L 353.914072 201.871034 
L 354.387579 210.828489 
L 354.576909 207.815497 
L 354.913365 183.322607 
L 355.389064 177.148607 
L 355.756765 189.862847 
L 355.921003 186.11077 
L 356.257248 188.778656 
L 356.768652 184.234528 
L 357.107319 169.077985 
L 357.495438 169.234857 
L 357.676539 162.29115 
L 357.959024 186.236854 
L 358.609518 202.336294 
L 358.974622 168.984557 
L 359.619174 196.236484 
L 360.099853 186.388106 
L 360.289375 207.48345 
L 360.682167 210.480053 
L 361.029486 226.08413 
L 361.478768 207.804935 
L 361.77477 205.831349 
L 361.99071 222.215591 
L 362.313245 234.132868 
L 362.691405 214.374886 
L 362.978928 210.157355 
L 363.314 207.746469 
L 363.988566 193.819999 
L 364.321638 192.829987 
L 364.658228 188.2555 
L 365.199761 185.061392 
L 365.712127 177.417681 
L 366.005072 178.236089 
L 366.381347 174.664624 
L 366.674638 143.858284 
L 367.087465 140.716394 
L 367.3498 157.811846 
L 367.685179 151.967962 
L 368.018982 172.173472 
L 368.367167 164.944778 
L 369.446907 179.493382 
L 369.860387 208.46116 
L 370.45689 190.748214 
L 371.003037 191.293502 
L 372.232364 149.575695 
L 372.812313 172.990913 
L 373.156556 180.754052 
L 373.48263 165.670347 
L 373.818182 168.01167 
L 374.152504 161.644179 
L 374.489864 176.926911 
L 374.824897 180.560153 
L 375.17189 192.89887 
L 375.498636 182.887143 
L 375.837534 152.364878 
L 376.290622 183.135052 
L 376.845825 169.26115 
L 377.178321 154.073488 
L 377.513027 151.634617 
L 377.849656 144.043742 
L 378.186112 149.884692 
L 378.874195 117.212714 
L 379.21142 132.694056 
L 379.534071 125.696047 
L 379.870623 106.915726 
L 380.217289 129.841158 
L 380.537786 128.002698 
L 380.873416 128.879358 
L 381.2236 125.84454 
L 381.882303 153.980436 
L 382.219105 145.478864 
L 382.554292 155.33506 
L 382.89221 146.10652 
L 383.225128 145.061761 
L 383.640069 144.711168 
L 383.898598 152.202386 
L 384.570106 181.817165 
L 384.907216 187.491161 
L 385.241653 197.556896 
L 385.991878 154.243454 
L 386.502282 151.763309 
L 386.801399 179.441966 
L 386.928106 177.677019 
L 387.262236 183.433083 
L 387.597711 229.8676 
L 387.932764 227.842033 
L 388.304348 227.023073 
L 388.612944 234.739313 
L 388.978837 233.224536 
L 389.273512 243.718313 
L 389.609603 242.673973 
L 389.951077 235.903441 
L 390.292167 219.860644 
L 390.709473 221.827241 
L 391.103284 242.96911 
L 391.588154 252.92237 
L 391.783579 237.535708 
L 391.962507 237.458225 
L 392.29856 235.911956 
L 392.63392 233.398233 
L 392.979355 238.314717 
L 393.311062 231.834155 
L 393.642653 229.979144 
L 393.97859 256.295795 
L 394.315681 257.045934 
L 394.650541 232.319913 
L 395.336912 254.489961 
L 395.738222 244.259632 
L 396.354068 246.323536 
L 396.670277 255.463642 
L 397.002869 259.509285 
L 397.339037 272.458284 
L 397.674512 255.559726 
L 398.011526 274.139829 
L 398.346694 275.708245 
L 398.693705 274.287433 
L 399.017952 266.910935 
L 400.026186 279.829268 
L 400.362584 266.879941 
L 400.701521 274.850269 
L 401.038188 290.92899 
L 401.370357 271.004045 
L 401.707793 284.566458 
L 402.045999 285.673468 
L 402.378629 285.855351 
L 402.722488 288.494021 
L 403.132911 259.558053 
L 403.386555 262.515691 
L 403.7233 276.819219 
L 404.062428 286.157498 
L 404.471582 273.700747 
L 405.128921 304.622452 
L 405.638709 317.902061 
L 406.150498 327.981093 
L 406.56815 329.226536 
L 406.846214 338.343969 
L 407.176959 345.384337 
L 407.591343 338.55231 
L 407.888441 323.453146 
L 408.470639 341.173804 
L 408.808422 341.730162 
L 409.144436 348.906346 
L 409.484795 352.415923 
L 409.819771 346.244413 
L 410.15267 345.221158 
L 410.488645 333.190915 
L 411.182361 363.810657 
L 411.504724 363.611333 
L 411.833201 350.218039 
L 412.195133 328.646402 
L 412.504805 337.433102 
L 412.844395 324.230374 
L 413.251857 359.426882 
L 413.515346 359.287137 
L 413.85609 357.283409 
L 414.211139 382.547481 
L 414.64898 367.401419 
L 415.200069 363.015849 
L 415.705628 323.746763 
L 416.55143 368.745138 
L 416.963815 375.172141 
L 417.212114 358.526239 
L 417.679065 351.806594 
L 417.890294 359.001383 
L 418.224386 342.955909 
L 418.742711 359.336833 
L 419.227044 335.753244 
L 419.684304 342.057199 
L 419.858156 351.124771 
L 420.152754 378.13553 
L 420.762063 375.43525 
L 420.91415 383.083658 
L 421.242319 356.3805 
L 421.490388 355.691172 
L 421.581332 369.8568 
L 422.018596 333.530458 
L 422.256552 344.187017 
L 422.589066 341.516003 
L 423.596993 300.784129 
L 424.33993 327.663436 
L 424.694863 329.782121 
L 424.968081 330.261689 
L 425.285637 364.810727 
L 425.755357 349.131614 
L 426.128364 325.710425 
L 426.564897 315.257129 
L 426.62081 316.615244 
L 426.957708 315.79062 
L 427.62889 273.189561 
L 427.968018 270.048667 
L 428.30284 287.453996 
L 428.641853 280.227168 
L 429.014899 267.696175 
L 429.331455 261.899462 
L 429.647318 265.27463 
L 429.981486 280.911388 
L 430.317347 281.727548 
L 430.654745 272.692131 
L 430.991028 272.321596 
L 431.340001 282.45012 
L 431.667708 259.285856 
L 432.074632 246.974271 
L 432.341159 229.22954 
L 432.806418 247.109078 
L 433.12505 249.320338 
L 433.366928 228.531036 
L 433.68756 231.468324 
L 434.022843 228.66072 
L 434.354204 230.075442 
L 434.68545 228.911749 
L 435.02154 217.342534 
L 435.737137 238.199028 
L 436.199589 228.218979 
L 436.551292 203.653994 
L 436.835854 203.689131 
L 436.88023 223.121497 
L 437.037393 223.061957 
L 437.373407 212.636152 
L 437.709805 207.916862 
L 438.047665 220.13021 
L 438.382717 211.924618 
L 438.717462 225.623566 
L 439.209216 200.352807 
L 439.408525 198.661858 
L 439.726427 222.767677 
L 440.064902 214.014343 
L 440.73443 241.104975 
L 441.073943 219.594025 
L 441.741818 233.13419 
L 442.307481 238.538693 
L 442.424805 233.242533 
L 442.910444 230.903069 
L 443.72683 205.953256 
L 443.968823 217.054733 
L 444.115372 211.903541 
L 444.430159 218.372004 
L 444.765827 235.435604 
L 445.437816 194.974175 
L 445.774099 207.498479 
L 446.255163 219.993175 
L 446.447742 206.750336 
L 446.782141 198.374817 
L 447.119039 173.140141 
L 447.544767 161.478332 
L 448.168496 159.169196 
L 448.510393 147.431613 
L 449.206686 148.29417 
L 449.618301 144.785655 
L 449.887789 166.478199 
L 450.219688 166.758693 
L 450.557201 156.45843 
L 450.892062 153.687003 
L 451.427269 159.357151 
L 451.595353 164.118508 
L 451.978742 158.559924 
L 452.240347 147.046716 
L 452.576976 138.62767 
L 452.907722 154.08112 
L 453.430431 165.497965 
L 453.920185 150.643301 
L 454.24947 129.819591 
L 454.589983 144.062449 
L 454.982178 140.112125 
L 455.325729 158.315214 
L 455.712426 184.820522 
L 456.328618 173.844813 
L 456.612103 149.485955 
L 456.96396 171.170583 
L 457.345581 169.893348 
L 458.338818 135.595361 
L 458.680638 140.416024 
L 459.366202 131.298184 
L 459.628191 139.885525 
L 459.964359 114.808083 
L 460.304064 121.163489 
L 461.33091 81.837993 
L 461.645389 95.13371 
L 462.01805 87.168043 
L 462.31534 102.928774 
L 462.653123 95.640077 
L 463.101308 90.576866 
L 463.841554 101.682891 
L 464.293469 129.641381 
L 464.965843 156.541416 
L 465.310624 151.481056 
L 465.66029 130.887394 
L 465.978422 146.732913 
L 466.647527 137.676971 
L 466.983926 148.034889 
L 467.324746 135.3618 
L 467.952244 117.643151 
L 468.37801 120.105357 
L 468.584625 154.182762 
L 468.662995 149.953367 
L 468.999932 139.60845 
L 469.336561 135.120259 
L 470.167021 142.096334 
L 471.176523 178.16742 
L 471.520997 176.598924 
L 472.012559 192.439474 
L 472.478087 188.515177 
L 472.859631 162.737991 
L 473.195991 172.978689 
L 473.532543 178.67188 
L 474.204955 198.64524 
L 475.081483 187.801046 
L 475.768469 190.119525 
L 476.213116 184.39229 
L 476.698141 192.504542 
L 477.044768 204.192695 
L 477.390819 222.981923 
L 478.177171 239.880108 
L 478.743257 245.419003 
L 479.082116 238.980043 
L 479.44301 248.246462 
L 479.783562 241.606241 
L 480.113461 238.480973 
L 480.60733 252.671992 
L 480.774376 252.598691 
L 481.137346 272.645075 
L 481.537886 272.613001 
L 482.209991 273.817066 
L 482.442909 288.068776 
L 482.926972 274.151815 
L 483.140086 253.304359 
L 483.825726 265.186457 
L 484.025304 272.607379 
L 484.252492 285.926675 
L 484.532093 287.640389 
L 485.187624 261.962318 
L 485.505911 264.133916 
L 485.806623 263.932928 
L 486.285111 266.525166 
L 486.713453 263.235045 
L 487.146641 267.479273 
L 487.51338 297.139044 
L 487.890386 279.824362 
L 488.412404 288.96773 
L 488.815943 288.146207 
L 488.921808 290.076304 
L 489.163647 278.397839 
L 489.497315 279.468534 
L 489.833829 288.390607 
L 490.170112 279.921291 
L 490.730199 280.724111 
L 491.025913 269.77413 
L 491.639759 280.879297 
L 492.177658 278.190288 
L 492.828344 285.616797 
L 493.674647 268.643347 
L 494.345944 277.41625 
L 494.861232 268.020987 
L 495.387364 285.819432 
L 495.534451 281.896437 
L 495.885347 284.614941 
L 496.251048 290.903046 
L 496.542185 285.382012 
L 496.892581 302.220597 
L 497.246207 302.776881 
L 497.571569 329.957773 
L 497.944422 330.780474 
L 498.396722 336.474285 
L 499.006992 363.963656 
L 499.30409 346.046363 
L 499.575078 350.130947 
L 499.89471 341.984937 
L 500.23853 344.157586 
L 500.578735 327.149717 
L 500.914595 329.660392 
L 501.24438 308.679776 
L 501.628231 318.532148 
L 502.194701 297.487126 
L 502.452768 307.258095 
L 502.861461 297.607008 
L 503.285343 297.726976 
L 503.564598 309.838049 
L 504.079309 286.992937 
L 504.483579 287.201622 
L 504.823823 278.235163 
L 505.439631 299.671358 
L 505.788796 320.386919 
L 506.323696 315.160184 
L 506.628677 330.982071 
L 507.078169 321.724821 
L 507.470442 350.679637 
L 507.7765 360.935529 
L 508.201689 326.738579 
L 508.781503 350.357014 
L 509.325555 357.575193 
L 509.918021 339.687802 
L 510.276107 324.690921 
L 510.475301 310.310742 
L 511.24208 332.179005 
L 511.359904 339.437619 
L 511.682382 334.548206 
L 512.015166 336.762581 
L 512.381251 315.025908 
L 512.688155 333.876005 
L 513.106345 335.759563 
L 513.393868 355.724986 
L 513.751994 338.087902 
L 514.054898 351.523362 
L 514.531309 359.0655 
L 514.757189 355.45898 
L 515.066824 343.087512 
L 515.90582 297.473337 
L 516.384884 309.102817 
L 516.76712 306.882699 
L 517.119246 317.0702 
L 517.406231 294.03774 
L 517.814462 304.53579 
L 518.401467 256.141509 
L 518.738711 260.533067 
L 519.118871 239.933128 
L 519.408124 217.461268 
L 519.745868 227.450209 
L 520.095418 229.037829 
L 520.416935 211.344691 
L 520.778444 213.646428 
L 521.112304 227.136117 
L 521.766105 241.026794 
L 522.101311 216.690106 
L 522.435018 183.553519 
L 523.244712 202.167281 
L 523.498664 214.075346 
L 523.830948 243.811532 
L 524.113626 253.062739 
L 524.451639 246.218751 
L 525.009342 256.192936 
L 525.42188 268.485284 
L 525.714402 255.580681 
L 526.043917 258.234188 
L 526.282257 258.352325 
L 526.504215 258.956591 
L 526.867647 222.794185 
L 527.164514 212.184417 
L 527.682571 211.897446 
L 528.171133 213.961091 
L 528.849121 203.354179 
L 529.293499 199.886252 
L 529.604826 188.266191 
L 529.868315 183.020735 
L 530.196215 214.463074 
L 530.809792 227.038303 
L 531.475359 232.074825 
L 531.637406 229.945661 
L 531.999838 223.477563 
L 532.238831 215.249147 
L 533.020646 205.580611 
L 533.122665 206.026657 
L 533.855643 219.945261 
L 534.352281 218.626797 
L 534.69837 219.273012 
L 535.033884 228.860185 
L 535.362283 209.475009 
L 535.702297 203.596934 
L 536.136061 180.310798 
L 536.370825 194.387616 
L 536.708223 190.708756 
L 537.04366 178.774078 
L 537.457852 188.279568 
L 537.71888 187.116695 
L 538.054163 177.918251 
L 538.3866 186.80448 
L 538.723768 188.962964 
L 539.058628 192.135488 
L 539.417215 172.257809 
L 539.731117 181.36808 
L 540.140925 179.215816 
L 540.404837 174.546607 
L 540.738582 173.002598 
L 541.077826 179.929149 
L 541.747431 153.620547 
L 542.419728 128.19897 
L 542.771854 122.430409 
L 543.427039 105.02716 
L 543.764129 105.412045 
L 544.110564 122.764519 
L 544.43858 95.01376 
L 544.805357 100.052794 
L 545.295804 120.931649 
L 546.597328 83.383697 
L 546.941033 78.12 
L 547.628673 114.511622 
L 547.95392 107.795552 
L 548.454634 132.935482 
L 548.882938 121.812714 
L 548.964653 156.646111 
L 549.63595 147.333234 
L 549.970272 136.524267 
L 550.322052 109.14487 
L 550.684215 107.74892 
L 550.969085 117.716523 
L 551.304676 123.667875 
L 551.898295 127.745296 
L 552.182319 114.571116 
L 552.661459 140.307384 
L 552.748751 135.683517 
L 552.99309 150.605222 
L 553.322912 148.243345 
L 553.665732 170.000571 
L 554.000054 165.965293 
L 554.331492 175.186587 
L 554.672505 178.379069 
L 555.002174 175.288116 
L 555.338303 161.201826 
L 555.681546 154.260713 
L 556.010523 142.168867 
L 556.345999 140.322943 
L 556.681782 169.815599 
L 557.022795 148.248259 
L 557.359693 137.479247 
L 557.712358 136.205116 
L 558.355122 156.486802 
L 558.97166 187.994661 
L 559.316287 179.114981 
L 559.895486 176.641523 
L 560.140902 162.587881 
L 560.713948 151.034369 
L 561.053423 148.27511 
L 561.389398 170.000204 
L 561.771134 177.255979 
L 562.071962 176.322359 
L 562.393902 179.044582 
L 562.839126 171.351767 
L 563.255202 180.774733 
L 563.401828 149.650299 
L 563.844899 156.865946 
L 564.410677 188.654214 
L 564.77134 162.626036 
L 566.155042 200.037246 
L 566.632376 196.594367 
L 566.828839 181.73981 
L 567.428572 178.565725 
L 567.977354 170.387385 
L 568.574626 207.567037 
L 568.845037 218.925533 
L 569.184935 216.833384 
L 569.517911 212.386406 
L 569.855578 227.239189 
L 570.190131 227.231267 
L 570.52676 245.952424 
L 570.86412 236.160714 
L 571.197519 271.262313 
L 571.677121 277.122611 
L 571.871354 276.030485 
L 572.20879 279.478543 
L 572.54938 271.114539 
L 572.984222 305.006909 
L 573.530312 277.784434 
L 574.108395 272.076069 
L 574.539276 278.798646 
L 574.995229 263.762174 
L 575.349393 266.877008 
L 575.671564 294.03393 
L 576.005347 296.758039 
L 576.347283 310.897141 
L 576.868916 264.836188 
L 577.160707 276.701351 
L 577.683801 268.402019 
L 577.813546 274.482309 
L 578.51926 282.248063 
L 579.029933 285.020775 
L 579.408093 301.633217 
L 579.755758 299.593569 
L 580.039359 293.030145 
L 580.375988 296.583025 
L 580.716117 281.206272 
L 581.048554 274.729139 
L 581.38403 271.222024 
L 581.720313 269.252388 
L 582.126775 288.336066 
L 582.39484 294.701601 
L 582.72897 290.059947 
L 583.070213 313.148772 
L 583.400267 313.937187 
L 583.737319 296.584567 
L 584.56128 327.700997 
L 584.929633 346.783915 
L 585.570206 340.02346 
L 585.855114 343.17099 
L 586.03458 350.759974 
L 586.778594 365.18927 
L 587.336105 332.063072 
L 587.788328 346.407194 
L 588.166141 327.677213 
L 588.461201 351.870074 
L 588.797946 347.36322 
L 589.468512 357.266745 
L 590.202874 363.99809 
L 590.982767 369.856093 
L 591.828185 355.960368 
L 591.87706 357.343228 
L 592.004344 335.043109 
L 592.328476 352.229282 
L 592.730938 360.389034 
L 593.013155 362.600865 
L 593.33894 370.274469 
L 593.6728 366.898114 
L 594.009391 359.212196 
L 594.345097 335.484581 
L 594.67988 346.95123 
L 595.018701 344.627925 
L 595.37325 354.900427 
L 595.888115 348.235418 
L 596.371024 371.154001 
L 596.699463 388.311395 
L 597.486815 359.931643 
L 598.318313 380.9625 
L 598.726621 374.559238 
L 599.40184 399.2204 
L 599.740546 386.432107 
L 600.207804 379.234931 
L 601.168778 346.447384 
L 601.986432 373.754355 
L 602.359516 376.60714 
L 602.984937 323.552639 
L 603.325181 332.616057 
L 603.499071 307.082652 
L 603.674192 313.556363 
L 604.163831 286.586946 
L 604.647509 288.154404 
L 604.776677 291.229326 
L 605.112807 284.901496 
L 605.450397 288.760997 
L 605.786296 308.361067 
L 606.123386 304.300865 
L 606.457708 306.148139 
L 606.792991 312.836385 
L 607.128774 302.885335 
L 607.464788 303.381495 
L 608.119204 297.851291 
L 608.271906 298.816458 
L 608.492903 307.070325 
L 608.81142 313.192564 
L 609.144973 316.245469 
L 609.484178 326.094529 
L 609.817539 328.492878 
L 610.156552 329.884498 
L 610.826273 299.434505 
L 611.160979 308.500539 
L 611.500608 307.924501 
L 611.832968 316.124135 
L 612.16929 302.905772 
L 612.505381 305.253404 
L 612.842548 295.436243 
L 613.183407 292.457935 
L 613.543301 264.782959 
L 613.891659 260.124385 
L 614.695777 265.578152 
L 614.949499 247.909857 
L 615.684169 227.545623 
L 616.116472 216.210252 
L 616.286325 244.351419 
L 616.538508 246.666555 
L 617.125667 253.461965 
L 618.338401 252.103757 
L 618.691489 237.20294 
L 619.120331 225.956303 
L 619.353749 226.143349 
L 619.875036 190.675269 
L 620.211319 187.361617 
L 621.109727 173.179843 
L 621.319842 181.291722 
L 621.500884 176.527186 
L 622.130689 163.075643 
L 622.353455 148.108066 
L 622.636364 146.224738 
L 622.636364 146.224738 
" clip-path="url(#p4e565bc103)" style="fill: none; stroke: #008000; stroke-width: 1.5; stroke-linecap: square"/>
   </g>
   <g id="patch_3">
    <path d="M 90 448.56 
L 90 60.48 
" style="fill: none; stroke: #000000; stroke-width: 0.8; stroke-linejoin: miter; stroke-linecap: square"/>
   </g>
   <g id="patch_4">
    <path d="M 648 448.56 
L 648 60.48 
" style="fill: none; stroke: #000000; stroke-width: 0.8; stroke-linejoin: miter; stroke-linecap: square"/>
   </g>
   <g id="patch_5">
    <path d="M 90 448.56 
L 648 448.56 
" style="fill: none; stroke: #000000; stroke-width: 0.8; stroke-linejoin: miter; stroke-linecap: square"/>
   </g>
   <g id="patch_6">
    <path d="M 90 60.48 
L 648 60.48 
" style="fill: none; stroke: #000000; stroke-width: 0.8; stroke-linejoin: miter; stroke-linecap: square"/>
   </g>
   <g id="legend_1">
    <g id="patch_7">
     <path d="M 524.34375 97.83625 
L 641 97.83625 
Q 643 97.83625 643 95.83625 
L 643 67.48 
Q 643 65.48 641 65.48 
L 524.34375 65.48 
Q 522.34375 65.48 522.34375 67.48 
L 522.34375 95.83625 
Q 522.34375 97.83625 524.34375 97.83625 
z
" style="fill: #ffffff; opacity: 0.8; stroke: #cccccc; stroke-linejoin: miter"/>
    </g>
    <g id="line2d_27">
     <path d="M 526.34375 73.578438 
L 536.34375 73.578438 
L 546.34375 73.578438 
" style="fill: none; stroke-dasharray: 9.6,2.4,1.5,2.4; stroke-dashoffset: 0; stroke: #ff0000; stroke-width: 1.5"/>
    </g>
    <g id="text_15">
     <!-- OptiTrack Error X -->
     <g transform="translate(554.34375 77.078438)scale(0.1 -0.1)">
      <defs>
       <path id="DejaVuSans-4f" d="M 2522 4238 
Q 1834 4238 1429 3725 
Q 1025 3213 1025 2328 
Q 1025 1447 1429 934 
Q 1834 422 2522 422 
Q 3209 422 3611 934 
Q 4013 1447 4013 2328 
Q 4013 3213 3611 3725 
Q 3209 4238 2522 4238 
z
M 2522 4750 
Q 3503 4750 4090 4092 
Q 4678 3434 4678 2328 
Q 4678 1225 4090 567 
Q 3503 -91 2522 -91 
Q 1538 -91 948 565 
Q 359 1222 359 2328 
Q 359 3434 948 4092 
Q 1538 4750 2522 4750 
z
" transform="scale(0.015625)"/>
       <path id="DejaVuSans-70" d="M 1159 525 
L 1159 -1331 
L 581 -1331 
L 581 3500 
L 1159 3500 
L 1159 2969 
Q 1341 3281 1617 3432 
Q 1894 3584 2278 3584 
Q 2916 3584 3314 3078 
Q 3713 2572 3713 1747 
Q 3713 922 3314 415 
Q 2916 -91 2278 -91 
Q 1894 -91 1617 61 
Q 1341 213 1159 525 
z
M 3116 1747 
Q 3116 2381 2855 2742 
Q 2594 3103 2138 3103 
Q 1681 3103 1420 2742 
Q 1159 2381 1159 1747 
Q 1159 1113 1420 752 
Q 1681 391 2138 391 
Q 2594 391 2855 752 
Q 3116 1113 3116 1747 
z
" transform="scale(0.015625)"/>
       <path id="DejaVuSans-74" d="M 1172 4494 
L 1172 3500 
L 2356 3500 
L 2356 3053 
L 1172 3053 
L 1172 1153 
Q 1172 725 1289 603 
Q 1406 481 1766 481 
L 2356 481 
L 2356 0 
L 1766 0 
Q 1100 0 847 248 
Q 594 497 594 1153 
L 594 3053 
L 172 3053 
L 172 3500 
L 594 3500 
L 594 4494 
L 1172 4494 
z
" transform="scale(0.015625)"/>
       <path id="DejaVuSans-61" d="M 2194 1759 
Q 1497 1759 1228 1600 
Q 959 1441 959 1056 
Q 959 750 1161 570 
Q 1363 391 1709 391 
Q 2188 391 2477 730 
Q 2766 1069 2766 1631 
L 2766 1759 
L 2194 1759 
z
M 3341 1997 
L 3341 0 
L 2766 0 
L 2766 531 
Q 2569 213 2275 61 
Q 1981 -91 1556 -91 
Q 1019 -91 701 211 
Q 384 513 384 1019 
Q 384 1609 779 1909 
Q 1175 2209 1959 2209 
L 2766 2209 
L 2766 2266 
Q 2766 2663 2505 2880 
Q 2244 3097 1772 3097 
Q 1472 3097 1187 3025 
Q 903 2953 641 2809 
L 641 3341 
Q 956 3463 1253 3523 
Q 1550 3584 1831 3584 
Q 2591 3584 2966 3190 
Q 3341 2797 3341 1997 
z
" transform="scale(0.015625)"/>
       <path id="DejaVuSans-63" d="M 3122 3366 
L 3122 2828 
Q 2878 2963 2633 3030 
Q 2388 3097 2138 3097 
Q 1578 3097 1268 2742 
Q 959 2388 959 1747 
Q 959 1106 1268 751 
Q 1578 397 2138 397 
Q 2388 397 2633 464 
Q 2878 531 3122 666 
L 3122 134 
Q 2881 22 2623 -34 
Q 2366 -91 2075 -91 
Q 1284 -91 818 406 
Q 353 903 353 1747 
Q 353 2603 823 3093 
Q 1294 3584 2113 3584 
Q 2378 3584 2631 3529 
Q 2884 3475 3122 3366 
z
" transform="scale(0.015625)"/>
       <path id="DejaVuSans-6b" d="M 581 4863 
L 1159 4863 
L 1159 1991 
L 2875 3500 
L 3609 3500 
L 1753 1863 
L 3688 0 
L 2938 0 
L 1159 1709 
L 1159 0 
L 581 0 
L 581 4863 
z
" transform="scale(0.015625)"/>
      </defs>
      <use xlink:href="#DejaVuSans-4f"/>
      <use xlink:href="#DejaVuSans-70" x="78.710938"/>
      <use xlink:href="#DejaVuSans-74" x="142.1875"/>
      <use xlink:href="#DejaVuSans-69" x="181.396484"/>
      <use xlink:href="#DejaVuSans-54" x="209.179688"/>
      <use xlink:href="#DejaVuSans-72" x="255.513672"/>
      <use xlink:href="#DejaVuSans-61" x="296.626953"/>
      <use xlink:href="#DejaVuSans-63" x="357.90625"/>
      <use xlink:href="#DejaVuSans-6b" x="412.886719"/>
      <use xlink:href="#DejaVuSans-20" x="470.796875"/>
      <use xlink:href="#DejaVuSans-45" x="502.583984"/>
      <use xlink:href="#DejaVuSans-72" x="565.767578"/>
      <use xlink:href="#DejaVuSans-72" x="605.130859"/>
      <use xlink:href="#DejaVuSans-6f" x="643.994141"/>
      <use xlink:href="#DejaVuSans-72" x="705.175781"/>
      <use xlink:href="#DejaVuSans-20" x="746.289062"/>
      <use xlink:href="#DejaVuSans-58" x="778.076172"/>
     </g>
    </g>
    <g id="line2d_28">
     <path d="M 526.34375 88.256563 
L 536.34375 88.256563 
L 546.34375 88.256563 
" style="fill: none; stroke: #008000; stroke-width: 1.5; stroke-linecap: square"/>
    </g>
    <g id="text_16">
     <!-- Kalman Error X -->
     <g transform="translate(554.34375 91.756563)scale(0.1 -0.1)">
      <defs>
       <path id="DejaVuSans-4b" d="M 628 4666 
L 1259 4666 
L 1259 2694 
L 3353 4666 
L 4166 4666 
L 1850 2491 
L 4331 0 
L 3500 0 
L 1259 2247 
L 1259 0 
L 628 0 
L 628 4666 
z
" transform="scale(0.015625)"/>
       <path id="DejaVuSans-6c" d="M 603 4863 
L 1178 4863 
L 1178 0 
L 603 0 
L 603 4863 
z
" transform="scale(0.015625)"/>
       <path id="DejaVuSans-6e" d="M 3513 2113 
L 3513 0 
L 2938 0 
L 2938 2094 
Q 2938 2591 2744 2837 
Q 2550 3084 2163 3084 
Q 1697 3084 1428 2787 
Q 1159 2491 1159 1978 
L 1159 0 
L 581 0 
L 581 3500 
L 1159 3500 
L 1159 2956 
Q 1366 3272 1645 3428 
Q 1925 3584 2291 3584 
Q 2894 3584 3203 3211 
Q 3513 2838 3513 2113 
z
" transform="scale(0.015625)"/>
      </defs>
      <use xlink:href="#DejaVuSans-4b"/>
      <use xlink:href="#DejaVuSans-61" x="63.826172"/>
      <use xlink:href="#DejaVuSans-6c" x="125.105469"/>
      <use xlink:href="#DejaVuSans-6d" x="152.888672"/>
      <use xlink:href="#DejaVuSans-61" x="250.300781"/>
      <use xlink:href="#DejaVuSans-6e" x="311.580078"/>
      <use xlink:href="#DejaVuSans-20" x="374.958984"/>
      <use xlink:href="#DejaVuSans-45" x="406.746094"/>
      <use xlink:href="#DejaVuSans-72" x="469.929688"/>
      <use xlink:href="#DejaVuSans-72" x="509.292969"/>
      <use xlink:href="#DejaVuSans-6f" x="548.15625"/>
      <use xlink:href="#DejaVuSans-72" x="609.337891"/>
      <use xlink:href="#DejaVuSans-20" x="650.451172"/>
      <use xlink:href="#DejaVuSans-58" x="682.238281"/>
     </g>
    </g>
   </g>
  </g>
 </g>
 <defs>
  <clipPath id="p4e565bc103">
   <rect x="90" y="60.48" width="558" height="388.08"/>
  </clipPath>
 </defs>
</svg>
