<?xml version="1.0" encoding="utf-8" standalone="no"?>
<!DOCTYPE svg PUBLIC "-//W3C//DTD SVG 1.1//EN"
  "http://www.w3.org/Graphics/SVG/1.1/DTD/svg11.dtd">
<svg xmlns:xlink="http://www.w3.org/1999/xlink" width="720pt" height="504pt" viewBox="0 0 720 504" xmlns="http://www.w3.org/2000/svg" version="1.1">
 <metadata>
  <rdf:RDF xmlns:dc="http://purl.org/dc/elements/1.1/" xmlns:cc="http://creativecommons.org/ns#" xmlns:rdf="http://www.w3.org/1999/02/22-rdf-syntax-ns#">
   <cc:Work>
    <dc:type rdf:resource="http://purl.org/dc/dcmitype/StillImage"/>
    <dc:date>2024-02-15T17:06:37.513053</dc:date>
    <dc:format>image/svg+xml</dc:format>
    <dc:creator>
     <cc:Agent>
      <dc:title>Matplotlib v3.5.1, https://matplotlib.org/</dc:title>
     </cc:Agent>
    </dc:creator>
   </cc:Work>
  </rdf:RDF>
 </metadata>
 <defs>
  <style type="text/css">*{stroke-linejoin: round; stroke-linecap: butt}</style>
 </defs>
 <g id="figure_1">
  <g id="patch_1">
   <path d="M 0 504 
L 720 504 
L 720 0 
L 0 0 
z
" style="fill: #ffffff"/>
  </g>
  <g id="axes_1">
   <g id="patch_2">
    <path d="M 90 448.56 
L 648 448.56 
L 648 60.48 
L 90 60.48 
z
" style="fill: #ffffff"/>
   </g>
   <g id="matplotlib.axis_1">
    <g id="xtick_1">
     <g id="line2d_1">
      <path d="M 164.798108 448.56 
L 164.798108 60.48 
" clip-path="url(#pd28a60d2a8)" style="fill: none; stroke: #b0b0b0; stroke-width: 0.8; stroke-linecap: square"/>
     </g>
     <g id="line2d_2">
      <defs>
       <path id="mfe0815e9ca" d="M 0 0 
L 0 3.5 
" style="stroke: #000000; stroke-width: 0.8"/>
      </defs>
      <g>
       <use xlink:href="#mfe0815e9ca" x="164.798108" y="448.56" style="stroke: #000000; stroke-width: 0.8"/>
      </g>
     </g>
     <g id="text_1">
      <!-- 10 -->
      <g transform="translate(158.435608 463.158437)scale(0.1 -0.1)">
       <defs>
        <path id="DejaVuSans-31" d="M 794 531 
L 1825 531 
L 1825 4091 
L 703 3866 
L 703 4441 
L 1819 4666 
L 2450 4666 
L 2450 531 
L 3481 531 
L 3481 0 
L 794 0 
L 794 531 
z
" transform="scale(0.015625)"/>
        <path id="DejaVuSans-30" d="M 2034 4250 
Q 1547 4250 1301 3770 
Q 1056 3291 1056 2328 
Q 1056 1369 1301 889 
Q 1547 409 2034 409 
Q 2525 409 2770 889 
Q 3016 1369 3016 2328 
Q 3016 3291 2770 3770 
Q 2525 4250 2034 4250 
z
M 2034 4750 
Q 2819 4750 3233 4129 
Q 3647 3509 3647 2328 
Q 3647 1150 3233 529 
Q 2819 -91 2034 -91 
Q 1250 -91 836 529 
Q 422 1150 422 2328 
Q 422 3509 836 4129 
Q 1250 4750 2034 4750 
z
" transform="scale(0.015625)"/>
       </defs>
       <use xlink:href="#DejaVuSans-31"/>
       <use xlink:href="#DejaVuSans-30" x="63.623047"/>
      </g>
     </g>
    </g>
    <g id="xtick_2">
     <g id="line2d_3">
      <path d="M 265.603802 448.56 
L 265.603802 60.48 
" clip-path="url(#pd28a60d2a8)" style="fill: none; stroke: #b0b0b0; stroke-width: 0.8; stroke-linecap: square"/>
     </g>
     <g id="line2d_4">
      <g>
       <use xlink:href="#mfe0815e9ca" x="265.603802" y="448.56" style="stroke: #000000; stroke-width: 0.8"/>
      </g>
     </g>
     <g id="text_2">
      <!-- 20 -->
      <g transform="translate(259.241302 463.158437)scale(0.1 -0.1)">
       <defs>
        <path id="DejaVuSans-32" d="M 1228 531 
L 3431 531 
L 3431 0 
L 469 0 
L 469 531 
Q 828 903 1448 1529 
Q 2069 2156 2228 2338 
Q 2531 2678 2651 2914 
Q 2772 3150 2772 3378 
Q 2772 3750 2511 3984 
Q 2250 4219 1831 4219 
Q 1534 4219 1204 4116 
Q 875 4013 500 3803 
L 500 4441 
Q 881 4594 1212 4672 
Q 1544 4750 1819 4750 
Q 2544 4750 2975 4387 
Q 3406 4025 3406 3419 
Q 3406 3131 3298 2873 
Q 3191 2616 2906 2266 
Q 2828 2175 2409 1742 
Q 1991 1309 1228 531 
z
" transform="scale(0.015625)"/>
       </defs>
       <use xlink:href="#DejaVuSans-32"/>
       <use xlink:href="#DejaVuSans-30" x="63.623047"/>
      </g>
     </g>
    </g>
    <g id="xtick_3">
     <g id="line2d_5">
      <path d="M 366.409496 448.56 
L 366.409496 60.48 
" clip-path="url(#pd28a60d2a8)" style="fill: none; stroke: #b0b0b0; stroke-width: 0.8; stroke-linecap: square"/>
     </g>
     <g id="line2d_6">
      <g>
       <use xlink:href="#mfe0815e9ca" x="366.409496" y="448.56" style="stroke: #000000; stroke-width: 0.8"/>
      </g>
     </g>
     <g id="text_3">
      <!-- 30 -->
      <g transform="translate(360.046996 463.158437)scale(0.1 -0.1)">
       <defs>
        <path id="DejaVuSans-33" d="M 2597 2516 
Q 3050 2419 3304 2112 
Q 3559 1806 3559 1356 
Q 3559 666 3084 287 
Q 2609 -91 1734 -91 
Q 1441 -91 1130 -33 
Q 819 25 488 141 
L 488 750 
Q 750 597 1062 519 
Q 1375 441 1716 441 
Q 2309 441 2620 675 
Q 2931 909 2931 1356 
Q 2931 1769 2642 2001 
Q 2353 2234 1838 2234 
L 1294 2234 
L 1294 2753 
L 1863 2753 
Q 2328 2753 2575 2939 
Q 2822 3125 2822 3475 
Q 2822 3834 2567 4026 
Q 2313 4219 1838 4219 
Q 1578 4219 1281 4162 
Q 984 4106 628 3988 
L 628 4550 
Q 988 4650 1302 4700 
Q 1616 4750 1894 4750 
Q 2613 4750 3031 4423 
Q 3450 4097 3450 3541 
Q 3450 3153 3228 2886 
Q 3006 2619 2597 2516 
z
" transform="scale(0.015625)"/>
       </defs>
       <use xlink:href="#DejaVuSans-33"/>
       <use xlink:href="#DejaVuSans-30" x="63.623047"/>
      </g>
     </g>
    </g>
    <g id="xtick_4">
     <g id="line2d_7">
      <path d="M 467.21519 448.56 
L 467.21519 60.48 
" clip-path="url(#pd28a60d2a8)" style="fill: none; stroke: #b0b0b0; stroke-width: 0.8; stroke-linecap: square"/>
     </g>
     <g id="line2d_8">
      <g>
       <use xlink:href="#mfe0815e9ca" x="467.21519" y="448.56" style="stroke: #000000; stroke-width: 0.8"/>
      </g>
     </g>
     <g id="text_4">
      <!-- 40 -->
      <g transform="translate(460.85269 463.158437)scale(0.1 -0.1)">
       <defs>
        <path id="DejaVuSans-34" d="M 2419 4116 
L 825 1625 
L 2419 1625 
L 2419 4116 
z
M 2253 4666 
L 3047 4666 
L 3047 1625 
L 3713 1625 
L 3713 1100 
L 3047 1100 
L 3047 0 
L 2419 0 
L 2419 1100 
L 313 1100 
L 313 1709 
L 2253 4666 
z
" transform="scale(0.015625)"/>
       </defs>
       <use xlink:href="#DejaVuSans-34"/>
       <use xlink:href="#DejaVuSans-30" x="63.623047"/>
      </g>
     </g>
    </g>
    <g id="xtick_5">
     <g id="line2d_9">
      <path d="M 568.020884 448.56 
L 568.020884 60.48 
" clip-path="url(#pd28a60d2a8)" style="fill: none; stroke: #b0b0b0; stroke-width: 0.8; stroke-linecap: square"/>
     </g>
     <g id="line2d_10">
      <g>
       <use xlink:href="#mfe0815e9ca" x="568.020884" y="448.56" style="stroke: #000000; stroke-width: 0.8"/>
      </g>
     </g>
     <g id="text_5">
      <!-- 50 -->
      <g transform="translate(561.658384 463.158437)scale(0.1 -0.1)">
       <defs>
        <path id="DejaVuSans-35" d="M 691 4666 
L 3169 4666 
L 3169 4134 
L 1269 4134 
L 1269 2991 
Q 1406 3038 1543 3061 
Q 1681 3084 1819 3084 
Q 2600 3084 3056 2656 
Q 3513 2228 3513 1497 
Q 3513 744 3044 326 
Q 2575 -91 1722 -91 
Q 1428 -91 1123 -41 
Q 819 9 494 109 
L 494 744 
Q 775 591 1075 516 
Q 1375 441 1709 441 
Q 2250 441 2565 725 
Q 2881 1009 2881 1497 
Q 2881 1984 2565 2268 
Q 2250 2553 1709 2553 
Q 1456 2553 1204 2497 
Q 953 2441 691 2322 
L 691 4666 
z
" transform="scale(0.015625)"/>
       </defs>
       <use xlink:href="#DejaVuSans-35"/>
       <use xlink:href="#DejaVuSans-30" x="63.623047"/>
      </g>
     </g>
    </g>
    <g id="text_6">
     <!-- Time (s) -->
     <g transform="translate(348.671094 476.836563)scale(0.1 -0.1)">
      <defs>
       <path id="DejaVuSans-54" d="M -19 4666 
L 3928 4666 
L 3928 4134 
L 2272 4134 
L 2272 0 
L 1638 0 
L 1638 4134 
L -19 4134 
L -19 4666 
z
" transform="scale(0.015625)"/>
       <path id="DejaVuSans-69" d="M 603 3500 
L 1178 3500 
L 1178 0 
L 603 0 
L 603 3500 
z
M 603 4863 
L 1178 4863 
L 1178 4134 
L 603 4134 
L 603 4863 
z
" transform="scale(0.015625)"/>
       <path id="DejaVuSans-6d" d="M 3328 2828 
Q 3544 3216 3844 3400 
Q 4144 3584 4550 3584 
Q 5097 3584 5394 3201 
Q 5691 2819 5691 2113 
L 5691 0 
L 5113 0 
L 5113 2094 
Q 5113 2597 4934 2840 
Q 4756 3084 4391 3084 
Q 3944 3084 3684 2787 
Q 3425 2491 3425 1978 
L 3425 0 
L 2847 0 
L 2847 2094 
Q 2847 2600 2669 2842 
Q 2491 3084 2119 3084 
Q 1678 3084 1418 2786 
Q 1159 2488 1159 1978 
L 1159 0 
L 581 0 
L 581 3500 
L 1159 3500 
L 1159 2956 
Q 1356 3278 1631 3431 
Q 1906 3584 2284 3584 
Q 2666 3584 2933 3390 
Q 3200 3197 3328 2828 
z
" transform="scale(0.015625)"/>
       <path id="DejaVuSans-65" d="M 3597 1894 
L 3597 1613 
L 953 1613 
Q 991 1019 1311 708 
Q 1631 397 2203 397 
Q 2534 397 2845 478 
Q 3156 559 3463 722 
L 3463 178 
Q 3153 47 2828 -22 
Q 2503 -91 2169 -91 
Q 1331 -91 842 396 
Q 353 884 353 1716 
Q 353 2575 817 3079 
Q 1281 3584 2069 3584 
Q 2775 3584 3186 3129 
Q 3597 2675 3597 1894 
z
M 3022 2063 
Q 3016 2534 2758 2815 
Q 2500 3097 2075 3097 
Q 1594 3097 1305 2825 
Q 1016 2553 972 2059 
L 3022 2063 
z
" transform="scale(0.015625)"/>
       <path id="DejaVuSans-20" transform="scale(0.015625)"/>
       <path id="DejaVuSans-28" d="M 1984 4856 
Q 1566 4138 1362 3434 
Q 1159 2731 1159 2009 
Q 1159 1288 1364 580 
Q 1569 -128 1984 -844 
L 1484 -844 
Q 1016 -109 783 600 
Q 550 1309 550 2009 
Q 550 2706 781 3412 
Q 1013 4119 1484 4856 
L 1984 4856 
z
" transform="scale(0.015625)"/>
       <path id="DejaVuSans-73" d="M 2834 3397 
L 2834 2853 
Q 2591 2978 2328 3040 
Q 2066 3103 1784 3103 
Q 1356 3103 1142 2972 
Q 928 2841 928 2578 
Q 928 2378 1081 2264 
Q 1234 2150 1697 2047 
L 1894 2003 
Q 2506 1872 2764 1633 
Q 3022 1394 3022 966 
Q 3022 478 2636 193 
Q 2250 -91 1575 -91 
Q 1294 -91 989 -36 
Q 684 19 347 128 
L 347 722 
Q 666 556 975 473 
Q 1284 391 1588 391 
Q 1994 391 2212 530 
Q 2431 669 2431 922 
Q 2431 1156 2273 1281 
Q 2116 1406 1581 1522 
L 1381 1569 
Q 847 1681 609 1914 
Q 372 2147 372 2553 
Q 372 3047 722 3315 
Q 1072 3584 1716 3584 
Q 2034 3584 2315 3537 
Q 2597 3491 2834 3397 
z
" transform="scale(0.015625)"/>
       <path id="DejaVuSans-29" d="M 513 4856 
L 1013 4856 
Q 1481 4119 1714 3412 
Q 1947 2706 1947 2009 
Q 1947 1309 1714 600 
Q 1481 -109 1013 -844 
L 513 -844 
Q 928 -128 1133 580 
Q 1338 1288 1338 2009 
Q 1338 2731 1133 3434 
Q 928 4138 513 4856 
z
" transform="scale(0.015625)"/>
      </defs>
      <use xlink:href="#DejaVuSans-54"/>
      <use xlink:href="#DejaVuSans-69" x="57.958984"/>
      <use xlink:href="#DejaVuSans-6d" x="85.742188"/>
      <use xlink:href="#DejaVuSans-65" x="183.154297"/>
      <use xlink:href="#DejaVuSans-20" x="244.677734"/>
      <use xlink:href="#DejaVuSans-28" x="276.464844"/>
      <use xlink:href="#DejaVuSans-73" x="315.478516"/>
      <use xlink:href="#DejaVuSans-29" x="367.578125"/>
     </g>
    </g>
   </g>
   <g id="matplotlib.axis_2">
    <g id="ytick_1">
     <g id="line2d_11">
      <path d="M 90 418.189198 
L 648 418.189198 
" clip-path="url(#pd28a60d2a8)" style="fill: none; stroke: #b0b0b0; stroke-width: 0.8; stroke-linecap: square"/>
     </g>
     <g id="line2d_12">
      <defs>
       <path id="m00a1593fd1" d="M 0 0 
L -3.5 0 
" style="stroke: #000000; stroke-width: 0.8"/>
      </defs>
      <g>
       <use xlink:href="#m00a1593fd1" x="90" y="418.189198" style="stroke: #000000; stroke-width: 0.8"/>
      </g>
     </g>
     <g id="text_7">
      <!-- −1.0 -->
      <g transform="translate(58.717187 421.988417)scale(0.1 -0.1)">
       <defs>
        <path id="DejaVuSans-2212" d="M 678 2272 
L 4684 2272 
L 4684 1741 
L 678 1741 
L 678 2272 
z
" transform="scale(0.015625)"/>
        <path id="DejaVuSans-2e" d="M 684 794 
L 1344 794 
L 1344 0 
L 684 0 
L 684 794 
z
" transform="scale(0.015625)"/>
       </defs>
       <use xlink:href="#DejaVuSans-2212"/>
       <use xlink:href="#DejaVuSans-31" x="83.789062"/>
       <use xlink:href="#DejaVuSans-2e" x="147.412109"/>
       <use xlink:href="#DejaVuSans-30" x="179.199219"/>
      </g>
     </g>
    </g>
    <g id="ytick_2">
     <g id="line2d_13">
      <path d="M 90 337.314805 
L 648 337.314805 
" clip-path="url(#pd28a60d2a8)" style="fill: none; stroke: #b0b0b0; stroke-width: 0.8; stroke-linecap: square"/>
     </g>
     <g id="line2d_14">
      <g>
       <use xlink:href="#m00a1593fd1" x="90" y="337.314805" style="stroke: #000000; stroke-width: 0.8"/>
      </g>
     </g>
     <g id="text_8">
      <!-- −0.5 -->
      <g transform="translate(58.717187 341.114023)scale(0.1 -0.1)">
       <use xlink:href="#DejaVuSans-2212"/>
       <use xlink:href="#DejaVuSans-30" x="83.789062"/>
       <use xlink:href="#DejaVuSans-2e" x="147.412109"/>
       <use xlink:href="#DejaVuSans-35" x="179.199219"/>
      </g>
     </g>
    </g>
    <g id="ytick_3">
     <g id="line2d_15">
      <path d="M 90 256.440411 
L 648 256.440411 
" clip-path="url(#pd28a60d2a8)" style="fill: none; stroke: #b0b0b0; stroke-width: 0.8; stroke-linecap: square"/>
     </g>
     <g id="line2d_16">
      <g>
       <use xlink:href="#m00a1593fd1" x="90" y="256.440411" style="stroke: #000000; stroke-width: 0.8"/>
      </g>
     </g>
     <g id="text_9">
      <!-- 0.0 -->
      <g transform="translate(67.096875 260.23963)scale(0.1 -0.1)">
       <use xlink:href="#DejaVuSans-30"/>
       <use xlink:href="#DejaVuSans-2e" x="63.623047"/>
       <use xlink:href="#DejaVuSans-30" x="95.410156"/>
      </g>
     </g>
    </g>
    <g id="ytick_4">
     <g id="line2d_17">
      <path d="M 90 175.566018 
L 648 175.566018 
" clip-path="url(#pd28a60d2a8)" style="fill: none; stroke: #b0b0b0; stroke-width: 0.8; stroke-linecap: square"/>
     </g>
     <g id="line2d_18">
      <g>
       <use xlink:href="#m00a1593fd1" x="90" y="175.566018" style="stroke: #000000; stroke-width: 0.8"/>
      </g>
     </g>
     <g id="text_10">
      <!-- 0.5 -->
      <g transform="translate(67.096875 179.365236)scale(0.1 -0.1)">
       <use xlink:href="#DejaVuSans-30"/>
       <use xlink:href="#DejaVuSans-2e" x="63.623047"/>
       <use xlink:href="#DejaVuSans-35" x="95.410156"/>
      </g>
     </g>
    </g>
    <g id="ytick_5">
     <g id="line2d_19">
      <path d="M 90 94.691624 
L 648 94.691624 
" clip-path="url(#pd28a60d2a8)" style="fill: none; stroke: #b0b0b0; stroke-width: 0.8; stroke-linecap: square"/>
     </g>
     <g id="line2d_20">
      <g>
       <use xlink:href="#m00a1593fd1" x="90" y="94.691624" style="stroke: #000000; stroke-width: 0.8"/>
      </g>
     </g>
     <g id="text_11">
      <!-- 1.0 -->
      <g transform="translate(67.096875 98.490843)scale(0.1 -0.1)">
       <use xlink:href="#DejaVuSans-31"/>
       <use xlink:href="#DejaVuSans-2e" x="63.623047"/>
       <use xlink:href="#DejaVuSans-30" x="95.410156"/>
      </g>
     </g>
    </g>
    <g id="text_12">
     <!-- Position (X) -->
     <g transform="translate(52.6375 282.899688)rotate(-90)scale(0.1 -0.1)">
      <defs>
       <path id="DejaVuSans-50" d="M 1259 4147 
L 1259 2394 
L 2053 2394 
Q 2494 2394 2734 2622 
Q 2975 2850 2975 3272 
Q 2975 3691 2734 3919 
Q 2494 4147 2053 4147 
L 1259 4147 
z
M 628 4666 
L 2053 4666 
Q 2838 4666 3239 4311 
Q 3641 3956 3641 3272 
Q 3641 2581 3239 2228 
Q 2838 1875 2053 1875 
L 1259 1875 
L 1259 0 
L 628 0 
L 628 4666 
z
" transform="scale(0.015625)"/>
       <path id="DejaVuSans-6f" d="M 1959 3097 
Q 1497 3097 1228 2736 
Q 959 2375 959 1747 
Q 959 1119 1226 758 
Q 1494 397 1959 397 
Q 2419 397 2687 759 
Q 2956 1122 2956 1747 
Q 2956 2369 2687 2733 
Q 2419 3097 1959 3097 
z
M 1959 3584 
Q 2709 3584 3137 3096 
Q 3566 2609 3566 1747 
Q 3566 888 3137 398 
Q 2709 -91 1959 -91 
Q 1206 -91 779 398 
Q 353 888 353 1747 
Q 353 2609 779 3096 
Q 1206 3584 1959 3584 
z
" transform="scale(0.015625)"/>
       <path id="DejaVuSans-74" d="M 1172 4494 
L 1172 3500 
L 2356 3500 
L 2356 3053 
L 1172 3053 
L 1172 1153 
Q 1172 725 1289 603 
Q 1406 481 1766 481 
L 2356 481 
L 2356 0 
L 1766 0 
Q 1100 0 847 248 
Q 594 497 594 1153 
L 594 3053 
L 172 3053 
L 172 3500 
L 594 3500 
L 594 4494 
L 1172 4494 
z
" transform="scale(0.015625)"/>
       <path id="DejaVuSans-6e" d="M 3513 2113 
L 3513 0 
L 2938 0 
L 2938 2094 
Q 2938 2591 2744 2837 
Q 2550 3084 2163 3084 
Q 1697 3084 1428 2787 
Q 1159 2491 1159 1978 
L 1159 0 
L 581 0 
L 581 3500 
L 1159 3500 
L 1159 2956 
Q 1366 3272 1645 3428 
Q 1925 3584 2291 3584 
Q 2894 3584 3203 3211 
Q 3513 2838 3513 2113 
z
" transform="scale(0.015625)"/>
       <path id="DejaVuSans-58" d="M 403 4666 
L 1081 4666 
L 2241 2931 
L 3406 4666 
L 4084 4666 
L 2584 2425 
L 4184 0 
L 3506 0 
L 2194 1984 
L 872 0 
L 191 0 
L 1856 2491 
L 403 4666 
z
" transform="scale(0.015625)"/>
      </defs>
      <use xlink:href="#DejaVuSans-50"/>
      <use xlink:href="#DejaVuSans-6f" x="56.677734"/>
      <use xlink:href="#DejaVuSans-73" x="117.859375"/>
      <use xlink:href="#DejaVuSans-69" x="169.958984"/>
      <use xlink:href="#DejaVuSans-74" x="197.742188"/>
      <use xlink:href="#DejaVuSans-69" x="236.951172"/>
      <use xlink:href="#DejaVuSans-6f" x="264.734375"/>
      <use xlink:href="#DejaVuSans-6e" x="325.916016"/>
      <use xlink:href="#DejaVuSans-20" x="389.294922"/>
      <use xlink:href="#DejaVuSans-28" x="421.082031"/>
      <use xlink:href="#DejaVuSans-58" x="460.095703"/>
      <use xlink:href="#DejaVuSans-29" x="528.601562"/>
     </g>
    </g>
   </g>
   <g id="line2d_21">
    <path d="M 115.363636 136.608075 
L 116.356234 129.393643 
L 117.367904 121.352527 
L 117.747468 116.029559 
L 119.040605 112.595076 
L 119.098089 110.726404 
L 119.689363 109.58443 
L 119.916695 106.457475 
L 120.588204 104.932715 
L 121.228074 104.099918 
L 121.536045 102.942875 
L 121.951847 101.966977 
L 122.457531 101.591991 
L 122.836763 101.591991 
L 122.980005 101.104167 
L 123.279127 100.62099 
L 123.951726 99.982073 
L 125.337678 99.98643 
L 127.317739 101.013696 
L 127.653733 101.578754 
L 127.989891 101.73782 
L 128.326223 102.332755 
L 128.662275 103.516263 
L 129.35625 103.703259 
L 130.008291 105.213981 
L 130.339181 107.004359 
L 130.713149 107.004359 
L 131.355212 109.302904 
L 131.691788 111.503274 
L 132.270521 113.077144 
L 132.451006 114.669015 
L 132.948557 115.629353 
L 133.177773 117.371776 
L 133.493185 120.787267 
L 134.062963 122.530067 
L 134.540325 123.116894 
L 134.719508 126.217741 
L 135.098374 127.184548 
L 135.392372 129.518079 
L 136.049528 132.217718 
L 136.721272 136.196222 
L 137.748593 143.622928 
L 138.085323 146.09261 
L 138.421856 153.538637 
L 139.296346 158.106744 
L 139.661066 161.940219 
L 140.191068 164.864589 
L 140.597842 171.512063 
L 141.074988 171.512063 
L 141.537699 176.224091 
L 141.873223 178.980838 
L 142.226782 189.091795 
L 143.05528 194.324832 
L 143.460555 194.324832 
L 143.552874 196.690338 
L 143.713253 197.855503 
L 144.744372 211.248674 
L 145.108774 214.922056 
L 145.30468 214.922056 
L 145.90598 222.330577 
L 146.706176 239.226844 
L 147.504065 241.148114 
L 147.747942 241.148114 
L 147.770448 243.01501 
L 147.922621 243.01501 
L 148.658771 257.755613 
L 149.183346 260.35026 
L 149.700038 268.150683 
L 150.138705 272.096766 
L 150.850033 279.864358 
L 151.074203 281.112763 
L 151.617783 287.537596 
L 151.954768 294.482912 
L 152.638294 298.202539 
L 153.125914 307.336865 
L 153.660179 313.858221 
L 154.248395 318.05866 
L 154.609674 321.529822 
L 154.967434 328.53503 
L 155.853681 338.171309 
L 156.616739 342.611288 
L 156.985622 342.611288 
L 157.200255 345.932818 
L 158.214324 355.740808 
L 158.92794 365.159957 
L 159.27526 366.672588 
L 159.553486 369.178896 
L 160.560941 382.16703 
L 161.298014 383.452548 
L 161.744306 388.301353 
L 162.153056 389.474063 
L 162.382994 392.420973 
L 162.907164 395.902349 
L 163.452197 397.58685 
L 163.630759 400.092271 
L 164.465853 403.286587 
L 164.685754 403.571054 
L 164.91995 404.914467 
L 165.080612 406.502847 
L 165.669694 407.973212 
L 166.008303 409.425124 
L 166.342548 411.387526 
L 166.677524 411.810958 
L 167.020806 412.997328 
L 167.351628 415.167089 
L 167.918224 416.277151 
L 168.743204 419.029641 
L 169.186015 419.029641 
L 169.370701 419.950027 
L 169.701283 419.950027 
L 170.049362 420.732932 
L 170.379868 420.765422 
L 170.721861 421.187446 
L 171.384073 421.338038 
L 172.726139 420.446036 
L 173.077803 419.737154 
L 173.827297 417.364557 
L 174.440836 416.908143 
L 174.741049 415.727702 
L 175.096194 412.840344 
L 175.970328 409.32695 
L 176.64298 408.863219 
L 177.14056 404.254137 
L 177.76378 402.397863 
L 178.320954 397.418172 
L 178.816534 396.297051 
L 179.144943 394.160061 
L 179.370959 393.41328 
L 180.369992 386.524376 
L 180.687135 382.519437 
L 181.028157 381.716623 
L 181.359682 377.564957 
L 181.692148 376.772854 
L 183.722382 360.880134 
L 184.037112 359.511905 
L 185.719642 345.888305 
L 187.652222 323.841508 
L 188.201888 320.014111 
L 188.548957 316.095121 
L 189.009246 309.264574 
L 190.227219 299.22643 
L 190.742488 295.620137 
L 190.907197 290.734754 
L 191.510449 285.801921 
L 191.805134 281.998075 
L 192.117518 280.104261 
L 192.994161 270.982183 
L 194.004491 258.288974 
L 194.676038 250.842501 
L 195.346297 242.000289 
L 195.679955 238.563982 
L 196.109413 227.802789 
L 196.620981 223.874748 
L 196.972857 219.931026 
L 197.297104 214.653887 
L 197.950471 210.885045 
L 198.100347 208.323413 
L 198.233178 202.671538 
L 198.980019 199.542231 
L 199.104005 197.078054 
L 199.363658 195.830656 
L 200.38637 184.47676 
L 200.722653 181.422208 
L 201.06829 176.157593 
L 201.442249 173.875443 
L 202.072919 161.794959 
L 202.746523 158.961186 
L 203.025009 157.270987 
L 203.163637 155.103956 
L 203.411821 148.572742 
L 204.119746 145.420855 
L 204.762299 140.786215 
L 205.204639 133.962282 
L 205.982493 129.387145 
L 208.123571 114.312906 
L 208.786678 111.482324 
L 209.128383 108.847377 
L 209.797892 106.399822 
L 210.17882 104.248003 
L 210.802934 102.622554 
L 211.150003 101.216928 
L 211.598121 98.601022 
L 212.79158 96.534921 
L 212.841003 96.534921 
L 213.495804 95.198527 
L 214.589492 93.471558 
L 216.204689 92.219889 
L 217.190735 92.132233 
L 217.636103 92.632735 
L 218.254324 92.632735 
L 218.345451 92.928597 
L 218.602162 93.064555 
L 218.875601 93.592167 
L 219.203444 93.753634 
L 219.539756 94.631985 
L 219.929154 96.335797 
L 220.660911 98.980105 
L 221.460866 99.507177 
L 221.801216 100.665753 
L 222.138162 101.220196 
L 222.472667 102.327549 
L 223.479093 106.902281 
L 223.849091 111.48995 
L 224.545258 115.93098 
L 225.099722 117.959365 
L 225.891583 123.374211 
L 226.308274 123.374211 
L 226.563995 125.716429 
L 226.906681 127.717877 
L 228.582289 141.328867 
L 228.918457 148.652993 
L 229.79833 151.211458 
L 229.926152 156.44301 
L 230.60018 159.145888 
L 230.934694 162.918769 
L 231.272707 170.271982 
L 231.913318 174.927958 
L 232.283056 184.997811 
L 233.261045 189.264465 
L 233.622651 196.717087 
L 235.012005 206.191604 
L 235.970383 217.882721 
L 236.287727 219.879698 
L 236.656774 225.861248 
L 236.960044 233.953956 
L 238.648534 248.519649 
L 238.991355 254.822309 
L 239.314698 256.922407 
L 240.675654 277.93783 
L 241.03524 288.321801 
L 242.001693 296.500294 
L 243.105871 310.486071 
L 243.66467 314.445559 
L 244.004375 320.208979 
L 245.313495 331.434203 
L 245.637569 335.091571 
L 246.196079 345.765807 
L 246.869184 350.964705 
L 247.410351 352.665412 
L 247.766034 360.954071 
L 248.480958 362.039924 
L 248.767039 367.274687 
L 249.104879 368.79613 
L 249.42853 371.825682 
L 249.893078 379.972666 
L 250.567624 385.318579 
L 251.279683 387.425403 
L 251.669013 390.683794 
L 251.953864 394.172787 
L 252.489513 396.385469 
L 252.829507 399.513224 
L 253.183998 400.534647 
L 253.35239 400.534647 
L 254.114497 406.146815 
L 254.4677 407.337582 
L 254.871278 411.535187 
L 255.560187 412.504935 
L 255.74148 413.151902 
L 255.948864 415.121988 
L 256.365305 415.732609 
L 256.81101 416.873214 
L 257.017336 418.488184 
L 257.37302 419.473357 
L 257.823973 419.894822 
L 258.676813 422.222482 
L 259.015558 423.422322 
L 259.586373 424.062155 
L 260.094163 424.189994 
L 260.264996 424.48844 
L 261.143889 424.809369 
L 261.49986 424.815462 
L 261.7014 424.668399 
L 262.371716 424.441913 
L 262.718113 423.758271 
L 263.083775 423.758271 
L 263.714618 422.618958 
L 264.41191 421.183339 
L 264.725582 420.270049 
L 265.059096 417.725226 
L 265.644909 416.517279 
L 266.049449 415.22317 
L 266.536377 412.463488 
L 267.116748 410.17768 
L 267.621077 404.837551 
L 268.528618 404.837551 
L 268.866362 402.891008 
L 269.209029 399.711876 
L 269.540986 394.879364 
L 270.274233 392.828574 
L 272.226597 378.773261 
L 272.901509 370.601933 
L 273.570576 367.840766 
L 274.244699 362.710156 
L 274.590192 357.864561 
L 274.929051 356.393907 
L 275.923019 347.368215 
L 277.041328 332.77466 
L 277.713606 327.577445 
L 278.281557 324.00029 
L 278.611956 320.359509 
L 278.970773 312.908666 
L 279.520786 305.272495 
L 280.19837 301.374517 
L 280.626943 295.499811 
L 280.963111 293.546847 
L 282.306955 277.59363 
L 282.642969 269.545478 
L 282.985078 269.545478 
L 283.31715 263.493872 
L 283.652299 262.101725 
L 283.986909 255.282336 
L 284.323134 251.204294 
L 285.000988 238.999801 
L 285.527389 234.936762 
L 285.756365 234.936762 
L 286.013009 232.903339 
L 286.340967 226.822596 
L 286.79417 212.861306 
L 287.640646 210.840489 
L 287.845608 204.926091 
L 288.324537 203.014473 
L 288.520769 197.185845 
L 289.178588 195.283174 
L 289.516929 191.379956 
L 289.879476 183.965571 
L 290.233044 180.26141 
L 290.641717 177.737253 
L 290.861522 171.029956 
L 291.428301 166.838637 
L 291.840377 161.531008 
L 292.280506 158.633065 
L 292.791564 153.528658 
L 293.081221 146.957068 
L 294.078957 142.215914 
L 294.400377 141.247671 
L 294.738064 136.278623 
L 295.072866 134.823944 
L 295.408534 132.010543 
L 295.746971 127.904874 
L 296.088868 125.235316 
L 296.416403 119.691936 
L 296.992948 117.652319 
L 298.134869 109.629328 
L 298.432909 109.629328 
L 298.768557 107.455133 
L 299.45389 101.679676 
L 300.457779 96.858212 
L 300.793139 95.549642 
L 301.124634 94.972659 
L 302.151826 91.890322 
L 302.498588 90.854996 
L 302.850907 90.563222 
L 303.136795 90.11588 
L 303.474847 89.796012 
L 303.811861 89.236237 
L 304.974643 89.207102 
L 305.267934 89.419127 
L 305.573472 89.928267 
L 306.337137 90.531175 
L 307.371539 91.627162 
L 307.44241 92.437312 
L 307.966773 92.437312 
L 308.021955 92.746287 
L 308.356777 93.057324 
L 308.70102 93.724711 
L 309.037418 94.821575 
L 309.379066 95.212189 
L 309.720521 97.977973 
L 310.283742 98.476075 
L 310.540809 99.632221 
L 310.865056 100.254527 
L 311.071248 101.594835 
L 311.724376 103.704676 
L 312.062889 104.407841 
L 312.734301 108.432747 
L 313.065182 109.276468 
L 313.44488 111.896337 
L 313.739344 112.741783 
L 314.069993 114.590007 
L 314.765978 119.499878 
L 315.079284 120.543871 
L 315.413491 122.664481 
L 316.123531 128.279975 
L 316.437068 129.414854 
L 316.837743 133.0885 
L 317.100405 136.921069 
L 317.437188 139.512747 
L 317.802889 143.791481 
L 318.280645 145.252148 
L 318.450132 148.272551 
L 318.779282 148.272551 
L 319.116411 151.399486 
L 319.448234 158.04968 
L 319.810281 161.526004 
L 320.128625 161.526004 
L 320.469234 165.052588 
L 321.295964 179.832879 
L 321.78093 179.832879 
L 322.343805 195.325758 
L 323.803589 207.024628 
L 324.071808 207.024628 
L 324.211628 212.893758 
L 324.641566 220.785145 
L 325.240839 220.785145 
L 325.510288 224.701995 
L 326.515907 234.624792 
L 326.852671 242.618408 
L 327.191684 242.618408 
L 327.526486 248.595073 
L 327.86475 256.63162 
L 328.342141 256.63162 
L 328.532259 258.603037 
L 328.868927 264.591044 
L 329.228398 268.641615 
L 329.556702 274.586827 
L 330.212309 278.540613 
L 330.890567 292.203975 
L 331.338348 294.177765 
L 332.582691 309.349058 
L 332.931741 311.240073 
L 333.323379 315.006982 
L 333.628918 320.569716 
L 334.025959 324.238113 
L 334.279757 329.648062 
L 334.720155 329.648062 
L 334.946555 334.521124 
L 335.27632 336.880117 
L 335.59228 347.338434 
L 337.059005 354.076514 
L 339.766804 379.901554 
L 340.085918 381.243337 
L 341.429146 392.092283 
L 341.76416 393.239337 
L 342.440379 397.280489 
L 342.792948 400.987869 
L 343.107485 400.987869 
L 343.476089 403.536723 
L 343.77884 404.354692 
L 344.114815 405.96005 
L 344.45329 408.211778 
L 344.789131 408.962752 
L 346.132379 414.112192 
L 348.152423 420.544759 
L 348.653156 421.431594 
L 349.281326 421.546399 
L 349.704862 421.854525 
L 350.8354 421.641652 
L 351.5121 420.603685 
L 351.849171 419.589647 
L 352.401241 419.208732 
L 352.531505 417.658048 
L 353.566887 415.315762 
L 353.914072 413.998968 
L 354.576909 411.934478 
L 354.913365 408.837902 
L 355.389064 407.162704 
L 355.756765 406.298323 
L 355.921003 405.385351 
L 356.257248 402.330347 
L 357.959024 393.587946 
L 358.273734 390.315421 
L 358.609518 389.253699 
L 359.454051 384.019795 
L 359.619174 380.144304 
L 360.099853 378.961183 
L 360.682167 375.412695 
L 361.478768 368.07536 
L 361.77477 366.81863 
L 361.99071 365.074818 
L 362.313245 361.562677 
L 362.978928 357.555645 
L 363.314 356.193095 
L 363.65036 352.043106 
L 363.988566 350.598878 
L 364.321638 346.134208 
L 364.658228 340.020767 
L 365.199761 336.835788 
L 365.470211 333.625501 
L 365.712127 333.625501 
L 366.005072 328.652187 
L 366.381347 327.53957 
L 366.674638 320.092912 
L 367.087465 318.345272 
L 367.3498 316.563272 
L 368.018982 309.299498 
L 368.367167 294.27684 
L 369.446907 292.339199 
L 369.860387 286.48637 
L 370.206706 285.191997 
L 370.45689 278.512251 
L 371.003037 270.49599 
L 371.579641 264.355848 
L 371.934286 264.355848 
L 372.232364 260.278293 
L 372.472742 256.09264 
L 373.818182 241.669908 
L 374.152504 235.522803 
L 374.489864 233.526455 
L 374.824897 229.524974 
L 375.837534 213.848296 
L 376.551573 208.219175 
L 376.845825 202.668897 
L 377.178321 202.668897 
L 378.186112 192.052313 
L 378.526779 185.209908 
L 378.874195 185.209908 
L 379.534071 176.845583 
L 379.870623 173.617508 
L 380.217289 169.182716 
L 380.537786 167.005098 
L 380.873416 163.195369 
L 381.2236 162.060606 
L 381.616276 157.194505 
L 381.882303 155.588829 
L 383.225128 142.940954 
L 383.640069 139.914959 
L 384.235458 134.114995 
L 384.570106 131.314242 
L 384.907216 127.346459 
L 385.241653 125.634712 
L 385.991878 117.73232 
L 386.801399 114.463874 
L 386.928106 114.463874 
L 387.262236 110.566778 
L 387.932764 107.977944 
L 388.304348 106.37973 
L 388.612944 104.170904 
L 388.978837 103.473804 
L 389.273512 102.195381 
L 389.609603 101.573789 
L 389.951077 99.898948 
L 391.103284 96.715478 
L 391.588154 96.112753 
L 391.783579 96.112753 
L 392.63392 94.568354 
L 392.979355 94.387104 
L 393.642653 93.746461 
L 394.650541 93.390921 
L 395.336912 93.546854 
L 395.738222 94.267537 
L 396.354068 94.267537 
L 396.670277 94.58673 
L 397.674512 96.423983 
L 398.346694 98.001102 
L 398.693705 99.266741 
L 399.017952 99.991627 
L 400.026186 103.551838 
L 401.370357 109.555227 
L 401.707793 112.098759 
L 402.045999 112.926774 
L 402.378629 114.704763 
L 402.722488 117.503742 
L 403.7233 122.606635 
L 404.062428 126.942135 
L 404.75303 130.494653 
L 405.128921 135.535834 
L 406.150498 142.193046 
L 406.56815 144.947416 
L 407.176959 152.090176 
L 407.591343 153.524985 
L 407.888441 159.59939 
L 408.808422 164.19616 
L 409.819771 173.787247 
L 410.15267 175.463736 
L 410.488645 180.450137 
L 410.831389 183.827662 
L 411.182361 188.955684 
L 411.504724 191.285243 
L 411.833201 195.96323 
L 412.195133 197.711582 
L 412.504805 201.334653 
L 412.844395 207.337478 
L 413.251857 208.543449 
L 415.200069 234.853285 
L 415.705628 240.739037 
L 416.202611 243.3818 
L 416.55143 250.690021 
L 416.963815 252.709699 
L 417.212114 258.802817 
L 417.679065 259.488421 
L 417.890294 260.839369 
L 418.224386 271.159208 
L 419.227044 283.668119 
L 419.684304 285.696964 
L 419.858156 287.752491 
L 420.152754 293.95214 
L 420.762063 297.98916 
L 420.91415 302.024068 
L 421.490388 305.996778 
L 421.581332 310.579579 
L 422.018596 311.874695 
L 422.256552 317.584956 
L 422.589066 321.27747 
L 422.989145 323.134144 
L 423.265439 324.988398 
L 423.932853 332.160318 
L 424.33993 340.887954 
L 424.694863 340.887954 
L 424.968081 344.273316 
L 425.285637 350.916221 
L 425.755357 354.161336 
L 426.128364 358.993761 
L 426.62081 358.993761 
L 426.957708 363.686931 
L 427.294798 366.746207 
L 427.62889 368.289699 
L 428.30284 374.261495 
L 429.014899 382.681791 
L 429.647318 385.332925 
L 429.981486 389.140041 
L 430.317347 390.3732 
L 430.991028 394.996589 
L 431.667708 400.445237 
L 432.074632 402.1184 
L 432.341159 406.254784 
L 432.806418 407.457603 
L 433.12505 408.881334 
L 433.366928 410.536218 
L 434.022843 412.856917 
L 434.354204 415.023062 
L 434.68545 415.648202 
L 435.02154 418.292646 
L 436.199589 420.649576 
L 436.551292 421.347737 
L 436.88023 421.347737 
L 437.373407 422.184883 
L 438.382717 423.500761 
L 438.717462 423.587722 
L 439.726427 423.437477 
L 440.064902 423.363203 
L 440.397339 422.665697 
L 440.73443 422.665697 
L 441.446488 421.148285 
L 441.741818 420.108813 
L 442.307481 419.67549 
L 442.424805 418.391099 
L 442.910444 416.995076 
L 443.58751 415.676142 
L 444.115372 413.797125 
L 444.430159 413.142493 
L 444.765827 409.501452 
L 445.244199 409.501452 
L 445.437816 408.694974 
L 445.774099 405.376453 
L 446.255163 403.678879 
L 446.447742 403.678879 
L 447.119039 400.078195 
L 447.544767 394.243233 
L 448.168496 392.223169 
L 448.510393 388.006359 
L 449.206686 386.892912 
L 449.618301 383.530631 
L 449.887789 382.400987 
L 450.557201 377.613595 
L 450.892062 372.653562 
L 451.427269 370.119778 
L 451.595353 367.972925 
L 452.240347 364.775918 
L 452.576976 361.611229 
L 452.907722 355.129203 
L 453.430431 355.129203 
L 453.590555 353.672548 
L 453.920185 349.276743 
L 454.24947 347.752958 
L 454.589983 344.695909 
L 455.712426 330.093441 
L 456.328618 326.576576 
L 456.612103 324.225209 
L 456.96396 317.496437 
L 457.372691 317.496437 
L 457.950429 309.895928 
L 458.680638 302.068807 
L 459.068488 294.078918 
L 459.366202 294.078918 
L 459.964359 285.27328 
L 460.304064 277.190256 
L 460.849346 275.840056 
L 460.972785 271.739006 
L 462.653123 253.517604 
L 463.101308 240.619216 
L 463.841554 235.127824 
L 464.293469 226.926299 
L 464.965843 226.926299 
L 465.978422 210.564699 
L 466.311936 209.228566 
L 466.647527 202.483399 
L 466.983926 199.76728 
L 467.324746 190.606774 
L 467.952244 189.906193 
L 468.37801 182.892752 
L 468.584625 182.892752 
L 468.662995 179.171233 
L 468.999932 175.428402 
L 469.336561 166.367569 
L 470.167021 156.026173 
L 471.176523 156.026173 
L 471.520997 147.821661 
L 472.012559 143.148303 
L 472.478087 141.59543 
L 472.859631 137.110119 
L 473.195991 135.64899 
L 473.532543 132.787162 
L 474.204955 124.50184 
L 474.756544 121.987443 
L 475.081483 116.644856 
L 475.768469 114.337722 
L 476.213116 110.32773 
L 476.698141 109.277934 
L 477.044768 107.31476 
L 477.390819 101.943578 
L 478.177171 99.672626 
L 478.743257 98.914132 
L 479.082116 98.226778 
L 479.44301 96.302265 
L 479.783562 95.189099 
L 480.113461 93.182946 
L 480.60733 92.704792 
L 480.774376 92.297807 
L 481.137346 90.955224 
L 481.943772 89.933435 
L 482.442909 89.721507 
L 482.926972 89.306501 
L 483.140086 89.38172 
L 484.025304 89.609536 
L 484.945093 90.868147 
L 485.187624 90.868147 
L 486.285111 93.584435 
L 486.713453 94.236917 
L 486.892574 94.236917 
L 487.146641 95.636768 
L 487.51338 96.205913 
L 487.890386 97.757234 
L 488.412404 99.216984 
L 488.921808 99.712222 
L 489.497315 101.942768 
L 489.833829 103.186503 
L 490.170112 105.907245 
L 490.730199 106.643343 
L 491.025913 110.622368 
L 491.639759 112.13792 
L 492.177658 116.195943 
L 492.828344 118.204111 
L 493.193045 121.370507 
L 494.184205 127.099139 
L 494.345944 129.50034 
L 494.861232 134.432973 
L 495.343218 134.432973 
L 495.534451 138.24224 
L 495.885347 140.877042 
L 496.251048 142.189305 
L 497.571569 155.432269 
L 497.944422 159.52473 
L 498.396722 163.208866 
L 498.882285 165.970014 
L 499.006992 169.270969 
L 499.30409 169.270969 
L 499.575078 172.715845 
L 499.89471 174.496785 
L 501.628231 198.345578 
L 502.194701 202.18906 
L 502.452768 207.296933 
L 503.285343 215.594519 
L 503.564598 221.34919 
L 504.483579 228.992587 
L 504.823823 234.722824 
L 505.439631 238.577335 
L 505.788796 246.316415 
L 506.323696 248.27537 
L 506.628677 254.16314 
L 507.078169 258.158123 
L 508.201689 276.383659 
L 508.781503 280.460987 
L 509.918021 294.66407 
L 510.276107 296.667536 
L 510.475301 304.688994 
L 511.24208 306.676535 
L 511.682382 312.551425 
L 512.015166 316.462061 
L 512.688155 327.813234 
L 513.106345 327.813234 
L 513.393868 333.294579 
L 513.751994 336.874159 
L 514.054898 342.191607 
L 514.531309 343.918981 
L 514.757189 345.637293 
L 515.422911 355.678276 
L 515.90582 358.975954 
L 516.119011 358.975954 
L 516.384884 363.742001 
L 516.76712 366.846078 
L 517.119246 368.41293 
L 517.406231 372.943592 
L 517.814462 375.941956 
L 518.076566 378.799204 
L 518.401467 380.214982 
L 520.095418 393.48418 
L 521.43732 402.717384 
L 522.435018 408.811543 
L 522.789682 410.66613 
L 523.244712 414.172853 
L 523.498664 414.172853 
L 524.113626 418.055863 
L 525.42188 422.907088 
L 525.714402 423.851422 
L 526.504215 425.142311 
L 527.164514 426.752894 
L 527.682571 427.694066 
L 528.171133 428.078201 
L 528.849121 428.177696 
L 529.868315 427.890549 
L 530.196215 427.041371 
L 530.809792 426.698384 
L 531.162149 425.999259 
L 531.475359 425.66435 
L 531.637406 425.183651 
L 531.999838 424.486898 
L 532.238831 422.120288 
L 533.020646 421.552839 
L 533.122665 419.144754 
L 533.855643 417.003473 
L 534.352281 416.242328 
L 535.362283 411.385511 
L 536.136061 406.61259 
L 536.370825 404.633789 
L 536.708223 404.633789 
L 537.457852 399.270946 
L 538.054163 394.627851 
L 538.723768 390.502572 
L 539.058628 385.817943 
L 539.417215 384.052603 
L 539.731117 381.823223 
L 540.140925 377.706371 
L 540.404837 376.755336 
L 540.738582 374.860546 
L 541.747431 366.039716 
L 542.771854 353.697325 
L 543.427039 349.376479 
L 543.764129 343.89565 
L 544.43858 337.094267 
L 545.295804 326.536026 
L 545.866312 319.215004 
L 546.597328 314.255256 
L 546.941033 306.006289 
L 547.628673 302.093059 
L 547.95392 296.168208 
L 548.737773 290.149769 
L 548.882938 290.149769 
L 548.964653 288.152165 
L 549.305589 282.774388 
L 549.63595 280.093905 
L 549.970272 276.003464 
L 550.322052 269.892852 
L 550.684215 267.823519 
L 551.304676 255.482072 
L 551.898295 251.353229 
L 552.182319 245.167546 
L 552.661459 243.079283 
L 552.748751 241.049864 
L 552.99309 239.029569 
L 553.665732 230.958024 
L 554.000054 228.957651 
L 554.331492 222.994209 
L 555.338303 211.319092 
L 555.681546 209.337475 
L 556.010523 203.632296 
L 556.345999 201.686057 
L 557.022795 194.205472 
L 557.712358 180.339715 
L 558.355122 176.226304 
L 560.140902 161.043917 
L 560.713948 154.578387 
L 561.389398 148.804241 
L 561.771134 145.257315 
L 562.071962 143.757719 
L 562.393902 137.85717 
L 562.839126 133.618137 
L 563.255202 133.618137 
L 563.401828 132.262567 
L 563.844899 125.614052 
L 564.231519 125.614052 
L 564.77134 116.222851 
L 565.719393 112.858622 
L 566.155042 110.424873 
L 566.632376 108.744296 
L 566.828839 106.364642 
L 567.428572 104.446077 
L 567.950051 104.446077 
L 567.977354 103.069982 
L 568.574626 101.103743 
L 568.845037 100.691051 
L 569.517911 98.554234 
L 570.52676 96.309573 
L 571.197519 95.163588 
L 571.871354 94.306891 
L 572.20879 94.021846 
L 572.54938 93.914927 
L 572.984222 93.573348 
L 574.108395 93.934152 
L 574.539276 94.469207 
L 575.349393 95.102686 
L 576.347283 97.498267 
L 576.868916 98.614683 
L 577.160707 100.057745 
L 577.683801 100.529063 
L 577.813546 102.193434 
L 579.029933 105.223381 
L 579.408093 107.161623 
L 580.039359 108.553732 
L 581.720313 116.244225 
L 582.39484 120.545336 
L 582.72897 121.498723 
L 584.072833 129.343424 
L 584.56128 134.242082 
L 584.929633 139.534372 
L 585.570206 142.188572 
L 585.855114 143.975402 
L 586.03458 146.743684 
L 586.778594 155.568805 
L 587.336105 155.568805 
L 587.453352 157.154293 
L 587.788328 158.690756 
L 588.797946 170.151248 
L 589.204062 174.109912 
L 589.468512 182.1393 
L 590.202874 189.165443 
L 590.982767 199.990864 
L 591.87706 201.836451 
L 592.328476 207.366883 
L 592.730938 211.07409 
L 593.6728 222.228732 
L 594.009391 225.319639 
L 595.018701 237.052211 
L 595.37325 246.39492 
L 595.888115 246.39492 
L 596.115765 248.251598 
L 596.699463 255.925737 
L 597.116923 259.77966 
L 597.486815 269.550236 
L 598.318313 277.518124 
L 598.726621 283.52974 
L 599.076132 285.527592 
L 599.40184 289.573686 
L 599.740546 292.232591 
L 600.207804 302.288318 
L 600.871718 307.602541 
L 601.986432 321.36701 
L 602.984937 332.681996 
L 603.325181 333.276526 
L 604.163831 347.094363 
L 604.672928 347.094363 
L 604.776677 348.811296 
L 606.792991 368.411001 
L 607.128774 371.497946 
L 607.464788 377.912842 
L 608.119204 380.238159 
L 608.271906 380.238159 
L 608.81142 385.698009 
L 610.580896 398.815053 
L 610.826273 399.897166 
L 612.16929 407.59544 
L 612.505381 409.033527 
L 613.183407 412.557285 
L 613.543301 414.040714 
L 613.891659 416.820295 
L 614.492392 417.85642 
L 614.695777 418.656458 
L 614.949499 420.790045 
L 615.503279 421.203238 
L 617.125667 425.181087 
L 618.338401 425.338119 
L 619.120331 424.98684 
L 619.353749 424.599524 
L 619.875036 424.232125 
L 620.574212 422.392241 
L 621.319842 421.459515 
L 621.500884 419.212241 
L 622.130689 418.645332 
L 622.353455 417.551669 
L 622.636364 416.955722 
L 622.636364 416.955722 
" clip-path="url(#pd28a60d2a8)" style="fill: none; stroke-dasharray: 12.8,3.2,2,3.2; stroke-dashoffset: 0; stroke: #ff0000; stroke-width: 2"/>
   </g>
   <g id="line2d_22">
    <path d="M 115.363636 138.947086 
L 115.682202 136.010416 
L 116.018369 134.468086 
L 116.356234 130.725236 
L 116.691714 123.570495 
L 117.026574 124.105195 
L 117.367904 115.822796 
L 117.747468 116.877469 
L 118.678557 119.046349 
L 119.098089 110.159161 
L 119.689363 102.624964 
L 119.916695 108.218814 
L 120.588204 99.423659 
L 121.228074 100.186565 
L 121.951847 97.052583 
L 122.457531 96.109713 
L 122.870117 96.109713 
L 123.625461 103.69449 
L 123.951726 106.836051 
L 124.562842 101.499741 
L 124.842785 101.499741 
L 125.086898 98.265144 
L 125.337678 102.143409 
L 125.633853 104.646871 
L 125.96866 98.032096 
L 126.416134 99.075223 
L 126.643779 104.736908 
L 126.981398 102.289492 
L 127.317739 107.292354 
L 127.653733 103.480484 
L 127.989891 103.649877 
L 128.326223 99.447888 
L 128.662275 105.996049 
L 129.251414 104.985354 
L 129.35625 98.398121 
L 129.664529 99.081472 
L 130.008291 100.212377 
L 130.339181 105.895272 
L 130.713149 101.067754 
L 131.018482 102.736512 
L 131.355212 98.478437 
L 131.691788 103.28942 
L 132.270521 103.736583 
L 132.451006 107.053574 
L 132.948557 111.820107 
L 134.062963 106.06824 
L 134.540325 111.823545 
L 135.098374 128.256281 
L 135.392372 131.478726 
L 135.832857 127.362323 
L 136.049528 127.362323 
L 136.385229 131.343018 
L 136.721272 130.373911 
L 137.058035 135.795927 
L 137.41243 145.092769 
L 137.748593 146.657751 
L 139.296346 156.737176 
L 139.661066 157.668571 
L 140.191068 161.485035 
L 141.074988 170.999314 
L 141.20095 170.171117 
L 141.537699 174.489427 
L 141.873223 175.020756 
L 142.226782 179.782171 
L 143.05528 185.358895 
L 143.552874 193.942791 
L 143.713253 193.942791 
L 143.893147 203.044853 
L 144.327613 207.566221 
L 144.744372 219.405681 
L 145.108774 223.422913 
L 145.30468 223.422913 
L 145.570428 220.430122 
L 146.241321 226.193773 
L 146.706176 245.6625 
L 147.504065 246.96611 
L 147.770448 246.96611 
L 147.922621 248.22346 
L 148.260692 252.790046 
L 148.658771 255.497402 
L 149.183346 262.612902 
L 149.462717 262.612902 
L 149.700038 261.770211 
L 150.138705 266.764211 
L 150.458386 272.879264 
L 150.850033 274.27565 
L 151.074203 274.27565 
L 151.283356 277.951691 
L 151.617783 278.299725 
L 151.954768 288.630477 
L 152.638294 301.044542 
L 153.125914 305.959082 
L 153.660179 313.074496 
L 154.248395 319.328847 
L 154.609674 317.588964 
L 154.967434 325.492495 
L 155.853681 337.354324 
L 156.616739 336.08033 
L 156.985622 333.30525 
L 157.200255 333.30525 
L 157.881271 345.981703 
L 158.214324 345.981703 
L 158.544435 357.097993 
L 158.92794 360.043235 
L 159.27526 365.159237 
L 159.553486 365.159237 
L 159.951258 375.706397 
L 160.560941 375.818799 
L 161.298014 385.405421 
L 161.744306 385.505591 
L 162.153056 389.436869 
L 162.382994 383.99067 
L 162.907164 383.731189 
L 164.206305 397.662489 
L 164.465853 396.592969 
L 164.685754 397.227126 
L 164.91995 397.227126 
L 165.080612 401.310001 
L 165.365818 404.363961 
L 165.669694 404.363961 
L 166.008303 404.985819 
L 166.342548 404.985819 
L 166.677524 411.205786 
L 167.020806 414.255026 
L 167.351628 413.04196 
L 167.918224 413.937909 
L 168.161101 414.767107 
L 168.366457 419.460513 
L 168.743204 424.431205 
L 169.186015 420.039233 
L 169.370701 421.378628 
L 169.701283 421.378628 
L 170.049362 421.78077 
L 170.379868 421.78077 
L 170.721861 426.408246 
L 171.058154 425.283002 
L 171.384073 425.283002 
L 171.731787 427.595441 
L 172.068041 421.171338 
L 172.529906 415.900542 
L 172.726139 415.900542 
L 173.077803 421.215961 
L 173.401945 416.986765 
L 173.827297 415.669168 
L 174.440836 417.970265 
L 174.741049 414.294923 
L 175.096194 413.824915 
L 175.970328 408.462215 
L 176.64298 409.537649 
L 176.778551 411.263356 
L 177.14056 405.442926 
L 177.76378 405.934605 
L 177.967309 409.752952 
L 178.320954 406.95861 
L 178.816534 402.089938 
L 178.947375 402.089938 
L 179.144943 399.665452 
L 179.370959 399.665452 
L 179.735419 387.787549 
L 180.117174 382.253101 
L 180.369992 382.253101 
L 180.687135 383.887578 
L 181.028157 379.664773 
L 181.359682 381.089751 
L 181.692148 381.089751 
L 182.020461 377.566434 
L 182.360648 372.505833 
L 182.730549 365.343889 
L 183.044654 367.426521 
L 183.411143 363.781953 
L 183.722382 364.416203 
L 184.037112 358.739178 
L 184.375452 361.415298 
L 185.046153 347.239624 
L 185.719642 334.578601 
L 186.07273 329.606135 
L 186.397842 328.872655 
L 186.731327 326.038629 
L 187.101729 326.024059 
L 187.652222 321.848902 
L 188.548957 309.18048 
L 189.009246 307.446345 
L 189.632167 304.148956 
L 190.227219 295.336078 
L 190.742488 292.776235 
L 190.907197 288.956064 
L 191.295297 284.09072 
L 191.510449 284.09072 
L 191.805134 273.795836 
L 192.117518 273.795836 
L 192.323037 271.376447 
L 192.65884 259.818521 
L 192.994161 259.280147 
L 193.336136 250.063041 
L 193.705903 247.177429 
L 194.004491 246.261286 
L 194.338928 240.587512 
L 195.011167 234.360614 
L 195.346297 235.762234 
L 195.679955 232.436916 
L 196.109413 229.639 
L 196.620981 232.563988 
L 197.297104 219.096743 
L 197.950471 211.117835 
L 198.233178 211.117835 
L 198.980019 200.92851 
L 199.104005 200.92851 
L 199.363658 199.145899 
L 199.653709 195.958983 
L 199.813208 195.958983 
L 200.722653 175.594153 
L 201.06829 172.61355 
L 201.442249 173.730099 
L 201.74226 171.389849 
L 202.072919 158.422011 
L 202.746523 157.712744 
L 203.025009 154.26233 
L 203.163637 154.26233 
L 203.411821 142.661911 
L 204.119746 139.753237 
L 204.34505 139.753237 
L 204.454347 138.82974 
L 204.762299 139.538288 
L 205.204639 137.40081 
L 205.734991 131.748303 
L 205.982493 131.748303 
L 206.286503 127.263373 
L 206.479582 127.263373 
L 206.782929 118.998543 
L 207.121548 120.915148 
L 208.123571 108.054251 
L 208.468189 108.130093 
L 208.786678 105.271232 
L 209.128383 109.352428 
L 209.46381 111.682626 
L 209.797892 102.888345 
L 210.17882 103.326428 
L 210.46816 105.475398 
L 210.802934 103.546049 
L 211.150003 99.238347 
L 211.598121 101.261735 
L 212.086068 92.155464 
L 212.39501 94.727656 
L 212.841003 92.891628 
L 213.17147 92.548747 
L 213.495804 93.070658 
L 213.829308 89.937899 
L 214.173157 87.892864 
L 214.589492 82.469565 
L 214.835292 82.743199 
L 215.172114 78.12 
L 215.507359 80.737546 
L 215.844122 79.145861 
L 216.204689 81.908361 
L 216.857836 80.358223 
L 217.190735 84.956045 
L 217.636103 83.43554 
L 218.345451 84.767712 
L 218.602162 89.818742 
L 218.875601 92.67102 
L 219.203444 93.630168 
L 219.539756 90.379477 
L 220.660911 92.607521 
L 221.460866 89.908831 
L 221.801216 91.672136 
L 222.138162 98.464623 
L 222.472667 98.711119 
L 222.806835 103.010066 
L 223.147136 102.785612 
L 223.479093 103.102734 
L 223.849091 110.55971 
L 224.545258 114.044659 
L 225.099722 115.869014 
L 225.443571 119.572765 
L 225.891583 122.144995 
L 226.308274 127.307598 
L 226.563995 133.051989 
L 226.906681 137.277382 
L 227.242752 137.570315 
L 227.573267 138.287877 
L 228.246102 152.656764 
L 228.582289 151.011311 
L 228.918457 155.525155 
L 229.460547 158.13866 
L 229.79833 170.062348 
L 229.926152 170.047438 
L 230.279221 167.809176 
L 230.60018 173.024355 
L 230.934694 174.382029 
L 231.272707 172.219655 
L 232.283056 179.358431 
L 233.261045 191.884341 
L 233.622651 194.362508 
L 234.187468 193.402478 
L 234.755957 198.210296 
L 234.89122 198.210296 
L 235.300624 207.603688 
L 235.629236 210.474792 
L 235.970383 210.474792 
L 236.287727 217.1102 
L 236.960044 239.014321 
L 237.577966 241.927868 
L 238.435247 247.970959 
L 238.648534 247.970959 
L 239.648404 265.593298 
L 239.984783 266.766979 
L 240.356041 274.844017 
L 240.675654 274.844017 
L 241.03524 284.033332 
L 242.640593 299.732901 
L 243.105871 302.370161 
L 244.004375 308.356008 
L 244.623394 308.519078 
L 244.992305 310.359991 
L 245.313495 310.359991 
L 245.637569 323.050739 
L 246.196079 339.905645 
L 247.410351 354.12667 
L 247.766034 363.467048 
L 248.366076 373.205211 
L 248.767039 373.205211 
L 249.104879 380.437663 
L 249.42853 380.437663 
L 249.893078 387.146017 
L 250.567624 384.739306 
L 251.279683 386.329937 
L 251.669013 388.104993 
L 251.953864 393.835002 
L 252.489513 397.909487 
L 252.829507 399.039498 
L 253.183998 398.375873 
L 253.35239 398.375873 
L 253.730492 403.793458 
L 254.114497 403.420878 
L 254.4677 401.411779 
L 254.871278 402.040068 
L 255.560187 414.031331 
L 255.74148 414.031331 
L 255.948864 410.615194 
L 256.365305 410.734559 
L 256.552404 415.482682 
L 256.81101 415.482682 
L 257.017336 419.107732 
L 257.37302 419.107732 
L 257.823973 416.759633 
L 258.012265 417.753308 
L 258.34851 414.356239 
L 258.676813 414.024526 
L 259.015558 415.513059 
L 259.586373 420.66959 
L 260.094163 420.66959 
L 260.264996 421.821172 
L 260.590339 430.197329 
L 260.774131 430.197329 
L 261.143889 427.720139 
L 261.49986 427.720139 
L 262.152392 416.746298 
L 262.371716 417.428963 
L 262.718113 418.105689 
L 263.083775 418.105689 
L 263.402619 420.716971 
L 263.714618 421.548781 
L 264.064725 421.684818 
L 264.41191 420.669842 
L 264.725582 416.822058 
L 265.059096 407.587959 
L 265.644909 410.733482 
L 266.049449 410.904819 
L 266.536377 410.000105 
L 267.116748 407.52017 
L 267.621077 397.531341 
L 268.528618 398.078429 
L 268.866362 396.677767 
L 269.209029 393.775916 
L 269.540986 389.170099 
L 270.274233 389.368902 
L 270.602902 382.464896 
L 270.882657 380.959066 
L 271.220805 375.698408 
L 271.55455 366.93221 
L 271.892775 363.900215 
L 272.226597 359.046947 
L 272.564803 359.044235 
L 272.901509 356.52894 
L 273.235869 355.177601 
L 273.570576 357.459574 
L 273.90682 347.288774 
L 274.590192 334.631034 
L 274.929051 334.631034 
L 275.253279 328.036694 
L 275.588889 327.015695 
L 275.923019 326.437642 
L 276.263993 325.172488 
L 276.598161 321.289314 
L 277.041328 306.058561 
L 277.713606 300.23099 
L 277.990861 300.23099 
L 278.281557 296.085831 
L 278.611956 299.038362 
L 279.520786 279.043954 
L 279.903906 278.813671 
L 280.19837 273.946941 
L 280.336344 273.946941 
L 280.626943 270.783236 
L 280.963111 262.655864 
L 281.312353 258.681495 
L 281.639946 256.758537 
L 281.971902 258.540256 
L 282.306955 256.131575 
L 282.642969 255.844108 
L 283.31715 242.547508 
L 283.652299 240.323675 
L 284.323134 231.069292 
L 284.66705 230.170831 
L 285.000988 218.899891 
L 285.527389 214.863819 
L 285.756365 214.863819 
L 286.013009 204.341818 
L 286.340967 199.533717 
L 286.79417 203.989755 
L 287.640646 201.097331 
L 287.845608 196.168972 
L 288.324537 189.06099 
L 288.520769 188.710478 
L 289.178588 175.853789 
L 289.516929 175.275059 
L 290.233044 165.650498 
L 290.641717 163.510627 
L 290.861522 161.088368 
L 291.428301 156.232381 
L 291.840377 155.623039 
L 292.280506 150.909564 
L 292.791564 150.027869 
L 293.081221 145.75562 
L 293.726677 146.979884 
L 294.078957 144.093224 
L 294.400377 132.916925 
L 294.738064 132.02931 
L 295.072866 126.11914 
L 295.408534 124.554289 
L 295.746971 121.835173 
L 296.088868 123.160849 
L 297.584453 102.221059 
L 297.779185 102.221059 
L 298.134869 98.118321 
L 298.432909 92.386879 
L 298.768557 88.514072 
L 299.10486 90.865083 
L 299.45389 85.288294 
L 299.798518 85.288294 
L 300.130206 80.5271 
L 300.457779 83.585912 
L 300.793139 84.637312 
L 301.124634 86.073427 
L 301.80543 91.634828 
L 302.151826 90.667185 
L 302.498588 89.104332 
L 302.850907 86.986287 
L 303.136795 89.039811 
L 303.474847 87.700127 
L 303.811861 91.444994 
L 304.592387 89.653953 
L 304.974643 94.069345 
L 305.267934 95.877179 
L 305.573472 100.760683 
L 306.337137 99.654888 
L 307.013337 98.96668 
L 307.44241 100.587994 
L 307.966773 99.650196 
L 308.021955 101.830123 
L 308.356777 101.374783 
L 308.70102 104.614765 
L 309.037418 102.184794 
L 309.379066 95.2577 
L 309.720521 102.954194 
L 310.283742 98.590833 
L 310.540809 100.803154 
L 310.865056 100.803154 
L 311.071248 105.25329 
L 311.431873 107.112631 
L 311.724376 113.230963 
L 312.062889 113.941279 
L 312.398307 117.049377 
L 312.734301 118.856538 
L 313.065182 118.660869 
L 313.44488 117.463735 
L 313.739344 127.784916 
L 314.069993 132.854047 
L 314.455613 134.748334 
L 314.765978 128.253652 
L 315.079284 126.472008 
L 315.413491 127.634023 
L 315.784517 133.681234 
L 316.123531 129.846828 
L 316.437068 129.814464 
L 316.837743 132.901366 
L 317.437188 142.123092 
L 317.802889 144.841468 
L 318.280645 144.841468 
L 318.450132 148.585517 
L 318.779282 158.932033 
L 319.810281 174.813815 
L 320.128625 184.284011 
L 320.469234 187.575777 
L 320.802575 193.66309 
L 321.295964 194.256897 
L 321.78093 197.533345 
L 321.963146 197.533345 
L 322.343805 197.965272 
L 323.152596 206.930759 
L 323.803589 215.44199 
L 324.071808 215.44199 
L 324.211628 218.969085 
L 324.641566 221.997061 
L 325.240839 223.950534 
L 325.510288 233.443132 
L 325.897677 234.97893 
L 326.182181 237.651374 
L 326.515907 239.390837 
L 326.852671 247.033707 
L 327.191684 245.462514 
L 327.526486 245.362775 
L 327.86475 253.162741 
L 328.342141 256.985591 
L 328.532259 261.351124 
L 329.228398 268.039685 
L 329.556702 272.733875 
L 329.878276 278.933032 
L 330.212309 280.6575 
L 330.606024 283.843783 
L 330.890567 292.86398 
L 331.338348 296.202511 
L 331.712701 300.189012 
L 332.287401 312.482719 
L 332.582691 317.826512 
L 334.279757 332.153923 
L 334.720155 331.787812 
L 334.946555 330.068363 
L 335.27632 338.065918 
L 335.59228 339.549583 
L 337.395173 372.573156 
L 337.732244 371.281605 
L 338.069123 376.330365 
L 338.404541 376.082954 
L 338.74067 377.718222 
L 339.076549 378.371934 
L 339.441712 378.303043 
L 339.766804 382.728078 
L 340.085918 381.818985 
L 340.420336 382.59396 
L 340.832201 384.188174 
L 341.090825 382.941125 
L 341.429146 386.269304 
L 341.76416 395.013366 
L 342.103212 395.007022 
L 342.440379 389.858401 
L 342.792948 390.579417 
L 343.107485 397.850907 
L 343.476089 401.89993 
L 343.77884 401.058512 
L 344.114815 408.240039 
L 344.45329 412.107991 
L 345.12501 413.699179 
L 345.796173 420.609654 
L 346.132379 418.889779 
L 346.469739 416.540153 
L 346.807617 418.349762 
L 347.143401 411.735952 
L 347.559938 410.355245 
L 347.818428 410.111828 
L 348.152423 407.258647 
L 349.281326 418.036996 
L 349.526242 417.938326 
L 349.704862 414.596335 
L 350.33732 412.877762 
L 350.666547 409.89514 
L 350.8354 412.682586 
L 351.171914 408.971834 
L 351.849171 416.224489 
L 352.401241 416.628726 
L 352.531505 414.276282 
L 353.566887 417.444708 
L 354.387579 407.615151 
L 354.576909 407.615151 
L 354.913365 411.546234 
L 355.389064 410.69649 
L 355.756765 405.800811 
L 355.921003 405.800811 
L 356.257248 402.295385 
L 356.768652 400.150804 
L 357.107319 400.234518 
L 357.495438 399.447386 
L 357.676539 399.447386 
L 357.959024 390.976615 
L 358.273734 385.156566 
L 358.609518 381.535975 
L 358.974622 388.0028 
L 359.619174 373.276147 
L 360.099853 373.276147 
L 360.289375 365.467405 
L 360.682167 360.775255 
L 361.029486 352.441351 
L 361.478768 353.718798 
L 361.77477 351.839948 
L 362.313245 337.427156 
L 362.691405 339.036378 
L 362.978928 339.036378 
L 363.314 336.304081 
L 363.988566 333.35123 
L 364.658228 325.758795 
L 365.199761 321.057684 
L 365.470211 321.057684 
L 365.712127 319.092943 
L 366.005072 315.243845 
L 366.381347 312.845828 
L 366.674638 316.118053 
L 367.087465 314.437938 
L 367.3498 306.362148 
L 367.685179 304.729914 
L 368.018982 294.860056 
L 368.367167 287.925575 
L 369.446907 276.343171 
L 369.860387 263.506117 
L 370.206706 263.506117 
L 370.45689 261.205964 
L 371.003037 253.583949 
L 371.579641 252.895498 
L 371.934286 254.325438 
L 372.232364 254.325438 
L 372.812313 240.708526 
L 373.156556 235.148482 
L 373.48263 235.866969 
L 373.818182 231.61969 
L 374.152504 229.564774 
L 374.489864 221.820236 
L 374.824897 217.188484 
L 375.17189 209.708319 
L 375.498636 209.222679 
L 375.837534 213.380049 
L 376.290622 199.854991 
L 376.551573 199.854991 
L 376.845825 197.873734 
L 377.178321 200.802974 
L 377.513027 198.250025 
L 377.849656 197.238921 
L 378.186112 192.316624 
L 378.874195 195.483191 
L 379.21142 186.928481 
L 379.534071 186.928481 
L 379.870623 189.262034 
L 380.217289 179.103218 
L 380.537786 177.752066 
L 380.873416 174.141169 
L 381.2236 172.969211 
L 381.882303 159.959759 
L 382.219105 159.990725 
L 382.554292 154.711788 
L 382.89221 155.083271 
L 383.640069 150.594295 
L 384.235458 140.950383 
L 384.570106 134.254349 
L 385.241653 126.066542 
L 385.609546 130.672878 
L 385.991878 133.409776 
L 386.502282 132.531245 
L 386.801399 124.071662 
L 386.928106 124.071662 
L 387.262236 120.502045 
L 387.597711 105.875797 
L 387.932764 105.875797 
L 388.304348 104.91714 
L 388.612944 101.335988 
L 388.978837 101.335988 
L 389.273512 97.262048 
L 389.609603 97.303079 
L 389.951077 98.621129 
L 390.292167 102.66307 
L 390.709473 101.601832 
L 391.103284 95.097992 
L 391.588154 92.039327 
L 391.783579 96.488898 
L 391.962507 96.488898 
L 392.29856 96.96167 
L 392.63392 97.876353 
L 392.979355 96.596191 
L 393.311062 98.810159 
L 393.642653 99.705858 
L 393.97859 92.528532 
L 394.315681 92.878004 
L 394.650541 100.693828 
L 395.336912 96.036144 
L 395.738222 101.205676 
L 396.354068 101.273823 
L 396.670277 99.74383 
L 397.002869 99.854824 
L 397.339037 97.418872 
L 397.674512 103.750157 
L 398.011526 99.873539 
L 398.346694 101.11344 
L 398.693705 103.208482 
L 399.017952 106.975946 
L 399.690711 107.88082 
L 400.026186 108.97067 
L 400.362584 114.788393 
L 400.701521 114.640543 
L 401.038188 112.241836 
L 401.370357 120.38685 
L 401.707793 119.79669 
L 402.045999 120.821423 
L 402.722488 125.791131 
L 403.132911 137.884019 
L 403.386555 137.884019 
L 403.7233 136.479931 
L 404.062428 137.604446 
L 404.471582 143.811076 
L 404.75303 142.313232 
L 405.128921 141.358266 
L 405.638709 144.330544 
L 406.150498 143.967846 
L 406.56815 147.465541 
L 406.846214 147.465541 
L 407.591343 154.710211 
L 407.888441 165.126055 
L 408.470639 163.903753 
L 408.808422 167.380621 
L 409.144436 167.380621 
L 409.484795 170.286839 
L 410.488645 186.359148 
L 410.831389 186.555672 
L 411.182361 185.659295 
L 411.504724 190.106765 
L 412.195133 207.852735 
L 412.504805 207.852735 
L 412.844395 215.860957 
L 413.251857 210.15843 
L 413.85609 217.878142 
L 414.211139 214.868306 
L 415.200069 233.588981 
L 415.705628 248.166358 
L 416.202611 245.467571 
L 416.963815 248.427022 
L 417.212114 258.585608 
L 417.679065 261.961019 
L 417.890294 261.961019 
L 418.224386 275.367105 
L 418.742711 275.552809 
L 419.227044 283.190493 
L 419.684304 286.808003 
L 419.858156 286.808003 
L 420.152754 281.878472 
L 420.762063 288.692851 
L 420.91415 288.692851 
L 421.242319 299.729821 
L 421.581332 301.168156 
L 422.018596 312.976783 
L 422.256552 312.976783 
L 422.589066 316.908457 
L 423.596993 336.890793 
L 423.932853 335.807947 
L 424.33993 336.212279 
L 424.694863 338.390227 
L 424.968081 340.882204 
L 425.285637 334.312733 
L 426.564897 357.380495 
L 426.62081 357.380495 
L 426.957708 360.21871 
L 427.62889 377.159088 
L 427.968018 380.385097 
L 428.30284 377.454489 
L 428.641853 381.880678 
L 429.014899 388.94101 
L 429.331455 391.971734 
L 429.647318 391.971734 
L 429.981486 389.774678 
L 430.317347 390.711905 
L 430.654745 394.863656 
L 430.991028 396.531462 
L 431.340001 395.595426 
L 431.667708 403.577943 
L 432.074632 408.509009 
L 432.341159 414.47764 
L 432.806418 411.195569 
L 433.12505 411.195569 
L 433.366928 418.030816 
L 433.68756 418.14326 
L 434.022843 419.472929 
L 434.68545 420.861548 
L 435.02154 424.732695 
L 435.737137 419.509366 
L 436.199589 422.600504 
L 436.551292 429.764984 
L 436.835854 429.764984 
L 436.88023 424.135697 
L 437.037393 424.135697 
L 437.373407 427.053577 
L 437.709805 428.227225 
L 438.047665 424.409285 
L 438.382717 426.349463 
L 438.717462 421.726857 
L 439.209216 428.439669 
L 439.408525 428.439669 
L 439.726427 420.825739 
L 440.064902 422.572914 
L 440.73443 412.881339 
L 441.073943 417.851165 
L 441.741818 410.192853 
L 442.307481 407.730982 
L 442.424805 407.730982 
L 442.910444 405.357236 
L 443.58751 409.717766 
L 443.72683 409.717766 
L 443.968823 405.866224 
L 444.115372 405.866224 
L 444.430159 402.895588 
L 444.765827 395.732923 
L 445.437816 403.477634 
L 446.255163 390.832515 
L 446.447742 393.17743 
L 446.782141 393.410865 
L 447.119039 398.239479 
L 448.168496 393.144729 
L 448.510393 391.874127 
L 449.206686 387.967995 
L 449.618301 384.488981 
L 449.887789 376.686499 
L 450.219688 373.601722 
L 450.557201 374.017618 
L 450.892062 368.190141 
L 451.427269 364.461776 
L 451.595353 359.114528 
L 451.978742 359.114528 
L 452.240347 359.847419 
L 452.576976 358.717996 
L 452.907722 350.760953 
L 453.430431 342.710121 
L 453.590555 342.710121 
L 453.920185 341.214587 
L 454.24947 344.229758 
L 454.589983 336.6396 
L 454.982178 333.611643 
L 455.712426 312.555912 
L 456.328618 308.833575 
L 456.612103 312.965778 
L 456.96396 298.963516 
L 457.372691 298.963516 
L 457.645294 298.120938 
L 457.950429 298.013557 
L 458.338818 297.64296 
L 459.068488 287.075235 
L 459.366202 287.075235 
L 459.628191 281.452508 
L 459.964359 284.157594 
L 460.304064 279.020091 
L 460.972785 279.783805 
L 461.33091 277.399952 
L 461.645389 269.464969 
L 462.01805 269.464969 
L 462.31534 261.869663 
L 462.653123 259.841317 
L 463.101308 254.089072 
L 463.841554 242.171672 
L 464.293469 226.719793 
L 464.965843 218.206956 
L 465.310624 216.103575 
L 465.66029 217.402814 
L 465.978422 208.403589 
L 466.311936 208.403589 
L 466.647527 204.996224 
L 466.983926 199.265008 
L 467.324746 199.487615 
L 467.952244 198.637653 
L 468.37801 193.825778 
L 468.662995 183.439466 
L 468.999932 182.678591 
L 469.336561 180.093393 
L 470.167021 170.274248 
L 472.012559 142.483181 
L 472.478087 142.483181 
L 472.620945 144.628586 
L 472.859631 146.198748 
L 474.204955 128.284757 
L 474.756544 127.810077 
L 475.768469 122.44109 
L 476.213116 123.202882 
L 476.698141 118.556353 
L 477.044768 114.04676 
L 477.390819 106.717843 
L 478.177171 99.915845 
L 478.743257 97.120638 
L 479.082116 98.581305 
L 479.44301 95.118122 
L 479.783562 96.585999 
L 480.113461 96.84163 
L 480.60733 92.378939 
L 480.774376 92.378939 
L 481.137346 86.30867 
L 481.537886 86.30867 
L 482.209991 86.141168 
L 482.442909 82.106858 
L 482.926972 86.578532 
L 483.140086 93.252425 
L 483.825726 90.63506 
L 484.252492 85.593597 
L 484.532093 85.593597 
L 485.187624 94.453525 
L 486.285111 96.813112 
L 486.713453 99.491507 
L 486.892574 99.491507 
L 487.146641 100.582171 
L 487.51338 93.569745 
L 487.890386 100.804299 
L 488.412404 101.289364 
L 488.921808 102.246331 
L 489.163647 107.158332 
L 489.497315 109.074119 
L 489.833829 108.633113 
L 490.170112 114.081859 
L 490.730199 116.097692 
L 491.025913 122.282681 
L 491.639759 124.549473 
L 492.177658 128.557866 
L 492.828344 130.952615 
L 493.674647 142.084674 
L 494.184205 145.482537 
L 494.345944 145.482537 
L 494.861232 154.398625 
L 495.387364 152.304353 
L 495.534451 156.579441 
L 496.251048 159.33365 
L 496.542185 164.07918 
L 496.892581 162.157052 
L 497.246207 165.92319 
L 497.571569 162.724191 
L 497.944422 167.055066 
L 498.396722 168.542467 
L 498.882285 166.243177 
L 499.006992 166.243177 
L 499.30409 174.622682 
L 499.575078 176.673123 
L 499.89471 182.143083 
L 500.23853 186.117388 
L 500.578735 196.594235 
L 500.914595 199.181933 
L 501.24438 208.801978 
L 501.628231 208.801978 
L 502.194701 221.364744 
L 502.452768 222.598603 
L 502.861461 229.296478 
L 503.285343 234.281764 
L 503.564598 235.037356 
L 504.079309 246.256639 
L 504.483579 251.083823 
L 504.823823 259.527738 
L 505.439631 257.031967 
L 505.788796 257.663181 
L 506.323696 262.64909 
L 506.628677 263.051867 
L 507.078169 269.461609 
L 507.470442 266.848155 
L 507.7765 266.848155 
L 508.201689 283.551457 
L 508.781503 280.831417 
L 509.325555 286.781058 
L 510.276107 302.695365 
L 510.475301 309.630523 
L 511.359904 309.442671 
L 512.015166 315.737791 
L 512.381251 325.966031 
L 512.688155 326.225916 
L 513.106345 326.225916 
L 513.393868 324.653874 
L 513.751994 332.549172 
L 514.054898 333.210805 
L 514.531309 332.029504 
L 514.757189 335.217866 
L 515.066824 341.50246 
L 515.422911 351.652752 
L 515.90582 361.225306 
L 516.119011 361.225306 
L 516.384884 362.55902 
L 516.76712 365.303454 
L 517.119246 364.016855 
L 517.406231 373.432533 
L 517.814462 372.718075 
L 518.401467 389.810538 
L 518.738711 390.561591 
L 519.408124 407.032962 
L 519.745868 405.773273 
L 520.095418 407.265551 
L 520.416935 413.732589 
L 520.778444 414.524232 
L 521.112304 412.376035 
L 521.43732 411.034676 
L 521.766105 410.741938 
L 522.435018 429.410572 
L 522.789682 427.867612 
L 523.244712 426.643003 
L 523.498664 423.643446 
L 523.830948 415.646021 
L 524.113626 413.613356 
L 524.451639 416.208611 
L 525.009342 413.965861 
L 525.42188 410.7791 
L 525.714402 414.578931 
L 526.043917 413.931383 
L 526.282257 413.931383 
L 526.504215 413.7521 
L 526.867647 424.052726 
L 527.164514 427.012524 
L 527.682571 426.65951 
L 528.171133 425.17764 
L 528.849121 427.101949 
L 529.293499 427.487934 
L 529.604826 429.972044 
L 529.868315 430.92 
L 530.196215 419.337027 
L 531.162149 412.517449 
L 531.475359 410.971486 
L 531.637406 410.971486 
L 531.999838 411.535574 
L 532.238831 411.239617 
L 533.020646 411.957331 
L 533.855643 402.095736 
L 534.352281 400.716457 
L 534.69837 398.260214 
L 535.033884 393.290318 
L 535.362283 396.609074 
L 535.702297 396.089809 
L 536.136061 399.686899 
L 536.370825 393.028112 
L 536.708223 393.028112 
L 537.04366 393.927834 
L 537.71888 385.541057 
L 538.054163 385.541057 
L 538.723768 377.182824 
L 539.058628 372.571446 
L 539.417215 375.517602 
L 539.731117 369.92962 
L 540.140925 366.158072 
L 540.404837 366.158072 
L 540.738582 363.444688 
L 541.077826 358.180252 
L 541.411648 359.372088 
L 541.747431 359.161373 
L 542.083637 359.696847 
L 542.419728 358.597833 
L 542.771854 356.151668 
L 543.427039 355.957495 
L 543.764129 350.876458 
L 544.110564 342.476246 
L 544.43858 346.758577 
L 545.295804 329.153447 
L 546.597328 325.530968 
L 547.628673 305.408533 
L 547.95392 301.589157 
L 548.454634 290.786061 
L 548.882938 290.786061 
L 548.964653 278.990484 
L 549.305589 275.835664 
L 549.63595 273.950067 
L 549.970272 274.010383 
L 550.322052 275.739526 
L 550.684215 274.009121 
L 550.969085 265.226035 
L 551.304676 259.743597 
L 551.898295 253.80889 
L 552.182319 253.803911 
L 552.99309 236.231779 
L 553.322912 231.79676 
L 553.665732 222.696123 
L 554.000054 220.97929 
L 554.672505 210.209873 
L 555.002174 207.439078 
L 555.338303 208.626111 
L 555.681546 207.159008 
L 556.010523 207.35652 
L 556.345999 204.58641 
L 556.681782 192.788345 
L 557.022795 195.749096 
L 557.359693 195.044274 
L 557.712358 190.297694 
L 558.355122 180.088984 
L 558.97166 166.22968 
L 559.316287 166.22968 
L 559.895486 161.697075 
L 560.140902 164.320287 
L 560.38551 162.78327 
L 560.713948 163.204309 
L 561.053423 161.204606 
L 561.389398 152.72053 
L 561.771134 147.345585 
L 562.071962 146.051326 
L 562.393902 142.741545 
L 562.839126 141.116788 
L 563.255202 137.286728 
L 563.401828 145.417231 
L 564.231519 132.508684 
L 564.410677 127.74498 
L 564.77134 132.318221 
L 566.155042 116.01993 
L 566.632376 116.254926 
L 566.828839 119.317024 
L 567.428572 118.263895 
L 567.977354 119.994281 
L 568.574626 107.592896 
L 568.845037 104.019752 
L 569.184935 103.885261 
L 569.517911 104.85056 
L 569.855578 100.124339 
L 570.190131 99.84093 
L 570.52676 94.197877 
L 570.86412 96.901745 
L 571.197519 86.695872 
L 571.677121 85.103478 
L 571.871354 85.50833 
L 572.20879 84.81149 
L 572.54938 87.589603 
L 572.984222 78.738123 
L 573.530312 87.118121 
L 574.108395 90.030169 
L 574.539276 89.417454 
L 574.995229 95.137574 
L 575.349393 95.137574 
L 575.671564 88.902307 
L 576.005347 88.583523 
L 576.347283 86.645134 
L 576.868916 101.722987 
L 577.160707 100.576321 
L 577.683801 104.21808 
L 577.813546 104.21808 
L 578.51926 105.288917 
L 579.029933 106.873078 
L 579.408093 105.053402 
L 579.755758 107.005439 
L 580.039359 110.686931 
L 580.375988 111.838214 
L 580.716117 118.65823 
L 581.38403 126.392313 
L 581.720313 129.489745 
L 582.126775 127.178678 
L 582.72897 131.477486 
L 583.070213 127.718553 
L 583.400267 130.192813 
L 583.737319 138.110436 
L 584.072833 137.788404 
L 584.56128 137.75707 
L 584.929633 136.806702 
L 585.570206 143.983998 
L 585.855114 145.465137 
L 586.03458 145.465137 
L 586.778594 148.553322 
L 587.336105 162.262601 
L 587.453352 162.262601 
L 587.788328 162.801854 
L 588.166141 172.290644 
L 588.461201 168.291288 
L 588.797946 173.268925 
L 589.204062 176.499876 
L 590.202874 187.448053 
L 590.982767 194.165311 
L 591.87706 204.316862 
L 592.004344 212.32705 
L 592.328476 211.297479 
L 592.730938 213.37834 
L 593.013155 215.842915 
L 593.33894 217.091061 
L 594.009391 227.874904 
L 594.345097 238.589453 
L 595.37325 247.241182 
L 595.888115 252.263859 
L 596.115765 252.278088 
L 596.699463 249.704727 
L 597.486815 268.593261 
L 598.318313 270.685691 
L 598.726621 278.008902 
L 599.076132 276.214407 
L 599.40184 276.475265 
L 601.168778 309.609147 
L 601.662185 310.680725 
L 601.986432 310.680725 
L 602.359516 311.670312 
L 602.984937 333.415888 
L 603.325181 333.415888 
L 603.499071 341.899597 
L 603.674192 341.899597 
L 604.163831 356.915534 
L 604.672928 356.915534 
L 604.776677 357.104561 
L 605.112807 361.669546 
L 605.450397 363.1225 
L 605.786296 359.903117 
L 606.123386 363.708246 
L 606.457708 365.915611 
L 606.792991 365.96226 
L 607.464788 375.727503 
L 608.119204 379.194531 
L 608.271906 379.194531 
L 608.492903 378.548325 
L 608.81142 378.174649 
L 609.144973 379.060993 
L 609.484178 377.940587 
L 609.817539 378.89935 
L 610.156552 381.051168 
L 610.826273 391.631439 
L 611.160979 390.423719 
L 611.500608 391.696317 
L 611.832968 390.488122 
L 612.16929 395.361777 
L 612.505381 395.594984 
L 612.842548 399.324153 
L 613.183407 401.053891 
L 613.543301 409.741301 
L 613.891659 411.873992 
L 614.695777 411.266165 
L 614.949499 416.698422 
L 616.116472 426.12554 
L 616.286325 417.928049 
L 616.538508 417.031448 
L 617.125667 414.022011 
L 618.338401 413.210165 
L 618.691489 416.96036 
L 619.120331 419.251221 
L 619.353749 418.559476 
L 619.875036 427.435742 
L 620.211319 426.764887 
L 620.574212 427.271609 
L 621.109727 427.775458 
L 621.319842 424.792493 
L 621.500884 424.792493 
L 622.130689 426.365032 
L 622.353455 428.975741 
L 622.636364 428.756209 
L 622.636364 428.756209 
" clip-path="url(#pd28a60d2a8)" style="fill: none; stroke: #008000; stroke-width: 1.5; stroke-linecap: square"/>
   </g>
   <g id="line2d_23">
    <path d="M 115.363636 119.120463 
L 117.747468 105.002795 
L 119.040605 101.863243 
L 119.098089 100.999021 
L 119.689363 99.864362 
L 119.916695 98.378369 
L 121.951847 95.151082 
L 122.457531 94.798951 
L 123.625461 94.740922 
L 123.951726 94.937792 
L 125.086898 95.980973 
L 125.633853 96.951487 
L 125.96866 97.681081 
L 126.416134 98.968602 
L 126.643779 99.101049 
L 127.653733 102.346379 
L 127.989891 103.413387 
L 128.662275 107.028692 
L 129.664529 110.492617 
L 130.008291 112.259245 
L 130.339181 115.143326 
L 130.713149 116.062919 
L 131.018482 118.185347 
L 131.355212 119.683948 
L 131.691788 123.840258 
L 132.270521 125.995486 
L 132.451006 127.950076 
L 133.177773 132.287706 
L 133.493185 137.531917 
L 134.062963 139.673211 
L 134.540325 142.359555 
L 134.719508 144.714394 
L 137.058035 164.218066 
L 138.085323 174.114801 
L 138.421856 181.931972 
L 139.296346 186.736513 
L 139.661066 191.802864 
L 140.191068 196.324096 
L 140.597842 201.479945 
L 141.20095 206.179043 
L 141.873223 213.433629 
L 142.226782 222.626418 
L 143.552874 232.60153 
L 143.893147 236.169992 
L 144.327613 242.374755 
L 144.744372 246.571713 
L 145.108774 251.503501 
L 145.30468 251.874796 
L 145.90598 258.694999 
L 146.706176 271.383262 
L 147.770448 279.713335 
L 148.260692 285.843015 
L 148.658771 291.696412 
L 151.617783 322.685495 
L 151.954768 327.682345 
L 152.459846 330.81138 
L 152.638294 332.929364 
L 153.125914 340.092609 
L 153.660179 343.049771 
L 154.248395 349.456684 
L 154.609674 351.750509 
L 154.967434 356.652472 
L 155.853681 362.531993 
L 156.616739 370.006118 
L 156.985622 371.476452 
L 158.544435 383.703248 
L 160.560941 396.704616 
L 161.298014 400.338293 
L 161.744306 403.350838 
L 162.153056 404.953563 
L 162.382994 406.44142 
L 162.907164 408.655183 
L 163.452197 410.008883 
L 163.630759 411.091405 
L 164.465853 413.191062 
L 164.91995 414.236512 
L 165.080612 415.044202 
L 165.365818 415.224341 
L 166.342548 416.991138 
L 167.351628 418.0071 
L 168.161101 418.184131 
L 168.366457 418.126182 
L 168.743204 417.846787 
L 169.186015 417.718867 
L 169.370701 417.320514 
L 169.701283 417.171944 
L 170.379868 416.133834 
L 170.721861 415.229048 
L 171.058154 414.685065 
L 171.384073 413.925682 
L 172.068041 411.342588 
L 172.529906 410.385525 
L 172.726139 409.702004 
L 173.401945 406.024986 
L 173.827297 405.217847 
L 174.741049 400.513 
L 175.970328 392.16445 
L 176.778551 388.924242 
L 177.14056 385.618556 
L 177.76378 382.405935 
L 178.320954 375.90458 
L 178.816534 373.976955 
L 180.369992 361.451253 
L 180.687135 357.546506 
L 181.028157 355.324546 
L 181.359682 351.726428 
L 181.692148 349.981947 
L 182.360648 343.73647 
L 184.716378 320.221362 
L 186.397842 302.027866 
L 186.731327 296.354505 
L 187.101729 294.233662 
L 187.652222 285.76745 
L 188.201888 281.236376 
L 188.548957 275.801628 
L 189.009246 272.247326 
L 189.632167 263.197396 
L 190.742488 253.012512 
L 190.907197 249.335925 
L 191.510449 244.460095 
L 191.805134 239.954388 
L 192.323037 235.548586 
L 193.336136 224.279489 
L 193.705903 219.241096 
L 194.004491 216.960529 
L 195.679955 198.545814 
L 196.109413 190.620715 
L 199.813208 157.538404 
L 200.050298 154.983734 
L 200.38637 153.004449 
L 201.74226 141.155206 
L 202.072919 137.028204 
L 202.746523 133.586967 
L 204.119746 123.765019 
L 204.34505 122.827724 
L 204.762299 120.05279 
L 205.204639 116.710774 
L 205.982493 112.785566 
L 207.121548 107.230911 
L 207.444632 106.252861 
L 208.468189 101.936071 
L 208.786678 101.311779 
L 209.128383 99.955433 
L 210.802934 96.373129 
L 211.598121 95.035508 
L 212.841003 94.692956 
L 213.495804 94.837915 
L 213.829308 95.042563 
L 214.835292 96.210076 
L 215.507359 97.416048 
L 215.844122 98.159227 
L 217.190735 102.124035 
L 217.636103 104.273514 
L 218.254324 106.06168 
L 218.345451 107.037819 
L 218.602162 107.591354 
L 219.203444 110.31522 
L 219.929154 115.335298 
L 220.660911 119.695302 
L 221.460866 123.313663 
L 222.472667 129.905488 
L 223.479093 137.307613 
L 223.849091 143.256237 
L 224.545258 148.157557 
L 225.099722 151.094528 
L 225.891583 160.396758 
L 226.308274 161.513399 
L 226.563995 164.980122 
L 226.906681 166.756043 
L 227.909761 176.698109 
L 228.246102 181.846345 
L 228.582289 183.740556 
L 228.918457 188.789172 
L 230.934694 207.905736 
L 231.272707 214.081285 
L 232.283056 224.793608 
L 233.261045 234.036616 
L 233.622651 238.99154 
L 235.012005 253.547466 
L 235.629236 260.773463 
L 236.287727 267.853861 
L 236.960044 277.620813 
L 238.060702 289.7705 
L 238.435247 292.040559 
L 240.675654 316.803426 
L 241.03524 324.101555 
L 242.640593 338.222177 
L 243.66467 347.832426 
L 244.992305 359.122418 
L 245.313495 361.304035 
L 246.196079 370.222373 
L 246.869184 375.439671 
L 247.410351 378.199238 
L 247.766034 382.591605 
L 248.480958 385.699558 
L 248.767039 388.412199 
L 249.42853 391.910272 
L 249.893078 396.792201 
L 250.567624 401.079166 
L 251.279683 402.507005 
L 251.953864 406.223363 
L 253.183998 410.329141 
L 254.871278 415.785938 
L 255.74148 416.809529 
L 255.948864 417.284024 
L 257.017336 418.140725 
L 257.823973 418.178641 
L 258.34851 417.966404 
L 259.015558 417.427406 
L 259.586373 416.028831 
L 260.094163 415.734224 
L 260.590339 414.482564 
L 260.774131 414.310351 
L 261.143889 412.769225 
L 261.49986 412.246409 
L 261.7014 411.180088 
L 262.371716 409.342159 
L 262.718113 407.174086 
L 263.083775 406.68753 
L 263.402619 404.935098 
L 263.714618 403.866467 
L 264.725582 398.552889 
L 265.059096 394.941813 
L 265.644909 392.676997 
L 267.116748 383.167363 
L 267.621077 376.298814 
L 268.528618 373.483021 
L 269.209029 367.781618 
L 269.540986 363.734052 
L 270.274233 359.047388 
L 271.892775 344.226948 
L 272.564803 336.788247 
L 272.901509 331.503591 
L 273.235869 330.845653 
L 275.923019 302.780082 
L 277.041328 289.41026 
L 277.424564 285.684297 
L 277.713606 280.248087 
L 277.990861 279.849343 
L 278.970773 268.012376 
L 279.903906 256.22434 
L 280.19837 254.826267 
L 280.963111 246.155051 
L 282.985078 223.351011 
L 283.31715 218.976523 
L 283.986909 212.537147 
L 285.527389 193.867502 
L 285.756365 193.636714 
L 286.340967 186.673733 
L 286.79417 179.644017 
L 287.845608 171.74496 
L 288.324537 167.688985 
L 288.520769 162.620163 
L 289.178588 159.661315 
L 290.233044 150.529073 
L 290.641717 146.905663 
L 290.861522 143.597085 
L 291.428301 138.487502 
L 292.791564 130.151581 
L 293.081221 127.066584 
L 295.746971 112.124211 
L 296.088868 110.494244 
L 296.416403 107.775652 
L 298.134869 101.75673 
L 298.432909 101.104999 
L 299.45389 97.68621 
L 299.798518 97.290907 
L 300.793139 95.648104 
L 302.151826 94.706011 
L 302.850907 94.76101 
L 303.474847 95.113879 
L 303.811861 96.069245 
L 304.592387 96.825679 
L 304.974643 97.489726 
L 307.371539 104.199681 
L 307.44241 105.654694 
L 307.966773 106.601286 
L 308.021955 107.205912 
L 308.70102 109.939074 
L 309.379066 113.369114 
L 309.720521 116.073274 
L 310.540809 121.330464 
L 310.865056 122.140008 
L 311.071248 124.642005 
L 312.398307 132.482378 
L 313.065182 137.401054 
L 316.437068 166.386021 
L 317.437188 176.15997 
L 317.802889 183.623841 
L 318.280645 184.815541 
L 318.450132 187.343876 
L 318.779282 189.587598 
L 319.116411 193.0495 
L 319.810281 203.372376 
L 320.128625 203.771621 
L 321.78093 221.720785 
L 321.963146 225.462342 
L 323.152596 240.950609 
L 324.071808 247.763202 
L 324.211628 250.971115 
L 324.641566 257.949638 
L 325.240839 260.854058 
L 325.897677 268.266069 
L 326.515907 275.257713 
L 326.852671 280.923431 
L 327.191684 282.80856 
L 327.526486 287.263265 
L 327.86475 294.113999 
L 328.342141 295.697593 
L 329.228398 305.886808 
L 329.556702 311.486166 
L 330.212309 315.775388 
L 330.890567 324.619106 
L 331.338348 327.879508 
L 331.712701 333.208588 
L 331.926891 333.424108 
L 332.582691 341.401598 
L 332.931741 343.773868 
L 334.946555 363.028892 
L 335.27632 364.65554 
L 335.59228 371.408173 
L 337.059005 378.594972 
L 338.74067 390.245612 
L 340.420336 399.985718 
L 341.76416 406.377717 
L 342.440379 409.065586 
L 342.792948 411.087668 
L 343.107485 411.415979 
L 343.77884 413.421675 
L 344.789131 415.787997 
L 345.459505 416.915538 
L 346.132379 417.69345 
L 346.807617 418.117201 
L 347.143401 418.188777 
L 347.818428 418.05377 
L 349.281326 416.446114 
L 349.526242 415.904481 
L 349.704862 414.543902 
L 350.33732 414.331919 
L 351.171914 412.043537 
L 351.849171 409.09967 
L 352.401241 407.747685 
L 352.531505 405.051902 
L 353.566887 402.497951 
L 354.576909 397.234288 
L 354.913365 394.071263 
L 355.389064 391.433285 
L 355.756765 390.220152 
L 356.768652 382.939962 
L 357.107319 378.633742 
L 357.495438 377.892047 
L 357.676539 375.880875 
L 357.959024 374.345725 
L 358.273734 371.091536 
L 358.609518 369.568118 
L 359.454051 362.224091 
L 359.619174 359.541544 
L 360.289375 354.990368 
L 364.321638 314.831881 
L 364.658228 309.712585 
L 365.199761 304.086334 
L 365.470211 302.66753 
L 366.381347 292.863163 
L 366.674638 287.212657 
L 367.087465 284.622527 
L 368.018982 274.155855 
L 368.367167 265.127659 
L 369.446907 257.759105 
L 370.45689 245.881742 
L 371.003037 238.417664 
L 371.579641 232.257834 
L 371.934286 230.531668 
L 372.472742 223.875755 
L 376.845825 176.32601 
L 377.178321 174.856304 
L 380.217289 146.137909 
L 380.537786 144.254266 
L 380.873416 140.897284 
L 381.2236 138.846324 
L 382.554292 129.130519 
L 384.235458 118.299294 
L 385.991878 107.512335 
L 386.502282 105.915456 
L 386.801399 105.472704 
L 386.928106 104.961506 
L 387.262236 103.059072 
L 387.597711 101.882093 
L 387.932764 101.295409 
L 388.612944 98.753324 
L 388.978837 98.314585 
L 389.273512 97.280058 
L 389.609603 97.018606 
L 390.292167 95.770957 
L 391.103284 94.899003 
L 391.962507 94.693739 
L 392.29856 94.71865 
L 393.311062 95.386047 
L 393.97859 96.189477 
L 394.650541 97.410411 
L 395.006359 98.606686 
L 395.336912 99.174047 
L 395.738222 101.380472 
L 396.354068 102.046407 
L 397.339037 105.761111 
L 398.346694 110.396996 
L 399.690711 117.460293 
L 401.038188 125.93392 
L 401.370357 128.307884 
L 401.707793 131.645934 
L 402.045999 132.991301 
L 402.722488 138.777952 
L 403.132911 142.489842 
L 403.386555 143.346491 
L 403.7233 146.085269 
L 404.062428 149.914518 
L 404.471582 152.513182 
L 405.128921 159.016517 
L 405.638709 165.835095 
L 406.150498 168.391681 
L 406.846214 174.890875 
L 407.176959 180.046683 
L 407.591343 182.195888 
L 407.888441 188.238419 
L 408.470639 192.148718 
L 408.808422 195.78673 
L 409.144436 197.865236 
L 412.195133 232.469271 
L 412.504805 235.014246 
L 414.211139 255.096721 
L 414.64898 259.423633 
L 415.200069 268.160265 
L 415.705628 271.363765 
L 416.202611 277.311972 
L 416.55143 283.134948 
L 416.963815 286.519248 
L 417.212114 291.856523 
L 417.679065 293.285659 
L 417.890294 295.369555 
L 418.224386 304.128239 
L 418.742711 309.058505 
L 419.227044 309.86545 
L 420.91415 329.076564 
L 421.242319 332.379246 
L 421.490388 333.617924 
L 421.581332 337.720849 
L 422.018596 339.007934 
L 422.589066 345.252537 
L 423.596993 353.437314 
L 425.285637 369.403884 
L 425.755357 374.039897 
L 426.128364 376.238031 
L 426.62081 378.512332 
L 427.62889 385.713134 
L 429.331455 397.255721 
L 429.647318 398.233303 
L 429.981486 400.56527 
L 430.654745 403.273626 
L 432.074632 409.470072 
L 432.341159 410.299129 
L 432.806418 412.195678 
L 433.12505 412.836146 
L 433.68756 414.613189 
L 434.022843 415.129665 
L 434.354204 416.127289 
L 435.737137 417.928772 
L 436.551292 418.178785 
L 437.037393 418.17081 
L 437.709805 417.875721 
L 438.047665 417.595248 
L 438.382717 417.158763 
L 438.717462 416.503914 
L 439.209216 415.897316 
L 440.73443 412.142422 
L 441.446488 409.486565 
L 441.741818 407.145282 
L 442.307481 406.248769 
L 442.424805 404.714792 
L 442.910444 401.663445 
L 443.58751 399.862948 
L 443.72683 398.797524 
L 443.968823 398.161408 
L 444.115372 396.669419 
L 444.430159 395.572306 
L 447.119039 377.815264 
L 447.544767 372.200117 
L 448.168496 368.673977 
L 448.510393 364.003708 
L 449.206686 360.347406 
L 449.618301 355.852187 
L 449.887789 354.332722 
L 450.557201 348.761721 
L 450.892062 342.13153 
L 451.427269 340.045463 
L 451.595353 336.077292 
L 451.978742 334.467306 
L 454.982178 303.621212 
L 455.712426 295.514796 
L 456.612103 285.690377 
L 456.96396 277.968839 
L 457.345581 277.598902 
L 458.338818 266.344295 
L 458.680638 262.160676 
L 459.068488 255.580956 
L 459.366202 254.531938 
L 461.645389 226.447014 
L 462.01805 224.139842 
L 462.653123 216.970025 
L 463.101308 209.751274 
L 463.841554 201.050617 
L 464.293469 193.69662 
L 464.965843 192.975095 
L 465.66029 184.740536 
L 465.978422 180.330799 
L 466.311936 178.804038 
L 466.647527 174.300475 
L 467.324746 168.121301 
L 468.37801 158.040597 
L 468.584625 157.524446 
L 468.999932 152.542275 
L 469.336561 148.65712 
L 470.167021 140.858522 
L 471.176523 136.040673 
L 471.520997 131.635495 
L 472.012559 127.648814 
L 472.478087 126.512183 
L 472.620945 125.590066 
L 472.859631 122.76166 
L 473.532543 119.868128 
L 473.869018 116.898804 
L 474.756544 112.823584 
L 475.081483 109.862974 
L 475.768469 106.934774 
L 476.213116 106.037734 
L 477.390819 100.729775 
L 478.743257 97.631234 
L 479.082116 97.226924 
L 479.44301 96.447662 
L 479.783562 95.992269 
L 480.113461 95.342699 
L 481.137346 94.705011 
L 481.943772 94.760135 
L 482.442909 94.970511 
L 482.926972 95.411284 
L 483.140086 96.046931 
L 484.025304 97.038955 
L 484.252492 97.836814 
L 484.532093 98.333173 
L 484.945093 99.473059 
L 485.187624 99.755718 
L 485.505911 101.054276 
L 485.806623 101.649046 
L 486.892574 105.700206 
L 487.146641 107.482291 
L 487.51338 109.060506 
L 488.412404 114.41339 
L 488.815943 115.132412 
L 489.163647 117.220901 
L 490.170112 124.585679 
L 490.730199 126.834041 
L 491.639759 135.33077 
L 492.828344 143.106078 
L 493.674647 149.321957 
L 494.861232 161.455648 
L 495.387364 164.516507 
L 495.534451 167.655341 
L 496.251048 173.01822 
L 498.396722 195.426266 
L 499.30409 204.278933 
L 501.24438 227.635391 
L 501.628231 230.489027 
L 503.285343 249.942814 
L 503.564598 254.20625 
L 504.079309 258.808687 
L 504.483579 263.696314 
L 504.823823 269.54319 
L 505.439631 273.256187 
L 505.788796 279.887444 
L 506.323696 283.359484 
L 506.628677 288.344904 
L 507.078169 292.073381 
L 508.201689 307.615411 
L 508.781503 311.736202 
L 509.325555 319.776513 
L 510.276107 326.166237 
L 510.475301 328.936327 
L 511.24208 335.082388 
L 511.359904 337.184769 
L 511.682382 339.470689 
L 512.381251 346.637533 
L 512.688155 352.357151 
L 513.106345 352.902704 
L 513.393868 357.113436 
L 513.751994 359.900339 
L 514.054898 364.453411 
L 514.531309 365.456611 
L 515.422911 374.541713 
L 516.119011 378.06494 
L 516.384884 381.514962 
L 517.119246 385.280465 
L 517.406231 388.025034 
L 520.095418 403.031513 
L 522.101311 410.967363 
L 523.498664 415.075682 
L 524.451639 416.950845 
L 525.42188 417.970601 
L 526.504215 418.183716 
L 527.164514 417.897072 
L 527.682571 417.46094 
L 528.849121 415.428912 
L 529.293499 414.810449 
L 529.868315 413.357595 
L 530.196215 410.881564 
L 530.809792 409.843352 
L 531.162149 408.373792 
L 531.637406 407.000391 
L 531.999838 405.691063 
L 532.238831 403.011832 
L 533.020646 400.929156 
L 533.122665 399.897457 
L 533.855643 395.22813 
L 534.352281 393.466973 
L 536.136061 381.339589 
L 536.370825 378.758005 
L 536.708223 377.692462 
L 537.71888 369.165004 
L 539.417215 354.837829 
L 542.083637 329.656794 
L 542.771854 321.039914 
L 544.110564 307.461262 
L 544.43858 303.705879 
L 544.805357 298.074935 
L 545.295804 293.607593 
L 546.597328 279.109745 
L 546.941033 270.621819 
L 547.628673 268.003185 
L 547.95392 262.238571 
L 548.882938 255.495397 
L 548.964653 253.788947 
L 549.305589 249.064067 
L 549.970272 242.980766 
L 550.322052 236.779755 
L 550.684215 234.645028 
L 550.969085 228.748953 
L 551.304676 224.990261 
L 551.898295 220.236536 
L 552.182319 216.415795 
L 552.99309 209.280562 
L 553.322912 204.161451 
L 554.331492 195.130706 
L 555.338303 184.744089 
L 557.359693 164.291257 
L 557.712358 159.175638 
L 558.97166 150.10792 
L 559.316287 147.536015 
L 560.38551 137.986716 
L 560.713948 136.37739 
L 561.771134 128.113479 
L 562.071962 126.548807 
L 562.839126 120.174589 
L 563.255202 119.073793 
L 563.401828 118.189431 
L 563.844899 113.941628 
L 564.231519 113.518736 
L 564.77134 108.848706 
L 565.719393 105.521267 
L 566.155042 103.386178 
L 566.632376 102.62398 
L 566.828839 101.383613 
L 567.428572 99.411144 
L 567.977354 98.772759 
L 568.574626 97.140069 
L 568.845037 96.856793 
L 569.184935 96.116334 
L 570.52676 94.862973 
L 571.197519 94.69171 
L 571.871354 94.885219 
L 572.54938 95.54264 
L 572.984222 96.507728 
L 573.530312 97.003024 
L 574.108395 98.261704 
L 575.349393 101.863255 
L 575.671564 103.493704 
L 576.005347 103.96393 
L 576.347283 106.120783 
L 576.868916 107.857566 
L 577.160707 110.14752 
L 577.683801 111.385465 
L 577.813546 113.146557 
L 579.029933 118.85391 
L 579.408093 121.845853 
L 579.755758 123.207127 
L 581.048554 131.943145 
L 582.126775 140.119749 
L 582.39484 143.633112 
L 582.72897 144.917861 
L 584.072833 156.439193 
L 584.929633 166.676577 
L 586.03458 176.486636 
L 586.778594 183.754114 
L 587.453352 189.14921 
L 588.797946 203.306589 
L 589.468512 212.594096 
L 590.202874 222.303832 
L 590.982767 230.717799 
L 592.004344 238.796325 
L 593.33894 253.764727 
L 594.345097 265.186595 
L 594.67988 271.110285 
L 595.018701 273.005531 
L 595.37325 279.461919 
L 595.888115 282.554147 
L 597.116923 296.36558 
L 597.486815 302.271237 
L 598.318313 310.455033 
L 598.726621 315.923607 
L 599.076132 317.453808 
L 600.207804 332.052261 
L 601.168778 339.38155 
L 601.662185 345.91236 
L 601.986432 348.362304 
L 602.359516 350.17817 
L 602.984937 356.557068 
L 603.674192 362.145462 
L 604.163831 369.349991 
L 604.647509 369.803989 
L 606.457708 384.015761 
L 607.128774 388.208082 
L 607.464788 393.026324 
L 608.271906 395.171137 
L 608.492903 396.915577 
L 609.144973 400.085729 
L 609.817539 403.471419 
L 610.156552 406.026305 
L 610.826273 407.787056 
L 611.500608 410.310972 
L 612.505381 413.435984 
L 613.543301 415.860463 
L 613.891659 416.643847 
L 614.949499 417.930468 
L 615.684169 418.156949 
L 616.286325 418.12943 
L 616.538508 417.903384 
L 617.125667 416.862167 
L 618.338401 415.65693 
L 618.691489 415.09126 
L 619.353749 413.487082 
L 619.875036 412.090392 
L 620.574212 409.224856 
L 621.319842 406.729297 
L 621.500884 405.3493 
L 622.130689 403.025741 
L 622.353455 401.301249 
L 622.636364 400.536232 
L 622.636364 400.536232 
" clip-path="url(#pd28a60d2a8)" style="fill: none; stroke-dasharray: 5.55,2.4; stroke-dashoffset: 0; stroke: #0000ff; stroke-width: 1.5"/>
   </g>
   <g id="patch_3">
    <path d="M 90 448.56 
L 90 60.48 
" style="fill: none; stroke: #000000; stroke-width: 0.8; stroke-linejoin: miter; stroke-linecap: square"/>
   </g>
   <g id="patch_4">
    <path d="M 648 448.56 
L 648 60.48 
" style="fill: none; stroke: #000000; stroke-width: 0.8; stroke-linejoin: miter; stroke-linecap: square"/>
   </g>
   <g id="patch_5">
    <path d="M 90 448.56 
L 648 448.56 
" style="fill: none; stroke: #000000; stroke-width: 0.8; stroke-linejoin: miter; stroke-linecap: square"/>
   </g>
   <g id="patch_6">
    <path d="M 90 60.48 
L 648 60.48 
" style="fill: none; stroke: #000000; stroke-width: 0.8; stroke-linejoin: miter; stroke-linecap: square"/>
   </g>
   <g id="legend_1">
    <g id="patch_7">
     <path d="M 97 278.037187 
L 186.107812 278.037187 
Q 188.107812 278.037187 188.107812 276.037187 
L 188.107812 233.002813 
Q 188.107812 231.002813 186.107812 231.002813 
L 97 231.002813 
Q 95 231.002813 95 233.002813 
L 95 276.037187 
Q 95 278.037187 97 278.037187 
z
" style="fill: #ffffff; opacity: 0.8; stroke: #cccccc; stroke-linejoin: miter"/>
    </g>
    <g id="line2d_24">
     <path d="M 99 239.10125 
L 109 239.10125 
L 119 239.10125 
" style="fill: none; stroke-dasharray: 12.8,3.2,2,3.2; stroke-dashoffset: 0; stroke: #ff0000; stroke-width: 2"/>
    </g>
    <g id="text_13">
     <!-- OptiTrack X -->
     <g transform="translate(127 242.60125)scale(0.1 -0.1)">
      <defs>
       <path id="DejaVuSans-4f" d="M 2522 4238 
Q 1834 4238 1429 3725 
Q 1025 3213 1025 2328 
Q 1025 1447 1429 934 
Q 1834 422 2522 422 
Q 3209 422 3611 934 
Q 4013 1447 4013 2328 
Q 4013 3213 3611 3725 
Q 3209 4238 2522 4238 
z
M 2522 4750 
Q 3503 4750 4090 4092 
Q 4678 3434 4678 2328 
Q 4678 1225 4090 567 
Q 3503 -91 2522 -91 
Q 1538 -91 948 565 
Q 359 1222 359 2328 
Q 359 3434 948 4092 
Q 1538 4750 2522 4750 
z
" transform="scale(0.015625)"/>
       <path id="DejaVuSans-70" d="M 1159 525 
L 1159 -1331 
L 581 -1331 
L 581 3500 
L 1159 3500 
L 1159 2969 
Q 1341 3281 1617 3432 
Q 1894 3584 2278 3584 
Q 2916 3584 3314 3078 
Q 3713 2572 3713 1747 
Q 3713 922 3314 415 
Q 2916 -91 2278 -91 
Q 1894 -91 1617 61 
Q 1341 213 1159 525 
z
M 3116 1747 
Q 3116 2381 2855 2742 
Q 2594 3103 2138 3103 
Q 1681 3103 1420 2742 
Q 1159 2381 1159 1747 
Q 1159 1113 1420 752 
Q 1681 391 2138 391 
Q 2594 391 2855 752 
Q 3116 1113 3116 1747 
z
" transform="scale(0.015625)"/>
       <path id="DejaVuSans-72" d="M 2631 2963 
Q 2534 3019 2420 3045 
Q 2306 3072 2169 3072 
Q 1681 3072 1420 2755 
Q 1159 2438 1159 1844 
L 1159 0 
L 581 0 
L 581 3500 
L 1159 3500 
L 1159 2956 
Q 1341 3275 1631 3429 
Q 1922 3584 2338 3584 
Q 2397 3584 2469 3576 
Q 2541 3569 2628 3553 
L 2631 2963 
z
" transform="scale(0.015625)"/>
       <path id="DejaVuSans-61" d="M 2194 1759 
Q 1497 1759 1228 1600 
Q 959 1441 959 1056 
Q 959 750 1161 570 
Q 1363 391 1709 391 
Q 2188 391 2477 730 
Q 2766 1069 2766 1631 
L 2766 1759 
L 2194 1759 
z
M 3341 1997 
L 3341 0 
L 2766 0 
L 2766 531 
Q 2569 213 2275 61 
Q 1981 -91 1556 -91 
Q 1019 -91 701 211 
Q 384 513 384 1019 
Q 384 1609 779 1909 
Q 1175 2209 1959 2209 
L 2766 2209 
L 2766 2266 
Q 2766 2663 2505 2880 
Q 2244 3097 1772 3097 
Q 1472 3097 1187 3025 
Q 903 2953 641 2809 
L 641 3341 
Q 956 3463 1253 3523 
Q 1550 3584 1831 3584 
Q 2591 3584 2966 3190 
Q 3341 2797 3341 1997 
z
" transform="scale(0.015625)"/>
       <path id="DejaVuSans-63" d="M 3122 3366 
L 3122 2828 
Q 2878 2963 2633 3030 
Q 2388 3097 2138 3097 
Q 1578 3097 1268 2742 
Q 959 2388 959 1747 
Q 959 1106 1268 751 
Q 1578 397 2138 397 
Q 2388 397 2633 464 
Q 2878 531 3122 666 
L 3122 134 
Q 2881 22 2623 -34 
Q 2366 -91 2075 -91 
Q 1284 -91 818 406 
Q 353 903 353 1747 
Q 353 2603 823 3093 
Q 1294 3584 2113 3584 
Q 2378 3584 2631 3529 
Q 2884 3475 3122 3366 
z
" transform="scale(0.015625)"/>
       <path id="DejaVuSans-6b" d="M 581 4863 
L 1159 4863 
L 1159 1991 
L 2875 3500 
L 3609 3500 
L 1753 1863 
L 3688 0 
L 2938 0 
L 1159 1709 
L 1159 0 
L 581 0 
L 581 4863 
z
" transform="scale(0.015625)"/>
      </defs>
      <use xlink:href="#DejaVuSans-4f"/>
      <use xlink:href="#DejaVuSans-70" x="78.710938"/>
      <use xlink:href="#DejaVuSans-74" x="142.1875"/>
      <use xlink:href="#DejaVuSans-69" x="181.396484"/>
      <use xlink:href="#DejaVuSans-54" x="209.179688"/>
      <use xlink:href="#DejaVuSans-72" x="255.513672"/>
      <use xlink:href="#DejaVuSans-61" x="296.626953"/>
      <use xlink:href="#DejaVuSans-63" x="357.90625"/>
      <use xlink:href="#DejaVuSans-6b" x="412.886719"/>
      <use xlink:href="#DejaVuSans-20" x="470.796875"/>
      <use xlink:href="#DejaVuSans-58" x="502.583984"/>
     </g>
    </g>
    <g id="line2d_25">
     <path d="M 99 253.779375 
L 109 253.779375 
L 119 253.779375 
" style="fill: none; stroke: #008000; stroke-width: 1.5; stroke-linecap: square"/>
    </g>
    <g id="text_14">
     <!-- Kalman X -->
     <g transform="translate(127 257.279375)scale(0.1 -0.1)">
      <defs>
       <path id="DejaVuSans-4b" d="M 628 4666 
L 1259 4666 
L 1259 2694 
L 3353 4666 
L 4166 4666 
L 1850 2491 
L 4331 0 
L 3500 0 
L 1259 2247 
L 1259 0 
L 628 0 
L 628 4666 
z
" transform="scale(0.015625)"/>
       <path id="DejaVuSans-6c" d="M 603 4863 
L 1178 4863 
L 1178 0 
L 603 0 
L 603 4863 
z
" transform="scale(0.015625)"/>
      </defs>
      <use xlink:href="#DejaVuSans-4b"/>
      <use xlink:href="#DejaVuSans-61" x="63.826172"/>
      <use xlink:href="#DejaVuSans-6c" x="125.105469"/>
      <use xlink:href="#DejaVuSans-6d" x="152.888672"/>
      <use xlink:href="#DejaVuSans-61" x="250.300781"/>
      <use xlink:href="#DejaVuSans-6e" x="311.580078"/>
      <use xlink:href="#DejaVuSans-20" x="374.958984"/>
      <use xlink:href="#DejaVuSans-58" x="406.746094"/>
     </g>
    </g>
    <g id="line2d_26">
     <path d="M 99 268.4575 
L 109 268.4575 
L 119 268.4575 
" style="fill: none; stroke-dasharray: 5.55,2.4; stroke-dashoffset: 0; stroke: #0000ff; stroke-width: 1.5"/>
    </g>
    <g id="text_15">
     <!-- Desired X -->
     <g transform="translate(127 271.9575)scale(0.1 -0.1)">
      <defs>
       <path id="DejaVuSans-44" d="M 1259 4147 
L 1259 519 
L 2022 519 
Q 2988 519 3436 956 
Q 3884 1394 3884 2338 
Q 3884 3275 3436 3711 
Q 2988 4147 2022 4147 
L 1259 4147 
z
M 628 4666 
L 1925 4666 
Q 3281 4666 3915 4102 
Q 4550 3538 4550 2338 
Q 4550 1131 3912 565 
Q 3275 0 1925 0 
L 628 0 
L 628 4666 
z
" transform="scale(0.015625)"/>
       <path id="DejaVuSans-64" d="M 2906 2969 
L 2906 4863 
L 3481 4863 
L 3481 0 
L 2906 0 
L 2906 525 
Q 2725 213 2448 61 
Q 2172 -91 1784 -91 
Q 1150 -91 751 415 
Q 353 922 353 1747 
Q 353 2572 751 3078 
Q 1150 3584 1784 3584 
Q 2172 3584 2448 3432 
Q 2725 3281 2906 2969 
z
M 947 1747 
Q 947 1113 1208 752 
Q 1469 391 1925 391 
Q 2381 391 2643 752 
Q 2906 1113 2906 1747 
Q 2906 2381 2643 2742 
Q 2381 3103 1925 3103 
Q 1469 3103 1208 2742 
Q 947 2381 947 1747 
z
" transform="scale(0.015625)"/>
      </defs>
      <use xlink:href="#DejaVuSans-44"/>
      <use xlink:href="#DejaVuSans-65" x="77.001953"/>
      <use xlink:href="#DejaVuSans-73" x="138.525391"/>
      <use xlink:href="#DejaVuSans-69" x="190.625"/>
      <use xlink:href="#DejaVuSans-72" x="218.408203"/>
      <use xlink:href="#DejaVuSans-65" x="257.271484"/>
      <use xlink:href="#DejaVuSans-64" x="318.794922"/>
      <use xlink:href="#DejaVuSans-20" x="382.271484"/>
      <use xlink:href="#DejaVuSans-58" x="414.058594"/>
     </g>
    </g>
   </g>
  </g>
 </g>
 <defs>
  <clipPath id="pd28a60d2a8">
   <rect x="90" y="60.48" width="558" height="388.08"/>
  </clipPath>
 </defs>
</svg>
