<?xml version="1.0" encoding="utf-8" standalone="no"?>
<!DOCTYPE svg PUBLIC "-//W3C//DTD SVG 1.1//EN"
  "http://www.w3.org/Graphics/SVG/1.1/DTD/svg11.dtd">
<svg xmlns:xlink="http://www.w3.org/1999/xlink" width="720pt" height="504pt" viewBox="0 0 720 504" xmlns="http://www.w3.org/2000/svg" version="1.1">
 <metadata>
  <rdf:RDF xmlns:dc="http://purl.org/dc/elements/1.1/" xmlns:cc="http://creativecommons.org/ns#" xmlns:rdf="http://www.w3.org/1999/02/22-rdf-syntax-ns#">
   <cc:Work>
    <dc:type rdf:resource="http://purl.org/dc/dcmitype/StillImage"/>
    <dc:date>2024-02-15T17:06:37.718334</dc:date>
    <dc:format>image/svg+xml</dc:format>
    <dc:creator>
     <cc:Agent>
      <dc:title>Matplotlib v3.5.1, https://matplotlib.org/</dc:title>
     </cc:Agent>
    </dc:creator>
   </cc:Work>
  </rdf:RDF>
 </metadata>
 <defs>
  <style type="text/css">*{stroke-linejoin: round; stroke-linecap: butt}</style>
 </defs>
 <g id="figure_1">
  <g id="patch_1">
   <path d="M 0 504 
L 720 504 
L 720 0 
L 0 0 
z
" style="fill: #ffffff"/>
  </g>
  <g id="axes_1">
   <g id="patch_2">
    <path d="M 90 448.56 
L 648 448.56 
L 648 60.48 
L 90 60.48 
z
" style="fill: #ffffff"/>
   </g>
   <g id="matplotlib.axis_1">
    <g id="xtick_1">
     <g id="line2d_1">
      <path d="M 164.798108 448.56 
L 164.798108 60.48 
" clip-path="url(#p434cf3a5a4)" style="fill: none; stroke: #b0b0b0; stroke-width: 0.8; stroke-linecap: square"/>
     </g>
     <g id="line2d_2">
      <defs>
       <path id="mca306019f0" d="M 0 0 
L 0 3.5 
" style="stroke: #000000; stroke-width: 0.8"/>
      </defs>
      <g>
       <use xlink:href="#mca306019f0" x="164.798108" y="448.56" style="stroke: #000000; stroke-width: 0.8"/>
      </g>
     </g>
     <g id="text_1">
      <!-- 10 -->
      <g transform="translate(158.435608 463.158437)scale(0.1 -0.1)">
       <defs>
        <path id="DejaVuSans-31" d="M 794 531 
L 1825 531 
L 1825 4091 
L 703 3866 
L 703 4441 
L 1819 4666 
L 2450 4666 
L 2450 531 
L 3481 531 
L 3481 0 
L 794 0 
L 794 531 
z
" transform="scale(0.015625)"/>
        <path id="DejaVuSans-30" d="M 2034 4250 
Q 1547 4250 1301 3770 
Q 1056 3291 1056 2328 
Q 1056 1369 1301 889 
Q 1547 409 2034 409 
Q 2525 409 2770 889 
Q 3016 1369 3016 2328 
Q 3016 3291 2770 3770 
Q 2525 4250 2034 4250 
z
M 2034 4750 
Q 2819 4750 3233 4129 
Q 3647 3509 3647 2328 
Q 3647 1150 3233 529 
Q 2819 -91 2034 -91 
Q 1250 -91 836 529 
Q 422 1150 422 2328 
Q 422 3509 836 4129 
Q 1250 4750 2034 4750 
z
" transform="scale(0.015625)"/>
       </defs>
       <use xlink:href="#DejaVuSans-31"/>
       <use xlink:href="#DejaVuSans-30" x="63.623047"/>
      </g>
     </g>
    </g>
    <g id="xtick_2">
     <g id="line2d_3">
      <path d="M 265.603802 448.56 
L 265.603802 60.48 
" clip-path="url(#p434cf3a5a4)" style="fill: none; stroke: #b0b0b0; stroke-width: 0.8; stroke-linecap: square"/>
     </g>
     <g id="line2d_4">
      <g>
       <use xlink:href="#mca306019f0" x="265.603802" y="448.56" style="stroke: #000000; stroke-width: 0.8"/>
      </g>
     </g>
     <g id="text_2">
      <!-- 20 -->
      <g transform="translate(259.241302 463.158437)scale(0.1 -0.1)">
       <defs>
        <path id="DejaVuSans-32" d="M 1228 531 
L 3431 531 
L 3431 0 
L 469 0 
L 469 531 
Q 828 903 1448 1529 
Q 2069 2156 2228 2338 
Q 2531 2678 2651 2914 
Q 2772 3150 2772 3378 
Q 2772 3750 2511 3984 
Q 2250 4219 1831 4219 
Q 1534 4219 1204 4116 
Q 875 4013 500 3803 
L 500 4441 
Q 881 4594 1212 4672 
Q 1544 4750 1819 4750 
Q 2544 4750 2975 4387 
Q 3406 4025 3406 3419 
Q 3406 3131 3298 2873 
Q 3191 2616 2906 2266 
Q 2828 2175 2409 1742 
Q 1991 1309 1228 531 
z
" transform="scale(0.015625)"/>
       </defs>
       <use xlink:href="#DejaVuSans-32"/>
       <use xlink:href="#DejaVuSans-30" x="63.623047"/>
      </g>
     </g>
    </g>
    <g id="xtick_3">
     <g id="line2d_5">
      <path d="M 366.409496 448.56 
L 366.409496 60.48 
" clip-path="url(#p434cf3a5a4)" style="fill: none; stroke: #b0b0b0; stroke-width: 0.8; stroke-linecap: square"/>
     </g>
     <g id="line2d_6">
      <g>
       <use xlink:href="#mca306019f0" x="366.409496" y="448.56" style="stroke: #000000; stroke-width: 0.8"/>
      </g>
     </g>
     <g id="text_3">
      <!-- 30 -->
      <g transform="translate(360.046996 463.158437)scale(0.1 -0.1)">
       <defs>
        <path id="DejaVuSans-33" d="M 2597 2516 
Q 3050 2419 3304 2112 
Q 3559 1806 3559 1356 
Q 3559 666 3084 287 
Q 2609 -91 1734 -91 
Q 1441 -91 1130 -33 
Q 819 25 488 141 
L 488 750 
Q 750 597 1062 519 
Q 1375 441 1716 441 
Q 2309 441 2620 675 
Q 2931 909 2931 1356 
Q 2931 1769 2642 2001 
Q 2353 2234 1838 2234 
L 1294 2234 
L 1294 2753 
L 1863 2753 
Q 2328 2753 2575 2939 
Q 2822 3125 2822 3475 
Q 2822 3834 2567 4026 
Q 2313 4219 1838 4219 
Q 1578 4219 1281 4162 
Q 984 4106 628 3988 
L 628 4550 
Q 988 4650 1302 4700 
Q 1616 4750 1894 4750 
Q 2613 4750 3031 4423 
Q 3450 4097 3450 3541 
Q 3450 3153 3228 2886 
Q 3006 2619 2597 2516 
z
" transform="scale(0.015625)"/>
       </defs>
       <use xlink:href="#DejaVuSans-33"/>
       <use xlink:href="#DejaVuSans-30" x="63.623047"/>
      </g>
     </g>
    </g>
    <g id="xtick_4">
     <g id="line2d_7">
      <path d="M 467.21519 448.56 
L 467.21519 60.48 
" clip-path="url(#p434cf3a5a4)" style="fill: none; stroke: #b0b0b0; stroke-width: 0.8; stroke-linecap: square"/>
     </g>
     <g id="line2d_8">
      <g>
       <use xlink:href="#mca306019f0" x="467.21519" y="448.56" style="stroke: #000000; stroke-width: 0.8"/>
      </g>
     </g>
     <g id="text_4">
      <!-- 40 -->
      <g transform="translate(460.85269 463.158437)scale(0.1 -0.1)">
       <defs>
        <path id="DejaVuSans-34" d="M 2419 4116 
L 825 1625 
L 2419 1625 
L 2419 4116 
z
M 2253 4666 
L 3047 4666 
L 3047 1625 
L 3713 1625 
L 3713 1100 
L 3047 1100 
L 3047 0 
L 2419 0 
L 2419 1100 
L 313 1100 
L 313 1709 
L 2253 4666 
z
" transform="scale(0.015625)"/>
       </defs>
       <use xlink:href="#DejaVuSans-34"/>
       <use xlink:href="#DejaVuSans-30" x="63.623047"/>
      </g>
     </g>
    </g>
    <g id="xtick_5">
     <g id="line2d_9">
      <path d="M 568.020884 448.56 
L 568.020884 60.48 
" clip-path="url(#p434cf3a5a4)" style="fill: none; stroke: #b0b0b0; stroke-width: 0.8; stroke-linecap: square"/>
     </g>
     <g id="line2d_10">
      <g>
       <use xlink:href="#mca306019f0" x="568.020884" y="448.56" style="stroke: #000000; stroke-width: 0.8"/>
      </g>
     </g>
     <g id="text_5">
      <!-- 50 -->
      <g transform="translate(561.658384 463.158437)scale(0.1 -0.1)">
       <defs>
        <path id="DejaVuSans-35" d="M 691 4666 
L 3169 4666 
L 3169 4134 
L 1269 4134 
L 1269 2991 
Q 1406 3038 1543 3061 
Q 1681 3084 1819 3084 
Q 2600 3084 3056 2656 
Q 3513 2228 3513 1497 
Q 3513 744 3044 326 
Q 2575 -91 1722 -91 
Q 1428 -91 1123 -41 
Q 819 9 494 109 
L 494 744 
Q 775 591 1075 516 
Q 1375 441 1709 441 
Q 2250 441 2565 725 
Q 2881 1009 2881 1497 
Q 2881 1984 2565 2268 
Q 2250 2553 1709 2553 
Q 1456 2553 1204 2497 
Q 953 2441 691 2322 
L 691 4666 
z
" transform="scale(0.015625)"/>
       </defs>
       <use xlink:href="#DejaVuSans-35"/>
       <use xlink:href="#DejaVuSans-30" x="63.623047"/>
      </g>
     </g>
    </g>
    <g id="text_6">
     <!-- Time (s) -->
     <g transform="translate(348.671094 476.836563)scale(0.1 -0.1)">
      <defs>
       <path id="DejaVuSans-54" d="M -19 4666 
L 3928 4666 
L 3928 4134 
L 2272 4134 
L 2272 0 
L 1638 0 
L 1638 4134 
L -19 4134 
L -19 4666 
z
" transform="scale(0.015625)"/>
       <path id="DejaVuSans-69" d="M 603 3500 
L 1178 3500 
L 1178 0 
L 603 0 
L 603 3500 
z
M 603 4863 
L 1178 4863 
L 1178 4134 
L 603 4134 
L 603 4863 
z
" transform="scale(0.015625)"/>
       <path id="DejaVuSans-6d" d="M 3328 2828 
Q 3544 3216 3844 3400 
Q 4144 3584 4550 3584 
Q 5097 3584 5394 3201 
Q 5691 2819 5691 2113 
L 5691 0 
L 5113 0 
L 5113 2094 
Q 5113 2597 4934 2840 
Q 4756 3084 4391 3084 
Q 3944 3084 3684 2787 
Q 3425 2491 3425 1978 
L 3425 0 
L 2847 0 
L 2847 2094 
Q 2847 2600 2669 2842 
Q 2491 3084 2119 3084 
Q 1678 3084 1418 2786 
Q 1159 2488 1159 1978 
L 1159 0 
L 581 0 
L 581 3500 
L 1159 3500 
L 1159 2956 
Q 1356 3278 1631 3431 
Q 1906 3584 2284 3584 
Q 2666 3584 2933 3390 
Q 3200 3197 3328 2828 
z
" transform="scale(0.015625)"/>
       <path id="DejaVuSans-65" d="M 3597 1894 
L 3597 1613 
L 953 1613 
Q 991 1019 1311 708 
Q 1631 397 2203 397 
Q 2534 397 2845 478 
Q 3156 559 3463 722 
L 3463 178 
Q 3153 47 2828 -22 
Q 2503 -91 2169 -91 
Q 1331 -91 842 396 
Q 353 884 353 1716 
Q 353 2575 817 3079 
Q 1281 3584 2069 3584 
Q 2775 3584 3186 3129 
Q 3597 2675 3597 1894 
z
M 3022 2063 
Q 3016 2534 2758 2815 
Q 2500 3097 2075 3097 
Q 1594 3097 1305 2825 
Q 1016 2553 972 2059 
L 3022 2063 
z
" transform="scale(0.015625)"/>
       <path id="DejaVuSans-20" transform="scale(0.015625)"/>
       <path id="DejaVuSans-28" d="M 1984 4856 
Q 1566 4138 1362 3434 
Q 1159 2731 1159 2009 
Q 1159 1288 1364 580 
Q 1569 -128 1984 -844 
L 1484 -844 
Q 1016 -109 783 600 
Q 550 1309 550 2009 
Q 550 2706 781 3412 
Q 1013 4119 1484 4856 
L 1984 4856 
z
" transform="scale(0.015625)"/>
       <path id="DejaVuSans-73" d="M 2834 3397 
L 2834 2853 
Q 2591 2978 2328 3040 
Q 2066 3103 1784 3103 
Q 1356 3103 1142 2972 
Q 928 2841 928 2578 
Q 928 2378 1081 2264 
Q 1234 2150 1697 2047 
L 1894 2003 
Q 2506 1872 2764 1633 
Q 3022 1394 3022 966 
Q 3022 478 2636 193 
Q 2250 -91 1575 -91 
Q 1294 -91 989 -36 
Q 684 19 347 128 
L 347 722 
Q 666 556 975 473 
Q 1284 391 1588 391 
Q 1994 391 2212 530 
Q 2431 669 2431 922 
Q 2431 1156 2273 1281 
Q 2116 1406 1581 1522 
L 1381 1569 
Q 847 1681 609 1914 
Q 372 2147 372 2553 
Q 372 3047 722 3315 
Q 1072 3584 1716 3584 
Q 2034 3584 2315 3537 
Q 2597 3491 2834 3397 
z
" transform="scale(0.015625)"/>
       <path id="DejaVuSans-29" d="M 513 4856 
L 1013 4856 
Q 1481 4119 1714 3412 
Q 1947 2706 1947 2009 
Q 1947 1309 1714 600 
Q 1481 -109 1013 -844 
L 513 -844 
Q 928 -128 1133 580 
Q 1338 1288 1338 2009 
Q 1338 2731 1133 3434 
Q 928 4138 513 4856 
z
" transform="scale(0.015625)"/>
      </defs>
      <use xlink:href="#DejaVuSans-54"/>
      <use xlink:href="#DejaVuSans-69" x="57.958984"/>
      <use xlink:href="#DejaVuSans-6d" x="85.742188"/>
      <use xlink:href="#DejaVuSans-65" x="183.154297"/>
      <use xlink:href="#DejaVuSans-20" x="244.677734"/>
      <use xlink:href="#DejaVuSans-28" x="276.464844"/>
      <use xlink:href="#DejaVuSans-73" x="315.478516"/>
      <use xlink:href="#DejaVuSans-29" x="367.578125"/>
     </g>
    </g>
   </g>
   <g id="matplotlib.axis_2">
    <g id="ytick_1">
     <g id="line2d_11">
      <path d="M 90 395.640529 
L 648 395.640529 
" clip-path="url(#p434cf3a5a4)" style="fill: none; stroke: #b0b0b0; stroke-width: 0.8; stroke-linecap: square"/>
     </g>
     <g id="line2d_12">
      <defs>
       <path id="md238bcef9c" d="M 0 0 
L -3.5 0 
" style="stroke: #000000; stroke-width: 0.8"/>
      </defs>
      <g>
       <use xlink:href="#md238bcef9c" x="90" y="395.640529" style="stroke: #000000; stroke-width: 0.8"/>
      </g>
     </g>
     <g id="text_7">
      <!-- 0.6 -->
      <g transform="translate(67.096875 399.439748)scale(0.1 -0.1)">
       <defs>
        <path id="DejaVuSans-2e" d="M 684 794 
L 1344 794 
L 1344 0 
L 684 0 
L 684 794 
z
" transform="scale(0.015625)"/>
        <path id="DejaVuSans-36" d="M 2113 2584 
Q 1688 2584 1439 2293 
Q 1191 2003 1191 1497 
Q 1191 994 1439 701 
Q 1688 409 2113 409 
Q 2538 409 2786 701 
Q 3034 994 3034 1497 
Q 3034 2003 2786 2293 
Q 2538 2584 2113 2584 
z
M 3366 4563 
L 3366 3988 
Q 3128 4100 2886 4159 
Q 2644 4219 2406 4219 
Q 1781 4219 1451 3797 
Q 1122 3375 1075 2522 
Q 1259 2794 1537 2939 
Q 1816 3084 2150 3084 
Q 2853 3084 3261 2657 
Q 3669 2231 3669 1497 
Q 3669 778 3244 343 
Q 2819 -91 2113 -91 
Q 1303 -91 875 529 
Q 447 1150 447 2328 
Q 447 3434 972 4092 
Q 1497 4750 2381 4750 
Q 2619 4750 2861 4703 
Q 3103 4656 3366 4563 
z
" transform="scale(0.015625)"/>
       </defs>
       <use xlink:href="#DejaVuSans-30"/>
       <use xlink:href="#DejaVuSans-2e" x="63.623047"/>
       <use xlink:href="#DejaVuSans-36" x="95.410156"/>
      </g>
     </g>
    </g>
    <g id="ytick_2">
     <g id="line2d_13">
      <path d="M 90 325.080328 
L 648 325.080328 
" clip-path="url(#p434cf3a5a4)" style="fill: none; stroke: #b0b0b0; stroke-width: 0.8; stroke-linecap: square"/>
     </g>
     <g id="line2d_14">
      <g>
       <use xlink:href="#md238bcef9c" x="90" y="325.080328" style="stroke: #000000; stroke-width: 0.8"/>
      </g>
     </g>
     <g id="text_8">
      <!-- 0.8 -->
      <g transform="translate(67.096875 328.879547)scale(0.1 -0.1)">
       <defs>
        <path id="DejaVuSans-38" d="M 2034 2216 
Q 1584 2216 1326 1975 
Q 1069 1734 1069 1313 
Q 1069 891 1326 650 
Q 1584 409 2034 409 
Q 2484 409 2743 651 
Q 3003 894 3003 1313 
Q 3003 1734 2745 1975 
Q 2488 2216 2034 2216 
z
M 1403 2484 
Q 997 2584 770 2862 
Q 544 3141 544 3541 
Q 544 4100 942 4425 
Q 1341 4750 2034 4750 
Q 2731 4750 3128 4425 
Q 3525 4100 3525 3541 
Q 3525 3141 3298 2862 
Q 3072 2584 2669 2484 
Q 3125 2378 3379 2068 
Q 3634 1759 3634 1313 
Q 3634 634 3220 271 
Q 2806 -91 2034 -91 
Q 1263 -91 848 271 
Q 434 634 434 1313 
Q 434 1759 690 2068 
Q 947 2378 1403 2484 
z
M 1172 3481 
Q 1172 3119 1398 2916 
Q 1625 2713 2034 2713 
Q 2441 2713 2670 2916 
Q 2900 3119 2900 3481 
Q 2900 3844 2670 4047 
Q 2441 4250 2034 4250 
Q 1625 4250 1398 4047 
Q 1172 3844 1172 3481 
z
" transform="scale(0.015625)"/>
       </defs>
       <use xlink:href="#DejaVuSans-30"/>
       <use xlink:href="#DejaVuSans-2e" x="63.623047"/>
       <use xlink:href="#DejaVuSans-38" x="95.410156"/>
      </g>
     </g>
    </g>
    <g id="ytick_3">
     <g id="line2d_15">
      <path d="M 90 254.520127 
L 648 254.520127 
" clip-path="url(#p434cf3a5a4)" style="fill: none; stroke: #b0b0b0; stroke-width: 0.8; stroke-linecap: square"/>
     </g>
     <g id="line2d_16">
      <g>
       <use xlink:href="#md238bcef9c" x="90" y="254.520127" style="stroke: #000000; stroke-width: 0.8"/>
      </g>
     </g>
     <g id="text_9">
      <!-- 1.0 -->
      <g transform="translate(67.096875 258.319345)scale(0.1 -0.1)">
       <use xlink:href="#DejaVuSans-31"/>
       <use xlink:href="#DejaVuSans-2e" x="63.623047"/>
       <use xlink:href="#DejaVuSans-30" x="95.410156"/>
      </g>
     </g>
    </g>
    <g id="ytick_4">
     <g id="line2d_17">
      <path d="M 90 183.959925 
L 648 183.959925 
" clip-path="url(#p434cf3a5a4)" style="fill: none; stroke: #b0b0b0; stroke-width: 0.8; stroke-linecap: square"/>
     </g>
     <g id="line2d_18">
      <g>
       <use xlink:href="#md238bcef9c" x="90" y="183.959925" style="stroke: #000000; stroke-width: 0.8"/>
      </g>
     </g>
     <g id="text_10">
      <!-- 1.2 -->
      <g transform="translate(67.096875 187.759144)scale(0.1 -0.1)">
       <use xlink:href="#DejaVuSans-31"/>
       <use xlink:href="#DejaVuSans-2e" x="63.623047"/>
       <use xlink:href="#DejaVuSans-32" x="95.410156"/>
      </g>
     </g>
    </g>
    <g id="ytick_5">
     <g id="line2d_19">
      <path d="M 90 113.399724 
L 648 113.399724 
" clip-path="url(#p434cf3a5a4)" style="fill: none; stroke: #b0b0b0; stroke-width: 0.8; stroke-linecap: square"/>
     </g>
     <g id="line2d_20">
      <g>
       <use xlink:href="#md238bcef9c" x="90" y="113.399724" style="stroke: #000000; stroke-width: 0.8"/>
      </g>
     </g>
     <g id="text_11">
      <!-- 1.4 -->
      <g transform="translate(67.096875 117.198943)scale(0.1 -0.1)">
       <use xlink:href="#DejaVuSans-31"/>
       <use xlink:href="#DejaVuSans-2e" x="63.623047"/>
       <use xlink:href="#DejaVuSans-34" x="95.410156"/>
      </g>
     </g>
    </g>
    <g id="text_12">
     <!-- Position (Z) -->
     <g transform="translate(61.017187 282.899688)rotate(-90)scale(0.1 -0.1)">
      <defs>
       <path id="DejaVuSans-50" d="M 1259 4147 
L 1259 2394 
L 2053 2394 
Q 2494 2394 2734 2622 
Q 2975 2850 2975 3272 
Q 2975 3691 2734 3919 
Q 2494 4147 2053 4147 
L 1259 4147 
z
M 628 4666 
L 2053 4666 
Q 2838 4666 3239 4311 
Q 3641 3956 3641 3272 
Q 3641 2581 3239 2228 
Q 2838 1875 2053 1875 
L 1259 1875 
L 1259 0 
L 628 0 
L 628 4666 
z
" transform="scale(0.015625)"/>
       <path id="DejaVuSans-6f" d="M 1959 3097 
Q 1497 3097 1228 2736 
Q 959 2375 959 1747 
Q 959 1119 1226 758 
Q 1494 397 1959 397 
Q 2419 397 2687 759 
Q 2956 1122 2956 1747 
Q 2956 2369 2687 2733 
Q 2419 3097 1959 3097 
z
M 1959 3584 
Q 2709 3584 3137 3096 
Q 3566 2609 3566 1747 
Q 3566 888 3137 398 
Q 2709 -91 1959 -91 
Q 1206 -91 779 398 
Q 353 888 353 1747 
Q 353 2609 779 3096 
Q 1206 3584 1959 3584 
z
" transform="scale(0.015625)"/>
       <path id="DejaVuSans-74" d="M 1172 4494 
L 1172 3500 
L 2356 3500 
L 2356 3053 
L 1172 3053 
L 1172 1153 
Q 1172 725 1289 603 
Q 1406 481 1766 481 
L 2356 481 
L 2356 0 
L 1766 0 
Q 1100 0 847 248 
Q 594 497 594 1153 
L 594 3053 
L 172 3053 
L 172 3500 
L 594 3500 
L 594 4494 
L 1172 4494 
z
" transform="scale(0.015625)"/>
       <path id="DejaVuSans-6e" d="M 3513 2113 
L 3513 0 
L 2938 0 
L 2938 2094 
Q 2938 2591 2744 2837 
Q 2550 3084 2163 3084 
Q 1697 3084 1428 2787 
Q 1159 2491 1159 1978 
L 1159 0 
L 581 0 
L 581 3500 
L 1159 3500 
L 1159 2956 
Q 1366 3272 1645 3428 
Q 1925 3584 2291 3584 
Q 2894 3584 3203 3211 
Q 3513 2838 3513 2113 
z
" transform="scale(0.015625)"/>
       <path id="DejaVuSans-5a" d="M 359 4666 
L 4025 4666 
L 4025 4184 
L 1075 531 
L 4097 531 
L 4097 0 
L 288 0 
L 288 481 
L 3238 4134 
L 359 4134 
L 359 4666 
z
" transform="scale(0.015625)"/>
      </defs>
      <use xlink:href="#DejaVuSans-50"/>
      <use xlink:href="#DejaVuSans-6f" x="56.677734"/>
      <use xlink:href="#DejaVuSans-73" x="117.859375"/>
      <use xlink:href="#DejaVuSans-69" x="169.958984"/>
      <use xlink:href="#DejaVuSans-74" x="197.742188"/>
      <use xlink:href="#DejaVuSans-69" x="236.951172"/>
      <use xlink:href="#DejaVuSans-6f" x="264.734375"/>
      <use xlink:href="#DejaVuSans-6e" x="325.916016"/>
      <use xlink:href="#DejaVuSans-20" x="389.294922"/>
      <use xlink:href="#DejaVuSans-28" x="421.082031"/>
      <use xlink:href="#DejaVuSans-5a" x="460.095703"/>
      <use xlink:href="#DejaVuSans-29" x="528.601562"/>
     </g>
    </g>
   </g>
   <g id="line2d_21">
    <path d="M 115.363636 257.661292 
L 117.367904 215.674075 
L 117.747468 199.139683 
L 119.040605 187.584815 
L 119.098089 181.134761 
L 119.689363 176.762457 
L 119.916695 164.552297 
L 120.588204 157.831353 
L 121.228074 153.696335 
L 121.536045 147.778599 
L 121.951847 142.340314 
L 122.457531 139.597094 
L 122.836763 139.597094 
L 122.980005 136.35781 
L 123.951726 125.894704 
L 125.633853 118.603212 
L 125.96866 117.41493 
L 126.416134 116.758501 
L 126.981398 116.662401 
L 127.317739 116.984138 
L 127.653733 118.175491 
L 127.989891 118.650485 
L 128.326223 120.502219 
L 128.662275 124.711131 
L 129.35625 125.401121 
L 130.008291 130.744062 
L 130.339181 136.989256 
L 130.713149 136.989256 
L 131.355212 144.752082 
L 131.691788 152.250326 
L 132.270521 157.363089 
L 132.451006 162.776812 
L 132.948557 166.199928 
L 133.493185 182.918027 
L 134.062963 188.510451 
L 134.540325 190.380775 
L 134.719508 200.117932 
L 135.098374 203.098733 
L 135.392372 209.993878 
L 136.049528 218.03487 
L 136.721272 229.277379 
L 138.085323 254.969634 
L 138.421856 272.665519 
L 139.296346 283.167191 
L 139.661066 291.544283 
L 140.191068 297.713773 
L 140.597842 310.873626 
L 141.074988 310.873626 
L 141.537699 319.497572 
L 141.873223 324.208731 
L 142.226782 339.670309 
L 143.05528 346.665781 
L 143.460555 346.665781 
L 143.552874 349.485798 
L 143.713253 350.843739 
L 144.327613 361.234212 
L 145.108774 367.668284 
L 145.30468 367.668284 
L 145.90598 373.250531 
L 146.241321 377.752981 
L 146.706176 381.962166 
L 147.504065 382.672701 
L 147.747942 382.672701 
L 147.770448 383.342945 
L 147.922621 383.342945 
L 148.260692 384.886127 
L 148.658771 385.64345 
L 149.183346 385.635501 
L 149.462717 385.360048 
L 149.700038 384.811728 
L 150.138705 384.0956 
L 151.283356 379.952654 
L 151.617783 378.030285 
L 151.954768 373.733746 
L 152.638294 371.03578 
L 153.660179 356.477485 
L 154.248395 351.572884 
L 154.609674 347.319412 
L 154.967434 337.702833 
L 155.853681 322.981146 
L 156.616739 315.474132 
L 156.985622 315.474132 
L 157.200255 309.686416 
L 158.214324 291.62621 
L 158.92794 272.624135 
L 159.27526 269.437043 
L 159.553486 264.038208 
L 160.560941 233.938111 
L 161.298014 230.723977 
L 161.744306 217.928675 
L 162.153056 214.786543 
L 162.382994 206.34706 
L 162.907164 195.95625 
L 163.452197 190.832469 
L 163.630759 182.77213 
L 164.465853 172.044569 
L 164.685754 171.112667 
L 165.365818 158.318837 
L 165.669694 155.655316 
L 166.008303 150.559334 
L 166.342548 143.471483 
L 166.677524 141.987917 
L 167.020806 137.700106 
L 167.351628 130.114845 
L 167.918224 126.180566 
L 168.743204 116.910496 
L 169.186015 116.910496 
L 169.370701 114.091194 
L 169.701283 114.091194 
L 170.049362 112.08654 
L 170.379868 111.473725 
L 170.721861 110.312485 
L 171.058154 109.895446 
L 171.384073 109.778822 
L 171.731787 109.960887 
L 172.726139 111.242116 
L 173.077803 113.07829 
L 173.827297 119.386106 
L 174.440836 120.613923 
L 174.741049 123.873815 
L 175.096194 131.795659 
L 175.970328 141.356345 
L 176.64298 142.738343 
L 177.14056 154.657594 
L 177.76378 159.55801 
L 178.320954 172.579915 
L 178.816534 175.270269 
L 179.144943 180.726681 
L 179.370959 182.572359 
L 180.369992 200.163732 
L 180.687135 210.430473 
L 181.028157 212.426169 
L 181.359682 222.839437 
L 181.692148 224.92501 
L 183.722382 263.468565 
L 184.037112 266.54063 
L 186.397842 310.171335 
L 186.731327 318.083274 
L 187.652222 333.955835 
L 188.201888 339.464881 
L 189.009246 352.978266 
L 190.227219 362.898246 
L 190.742488 365.848913 
L 190.907197 369.268033 
L 192.323037 375.893487 
L 192.994161 377.997901 
L 193.705903 379.796117 
L 194.338928 379.744408 
L 194.676038 379.583434 
L 195.346297 378.430963 
L 195.679955 377.486401 
L 196.109413 373.523902 
L 196.620981 371.660644 
L 196.972857 369.408862 
L 197.297104 365.877175 
L 197.950471 363.005155 
L 198.100347 360.906019 
L 198.233178 355.594768 
L 198.980019 352.343413 
L 199.104005 349.677852 
L 199.363658 348.346154 
L 199.813208 341.726988 
L 200.050298 336.144763 
L 200.38637 333.702314 
L 200.722653 329.362625 
L 201.06829 321.437585 
L 201.442249 317.738868 
L 202.072919 297.109749 
L 202.746523 291.969207 
L 203.025009 288.862613 
L 203.163637 284.727806 
L 203.411821 272.25155 
L 204.119746 265.883992 
L 204.34505 262.739105 
L 204.454347 259.540195 
L 204.762299 256.294665 
L 205.204639 241.450991 
L 205.982493 230.736888 
L 206.782929 214.576636 
L 207.121548 208.162289 
L 207.444632 205.006067 
L 208.123571 189.539463 
L 208.786678 180.751789 
L 209.128383 172.318445 
L 209.797892 164.290744 
L 210.17882 156.845912 
L 210.802934 150.553825 
L 211.150003 145.309297 
L 211.598121 135.1514 
L 214.173157 115.745344 
L 214.835292 113.338792 
L 215.172114 112.381613 
L 215.507359 111.88925 
L 215.844122 111.791004 
L 216.204689 112.971128 
L 216.704768 112.971128 
L 217.190735 114.545244 
L 217.636103 119.132249 
L 218.254324 119.132249 
L 218.345451 121.085342 
L 218.602162 121.764901 
L 218.875601 124.461522 
L 219.203444 125.332694 
L 219.539756 129.289516 
L 219.929154 136.74688 
L 220.660911 147.213687 
L 221.460866 149.19828 
L 221.801216 153.406562 
L 222.138162 155.540668 
L 222.472667 159.094456 
L 223.479093 173.719664 
L 223.849091 187.238769 
L 224.545258 200.214243 
L 225.099722 206.183163 
L 225.891583 222.038459 
L 226.308274 222.038459 
L 226.563995 228.733327 
L 226.906681 234.390225 
L 228.246102 266.625649 
L 228.582289 270.104112 
L 228.918457 286.898229 
L 229.79833 292.221382 
L 229.926152 302.414144 
L 230.60018 307.478331 
L 230.934694 314.030563 
L 231.272707 325.379434 
L 231.913318 331.842126 
L 232.283056 344.332555 
L 233.261045 349.04752 
L 233.622651 356.613329 
L 235.012005 364.862777 
L 235.629236 370.051768 
L 235.970383 372.877652 
L 236.287727 374.013427 
L 236.960044 380.223649 
L 238.060702 382.751768 
L 238.648534 383.294642 
L 238.991355 383.568581 
L 239.314698 383.57224 
L 239.648404 383.204892 
L 239.984783 382.539169 
L 240.356041 381.124409 
L 240.675654 378.980103 
L 241.03524 373.934422 
L 242.001693 368.528563 
L 243.66467 352.209062 
L 244.004375 345.74944 
L 244.992305 336.123292 
L 245.637569 325.866813 
L 246.196079 309.441159 
L 246.869184 300.910769 
L 247.410351 297.96843 
L 247.766034 283.170766 
L 248.480958 281.137954 
L 248.767039 271.017488 
L 249.104879 267.927381 
L 249.42853 261.675248 
L 249.893078 243.779275 
L 250.567624 231.021279 
L 251.279683 225.714338 
L 251.669013 217.277757 
L 251.953864 207.891693 
L 252.489513 201.730025 
L 252.829507 192.604589 
L 253.183998 189.632031 
L 253.35239 189.632031 
L 254.114497 172.502067 
L 254.4677 168.869632 
L 254.871278 155.137508 
L 255.560187 151.891537 
L 255.74148 149.572379 
L 255.948864 142.868005 
L 256.365305 140.741133 
L 256.81101 136.594045 
L 257.017336 130.775437 
L 257.37302 127.403294 
L 257.823973 125.745107 
L 258.34851 121.380162 
L 259.015558 113.760415 
L 259.586373 111.733849 
L 260.094163 111.352264 
L 260.264996 110.344364 
L 260.590339 110.094166 
L 260.774131 109.769906 
L 261.143889 109.61871 
L 261.49986 109.615177 
L 261.7014 110.362239 
L 262.152392 110.616811 
L 262.371716 111.27265 
L 262.718113 113.685721 
L 263.083775 113.685721 
L 263.714618 117.302385 
L 264.41191 122.096943 
L 264.725582 124.923394 
L 265.059096 133.259333 
L 265.644909 136.926675 
L 266.049449 141.120026 
L 266.536377 150.076223 
L 267.116748 157.388617 
L 267.621077 173.318228 
L 268.528618 173.318228 
L 268.866362 179.001117 
L 269.209029 187.700472 
L 269.540986 200.551541 
L 270.274233 205.698244 
L 270.602902 211.825173 
L 270.882657 214.90935 
L 271.220805 224.232875 
L 271.55455 227.380727 
L 272.564803 248.119784 
L 272.901509 258.523379 
L 273.570576 264.750215 
L 274.244699 276.255202 
L 274.590192 286.584693 
L 274.929051 289.696964 
L 276.263993 316.388287 
L 276.598161 324.824427 
L 277.424564 338.495779 
L 278.281557 345.957728 
L 278.611956 350.711448 
L 278.970773 359.433977 
L 279.520786 366.94406 
L 280.19837 370.209861 
L 280.626943 374.410909 
L 280.963111 375.637758 
L 281.971902 381.396203 
L 282.642969 384.32172 
L 282.985078 384.32172 
L 283.31715 384.980798 
L 283.652299 385.065648 
L 284.323134 384.228479 
L 284.66705 383.153393 
L 285.000988 381.390588 
L 285.527389 379.87018 
L 285.756365 379.87018 
L 286.013009 379.019427 
L 286.340967 375.93813 
L 286.79417 366.595343 
L 287.640646 364.899641 
L 287.845608 359.66895 
L 288.324537 357.777513 
L 288.520769 351.606908 
L 289.178588 349.497847 
L 289.516929 345.167095 
L 289.879476 335.771127 
L 290.233044 330.762855 
L 290.641717 327.250515 
L 290.861522 317.367167 
L 291.428301 310.840864 
L 291.840377 302.089127 
L 292.280506 297.252154 
L 292.791564 288.130251 
L 293.081221 275.676874 
L 294.078957 266.070557 
L 294.400377 263.921016 
L 294.738064 253.176737 
L 295.072866 249.95743 
L 295.408534 243.560158 
L 295.746971 233.918134 
L 296.088868 227.571625 
L 296.416403 213.982831 
L 296.992948 208.737084 
L 298.134869 187.488588 
L 298.432909 187.488588 
L 298.768557 181.77996 
L 299.45389 166.334175 
L 300.793139 149.011336 
L 301.124634 147.148877 
L 302.498588 132.638821 
L 302.850907 131.344765 
L 303.136795 128.941072 
L 303.474847 127.625819 
L 303.811861 122.169996 
L 304.592387 119.765546 
L 304.974643 119.005153 
L 305.267934 118.051801 
L 305.573472 116.350841 
L 306.337137 115.837534 
L 307.013337 116.035875 
L 307.371539 116.279849 
L 307.44241 117.673034 
L 307.966773 117.673034 
L 308.021955 118.347589 
L 308.356777 119.139651 
L 308.70102 121.021289 
L 309.037418 124.554384 
L 309.379066 125.971374 
L 309.720521 136.15829 
L 310.283742 138.098808 
L 310.540809 142.138692 
L 310.865056 144.28836 
L 311.071248 148.835537 
L 311.724376 156.088126 
L 312.062889 158.661898 
L 312.734301 173.013608 
L 313.065182 176.02406 
L 313.44488 185.489191 
L 313.739344 188.678638 
L 314.069993 195.137902 
L 314.765978 211.332052 
L 315.079284 214.557121 
L 315.413491 220.996114 
L 316.123531 236.832653 
L 316.437068 239.987991 
L 316.837743 249.339442 
L 317.100405 258.894155 
L 317.437188 265.244302 
L 317.802889 274.893476 
L 318.280645 278.233235 
L 318.450132 284.689997 
L 318.779282 284.689997 
L 319.116411 291.34468 
L 319.448234 304.250465 
L 319.810281 310.67846 
L 320.128625 310.67846 
L 320.469234 316.855395 
L 321.295964 339.831472 
L 321.78093 339.831472 
L 321.963146 347.008526 
L 322.343805 357.587247 
L 323.803589 367.910807 
L 324.071808 367.910807 
L 324.211628 372.349141 
L 324.641566 377.329781 
L 325.240839 377.329781 
L 325.510288 379.354707 
L 325.897677 381.342433 
L 326.182181 382.215708 
L 326.515907 383.814931 
L 326.852671 386.092368 
L 327.191684 386.092368 
L 327.526486 387.127879 
L 327.86475 387.506624 
L 328.532259 387.418346 
L 329.228398 385.844757 
L 329.556702 384.11175 
L 330.212309 382.680292 
L 330.890567 375.438134 
L 331.338348 374.208256 
L 332.287401 365.313609 
L 332.582691 361.697535 
L 332.931741 359.853476 
L 333.323379 355.956859 
L 333.628918 349.693076 
L 334.025959 345.178409 
L 334.279757 338.187353 
L 334.720155 338.187353 
L 334.946555 331.553677 
L 335.27632 328.111362 
L 335.59228 311.754303 
L 337.059005 300.241955 
L 339.076549 263.002277 
L 339.766804 247.148306 
L 340.085918 243.991664 
L 341.090825 225.487945 
L 341.429146 216.461512 
L 341.76416 213.483739 
L 342.440379 201.764638 
L 342.792948 190.497273 
L 343.107485 190.497273 
L 343.476089 182.45401 
L 343.77884 179.805629 
L 344.114815 174.736648 
L 344.45329 167.249549 
L 344.789131 164.885263 
L 346.469739 143.390229 
L 346.807617 139.701732 
L 347.143401 134.556544 
L 347.559938 129.966594 
L 347.818428 128.505486 
L 348.152423 123.615963 
L 348.653156 119.948495 
L 349.281326 119.165937 
L 349.526242 118.389688 
L 349.704862 116.565753 
L 350.8354 116.167682 
L 351.171914 116.619713 
L 351.5121 117.483525 
L 351.849171 119.426061 
L 352.401241 120.272713 
L 352.531505 123.880797 
L 353.566887 129.353148 
L 354.576909 137.255982 
L 354.913365 144.381011 
L 355.389064 148.23576 
L 355.756765 150.186371 
L 355.921003 152.242672 
L 356.257248 159.380907 
L 356.768652 165.371486 
L 357.107319 171.020814 
L 357.495438 173.612292 
L 357.676539 177.962768 
L 357.959024 180.609636 
L 358.273734 188.918195 
L 358.609518 191.800624 
L 359.454051 205.755568 
L 359.619174 216.196089 
L 360.099853 219.339483 
L 360.682167 229.135184 
L 361.478768 248.790007 
L 361.77477 252.056629 
L 362.978928 274.415496 
L 363.314 277.584377 
L 363.65036 286.917407 
L 363.988566 289.904432 
L 364.658228 310.44048 
L 365.199761 316.077295 
L 365.470211 321.576857 
L 365.712127 321.576857 
L 366.005072 329.746439 
L 366.381347 331.488362 
L 366.674638 342.599085 
L 367.087465 345.010033 
L 367.3498 347.455762 
L 368.018982 356.663146 
L 368.367167 371.940787 
L 369.446907 373.542407 
L 369.860387 377.708106 
L 370.206706 378.563023 
L 370.45689 382.061442 
L 371.003037 385.344319 
L 371.579641 386.916731 
L 371.934286 386.916731 
L 372.127461 387.230961 
L 372.232364 387.646338 
L 372.472742 387.883772 
L 372.812313 388.018208 
L 373.156556 387.858937 
L 373.818182 386.933448 
L 374.152504 385.455854 
L 374.489864 384.852229 
L 374.824897 383.547427 
L 376.551573 371.167797 
L 376.845825 366.354566 
L 377.178321 366.354566 
L 378.186112 354.503406 
L 378.526779 345.340371 
L 378.874195 345.340371 
L 379.534071 333.133512 
L 380.873416 310.609865 
L 381.2236 308.720657 
L 381.616276 300.059343 
L 381.882303 297.07093 
L 384.235458 253.784505 
L 384.570106 247.468277 
L 384.907216 237.728008 
L 385.241653 233.420345 
L 385.991878 213.013666 
L 386.801399 204.294292 
L 386.928106 204.294292 
L 387.262236 193.355478 
L 387.932764 185.509547 
L 388.304348 180.434257 
L 388.612944 172.908634 
L 388.978837 170.474281 
L 389.273512 165.698355 
L 389.609603 163.35779 
L 389.951077 156.795695 
L 390.292167 152.692095 
L 391.103284 141.27488 
L 391.588154 138.02117 
L 391.783579 138.02117 
L 392.63392 129.736667 
L 392.979355 128.687383 
L 393.642653 125.183307 
L 394.315681 122.847957 
L 395.006359 121.650085 
L 395.336912 121.583383 
L 395.738222 122.407535 
L 396.354068 122.407535 
L 396.670277 123.038182 
L 397.339037 125.484815 
L 398.011526 128.929885 
L 398.346694 131.072318 
L 398.693705 134.201497 
L 399.017952 135.921803 
L 400.026186 144.910553 
L 401.038188 156.360488 
L 401.370357 160.871833 
L 401.707793 168.151801 
L 402.045999 170.762204 
L 402.378629 176.150357 
L 402.722488 184.807907 
L 403.7233 200.43559 
L 404.062428 213.823813 
L 404.75303 224.107839 
L 405.128921 238.131504 
L 406.56815 262.284593 
L 407.176959 278.67105 
L 407.591343 281.885541 
L 407.888441 294.221431 
L 408.808422 302.991821 
L 409.819771 319.515279 
L 410.15267 322.230005 
L 410.488645 329.934308 
L 410.831389 334.853797 
L 411.182361 341.914984 
L 411.504724 344.917738 
L 411.833201 350.596149 
L 412.195133 352.684139 
L 412.504805 356.653031 
L 412.844395 362.947999 
L 413.251857 364.076813 
L 414.211139 376.412472 
L 414.64898 378.958444 
L 415.200069 383.553188 
L 415.705628 386.468338 
L 416.202611 387.600117 
L 416.55143 390.081048 
L 416.963815 390.567397 
L 417.212114 391.560388 
L 417.890294 391.798536 
L 418.224386 391.554226 
L 418.742711 390.52166 
L 419.227044 388.730698 
L 419.684304 387.997684 
L 419.858156 387.154795 
L 420.152754 384.098691 
L 420.762063 381.579236 
L 420.91415 378.902929 
L 421.490388 375.818267 
L 421.581332 372.036088 
L 422.018596 370.828438 
L 422.256552 365.27008 
L 422.589066 361.200083 
L 422.989145 359.100905 
L 423.265439 357.016216 
L 423.932853 347.877742 
L 424.33993 335.536911 
L 424.694863 335.536911 
L 424.968081 330.309542 
L 425.285637 319.307979 
L 425.755357 313.61815 
L 426.128364 304.849485 
L 426.62081 304.849485 
L 427.294798 289.681004 
L 427.62889 286.563475 
L 428.30284 274.012967 
L 429.014899 254.891092 
L 429.647318 248.536529 
L 429.981486 238.957675 
L 430.317347 235.822566 
L 430.991028 223.266318 
L 431.667708 207.752105 
L 432.074632 202.719209 
L 432.341159 189.891272 
L 432.806418 186.085351 
L 433.12505 181.270059 
L 433.366928 175.672798 
L 434.022843 167.54357 
L 434.354204 159.766024 
L 434.68545 157.329148 
L 435.02154 146.498758 
L 436.551292 132.777231 
L 436.88023 132.777231 
L 437.373407 128.21403 
L 438.382717 119.871446 
L 438.717462 119.275706 
L 439.408525 117.15897 
L 440.064902 116.45548 
L 440.73443 116.351094 
L 441.073943 117.026321 
L 441.446488 118.389688 
L 441.741818 120.290714 
L 442.307481 121.114782 
L 442.424805 123.892321 
L 442.910444 126.986466 
L 443.58751 130.036282 
L 444.115372 134.538922 
L 444.430159 136.159174 
L 444.765827 145.212481 
L 445.244199 145.212481 
L 445.437816 147.172177 
L 445.774099 155.645222 
L 446.255163 160.203839 
L 446.447742 160.203839 
L 447.119039 169.89036 
L 447.544767 185.565903 
L 448.168496 191.149454 
L 448.510393 202.720345 
L 449.206686 205.707538 
L 449.618301 214.921589 
L 449.887789 217.976999 
L 450.557201 230.642176 
L 450.892062 243.703278 
L 451.427269 250.277569 
L 451.595353 255.760476 
L 452.240347 263.34069 
L 452.576976 270.986282 
L 452.907722 286.118952 
L 453.430431 286.118952 
L 453.590555 289.301185 
L 453.920185 298.705418 
L 454.24947 301.801372 
L 454.982178 316.750483 
L 455.712426 333.083906 
L 456.328618 338.016285 
L 456.612103 341.213807 
L 456.96396 349.393629 
L 457.372691 349.393629 
L 457.950429 357.547545 
L 458.680638 364.93949 
L 459.068488 371.46838 
L 459.366202 371.46838 
L 460.304064 382.256146 
L 460.849346 382.896844 
L 460.972785 384.675189 
L 461.645389 387.445473 
L 462.01805 388.335802 
L 462.653123 389.144225 
L 463.841554 387.240907 
L 464.293469 384.361001 
L 464.965843 384.361001 
L 465.978422 374.986924 
L 466.311936 374.000052 
L 466.647527 368.750835 
L 466.983926 366.471863 
L 467.324746 357.826405 
L 467.952244 357.050766 
L 468.37801 349.38055 
L 468.584625 349.38055 
L 468.662995 344.839155 
L 468.999932 340.02176 
L 469.336561 327.007656 
L 470.167021 309.734193 
L 471.176523 309.734193 
L 471.520997 294.406357 
L 472.012559 284.88796 
L 472.478087 281.67841 
L 472.859631 272.07573 
L 473.195991 268.904831 
L 473.532543 262.527305 
L 474.204955 243.655375 
L 474.756544 237.577443 
L 475.081483 224.587081 
L 475.768469 218.577491 
L 476.213116 207.886183 
L 476.698141 205.059438 
L 477.044768 199.517019 
L 477.390819 182.946121 
L 478.177171 175.319644 
L 478.743257 172.76299 
L 479.082116 170.215335 
L 479.44301 163.031468 
L 479.783562 158.619672 
L 480.113461 150.30901 
L 480.60733 148.34473 
L 480.774376 146.520795 
L 481.137346 139.830763 
L 481.943772 133.977038 
L 482.442909 131.584028 
L 482.926972 128.174706 
L 483.140086 125.147937 
L 484.532093 121.275482 
L 484.945093 120.849906 
L 485.187624 120.849906 
L 485.505911 121.108852 
L 485.806623 121.663207 
L 486.713453 124.749614 
L 486.892574 124.749614 
L 487.146641 128.197291 
L 487.51338 129.773383 
L 487.890386 134.619083 
L 488.412404 139.592552 
L 488.921808 141.432258 
L 489.497315 149.495751 
L 489.833829 153.549388 
L 490.170112 162.277846 
L 490.730199 164.523698 
L 491.025913 176.193886 
L 491.639759 180.412051 
L 492.177658 191.777619 
L 492.828344 197.246816 
L 493.193045 205.481986 
L 494.184205 219.840215 
L 494.345944 225.810229 
L 494.861232 237.983084 
L 495.343218 237.983084 
L 495.534451 247.269641 
L 495.885347 253.443632 
L 496.251048 256.577752 
L 498.396722 300.996923 
L 498.882285 306.060921 
L 499.006992 311.957166 
L 499.30409 311.957166 
L 499.575078 317.72419 
L 499.89471 320.671367 
L 500.914595 342.039872 
L 501.628231 353.867922 
L 502.194701 358.176257 
L 502.452768 363.532446 
L 503.285343 371.495275 
L 503.564598 376.365536 
L 504.483579 381.994424 
L 504.823823 385.737847 
L 505.439631 387.884024 
L 505.788796 391.558285 
L 506.323696 392.339623 
L 506.628677 393.98309 
L 507.470442 395.394087 
L 507.7765 395.205397 
L 508.781503 393.544013 
L 510.276107 386.51826 
L 510.475301 381.124135 
L 511.24208 379.646899 
L 511.682382 374.605907 
L 512.015166 371.013153 
L 512.688155 358.502263 
L 513.106345 358.502263 
L 513.393868 351.536105 
L 513.751994 346.672069 
L 514.054898 338.924993 
L 514.531309 336.249948 
L 514.757189 333.522268 
L 515.422911 316.636803 
L 515.90582 310.596743 
L 516.119011 310.596743 
L 516.384884 301.353968 
L 516.76712 295.089975 
L 517.119246 291.884021 
L 517.406231 282.332083 
L 517.814462 275.864323 
L 518.076566 269.327169 
L 518.401467 266.095224 
L 522.435018 190.620374 
L 522.789682 184.97008 
L 523.244712 174.248953 
L 523.498664 174.248953 
L 524.113626 161.674157 
L 525.714402 140.688561 
L 526.282257 137.278945 
L 526.504215 135.619538 
L 527.164514 128.465574 
L 527.682571 124.056806 
L 528.171133 120.911856 
L 528.849121 119.911695 
L 529.293499 118.90186 
L 529.604826 118.676897 
L 529.868315 118.680135 
L 530.196215 119.346699 
L 530.809792 119.981131 
L 531.162149 121.215382 
L 531.475359 121.80494 
L 531.637406 122.811956 
L 531.999838 124.189328 
L 532.238831 129.529031 
L 533.020646 130.897739 
L 533.122665 136.89488 
L 533.855643 142.072957 
L 534.352281 144.02647 
L 535.362283 156.59277 
L 536.136061 168.635416 
L 536.370825 173.885411 
L 536.708223 173.885411 
L 537.457852 187.774619 
L 538.054163 199.406619 
L 538.723768 209.488056 
L 539.058628 221.009657 
L 539.417215 225.245023 
L 539.731117 230.647937 
L 540.140925 240.452512 
L 540.404837 242.68007 
L 540.738582 247.053846 
L 541.747431 266.788999 
L 542.419728 286.13956 
L 543.180201 298.65148 
L 543.427039 300.733057 
L 543.764129 310.812012 
L 544.43858 322.580488 
L 544.805357 331.222687 
L 545.866312 350.109379 
L 546.597328 356.830218 
L 546.941033 366.746454 
L 547.628673 370.902101 
L 547.95392 376.658338 
L 548.737773 381.668965 
L 548.882938 381.668965 
L 548.964653 383.267936 
L 549.305589 387.172333 
L 549.970272 391.196972 
L 550.322052 394.038248 
L 550.684215 394.735177 
L 550.969085 396.39654 
L 551.304676 397.289666 
L 551.898295 397.32247 
L 552.182319 396.722862 
L 552.661459 396.389411 
L 552.748751 396.033713 
L 552.99309 395.618567 
L 554.000054 392.120252 
L 555.338303 381.634688 
L 555.681546 380.142605 
L 556.010523 375.149453 
L 556.345999 373.359837 
L 557.022795 365.713236 
L 557.712358 348.767924 
L 558.355122 343.243191 
L 559.316287 330.591746 
L 560.38551 314.348935 
L 561.771134 290.846197 
L 562.071962 287.747741 
L 562.393902 275.412335 
L 562.839126 265.972206 
L 563.255202 265.972206 
L 563.401828 262.827677 
L 563.844899 247.082571 
L 564.231519 247.082571 
L 564.77134 222.076142 
L 565.719393 211.943732 
L 566.155042 204.007714 
L 566.632376 198.27566 
L 566.828839 189.75753 
L 567.428572 182.412626 
L 567.950051 182.412626 
L 567.977354 176.962523 
L 568.574626 168.55761 
L 568.845037 166.817664 
L 569.517911 156.908703 
L 570.52676 144.554287 
L 571.677121 134.131346 
L 571.871354 132.908828 
L 572.20879 129.690867 
L 572.54938 128.950367 
L 572.984222 125.495077 
L 573.530312 123.818805 
L 574.108395 123.443318 
L 574.539276 123.351423 
L 575.349393 123.884792 
L 576.005347 126.136995 
L 576.868916 130.11657 
L 577.160707 133.311904 
L 577.683801 134.48307 
L 577.813546 138.214297 
L 579.029933 145.962613 
L 579.408093 151.40565 
L 580.039359 155.287988 
L 581.048554 168.756036 
L 581.720313 178.874315 
L 582.39484 192.317801 
L 582.72897 195.133234 
L 584.072833 219.061569 
L 584.56128 232.816447 
L 584.929633 247.024322 
L 585.570206 253.784168 
L 585.855114 258.297553 
L 586.03458 265.172553 
L 586.778594 286.073572 
L 587.336105 286.073572 
L 587.453352 289.497529 
L 587.788328 292.855983 
L 588.461201 309.10977 
L 589.204062 322.052482 
L 589.468512 334.676905 
L 590.202874 344.621341 
L 590.982767 357.747674 
L 591.87706 359.824204 
L 592.328476 365.214607 
L 593.013155 371.438687 
L 593.6728 377.053549 
L 594.345097 381.852607 
L 594.67988 384.97001 
L 595.018701 385.925507 
L 595.37325 389.914102 
L 595.888115 389.914102 
L 596.115765 390.520503 
L 596.371024 391.581605 
L 597.116923 392.793146 
L 597.486815 392.744885 
L 598.318313 391.446265 
L 598.726621 389.715025 
L 599.076132 388.970634 
L 599.740546 386.132743 
L 600.207804 380.152615 
L 600.871718 376.276354 
L 602.729177 354.556902 
L 602.984937 349.966111 
L 603.325181 349.148142 
L 604.163831 328.917556 
L 604.672928 328.917556 
L 604.776677 326.157702 
L 606.792991 289.959653 
L 607.128774 283.616298 
L 607.464788 269.709216 
L 608.119204 264.272971 
L 608.271906 264.272971 
L 608.81142 251.167078 
L 609.817539 231.419224 
L 610.156552 221.654183 
L 611.500608 199.949535 
L 612.842548 177.780535 
L 613.543301 167.971964 
L 613.891659 159.068675 
L 614.492392 155.612081 
L 614.695777 152.985107 
L 614.949499 145.644577 
L 615.503279 143.856348 
L 615.684169 142.305323 
L 617.125667 125.91548 
L 618.338401 123.067454 
L 618.691489 121.855198 
L 619.353749 120.834555 
L 619.875036 120.804106 
L 620.211319 121.206761 
L 620.574212 122.222778 
L 621.319842 123.580635 
L 621.500884 127.546835 
L 622.130689 128.615802 
L 622.353455 131.071057 
L 622.636364 132.403343 
L 622.636364 132.403343 
" clip-path="url(#p434cf3a5a4)" style="fill: none; stroke-dasharray: 12.8,3.2,2,3.2; stroke-dashoffset: 0; stroke: #ff0000; stroke-width: 2"/>
   </g>
   <g id="line2d_22">
    <path d="M 115.363636 261.496557 
L 117.367904 222.414228 
L 117.747468 212.9582 
L 118.678557 199.413854 
L 119.916695 176.204263 
L 120.588204 165.166826 
L 121.228074 160.123244 
L 121.536045 153.138688 
L 121.951847 149.446082 
L 122.457531 142.31673 
L 122.870117 142.31673 
L 122.980005 138.99215 
L 123.279127 134.968926 
L 124.562842 124.973508 
L 124.842785 124.973508 
L 125.086898 122.313795 
L 125.96866 117.941657 
L 126.416134 117.288922 
L 126.643779 116.641958 
L 126.981398 116.497098 
L 127.317739 116.615149 
L 127.989891 118.240733 
L 128.662275 120.661756 
L 129.251414 122.43843 
L 129.35625 124.607429 
L 131.018482 140.163319 
L 131.355212 141.633364 
L 131.691788 145.758485 
L 132.270521 149.883049 
L 132.451006 156.082179 
L 132.948557 159.518158 
L 133.177773 164.803816 
L 133.493185 175.304154 
L 134.062963 180.238236 
L 134.540325 186.282014 
L 134.719508 192.784758 
L 135.392372 205.726266 
L 135.832857 210.032486 
L 136.049528 210.032486 
L 136.721272 223.268362 
L 137.058035 229.321004 
L 137.41243 240.325544 
L 139.296346 270.214579 
L 139.661066 283.868551 
L 141.074988 302.916533 
L 141.20095 310.170234 
L 141.537699 314.72704 
L 142.226782 325.838662 
L 143.460555 346.045254 
L 143.713253 346.045254 
L 143.893147 350.760442 
L 144.327613 354.201414 
L 145.108774 365.722027 
L 145.30468 365.722027 
L 145.90598 371.575188 
L 146.241321 373.712291 
L 146.706176 378.444317 
L 147.504065 381.998319 
L 147.770448 381.998319 
L 147.922621 383.326401 
L 148.260692 384.381446 
L 149.183346 385.914696 
L 149.462717 385.914696 
L 150.138705 385.493738 
L 150.850033 382.620044 
L 151.074203 382.620044 
L 151.283356 381.015793 
L 151.617783 379.458084 
L 151.954768 377.22471 
L 152.459846 375.125565 
L 152.638294 372.386437 
L 153.125914 369.450753 
L 153.660179 363.952034 
L 155.853681 335.529748 
L 156.985622 318.042834 
L 157.200255 318.042834 
L 157.541796 310.757077 
L 157.881271 299.266784 
L 158.214324 299.266784 
L 158.544435 285.618337 
L 159.27526 272.713438 
L 159.553486 272.713438 
L 159.951258 261.756064 
L 160.560941 255.416856 
L 161.298014 234.547863 
L 161.744306 229.852711 
L 162.153056 223.472841 
L 162.382994 215.796828 
L 162.907164 205.390108 
L 163.452197 197.274313 
L 163.630759 191.016509 
L 164.206305 184.190929 
L 164.685754 172.893229 
L 164.91995 172.893229 
L 165.080612 166.673872 
L 165.365818 161.54294 
L 165.669694 161.54294 
L 166.008303 150.57153 
L 166.342548 150.57153 
L 166.677524 146.175067 
L 167.020806 137.560063 
L 167.351628 133.655598 
L 168.161101 128.266026 
L 168.366457 124.093846 
L 168.743204 120.654997 
L 169.186015 117.973827 
L 169.370701 115.769554 
L 169.701283 115.769554 
L 170.049362 112.799234 
L 170.379868 112.799234 
L 170.721861 110.804915 
L 171.058154 110.031455 
L 171.384073 110.031455 
L 171.731787 109.5888 
L 172.068041 109.789009 
L 172.529906 110.198181 
L 172.726139 110.198181 
L 173.401945 113.419258 
L 173.827297 114.805666 
L 175.096194 123.873824 
L 175.970328 133.020392 
L 176.64298 137.498933 
L 176.778551 142.209709 
L 177.14056 145.825909 
L 177.76378 150.08249 
L 178.320954 165.401049 
L 178.816534 170.122134 
L 178.947375 170.122134 
L 179.144943 176.960999 
L 179.370959 176.960999 
L 179.735419 182.48688 
L 180.117174 194.927164 
L 180.369992 194.927164 
L 181.028157 204.488255 
L 181.359682 217.149624 
L 181.692148 217.149624 
L 182.730549 238.154427 
L 186.07273 299.093216 
L 187.652222 323.604208 
L 188.201888 334.998704 
L 189.632167 353.296882 
L 190.227219 360.5284 
L 190.742488 362.798002 
L 190.907197 365.983267 
L 191.295297 368.964028 
L 191.510449 368.964028 
L 191.805134 372.846772 
L 192.117518 372.846772 
L 192.323037 374.982232 
L 192.994161 377.845072 
L 193.705903 379.365628 
L 194.004491 379.865087 
L 194.338928 380.034424 
L 194.676038 380.018504 
L 195.011167 379.732307 
L 195.679955 378.104057 
L 196.109413 375.633994 
L 196.620981 373.860784 
L 197.297104 369.596928 
L 197.950471 364.811286 
L 198.233178 364.811286 
L 198.980019 355.5578 
L 199.104005 355.5578 
L 199.653709 345.913791 
L 199.813208 345.913791 
L 200.38637 336.62538 
L 201.442249 321.538882 
L 202.746523 299.349177 
L 203.025009 292.481464 
L 203.163637 292.481464 
L 203.411821 285.348403 
L 204.119746 273.25614 
L 204.34505 273.25614 
L 204.454347 266.368352 
L 204.762299 259.889671 
L 205.204639 253.449261 
L 205.734991 242.717859 
L 205.982493 242.717859 
L 206.286503 228.274559 
L 206.479582 228.274559 
L 207.444632 208.229338 
L 208.123571 195.835801 
L 209.797892 167.02278 
L 210.17882 162.254604 
L 210.802934 151.957048 
L 212.086068 135.518426 
L 212.39501 131.569333 
L 212.841003 129.053179 
L 213.495804 122.078439 
L 214.173157 117.198283 
L 215.172114 112.778624 
L 215.507359 112.055237 
L 215.844122 111.753109 
L 216.204689 111.743975 
L 216.704768 112.20855 
L 217.636103 115.966484 
L 218.345451 117.63015 
L 220.660911 135.084071 
L 221.460866 142.304752 
L 223.479093 168.902515 
L 223.849091 183.386486 
L 224.545258 187.741398 
L 225.099722 193.943611 
L 225.443571 199.850826 
L 225.891583 212.127012 
L 226.308274 215.890258 
L 227.242752 238.51263 
L 228.918457 272.724609 
L 229.460547 279.390113 
L 229.79833 286.614584 
L 229.926152 292.620258 
L 231.272707 317.079057 
L 232.283056 331.723946 
L 233.261045 339.679016 
L 233.622651 348.936091 
L 234.187468 353.023769 
L 234.755957 359.229797 
L 234.89122 359.229797 
L 235.012005 363.145294 
L 235.629236 369.113217 
L 235.970383 369.113217 
L 236.287727 371.7693 
L 236.656774 376.246264 
L 236.960044 378.129065 
L 237.577966 379.601506 
L 238.29635 382.848348 
L 238.648534 382.848348 
L 238.991355 383.45708 
L 239.314698 383.744996 
L 239.648404 383.713301 
L 239.984783 383.38726 
L 240.356041 381.640633 
L 240.675654 381.640633 
L 242.640593 367.728487 
L 243.105871 363.90391 
L 244.004375 352.324593 
L 244.623394 349.511247 
L 244.992305 339.485666 
L 245.313495 339.485666 
L 245.637569 332.520087 
L 246.196079 323.155934 
L 246.869184 309.943618 
L 247.410351 304.031648 
L 247.766034 294.06056 
L 248.366076 283.339547 
L 248.767039 283.339547 
L 249.104879 269.207284 
L 249.42853 269.207284 
L 249.893078 258.307645 
L 250.567624 239.751803 
L 251.279683 234.586625 
L 253.183998 195.837645 
L 253.35239 195.837645 
L 253.730492 189.754042 
L 254.114497 179.329739 
L 254.4677 173.026899 
L 254.871278 168.457529 
L 255.560187 156.42719 
L 255.74148 156.42719 
L 255.948864 150.366506 
L 256.552404 141.572323 
L 256.81101 141.572323 
L 257.017336 134.737959 
L 257.37302 134.737959 
L 257.823973 129.750591 
L 258.012265 125.864122 
L 258.676813 120.441675 
L 259.015558 118.44003 
L 259.586373 112.914584 
L 260.094163 112.914584 
L 260.264996 111.622337 
L 260.590339 110.401177 
L 260.774131 110.401177 
L 261.143889 109.449782 
L 261.7014 109.388276 
L 262.152392 109.8615 
L 262.371716 110.358349 
L 262.718113 112.426707 
L 263.083775 112.426707 
L 264.064725 117.706922 
L 264.725582 122.32793 
L 265.059096 128.287734 
L 266.049449 135.515671 
L 266.536377 142.38429 
L 267.116748 145.977474 
L 267.621077 157.097624 
L 268.528618 164.584883 
L 269.209029 180.651457 
L 269.540986 187.144047 
L 270.602902 204.864733 
L 271.220805 217.867987 
L 272.564803 242.787033 
L 272.901509 247.211487 
L 274.244699 273.783684 
L 274.590192 283.699148 
L 274.929051 283.699148 
L 275.588889 298.491436 
L 277.713606 338.291744 
L 277.990861 338.291744 
L 278.611956 348.611876 
L 280.19837 367.703874 
L 280.336344 367.703874 
L 280.626943 371.586758 
L 280.963111 373.729102 
L 281.312353 376.735111 
L 281.639946 378.296204 
L 282.306955 382.250128 
L 282.642969 383.438168 
L 283.652299 385.092986 
L 283.986909 385.217443 
L 284.323134 385.154988 
L 284.66705 384.567281 
L 285.000988 383.181598 
L 285.527389 382.064148 
L 285.756365 382.064148 
L 286.79417 374.737271 
L 287.640646 370.645769 
L 287.845608 366.021847 
L 288.324537 363.141885 
L 288.520769 358.529103 
L 289.178588 351.562441 
L 289.516929 346.041872 
L 289.879476 342.367399 
L 290.641717 331.539997 
L 290.861522 325.873503 
L 292.280506 304.127947 
L 292.791564 299.575991 
L 293.081221 287.380665 
L 293.726677 281.682557 
L 295.072866 253.153836 
L 296.088868 233.766995 
L 296.416403 229.40289 
L 297.336711 208.952379 
L 297.584453 205.053805 
L 297.779185 205.053805 
L 298.768557 185.258605 
L 299.10486 179.174432 
L 299.45389 170.100594 
L 299.798518 170.100594 
L 300.130206 165.795097 
L 300.793139 155.149194 
L 302.151826 140.001177 
L 302.850907 135.047666 
L 303.811861 124.962694 
L 304.592387 121.988832 
L 305.267934 118.716392 
L 305.573472 117.821604 
L 306.337137 116.302738 
L 307.013337 115.658416 
L 307.44241 115.721014 
L 307.966773 116.125098 
L 308.021955 117.212716 
L 308.70102 120.551101 
L 309.037418 122.633734 
L 309.720521 128.626999 
L 310.540809 138.432716 
L 310.865056 138.432716 
L 311.071248 143.455614 
L 311.724376 153.255236 
L 312.734301 169.678949 
L 314.765978 208.162862 
L 315.784517 227.414632 
L 317.437188 257.47072 
L 317.802889 268.027351 
L 318.280645 268.027351 
L 318.450132 276.784439 
L 319.448234 297.713607 
L 319.810281 304.26592 
L 320.128625 306.78981 
L 320.802575 322.669662 
L 321.295964 329.038558 
L 321.78093 336.901126 
L 321.963146 336.901126 
L 322.343805 343.804641 
L 323.152596 356.349303 
L 323.803589 363.579565 
L 324.071808 363.579565 
L 324.211628 367.682351 
L 326.182181 382.480877 
L 326.852671 385.50052 
L 327.526486 387.218265 
L 327.86475 387.66084 
L 328.342141 387.81108 
L 328.532259 387.717309 
L 328.868927 387.274634 
L 329.228398 386.587078 
L 329.878276 384.403344 
L 330.606024 381.197079 
L 330.890567 379.237869 
L 331.338348 377.755158 
L 331.712701 375.579534 
L 332.287401 369.118985 
L 334.720155 340.850938 
L 334.946555 335.952581 
L 336.720818 310.945341 
L 338.404541 278.883089 
L 340.420336 240.94767 
L 340.832201 236.615134 
L 341.429146 222.712973 
L 343.107485 193.117394 
L 346.132379 149.406234 
L 347.143401 138.070374 
L 348.152423 128.897669 
L 348.653156 123.844925 
L 349.281326 121.633748 
L 349.704862 118.247066 
L 350.33732 117.389199 
L 350.666547 116.401285 
L 350.8354 115.981265 
L 351.171914 115.812966 
L 351.5121 116.064751 
L 351.849171 116.497751 
L 352.401241 119.119597 
L 352.531505 120.923732 
L 353.566887 124.368281 
L 353.914072 127.521116 
L 354.387579 133.842575 
L 354.576909 133.842575 
L 354.913365 137.234006 
L 355.756765 148.013129 
L 355.921003 148.013129 
L 356.257248 152.077111 
L 357.495438 169.949073 
L 357.676539 169.949073 
L 359.454051 203.598297 
L 359.619174 207.290835 
L 360.099853 207.290835 
L 360.289375 215.176362 
L 361.77477 242.17107 
L 362.691405 268.154316 
L 362.978928 268.154316 
L 365.199761 310.392324 
L 365.470211 310.392324 
L 366.005072 321.59376 
L 368.367167 356.892019 
L 369.446907 368.73166 
L 369.860387 375.191727 
L 370.206706 375.191727 
L 370.45689 377.899229 
L 371.003037 382.353187 
L 371.579641 385.641023 
L 371.934286 386.733457 
L 372.232364 386.733457 
L 372.472742 387.471418 
L 372.812313 388.052354 
L 373.156556 388.239291 
L 373.48263 388.047468 
L 374.152504 387.04523 
L 374.824897 385.032662 
L 375.17189 383.733746 
L 375.498636 381.549793 
L 375.837534 377.991751 
L 376.290622 375.607095 
L 376.551573 375.607095 
L 377.513027 366.416675 
L 378.186112 358.471643 
L 378.874195 349.992859 
L 379.21142 340.111533 
L 379.534071 340.111533 
L 379.870623 335.52634 
L 380.537786 324.720539 
L 380.873416 319.73691 
L 381.882303 301.477279 
L 383.640069 272.815563 
L 383.898598 264.598907 
L 384.570106 250.762426 
L 384.907216 246.26732 
L 385.241653 238.527104 
L 385.609546 232.860773 
L 385.991878 220.909234 
L 386.502282 215.449173 
L 386.801399 211.037699 
L 386.928106 211.037699 
L 387.597711 193.086093 
L 387.932764 193.086093 
L 388.304348 186.335836 
L 388.612944 177.476632 
L 388.978837 177.476632 
L 390.292167 157.807172 
L 390.709473 152.944529 
L 391.103284 145.868985 
L 391.588154 141.47716 
L 391.783579 137.828238 
L 391.962507 137.828238 
L 392.63392 131.933091 
L 393.311062 127.39118 
L 393.97859 124.304142 
L 394.650541 122.594516 
L 395.006359 121.943626 
L 395.336912 121.6042 
L 395.738222 121.501077 
L 396.354068 121.787702 
L 397.002869 123.470089 
L 398.011526 127.512057 
L 398.346694 129.749987 
L 398.693705 131.307218 
L 399.690711 139.960054 
L 401.038188 152.11898 
L 401.707793 161.186848 
L 402.722488 176.571502 
L 403.132911 188.502723 
L 403.386555 188.502723 
L 404.062428 203.271786 
L 404.471582 208.075543 
L 405.638709 236.324129 
L 406.150498 243.020423 
L 406.56815 255.341127 
L 406.846214 255.341127 
L 407.888441 284.676025 
L 408.470639 291.046115 
L 408.808422 301.903166 
L 409.144436 301.903166 
L 409.484795 308.38143 
L 409.819771 312.552021 
L 410.488645 324.722012 
L 411.182361 334.679947 
L 411.504724 339.69766 
L 411.833201 348.361032 
L 412.195133 351.941417 
L 412.504805 351.941417 
L 413.515346 364.206677 
L 414.64898 376.55918 
L 415.200069 378.643354 
L 415.705628 383.636059 
L 416.202611 384.751433 
L 416.55143 387.205096 
L 416.963815 388.567475 
L 417.212114 391.200818 
L 417.679065 391.844271 
L 417.890294 391.844271 
L 418.224386 392.292062 
L 419.227044 391.534681 
L 419.684304 389.205887 
L 419.858156 389.205887 
L 420.152754 387.531753 
L 420.762063 384.839765 
L 420.91415 384.839765 
L 421.242319 382.026734 
L 421.581332 378.223125 
L 422.018596 372.160492 
L 422.256552 372.160492 
L 424.968081 335.767965 
L 425.285637 330.521155 
L 426.128364 314.043612 
L 426.957708 302.067306 
L 428.641853 270.897098 
L 429.331455 252.56032 
L 429.647318 252.56032 
L 430.991028 226.538611 
L 432.074632 208.621177 
L 432.806418 190.510814 
L 433.12505 190.510814 
L 433.68756 178.703138 
L 434.354204 167.602542 
L 434.68545 164.463735 
L 435.737137 146.229942 
L 436.551292 136.663223 
L 436.835854 136.663223 
L 436.88023 132.847798 
L 437.037393 132.847798 
L 437.709805 126.812732 
L 438.717462 119.592966 
L 439.209216 118.291558 
L 439.408525 118.291558 
L 439.726427 117.166289 
L 440.064902 116.467785 
L 440.397339 116.137617 
L 440.73443 116.155924 
L 441.073943 116.375287 
L 441.446488 116.909209 
L 441.741818 118.479417 
L 442.424805 119.977915 
L 442.910444 123.566357 
L 443.58751 127.18804 
L 443.72683 127.18804 
L 443.968823 130.814536 
L 444.115372 130.814536 
L 444.765827 137.662422 
L 445.244199 140.571276 
L 445.437816 144.888953 
L 445.774099 149.074891 
L 446.255163 153.305674 
L 446.447742 157.776589 
L 447.119039 167.242573 
L 447.544767 176.348288 
L 448.168496 181.236975 
L 448.510393 187.682652 
L 449.206686 197.228695 
L 449.887789 211.462573 
L 450.557201 224.205108 
L 450.892062 235.765312 
L 451.427269 243.141414 
L 451.595353 250.013187 
L 451.978742 250.013187 
L 453.430431 282.832317 
L 453.590555 282.832317 
L 454.589983 301.868028 
L 455.325729 313.384002 
L 455.712426 325.204451 
L 456.328618 330.072989 
L 456.96396 343.838434 
L 457.372691 343.838434 
L 457.950429 353.585565 
L 458.680638 361.484032 
L 459.068488 367.461685 
L 459.366202 367.461685 
L 459.628191 371.280099 
L 460.849346 382.144124 
L 460.972785 382.144124 
L 461.33091 385.740793 
L 461.645389 386.816445 
L 462.01805 386.816445 
L 462.31534 388.077646 
L 462.653123 388.878463 
L 463.101308 389.472843 
L 463.841554 388.898339 
L 464.293469 387.396428 
L 464.965843 386.063008 
L 465.66029 381.529672 
L 465.978422 376.459472 
L 466.311936 376.459472 
L 466.983926 370.65704 
L 467.324746 367.290241 
L 467.952244 359.92537 
L 468.37801 357.244103 
L 468.662995 352.22233 
L 469.336561 342.778366 
L 472.012559 292.641224 
L 472.478087 292.641224 
L 472.859631 278.621133 
L 474.204955 253.019386 
L 474.756544 247.96429 
L 475.081483 234.654922 
L 475.768469 228.490734 
L 476.213116 216.579743 
L 476.698141 212.610145 
L 477.390819 199.784904 
L 478.177171 189.715284 
L 479.082116 172.78061 
L 479.783562 162.91676 
L 480.113461 154.16234 
L 480.60733 150.157345 
L 480.774376 150.157345 
L 481.137346 143.059662 
L 481.537886 143.059662 
L 481.943772 136.898344 
L 482.209991 136.898344 
L 482.442909 133.993437 
L 483.140086 127.393687 
L 483.825726 125.854155 
L 484.252492 122.623182 
L 484.532093 122.623182 
L 485.187624 120.917157 
L 485.505911 120.613394 
L 485.806623 120.642688 
L 486.285111 120.884401 
L 486.713453 122.932328 
L 486.892574 122.932328 
L 487.890386 128.453633 
L 488.412404 134.222126 
L 488.921808 136.566016 
L 489.497315 145.154706 
L 489.833829 149.356762 
L 490.170112 156.961226 
L 491.639759 169.894371 
L 492.828344 191.542963 
L 493.193045 197.067453 
L 493.674647 202.623765 
L 494.184205 212.758701 
L 494.345944 212.758701 
L 494.861232 225.562915 
L 495.387364 231.654991 
L 495.534451 237.834377 
L 497.571569 275.292537 
L 497.944422 287.690379 
L 498.882285 299.973369 
L 499.006992 299.973369 
L 500.23853 325.383342 
L 500.914595 334.801725 
L 501.24438 343.911041 
L 501.628231 343.911041 
L 502.452768 358.515105 
L 503.564598 370.069771 
L 504.079309 373.376495 
L 504.483579 380.469299 
L 504.823823 382.551074 
L 505.439631 384.082078 
L 505.788796 389.011932 
L 506.323696 390.902382 
L 506.628677 392.557864 
L 507.470442 395.382276 
L 507.7765 395.382276 
L 508.201689 395.711162 
L 508.781503 395.461223 
L 509.325555 393.026744 
L 509.918021 391.354516 
L 511.24208 381.440875 
L 511.359904 381.440875 
L 512.381251 369.408685 
L 512.688155 362.346314 
L 513.106345 362.346314 
L 513.751994 351.970234 
L 514.054898 348.54918 
L 514.531309 345.074158 
L 514.757189 338.901487 
L 515.066824 333.646417 
L 515.422911 322.387701 
L 515.90582 314.875548 
L 516.119011 314.875548 
L 517.119246 296.075348 
L 517.406231 289.13137 
L 517.814462 284.514574 
L 519.118871 258.065413 
L 520.095418 237.166197 
L 521.112304 217.428596 
L 521.43732 212.469208 
L 522.435018 193.599832 
L 523.244712 182.182905 
L 523.498664 179.592804 
L 525.714402 144.787507 
L 526.043917 141.490015 
L 526.282257 141.490015 
L 526.504215 137.424745 
L 526.867647 134.992397 
L 527.164514 132.186813 
L 528.849121 121.328338 
L 529.293499 120.155547 
L 529.604826 118.973691 
L 529.868315 118.498462 
L 530.196215 118.615942 
L 530.809792 119.160656 
L 531.162149 119.660852 
L 531.475359 120.962501 
L 531.637406 120.962501 
L 531.999838 122.331016 
L 532.238831 124.921787 
L 533.020646 127.305343 
L 533.122665 130.388545 
L 533.855643 135.404566 
L 534.352281 137.846553 
L 535.362283 151.828519 
L 535.702297 154.943407 
L 536.370825 168.017452 
L 536.708223 168.017452 
L 537.71888 191.033266 
L 538.054163 191.033266 
L 538.723768 202.42098 
L 539.058628 210.39344 
L 539.417215 215.4281 
L 540.140925 235.030885 
L 540.404837 235.030885 
L 541.077826 250.01204 
L 541.411648 254.836531 
L 542.771854 286.969525 
L 543.180201 292.793077 
L 543.427039 292.793077 
L 544.43858 311.480781 
L 544.805357 323.509109 
L 545.295804 328.721229 
L 545.866312 340.378415 
L 546.597328 350.328806 
L 546.941033 360.300857 
L 547.628673 363.871211 
L 548.454634 376.762601 
L 548.882938 376.762601 
L 548.964653 381.227659 
L 549.970272 389.976023 
L 550.969085 395.638831 
L 551.304676 396.392376 
L 551.898295 397.414325 
L 552.182319 397.434712 
L 552.748751 397.168404 
L 552.99309 396.639453 
L 553.665732 394.121073 
L 554.331492 390.625433 
L 555.002174 386.083386 
L 556.010523 377.180078 
L 557.712358 358.586932 
L 558.97166 341.809955 
L 559.316287 341.809955 
L 559.895486 331.299487 
L 560.38551 318.381558 
L 561.389398 300.077203 
L 561.771134 294.620617 
L 562.393902 282.424207 
L 562.839126 277.671949 
L 563.255202 271.969358 
L 563.401828 263.918037 
L 564.231519 251.670187 
L 564.410677 244.401367 
L 565.719393 219.757138 
L 566.632376 208.768403 
L 566.828839 201.808496 
L 567.428572 191.811057 
L 567.977354 186.122537 
L 568.845037 168.532643 
L 570.190131 150.245883 
L 571.197519 139.380032 
L 571.677121 136.453521 
L 571.871354 133.879062 
L 572.54938 129.552629 
L 573.530312 125.671707 
L 574.108395 123.795462 
L 574.539276 123.429549 
L 574.995229 123.207064 
L 575.349393 123.207064 
L 576.005347 124.034238 
L 576.347283 124.868987 
L 576.868916 127.517919 
L 577.160707 129.705129 
L 577.683801 131.878011 
L 577.813546 131.878011 
L 578.51926 138.477884 
L 579.408093 145.615466 
L 580.039359 153.013719 
L 580.716117 161.423801 
L 582.126775 181.318513 
L 582.72897 192.199911 
L 584.072833 215.755419 
L 585.855114 253.392035 
L 586.03458 253.392035 
L 586.778594 266.257559 
L 587.336105 277.860601 
L 587.453352 277.860601 
L 588.166141 295.638689 
L 589.468512 325.164136 
L 590.202874 335.542829 
L 591.87706 354.554752 
L 592.004344 359.539644 
L 592.328476 363.569826 
L 592.730938 366.288504 
L 593.33894 372.962 
L 594.345097 380.84518 
L 595.37325 387.012904 
L 595.888115 388.654152 
L 596.371024 391.35326 
L 596.699463 392.219145 
L 597.116923 392.789994 
L 597.486815 393.082299 
L 598.318313 392.46693 
L 598.726621 391.942817 
L 599.076132 390.967596 
L 599.740546 387.708709 
L 600.207804 383.602316 
L 600.871718 381.563338 
L 601.168778 378.313264 
L 601.662185 371.569435 
L 601.986432 371.569435 
L 602.359516 367.785826 
L 602.984937 354.806511 
L 603.325181 354.806511 
L 603.499071 350.142841 
L 603.674192 350.142841 
L 604.163831 336.667801 
L 604.672928 336.667801 
L 604.776677 329.890946 
L 607.128774 286.937555 
L 607.464788 274.618275 
L 608.119204 267.86447 
L 608.271906 267.86447 
L 611.500608 202.724432 
L 612.842548 180.210718 
L 613.891659 165.638014 
L 614.492392 162.019096 
L 614.949499 153.017374 
L 615.503279 149.170843 
L 615.684169 145.646111 
L 616.116472 142.366464 
L 616.538508 136.217887 
L 617.125667 131.009397 
L 619.353749 121.564746 
L 619.875036 120.735593 
L 620.211319 120.746185 
L 620.574212 121.09039 
L 621.109727 121.752656 
L 621.319842 122.727591 
L 621.500884 122.727591 
L 622.130689 124.997659 
L 622.636364 129.572008 
L 622.636364 129.572008 
" clip-path="url(#p434cf3a5a4)" style="fill: none; stroke: #008000; stroke-width: 1.5; stroke-linecap: square"/>
   </g>
   <g id="line2d_23">
    <path d="M 115.363636 176.638987 
L 117.747468 121.666661 
L 119.040605 108.711054 
L 119.098089 105.098116 
L 119.689363 100.324007 
L 119.916695 94.019143 
L 121.951847 80.121087 
L 122.457531 78.587664 
L 122.870117 78.420598 
L 122.980005 78.275471 
L 123.279127 78.120785 
L 123.625461 78.334647 
L 123.951726 79.192673 
L 125.086898 83.721777 
L 125.633853 87.909033 
L 125.96866 91.040116 
L 126.416134 96.530551 
L 126.643779 97.092814 
L 127.653733 110.72206 
L 127.989891 115.141068 
L 128.662275 129.885574 
L 129.664529 143.682016 
L 130.008291 150.593701 
L 130.339181 161.696394 
L 130.713149 165.189331 
L 131.018482 173.164001 
L 131.355212 178.721567 
L 131.691788 193.818312 
L 132.270521 201.463199 
L 132.451006 208.288074 
L 133.177773 223.065798 
L 133.493185 240.25452 
L 134.062963 247.059686 
L 134.540325 255.422176 
L 134.719508 262.592621 
L 136.721272 308.296585 
L 138.085323 339.526634 
L 138.421856 356.059103 
L 139.296346 365.402441 
L 139.661066 374.580546 
L 140.191068 382.186586 
L 140.597842 390.187426 
L 141.20095 396.855004 
L 141.873223 405.979183 
L 142.226782 415.502181 
L 144.744372 429.607319 
L 145.108774 430.591961 
L 145.30468 430.639539 
L 145.570428 430.887577 
L 145.90598 430.852084 
L 146.241321 430.119355 
L 146.706176 427.909602 
L 147.770448 423.616816 
L 148.260692 419.262756 
L 149.183346 408.603493 
L 149.700038 403.375973 
L 150.138705 396.891584 
L 150.458386 390.149418 
L 150.850033 386.279194 
L 151.283356 379.580156 
L 151.954768 362.479188 
L 152.459846 356.335092 
L 152.638294 352.02641 
L 153.125914 336.557472 
L 153.660179 329.767946 
L 154.248395 314.248904 
L 154.609674 308.423593 
L 154.967434 295.499093 
L 155.853681 279.142358 
L 156.616739 257.003577 
L 156.985622 252.471021 
L 158.92794 203.705143 
L 159.553486 189.347184 
L 159.951258 176.767397 
L 161.298014 151.69418 
L 161.744306 139.880424 
L 162.153056 133.495555 
L 162.382994 127.506286 
L 162.907164 118.484424 
L 163.452197 112.902503 
L 163.630759 108.403207 
L 164.465853 99.586284 
L 164.91995 95.151873 
L 165.080612 91.705765 
L 165.365818 90.93478 
L 166.342548 83.326606 
L 167.020806 80.142799 
L 167.351628 78.91355 
L 167.918224 78.13123 
L 168.161101 78.141727 
L 168.366457 78.394465 
L 168.743204 79.611753 
L 169.186015 80.168379 
L 169.370701 81.898937 
L 169.701283 82.54327 
L 170.379868 87.028839 
L 170.721861 90.914622 
L 171.058154 93.240238 
L 171.384073 96.473378 
L 172.068041 107.354695 
L 172.529906 111.340647 
L 172.726139 114.172238 
L 173.401945 129.188629 
L 173.827297 132.436058 
L 175.096194 160.478614 
L 175.970328 182.515077 
L 176.778551 194.234122 
L 177.14056 205.898185 
L 177.76378 216.951489 
L 178.320954 238.46834 
L 178.816534 244.628897 
L 181.359682 308.485485 
L 181.692148 312.927495 
L 182.360648 328.15757 
L 184.037112 363.273727 
L 185.386551 387.531683 
L 186.731327 409.437364 
L 187.101729 411.659744 
L 187.652222 419.322601 
L 188.201888 422.629575 
L 188.548957 425.865724 
L 189.009246 427.551312 
L 189.632167 430.304951 
L 190.227219 430.905126 
L 190.742488 430.762175 
L 190.907197 430.239996 
L 191.510449 428.985169 
L 191.805134 427.255582 
L 192.323037 425.034897 
L 192.994161 420.178255 
L 193.336136 416.972861 
L 193.705903 412.260372 
L 194.004491 409.90224 
L 195.011167 396.639261 
L 195.679955 385.722151 
L 196.109413 372.500907 
L 197.297104 353.367253 
L 198.233178 335.380374 
L 199.813208 299.016631 
L 200.050298 292.114382 
L 200.38637 286.645701 
L 201.74226 251.697151 
L 202.072919 238.63572 
L 202.746523 227.393447 
L 204.454347 186.787774 
L 204.762299 180.080131 
L 205.734991 155.841475 
L 205.982493 152.636587 
L 207.121548 130.699882 
L 207.444632 126.751164 
L 208.468189 109.014595 
L 208.786678 106.407946 
L 209.128383 100.708472 
L 210.802934 85.41678 
L 211.150003 83.256861 
L 211.598121 79.618166 
L 212.39501 78.267658 
L 212.841003 78.125433 
L 213.17147 78.266682 
L 213.495804 78.757505 
L 213.829308 79.648876 
L 214.835292 84.712522 
L 215.507359 89.904377 
L 215.844122 93.084315 
L 217.190735 109.797358 
L 217.636103 118.680933 
L 218.254324 125.976285 
L 218.345451 129.922351 
L 218.602162 132.14861 
L 219.203444 142.983326 
L 219.929154 162.427453 
L 220.660911 178.763442 
L 221.801216 199.249958 
L 223.479093 239.53451 
L 223.849091 258.170189 
L 224.545258 272.807791 
L 225.099722 281.268506 
L 225.443571 294.112901 
L 225.891583 306.530737 
L 226.308274 309.406334 
L 226.563995 318.119645 
L 226.906681 322.457719 
L 227.909761 345.172375 
L 228.246102 355.886938 
L 228.582289 359.649303 
L 228.918457 369.204417 
L 230.279221 390.106177 
L 231.913318 413.890739 
L 232.283056 417.41523 
L 233.622651 426.814975 
L 234.187468 429.043945 
L 234.89122 430.705829 
L 235.300624 430.90826 
L 235.629236 430.667446 
L 235.970383 430.108761 
L 236.287727 429.163994 
L 236.960044 424.871176 
L 238.648534 411.597009 
L 239.648404 398.69006 
L 240.356041 387.517596 
L 240.675654 381.785784 
L 241.03524 369.186345 
L 242.001693 353.767174 
L 243.66467 318.287992 
L 245.637569 272.998806 
L 246.196079 256.340589 
L 246.869184 239.963327 
L 247.410351 231.004122 
L 247.766034 216.320252 
L 248.480958 205.615896 
L 248.767039 196.060148 
L 249.104879 190.592854 
L 249.42853 183.44461 
L 249.893078 165.286629 
L 250.567624 148.811529 
L 251.279683 143.214209 
L 251.953864 128.387793 
L 253.183998 111.574704 
L 254.871278 88.525558 
L 255.74148 84.112532 
L 255.948864 82.057246 
L 257.017336 78.331048 
L 257.37302 78.154096 
L 257.823973 78.165678 
L 258.012265 78.331433 
L 258.34851 79.090854 
L 259.015558 81.434987 
L 259.586373 87.480927 
L 260.094163 88.747765 
L 260.590339 94.103925 
L 260.774131 94.837557 
L 261.143889 101.367214 
L 261.49986 103.567805 
L 261.7014 108.033212 
L 262.371716 115.657886 
L 262.718113 124.535049 
L 263.083775 126.509831 
L 263.402619 133.569508 
L 263.714618 137.83384 
L 264.41191 151.883742 
L 264.725582 158.580166 
L 265.059096 172.244658 
L 265.644909 180.63538 
L 267.116748 214.356897 
L 267.621077 237.196053 
L 268.528618 246.191347 
L 269.209029 263.750147 
L 269.540986 275.68346 
L 270.274233 288.949011 
L 271.220805 312.458449 
L 272.226597 334.527483 
L 272.901509 354.940214 
L 273.235869 356.266332 
L 274.590192 383.251264 
L 274.929051 387.011956 
L 276.598161 412.308689 
L 277.424564 419.388277 
L 277.713606 423.277315 
L 277.990861 423.531199 
L 278.611956 427.300565 
L 278.970773 429.114862 
L 279.520786 430.703594 
L 279.903906 430.92 
L 280.336344 430.763647 
L 280.626943 430.002353 
L 280.963111 429.49408 
L 281.639946 426.664706 
L 282.306955 422.199 
L 282.985078 416.155899 
L 284.66705 394.467816 
L 285.527389 378.122268 
L 285.756365 377.732077 
L 286.340967 365.284368 
L 286.79417 351.390919 
L 287.640646 338.999792 
L 288.324537 324.702553 
L 288.520769 312.223313 
L 289.178588 304.618442 
L 289.879476 287.860204 
L 290.641717 269.130666 
L 290.861522 259.209081 
L 291.840377 234.827812 
L 292.791564 215.851721 
L 293.081221 205.215932 
L 296.088868 143.688421 
L 296.416403 132.888001 
L 297.584453 116.004975 
L 297.779185 110.638926 
L 298.432909 105.542245 
L 299.798518 89.367454 
L 300.793139 82.279772 
L 302.151826 78.182381 
L 302.498588 78.150079 
L 302.850907 78.422242 
L 303.474847 79.959237 
L 303.811861 84.103674 
L 304.592387 87.367668 
L 304.974643 90.220298 
L 307.013337 115.731472 
L 307.371539 118.377854 
L 307.44241 124.323447 
L 307.966773 128.160834 
L 308.021955 130.599276 
L 308.70102 141.499038 
L 309.379066 154.892857 
L 309.720521 165.228532 
L 310.540809 184.757844 
L 310.865056 187.698894 
L 311.071248 196.676849 
L 312.398307 223.717121 
L 312.734301 233.46714 
L 313.065182 239.834617 
L 314.765978 284.043682 
L 315.079284 289.509146 
L 317.437188 344.011131 
L 317.802889 359.420277 
L 318.280645 361.741444 
L 318.450132 366.539249 
L 318.779282 370.652582 
L 319.116411 376.732802 
L 319.810281 392.944232 
L 320.128625 393.513496 
L 321.295964 409.783239 
L 321.78093 414.665223 
L 321.963146 417.979969 
L 322.343805 422.130933 
L 323.152596 427.685144 
L 324.211628 430.517253 
L 324.641566 430.889914 
L 325.240839 430.65794 
L 325.897677 429.034818 
L 326.515907 426.14575 
L 326.852671 422.837534 
L 327.191684 421.544858 
L 327.526486 418.109322 
L 327.86475 411.781521 
L 328.342141 410.138694 
L 328.868927 403.624254 
L 329.228398 397.950774 
L 329.556702 390.060907 
L 330.212309 383.445156 
L 330.890567 368.238302 
L 331.338348 362.099839 
L 331.712701 351.449351 
L 331.926891 351.002506 
L 332.582691 333.581179 
L 332.931741 328.069504 
L 334.025959 301.150604 
L 334.279757 293.915664 
L 334.720155 286.949299 
L 334.946555 277.717267 
L 335.27632 273.005511 
L 335.59228 252.682792 
L 337.059005 229.702493 
L 339.441712 173.282879 
L 341.76416 127.76394 
L 342.440379 116.797368 
L 342.792948 108.418794 
L 343.107485 107.048017 
L 343.77884 98.610642 
L 344.789131 88.516711 
L 345.459505 83.653876 
L 346.132379 80.278926 
L 346.469739 79.076498 
L 346.807617 78.433629 
L 347.143401 78.121463 
L 347.818428 78.710159 
L 348.152423 80.170678 
L 348.653156 82.914746 
L 349.281326 85.682564 
L 349.526242 88.015928 
L 349.704862 93.842428 
L 350.33732 94.745722 
L 351.171914 104.419727 
L 351.849171 116.657051 
L 352.401241 122.198782 
L 352.531505 133.101542 
L 353.566887 143.249874 
L 354.576909 163.610583 
L 354.913365 175.486254 
L 355.389064 185.184262 
L 355.756765 189.581107 
L 356.768652 215.133411 
L 357.107319 229.574745 
L 357.495438 232.011605 
L 357.676539 238.544707 
L 357.959024 243.458085 
L 358.273734 253.663223 
L 358.609518 258.342515 
L 360.289375 299.954007 
L 361.478768 329.100892 
L 361.99071 340.260852 
L 362.691405 356.8477 
L 362.978928 359.269319 
L 364.658228 392.651499 
L 365.199761 400.308098 
L 365.470211 402.104118 
L 366.005072 409.500707 
L 366.381347 413.031333 
L 366.674638 418.151357 
L 367.087465 420.210495 
L 367.685179 424.551403 
L 368.018982 426.688569 
L 368.367167 429.902947 
L 369.446907 430.89718 
L 369.860387 430.788676 
L 370.206706 430.343135 
L 370.45689 429.417259 
L 371.934286 421.868715 
L 372.812313 413.250138 
L 373.48263 405.79975 
L 374.489864 391.674948 
L 375.498636 374.264078 
L 376.290622 356.848193 
L 376.551573 352.675871 
L 376.845825 344.370259 
L 377.178321 341.165582 
L 378.874195 302.518751 
L 379.21142 291.582352 
L 379.534071 285.970196 
L 381.2236 244.446443 
L 383.640069 186.959142 
L 385.991878 131.831306 
L 386.502282 125.38296 
L 386.801399 123.582908 
L 386.928106 121.498005 
L 387.262236 113.677081 
L 387.597711 108.789636 
L 387.932764 106.339455 
L 388.304348 101.316415 
L 388.612944 95.615644 
L 388.978837 93.747184 
L 389.273512 89.320883 
L 389.609603 88.197673 
L 390.292167 82.812322 
L 391.103284 79.023698 
L 391.588154 78.25733 
L 392.29856 78.237509 
L 392.979355 79.677353 
L 393.642653 82.697503 
L 394.315681 87.06859 
L 394.650541 89.880199 
L 395.006359 94.991733 
L 395.336912 97.402505 
L 395.738222 106.695282 
L 396.354068 109.474198 
L 397.339037 124.756056 
L 398.693705 149.898272 
L 400.026186 177.849968 
L 401.370357 209.526279 
L 401.707793 220.911353 
L 402.045999 225.415023 
L 402.722488 244.229541 
L 403.132911 255.822806 
L 403.386555 258.445584 
L 403.7233 266.698038 
L 404.062428 277.897135 
L 404.471582 285.271984 
L 405.128921 302.929841 
L 405.638709 320.21872 
L 406.150498 326.377875 
L 406.846214 341.241633 
L 407.176959 352.222728 
L 407.591343 356.588498 
L 407.888441 368.195456 
L 408.470639 375.181848 
L 408.808422 381.311446 
L 409.144436 384.653246 
L 409.819771 395.414909 
L 411.182361 413.463976 
L 411.833201 421.131071 
L 413.251857 428.72842 
L 413.85609 430.489956 
L 414.211139 430.896283 
L 414.64898 430.800619 
L 415.200069 429.068411 
L 415.705628 427.917455 
L 416.202611 425.046309 
L 416.55143 421.311312 
L 416.963815 418.720349 
L 417.212114 414.006506 
L 417.679065 412.613902 
L 417.890294 410.484557 
L 418.224386 400.254227 
L 418.742711 393.585474 
L 419.227044 392.431557 
L 420.762063 364.04767 
L 421.242319 353.157164 
L 421.490388 350.599592 
L 421.581332 341.832504 
L 422.018596 338.988724 
L 422.589066 324.557213 
L 423.265439 311.667403 
L 424.694863 276.833992 
L 426.128364 237.392488 
L 426.62081 229.974657 
L 427.968018 197.420592 
L 428.641853 181.384022 
L 429.014899 168.638236 
L 429.647318 159.803679 
L 429.981486 150.812613 
L 430.654745 140.186266 
L 432.074632 115.130186 
L 432.341159 111.699251 
L 432.806418 103.780944 
L 433.12505 101.085005 
L 433.68756 93.546923 
L 434.022843 91.340095 
L 434.354204 87.057026 
L 435.737137 79.254773 
L 436.199589 78.380894 
L 436.835854 78.120654 
L 437.037393 78.199834 
L 437.373407 78.643924 
L 437.709805 79.485791 
L 438.047665 80.705873 
L 438.382717 82.600407 
L 438.717462 85.433096 
L 439.209216 88.046742 
L 440.73443 104.004617 
L 441.446488 115.062113 
L 441.741818 124.65213 
L 442.307481 128.285153 
L 442.424805 134.451153 
L 442.910444 146.527723 
L 443.58751 153.535898 
L 443.72683 157.641735 
L 443.968823 160.078547 
L 444.115372 165.751188 
L 444.430159 169.884184 
L 445.437816 192.612126 
L 446.782141 224.060774 
L 447.119039 232.26303 
L 447.544767 250.218789 
L 448.168496 261.059786 
L 448.510393 274.902179 
L 449.206686 285.328694 
L 449.618301 297.653385 
L 449.887789 301.696113 
L 450.557201 315.985798 
L 450.892062 331.901439 
L 451.427269 336.663807 
L 451.595353 345.398948 
L 451.978742 348.821907 
L 452.907722 367.874827 
L 455.325729 406.229875 
L 456.96396 424.670739 
L 457.345581 424.883686 
L 457.950429 428.178097 
L 458.680638 430.479384 
L 459.068488 430.910669 
L 459.366202 430.871514 
L 459.628191 430.577552 
L 460.304064 428.676947 
L 460.972785 425.401144 
L 461.645389 418.789561 
L 462.01805 416.851472 
L 462.653123 409.912349 
L 464.293469 377.833498 
L 464.965843 376.605523 
L 465.310624 370.324776 
L 465.978422 352.807009 
L 466.311936 349.641653 
L 466.647527 339.938422 
L 467.324746 325.734829 
L 468.37801 300.352764 
L 468.584625 298.979397 
L 468.999932 285.353519 
L 469.336561 274.263332 
L 470.167021 250.773508 
L 471.176523 235.442204 
L 471.520997 220.876218 
L 472.012559 207.24287 
L 472.478087 203.277378 
L 472.620945 200.034685 
L 472.859631 189.945343 
L 473.532543 179.400417 
L 473.869018 168.344531 
L 474.756544 152.78386 
L 475.081483 141.19828 
L 475.768469 129.507003 
L 476.213116 125.879161 
L 477.390819 103.968399 
L 478.743257 90.826653 
L 479.082116 89.092768 
L 479.44301 85.738462 
L 479.783562 83.770659 
L 480.113461 80.954111 
L 480.60733 79.421287 
L 480.774376 79.328835 
L 481.137346 78.178021 
L 481.537886 78.137497 
L 481.943772 78.418428 
L 482.442909 79.335173 
L 482.926972 81.252037 
L 483.140086 84.007155 
L 484.025304 88.285161 
L 484.252492 91.706593 
L 484.532093 93.826451 
L 484.945093 98.66954 
L 485.187624 99.865064 
L 485.505911 105.329713 
L 485.806623 107.817466 
L 486.892574 124.508498 
L 487.146641 131.710624 
L 487.51338 138.017309 
L 488.412404 158.907602 
L 488.815943 161.654801 
L 489.163647 169.555316 
L 490.170112 196.476593 
L 490.730199 204.403816 
L 491.639759 233.130241 
L 492.828344 257.711519 
L 493.674647 276.189981 
L 494.861232 309.258438 
L 495.387364 316.973164 
L 495.534451 324.622009 
L 496.251048 337.075673 
L 497.944422 375.426056 
L 498.396722 380.720041 
L 500.914595 416.809904 
L 501.24438 419.731814 
L 501.628231 421.838895 
L 502.452768 427.714168 
L 503.285343 430.351314 
L 503.564598 430.85332 
L 504.079309 430.844996 
L 504.483579 430.210675 
L 504.823823 428.605504 
L 505.439631 427.1075 
L 505.788796 423.507125 
L 506.323696 421.148978 
L 506.628677 417.194394 
L 507.078169 413.798736 
L 508.201689 395.605284 
L 508.781503 389.688867 
L 509.325555 376.826465 
L 510.276107 365.361212 
L 510.475301 360.048606 
L 511.24208 347.522446 
L 511.359904 343.00378 
L 511.682382 337.955359 
L 512.381251 321.213939 
L 512.688155 306.859262 
L 513.106345 305.443982 
L 513.393868 294.250381 
L 513.751994 286.578838 
L 514.054898 273.594881 
L 514.531309 270.658898 
L 515.422911 242.834347 
L 516.119011 231.444887 
L 516.384884 219.967655 
L 517.119246 207.074522 
L 517.406231 197.436144 
L 521.112304 122.837083 
L 522.789682 100.118309 
L 523.244712 93.491445 
L 524.113626 86.149471 
L 524.451639 83.50105 
L 525.42188 79.072572 
L 525.714402 78.801773 
L 526.043917 78.274191 
L 526.282257 78.124941 
L 526.504215 78.14354 
L 527.164514 79.392824 
L 527.682571 81.289376 
L 528.849121 90.058164 
L 529.293499 92.70491 
L 529.868315 98.881887 
L 530.196215 109.27784 
L 530.809792 113.587714 
L 531.162149 119.638523 
L 531.637406 125.240755 
L 531.999838 130.534258 
L 532.238831 141.222064 
L 533.020646 149.396394 
L 533.122665 153.402399 
L 533.855643 171.174055 
L 534.352281 177.724378 
L 536.136061 220.558814 
L 536.370825 229.165025 
L 536.708223 232.664815 
L 540.738582 329.929372 
L 542.771854 374.646848 
L 544.805357 407.54545 
L 546.941033 428.20865 
L 547.628673 429.117729 
L 547.95392 430.467285 
L 548.454634 430.85074 
L 548.882938 430.908587 
L 548.964653 430.825827 
L 549.63595 429.465114 
L 549.970272 428.477678 
L 550.322052 425.708157 
L 550.684215 424.51478 
L 550.969085 420.580181 
L 552.661459 404.745355 
L 552.748751 403.12983 
L 552.99309 400.929518 
L 553.322912 394.065187 
L 554.000054 385.614571 
L 554.672505 373.705886 
L 557.022795 325.72032 
L 557.359693 316.414047 
L 557.712358 303.347588 
L 558.355122 291.724384 
L 559.316287 270.987449 
L 560.38551 241.710242 
L 560.713948 236.534049 
L 561.771134 208.853964 
L 562.071962 203.405695 
L 562.839126 180.527948 
L 563.255202 176.466113 
L 563.401828 173.179228 
L 563.844899 157.097543 
L 564.231519 155.469889 
L 564.77134 137.174842 
L 565.719393 123.780605 
L 566.155042 115.028767 
L 566.632376 111.8747 
L 566.828839 106.708414 
L 567.428572 98.407378 
L 567.977354 95.698292 
L 568.574626 88.719713 
L 568.845037 87.501597 
L 569.184935 84.30731 
L 570.52676 78.86671 
L 570.86412 78.290394 
L 571.197519 78.12 
L 571.677121 78.577807 
L 571.871354 78.963645 
L 572.54938 81.822273 
L 572.984222 85.997597 
L 573.530312 88.130673 
L 574.108395 93.521628 
L 576.005347 117.409132 
L 576.347283 126.215943 
L 576.868916 133.216342 
L 577.160707 142.322047 
L 577.683801 147.18568 
L 577.813546 154.03343 
L 579.029933 175.65085 
L 579.408093 186.632283 
L 579.755758 191.548704 
L 581.38403 230.00097 
L 582.126775 248.463232 
L 582.39484 259.318705 
L 582.72897 263.205157 
L 584.56128 310.902925 
L 584.929633 322.265424 
L 588.166141 382.67559 
L 590.202874 415.206594 
L 590.982767 421.998308 
L 592.730938 429.766424 
L 593.013155 430.411192 
L 593.33894 430.824087 
L 593.6728 430.904978 
L 594.009391 430.596317 
L 594.345097 429.889092 
L 594.67988 428.018609 
L 595.018701 427.22033 
L 595.37325 423.773769 
L 595.888115 421.724909 
L 596.699463 414.248175 
L 597.116923 409.42544 
L 597.486815 402.596073 
L 598.318313 391.577362 
L 598.726621 383.207672 
L 599.076132 380.721272 
L 599.740546 368.26513 
L 600.207804 353.825406 
L 601.168778 338.154864 
L 601.662185 322.970904 
L 601.986432 316.97815 
L 602.359516 312.431945 
L 602.984937 295.756817 
L 603.674192 280.246314 
L 604.163831 259.007386 
L 604.647509 257.622115 
L 607.128774 196.786088 
L 607.464788 179.350213 
L 608.271906 171.387342 
L 608.492903 164.819414 
L 609.144973 152.673497 
L 609.817539 139.402469 
L 610.156552 129.183308 
L 610.826273 122.038099 
L 611.500608 111.650105 
L 612.505381 98.550059 
L 613.543301 88.205213 
L 613.891659 84.828755 
L 614.695777 80.61721 
L 614.949499 79.247387 
L 615.503279 78.313736 
L 616.116472 78.176633 
L 616.286325 78.380303 
L 616.538508 79.365337 
L 617.125667 83.884829 
L 618.338401 89.079749 
L 618.691489 91.504442 
L 619.353749 98.333667 
L 619.875036 104.223066 
L 620.574212 116.141427 
L 621.319842 126.34056 
L 621.500884 131.90837 
L 622.130689 141.167077 
L 622.353455 147.944542 
L 622.636364 150.925474 
L 622.636364 150.925474 
" clip-path="url(#p434cf3a5a4)" style="fill: none; stroke-dasharray: 5.55,2.4; stroke-dashoffset: 0; stroke: #0000ff; stroke-width: 1.5"/>
   </g>
   <g id="patch_3">
    <path d="M 90 448.56 
L 90 60.48 
" style="fill: none; stroke: #000000; stroke-width: 0.8; stroke-linejoin: miter; stroke-linecap: square"/>
   </g>
   <g id="patch_4">
    <path d="M 648 448.56 
L 648 60.48 
" style="fill: none; stroke: #000000; stroke-width: 0.8; stroke-linejoin: miter; stroke-linecap: square"/>
   </g>
   <g id="patch_5">
    <path d="M 90 448.56 
L 648 448.56 
" style="fill: none; stroke: #000000; stroke-width: 0.8; stroke-linejoin: miter; stroke-linecap: square"/>
   </g>
   <g id="patch_6">
    <path d="M 90 60.48 
L 648 60.48 
" style="fill: none; stroke: #000000; stroke-width: 0.8; stroke-linejoin: miter; stroke-linecap: square"/>
   </g>
   <g id="legend_1">
    <g id="patch_7">
     <path d="M 97 443.56 
L 186.107812 443.56 
Q 188.107812 443.56 188.107812 441.56 
L 188.107812 398.525625 
Q 188.107812 396.525625 186.107812 396.525625 
L 97 396.525625 
Q 95 396.525625 95 398.525625 
L 95 441.56 
Q 95 443.56 97 443.56 
z
" style="fill: #ffffff; opacity: 0.8; stroke: #cccccc; stroke-linejoin: miter"/>
    </g>
    <g id="line2d_24">
     <path d="M 99 404.624063 
L 109 404.624063 
L 119 404.624063 
" style="fill: none; stroke-dasharray: 12.8,3.2,2,3.2; stroke-dashoffset: 0; stroke: #ff0000; stroke-width: 2"/>
    </g>
    <g id="text_13">
     <!-- OptiTrack Z -->
     <g transform="translate(127 408.124063)scale(0.1 -0.1)">
      <defs>
       <path id="DejaVuSans-4f" d="M 2522 4238 
Q 1834 4238 1429 3725 
Q 1025 3213 1025 2328 
Q 1025 1447 1429 934 
Q 1834 422 2522 422 
Q 3209 422 3611 934 
Q 4013 1447 4013 2328 
Q 4013 3213 3611 3725 
Q 3209 4238 2522 4238 
z
M 2522 4750 
Q 3503 4750 4090 4092 
Q 4678 3434 4678 2328 
Q 4678 1225 4090 567 
Q 3503 -91 2522 -91 
Q 1538 -91 948 565 
Q 359 1222 359 2328 
Q 359 3434 948 4092 
Q 1538 4750 2522 4750 
z
" transform="scale(0.015625)"/>
       <path id="DejaVuSans-70" d="M 1159 525 
L 1159 -1331 
L 581 -1331 
L 581 3500 
L 1159 3500 
L 1159 2969 
Q 1341 3281 1617 3432 
Q 1894 3584 2278 3584 
Q 2916 3584 3314 3078 
Q 3713 2572 3713 1747 
Q 3713 922 3314 415 
Q 2916 -91 2278 -91 
Q 1894 -91 1617 61 
Q 1341 213 1159 525 
z
M 3116 1747 
Q 3116 2381 2855 2742 
Q 2594 3103 2138 3103 
Q 1681 3103 1420 2742 
Q 1159 2381 1159 1747 
Q 1159 1113 1420 752 
Q 1681 391 2138 391 
Q 2594 391 2855 752 
Q 3116 1113 3116 1747 
z
" transform="scale(0.015625)"/>
       <path id="DejaVuSans-72" d="M 2631 2963 
Q 2534 3019 2420 3045 
Q 2306 3072 2169 3072 
Q 1681 3072 1420 2755 
Q 1159 2438 1159 1844 
L 1159 0 
L 581 0 
L 581 3500 
L 1159 3500 
L 1159 2956 
Q 1341 3275 1631 3429 
Q 1922 3584 2338 3584 
Q 2397 3584 2469 3576 
Q 2541 3569 2628 3553 
L 2631 2963 
z
" transform="scale(0.015625)"/>
       <path id="DejaVuSans-61" d="M 2194 1759 
Q 1497 1759 1228 1600 
Q 959 1441 959 1056 
Q 959 750 1161 570 
Q 1363 391 1709 391 
Q 2188 391 2477 730 
Q 2766 1069 2766 1631 
L 2766 1759 
L 2194 1759 
z
M 3341 1997 
L 3341 0 
L 2766 0 
L 2766 531 
Q 2569 213 2275 61 
Q 1981 -91 1556 -91 
Q 1019 -91 701 211 
Q 384 513 384 1019 
Q 384 1609 779 1909 
Q 1175 2209 1959 2209 
L 2766 2209 
L 2766 2266 
Q 2766 2663 2505 2880 
Q 2244 3097 1772 3097 
Q 1472 3097 1187 3025 
Q 903 2953 641 2809 
L 641 3341 
Q 956 3463 1253 3523 
Q 1550 3584 1831 3584 
Q 2591 3584 2966 3190 
Q 3341 2797 3341 1997 
z
" transform="scale(0.015625)"/>
       <path id="DejaVuSans-63" d="M 3122 3366 
L 3122 2828 
Q 2878 2963 2633 3030 
Q 2388 3097 2138 3097 
Q 1578 3097 1268 2742 
Q 959 2388 959 1747 
Q 959 1106 1268 751 
Q 1578 397 2138 397 
Q 2388 397 2633 464 
Q 2878 531 3122 666 
L 3122 134 
Q 2881 22 2623 -34 
Q 2366 -91 2075 -91 
Q 1284 -91 818 406 
Q 353 903 353 1747 
Q 353 2603 823 3093 
Q 1294 3584 2113 3584 
Q 2378 3584 2631 3529 
Q 2884 3475 3122 3366 
z
" transform="scale(0.015625)"/>
       <path id="DejaVuSans-6b" d="M 581 4863 
L 1159 4863 
L 1159 1991 
L 2875 3500 
L 3609 3500 
L 1753 1863 
L 3688 0 
L 2938 0 
L 1159 1709 
L 1159 0 
L 581 0 
L 581 4863 
z
" transform="scale(0.015625)"/>
      </defs>
      <use xlink:href="#DejaVuSans-4f"/>
      <use xlink:href="#DejaVuSans-70" x="78.710938"/>
      <use xlink:href="#DejaVuSans-74" x="142.1875"/>
      <use xlink:href="#DejaVuSans-69" x="181.396484"/>
      <use xlink:href="#DejaVuSans-54" x="209.179688"/>
      <use xlink:href="#DejaVuSans-72" x="255.513672"/>
      <use xlink:href="#DejaVuSans-61" x="296.626953"/>
      <use xlink:href="#DejaVuSans-63" x="357.90625"/>
      <use xlink:href="#DejaVuSans-6b" x="412.886719"/>
      <use xlink:href="#DejaVuSans-20" x="470.796875"/>
      <use xlink:href="#DejaVuSans-5a" x="502.583984"/>
     </g>
    </g>
    <g id="line2d_25">
     <path d="M 99 419.302188 
L 109 419.302188 
L 119 419.302188 
" style="fill: none; stroke: #008000; stroke-width: 1.5; stroke-linecap: square"/>
    </g>
    <g id="text_14">
     <!-- Kalman Z -->
     <g transform="translate(127 422.802188)scale(0.1 -0.1)">
      <defs>
       <path id="DejaVuSans-4b" d="M 628 4666 
L 1259 4666 
L 1259 2694 
L 3353 4666 
L 4166 4666 
L 1850 2491 
L 4331 0 
L 3500 0 
L 1259 2247 
L 1259 0 
L 628 0 
L 628 4666 
z
" transform="scale(0.015625)"/>
       <path id="DejaVuSans-6c" d="M 603 4863 
L 1178 4863 
L 1178 0 
L 603 0 
L 603 4863 
z
" transform="scale(0.015625)"/>
      </defs>
      <use xlink:href="#DejaVuSans-4b"/>
      <use xlink:href="#DejaVuSans-61" x="63.826172"/>
      <use xlink:href="#DejaVuSans-6c" x="125.105469"/>
      <use xlink:href="#DejaVuSans-6d" x="152.888672"/>
      <use xlink:href="#DejaVuSans-61" x="250.300781"/>
      <use xlink:href="#DejaVuSans-6e" x="311.580078"/>
      <use xlink:href="#DejaVuSans-20" x="374.958984"/>
      <use xlink:href="#DejaVuSans-5a" x="406.746094"/>
     </g>
    </g>
    <g id="line2d_26">
     <path d="M 99 433.980313 
L 109 433.980313 
L 119 433.980313 
" style="fill: none; stroke-dasharray: 5.55,2.4; stroke-dashoffset: 0; stroke: #0000ff; stroke-width: 1.5"/>
    </g>
    <g id="text_15">
     <!-- Desired Z -->
     <g transform="translate(127 437.480313)scale(0.1 -0.1)">
      <defs>
       <path id="DejaVuSans-44" d="M 1259 4147 
L 1259 519 
L 2022 519 
Q 2988 519 3436 956 
Q 3884 1394 3884 2338 
Q 3884 3275 3436 3711 
Q 2988 4147 2022 4147 
L 1259 4147 
z
M 628 4666 
L 1925 4666 
Q 3281 4666 3915 4102 
Q 4550 3538 4550 2338 
Q 4550 1131 3912 565 
Q 3275 0 1925 0 
L 628 0 
L 628 4666 
z
" transform="scale(0.015625)"/>
       <path id="DejaVuSans-64" d="M 2906 2969 
L 2906 4863 
L 3481 4863 
L 3481 0 
L 2906 0 
L 2906 525 
Q 2725 213 2448 61 
Q 2172 -91 1784 -91 
Q 1150 -91 751 415 
Q 353 922 353 1747 
Q 353 2572 751 3078 
Q 1150 3584 1784 3584 
Q 2172 3584 2448 3432 
Q 2725 3281 2906 2969 
z
M 947 1747 
Q 947 1113 1208 752 
Q 1469 391 1925 391 
Q 2381 391 2643 752 
Q 2906 1113 2906 1747 
Q 2906 2381 2643 2742 
Q 2381 3103 1925 3103 
Q 1469 3103 1208 2742 
Q 947 2381 947 1747 
z
" transform="scale(0.015625)"/>
      </defs>
      <use xlink:href="#DejaVuSans-44"/>
      <use xlink:href="#DejaVuSans-65" x="77.001953"/>
      <use xlink:href="#DejaVuSans-73" x="138.525391"/>
      <use xlink:href="#DejaVuSans-69" x="190.625"/>
      <use xlink:href="#DejaVuSans-72" x="218.408203"/>
      <use xlink:href="#DejaVuSans-65" x="257.271484"/>
      <use xlink:href="#DejaVuSans-64" x="318.794922"/>
      <use xlink:href="#DejaVuSans-20" x="382.271484"/>
      <use xlink:href="#DejaVuSans-5a" x="414.058594"/>
     </g>
    </g>
   </g>
  </g>
 </g>
 <defs>
  <clipPath id="p434cf3a5a4">
   <rect x="90" y="60.48" width="558" height="388.08"/>
  </clipPath>
 </defs>
</svg>
